<svg id="Layer_1" data-name="Layer 1" xmlns="http://www.w3.org/2000/svg" viewBox="0 0 55.92 55.92"><path d="M48.05,16.23V21l-.27.28H46.54c-.1.25.05.24.19.35a4.25,4.25,0,0,1,1.5,2.15,6.08,6.08,0,0,1,0,2.82,7.55,7.55,0,0,1-.19.79A3.58,3.58,0,0,1,46.94,29c-.2.15-.37.35-.55.51a1.19,1.19,0,0,0-.49.13,3.88,3.88,0,0,1-1.57.4H30.49v-5H43.35a3.48,3.48,0,0,0,1.34-.33,1,1,0,0,0,.57-.82,4.47,4.47,0,0,0,0-.89c-.27-.83-.87-1.12-1.6-1.46h-13l-.23-.23v-4.8H46.05c.3,0,.63.14.89-.16s.26.33.49,0C47.52,16.18,47.8,16.24,48.05,16.23Z"/><path d="M48,32.76v4.3c-.52.3-1.19.12-1.7.48a7,7,0,0,1,1.2,1.67,4.1,4.1,0,0,1,.52,2c0,.25.19.37.2.62a7.1,7.1,0,0,1-.28,1.9,5.1,5.1,0,0,1-.9,1.62,2.21,2.21,0,0,1-.84.67,6.53,6.53,0,0,1-3.2.89c-.4,0-.81,0-1.22,0a7.76,7.76,0,0,1-1.05-.2A2.8,2.8,0,0,1,39.24,46a4.13,4.13,0,0,1-1.63-2.27,2.72,2.72,0,0,1-.5-1.36c-.12-.47-.13-1-.23-1.48a28,28,0,0,1-.16-3.2c-1.22,0-2.48-.23-3.65.69a2.45,2.45,0,0,0,.27,2.93l.77.39c.32,0,.72-.08,1,.32v4.39a8.07,8.07,0,0,1-1.76-.16A12.84,12.84,0,0,1,32,45.46c-.24-.11-.36-.41-.52-.64a5.24,5.24,0,0,1-1-2.3,13.69,13.69,0,0,1-.3-4.64,7,7,0,0,1,.48-2.14,3.84,3.84,0,0,1,.54-.9,3.54,3.54,0,0,1,1.29-1.2,4.77,4.77,0,0,1,2-.53q4.74,0,9.48,0A22.39,22.39,0,0,1,46.62,33C47.06,32.66,47.54,32.81,48,32.76Zm-8.62,4.88c-.2.56.14,1,.1,1.52a6.26,6.26,0,0,0,.39,1.67c0,.24.28.45.46.64a2.78,2.78,0,0,0,1.54.67A1.57,1.57,0,0,0,43.29,42c.39.11.69-.21,1.05-.2l.79-.79c-.18-.28,0-.54.09-.77a2.75,2.75,0,0,0-1.3-2.08.93.93,0,0,1-.72-.25A14.1,14.1,0,0,0,39.41,37.64Z"/><path d="M42.4,13.62l-.24-.23V8.79A17.17,17.17,0,0,0,44,8.44a1.64,1.64,0,0,0,1.32-1.08V6.14a3.49,3.49,0,0,0-.93-1.2,5.34,5.34,0,0,0-1.14,0,2,2,0,0,0-.87.43,6.8,6.8,0,0,0-1.58,2.31,43,43,0,0,1-2.26,4,4,4,0,0,1-2.33,1.74,5.51,5.51,0,0,1-1.29,0A4,4,0,0,1,31.57,12,6,6,0,0,1,30.28,9.4a17.57,17.57,0,0,1-.16-2.89,8.87,8.87,0,0,1,.37-2.81A2.58,2.58,0,0,1,31,2.62,4.74,4.74,0,0,1,32.7,1.1,4.45,4.45,0,0,1,34,.76a10.8,10.8,0,0,1,1.4,0c0,.78,0,1.5,0,2.22,0,.41-.13.85.16,1.23,0,.06,0,.22,0,.25-.3.28-.08.66-.21,1H34a2.63,2.63,0,0,0-1.07.78c.07.32-.19.56-.21.88s.32.55.19.89l.77.76h1a2.62,2.62,0,0,0,1.1-1c.38-.57.69-1.17,1-1.76A36.23,36.23,0,0,1,39,2.26a5,5,0,0,1,2.46-2A3.45,3.45,0,0,1,43.93.19c.26.11.54,0,.83.11A4.19,4.19,0,0,1,47.2,2.37a10.45,10.45,0,0,1,.86,2.34A17.61,17.61,0,0,1,48.24,8,11.18,11.18,0,0,1,48,10a2.17,2.17,0,0,1-.42,1c-.27.36-.45.76-.74,1.09A4.38,4.38,0,0,1,45,13.27a1.65,1.65,0,0,1-.88.19c-.27,0-.49.22-.8.17A7.51,7.51,0,0,0,42.4,13.62Z"/><path d="M7.52,55.92V53.55h29.4a18.57,18.57,0,0,1,0,2.24s0,.12,0,.13H7.52Z"/></svg>