<?xml version="1.0" encoding="utf-8"?>
<!-- Generator: Adobe Illustrator 24.2.0, SVG Export Plug-In . SVG Version: 6.00 Build 0)  -->
<svg version="1.1" id="Layer_1" xmlns="http://www.w3.org/2000/svg" xmlns:xlink="http://www.w3.org/1999/xlink" x="0px" y="0px"
	 viewBox="0 0 12 12" style="enable-background:new 0 0 12 12;" xml:space="preserve">
<path d="M11.3,0c0.2,0,0.3,0.1,0.5,0.2S12,0.5,12,0.7v10.7c0,0.2-0.1,0.3-0.2,0.5S11.5,12,11.3,12H8.3V7.4h1.6l0.2-1.8H8.3V4.4
	c0-0.3,0.1-0.5,0.2-0.7s0.4-0.2,0.7-0.2l1,0V1.9c-0.3,0-0.8-0.1-1.4-0.1C8,1.8,7.5,2,7,2.4s-0.6,1-0.6,1.8v1.3H4.8v1.8h1.6V12H0.7
	c-0.2,0-0.3-0.1-0.5-0.2C0.1,11.7,0,11.5,0,11.3V0.7c0-0.2,0.1-0.3,0.2-0.5S0.5,0,0.7,0L11.3,0L11.3,0z"/>
</svg>
