<svg id="Layer_1" data-name="Layer 1" xmlns="http://www.w3.org/2000/svg" viewBox="0 0 536.79 111.16"><path d="M68.36,69.23c0,9.45-.3,17.75,0,23.8H45.92V82.23H48C45.18,86.66,38.39,94,25.39,94,10.63,94,0,84.88,0,62.59V20.22H22.44V59.05c0,10.48,3.4,16.83,11.37,16.83a12.47,12.47,0,0,0,12.11-12.7v-43H68.36Z"/><path d="M403.09,69.23c0,9.45-.29,17.75,0,23.8H380.65V82.23h2.07C379.91,86.66,373.12,94,360.13,94c-14.77,0-25.4-9.16-25.4-31.45V20.22h22.45V59.05c0,10.48,3.39,16.83,11.36,16.83a12.44,12.44,0,0,0,12.11-12.7v-43h22.44Z"/><path d="M82.46,44c0-9.45.29-17.12,0-23.18H104.9V31h-2.07c2.81-4.43,9.6-11.81,22.59-11.81,14.77,0,25.4,9.15,25.4,31.45V93H128.38V54.2c0-10.48-3.4-16.83-11.37-16.83a12.45,12.45,0,0,0-12.11,12.7V93H82.46Z"/><path d="M210.7,43.89c0-9,.29-16.53,0-23h21.49v9.75h-1.71c3.1-4.73,9.6-11.52,21.85-11.52,9.45,0,16.69,4.87,19.79,12.4h.29a31.53,31.53,0,0,1,9.45-8.86,27.56,27.56,0,0,1,13.73-3.54c13.88,0,24.36,9.74,24.36,31.45V93.06H298.1V53.79c0-10.49-3.39-16.54-10.63-16.54-5.31,0-8.5,3.54-10.12,7.83a23.19,23.19,0,0,0-.74,5.75V93.06H253.69V52.46c0-9-2.89-15.21-10.13-15.21-5.76,0-9.15,4.43-10.48,8a15.15,15.15,0,0,0-.89,5.76V93.06H210.7Z"/><path d="M443.17,0V19.49h16.09V36H443.17V62.16c0,8.71,2.21,12.69,8.86,12.69a32.65,32.65,0,0,0,7.23-.59V91.68c-2.8,1-8.71,1.48-14.91,1.48-7.23,0-13.29-2.51-17-6.2-4.13-4.28-6.2-11.22-6.2-21.41V36h-9.6V19.49h9.6V6.05Z"/><path d="M489.54,63.19c.6,9.3,9.9,13.73,20.38,13.73a59.36,59.36,0,0,0,19.93-3.1L532.8,89c-7.38,3.1-16.38,4.57-26.13,4.57-24.51,0-38.53-14.17-38.53-36.76,0-18.31,11.37-38.53,36.46-38.53,23.33,0,32.19,18.16,32.19,36a52.82,52.82,0,0,1-.74,8.86ZM516,47.83c0-5.46-2.36-14.61-12.69-14.61-9.45,0-13.29,8.71-13.88,14.61Z"/><path d="M157.38,111.16,189,4.11h14.91l-31.6,107.05Z"/></svg>