<svg xmlns="http://www.w3.org/2000/svg" viewBox="0 0 1996.11 784.58">
  <g class="map-bkgd">
    <line x1="1148.78" y1="421.34" x2="1111.29" y2="341.5"/>
    <line x1="986.72" y1="421.34" x2="986.72" y2="341.5"/>
    <line x1="1004.41" y1="421.34" x2="1004.41" y2="341.5"/>
    <line x1="1022.47" y1="421.34" x2="1022.47" y2="341.5"/>
    <line x1="1039.79" y1="421.34" x2="1039.79" y2="341.5"/>
    <line x1="1057.85" y1="421.34" x2="1057.85" y2="341.5"/>
    <line x1="1075.54" y1="421.34" x2="1075.54" y2="341.5"/>
    <line x1="1093.6" y1="421.34" x2="1093.6" y2="341.5"/>
    <line x1="1110.92" y1="421.34" x2="1110.92" y2="341.5"/>
    <rect x="211.77" y="339.13" width="220.8" height="82.21" transform="translate(644.34 760.48) rotate(180)"/>
    <line x1="410.79" y1="421.34" x2="410.79" y2="339.83"/>
    <line x1="388.53" y1="421.34" x2="388.53" y2="339.83"/>
    <line x1="366.63" y1="421.34" x2="366.63" y2="339.83"/>
    <line x1="344.38" y1="421.34" x2="344.38" y2="339.83"/>
    <line x1="321.22" y1="421.34" x2="321.22" y2="339.83"/>
    <line x1="298.96" y1="421.34" x2="298.96" y2="339.83"/>
    <line x1="277.06" y1="421.34" x2="277.06" y2="339.83"/>
    <line x1="254.81" y1="421.34" x2="254.81" y2="339.83"/>
    <line x1="232.98" y1="339.83" x2="232.98" y2="421.34"/>
    <rect x="211.77" y="243.5" width="220.8" height="80.49"/>
    <line x1="233.55" y1="323.98" x2="233.55" y2="244.2"/>
    <line x1="255.8" y1="323.98" x2="255.8" y2="244.2"/>
    <line x1="277.7" y1="323.98" x2="277.7" y2="244.2"/>
    <line x1="299.96" y1="323.98" x2="299.96" y2="244.2"/>
    <line x1="323.12" y1="323.98" x2="323.12" y2="244.2"/>
    <line x1="345.37" y1="323.98" x2="345.37" y2="244.2"/>
    <line x1="367.27" y1="323.98" x2="367.27" y2="244.2"/>
    <line x1="389.53" y1="323.98" x2="389.53" y2="244.2"/>
    <line x1="411.36" y1="244.2" x2="411.36" y2="323.98"/>
    <line x1="78.98" y1="420.18" x2="78.98" y2="0.53"/>
    <line x1="655.59" y1="175.67" x2="655.59" y2="232.13"/>
    <polyline points="521.9 175.68 521.9 175.68 521.9 231.46"/>
    <polyline points="1238.29 340.63 1238.29 421.34 211.77 421.34"/>
    <polygon points="432.23 231.69 432.23 324.49 212.6 324.49 212.6 338.97 432.23 338.97 432.4 338.97 842.08 338.97 842.08 231.69 432.23 231.69"/>
    <line x1="1128.23" y1="421.34" x2="1128.23" y2="376.76"/>
    <line x1="369.14" y1="175.67" x2="871.94" y2="175.67"/>
    <path d="M773.33,247V232.09s-271.74-.9-271.74,0V247s63.29,51.5,137.47,51.55C710.8,298.62,773.33,247,773.33,247Z"/>
    <polyline points="1238.37 375.94 1265.4 357.86 1490.24 397.79 1490.24 394.63 1490.24 106.75 1265.4 146.68 1238.08 127.77"/>
  </g>
  <g class="map-focus">
    <polyline points="211.77 420.18 211.77 420.18 -1.62 420.18 -1.62 0.53 369.14 0.53 369.14 244.2 211.77 243.5 211.77 420.18"/>
    <polygon points="871.94 175.68 871.94 86.84 1237.24 86.84 1237.24 340.75 986.2 340.75 986.2 421.34 432.57 421.34 432.57 338.97 871.94 338.97 871.94 175.9 871.94 175.68"/>
  </g>
  <g class="map-text">
    <text transform="translate(1007.67 458.66)">
      Upper Mezzanine
    </text>
    <text transform="translate(-1.62 461.66)">
      Lower Mezzanine
    </text>
    <text transform="translate(1536.28 363.85) rotate(-90)">
      East 52nd Street
    </text>
  </g>
  <g class="logo">
    <path d="M1920.22,185.29v8.64h-1.53c-8.63,0-17.27,0-25.91,0-1.21,0-2.34.66-3.71.21V191.2c0-1-.06-2,0-2.93s-.37-2,.36-3H1892a16.84,16.84,0,0,0-1.48-1.47,5.72,5.72,0,0,1-1.73-2.68c-.48-1.31-.27-3.57-.09-5.29.15-1.53,1-2.58,1.72-3.77a4.16,4.16,0,0,1,1.77-1.29c.23-.13.36-.34.58-.47a8.25,8.25,0,0,1-3.64-3.68,6.5,6.5,0,0,1-.68-2.65c0-.72,0-1.44,0-2.16a7.55,7.55,0,0,1,1.34-4.22,6.62,6.62,0,0,1,3.69-2.56,4.74,4.74,0,0,1,1.57-.35c8.23,0,16.45,0,24.68,0,.14,0,.29,0,.48.05v8.48l-.45.46a6.33,6.33,0,0,0-1.38-.36q-9.26,0-18.51,0c-.71,0-1.29.47-2,.36a9.39,9.39,0,0,0-2.12,0A4.54,4.54,0,0,0,1894,165v2.48c.79,1.73,2.28,2.34,4.15,2.34q10.95,0,21.9,0a.52.52,0,0,1,.11.1.34.34,0,0,1,0,.14v8.71h-1.56c-7.09,0-14.19,0-21.28,0a6.33,6.33,0,0,0-2.38.6,1.62,1.62,0,0,0-1,1.46,10.86,10.86,0,0,0,0,1.7,4.8,4.8,0,0,0,2.25,2.34c4,.7,8,.32,12,.38S1916.13,185.29,1920.22,185.29Z"/>
    <path d="M1917.42,466.33c.31.21.56.19.76.38a7.79,7.79,0,0,1,2.71,6.14,12.9,12.9,0,0,1-.63,3.91,6.21,6.21,0,0,1-4,3.95,9.72,9.72,0,0,1-3.61.6c-7.35,0-14.7,0-22,0h-1.54v-8.95h23a4.38,4.38,0,0,0,2.24-.58,1.85,1.85,0,0,0,1-1.61,11.84,11.84,0,0,0,0-1.45c-.48-1.44-1.54-2-2.82-2.56h-23.37v-8.84a2.82,2.82,0,0,1,1.3-.09h25.9a6.17,6.17,0,0,0,2.82-.28c.28-.14.68,0,1.07,0v8.94A5.7,5.7,0,0,0,1917.42,466.33Z"/>
    <path d="M1920.25,685v8.51l-.49.49h-2.2c-.18.45.09.43.34.62a7.57,7.57,0,0,1,2.66,3.81,10.66,10.66,0,0,1,0,5,12,12,0,0,1-.33,1.41,6.28,6.28,0,0,1-2,2.72,10.62,10.62,0,0,0-1,.92,2.33,2.33,0,0,0-.87.22,6.58,6.58,0,0,1-2.79.7h-24.53v-9h22.79a6.31,6.31,0,0,0,2.38-.58,1.65,1.65,0,0,0,1-1.46,7.22,7.22,0,0,0,0-1.59c-.48-1.45-1.55-2-2.83-2.57h-23l-.41-.41v-8.52h27.59c.53,0,1.12.24,1.58-.29.27-.31.46.58.87.07C1919.29,684.92,1919.8,685,1920.25,685Z"/>
    <path d="M1920.22,558.16v9h-1.53q-12.11,0-24.22,0c-1.76,0-3.53-.27-5.33.37v-9a5.32,5.32,0,0,0,2.71-.43,6.8,6.8,0,0,1-3.11-4.27,17.32,17.32,0,0,1-.27-4.36,10.89,10.89,0,0,1,1.28-3.47,7.21,7.21,0,0,1,2.51-2.13,6.47,6.47,0,0,1,2.62-.76H1920s.09,0,.18.08v8.45l-.47.47a2.19,2.19,0,0,0-1.49-.37c-6.48,0-13,0-19.44,0-.68,0-1.23.49-1.87.32s-1.13.38-1.69.33l-1.19,1.27v2.25c.78,1.73,2.27,2.34,4.13,2.34Z"/>
    <path d="M1889.52,416.47l-.42-.42v-8.52h16.18c1.44,0,2.89-.06,4.32,0s2.66-.63,3.75-.35a4,4,0,0,0,1.93-1.33v-2.13l-.81-1.56-1.59-.82c-3.82-.62-7.8-.23-11.77-.3s-7.92,0-11.87,0c0,0-.09-.07-.11-.11a.21.21,0,0,1-.05-.13c0-2.77,0-5.54,0-8.28.26-.16.35-.46.66-.44s.41,0,.62,0h29.83v8.48a4.77,4.77,0,0,1-2.88.46c.71.71,1.24,1.28,1.82,1.8a5.84,5.84,0,0,1,1.74,4.06,17.81,17.81,0,0,1,0,2.31,7.65,7.65,0,0,1-3.78,6.28c-1,.1-1.88.71-3,.7-7.71,0-15.42,0-23.13,0C1890.51,416.18,1890,416,1889.52,416.47Z"/>
    <path d="M1920.24,200.2v8.37c-.87.79-2,.36-3,.54a10.88,10.88,0,0,1,3,3.16,5.58,5.58,0,0,1,.68,2.49,17.08,17.08,0,0,1,0,2.77,7.85,7.85,0,0,1-1.93,4.46,6.74,6.74,0,0,1-3.32,2,10.25,10.25,0,0,1-2.44.43c-7.92,0-15.84,0-23.76,0a1.17,1.17,0,0,1-.3-.1v-8.85h17.73c1.23,0,2.47-.08,3.7,0s2.24-.56,3.21-.35c2-.61,1.51-2.12,1.58-3.38l-.76-1.5c-.07,0-.26,0-.34-.07a4.64,4.64,0,0,0-3.52-1.19c-6.69,0-13.37,0-20.06,0h-1.53v-8.64h1.51q12.66,0,25.31,0C1917.33,200.43,1918.69,199.82,1920.24,200.2Z"/>
    <path d="M1904.66,275.73c-1.13,0-2.26,0-3.39,0a8,8,0,0,1-2.36-.24,17.88,17.88,0,0,0-2.17-.35c-.76-.15-1.41-.67-2.21-.63-1.24-1-3-1.38-3.67-3-1.22-1-1.45-2.48-2-3.82a1.49,1.49,0,0,1-.13-.25,33.49,33.49,0,0,1-.28-7.27c.36-1.77.63-3.61,1.81-5.11a10.34,10.34,0,0,1,6-4c1.35-.29,2.7-.47,4.06-.67a33.23,33.23,0,0,1,3.58-.22,18.28,18.28,0,0,1,3.55,0c1.71.28,3.47.18,5.14.6a21.09,21.09,0,0,1,3.6,1.35,6.65,6.65,0,0,1,2.47,2.18,11.92,11.92,0,0,1,1.63,3.34c.91,2.72.61,5.49.52,8.24a9.64,9.64,0,0,1-1.5,4.9,8.83,8.83,0,0,1-4.53,3.69,21.17,21.17,0,0,1-4.22,1c-1,.11-2,.22-3,.24Zm9.93-15.09c-.56.08-.68-.54-1.13-.66a16.56,16.56,0,0,0-4.86-.9c-3.36.11-6.71-.3-10.07.25a12.85,12.85,0,0,0-2.67.65,2.71,2.71,0,0,0-1.55,1.56,3.3,3.3,0,0,0,2,4.62,14.45,14.45,0,0,0,3.45.62c2,0,4.11,0,6.17,0a24.73,24.73,0,0,0,5.43-.26,21.08,21.08,0,0,0,2.34-.72c1.22-.46,1.51-1.5,1.66-2.68A5.15,5.15,0,0,0,1914.59,260.64Z"/>
    <path d="M1897.38,588.1v8.23a7.44,7.44,0,0,1-7.44-4.12,20.25,20.25,0,0,1-1.23-4.13,27.56,27.56,0,0,1-.2-6.66,10.08,10.08,0,0,1,2.82-6.84,8.53,8.53,0,0,1,3.17-1.64,8,8,0,0,1,2.51-.27h17.11a10.88,10.88,0,0,0,2.66-.27c.84-.23,1.79.11,2.65-.34.19-.1.49,0,.78,0v7.61l-.41.4c-.94-.16-1.86.49-3,.55.3.26.63.49.91.77a8.68,8.68,0,0,1,2.59,5.56,10,10,0,0,1,.28,2.19c-.29,2.1-.76,4.13-2.47,5.6a9.88,9.88,0,0,1-3.94,2,19.43,19.43,0,0,1-5.74.25,7.53,7.53,0,0,1-3.7-1.45,9.45,9.45,0,0,1-3.59-5.43c-.34-1.11-.44-2.29-.67-3.43-.4-2-.14-3.93-.3-6h-2.87c-1,0-1.75.57-2.7.64-1.78,1.06-1.8,2.58-1.17,4.69C1893.75,587.14,1894.88,588.1,1897.38,588.1ZM1907,588c.36.17.59,0,.85.2a4.5,4.5,0,0,0,2.4.52c1.86,0,3.54-.38,4.69-2.08-.09-.61.77-1.29,0-2a4,4,0,0,0-2-2.83c-1.28-.85-2.75-.87-4.14-1.12a20.9,20.9,0,0,0-3.53,0c-.34.31-.64.56-.46.87a4.05,4.05,0,0,1,.3,2A5.93,5.93,0,0,0,1907,588Z"/>
    <path d="M1893.81,343.08c3.57-.68,7.14-.3,10.69-.36s7.09-.05,10.64,0c.77,0,1.4-.47,2.19-.36a3,3,0,0,0,2-.27c.19-.11.5,0,.89,0,0,1.39,0,2.76,0,4.13s.3,2.62-.31,3.94c-1-.24-1.85.38-2.81.33.07.65.53.87.84,1.18a8.09,8.09,0,0,1,2.26,5.22c0,.38.31.61.33.95a11.89,11.89,0,0,1-.52,3.79,6.71,6.71,0,0,1-3.41,4.21,7.76,7.76,0,0,1-4.26,1.26c-.28,0-.61-.11-.84.21a.47.47,0,0,1-.41.09c-1.39-.36-2.87-.19-4.21-.65a8.75,8.75,0,0,1-3-1.7,9.2,9.2,0,0,1-2.51-4,23.48,23.48,0,0,1-1-4.55,23.85,23.85,0,0,1-.25-2.81c0-.92,0-1.85,0-2.85a13.13,13.13,0,0,0-5.67.58c-1.64,1-1.52,2.55-1.43,3.74.64,2.5,2.34,2.94,4.28,3.05v8.17c-.73.47-1.4-.22-2.11-.18a4.58,4.58,0,0,1-2.07-.59,6.22,6.22,0,0,1-3.16-3.17,15.51,15.51,0,0,1-1.32-4.24,31.48,31.48,0,0,1-.22-6.05,15.3,15.3,0,0,1,.66-4,9,9,0,0,1,1.5-2.76,6.35,6.35,0,0,1,2.85-2A1.33,1.33,0,0,0,1893.81,343.08Zm11.34,8.55c-.1.36-.52.55-.32.87.38.65.16,1.38.32,2a6.11,6.11,0,0,0,1.78,3.42,4.2,4.2,0,0,0,1.9.63,7.41,7.41,0,0,0,3.41,0,5,5,0,0,0,2.77-1.87c-.19-.45.19-.74.31-1.11s-.32-.67-.34-1.1c-.07-1.26-1-1.94-2-2.57a11.07,11.07,0,0,0-4.44-1.18,23.22,23.22,0,0,0-3.54,0c-.08,0-.15.12-.22.17C1904.7,351.23,1905,351.34,1905.15,351.63Z"/>
    <path d="M1920.21,714.33v7.61c-.93.54-2.11.22-3,.87a12.28,12.28,0,0,1,2.12,3,7.06,7.06,0,0,1,.92,3.47c0,.45.35.66.36,1.11a12.2,12.2,0,0,1-.49,3.37,9,9,0,0,1-1.6,2.86,3.89,3.89,0,0,1-1.49,1.2,11.63,11.63,0,0,1-5.67,1.58c-.72,0-1.44,0-2.16,0a13.41,13.41,0,0,1-1.87-.36,5.07,5.07,0,0,1-2.69-1.27c-1.23-1.13-2.6-2.21-2.89-4a4.77,4.77,0,0,1-.88-2.4c-.22-.84-.24-1.78-.41-2.62-.38-1.87-.13-3.72-.29-5.68-2.17.09-4.4-.41-6.48,1.22-1,1.61-.84,3.38.49,5.19l1.36.7c.56,0,1.28-.14,1.85.57v7.78a13.81,13.81,0,0,1-3.13-.28,24.38,24.38,0,0,1-2.54-1.32c-.41-.2-.63-.72-.91-1.13-1.3-2-1-1.59-1.74-4.07a24.63,24.63,0,0,1-.53-8.24,12.22,12.22,0,0,1,.85-3.79,6.42,6.42,0,0,1,1-1.6,6.31,6.31,0,0,1,2.28-2.13,8.2,8.2,0,0,1,3.48-.93c5.6,0,11.21,0,16.81,0a42.83,42.83,0,0,1,4.81-.3C1918.49,714.15,1919.34,714.41,1920.21,714.33ZM1904.92,723c-.35,1,.25,1.84.18,2.7-.1,1.09.51,2,.68,3,.07.42.51.79.83,1.13a4.87,4.87,0,0,0,2.72,1.18,2.75,2.75,0,0,0,2.48-.25c.67.2,1.21-.37,1.85-.35l1.4-1.4c-.31-.49.09-1,.16-1.37,0-1.74-1.17-2.69-2.3-3.69a1.63,1.63,0,0,1-1.28-.43C1909.3,722.77,1907.09,723.05,1904.92,723Z"/>
    <path d="M1910.22,680.39l-.42-.42v-8.15c1.09-.15,2.13-.38,3.17-.61a3,3,0,0,0,2.34-1.92v-2.16a6,6,0,0,0-1.65-2.13,8.38,8.38,0,0,0-2-.08,3.49,3.49,0,0,0-1.54.76,12.28,12.28,0,0,0-2.8,4.09,76.76,76.76,0,0,1-4,7.14,7.06,7.06,0,0,1-4.14,3.08,10.74,10.74,0,0,1-2.28.1,7,7,0,0,1-5.85-2.59,10.79,10.79,0,0,1-2.29-4.6c-.44-1.71-.12-3.42-.28-5.12a16.11,16.11,0,0,1,.65-5,4.75,4.75,0,0,1,.92-1.92,6.92,6.92,0,0,1,5.21-3.3,20.56,20.56,0,0,1,2.49,0c0,1.37,0,2.65,0,3.92,0,.74-.23,1.52.29,2.2a.49.49,0,0,1,0,.44c-.54.49-.15,1.16-.38,1.74h-2.32a4.42,4.42,0,0,0-1.88,1.38c.11.57-.35,1-.39,1.55s.57,1,.34,1.58l1.37,1.34h1.83a4.59,4.59,0,0,0,1.94-1.79c.67-1,1.23-2.06,1.83-3.1a63.55,63.55,0,0,1,3.87-6.57,8.87,8.87,0,0,1,4.36-3.49,6.14,6.14,0,0,1,4.35-.19c.46.2,1,0,1.46.2a7.49,7.49,0,0,1,4.34,3.67,18.84,18.84,0,0,1,1.51,4.16c.56,1.94.15,3.93.33,5.88a18.55,18.55,0,0,1-.37,3.42,3.77,3.77,0,0,1-.74,1.83c-.46.63-.79,1.35-1.3,1.94a7.75,7.75,0,0,1-3.28,2.1,3,3,0,0,1-1.57.34c-.48-.08-.87.39-1.41.31A11.92,11.92,0,0,0,1910.22,680.39Z"/>
    <path d="M1900.15,485.72v8.43a7.65,7.65,0,0,1-3.09.42l-1.94,1a4,4,0,0,0-.64,4.58,5,5,0,0,0,3.27,1.57c1,.18,2.12.06,3.11.3a20.57,20.57,0,0,0,5.59.23c1.39,0,2.77-.37,4.19-.27.55-.65,1.51,0,2-.62,1.34,0,2-1,2.59-2v-2.14a4.24,4.24,0,0,0-3-2.48c-.12,0-.2-.21-.38-.18-1.11.18-2.13-.52-3.3-.27v-8.63a18,18,0,0,1,3.31.18,28.79,28.79,0,0,1,3.06.84,9.13,9.13,0,0,1,4.07,3.46,21.47,21.47,0,0,1,1.45,3.25.7.7,0,0,1,.08.27c0,1.36.48,2.66.33,4-.09.86,0,1.75,0,2.62a13.72,13.72,0,0,1-1,4.66,7.52,7.52,0,0,1-3.25,3.8,17.66,17.66,0,0,1-5.87,1.9,44.51,44.51,0,0,1-5.28.23c-1.79.05-3.6.09-5.39,0a20.28,20.28,0,0,1-4.16-.74,11.18,11.18,0,0,1-3.57-1.78,8.82,8.82,0,0,1-3.2-4.82,11.87,11.87,0,0,1-.65-3.75c0-.92,0-1.85,0-2.77a13.57,13.57,0,0,1,.47-3.37,12.08,12.08,0,0,1,1.1-2.93,9.42,9.42,0,0,1,6.11-4.76A7.37,7.37,0,0,1,1900.15,485.72Z"/>
    <path d="M1889,278.23h5.26v5.49h25.92v8.64h-25.84v4.29h-5.26V292.4H1882a3,3,0,0,1-1.58-.28c-.4-.22-.91-.08-1.42-.29a4.85,4.85,0,0,1-3.17-3.13,12.92,12.92,0,0,1-.65-3.44,4.66,4.66,0,0,0-.29-2.5.76.76,0,0,1,0-.61c.52-1.25.19-2.58.33-3.83.06-.06.1-.12.14-.12h6.22a5.54,5.54,0,0,0,0,2.8,4.36,4.36,0,0,0,1.37,2.36c2,.63,4,.32,6,.41Z"/>
    <path d="M1894.58,641.78h18.68a3.54,3.54,0,0,0,1.4-1.08c-.13-.74.48-1.42.35-2.25s-.58-1.39-.21-2.17h5l.44.44c-.22,2.13.51,4.3.32,6.53a10.91,10.91,0,0,1-1.12,4.17,5.27,5.27,0,0,1-3.66,2.67c-.52.11-1,.5-1.56.38a7.89,7.89,0,0,0-1.54,0h-18.06v4h-5.51v-3.92H1884c-1.25-2.88-2.65-5.64-3.78-8.61,1.41-.16,2.86,0,4.31-.07s3,0,4.57,0v-5.53h5.52Z"/>
    <path d="M1889.07,438.65v-3.92h-5.13l-3.76-8.6c1.41-.17,2.86-.05,4.31-.08s3,0,4.57,0v-5.52h5.51v5.33c.41.33.84.18,1.22.18H1912a3.13,3.13,0,0,0,2.67-1.07c-.12-.77.48-1.46.35-2.28s-.59-1.39-.21-2.18h5a2.77,2.77,0,0,1,.42,1.7c-.17,1,.45,1.93.33,3s0,2,0,2.93a6.36,6.36,0,0,1-5,6.31,9.93,9.93,0,0,1-2.81.27h-18.06v4Z"/>
    <path d="M1875.83,451v-8.54h44.39V451Z"/>
    <path d="M1875.86,327.92h44.34v8.47c-1.33.22-38.93.32-44.34.1Z"/>
    <path d="M1889.1,631.27v-7.55l.45-.44a5.53,5.53,0,0,0,2.91-.45c-3.24-1.63-4-4.49-4-7.84h7.74a12.68,12.68,0,0,0,0,2,6,6,0,0,0,1.71,3.92,5.11,5.11,0,0,0,1.62.93c.64.24,1.31.24,1.94.53a3.84,3.84,0,0,0,1.52,0h17.19v8.91Z"/>
    <path d="M1920.2,385.9h-31.07v-7.57a2.71,2.71,0,0,1,1.6-.45,13,13,0,0,0,1.65,0c.12-.33.15-.48-.19-.63a6.39,6.39,0,0,1-3.46-4.45,14.63,14.63,0,0,1-.29-3.19h7.73c0,.82,0,1.63,0,2.44s.6,1.42.62,2.16l2.09,2.1s.12,0,.24,0a8.59,8.59,0,0,0,4.22.62h16.85Z"/>
    <path d="M1920.22,235.91v8.54c-1.49.13-29.34.15-31.11,0v-7.65c1.26.28,2.4-.41,3.66-.34-3.49-1.69-4.46-4.63-4.3-8.22h7.29l.43.42a8.68,8.68,0,0,0,.61,4.32c.65,1.41,2,1.92,3.27,2.57,3.28.66,6.64.28,10,.34S1916.74,235.91,1920.22,235.91Z"/>
    <path d="M1889.13,602.32h31.07v8.47c-1.31.23-25.53.32-31.07.1Z"/>
    <path d="M1873.64,144.93v-3l1.09-1.71a5.81,5.81,0,0,0,.87-.36,4.66,4.66,0,0,1,2.37-.62c3.75,0,7.5,0,11.35,0a13.91,13.91,0,0,1,.06,2.24c0,.76,0,1.52,0,2.34h-12.15l-.8.85v1.19a3,3,0,0,0,2.6,1.1h10.32v4.32h-14.14c-.38,0-.84-.2-1.16.53a14.37,14.37,0,0,1-.1-2.47c0-.76,0-1.52,0-2.24.4-.31.86,0,1.22-.28C1874.69,146.26,1874,145.86,1873.64,144.93Z"/>
    <path d="M1874,137.7v-4.16l.31-.31,10-2.11L1874,128.49v-4.22c.66-.34,1.18.15,1.69.3,1.69.5,3.36,1.08,5.08,1.48,1,.24,2,.72,3,.93a24.81,24.81,0,0,1,3,1,14.2,14.2,0,0,1,2.45.78,12.25,12.25,0,0,0,2.48.7c1.09.32,2.18.67,3.2,1V135c-1.56-.48-3.08-.88-4.54-1.41a2,2,0,0,0-1.45-.09,47.78,47.78,0,0,1-5.47,1.65c-1.69.51-3.4,1-5.13,1.42a17.91,17.91,0,0,0-3.41,1.05A1.5,1.5,0,0,1,1874,137.7Z"/>
    <path d="M1876.43,117.53a2.85,2.85,0,0,0,2.31,1.08c1.85,0,3.7,0,5.55,0,.6,0,1-.64,1.46-.34l1.16-1.07a2.49,2.49,0,0,0-1.05-2c-.8-.11-1.47-.52-2.29-.3V110.7a4.79,4.79,0,0,1,4.08.88,4.37,4.37,0,0,1,1.78,2.93,15,15,0,0,1,.25,3.27,9.27,9.27,0,0,1-.56,2.22,4.11,4.11,0,0,1-2.89,2.62c-.59.22-1.28.21-1.86.37a12.11,12.11,0,0,1-4.19.22,8.68,8.68,0,0,1-4.17-1.09,4.7,4.7,0,0,1-2.36-3.94c0-.72,0-1.44,0-2.16a5.47,5.47,0,0,1,2.79-5,8.55,8.55,0,0,1,1.08-.36,5.52,5.52,0,0,1,2-.06v4.32a4,4,0,0,0-2.66.69A2.66,2.66,0,0,0,1876.43,117.53Z"/>
    <path d="M1883.18,601.84v9.06h-7.3v-8.6h6.25A1,1,0,0,0,1883.18,601.84Z"/>
    <path d="M1952.32,527c.09.5-.2.6-.37.83h-51.74V527Z"/>
    <path d="M1952.32,134.1c.09.51-.21.61-.38.84h-51.65c-.27-.21,0-.52-.18-.84Z"/>
    <path d="M1848.36,755.4v-.87h51.7c.14.14.46.26.44.63-.06.08-.11.22-.17.23-.26,0-.52,0-.77,0h-51.2Z"/>
    <path d="M1848.36,312v-.5h49.53c.59,0,1.21.13,1.66-.34.34.17.58.33.64.67s-.31.38-.51.68a2.36,2.36,0,0,0-1.81-.39h-42.59c-2.06,0-4.12,0-6.18,0C1848.86,312.15,1848.59,312.26,1848.36,312Z"/>
  </g>
  <g class="art-piece gorowska-mediodia" data-piece="gorowska-mediodia">
    <text transform="translate(446.86 560.27)">
      3
      <tspan x="0" y="36">
      Justyna Górowska
    </tspan>
    <tspan x="0" y="72">
      Ieva Mediodia
    </tspan>
  </text>
  <circle cx="656.98" cy="381.03" r="26.7"/>
  <text transform="translate(648.94 389.83)">
    3
  </text>
</g>
<g class="art-piece muhr-van-hoorebeke" data-piece="muhr-van-hoorebeke">
  <text transform="translate(446.86 704.2)">
    4
    <tspan x="0" y="36">
    Luisa Muhr
  </tspan>
  <tspan x="0" y="72">
    Ada Van Hoorebeke
  </tspan>
</text>
<circle cx="289.71" cy="57.42" r="26.7"/>
<text transform="translate(281.67 66.22)">
  4
</text>
</g>
<g class="art-piece kong-katsanovskaja-mund" data-piece="kong-katsanovskaja-mund">
  <text transform="translate(868.84 560.27)">
    1
    <tspan x="0" y="36">
    Mo Kong
  </tspan>
  <tspan x="0" y="72">
    Olesja Katšanovskaja-Münd
  </tspan>
</text>
<circle cx="1193.35" cy="225.72" r="26.7"/>
<text transform="translate(1185.31 234.52)">
  1
</text>
</g>
<g class="art-piece cassar-cordina-ginzel" data-piece="cassar-cordina-ginzel">
  <text transform="translate(868.84 704.2)">
    2
    <tspan x="0" y="36">
    Mariella Cassar-Cordina
  </tspan>
  <tspan x="0" y="72">
    Nicola Ginzel
  </tspan>
</text>
<circle cx="1047.85" cy="130.24" r="26.7"/>
<text transform="translate(1039.81 139.05)">
  2
</text>
</g>
<g class="art-piece gervickaite-lai" data-piece="gervickaite-lai">
  <text transform="translate(7.67 560.27)">
    5
    <tspan x="0" y="36">
    Gabrielė Gervickaitė
  </tspan>
  <tspan x="0" y="72">
    Yi Hsuan Lai
  </tspan>
</text>
<circle cx="127.49" cy="167.83" r="26.7"/>
<text transform="translate(119.45 176.63)">
  5
</text>
</g>
<g class="art-piece mirutziu-shavers-" data-piece="mirutziu-shavers-1">
  <text transform="translate(7.67 704.2)">
    6
    <tspan x="0" y="36">
    Alex Mirutziu
  </tspan>
  <tspan x="0" y="72">
    Sydney Shavers
  </tspan>
</text>
<circle cx="41.2" cy="378.97" r="26.7"/>
<text transform="translate(33.17 387.78)">
  6
</text>
</g>
</svg>

