<svg xmlns="http://www.w3.org/2000/svg" viewBox="0 0 1997.45 671.22">
  <g class="map-bkgd">
    <rect x="214.09" y="339.84" width="220.8" height="79.95" transform="translate(648.97 759.63) rotate(180)"/>
    <line x1="413.11" y1="419.79" x2="413.11" y2="339.84"/>
    <line x1="390.85" y1="419.79" x2="390.85" y2="339.84"/>
    <line x1="368.95" y1="419.79" x2="368.95" y2="339.84"/>
    <line x1="346.69" y1="419.79" x2="346.69" y2="339.84"/>
    <line x1="323.54" y1="419.79" x2="323.54" y2="339.84"/>
    <line x1="301.28" y1="419.79" x2="301.28" y2="339.84"/>
    <line x1="279.38" y1="419.79" x2="279.38" y2="339.84"/>
    <line x1="257.12" y1="419.79" x2="257.12" y2="339.84"/>
    <line x1="235.3" y1="339.84" x2="235.3" y2="419.79"/>
    <rect x="369.69" y="244.37" width="65.2" height="80.49"/>
    <line x1="391.85" y1="324.86" x2="391.85" y2="245.07"/>
    <line x1="413.68" y1="245.07" x2="413.68" y2="324.86"/>
    <polygon points="434.89 232.56 434.89 324.86 214.09 324.86 214.09 339.84 434.55 339.84 434.72 339.84 844.4 339.84 844.4 232.56 434.89 232.56"/>
    <path d="M775.65,247.88V232.56s-271.74-.9-271.74,0v15.32s63.29,51.5,137.47,51.55C713.12,299.49,775.65,247.88,775.65,247.88Z"/>
    <polyline points="875.05 175.76 1015.85 175.76 1015.85 212.89 1155.24 212.89 1155.24 163.85 1221.79 212.19 1238.6 212.19"/>
    <polyline points="523.51 175.15 873.55 175.15 873.55 86.31 1238.86 86.31 1238.86 127.95 1238.86 376.96 1238.86 419.65 0 419.65 0 0 370.76 0 370.76 175.15 523.51 175.15"/>
  </g>
  <g class="map-focus">
    <polyline class="map-focus" points="1238.86 127.95 1266.32 146.86 1491.16 106.94 1491.16 394.82 1491.16 397.97 1266.32 358.05 1238.86 376.96"/>
  </g>
  <g class="map-text">
    <text transform="translate(0.7 454.53)">
      Ground Floor
    </text>
    <text transform="translate(1007.35 454.53)">
      Lobby / Entrance
    </text>
    <text transform="translate(1538.13 364.04) rotate(-90)">
      East 52nd Street
    </text>
  </g>
  <g class="art-piece lam-de-wilde" data-piece="lam-de-wilde">
    <text transform="translate(1016.69 532.4)">
      11
      <tspan x="0" y="36">
      H. Lan Thao Lam
    </tspan>
    <tspan x="0" y="72">
      Sanne De Wilde
    </tspan>
  </text>
  <path d="M1436.43,223.54A27.46,27.46,0,1,0,1463.89,251,27.45,27.45,0,0,0,1436.43,223.54ZM1431,259.8h-3.57V243.63h-.06l-3.57,1.8-.63-2.79,4.74-2.34H1431Zm16.08,0h-3.57V243.63h-.06l-3.57,1.8-.63-2.79,4.74-2.34h3.09Z"/>
</g>
</svg>
