<svg xmlns="http://www.w3.org/2000/svg" viewBox="0 0 1997.45 752.05">
  <g class="map-bkgd">
    <rect x="214.72" y="339.94" width="220.8" height="80.49" transform="translate(650.25 760.37) rotate(180)"/>
    <line x1="413.75" y1="420.43" x2="413.75" y2="340.64"/>
    <line x1="391.49" y1="420.43" x2="391.49" y2="340.64"/>
    <line x1="369.59" y1="420.43" x2="369.59" y2="340.64"/>
    <line x1="347.33" y1="420.43" x2="347.33" y2="340.64"/>
    <line x1="324.18" y1="420.43" x2="324.18" y2="340.64"/>
    <line x1="301.92" y1="420.43" x2="301.92" y2="340.64"/>
    <line x1="280.02" y1="420.43" x2="280.02" y2="340.64"/>
    <line x1="257.76" y1="420.43" x2="257.76" y2="340.64"/>
    <line x1="235.93" y1="340.64" x2="235.93" y2="420.43"/>
    <rect x="214.72" y="244.31" width="220.8" height="80.49"/>
    <line x1="236.5" y1="324.79" x2="236.5" y2="245.01"/>
    <line x1="258.76" y1="324.79" x2="258.76" y2="245.01"/>
    <line x1="280.66" y1="324.79" x2="280.66" y2="245.01"/>
    <line x1="302.92" y1="324.79" x2="302.92" y2="245.01"/>
    <line x1="326.07" y1="324.79" x2="326.07" y2="245.01"/>
    <line x1="348.33" y1="324.79" x2="348.33" y2="245.01"/>
    <line x1="370.23" y1="324.79" x2="370.23" y2="245.01"/>
    <line x1="392.49" y1="324.79" x2="392.49" y2="245.01"/>
    <line x1="414.32" y1="245.01" x2="414.32" y2="324.79"/>
    <line x1="81.94" y1="420.99" x2="81.94" y2="1.34"/>
    <rect x="214.72" y="324.79" width="220.8" height="14.98"/>
    <polyline points="796.44 420.99 796.44 232.5 434.82 232.5 434.82 244.16"/>
    <path d="M795.55,247.82V232.9s-270.86-.91-270.86,0v14.92s63.3,51.49,137.47,51.55C733.91,299.43,795.55,247.82,795.55,247.82Z"/>
    <line x1="774.96" y1="420.99" x2="774.96" y2="263.12"/>
    <line x1="754.41" y1="420.99" x2="754.41" y2="274.75"/>
    <line x1="733.87" y1="420.99" x2="733.87" y2="284.32"/>
    <line x1="713.32" y1="420.99" x2="713.32" y2="291.8"/>
    <line x1="692.77" y1="420.99" x2="692.77" y2="296.93"/>
    <line x1="434.82" y1="176.48" x2="795.55" y2="176.48"/>
    <polyline points="795.55 421 214.72 421 214.72 244.31"/>
    <polyline points="1697.75 390.12 1725.07 371.21 1949.91 411.14 1949.91 407.98 1949.91 120.1 1725.07 160.03 1697.75 141.12"/>
  </g>
  <g class="map-focus">
    <polygon points="434.82 244.31 434.82 1.34 1.34 1.34 1.34 421 214.72 421 214.72 244.31 434.82 244.31"/>
    <polygon points="795.55 176.48 795.55 112.16 1695.97 112.16 1695.97 421 1284.85 421 1271.54 421 1271.54 380.06 1225.31 380.06 1225.31 421 1212.7 421 795.55 421 795.55 176.48"/>
  </g>
  <g class="map-text">
    <text transform="translate(1524.08 461.04)">
      Main Gallery
    </text>
    <text transform="translate(1.34 461.04)">
      Upper Gallery
    </text>
    <text transform="translate(1989.95 377.2) rotate(-90)">
      East 52nd Street
    </text>
  </g>
  <g class="art-piece mirutziu-shavers-" data-piece="mirutziu-shavers-2">
    <text transform="translate(10.72 528.55)">
      6
      <tspan x="0" y="36">
      Alex Mirutziu
    </tspan>
    <tspan x="0" y="72">
      Sydney Shavers
    </tspan>
  </text>
  <path d="M43.45,368.81a3.58,3.58,0,0,0-3.18,2A2.52,2.52,0,0,0,40,372c.06,2.58,1.29,4.68,3.66,4.68,1.92,0,3.15-1.65,3.15-4S45.61,368.81,43.45,368.81Z"/>
  <path d="M56.16,346A27.46,27.46,0,1,0,67.78,383,27.45,27.45,0,0,0,56.16,346ZM43.72,379.43c-4.74,0-7.35-3.6-7.35-8.4a11.94,11.94,0,0,1,3.39-8.76,11.29,11.29,0,0,1,6.93-2.88,10.45,10.45,0,0,1,1.86-.06l0,2.88a14.84,14.84,0,0,0-1.89.09c-4.08.48-6.06,3-6.54,5.7h.09a5.61,5.61,0,0,1,4.38-1.89c3.36,0,6,2.4,6,6.36A6.77,6.77,0,0,1,43.72,379.43Z"/>
</g>
<g class="art-piece bezzina-hittmeier" data-piece="bezzina-hittmeier">
  <text transform="translate(10.72 672.46)">
    10
    <tspan x="0" y="36">
    Aaron Bezzina
  </tspan>
  <tspan x="0" y="72" xml:space="preserve">
    Kyle Hittmeier
  </tspan>
</text>
<path d="M251.86,49.35c-2,0-3.36,2.43-3.33,7.32,0,4.74,1.29,7.2,3.33,7.2s3.3-2.64,3.3-7.32C255.16,52,254.08,49.35,251.86,49.35Z"/>
<path d="M243.79,30.1a27.46,27.46,0,1,0,27.46,27.45A27.45,27.45,0,0,0,243.79,30.1Zm-5.43,36.26h-3.57V50.19h-.06L231.16,52l-.63-2.79,4.74-2.34h3.09Zm13.38.33c-4.5,0-6.9-4.08-6.93-10s2.58-10.14,7.14-10.14c4.71,0,6.9,4.2,6.9,10C258.85,62.76,256.39,66.69,251.74,66.69Z"/>
</g>
<g class="art-piece grey-neu" data-piece="grey-neu">
  <text transform="translate(810.05 528.55)">
    8
    <tspan x="0" y="36">
    Kris Grey
  </tspan>
  <tspan x="0" y="72">
    Barbara Neu
  </tspan>
</text>
<path d="M1207.15,156.78a3.16,3.16,0,0,0,2.43-2.94,2.61,2.61,0,0,0-2.79-2.76,2.59,2.59,0,0,0-2.82,2.64C1204,155.31,1205.29,156.27,1207.15,156.78Z"/>
<path d="M1206.43,159.51a3.56,3.56,0,0,0-2.88,3.42,3.07,3.07,0,0,0,3.27,3.15,3,3,0,0,0,3.24-2.91C1210.06,161.19,1208.59,160.11,1206.43,159.51Z"/>
<path d="M1206.79,132.1a27.46,27.46,0,1,0,27.46,27.45A27.45,27.45,0,0,0,1206.79,132.1Zm-.09,36.59c-4.56,0-6.93-2.61-6.93-5.34,0-2.43,1.41-4.08,3.66-5.07v-.09a4.75,4.75,0,0,1-3-4.32c0-3.18,2.82-5.34,6.51-5.34,4.2,0,6.12,2.52,6.12,4.92a4.88,4.88,0,0,1-3,4.41V158a5.24,5.24,0,0,1,3.72,4.92C1213.81,166.35,1210.87,168.69,1206.7,168.69Z"/>
</g>
<g class="art-piece aksu-maldonado" data-piece="aksu-maldonado">
  <text transform="translate(810.05 672.46)">
    9
    <tspan x="0" y="36">
    Eren Aksu
  </tspan>
  <tspan x="0" y="72">
    Sheila Maldonado
  </tspan>
</text>
<path d="M976.58,362.39c-1.86,0-3.21,1.65-3.21,4,0,2,1.17,3.57,3.21,3.57a3.55,3.55,0,0,0,3.15-1.62,2.21,2.21,0,0,0,.21-1.05C980,364.67,979,362.39,976.58,362.39Z"/>
<path d="M976.7,343.23a27.46,27.46,0,1,0,27.46,27.45A27.45,27.45,0,0,0,976.7,343.23Zm3.63,33.8a10.74,10.74,0,0,1-6.66,2.67,14.57,14.57,0,0,1-2.22.06v-2.91a9.78,9.78,0,0,0,2-.06,7.37,7.37,0,0,0,4-1.5,7.21,7.21,0,0,0,2.49-4.32l-.06,0a5.4,5.4,0,0,1-4.26,1.74,5.76,5.76,0,0,1-5.91-6.06,6.91,6.91,0,0,1,7-7c4.53,0,7,3.57,7,8.31C983.72,372.14,982.34,375.11,980.33,377Z"/>
</g>
<g class="art-piece camilleri-uibopuu" data-piece="camilleri-uibopuu">
  <text transform="translate(1502.55 528.55)">
    7
    <tspan x="0" y="36">
    Alex Camilleri
  </tspan>
  <tspan x="0" y="72">
    Terttu Uibopuu
  </tspan>
</text>
<path d="M1638.92,288a27.46,27.46,0,1,0,27.45,27.46A27.46,27.46,0,0,0,1638.92,288Zm6.66,19.14-8.25,17.13h-3.9l8.22-16.38v-.06h-9.18v-3.06h13.11Z"/>
</g>
</svg>
