<svg xmlns="http://www.w3.org/2000/svg" viewBox="0 0 1996.11 784.58">
  <g class="map-bkgd">
    <line x1="1152.54" y1="421.34" x2="1115.06" y2="341.5"/>
    <line x1="990.49" y1="421.34" x2="990.49" y2="341.5"/>
    <line x1="1008.18" y1="421.34" x2="1008.18" y2="341.5"/>
    <line x1="1026.24" y1="421.34" x2="1026.24" y2="341.5"/>
    <line x1="1043.55" y1="421.34" x2="1043.55" y2="341.5"/>
    <line x1="1061.62" y1="421.34" x2="1061.62" y2="341.5"/>
    <line x1="1079.31" y1="421.34" x2="1079.31" y2="341.5"/>
    <line x1="1097.37" y1="421.34" x2="1097.37" y2="341.5"/>
    <line x1="1114.68" y1="421.34" x2="1114.68" y2="341.5"/>
    <rect x="215.53" y="339.13" width="220.8" height="82.21" transform="translate(651.87 760.48) rotate(180)"/>
    <line x1="414.56" y1="421.34" x2="414.56" y2="339.83"/>
    <line x1="392.3" y1="421.34" x2="392.3" y2="339.83"/>
    <line x1="370.4" y1="421.34" x2="370.4" y2="339.83"/>
    <line x1="348.14" y1="421.34" x2="348.14" y2="339.83"/>
    <line x1="324.99" y1="421.34" x2="324.99" y2="339.83"/>
    <line x1="302.73" y1="421.34" x2="302.73" y2="339.83"/>
    <line x1="280.83" y1="421.34" x2="280.83" y2="339.83"/>
    <line x1="258.57" y1="421.34" x2="258.57" y2="339.83"/>
    <line x1="236.74" y1="339.83" x2="236.74" y2="421.34"/>
    <rect x="215.53" y="243.5" width="220.8" height="80.49"/>
    <line x1="237.31" y1="323.98" x2="237.31" y2="244.2"/>
    <line x1="259.57" y1="323.98" x2="259.57" y2="244.2"/>
    <line x1="281.47" y1="323.98" x2="281.47" y2="244.2"/>
    <line x1="303.73" y1="323.98" x2="303.73" y2="244.2"/>
    <line x1="326.88" y1="323.98" x2="326.88" y2="244.2"/>
    <line x1="349.14" y1="323.98" x2="349.14" y2="244.2"/>
    <line x1="371.04" y1="323.98" x2="371.04" y2="244.2"/>
    <line x1="393.3" y1="323.98" x2="393.3" y2="244.2"/>
    <line x1="415.12" y1="244.2" x2="415.12" y2="323.98"/>
    <line x1="82.75" y1="420.18" x2="82.75" y2="0.53"/>
    <line x1="659.36" y1="175.67" x2="659.36" y2="232.13"/>
    <polyline points="525.66 175.68 525.66 175.68 525.66 231.46"/>
    <polyline points="1242.06 340.63 1242.06 421.34 215.53 421.34"/>
    <polygon points="436 231.69 436 324.49 216.37 324.49 216.37 338.97 436 338.97 436.16 338.97 845.85 338.97 845.85 231.69 436 231.69"/>
    <line x1="1131.99" y1="421.34" x2="1131.99" y2="376.76"/>
    <line x1="372.91" y1="175.67" x2="875.7" y2="175.67"/>
    <path d="M777.1,247V232.09s-271.74-.9-271.74,0V247s63.29,51.5,137.46,51.55C714.57,298.62,777.1,247,777.1,247Z"/>
    <polyline points="1242.13 375.94 1269.17 357.86 1494.01 397.79 1494.01 394.63 1494.01 106.75 1269.17 146.68 1241.85 127.77"/>
  </g>
  <g class="map-focus">
    <polyline points="215.53 420.18 215.53 420.18 2.15 420.18 2.15 0.53 372.91 0.53 372.91 244.2 215.53 243.5 215.53 420.18"/>
    <polygon points="875.7 175.68 875.7 86.84 1241.01 86.84 1241.01 340.75 989.97 340.75 989.97 421.34 436.33 421.34 436.33 338.97 875.7 338.97 875.7 175.9 875.7 175.68"/>
  </g>
  <g class="map-text">
    <text transform="translate(1011.44 458.66)">
      Upper Mezzanine
    </text>
    <text transform="translate(2.15 461.66)">
      Lower Mezzanine
    </text>
    <text transform="translate(1540.04 363.85) rotate(-90)">
      East 52nd Street
    </text>
  </g>
  <g class="logo">
    <path d="M1924,185.29v8.64h-1.53c-8.64,0-17.28,0-25.91,0-1.22,0-2.35.66-3.71.21V191.2c0-1-.06-2,0-2.93s-.38-2,.35-3h2.57a18.35,18.35,0,0,0-1.48-1.47,5.64,5.64,0,0,1-1.73-2.68c-.49-1.31-.28-3.57-.1-5.29.16-1.53,1-2.58,1.73-3.77a4.19,4.19,0,0,1,1.76-1.29c.24-.13.37-.34.58-.47a8.3,8.3,0,0,1-3.64-3.68,6.49,6.49,0,0,1-.67-2.65c0-.72,0-1.44,0-2.16a7.55,7.55,0,0,1,1.34-4.22,6.58,6.58,0,0,1,3.69-2.56,4.74,4.74,0,0,1,1.57-.35c8.22,0,16.45,0,24.67,0a4.62,4.62,0,0,1,.48.05v8.48l-.45.46a6.24,6.24,0,0,0-1.37-.36q-9.26,0-18.51,0c-.72,0-1.29.47-2,.36a9.39,9.39,0,0,0-2.12,0,4.59,4.59,0,0,0-1.67,1.31v2.48a4.09,4.09,0,0,0,4.14,2.34q11,0,21.9,0a.36.36,0,0,1,.11.1.24.24,0,0,1,0,.14c0,2.87,0,5.74,0,8.71h-1.56c-7.1,0-14.19,0-21.29,0a6.24,6.24,0,0,0-2.37.6,1.59,1.59,0,0,0-1,1.46,10.86,10.86,0,0,0,0,1.7,4.76,4.76,0,0,0,2.25,2.34c4,.7,8,.32,12,.38S1919.9,185.29,1924,185.29Z"/>
    <path d="M1921.18,466.33c.32.21.56.19.77.38a7.82,7.82,0,0,1,2.71,6.14,13.22,13.22,0,0,1-.63,3.91,6.2,6.2,0,0,1-4,3.95,9.68,9.68,0,0,1-3.61.6c-7.35,0-14.7,0-22,0h-1.53v-8.95h23a4.35,4.35,0,0,0,2.23-.58,1.84,1.84,0,0,0,1-1.61,14.28,14.28,0,0,0,0-1.45c-.48-1.44-1.54-2-2.83-2.56h-23.36v-8.84a2.78,2.78,0,0,1,1.29-.09h25.91a6.13,6.13,0,0,0,2.81-.28,2.76,2.76,0,0,1,1.08,0v8.94A5.72,5.72,0,0,0,1921.18,466.33Z"/>
    <path d="M1924,685v8.51l-.49.49h-2.19c-.19.45.09.43.34.62a7.49,7.49,0,0,1,2.65,3.81,10.78,10.78,0,0,1,0,5,12,12,0,0,1-.34,1.41,6.18,6.18,0,0,1-2,2.72,10.75,10.75,0,0,0-1,.92,2.43,2.43,0,0,0-.87.22,6.54,6.54,0,0,1-2.79.7h-24.53v-9h22.8a6.4,6.4,0,0,0,2.38-.58,1.66,1.66,0,0,0,1-1.46,7.22,7.22,0,0,0,0-1.59c-.48-1.45-1.55-2-2.84-2.57h-23l-.41-.41v-8.52h27.59c.53,0,1.12.24,1.58-.29.26-.31.45.58.87.07C1923.06,684.92,1923.57,685,1924,685Z"/>
    <path d="M1924,558.16v9h-1.53q-12.12,0-24.23,0c-1.75,0-3.53-.27-5.32.37v-9a5.35,5.35,0,0,0,2.71-.43,6.81,6.81,0,0,1-3.12-4.27,17.79,17.79,0,0,1-.26-4.36,10.66,10.66,0,0,1,1.28-3.47,7.21,7.21,0,0,1,2.51-2.13,6.43,6.43,0,0,1,2.61-.76h25.15a.48.48,0,0,1,.18.08v8.45l-.47.47a2.19,2.19,0,0,0-1.49-.37c-6.48,0-13,0-19.44,0-.68,0-1.23.49-1.88.32s-1.12.38-1.68.33l-1.2,1.27v2.25c.79,1.73,2.27,2.34,4.14,2.34Z"/>
    <path d="M1893.29,416.47l-.42-.42v-8.52h16.18c1.44,0,2.88-.06,4.32,0s2.65-.63,3.74-.35a4,4,0,0,0,1.94-1.33v-2.13l-.81-1.56-1.59-.82c-3.82-.62-7.8-.23-11.77-.3s-7.92,0-11.88,0l-.11-.11a.29.29,0,0,1-.05-.13v-8.28c.26-.16.34-.46.66-.44s.41,0,.62,0H1924v8.48a4.77,4.77,0,0,1-2.88.46c.71.71,1.24,1.28,1.81,1.8a5.8,5.8,0,0,1,1.74,4.06,16.2,16.2,0,0,1,0,2.31,7.67,7.67,0,0,1-3.78,6.28c-1,.1-1.88.71-3,.7-7.71,0-15.42,0-23.14,0C1894.27,416.18,1893.73,416,1893.29,416.47Z"/>
    <path d="M1924,200.2v8.37c-.86.79-2,.36-3,.54a10.84,10.84,0,0,1,3,3.16,5.33,5.33,0,0,1,.68,2.49,16,16,0,0,1,0,2.77,7.77,7.77,0,0,1-1.92,4.46,6.74,6.74,0,0,1-3.32,2,10.33,10.33,0,0,1-2.44.43c-7.92,0-15.84,0-23.76,0a1.17,1.17,0,0,1-.3-.1v-8.85h17.72c1.24,0,2.48-.08,3.7,0s2.25-.56,3.21-.35c2-.61,1.52-2.12,1.58-3.38l-.76-1.5c-.06,0-.26,0-.34-.07a4.62,4.62,0,0,0-3.51-1.19c-6.69,0-13.38,0-20.06,0h-1.54v-8.64h1.52q12.64,0,25.3,0C1921.1,200.43,1922.45,199.82,1924,200.2Z"/>
    <path d="M1908.43,275.73c-1.13,0-2.26,0-3.4,0a8,8,0,0,1-2.36-.24,18,18,0,0,0-2.16-.35c-.76-.15-1.41-.67-2.22-.63-1.23-1-3-1.38-3.66-3-1.22-1-1.45-2.48-2-3.82,0-.09-.11-.16-.12-.25a33.49,33.49,0,0,1-.29-7.27c.37-1.77.63-3.61,1.82-5.11a10.28,10.28,0,0,1,6-4c1.35-.29,2.69-.47,4-.67a33.57,33.57,0,0,1,3.59-.22,18.19,18.19,0,0,1,3.54,0c1.71.28,3.47.18,5.15.6a21.41,21.41,0,0,1,3.6,1.35,6.73,6.73,0,0,1,2.47,2.18,11.89,11.89,0,0,1,1.62,3.34c.91,2.72.61,5.49.52,8.24a9.45,9.45,0,0,1-1.5,4.9,8.85,8.85,0,0,1-4.52,3.69,21.17,21.17,0,0,1-4.22,1c-1,.11-2,.22-3,.24Zm9.93-15.09c-.56.08-.68-.54-1.13-.66a16.68,16.68,0,0,0-4.87-.9c-3.35.11-6.71-.3-10.06.25a12.85,12.85,0,0,0-2.67.65,2.65,2.65,0,0,0-1.55,1.56,3.29,3.29,0,0,0,2,4.62,14.28,14.28,0,0,0,3.44.62c2.06,0,4.12,0,6.17,0a24.82,24.82,0,0,0,5.44-.26,20.29,20.29,0,0,0,2.33-.72c1.23-.46,1.52-1.5,1.67-2.68A5.26,5.26,0,0,0,1918.36,260.64Z"/>
    <path d="M1901.15,588.1v8.23a7.43,7.43,0,0,1-7.44-4.12,19.64,19.64,0,0,1-1.23-4.13,27.06,27.06,0,0,1-.2-6.66,10.12,10.12,0,0,1,2.81-6.84,8.5,8.5,0,0,1,3.18-1.64,7.9,7.9,0,0,1,2.5-.27h17.12a10.93,10.93,0,0,0,2.66-.27c.84-.23,1.79.11,2.64-.34.2-.1.49,0,.78,0v7.61l-.4.4c-.94-.16-1.86.49-3,.55.3.26.63.49.9.77a8.69,8.69,0,0,1,2.6,5.56,9.38,9.38,0,0,1,.27,2.19c-.29,2.1-.75,4.13-2.47,5.6a9.88,9.88,0,0,1-3.94,2,19.36,19.36,0,0,1-5.73.25,7.46,7.46,0,0,1-3.7-1.45,9.4,9.4,0,0,1-3.59-5.43,33,33,0,0,1-.67-3.43c-.4-2-.15-3.93-.31-6h-2.86c-1,0-1.75.57-2.71.64-1.77,1.06-1.79,2.58-1.16,4.69C1897.51,587.14,1898.64,588.1,1901.15,588.1Zm9.66-.09c.35.17.58,0,.84.2a4.5,4.5,0,0,0,2.4.52c1.86,0,3.55-.38,4.7-2.08-.09-.61.77-1.29,0-2a4,4,0,0,0-2-2.83c-1.28-.85-2.74-.87-4.14-1.12a20.89,20.89,0,0,0-3.53,0c-.33.31-.63.56-.45.87a4.29,4.29,0,0,1,.3,2A5.93,5.93,0,0,0,1910.81,588Z"/>
    <path d="M1897.57,343.08c3.58-.68,7.14-.3,10.7-.36s7.09-.05,10.63,0c.78,0,1.41-.47,2.19-.36a3,3,0,0,0,2-.27c.19-.11.5,0,.89,0,0,1.39,0,2.76,0,4.13s.3,2.62-.3,3.94c-1-.24-1.85.38-2.81.33.07.65.52.87.83,1.18a8.1,8.1,0,0,1,2.27,5.22c0,.38.31.61.33.95a12.48,12.48,0,0,1-.52,3.79,6.72,6.72,0,0,1-3.42,4.21,7.73,7.73,0,0,1-4.25,1.26c-.29,0-.61-.11-.84.21-.06.09-.29.12-.42.09-1.38-.36-2.87-.19-4.2-.65a8.66,8.66,0,0,1-3-1.7,9.2,9.2,0,0,1-2.51-4,23.5,23.5,0,0,1-1-4.55,26.19,26.19,0,0,1-.25-2.81v-2.85a13.16,13.16,0,0,0-5.67.58c-1.64,1-1.51,2.55-1.42,3.74.64,2.5,2.33,2.94,4.27,3.05v8.17c-.73.47-1.39-.22-2.1-.18a4.54,4.54,0,0,1-2.07-.59,6.15,6.15,0,0,1-3.16-3.17,15.18,15.18,0,0,1-1.32-4.24,31.48,31.48,0,0,1-.22-6.05,14.89,14.89,0,0,1,.65-4,9.08,9.08,0,0,1,1.51-2.76,6.3,6.3,0,0,1,2.85-2A1.09,1.09,0,0,0,1897.57,343.08Zm11.35,8.55c-.11.36-.53.55-.33.87.39.65.17,1.38.33,2a6.11,6.11,0,0,0,1.78,3.42,4.12,4.12,0,0,0,1.9.63,7.41,7.41,0,0,0,3.41,0,5,5,0,0,0,2.76-1.87c-.18-.45.19-.74.31-1.11s-.32-.67-.34-1.1c-.07-1.26-1-1.94-2-2.57a11.12,11.12,0,0,0-4.45-1.18,23.21,23.21,0,0,0-3.54,0c-.07,0-.14.12-.22.17C1908.47,351.23,1908.8,351.34,1908.92,351.63Z"/>
    <path d="M1924,714.33v7.61c-.93.54-2.12.22-3,.87a12,12,0,0,1,2.13,3,7.17,7.17,0,0,1,.92,3.47c0,.45.34.66.36,1.11a12.59,12.59,0,0,1-.49,3.37,9,9,0,0,1-1.6,2.86,4,4,0,0,1-1.49,1.2,11.67,11.67,0,0,1-5.68,1.58c-.71,0-1.43,0-2.15,0a13.83,13.83,0,0,1-1.88-.36,5,5,0,0,1-2.68-1.27c-1.23-1.13-2.6-2.21-2.89-4a4.7,4.7,0,0,1-.89-2.4c-.22-.84-.24-1.78-.41-2.62a48.13,48.13,0,0,1-.28-5.68c-2.18.09-4.4-.41-6.48,1.22-1,1.61-.84,3.38.49,5.19l1.35.7c.57,0,1.29-.14,1.86.57v7.78a13.76,13.76,0,0,1-3.13-.28,24.38,24.38,0,0,1-2.54-1.32c-.41-.2-.63-.72-.91-1.13-1.31-2-1-1.59-1.74-4.07a24.63,24.63,0,0,1-.54-8.24,12.53,12.53,0,0,1,.86-3.79,6.42,6.42,0,0,1,1-1.6,6.31,6.31,0,0,1,2.28-2.13,8.19,8.19,0,0,1,3.47-.93c5.61,0,11.21,0,16.82,0a42.83,42.83,0,0,1,4.81-.3C1922.26,714.15,1923.11,714.41,1924,714.33ZM1908.69,723c-.35,1,.25,1.84.17,2.7-.09,1.09.52,2,.68,3,.07.42.51.79.84,1.13a4.87,4.87,0,0,0,2.72,1.18,2.73,2.73,0,0,0,2.47-.25c.68.2,1.21-.37,1.85-.35l1.4-1.4c-.3-.49.1-1,.17-1.37,0-1.74-1.17-2.69-2.3-3.69a1.61,1.61,0,0,1-1.28-.43C1913.07,722.77,1910.86,723.05,1908.69,723Z"/>
    <path d="M1914,680.39l-.42-.42v-8.15c1.1-.15,2.14-.38,3.18-.61a3,3,0,0,0,2.33-1.92v-2.16a5.79,5.79,0,0,0-1.65-2.13,8.32,8.32,0,0,0-2-.08,3.58,3.58,0,0,0-1.55.76,12.11,12.11,0,0,0-2.79,4.09,76.76,76.76,0,0,1-4,7.14,7.06,7.06,0,0,1-4.14,3.08,10.74,10.74,0,0,1-2.28.1,7.08,7.08,0,0,1-5.86-2.59,10.89,10.89,0,0,1-2.28-4.6c-.44-1.71-.12-3.42-.29-5.12a15.82,15.82,0,0,1,.66-5,4.63,4.63,0,0,1,.92-1.92,8.52,8.52,0,0,1,3-2.69,8.33,8.33,0,0,1,2.21-.61,20.4,20.4,0,0,1,2.48,0c0,1.37,0,2.65,0,3.92,0,.74-.22,1.52.29,2.2a.43.43,0,0,1,0,.44c-.53.49-.14,1.16-.37,1.74h-2.32a4.46,4.46,0,0,0-1.89,1.38c.12.57-.34,1-.39,1.55s.57,1,.35,1.58l1.37,1.34h1.82a4.48,4.48,0,0,0,1.94-1.79c.68-1,1.24-2.06,1.83-3.1a65.48,65.48,0,0,1,3.88-6.57,8.83,8.83,0,0,1,4.36-3.49,6.14,6.14,0,0,1,4.35-.19c.46.2,1,0,1.46.2a7.44,7.44,0,0,1,4.33,3.67,18.38,18.38,0,0,1,1.52,4.16c.56,1.94.15,3.93.33,5.88a19.45,19.45,0,0,1-.37,3.42,3.77,3.77,0,0,1-.74,1.83c-.47.63-.8,1.35-1.3,1.94a7.82,7.82,0,0,1-3.28,2.1,3,3,0,0,1-1.57.34c-.49-.08-.87.39-1.42.31A11.88,11.88,0,0,0,1914,680.39Z"/>
    <path d="M1903.92,485.72v8.43a7.67,7.67,0,0,1-3.09.42l-1.94,1a4,4,0,0,0-.64,4.58,4.94,4.94,0,0,0,3.26,1.57c1,.18,2.12.06,3.11.3a20.6,20.6,0,0,0,5.59.23c1.39,0,2.78-.37,4.19-.27.55-.65,1.51,0,2.06-.62,1.34,0,2-1,2.59-2v-2.14a4.24,4.24,0,0,0-3-2.48c-.12,0-.2-.21-.39-.18-1.11.18-2.13-.52-3.3-.27v-8.63a18,18,0,0,1,3.31.18,28.33,28.33,0,0,1,3.07.84,9.11,9.11,0,0,1,4.06,3.46,21.47,21.47,0,0,1,1.45,3.25.72.72,0,0,1,.09.27c0,1.36.48,2.66.33,4-.09.86,0,1.75,0,2.62a14.21,14.21,0,0,1-1,4.66,7.57,7.57,0,0,1-3.25,3.8,17.74,17.74,0,0,1-5.87,1.9,44.51,44.51,0,0,1-5.28.23c-1.8.05-3.6.09-5.4,0a20.52,20.52,0,0,1-4.16-.74,11.28,11.28,0,0,1-3.57-1.78,8.81,8.81,0,0,1-3.19-4.82,11.59,11.59,0,0,1-.65-3.75c0-.92,0-1.85,0-2.77a13.57,13.57,0,0,1,.47-3.37,12,12,0,0,1,1.09-2.93,9.42,9.42,0,0,1,6.11-4.76A7.4,7.4,0,0,1,1903.92,485.72Z"/>
    <path d="M1892.79,278.23h5.26v5.49H1924v8.64h-25.85v4.29h-5.26V292.4h-7.09a3.08,3.08,0,0,1-1.59-.28c-.4-.22-.91-.08-1.42-.29a4.9,4.9,0,0,1-3.17-3.13,13.77,13.77,0,0,1-.65-3.44,4.57,4.57,0,0,0-.29-2.5.85.85,0,0,1,0-.61c.52-1.25.19-2.58.33-3.83.07-.06.11-.12.15-.12h6.21a5.54,5.54,0,0,0,0,2.8,4.31,4.31,0,0,0,1.38,2.36c2,.63,4,.32,6,.41Z"/>
    <path d="M1898.34,641.78H1917a3.54,3.54,0,0,0,1.4-1.08c-.13-.74.48-1.42.35-2.25s-.58-1.39-.21-2.17h5l.44.44c-.23,2.13.5,4.3.31,6.53a10.91,10.91,0,0,1-1.12,4.17,5.27,5.27,0,0,1-3.65,2.67c-.52.11-1,.5-1.56.38a7.92,7.92,0,0,0-1.54,0H1898.4v4h-5.52v-3.92h-5.16c-1.24-2.88-2.64-5.64-3.78-8.61,1.42-.16,2.87,0,4.32-.07s3,0,4.57,0v-5.53h5.51Z"/>
    <path d="M1892.83,438.65v-3.92h-5.12l-3.77-8.6c1.42-.17,2.87-.05,4.31-.08s3,0,4.57,0v-5.52h5.52v5.33c.41.33.83.18,1.22.18h16.19a3.14,3.14,0,0,0,2.68-1.07c-.12-.77.48-1.46.35-2.28s-.59-1.39-.21-2.18h5a2.78,2.78,0,0,1,.43,1.7c-.17,1,.45,1.93.33,3s0,2,0,2.93a6.34,6.34,0,0,1-5,6.31,10,10,0,0,1-2.82.27H1898.4v4Z"/>
    <path d="M1879.6,451v-8.54H1924V451Z"/>
    <path d="M1879.62,327.92H1924v8.47c-1.32.22-38.92.32-44.34.1Z"/>
    <path d="M1892.87,631.27v-7.55l.44-.44a5.58,5.58,0,0,0,2.92-.45c-3.25-1.63-4-4.49-4-7.84h7.74a12.68,12.68,0,0,0,0,2,6,6,0,0,0,1.7,3.92,5.27,5.27,0,0,0,1.63.93c.63.24,1.31.24,1.94.53a3.84,3.84,0,0,0,1.52,0h17.19v8.91Z"/>
    <path d="M1924,385.9h-31.07v-7.57a2.77,2.77,0,0,1,1.61-.45,12.87,12.87,0,0,0,1.64,0c.12-.33.15-.48-.19-.63a6.35,6.35,0,0,1-3.45-4.45,14,14,0,0,1-.29-3.19h7.73c0,.82,0,1.63,0,2.44s.6,1.42.62,2.16l2.09,2.1s.12,0,.24,0a8.59,8.59,0,0,0,4.22.62H1924Z"/>
    <path d="M1924,235.91v8.54c-1.49.13-29.34.15-31.12,0v-7.65c1.27.28,2.4-.41,3.66-.34-3.49-1.69-4.45-4.63-4.3-8.22h7.3l.42.42a8.68,8.68,0,0,0,.61,4.32c.66,1.41,2,1.92,3.28,2.57,3.27.66,6.64.28,10,.34S1920.51,235.91,1924,235.91Z"/>
    <path d="M1892.89,602.32H1924v8.47c-1.31.23-25.53.32-31.07.1Z"/>
    <path d="M1877.41,144.93v-3l1.09-1.71a5.38,5.38,0,0,0,.86-.36,4.66,4.66,0,0,1,2.37-.62c3.75,0,7.5,0,11.36,0a15.17,15.17,0,0,1,.06,2.24c0,.76,0,1.52,0,2.34H1881l-.81.85v1.19a3,3,0,0,0,2.6,1.1h10.33v4.32H1879c-.38,0-.85-.2-1.17.53a14.28,14.28,0,0,1-.09-2.47c0-.76,0-1.52,0-2.24.4-.31.85,0,1.21-.28C1878.46,146.26,1877.71,145.86,1877.41,144.93Z"/>
    <path d="M1877.77,137.7v-4.16l.31-.31,10-2.11-10.36-2.63v-4.22c.66-.34,1.18.15,1.69.3,1.7.5,3.36,1.08,5.09,1.48,1,.24,2,.72,3,.93a24.66,24.66,0,0,1,3,1,14,14,0,0,1,2.46.78,12.34,12.34,0,0,0,2.47.7c1.1.32,2.19.67,3.2,1V135c-1.56-.48-3.07-.88-4.54-1.41a2,2,0,0,0-1.45-.09,47.18,47.18,0,0,1-5.47,1.65c-1.69.51-3.4,1-5.12,1.42a17.7,17.7,0,0,0-3.41,1.05A1.5,1.5,0,0,1,1877.77,137.7Z"/>
    <path d="M1880.2,117.53a2.85,2.85,0,0,0,2.31,1.08c1.85,0,3.7,0,5.54,0,.61,0,1-.64,1.46-.34l1.17-1.07a2.5,2.5,0,0,0-1.06-2c-.79-.11-1.47-.52-2.28-.3V110.7a4.8,4.8,0,0,1,4.08.88,4.32,4.32,0,0,1,1.77,2.93,13.84,13.84,0,0,1,.25,3.27,9.25,9.25,0,0,1-.55,2.22,4.14,4.14,0,0,1-2.9,2.62c-.58.22-1.27.21-1.85.37a12.18,12.18,0,0,1-4.2.22,8.62,8.62,0,0,1-4.16-1.09,4.73,4.73,0,0,1-2.37-3.94c0-.72,0-1.44,0-2.16a5.47,5.47,0,0,1,2.78-5,9.26,9.26,0,0,1,1.09-.36,5.51,5.51,0,0,1,2-.06v4.32a4.07,4.07,0,0,0-2.67.69A2.71,2.71,0,0,0,1880.2,117.53Z"/>
    <path d="M1886.94,601.84v9.06h-7.3v-8.6h6.26A1,1,0,0,0,1886.94,601.84Z"/>
    <path d="M1956.08,527c.1.5-.19.6-.37.83H1904V527Z"/>
    <path d="M1956.09,134.1c.08.51-.21.61-.38.84h-51.65c-.27-.21,0-.52-.18-.84Z"/>
    <path d="M1852.13,755.4v-.87h51.69c.15.14.47.26.45.63-.06.08-.11.22-.18.23-.25,0-.51,0-.77,0h-51.19Z"/>
    <path d="M1852.13,312v-.5h49.53c.59,0,1.21.13,1.66-.34.34.17.58.33.63.67s-.31.38-.5.68a2.37,2.37,0,0,0-1.81-.39H1859c-2,0-4.11,0-6.17,0C1852.63,312.15,1852.36,312.26,1852.13,312Z"/>
  </g>
  <g class="art-piece gorowska-mediodia" data-piece="gorowska-mediodia">
    <text transform="translate(450.63 560.27)">
      3
      <tspan x="0" y="36">
      Justyna Górowska
    </tspan>
    <tspan x="0" y="72">
      Ieva Mediodia
    </tspan>
  </text>
  <path d="M660.75,354.33A26.7,26.7,0,1,0,687.44,381,26.7,26.7,0,0,0,660.75,354.33Zm-1.38,35.83a10.76,10.76,0,0,1-5.46-1.34l.84-2.79a9.79,9.79,0,0,0,4.44,1.19c2.82,0,4-1.59,3.93-3.11,0-2.32-2.16-3.3-4.41-3.3H657v-2.7h1.65c1.71,0,3.87-.79,3.87-2.73,0-1.32-1-2.43-3.12-2.43a7.85,7.85,0,0,0-4,1.23l-.84-2.67a10.53,10.53,0,0,1,5.61-1.5c4,0,6.09,2.22,6.09,4.77,0,2-1.2,3.71-3.6,4.55v.07a4.91,4.91,0,0,1,4.29,4.85C667,387.55,664.2,390.16,659.37,390.16Z"/>
</g>
<g class="art-piece muhr-van-hoorebeke" data-piece="muhr-van-hoorebeke">
  <text transform="translate(450.63 704.2)">
    4
    <tspan x="0" y="36">
    Luisa Muhr
  </tspan>
  <tspan x="0" y="72">
    Ada Van Hoorebeke
  </tspan>
</text>
<path d="M293.14,53.08l-3.57,5.34,0,.06h5.31V53.17c0-1.11,0-2.25.12-3.39h-.12C294.25,51,293.74,52,293.14,53.08Z"/>
<path d="M293.47,30.72a26.7,26.7,0,1,0,26.7,26.7A26.7,26.7,0,0,0,293.47,30.72Zm7.38,30.55h-2.52v4.95h-3.48V61.27H286v-2.4l8-12.15h4.35V58.48h2.52Z"/>
</g>
<g class="art-piece kong-katsanovskaja-mund" data-piece="kong-katsanovskaja-mund">
  <text transform="translate(872.6 560.27)">
    1
    <tspan x="0" y="36">
    Mo Kong
  </tspan>
  <tspan x="0" y="72">
    Olesja Katšanovskaja-Münd
  </tspan>
</text>
<path d="M1197.12,199a26.7,26.7,0,1,0,26.69,26.7A26.69,26.69,0,0,0,1197.12,199Zm2.6,35.5h-3.57V218.35h-.06l-3.57,1.8-.63-2.79,4.75-2.34h3.08Z"/>
</g>
<g class="art-piece cassar-cordina-ginzel" data-piece="cassar-cordina-ginzel">
  <text transform="translate(872.6 704.2)">
    2
    <tspan x="0" y="36">
    Mariella Cassar-Cordina
  </tspan>
  <tspan x="0" y="72">
    Nicola Ginzel
  </tspan>
</text>
<path d="M1051.61,103.55a26.7,26.7,0,1,0,26.7,26.69A26.69,26.69,0,0,0,1051.61,103.55Zm6.48,35.5h-13.23V136.8l2.31-2.13c4.59-4.26,6.75-6.6,6.78-9.18,0-1.74-.93-3.27-3.48-3.27a7.1,7.1,0,0,0-4.17,1.62l-1.08-2.61a9.65,9.65,0,0,1,6-2c4.32,0,6.42,2.73,6.42,5.91,0,3.42-2.46,6.18-5.85,9.33l-1.71,1.47V136h8Z"/>
</g>
<g class="art-piece gervickaite-lai" data-piece="gervickaite-lai">
  <text transform="translate(11.44 560.27)">
    5
    <tspan x="0" y="36">
    Gabrielė Gervickaitė
  </tspan>
  <tspan x="0" y="72">
    Yi Hsuan Lai
  </tspan>
</text>
<path d="M131.26,141.13A26.7,26.7,0,1,0,158,167.83,26.69,26.69,0,0,0,131.26,141.13ZM129.64,177a11.22,11.22,0,0,1-5.16-1.14l.75-2.79a9.87,9.87,0,0,0,4.29,1c2.16,0,4.23-1.23,4.23-3.57s-1.65-3.69-5.55-3.69a17,17,0,0,0-2.67.18l1.29-9.84H136.9v3.06h-7.5l-.57,3.9a9.83,9.83,0,0,1,1.41-.09,8.69,8.69,0,0,1,4.74,1.26,5.59,5.59,0,0,1,2.55,5C137.53,173.93,134.44,177,129.64,177Z"/>
</g>
<g class="art-piece mirutziu-shavers-" data-piece="mirutziu-shavers-1">
  <text transform="translate(11.44 704.2)">
    6
    <tspan x="0" y="36">
    Alex Mirutziu
  </tspan>
  <tspan x="0" y="72">
    Sydney Shavers
  </tspan>
</text>
<path d="M45,377.49a3.58,3.58,0,0,0-3.18,2,2.52,2.52,0,0,0-.24,1.17c.06,2.58,1.29,4.68,3.66,4.68,1.92,0,3.15-1.65,3.15-4S47.13,377.49,45,377.49Z"/>
<path d="M45,352.28A26.7,26.7,0,1,0,71.67,379,26.69,26.69,0,0,0,45,352.28Zm.27,35.83c-4.74,0-7.35-3.6-7.35-8.4A11.94,11.94,0,0,1,41.28,371a11.29,11.29,0,0,1,6.93-2.88,10.45,10.45,0,0,1,1.86-.06l0,2.88a14.84,14.84,0,0,0-1.89.09c-4.08.48-6.06,3-6.54,5.7h.09a5.61,5.61,0,0,1,4.38-1.89c3.36,0,6,2.4,6,6.36A6.77,6.77,0,0,1,45.24,388.11Z"/>
</g>
</svg>
