<svg xmlns="http://www.w3.org/2000/svg" viewBox="0 0 1997.45 671.22">
  <g class="map-bkgd">
    <rect x="216.09" y="341.84" width="220.8" height="79.95" transform="translate(652.98 763.63) rotate(180)"/>
    <line x1="415.11" y1="421.79" x2="415.11" y2="341.84"/>
    <line x1="392.85" y1="421.79" x2="392.85" y2="341.84"/>
    <line x1="370.95" y1="421.79" x2="370.95" y2="341.84"/>
    <line x1="348.7" y1="421.79" x2="348.7" y2="341.84"/>
    <line x1="325.54" y1="421.79" x2="325.54" y2="341.84"/>
    <line x1="303.28" y1="421.79" x2="303.28" y2="341.84"/>
    <line x1="281.38" y1="421.79" x2="281.38" y2="341.84"/>
    <line x1="259.13" y1="421.79" x2="259.13" y2="341.84"/>
    <line x1="237.3" y1="341.84" x2="237.3" y2="421.79"/>
    <rect x="371.69" y="246.37" width="65.2" height="80.49"/>
    <line x1="393.85" y1="326.86" x2="393.85" y2="247.07"/>
    <line x1="415.68" y1="247.07" x2="415.68" y2="326.86"/>
    <polygon points="436.89 234.56 436.89 326.86 216.09 326.86 216.09 341.84 436.55 341.84 436.72 341.84 846.4 341.84 846.4 234.56 436.89 234.56"/>
    <path d="M777.66,249.89V234.56s-271.75-.9-271.75,0v15.33s63.29,51.49,137.47,51.55C715.12,301.49,777.66,249.89,777.66,249.89Z"/>
    <polyline points="877.05 177.76 1017.85 177.76 1017.85 214.89 1157.25 214.89 1157.25 165.86 1223.79 214.19 1240.6 214.19"/>
    <polyline points="525.52 177.15 875.56 177.15 875.56 88.31 1240.86 88.31 1240.86 129.95 1240.86 378.96 1240.86 421.65 2 421.65 2 2 372.76 2 372.76 177.15 525.52 177.15"/>
  </g>
  <polyline class="map-focus" points="1240.86 129.95 1268.32 148.86 1493.16 108.94 1493.16 396.82 1493.16 399.97 1268.32 360.05 1240.86 378.96"/>
  <g class="map-text">
    <text transform="translate(2.7 456.53)">
      Ground Floor
    </text>
    <text transform="translate(1009.36 456.53)">
      Lobby / Entrance
    </text>
    <text transform="translate(1540.13 366.04) rotate(-90)">
      East 52nd Street
    </text>
  </g>
  <g class="art-piece acfny lam-de-wilde" data-piece="lam-de-wilde">
    <text transform="translate(1018.69 534.4)">
      11
      <tspan x="0" y="36">
      H. Lan Thao Lam
    </tspan>
    <tspan x="0" y="72">
      Sanne De Wilde
    </tspan>
  </text>
  <path class="circle" d="M1438.44,225.54A27.46,27.46,0,1,0,1465.89,253,27.45,27.45,0,0,0,1438.44,225.54ZM1433,261.8h-3.57V245.63h-.06l-3.58,1.8-.62-2.79,4.74-2.34H1433Zm16.08,0h-3.57V245.63h-.06l-3.58,1.8-.62-2.79,4.74-2.34h3.09Z"/>
</g>
</svg>
