<svg id="Layer_1" data-name="Layer 1" xmlns="http://www.w3.org/2000/svg" viewBox="0 0 54.92 54.92"><path d="M27.34,19.16c-1.86,0-3.21,1.65-3.21,4,0,2,1.17,3.57,3.21,3.57a3.55,3.55,0,0,0,3.15-1.62,2.21,2.21,0,0,0,.21-1.05C30.73,21.44,29.74,19.16,27.34,19.16Z"/><path d="M27.46,0A27.46,27.46,0,1,0,54.92,27.46,27.45,27.45,0,0,0,27.46,0Zm3.63,33.8a10.74,10.74,0,0,1-6.66,2.67,14.57,14.57,0,0,1-2.22.06V33.62a9.78,9.78,0,0,0,2-.06,7.37,7.37,0,0,0,4-1.5,7.21,7.21,0,0,0,2.49-4.32l-.06,0a5.4,5.4,0,0,1-4.26,1.74,5.76,5.76,0,0,1-5.91-6.06,6.91,6.91,0,0,1,7.05-7c4.53,0,7,3.57,7,8.31C34.48,28.91,33.1,31.88,31.09,33.8Z"/></svg>