<svg id="Layer_1" data-name="Layer 1" xmlns="http://www.w3.org/2000/svg" viewBox="0 0 53.39 53.39"><path d="M26.69,25.21a3.58,3.58,0,0,0-3.18,2,2.65,2.65,0,0,0-.24,1.17c.06,2.58,1.29,4.68,3.66,4.68,1.92,0,3.15-1.65,3.15-4S28.85,25.21,26.69,25.21Z"/><path d="M26.7,0A26.7,26.7,0,1,0,53.39,26.7,26.69,26.69,0,0,0,26.7,0ZM27,35.83c-4.74,0-7.34-3.6-7.34-8.4A12,12,0,0,1,23,18.67a11.29,11.29,0,0,1,6.93-2.88,10.45,10.45,0,0,1,1.86-.06l0,2.88a14.84,14.84,0,0,0-1.89.09c-4.08.48-6.06,3-6.54,5.7h.09a5.61,5.61,0,0,1,4.38-1.89c3.36,0,6,2.4,6,6.36A6.77,6.77,0,0,1,27,35.83Z"/></svg>