<svg id="Layer_1" data-name="Layer 1" xmlns="http://www.w3.org/2000/svg" viewBox="0 0 53.39 53.39"><path d="M26.7,0A26.7,26.7,0,1,0,53.39,26.7,26.69,26.69,0,0,0,26.7,0ZM25.32,35.83a10.64,10.64,0,0,1-5.46-1.35l.84-2.79a9.64,9.64,0,0,0,4.43,1.2c2.82,0,4-1.59,3.94-3.12,0-2.31-2.16-3.3-4.41-3.3H23v-2.7H24.6c1.71,0,3.86-.78,3.86-2.73,0-1.32-1-2.43-3.11-2.43a7.78,7.78,0,0,0-4,1.23l-.84-2.67a10.46,10.46,0,0,1,5.6-1.5c4,0,6.09,2.22,6.09,4.77,0,2-1.2,3.72-3.6,4.56v.06a4.92,4.92,0,0,1,4.3,4.86C32.91,33.22,30.15,35.83,25.32,35.83Z"/></svg>