<svg id="Layer_1" data-name="Layer 1" xmlns="http://www.w3.org/2000/svg" viewBox="0 0 54.92 54.92"><path d="M27.82,24.68a3.16,3.16,0,0,0,2.43-2.94A2.61,2.61,0,0,0,27.46,19a2.59,2.59,0,0,0-2.82,2.64C24.64,23.21,26,24.17,27.82,24.68Z"/><path d="M27.1,27.41a3.56,3.56,0,0,0-2.88,3.42A3.07,3.07,0,0,0,27.49,34a3,3,0,0,0,3.24-2.91C30.73,29.09,29.26,28,27.1,27.41Z"/><path d="M27.46,0A27.46,27.46,0,1,0,54.92,27.46,27.45,27.45,0,0,0,27.46,0Zm-.09,36.59c-4.56,0-6.93-2.61-6.93-5.34,0-2.43,1.41-4.08,3.66-5.07v-.09a4.75,4.75,0,0,1-3-4.32c0-3.18,2.82-5.34,6.51-5.34,4.2,0,6.12,2.52,6.12,4.92a4.88,4.88,0,0,1-3,4.41v.09a5.24,5.24,0,0,1,3.72,4.92C34.48,34.25,31.54,36.59,27.37,36.59Z"/></svg>