<svg xmlns="http://www.w3.org/2000/svg" viewBox="0 0 1997.45 1318.02">
  <g class="map-bkgd">
    <line x1="1790.2" y1="8.64" x2="1790.2" y2="291.47"/>
    <line x1="1761.87" y1="8.64" x2="1761.87" y2="291.47"/>
    <line x1="1733.55" y1="8.64" x2="1733.55" y2="291.47"/>
    <line x1="1705.22" y1="8.64" x2="1705.22" y2="291.47"/>
    <line x1="1616.69" y1="8.64" x2="1616.69" y2="291.47"/>
    <line x1="1524.38" y1="8.64" x2="1524.38" y2="291.47"/>
    <line x1="1432.06" y1="8.64" x2="1432.06" y2="291.47"/>
    <line x1="1339.74" y1="8.64" x2="1339.74" y2="291.47"/>
    <line x1="1247.42" y1="8.64" x2="1247.42" y2="291.47"/>
    <line x1="1155.1" y1="8.64" x2="1155.1" y2="291.47"/>
    <line x1="1062.79" y1="8.64" x2="1062.79" y2="291.47"/>
    <line x1="970.47" y1="8.64" x2="970.47" y2="291.47"/>
    <polyline points="866.45 11.29 954.98 291.47 1015.17 291.47"/>
  </g>
  <g class="map-focus">
    <path d="M481.16,866.66h10.63V852.45A29,29,0,0,0,503,847.79l10.05,10.05,7.51-7.51-10.05-10.05A29,29,0,0,0,515.2,829h14.21V818.42H515.2a29.06,29.06,0,0,0-4.66-11.25l10.05-10-7.51-7.51-10.05,10A29,29,0,0,0,491.79,795V780.79H481.16V795a29.08,29.08,0,0,0-11.24,4.66l-10.05-10-7.51,7.51,10.05,10a29.06,29.06,0,0,0-4.66,11.25H443.54V829h14.21a29,29,0,0,0,4.66,11.24l-10.05,10.05,7.51,7.51,10.05-10.05a29.08,29.08,0,0,0,11.24,4.66Z"/>
    <path d="M971.61,866.66H966.3V852.45a29,29,0,0,1-11.24-4.66l-10,10.05-7.51-7.51,10-10.05A29,29,0,0,1,942.89,829H928.68V818.42h14.21a29.06,29.06,0,0,1,4.66-11.25l-10-10,7.51-7.51,10,10A29,29,0,0,1,966.3,795V780.79h5.31V292.55h913.62V9.26H734.36V292.55h23.9v77.91H1.34V780.79H6.65V795a29.06,29.06,0,0,1,11.25,4.66l10-10,7.52,7.51-10,10a29,29,0,0,1,4.65,11.25H44.28V829H30.06a29,29,0,0,1-4.65,11.24l10.05,10.05-7.52,7.51-10-10.05a29.06,29.06,0,0,1-11.25,4.66v14.21H1.34v409.45H971.61Z"/>
  </g>
  <text class="map-text" transform="translate(1948.6 255.16) rotate(-90)">
    John Street
  </text>
  <g class="logo">
    <path d="M123.35,93.12V90.57a10,10,0,0,1-4.12,2.33,18.26,18.26,0,0,1-6,1q-8.79,0-13.84-5.57t-5-15.55q0-10,5.79-16.23a19,19,0,0,1,14.5-6.26,19.2,19.2,0,0,1,8.72,2V35.41l9.81-2.36V93.12Zm0-32a10.39,10.39,0,0,0-6.56-2.51q-5.88,0-9.06,3.59t-3.18,10.31q0,13.11,12.64,13.11a9.55,9.55,0,0,0,3.47-.84,6.44,6.44,0,0,0,2.69-1.71Z"/>
    <path d="M38.24,50.93H28.43V78.35c.39,7.14-7.94,6.81-8.35,6.85s-8.54.69-8.79-6.82V50.93H1.34V76.3c0,11.93,7.38,17.6,17.14,17.6h2c9.77,0,17.89-4.88,17.89-17.6V50.93Z"/>
    <path d="M296,50.93h-9.81V78.35c.39,7.14-7.94,6.81-8.35,6.85s-8.54.69-8.79-6.82V50.93h-9.95V76.3c0,11.93,7.38,17.6,17.14,17.6h2c9.77,0,17.89-4.88,17.89-17.6V50.93Z"/>
    <path d="M467.7,59h-4.86V51.07h4.86V42.51l9.82-3.61V51.07h13V59h-13V77.38c0,3,.47,5.13,1.41,6.38s2.59,1.86,4.95,1.86a12.18,12.18,0,0,0,6.59-1.92v9a31,31,0,0,1-9.73,1.18q-6.28,0-9.66-3.55T467.7,80.24Z"/>
    <path d="M75.89,93.9V69.6q0-5.37-2.06-7.85c-1.38-1.65-3.62-2.47-6.74-2.47a10.47,10.47,0,0,0-4.61,1.21,10.77,10.77,0,0,0-3.83,3V93.9H48.84V55.39l7.07-.15,1.8.54q4-4.71,11.82-4.71,7.5,0,11.83,4.5c2.9,3,4.34,7.18,4.34,12.54V93.9Z"/>
    <polygon points="58.66 60.11 58.66 51.07 48.84 53.43 48.84 60.11 58.66 60.11"/>
    <path d="M445.8,93.9V69.6q0-5.37-2.06-7.85T437,59.28a10.47,10.47,0,0,0-4.62,1.21,10.77,10.77,0,0,0-3.83,3V93.9h-9.81V55.39l7.07-.15,1.8.54q4-4.71,11.82-4.71,7.5,0,11.84,4.5c2.89,3,4.33,7.18,4.33,12.54V93.9Z"/>
    <polygon points="428.56 60.11 428.56 51.07 418.75 53.43 418.75 60.11 428.56 60.11"/>
    <path d="M213.49,61a10.26,10.26,0,0,0-5.78-1.73,7.83,7.83,0,0,0-6.06,3.1A11.25,11.25,0,0,0,199,70V93.9h-9.81V54.21H199v1.5A14,14,0,0,1,210,51.07q5,0,7.7,1.53Z"/>
    <polygon points="199 60.11 199 51.07 189.19 53.43 189.19 60.11 199 60.11"/>
    <path d="M330.94,61a10.23,10.23,0,0,0-5.77-1.73,7.8,7.8,0,0,0-6.06,3.1A11.25,11.25,0,0,0,316.46,70V93.9h-9.82V54.21h9.82v1.5a13.92,13.92,0,0,1,11-4.64q5,0,7.69,1.53Z"/>
    <polygon points="316.46 60.11 316.46 51.07 306.64 53.43 306.64 60.11 316.46 60.11"/>
    <path d="M365.29,61a10.23,10.23,0,0,0-5.77-1.73,7.8,7.8,0,0,0-6.06,3.1A11.26,11.26,0,0,0,350.8,70V93.9H341V54.21h9.81v1.5a14,14,0,0,1,11-4.64q5,0,7.69,1.53Z"/>
    <polygon points="350.81 60.11 350.81 51.07 340.99 53.43 340.99 60.11 350.81 60.11"/>
    <path d="M248.5,82c-4.83,3.87-19.37,4.81-19.55-10.63.32-15.14,11.94-13.83,18.42-10.93l5.38-7.63A25.2,25.2,0,0,0,240,49.21c-6-.16-11.08,1.25-15.27,5.43s-6.22,9.36-6.38,15.87c0,.11,0,.23,0,.34v.45c0,.18,0,.34,0,.51h0q.15,10.08,5.84,15.82c3.89,3.92,9.1,6,15.83,6.26,6,.22,11.34-2.57,13.85-4.22Z"/>
    <path d="M410.84,69.54a18.44,18.44,0,0,0-15-18.84h0c-.31-.06-.61-.13-.92-.18a21.24,21.24,0,0,0-4.1-.32h-.12a20.07,20.07,0,0,0-14.74,6.17A10.65,10.65,0,0,0,374.55,58q-4.76,5.82-4.75,14.55c0,.58,0,1.14.06,1.7,0,.3-.05.59-.06.88h.1q.64,8.25,5.49,13.14Q381,93.9,390.6,93.9c6.54,0,11.52-1.29,15-3.83a18,18,0,0,0,2.87-2.46l-6.26-5.41a13.76,13.76,0,0,1-2.07,1.65,15.84,15.84,0,0,1-8,1.85,12.51,12.51,0,0,1-8.56-2.79,10.59,10.59,0,0,1-3.45-7.78h30.7C410.8,74.65,410.84,69.9,410.84,69.54ZM401,67.61H380.42q2.07-9.11,10.42-9.12,6.24,0,8.71,4.27A12.7,12.7,0,0,1,401,67.61Z"/>
    <path d="M181.63,69.54a18.43,18.43,0,0,0-15-18.84h0c-.31-.06-.61-.13-.93-.18a21.17,21.17,0,0,0-4.1-.32h-.12a20.08,20.08,0,0,0-14.74,6.17A11.27,11.27,0,0,0,145.34,58q-4.74,5.82-4.75,14.55c0,.58,0,1.14.06,1.7l-.06.88h.1q.65,8.25,5.5,13.14,5.59,5.63,15.21,5.63c6.54,0,11.51-1.29,15-3.83a18.41,18.41,0,0,0,2.87-2.46L173,82.2a13.18,13.18,0,0,1-2.06,1.65,15.85,15.85,0,0,1-8.05,1.85,12.53,12.53,0,0,1-8.56-2.79,10.67,10.67,0,0,1-3.45-7.78h30.71C181.6,74.65,181.63,69.9,181.63,69.54Zm-9.85-1.93H151.22q2.07-9.11,10.41-9.12,6.26,0,8.72,4.27A12.7,12.7,0,0,1,171.78,67.61Z"/>
    <rect x="1.34" y="20.16" width="489.14" height="7.53"/>
  </g>
  <g class="art-piece undercurrent foql-massillon" data-piece="foql-massillon">
    <text transform="translate(1181.12 934.51)">
      4
      <tspan x="0" y="36">
      FOQL
    </tspan>
    <tspan x="0" y="72">
      Emmanuel Massillon
    </tspan>
  </text>
  <path d="M174,653.2l-5.13,7.68,0,.08h7.63v-7.63c0-1.6,0-3.24.17-4.88h-.17C175.64,650.22,174.91,651.65,174,653.2Z"/>
  <path class="circle" d="M174.52,621a38.39,38.39,0,1,0,38.39,38.39A38.39,38.39,0,0,0,174.52,621ZM185.13,665h-3.62v7.11h-5V665H163.82v-3.46l11.43-17.47h6.26V661h3.62Z"/>
</g>
<g class="art-piece undercurrent de-wilde-lam" data-piece="de-wilde-lam">
  <path class="circle" d="M1835.32,107.54a38.39,38.39,0,1,0,38.38,38.39A38.39,38.39,0,0,0,1835.32,107.54Zm3.75,51.05h-5.14V135.34h-.08l-5.14,2.59-.9-4,6.81-3.37h4.45Z"/>
  <text transform="translate(1181.12 502.53)">
    1
    <tspan x="0" y="36">
    Sanne De Wilde
  </tspan>
  <tspan x="0" y="72">
    H. Lan Thao Lam
  </tspan>
</text>
</g>
<g class="art-piece undercurrent bera-choua" data-piece="bera-choua">
  <text transform="translate(1181.12 646.52)">
    2
    <tspan x="0" y="36">
    Ana Bera
  </tspan>
  <tspan x="0" y="72">
    Saddie Choua
  </tspan>
</text>
<path class="circle" d="M805.69,108.54a38.39,38.39,0,1,0,38.38,38.39A38.39,38.39,0,0,0,805.69,108.54ZM815,159.59H796v-3.24l3.32-3.06c6.6-6.12,9.71-9.49,9.75-13.2,0-2.5-1.34-4.7-5-4.7a10.2,10.2,0,0,0-6,2.33L796.5,134a13.85,13.85,0,0,1,8.62-2.89c6.22,0,9.23,3.92,9.23,8.49,0,4.92-3.53,8.89-8.41,13.42l-2.46,2.11v.09H815Z"/>
</g>
<g class="art-piece undercurrent lukacova-shanahan" data-piece="lukacova-shanahan">
  <text transform="translate(1181.12 790.52)">
    3
    <tspan x="0" y="36">
    Marie Lukáčová
  </tspan>
  <tspan x="0" y="72">
    Emily Shanahan
  </tspan>
</text>
<path class="circle" d="M854,780.54a38.39,38.39,0,1,0,38.39,38.38A38.38,38.38,0,0,0,854,780.54Zm-2,51.52a15.32,15.32,0,0,1-7.85-1.94l1.2-4a13.85,13.85,0,0,0,6.39,1.72c4.05,0,5.69-2.28,5.65-4.48,0-3.32-3.11-4.75-6.34-4.75h-2.46v-3.88H851c2.46,0,5.57-1.12,5.57-3.93,0-1.89-1.43-3.49-4.49-3.49a11.27,11.27,0,0,0-5.74,1.77l-1.21-3.84a15.19,15.19,0,0,1,8.07-2.16c5.78,0,8.76,3.2,8.76,6.86,0,2.94-1.73,5.35-5.18,6.56v.09a7.07,7.07,0,0,1,6.17,7C863,828.31,859,832.06,852,832.06Z"/>
</g>
</svg>
