<svg id="Layer_1" class="acfny-map" data-name="Layer 1" xmlns="http://www.w3.org/2000/svg" viewBox="0 0 824.49 472.14">
  <defs>
    <style>
      .cls-1{fill:#000;}.cls-2,.cls-3{fill:none;stroke:#000;stroke-width:0.75px;}.cls-2{stroke-miterlimit:10;}.cls-3{stroke-linecap:round;stroke-linejoin:round;}
    </style>
  </defs>
  <path class="cls-1" d="M0,0V472.14H824.49V0ZM656.53,55l14.6,93.07-4.56-5.71L652.65,55Zm97.85,341.69H70.69v-279H182V68.11h-7.29V59h16.72v58.6H216V54.73h4.87v82.72h50.52v-6.69H456.18v-5.25h6.92v-4.79h7.07v-5h7.07v-4.33h6.62v-4.79h6.61V102h7.19V97.34h6.27V92.55h7V88h6.84V83.31h6.84V78.87h7.19V73.62h7V69.29h6.61v-5h6.73V59.71h7V55h90.74l12.92,81.61h0l.91,6.24-22.68,3.7h-1.06V147l.45-.43v18.82H741v7.3l-85.75,14.6H640.33V212H666.8v70.26H640.33l-1.82,0v7.6H754.38Z"/>
  <polygon class="cls-2" points="657.98 165.46 655.24 165.46 640.34 165.46 640.34 187.36 655.24 187.36 740.99 172.76 740.99 165.46 657.98 165.46"/>
  <rect class="cls-2" x="269.9" y="211.99" width="396.89" height="70.25"/>
  <polygon class="cls-2" points="368.21 390.29 213.33 390.29 250.74 372.5 330.43 372.5 368.21 390.29"/>
  <polygon class="cls-2" points="543.85 140.82 543.85 197.62 462.65 197.62 462.65 195.11 541.11 140.82 543.85 140.82"/>
  <polyline class="cls-2" points="157.22 240.28 106.35 240.28 106.35 247.8 123.92 247.8 123.92 254.65 132.59 254.65 132.59 247.8 147.87 247.8 147.87 254.65 157.45 254.65 157.45 248.03"/>
  <polyline class="cls-3" points="156.16 218.38 245.27 176.1 406.46 176.1"/>
  <polyline class="cls-3" points="188.7 232.98 245.27 260.05 157.07 302.32"/>
  <polyline class="cls-3" points="188.7 317.22 245.27 344.29 201.78 365.27"/>
  <polygon class="cls-2" points="640.79 55.06 559.02 55.06 559.02 59.73 552.06 59.73 552.06 64.3 545.33 64.3 545.33 69.31 538.72 69.31 538.72 73.65 531.76 73.65 531.76 78.89 524.58 78.89 524.58 83.34 517.73 83.34 517.73 88.02 510.89 88.02 510.89 92.58 503.93 92.58 503.93 97.37 497.66 97.37 497.66 102.05 490.48 102.05 490.48 106.61 483.86 106.61 483.86 111.4 477.25 111.4 477.25 115.73 470.17 115.73 470.17 120.75 463.1 120.75 463.1 125.54 456.18 125.54 456.18 130.79 271.42 130.79 271.42 137.48 216.07 137.48 216.07 128.66 207.86 128.66 207.86 137.48 171.13 137.48 171.13 122.58 162.24 122.26 162.24 137.48 77.84 137.48 77.84 143.41 279.33 143.41 279.33 136.72 370.87 136.72 370.87 143.87 379.04 143.87 379.04 136.57 436.87 136.57 436.87 143.87 449.19 143.87 568.87 60.84 641.55 60.84 640.79 55.06"/>
  <polyline class="cls-2" points="652.65 55.06 666.57 142.42 671.13 148.12 656.53 55.06"/>
  <line class="cls-2" x1="556.17" y1="211.99" x2="556.17" y2="282.47"/>
  <line class="cls-2" x1="543.93" y1="211.99" x2="543.93" y2="282.47"/>
  <polyline class="cls-2" points="556.09 146.6 640.95 146.6 663.62 142.9 662.71 136.66"/>
  <line class="cls-2" x1="640.34" y1="146.64" x2="640.34" y2="282.25"/>
  <polyline class="cls-2" points="182.01 137.48 182.01 68.14 174.71 68.14 174.71 59.01 191.44 59.01 191.44 137.48"/>
  <line class="cls-2" x1="182.01" y1="68.14" x2="191.28" y2="58.86"/>
  <rect class="cls-2" x="216.03" y="54.75" width="4.87" height="82.72"/>
  <line class="cls-3" x1="334.68" y1="343.83" x2="378.93" y2="365.28"/>
  <line class="cls-2" x1="379.04" y1="143.87" x2="379.04" y2="282.25"/>
  <path class="cls-2" d="M379,387.51V288H543.93v7.57h11.55V288h76.65v7.57h115v95.22H379v-3.95h-7.86v-4.26h-7.91V379h-8.06V375h-8.06v-3.8h-8.06v-4.72H242.15v0h0v-3.61H234v-3.73H226v-4.1h-8v-3.35h-8.13v-4.26h-7.68v-3.72h-8.6V340h-8.51v-3.88h-8V332.2h-8v-3.42h-4.75l84-40.6v7.45h7.75V288h16.88v7.6h7.3V288h91.09v7.6H379V282.25H241.77V278.6h-8.36v-3.42h-8.22v-4h-7.75V267H209v-3.87h-7.53V259h-8v-3.65h-8v-3.76h-8.44v-4h-8v-3.2h-5.31l.52-.23,83.94-39.69V212H256v-7.75h16.65V212h7.91v-8h42.88v8h7.3v-8h41.06v8H379v-8h73.34v8H460v-8h83.94v8h12.24v-22.5H544.84l11.33-7.61v-45h96.94l.46,1.45,9.12-1.6L649.76,55.06h-9l11.41,75.61H537.12v5.82h-7.18v4.79h-6.85v4.79h-6.73v4.45h-6.72v4.67H503v5h-7v4.57h-7.18v4.44h-6.39v4.68h-7.18v4.9h-6.73v4.68h-7.07v4.45h-6.62v4.79h-7.07v5.36H240.93V202h-7.52v4.1h-8v4.11H217.9v3.19h-8.44v4.33h-8.22v3.2H193V225h-7.75v4.34h-8.44v3.42h-8.21v3.65H157.45V248l79.83,37.64v.07h-4v4h-7.9v4.56h-7.91v3.19h-7.76v4.26h-8.36v3.5h-7.91v3.5h-7.9v4.41h-8.67v3.65h-7.61v4h-8.36v3.5s-83,.3-83,.68v-206l93.29,3.65v4.79h6.39v-4.79l38.25-4.87H70.69v279h683.7V289.85H638.51v-7.6M233.86,375.62h-7.6v3.65H217.9v3.64H210v4h-8.06v3.95H77.84V330.91h70.41v6.69h8.51v-6.08l85.09,40.09v.05h-8Z"/>
</svg>
