<svg id="Layer_1" data-name="Layer 1" xmlns="http://www.w3.org/2000/svg" viewBox="0 0 50.24 68.78"><path d="M31.43,21.11v3.43l-.2.2h-.89c-.07.18,0,.18.14.25a3,3,0,0,1,1.07,1.54,4.29,4.29,0,0,1,0,2,4,4,0,0,1-.14.57,2.44,2.44,0,0,1-.8,1.1,4.73,4.73,0,0,0-.4.37,1.06,1.06,0,0,0-.35.09,2.59,2.59,0,0,1-1.12.29H18.84V27.35h9.21a2.7,2.7,0,0,0,1-.23.69.69,0,0,0,.4-.59,2.88,2.88,0,0,0,0-.65c-.19-.58-.62-.79-1.14-1H19l-.17-.16V21.24H30c.21,0,.45.1.64-.12s.18.24.35,0S31.25,21.12,31.43,21.11Z"/><path d="M31.41,33V36c-.37.22-.85.09-1.22.35a4.8,4.8,0,0,1,.86,1.2,2.74,2.74,0,0,1,.37,1.4c0,.18.14.27.15.44a5.21,5.21,0,0,1-.2,1.37,3.78,3.78,0,0,1-.65,1.15,1.51,1.51,0,0,1-.6.49,4.7,4.7,0,0,1-2.29.64,8.42,8.42,0,0,0-.87,0,6.38,6.38,0,0,1-.76-.15,2,2,0,0,1-1.09-.51,3,3,0,0,1-1.17-1.63,1.94,1.94,0,0,1-.35-1c-.09-.34-.1-.72-.17-1.07a19.1,19.1,0,0,1-.11-2.29c-.88,0-1.78-.17-2.62.5a1.74,1.74,0,0,0,.2,2.09l.54.28c.23,0,.52,0,.75.23V42.7a5.38,5.38,0,0,1-1.26-.12,9.08,9.08,0,0,1-1-.53c-.16-.08-.25-.29-.37-.46a3.72,3.72,0,0,1-.7-1.64,9.84,9.84,0,0,1-.21-3.33A5,5,0,0,1,19,35.09a2.67,2.67,0,0,1,.39-.65,2.54,2.54,0,0,1,.92-.86,3.25,3.25,0,0,1,1.41-.37q3.39,0,6.79,0a18,18,0,0,1,1.94-.11C30.72,32.88,31.06,33,31.41,33Zm-6.17,3.5c-.15.4.1.74.07,1.09a4.45,4.45,0,0,0,.27,1.2c0,.17.21.32.34.46a2,2,0,0,0,1.1.47,1.12,1.12,0,0,0,1-.1c.27.08.49-.15.74-.14l.57-.57c-.12-.2,0-.38.07-.55a2,2,0,0,0-.93-1.49.67.67,0,0,1-.52-.17A10.15,10.15,0,0,0,25.24,36.45Z"/><path d="M27.37,19.24l-.17-.17V15.78a12.8,12.8,0,0,0,1.29-.25,1.18,1.18,0,0,0,.94-.78v-.87a2.41,2.41,0,0,0-.67-.86A3.6,3.6,0,0,0,28,13a1.4,1.4,0,0,0-.62.31A4.68,4.68,0,0,0,26.2,15c-.5,1-1,1.95-1.62,2.89a2.87,2.87,0,0,1-1.68,1.24,4.62,4.62,0,0,1-.92,0,2.83,2.83,0,0,1-2.36-1.05,4.3,4.3,0,0,1-.93-1.86,12,12,0,0,1-.11-2.07,6.49,6.49,0,0,1,.26-2,2,2,0,0,1,.37-.77A2.84,2.84,0,0,1,21.32,10a8.28,8.28,0,0,1,1,0c0,.56,0,1.07,0,1.59,0,.29-.09.61.11.88,0,0,0,.16,0,.18-.21.2-.05.47-.15.71h-.94a1.89,1.89,0,0,0-.76.55c.05.23-.14.4-.15.63s.23.4.14.64l.55.54h.74a1.87,1.87,0,0,0,.78-.72c.27-.41.5-.83.74-1.26A29.21,29.21,0,0,1,25,11.1a3.62,3.62,0,0,1,1.77-1.41,2.45,2.45,0,0,1,1.75-.08c.19.08.39,0,.59.08a3,3,0,0,1,1.76,1.48,8,8,0,0,1,.61,1.69,11.74,11.74,0,0,1,.13,2.37,8.1,8.1,0,0,1-.15,1.39,1.49,1.49,0,0,1-.3.74c-.18.25-.32.54-.52.78a3.17,3.17,0,0,1-1.33.85,1.23,1.23,0,0,1-.63.13c-.2,0-.35.16-.57.13A5.3,5.3,0,0,0,27.37,19.24Z"/><path d="M25.12,0C11.27,0,0,11.62,0,25.89,0,39.4,7.09,52.06,23.72,68.21a2,2,0,0,0,2.8,0C43.15,52.06,50.24,39.4,50.24,25.89,50.24,11.62,39,0,25.12,0Zm0,46.4C14.55,46.4,6,37.53,6,26.63S14.55,6.87,25.12,6.87,44.3,15.74,44.3,26.63,35.69,46.4,25.12,46.4Z"/></svg>