<?xml version="1.0" encoding="utf-8"?>
<!-- Generator: Adobe Illustrator 24.2.0, SVG Export Plug-In . SVG Version: 6.00 Build 0)  -->
<svg version="1.1" id="Layer_1" xmlns="http://www.w3.org/2000/svg" xmlns:xlink="http://www.w3.org/1999/xlink" x="0px" y="0px"
	 viewBox="0 0 12 12" style="enable-background:new 0 0 12 12;" xml:space="preserve">
<path d="M8,6c0-0.6-0.2-1-0.6-1.4C7,4.2,6.6,4,6,4S5,4.2,4.6,4.6C4.2,5,4,5.4,4,6s0.2,1,0.6,1.4C5,7.8,5.4,8,6,8s1-0.2,1.4-0.6
	C7.8,7,8,6.6,8,6z M9.1,6c0,0.9-0.3,1.6-0.9,2.2C7.6,8.8,6.9,9.1,6,9.1c-0.9,0-1.6-0.3-2.2-0.9S2.9,6.9,2.9,6s0.3-1.6,0.9-2.2
	S5.1,2.9,6,2.9s1.6,0.3,2.2,0.9S9.1,5.1,9.1,6z M9.9,2.8c0,0.2-0.1,0.4-0.2,0.5C9.6,3.4,9.4,3.5,9.2,3.5S8.8,3.4,8.7,3.3
	C8.6,3.2,8.5,3,8.5,2.8s0.1-0.4,0.2-0.5C8.8,2.1,9,2.1,9.2,2.1s0.4,0.1,0.5,0.2C9.9,2.4,9.9,2.6,9.9,2.8z M6,1.1c0,0-0.2,0-0.6,0
	c-0.4,0-0.6,0-0.8,0c-0.2,0-0.4,0-0.8,0S3.2,1.1,3,1.2S2.6,1.3,2.5,1.3C2.2,1.4,2,1.6,1.8,1.8C1.6,2,1.4,2.2,1.3,2.5
	C1.3,2.6,1.2,2.8,1.2,3S1.1,3.5,1.1,3.8c0,0.3,0,0.6,0,0.8s0,0.5,0,0.8s0,0.6,0,0.6c0,0,0,0.2,0,0.6c0,0.4,0,0.6,0,0.8
	c0,0.2,0,0.4,0,0.8c0,0.3,0,0.6,0.1,0.8s0.1,0.4,0.1,0.6c0.1,0.3,0.3,0.5,0.5,0.7s0.4,0.3,0.7,0.5c0.2,0.1,0.3,0.1,0.6,0.1
	s0.5,0.1,0.8,0.1s0.6,0,0.8,0s0.5,0,0.8,0c0.4,0,0.6,0,0.6,0s0.2,0,0.6,0c0.4,0,0.6,0,0.8,0c0.2,0,0.4,0,0.8,0s0.6,0,0.8-0.1
	c0.2,0,0.4-0.1,0.6-0.1c0.3-0.1,0.5-0.3,0.7-0.5s0.3-0.4,0.5-0.7c0.1-0.2,0.1-0.3,0.1-0.6s0.1-0.5,0.1-0.8s0-0.6,0-0.8
	c0-0.2,0-0.5,0-0.8c0-0.4,0-0.6,0-0.6c0,0,0-0.2,0-0.6c0-0.4,0-0.6,0-0.8c0-0.2,0-0.4,0-0.8c0-0.3,0-0.6-0.1-0.8s-0.1-0.4-0.1-0.6
	c-0.1-0.3-0.3-0.5-0.5-0.7S9.8,1.4,9.5,1.3C9.4,1.3,9.2,1.2,9,1.2c-0.2,0-0.5-0.1-0.8-0.1c-0.3,0-0.6,0-0.8,0s-0.5,0-0.8,0
	S6,1.1,6,1.1z M12,6c0,1.2,0,2,0,2.5c-0.1,1.1-0.4,1.9-1,2.5c-0.6,0.6-1.4,0.9-2.5,1C8,12,7.2,12,6,12s-2,0-2.5,0
	c-1.1-0.1-1.9-0.4-2.5-1S0.1,9.6,0,8.5C0,8,0,7.2,0,6s0-2,0-2.5C0.1,2.4,0.4,1.6,1,1s1.4-0.9,2.5-1C4,0,4.8,0,6,0s2,0,2.5,0
	c1.1,0.1,1.9,0.4,2.5,1c0.6,0.6,0.9,1.4,1,2.5C12,4,12,4.8,12,6z"/>
</svg>
