<svg id="Layer_1" data-name="Layer 1" xmlns="http://www.w3.org/2000/svg" viewBox="0 0 50.24 66.73"><path d="M25.12,0A25.15,25.15,0,0,0,0,25.12C0,38.23,7.09,50.51,23.72,66.18a2.06,2.06,0,0,0,2.8,0c16.63-15.68,23.72-28,23.72-41.06A25.15,25.15,0,0,0,25.12,0Zm0,45A19.18,19.18,0,1,1,44.3,25.84,19.19,19.19,0,0,1,25.12,45Z"/><path d="M33.9,19.45H29.21V32.54c.19,3.4-3.79,3.25-4,3.27s-4.08.33-4.2-3.26V19.45H16.28V31.56c0,3.49,1.32,5.85,3.42,7.16A8.9,8.9,0,0,0,24.47,40h1c2.78,0,5.29-.83,6.85-2.8A8.75,8.75,0,0,0,34,31.56V19.45Z"/><rect x="16.28" y="13.72" width="17.68" height="3.63"/></svg>