<svg id="Layer_1" data-name="Layer 1" xmlns="http://www.w3.org/2000/svg" viewBox="0 0 1058.67 472.14">
  <defs>
    <style>
      .cls-1{fill:#000;}.cls-2,.cls-3{fill:none;stroke:#000;stroke-linecap:round;stroke-linejoin:round;}.cls-2{stroke-width:0.26px;}.cls-3{stroke-width:0.26px;}
    </style>
  </defs>
  <path class="cls-1" d="M0,0V472.14H1058.67V0ZM914.86,267.07H874.45v10H863.22v10H852v10H840.78v10H800v10H759.11v10H718.43v10H677.66V346.9H637v10.29H596v10H555.17v10H514.49v10.46H503.54v11.26H140.28V222.18H434.06v52.93H447V222.18h84.76v10.18H544.6V222.18h67.82v10.18h12.75V222.18h63.68v10.18h15c2.37,0,4.3-2.28,4.3-5.09V176.36h73v11.2H806V104.2H914.86Z"/>
  <path class="cls-2" d="M914.86,267.07H874.45v10H863.22v10H852v10H840.78v10H800v10H759.11v10H718.43v10H677.66V346.9H637v10.29H596v10H555.17v10H514.49v10.46H503.54v11.26H140.28V222.18H434.06v52.93H447V222.18h84.76v10.18H544.6V222.18h67.82v10.18h12.75V222.18h63.68v10.18h15c2.37,0,4.3-2.28,4.3-5.09V176.36h73v11.2H806V104.2H914.86Z"/>
  <polygon class="cls-3" points="292.75 230.5 298.41 222.18 293.19 222.18 293.19 222.18 278.79 222.18 278.79 222.18 273.57 222.18 278.79 228.93 278.79 392.64 273.57 398.89 282.02 398.89 282.02 398.89 289.96 398.89 289.96 398.89 298.41 398.89 292.75 394.21 292.75 230.5"/>
</svg>
