<svg id="Layer_1" class="undercurrent-map" data-name="Layer 1" xmlns="http://www.w3.org/2000/svg" viewBox="0 0 1058.67 472.14">
  <defs>
    <style>
      .cls-1{fill:#000;}.cls-2,.cls-3{fill:none;stroke:#000;stroke-linecap:round;stroke-linejoin:round;}.cls-2{stroke-width:0.75px;}.cls-3{stroke-width:0.75px;}
    </style>
  </defs>
  <path class="cls-1" d="M0,0V472.14H1058.67V0ZM986.51,267.07H938.62v10h-13.3v10H912v10h-13.3v10H850.34v10h-48.4v10h-48.2v10H705.43V346.9H657.26v10.29H608.65v10H560.28v10H512.07v10.46h-13v11.26H68.63V222.18H416.76v52.93H432V222.18H532.47v10.18h15.28V222.18h80.37v10.18h15.11V222.18h75.46v10.18h17.76a5.09,5.09,0,0,0,5.09-5.09V176.36H828v11.2h29.52V104.2h129Z"/>
  <path class="cls-2" d="M986.51,267.07H938.62v10h-13.3v10H912v10h-13.3v10H850.34v10h-48.4v10h-48.2v10H705.43V346.9H657.26v10.29H608.65v10H560.28v10H512.07v10.46h-13v11.26H68.63V222.18H416.76v52.93H432V222.18H532.47v10.18h15.28V222.18h80.37v10.18h15.11V222.18h75.46v10.18h17.76a5.09,5.09,0,0,0,5.09-5.09V176.36H828v11.2h29.52V104.2h129Z"/>
  <polygon class="cls-3" points="249.31 230.5 256.02 222.18 249.83 222.18 249.83 222.18 232.76 222.18 232.76 222.18 226.58 222.18 232.76 228.93 232.76 392.64 226.58 398.89 236.59 398.89 236.59 398.89 246.01 398.89 246.01 398.89 256.02 398.89 249.31 394.21 249.31 230.5"/>
</svg>
