<svg id="unmute-header" xmlns="http://www.w3.org/2000/svg" viewBox="0 0 1962.91 1080.63">
  <g class="unmute-header-text-static" id="unmute-header-u0">
    <path d="M250,78.39c0,34.55-1.08,62.62,0,84.76H167.91V125.9h7.55c-10.25,16.19-35.09,43.19-82.6,43.19-54,0-92.86-33.48-92.86-115V-100.86H82.06v142c0,38.34,12.42,61.55,41.58,61.55,22.67,0,36.17-15.66,41-28.61q3.24-7.29,3.24-17.82V-100.86H250Z"/>
    <path d="M1474,78.39c0,34.55-1.08,62.62,0,84.76H1392V125.9h7.55c-10.25,16.19-35.09,43.19-82.6,43.19-54,0-92.86-33.48-92.86-115V-100.86h82.06v142c0,38.34,12.42,61.55,41.57,61.55,22.68,0,36.18-15.66,41-28.61q3.24-7.29,3.24-17.82V-100.86H1474Z"/>
    <path d="M301.53-13.84c0-34.56,1.08-62.63,0-84.77H383.6v37.26H376c10.26-16.2,35.09-43.2,82.6-43.2,54,0,92.86,33.48,92.86,115v155H469.44v-142c0-38.33-12.42-61.55-41.57-61.55-22.68,0-36.17,15.66-41,28.62Q383.6-2.23,383.6,8.29V165.4H301.53Z"/>
    <path d="M770.47-12.73c0-32.94,1.08-60.47,0-84.23h78.61v35.64h-6.26c11.34-17.28,35.09-42.11,79.9-42.11,34.56,0,61,17.81,72.35,45.35h1.08c10.26-14,21.59-24.84,34.55-32.4a100.64,100.64,0,0,1,50.21-13c50.75,0,89.08,35.63,89.08,115V167.05h-79.9V23.44c0-38.33-12.42-60.47-38.87-60.47-19.44,0-31.09,13-37,28.62a86.32,86.32,0,0,0-2.7,21.05V167.05H927.68V18.58c0-32.93-10.58-55.61-37-55.61-21.06,0-33.48,16.2-38.34,29.16-2.69,6.48-3.23,14-3.23,21.05V167.05H770.47Z"/>
    <path d="M1620.56-173.42v71.27h58.85v60.47h-58.85V53.88c0,31.85,8.1,46.43,32.39,46.43,11.34,0,18.9-.54,26.46-2.16v63.7c-10.26,3.78-31.86,5.41-54.53,5.41-26.46,0-48.59-9.18-62.09-22.68-15.12-15.66-22.68-41-22.68-78.28v-108H1505v-60.47h35.09v-49.13Z"/>
    <path d="M1790.14,55.81c2.16,34,36.17,50.21,74.51,50.21,28.07,0,50.75-3.78,72.88-11.34l10.8,55.61c-27,11.33-59.93,16.73-95.56,16.73-89.62,0-140.91-51.83-140.91-134.43,0-66.95,41.57-140.91,133.35-140.91,85.3,0,117.7,66.4,117.7,131.73a195,195,0,0,1-2.7,32.4ZM1886.78-.34c0-20-8.64-53.45-46.43-53.45-34.55,0-48.59,31.85-50.75,53.45Z"/>
    <path d="M575.51,231.21,691.05-160.21h54.52L630,231.21Z"/>
  </g>
  <g class="unmute-header-text u1" id="unmute-header-u1">
    <path d="M250,77.91c0,34.55-1.08,64.88,0,87H167.91v-39.5h7.55c-10.25,16.2-35.09,43.19-82.6,43.19-54,0-92.86-33.47-92.86-115V-101.33H82.06v142c0,38.33,12.42,61.54,41.58,61.54,22.67,0,36.17-15.65,41-28.61q3.24-7.29,3.24-17.82v-157.1H250Z"/>
    <path d="M1474,77.91c0,34.55-1.08,64.88,0,87H1392v-39.5h7.55c-10.25,16.2-35.09,43.19-82.6,43.19-54,0-92.86-33.47-92.86-115V-101.33h82.06v142c0,38.33,12.42,61.54,41.57,61.54,22.68,0,36.18-15.65,41-28.61q3.24-7.29,3.24-17.82v-157.1H1474Z"/>
    <path d="M301.53-14.32c0-34.55,1.08-62.63,0-84.76H383.6v37.25H376C386.3-78,411.13-105,458.64-105c54,0,92.86,33.47,92.86,115V164.92H469.44v-142c0-38.33-12.42-61.54-41.57-61.54-22.68,0-36.17,15.65-41,28.61Q383.6-2.71,383.6,7.82v157.1H301.53Z"/>
    <path d="M770.47-14.75c0-32.93,1.08-60.47,0-84.22h78.61v35.63h-6.26c11.34-17.28,35.09-42.11,79.9-42.11,34.56,0,61,17.81,72.35,45.35h1.08c10.26-14,21.59-24.84,34.55-32.4a100.64,100.64,0,0,1,50.21-13c50.75,0,89.08,35.63,89.08,115V165h-79.9V21.42c0-38.33-12.42-60.47-38.87-60.47-19.44,0-31.09,13-37,28.62a86.38,86.38,0,0,0-2.7,21V165H927.68V16.56c0-32.93-10.58-55.61-37-55.61-21.06,0-33.48,16.2-38.34,29.16-2.69,6.48-3.23,14-3.23,21.05V165H770.47Z"/>
    <path d="M1620.56-175.26V-104h58.85v60.47h-58.85V52c0,31.86,8.1,46.43,32.39,46.43,11.34,0,18.9-.54,26.46-2.16V160c-10.26,3.78-31.86,5.41-54.53,5.41-26.46,0-48.59-9.18-62.09-22.68-15.12-15.65-22.68-41-22.68-78.28v-108H1505V-104h35.09v-49.13Z"/>
    <path d="M1790.14,55.81c2.16,34,36.17,50.21,74.51,50.21,28.07,0,50.75-3.78,72.88-11.34l10.8,55.61c-27,11.33-59.93,16.73-95.56,16.73-89.62,0-140.91-51.83-140.91-134.43,0-66.95,41.57-140.91,133.35-140.91,85.3,0,117.7,66.4,117.7,131.73a195,195,0,0,1-2.7,32.4ZM1886.78-.34c0-20-8.64-53.45-46.43-53.45-34.55,0-48.59,31.85-50.75,53.45Z"/>
    <path d="M575.51,231.21,691.05-160.21h54.52L630,231.21Z"/>
  </g>
  <g class="unmute-header-text u2" id="unmute-header-u2">
    <path d="M250,78.07c0,34.55-1.08,62.63,0,84.76H167.91V125.58h7.55c-10.25,16.2-35.09,43.19-82.6,43.19-54,0-92.86-33.47-92.86-115v-155H82.06v142c0,38.33,12.42,61.54,41.58,61.54,22.67,0,36.17-15.65,41-28.61q3.24-7.29,3.24-17.82V-101.18H250Z"/>
    <path d="M1474,78.07c0,34.55-1.08,62.63,0,84.76H1392V125.58h7.55c-10.25,16.2-35.09,43.19-82.6,43.19-54,0-92.86-33.47-92.86-115v-155h82.06v142c0,38.33,12.42,61.54,41.57,61.54,22.68,0,36.18-15.65,41-28.61q3.24-7.29,3.24-17.82V-101.18H1474Z"/>
    <path d="M301.53-14.16c0-34.55,1.08-62.63,0-84.76H383.6v37.25H376c10.26-16.2,35.09-43.19,82.6-43.19,54,0,92.86,33.47,92.86,115v155H469.44v-142c0-38.33-12.42-61.55-41.57-61.55-22.68,0-36.17,15.66-41,28.62Q383.6-2.55,383.6,8v157.1H301.53Z"/>
    <path d="M770.47-12.73c0-32.94,1.08-60.47,0-84.23h78.61v35.64h-6.26c11.34-17.28,35.09-42.11,79.9-42.11,34.56,0,61,17.81,72.35,45.35h1.08c10.26-14,21.59-24.84,34.55-32.4a100.64,100.64,0,0,1,50.21-13c50.75,0,89.08,35.63,89.08,115V167.05h-79.9V23.44c0-38.33-12.42-60.47-38.87-60.47-19.44,0-31.09,13-37,28.62a86.32,86.32,0,0,0-2.7,21.05V167.05H927.68V18.58c0-32.93-10.58-55.61-37-55.61-21.06,0-33.48,16.2-38.34,29.16-2.69,6.48-3.23,14-3.23,21.05V167.05H770.47Z"/>
    <path d="M1620.56-174.65v71.27h58.85v60.47h-58.85V52.65c0,31.85,8.1,46.43,32.39,46.43,11.34,0,18.9-.54,26.46-2.16v63.7c-10.26,3.78-31.86,5.41-54.53,5.41-26.46,0-48.59-9.18-62.09-22.68-15.12-15.66-22.68-41-22.68-78.28v-108H1505v-60.47h35.09v-49.13Z"/>
    <path d="M1790.14,55.81c2.16,34,36.17,50.21,74.51,50.21,28.07,0,50.75-3.78,72.88-11.34l10.8,55.61c-27,11.33-59.93,16.73-95.56,16.73-89.62,0-140.91-51.83-140.91-134.43,0-66.95,41.57-140.91,133.35-140.91,85.3,0,117.7,66.4,117.7,131.73a195,195,0,0,1-2.7,32.4ZM1886.78-.34c0-20-8.64-53.45-46.43-53.45-34.55,0-48.59,31.85-50.75,53.45Z"/>
    <path d="M575.51,231.21,691.05-160.21h54.52L630,231.21Z"/>
  </g>
  <g class="unmute-header-text u3" id="unmute-header-u3">
    <path d="M250,78.23c0,34.55-1.08,62.63,0,84.76H167.91V125.74h7.55c-10.25,16.2-35.09,43.19-82.6,43.19-54,0-92.86-33.47-92.86-115V-101H82.06V41c0,38.34,12.42,61.55,41.58,61.55,22.67,0,36.17-15.65,41-28.61q3.24-7.29,3.24-17.82V-101H250Z"/>
    <path d="M1474,78.23c0,34.55-1.08,62.63,0,84.76H1392V125.74h7.55c-10.25,16.2-35.09,43.19-82.6,43.19-54,0-92.86-33.47-92.86-115V-101h82.06V41c0,38.34,12.42,61.55,41.57,61.55,22.68,0,36.18-15.65,41-28.61q3.24-7.29,3.24-17.82V-101H1474Z"/>
    <path d="M301.53-14c0-34.55,1.08-62.63,0-84.76H383.6v37.25H376c10.26-16.2,35.09-43.19,82.6-43.19,54,0,92.86,33.47,92.86,115v155H469.44v-142c0-38.33-12.42-61.55-41.57-61.55-22.68,0-36.17,15.66-41,28.62Q383.6-2.39,383.6,8.13V165.24H301.53Z"/>
    <path d="M770.47-12.73c0-32.94,1.08-60.47,0-84.23h78.61v35.64h-6.26c11.34-17.28,35.09-42.11,79.9-42.11,34.56,0,61,17.81,72.35,45.35h1.08c10.26-14,21.59-24.84,34.55-32.4a100.64,100.64,0,0,1,50.21-13c50.75,0,89.08,35.63,89.08,115V167.05h-79.9V23.44c0-38.33-12.42-60.47-38.87-60.47-19.44,0-31.09,13-37,28.62a86.32,86.32,0,0,0-2.7,21.05V167.05H927.68V18.58c0-32.93-10.58-55.61-37-55.61-21.06,0-33.48,16.2-38.34,29.16-2.69,6.48-3.23,14-3.23,21.05V167.05H770.47Z"/>
    <path d="M1620.56-174v71.26h58.85V-42.3h-58.85V53.26c0,31.86,8.1,46.43,32.39,46.43,11.34,0,18.9-.54,26.46-2.16v63.7c-10.26,3.78-31.86,5.41-54.53,5.41-26.46,0-48.59-9.18-62.09-22.68-15.12-15.65-22.68-41-22.68-78.28v-108H1505v-60.47h35.09V-151.9Z"/>
    <path d="M1790.14,55.81c2.16,34,36.17,50.21,74.51,50.21,28.07,0,50.75-3.78,72.88-11.34l10.8,55.61c-27,11.33-59.93,16.73-95.56,16.73-89.62,0-140.91-51.83-140.91-134.43,0-66.95,41.57-140.91,133.35-140.91,85.3,0,117.7,66.4,117.7,131.73a195,195,0,0,1-2.7,32.4ZM1886.78-.34c0-20-8.64-53.45-46.43-53.45-34.55,0-48.59,31.85-50.75,53.45Z"/>
    <path d="M575.51,231.21,691.05-160.21h54.52L630,231.21Z"/>
  </g>
  <g class="unmute-header-date" id="unmute-header-date">
    <path d="M1.37,1072.91v-9.2l8.4-7.6c14.2-12.7,21.1-20,21.3-27.6,0-5.3-3.2-9.5-10.7-9.5-5.6,0-10.5,2.8-13.9,5.4l-4.3-10.9a36,36,0,0,1,21.3-6.7c14.7,0,22.8,8.6,22.8,20.4,0,10.9-7.9,19.6-17.3,28l-6,5v.2h24.5v12.5Z"/>
    <path d="M105.87,1040.11c0,20.1-8.1,33.9-24.7,33.9-16.8,0-24.2-15.1-24.3-33.5,0-18.8,8-33.7,24.8-33.7C99.07,1006.81,105.87,1022.31,105.87,1040.11Zm-33.7.4c-.1,14.9,3.5,22,9.4,22s9.1-7.4,9.1-22.2c0-14.4-3.1-22-9.2-22C75.87,1018.31,72.07,1025.41,72.17,1040.51Z"/>
    <path d="M114.37,1072.91v-9.2l8.4-7.6c14.2-12.7,21.1-20,21.3-27.6,0-5.3-3.2-9.5-10.7-9.5-5.6,0-10.5,2.8-13.9,5.4l-4.3-10.9a36,36,0,0,1,21.3-6.7c14.7,0,22.8,8.6,22.8,20.4,0,10.9-7.9,19.6-17.3,28l-6,5v.2h24.5v12.5Z"/>
    <path d="M218.87,1040.11c0,20.1-8.1,33.9-24.7,33.9-16.8,0-24.2-15.1-24.3-33.5,0-18.8,8-33.7,24.8-33.7C212.07,1006.81,218.87,1022.31,218.87,1040.11Zm-33.7.4c-.1,14.9,3.5,22,9.4,22s9.1-7.4,9.1-22.2c0-14.4-3.1-22-9.2-22C188.87,1018.31,185.07,1025.41,185.17,1040.51Z"/>
    <path d="M270.17,1042.81v9.4h-44v-9.4Z"/>
    <path d="M278.37,1072.91v-9.2l8.4-7.6c14.2-12.7,21.1-20,21.3-27.6,0-5.3-3.2-9.5-10.7-9.5-5.6,0-10.5,2.8-13.9,5.4l-4.3-10.9a36,36,0,0,1,21.3-6.7c14.7,0,22.8,8.6,22.8,20.4,0,10.9-7.9,19.6-17.3,28l-6,5v.2h24.5v12.5Z"/>
    <path d="M382.87,1040.11c0,20.1-8.1,33.9-24.7,33.9-16.8,0-24.2-15.1-24.3-33.5,0-18.8,8-33.7,24.8-33.7C376.07,1006.81,382.87,1022.31,382.87,1040.11Zm-33.7.4c-.1,14.9,3.5,22,9.4,22s9.1-7.4,9.1-22.2c0-14.4-3.1-22-9.2-22C352.87,1018.31,349.07,1025.41,349.17,1040.51Z"/>
    <path d="M391.37,1072.91v-9.2l8.4-7.6c14.2-12.7,21.1-20,21.3-27.6,0-5.3-3.2-9.5-10.7-9.5-5.6,0-10.5,2.8-13.9,5.4l-4.3-10.9a36,36,0,0,1,21.3-6.7c14.7,0,22.8,8.6,22.8,20.4,0,10.9-7.9,19.6-17.3,28l-6,5v.2h24.5v12.5Z"/>
    <path d="M447.87,1072.91v-9.2l8.4-7.6c14.2-12.7,21.1-20,21.3-27.6,0-5.3-3.2-9.5-10.7-9.5-5.6,0-10.5,2.8-13.9,5.4l-4.3-10.9a36,36,0,0,1,21.3-6.7c14.7,0,22.8,8.6,22.8,20.4,0,10.9-7.9,19.6-17.3,28l-6,5v.2H494v12.5Z"/>
  </g>
</svg>
