<svg id="Layer_1" data-name="Layer 1" xmlns="http://www.w3.org/2000/svg" viewBox="0 0 150.02 467.02"><defs><style>.cls-1{fill:#fff;}</style></defs><rect class="cls-1" width="150.02" height="467.02"/><path d="M73,87.23V92.4h-.92c-5.17,0-10.34,0-15.52,0-.72,0-1.4.39-2.21.12V90.76c0-.58,0-1.17,0-1.75s-.23-1.22.21-1.78h1.53a12.1,12.1,0,0,0-.88-.88,3.46,3.46,0,0,1-1-1.6,8.35,8.35,0,0,1,0-3.17,5.63,5.63,0,0,1,1-2.26,2.45,2.45,0,0,1,1.06-.77c.13-.08.21-.2.34-.28a5,5,0,0,1-2.18-2.21,4.05,4.05,0,0,1-.4-1.58c0-.43,0-.86,0-1.3a4.47,4.47,0,0,1,.81-2.52A3.94,3.94,0,0,1,57,69.12a2.87,2.87,0,0,1,.93-.21q7.4,0,14.78,0L73,69V74l-.27.27a3.53,3.53,0,0,0-.82-.22c-3.7,0-7.39,0-11.09,0-.43,0-.77.28-1.22.21a6.74,6.74,0,0,0-1.27,0,2.72,2.72,0,0,0-1,.79v1.49A2.46,2.46,0,0,0,59.84,78H73s.05,0,.06.07a.11.11,0,0,1,0,.08v5.21H59.38A3.92,3.92,0,0,0,58,83.7a.94.94,0,0,0-.59.87,5.93,5.93,0,0,0,0,1A2.84,2.84,0,0,0,58.69,87a44,44,0,0,0,7.16.23C68.22,87.25,70.59,87.23,73,87.23Z"/><path d="M71.36,255.52c.19.13.33.12.46.23a4.69,4.69,0,0,1,1.62,3.68,7.69,7.69,0,0,1-.38,2.34,3.69,3.69,0,0,1-2.37,2.36,5.92,5.92,0,0,1-2.16.37c-4.41,0-8.81,0-13.21,0H54.4v-5.36H68.14a2.65,2.65,0,0,0,1.34-.34,1.11,1.11,0,0,0,.61-1c0-.33,0-.67,0-.87a2.63,2.63,0,0,0-1.69-1.53h-14v-5.29a1.7,1.7,0,0,1,.78-.06H70.7a3.74,3.74,0,0,0,1.69-.17,1.69,1.69,0,0,1,.64,0v5.35A3.43,3.43,0,0,0,71.36,255.52Z"/><path d="M73.05,386.47v5.1l-.29.29H71.44c-.11.27.06.26.21.37a4.49,4.49,0,0,1,1.59,2.28,8.07,8.07,0,0,1-.18,3.84A3.72,3.72,0,0,1,71.87,400a5.07,5.07,0,0,0-.58.55,1.29,1.29,0,0,0-.52.13,3.9,3.9,0,0,1-1.68.42H54.41v-5.36H68.05a3.71,3.71,0,0,0,1.43-.35,1,1,0,0,0,.6-.87,4.45,4.45,0,0,0,0-.95c-.29-.88-.93-1.19-1.7-1.55H54.65l-.25-.24v-5.1H70.93c.31,0,.66.14.94-.17s.27.34.52,0C72.48,386.42,72.79,386.49,73.05,386.47Z"/><path d="M73,310.51v5.36h-.92c-4.83,0-9.67,0-14.5,0a9.08,9.08,0,0,0-3.19.22v-5.41a3.21,3.21,0,0,0,1.62-.26,4.09,4.09,0,0,1-1.87-2.56,10.91,10.91,0,0,1-.16-2.61,6.65,6.65,0,0,1,.77-2.08,4.34,4.34,0,0,1,1.5-1.27,3.82,3.82,0,0,1,1.57-.46H72.92s0,0,.11,0v5.07l-.29.28a1.3,1.3,0,0,0-.89-.22c-3.88,0-7.76,0-11.64,0-.41,0-.74.3-1.12.2s-.68.22-1,.19l-.72.76v1.35a2.44,2.44,0,0,0,2.48,1.41Z"/><path d="M54.65,225.66l-.25-.25v-5.1h9.69c.87,0,1.73,0,2.59,0s1.59-.37,2.24-.21a2.35,2.35,0,0,0,1.16-.79V218l-.49-.93-1-.5a50,50,0,0,0-7-.17c-2.37,0-4.74,0-7.11,0l-.06-.06a.16.16,0,0,1,0-.08v-5c.15-.1.2-.28.39-.26s.25,0,.37,0H73v5.08a2.78,2.78,0,0,1-1.72.27c.43.43.74.77,1.09,1.08a3.52,3.52,0,0,1,1,2.43,9.21,9.21,0,0,1,0,1.39,4.57,4.57,0,0,1-2.26,3.76,16.9,16.9,0,0,1-1.77.42c-4.62,0-9.24,0-13.86,0C55.24,225.49,54.92,225.38,54.65,225.66Z"/><path d="M73.05,96.15v5c-.52.48-1.19.22-1.81.33A6.49,6.49,0,0,1,73,103.38a3.2,3.2,0,0,1,.41,1.49,10.21,10.21,0,0,1,0,1.66,4.63,4.63,0,0,1-1.15,2.67,4,4,0,0,1-2,1.23,6.14,6.14,0,0,1-1.46.26c-4.74,0-9.48,0-14.23,0a.94.94,0,0,1-.18-.06v-5.3H65c.74,0,1.48,0,2.21,0s1.35-.33,1.92-.2c1.19-.37.91-1.28.95-2l-.45-.9s-.16,0-.21,0a2.73,2.73,0,0,0-2.1-.71c-4,0-8,0-12,0H54.4V96.28H70.47A10,10,0,0,1,73.05,96.15Z"/><path d="M63.72,141.38c-.68,0-1.35,0-2,0a5,5,0,0,1-1.42-.14A12.37,12.37,0,0,0,59,141c-.46-.08-.85-.4-1.33-.37-.74-.59-1.77-.83-2.19-1.8a4.77,4.77,0,0,1-1.18-2.28c0-.06-.07-.1-.08-.16a20.48,20.48,0,0,1-.17-4.35A6.92,6.92,0,0,1,55.12,129a6.19,6.19,0,0,1,3.57-2.42c.81-.17,1.61-.28,2.43-.4a19.38,19.38,0,0,1,2.15-.13,10.72,10.72,0,0,1,2.12,0c1,.18,2.08.11,3.08.37a11.87,11.87,0,0,1,2.15.81,4,4,0,0,1,1.48,1.3,7.16,7.16,0,0,1,1,2,13.91,13.91,0,0,1,.31,4.93,5.69,5.69,0,0,1-.9,2.94,5.26,5.26,0,0,1-2.71,2.21,12.48,12.48,0,0,1-2.53.62,17.58,17.58,0,0,1-1.77.14Zm6-9c-.34.05-.41-.33-.68-.4a10.39,10.39,0,0,0-2.91-.54,48.57,48.57,0,0,0-6,.15,8,8,0,0,0-1.6.39,1.63,1.63,0,0,0-.93.94,2,2,0,0,0,1.18,2.77,9.58,9.58,0,0,0,2.06.37c1.24,0,2.47,0,3.7,0a14.77,14.77,0,0,0,3.25-.16,10.82,10.82,0,0,0,1.4-.43c.74-.27.91-.89,1-1.6A3.05,3.05,0,0,0,69.67,132.35Z"/><path d="M59.36,328.44v4.93a4.45,4.45,0,0,1-4.46-2.47,12.13,12.13,0,0,1-.73-2.47,16.19,16.19,0,0,1-.12-4,6,6,0,0,1,1.68-4.09,5,5,0,0,1,1.91-1,4.5,4.5,0,0,1,1.5-.17H69.39A6.18,6.18,0,0,0,71,319c.5-.13,1.07.07,1.58-.2a1.21,1.21,0,0,1,.47,0v4.56l-.24.24c-.57-.09-1.12.29-1.81.33.18.15.37.29.54.46a5.2,5.2,0,0,1,1.55,3.33,5.74,5.74,0,0,1,.17,1.31,4.91,4.91,0,0,1-1.48,3.35,6,6,0,0,1-2.36,1.22,11.63,11.63,0,0,1-3.43.15,4.53,4.53,0,0,1-2.22-.87,5.68,5.68,0,0,1-2.15-3.25,20.25,20.25,0,0,1-.4-2.06A28.12,28.12,0,0,1,61,324H59.3c-.57,0-1,.34-1.62.38-1.06.63-1.07,1.54-.7,2.81C57.18,327.87,57.86,328.45,59.36,328.44Zm5.79-.05c.21.1.35,0,.5.12a2.74,2.74,0,0,0,1.44.31,3.1,3.1,0,0,0,2.81-1.24c-.05-.37.46-.78,0-1.19a2.37,2.37,0,0,0-1.22-1.69,6.12,6.12,0,0,0-2.48-.67,12.44,12.44,0,0,0-2.11,0c-.2.18-.39.33-.28.51a2.46,2.46,0,0,1,.18,1.22A3.56,3.56,0,0,0,65.15,328.39Z"/><path d="M57.22,181.72a37.1,37.1,0,0,1,6.4-.22q3.2,0,6.37,0c.47,0,.84-.28,1.31-.21a1.85,1.85,0,0,0,1.22-.16c.12-.07.3,0,.53,0,0,.83,0,1.65,0,2.47a5.77,5.77,0,0,1-.19,2.36c-.62-.15-1.1.22-1.68.2,0,.38.32.52.5.7A4.82,4.82,0,0,1,73,190c0,.23.18.36.2.57a7.27,7.27,0,0,1-.32,2.26,4,4,0,0,1-2,2.52,4.57,4.57,0,0,1-2.55.76c-.17,0-.36-.06-.5.13a.3.3,0,0,1-.25.05c-.83-.22-1.72-.11-2.52-.39a5.24,5.24,0,0,1-1.78-1,5.62,5.62,0,0,1-1.51-2.41,14.73,14.73,0,0,1-.58-2.73,15.65,15.65,0,0,1-.15-1.68v-1.71a8,8,0,0,0-3.4.35,2.07,2.07,0,0,0-.85,2.24c.38,1.5,1.4,1.76,2.56,1.83v4.89c-.44.28-.83-.13-1.26-.11a2.59,2.59,0,0,1-1.24-.36A3.67,3.67,0,0,1,55,193.3a9.06,9.06,0,0,1-.79-2.54,18.33,18.33,0,0,1-.13-3.62,9.06,9.06,0,0,1,.39-2.42,5.43,5.43,0,0,1,.9-1.65A3.75,3.75,0,0,1,57,181.86.7.7,0,0,0,57.22,181.72ZM64,186.83c-.06.22-.31.33-.19.53.23.39.1.82.19,1.22a3.69,3.69,0,0,0,1.07,2,2.52,2.52,0,0,0,1.14.37,4.26,4.26,0,0,0,2,0,2.93,2.93,0,0,0,1.65-1.12c-.11-.27.12-.44.19-.66s-.19-.41-.2-.66c0-.76-.57-1.16-1.17-1.54a6.63,6.63,0,0,0-2.66-.71,13.76,13.76,0,0,0-2.13,0s-.08.06-.13.1C63.74,186.6,64,186.66,64,186.83Z"/><path d="M73,404v4.56c-.55.32-1.26.14-1.81.52a7.09,7.09,0,0,1,1.27,1.77A4.2,4.2,0,0,1,73,413c0,.27.21.4.22.66a7.58,7.58,0,0,1-.29,2,5.59,5.59,0,0,1-1,1.71,2.34,2.34,0,0,1-.9.72,7,7,0,0,1-3.39.95c-.43,0-.86,0-1.29,0a7.51,7.51,0,0,1-1.13-.22,3,3,0,0,1-1.6-.76A4.36,4.36,0,0,1,62,415.62a2.77,2.77,0,0,1-.52-1.43c-.14-.51-.15-1.07-.25-1.58a27,27,0,0,1-.17-3.4c-1.3.06-2.64-.24-3.88.74a2.59,2.59,0,0,0,.29,3.1l.81.42c.34,0,.78-.08,1.12.34v4.66a8,8,0,0,1-1.88-.17,13.66,13.66,0,0,1-1.52-.79c-.25-.11-.38-.43-.55-.68a5.34,5.34,0,0,1-1-2.43,14.91,14.91,0,0,1-.32-4.93,7.61,7.61,0,0,1,.51-2.27,4,4,0,0,1,.58-1A3.89,3.89,0,0,1,56.5,405a4.89,4.89,0,0,1,2.09-.55c3.35,0,6.71,0,10.06,0a27.65,27.65,0,0,1,2.88-.17C72,403.93,72.51,404.08,73,404Zm-9.15,5.18c-.21.6.15,1.1.1,1.62a6.78,6.78,0,0,0,.41,1.78c0,.24.3.47.5.67a2.94,2.94,0,0,0,1.63.71,1.67,1.67,0,0,0,1.48-.15c.4.12.72-.22,1.11-.21l.84-.84c-.19-.3,0-.57.09-.82a3,3,0,0,0-1.37-2.21,1,1,0,0,1-.77-.26A15.45,15.45,0,0,0,63.88,409.21Z"/><path d="M67.05,383.71l-.25-.25v-4.88c.65-.09,1.27-.23,1.9-.37a1.77,1.77,0,0,0,1.4-1.15v-1.29a3.76,3.76,0,0,0-1-1.28,5.37,5.37,0,0,0-1.21,0,2,2,0,0,0-.92.45,7.2,7.2,0,0,0-1.68,2.45c-.74,1.46-1.52,2.9-2.4,4.28a4.27,4.27,0,0,1-2.48,1.84,6.12,6.12,0,0,1-1.36.06A4.22,4.22,0,0,1,55.55,382a6.53,6.53,0,0,1-1.37-2.76,19.7,19.7,0,0,1-.17-3.06,9.68,9.68,0,0,1,.39-3A2.85,2.85,0,0,1,55,372a5.15,5.15,0,0,1,1.8-1.61,4.71,4.71,0,0,1,1.32-.36,10.5,10.5,0,0,1,1.49,0c0,.82,0,1.59,0,2.35,0,.44-.14.91.17,1.32,0,.06,0,.22,0,.26-.32.29-.09.7-.22,1H58.13a2.63,2.63,0,0,0-1.13.83c.07.34-.21.59-.24.93s.35.59.21.94l.82.81h1.1a2.85,2.85,0,0,0,1.16-1.07c.4-.61.74-1.24,1.09-1.86a37.54,37.54,0,0,1,2.32-3.93,5.21,5.21,0,0,1,2.61-2.09,3.67,3.67,0,0,1,2.61-.12c.27.12.57,0,.87.12a4.45,4.45,0,0,1,2.6,2.2,11.1,11.1,0,0,1,.91,2.49,18,18,0,0,1,.19,3.52,10.72,10.72,0,0,1-.22,2.05,2.29,2.29,0,0,1-.44,1.1c-.28.37-.48.8-.78,1.15a4.66,4.66,0,0,1-2,1.27,1.77,1.77,0,0,1-.94.19c-.29,0-.53.24-.85.19A6.81,6.81,0,0,0,67.05,383.71Z"/><path d="M61,267.13v5.05a4.66,4.66,0,0,1-1.85.26L58,273a2.39,2.39,0,0,0-.39,2.74,3,3,0,0,0,2,1c.63.1,1.27,0,1.86.18a12.57,12.57,0,0,0,3.35.13c.83,0,1.66-.22,2.51-.16.33-.39.9,0,1.23-.37.8,0,1.17-.58,1.55-1.19V274a2.55,2.55,0,0,0-1.81-1.48c-.07,0-.12-.12-.23-.1-.66.1-1.28-.32-2-.17v-5.16a10.45,10.45,0,0,1,2,.1,18.28,18.28,0,0,1,1.83.51,5.52,5.52,0,0,1,2.44,2.06,13,13,0,0,1,.86,2,.39.39,0,0,1,.06.17c0,.81.28,1.59.19,2.41-.05.52,0,1.05,0,1.57a8.51,8.51,0,0,1-.62,2.79,4.56,4.56,0,0,1-2,2.28,10.72,10.72,0,0,1-3.51,1.14,27.94,27.94,0,0,1-3.16.14c-1.08,0-2.16,0-3.24,0a12.5,12.5,0,0,1-2.49-.44,6.77,6.77,0,0,1-2.13-1.07,5.31,5.31,0,0,1-1.92-2.89,7.32,7.32,0,0,1-.39-2.24,15.32,15.32,0,0,0,0-1.66,8.08,8.08,0,0,1,.29-2,7,7,0,0,1,.65-1.75,5.67,5.67,0,0,1,3.66-2.86A4.55,4.55,0,0,1,61,267.13Z"/><path d="M54.35,142.88H57.5v3.29H73v5.17H57.55v2.57H54.4v-2.54H50.15a2,2,0,0,1-.95-.17c-.24-.13-.54,0-.85-.18a2.93,2.93,0,0,1-1.9-1.87,8.43,8.43,0,0,1-.39-2.06,2.76,2.76,0,0,0-.17-1.5.5.5,0,0,1,0-.36,8.12,8.12,0,0,0,.2-2.3s.06-.06.08-.06H49.9a3.3,3.3,0,0,0,0,1.68,2.61,2.61,0,0,0,.82,1.42,14.09,14.09,0,0,0,3.62.24Z"/><path d="M57.68,360.59H68.87a2,2,0,0,0,.84-.65c-.08-.44.29-.85.21-1.35s-.35-.83-.13-1.3h3l.27.27c-.14,1.28.3,2.58.18,3.91a6.6,6.6,0,0,1-.66,2.5,3.23,3.23,0,0,1-2.19,1.6c-.31.06-.58.3-.94.22a4.7,4.7,0,0,0-.92,0H57.72v2.37H54.41V365.8H51.32c-.74-1.72-1.58-3.37-2.26-5.15a24.59,24.59,0,0,1,2.58,0h2.74V357.3h3.3Z"/><path d="M54.38,239V236.6H51.31l-2.25-5.15c.84-.1,1.71,0,2.58,0s1.78,0,2.74,0v-3.31h3.3v3.2c.24.2.5.11.73.11h9.7a1.88,1.88,0,0,0,1.6-.64c-.07-.46.28-.87.21-1.37s-.36-.83-.13-1.3h3a1.68,1.68,0,0,1,.26,1c-.1.6.27,1.15.19,1.77s0,1.17,0,1.75A4.14,4.14,0,0,1,72,235.52a4,4,0,0,1-1.75.89,6.07,6.07,0,0,1-1.69.17H57.72V239Z"/><path d="M46.46,246.34v-5.11H73v5.11Z"/><path d="M46.47,172.64H73v5.07c-.79.13-23.31.19-26.55.06Z"/><path d="M54.4,354.29v-4.51l.27-.27a3.39,3.39,0,0,0,1.75-.27c-2-1-2.42-2.69-2.42-4.69h4.64a7.49,7.49,0,0,0,0,1.16,3.6,3.6,0,0,0,1,2.35,3,3,0,0,0,1,.56,11.72,11.72,0,0,1,1.16.32,2.35,2.35,0,0,0,.92,0H73v5.33Z"/><path d="M73,207.36H54.42v-4.53a1.53,1.53,0,0,1,1-.27,8,8,0,0,0,1,0c.08-.2.09-.29-.11-.38a3.81,3.81,0,0,1-2.07-2.67,8,8,0,0,1-.17-1.9h4.63c0,.49,0,1,0,1.46s.36.85.37,1.29l1.26,1.26s.07,0,.14,0a5.1,5.1,0,0,0,2.53.36H73Z"/><path d="M73,117.54v5.11c-.9.08-17.57.09-18.63,0v-4.58c.75.17,1.43-.25,2.19-.21-2.09-1-2.67-2.77-2.58-4.92h4.37l.26.26a5.1,5.1,0,0,0,.36,2.58,3.67,3.67,0,0,0,2,1.54,33.11,33.11,0,0,0,6,.2C69,117.57,71,117.54,73,117.54Z"/><path d="M54.42,337H73V342c-.78.14-15.29.19-18.6.06Z"/><path d="M45.14,63.06V61.29l.66-1a4.07,4.07,0,0,0,.52-.22,2.78,2.78,0,0,1,1.41-.37h6.8a7.37,7.37,0,0,1,0,1.33c0,.46,0,.92,0,1.41H47.29l-.48.51v.71a1.8,1.8,0,0,0,1.56.66h6.18v2.58H46.09c-.23,0-.51-.12-.7.32a8.65,8.65,0,0,1-.06-1.48c0-.46,0-.92,0-1.35.24-.18.51,0,.73-.16C45.77,63.85,45.33,63.61,45.14,63.06Z"/><path d="M45.36,58.73V56.24l.19-.19,6-1.27-6.2-1.57V50.69c.4-.21.71.08,1,.17,1,.3,2,.65,3,.89.61.14,1.17.43,1.8.56a16.23,16.23,0,0,1,1.79.58,8.91,8.91,0,0,1,1.47.46,7.2,7.2,0,0,0,1.48.42c.66.19,1.31.4,1.92.59v2.75c-.94-.29-1.84-.53-2.72-.84a1.16,1.16,0,0,0-.87-.06,27.3,27.3,0,0,1-3.27,1c-1,.3-2,.6-3.08.85a10.68,10.68,0,0,0-2,.63A.87.87,0,0,1,45.36,58.73Z"/><path d="M46.81,46.65a1.76,1.76,0,0,0,1.39.65c1.11,0,2.22,0,3.32,0,.36,0,.57-.38.87-.2l.7-.64a1.49,1.49,0,0,0-.63-1.19c-.48-.07-.88-.31-1.37-.18V42.56a2.87,2.87,0,0,1,2.44.53,2.63,2.63,0,0,1,1.07,1.75,8.64,8.64,0,0,1,.15,2,5.2,5.2,0,0,1-.34,1.33,2.48,2.48,0,0,1-1.73,1.57c-.35.13-.76.12-1.11.22a7.35,7.35,0,0,1-2.51.13,5.35,5.35,0,0,1-2.5-.65A2.83,2.83,0,0,1,45.15,47c0-.43,0-.86,0-1.29a3.26,3.26,0,0,1,1.66-3,5.53,5.53,0,0,1,.65-.22,3.28,3.28,0,0,1,1.18,0v2.59a2.4,2.4,0,0,0-1.6.42A1.63,1.63,0,0,0,46.81,46.65Z"/><path d="M50.85,336.67v5.42H46.48V337h3.75A.58.58,0,0,0,50.85,336.67Z"/><path d="M92.26,291.87c.06.3-.12.36-.22.5h-31v-.5Z"/><path d="M92.26,56.57c0,.31-.13.36-.23.5H61.1c-.16-.12,0-.31-.1-.5Z"/><path d="M30,428.63v-.53H61c.09.09.28.17.27.39,0,0-.07.13-.11.13a3.49,3.49,0,0,1-.46,0H30Z"/><path d="M30,163.13v-.3H59.67c.35,0,.72.08,1-.2.2.1.35.2.38.4s-.19.23-.3.41c-.31-.3-.7-.23-1.09-.23H30.45C30.31,163.19,30.14,163.26,30,163.13Z"/></svg>