<svg id="Layer_1" data-name="Layer 1" xmlns="http://www.w3.org/2000/svg" viewBox="0 0 393.04 150.02"><defs><style>.cls-1{fill:#fff;}</style></defs><rect class="cls-1" width="393.04" height="150.02"/><path d="M103.67,81.49a7.3,7.3,0,0,0,5.26-1.84A7.48,7.48,0,0,0,111,74.72h-2.19c-.22,2.58-1.79,4.83-5.1,4.83-3.66,0-6-2.89-6-7.18,0-4.13,2.16-7.24,6-7.24,2.78,0,4.52,1.49,4.94,3.68h2.15c-.46-3.24-2.94-5.6-7-5.6-5.22,0-8.31,4-8.31,9.16,0,5.32,3.23,9.12,8.21,9.12Zm11.48-17.88h-2V81.15h2v-7.8a3.35,3.35,0,0,1,3.48-3.51c1.79,0,2.87.93,2.87,2.57v8.74h2V72.24c0-2.62-1.62-4.07-4.27-4.07a4.74,4.74,0,0,0-4,2h0V63.61ZM136,81.27a2.94,2.94,0,0,0,1.08-.19V79.63H137c-1.11.24-1.35-.32-1.35-1.35v-6c0-3-2-4-4.69-4-3.36,0-5,1.84-5,4.29h1.91c.07-1.91,1.1-2.79,3.16-2.79,1.82,0,2.85.81,2.85,2.23s-1.25,1.54-3,1.81c-3.17.49-5.52,1.11-5.52,4.1,0,2.41,1.89,3.53,4.29,3.53a5.1,5.1,0,0,0,4.22-2h0A1.94,1.94,0,0,0,136,81.27Zm-6-1.4c-1.3,0-2.62-.37-2.62-2.06,0-1.86,1.59-2.21,3.58-2.57a9.23,9.23,0,0,0,2.9-.94v2.16A3.58,3.58,0,0,1,130,79.87Zm8.52,1.28h2V63.61h-2V81.15Zm14.66,0V68.46h-2v7.81a3.28,3.28,0,0,1-3.31,3.53c-1.79,0-2.85-1-2.85-2.6V68.46h-2v8.79a3.92,3.92,0,0,0,4.27,4.19,4.42,4.42,0,0,0,3.83-2h.05v1.74Zm2.58,4.07h2V79.65h0a4.6,4.6,0,0,0,4,1.87c3.43,0,5.52-2.6,5.52-6.68s-2.24-6.67-5.45-6.67a4.73,4.73,0,0,0-4.07,2.09h0v-1.8h-2V85.22Zm5.89-5.37c-2.92,0-4-2.23-4-5s1.28-5,4-5c2.41,0,3.61,2.16,3.61,5s-1.2,5-3.63,5Zm13.08,1.64a5.15,5.15,0,0,0,5.44-4.27h-1.94a3.27,3.27,0,0,1-3.5,2.6c-2.56,0-3.95-2-4.1-4.54h9.81c0-4.19-2-7.13-5.84-7.13-3.6,0-6,3-6,6.67s2.26,6.67,6.14,6.67Zm-.13-11.77c2.29,0,3.59,1.54,3.71,4.07h-7.63c.29-2.31,1.57-4.07,3.92-4.07Zm13.18,11.77c3.16,0,5.15-1.76,5.42-4.81h-2a3.18,3.18,0,0,1-3.46,3.14c-2.7,0-4.1-2.2-4.1-5s1.4-5,4.1-5a3.18,3.18,0,0,1,3.41,2.77h2a5.09,5.09,0,0,0-5.42-4.41c-3.78,0-6.14,3-6.14,6.67s2.36,6.67,6.14,6.67Zm15.62-.34h2.34L200.28,73l4.86-4.57h-2.53L197,73.89V63.61h-2V81.15h2V76.07l1.87-1.77,4.48,6.85ZM209,85.34c1.55,0,2.53-.54,3.56-3.16l5.42-13.72h-2.11l-2.89,7.9c-.4,1.06-.84,2.48-.84,2.48H212s-.46-1.42-.86-2.48l-3-7.9H206l5,12.32L210.5,82c-.49,1.23-1.06,1.55-1.89,1.55a2.89,2.89,0,0,1-1.35-.27h-.1v1.76a4.22,4.22,0,0,0,1.79.27Zm2.36-18.86H213l2-3.12h-2.45l-1.25,3.12Z"/><path d="M229.08,78.76c3.37,1.72,6.59,1.29,8.08-1.64,1.79-3.52-.6-5.68-3.33-7.84-2.1-1.65-3.59-3.06-2.69-4.83s2.69-1.81,4.81-.72c2.29,1.17,3.17,3,2.31,5.39l1.86.95c1.08-3.09.47-5.9-3.44-7.9-3.17-1.61-6.1-1.15-7.42,1.43-1.5,2.95.46,4.94,2.9,6.95s4.11,3.5,3,5.65c-1,1.94-3,2.13-5.21,1-2.95-1.5-3.86-3.7-2.78-6.48l-1.92-1c-1.43,3.23-.58,6.75,3.81,9Zm12.57,6.4c3.39,1.73,6.8.11,8.47-3.17s1-7-2.41-8.72-6.82-.12-8.49,3.16-.94,7,2.43,8.73Zm.76-1.48c-2.41-1.23-2.65-3.83-1.38-6.32s3.53-3.85,5.93-2.62,2.62,3.83,1.35,6.33-3.5,3.83-5.9,2.61Zm11.24,7.6c2.82,1.43,5.39.76,7-1.83l-1.75-.89a3.17,3.17,0,0,1-4.5,1.23C252,88.57,251.76,86,253,83.47s3.53-3.85,5.93-2.62a3.17,3.17,0,0,1,1.78,4l1.79.91a5.09,5.09,0,0,0-2.82-6.4c-3.37-1.71-6.83-.11-8.5,3.17s-.93,7,2.44,8.73Zm6.64,3,1.77.91,5.75-11.31L266,83l-5.75,11.3Zm6.85-13.44,1.77.9L270,79.55l-1.77-.91-1.11,2.19Zm1.92,18.3a5.16,5.16,0,0,0,6.79-1.33l-1.73-.88a3.27,3.27,0,0,1-4.3.72c-2.28-1.16-2.63-3.54-1.59-5.9L277,96.19c1.91-3.73,1.43-7.28-2-9-3.21-1.64-6.71-.06-8.39,3.22s-1,7,2.44,8.73Zm5.24-10.55c2,1,2.49,3,1.45,5.31L269,90.43c1.31-1.92,3.25-2.92,5.35-1.85Zm5.51,3.22,1.64.84-3.94,7.74c-.82,1.59-.07,2.72,1.37,3.45a7.44,7.44,0,0,0,1.5.57l.78-1.53-.06,0a3.6,3.6,0,0,1-1-.33c-.72-.36-1-.84-.6-1.62l3.74-7.35,2.18,1.11.74-1.44L284,92.1l1.82-3.57-1.77-.9-1.82,3.56-1.64-.83-.73,1.44ZM281.92,110c1.38.7,2.5.66,4.61-1.21L297.58,99l-1.88-1-6.16,5.73c-.83.76-1.87,1.83-1.87,1.83l0,0s.23-1.48.36-2.6l.92-8.4-1.93-1-1.17,13.22-1,.9c-1,.87-1.64.89-2.38.52a2.79,2.79,0,0,1-1.08-.86l-.09,0-.8,1.57a4.43,4.43,0,0,0,1.47,1.06Z"/><path d="M179.79,57.48c3.39,0,5.08-2,5.08-4.79V39.59h-2.2V52.54c0,2.21-1,3.12-2.8,3.12-2.06,0-3-.93-3-4v-.17h-2.19v.24c0,4.08,2,5.8,5.15,5.8Zm8-.35h2V44.45h-2V57.13Zm0-15.09h2V39.59h-2V42Zm6.51,2.41h-2V57.13h2v-7.8a3.35,3.35,0,0,1,3.48-3.51c1.79,0,2.87.93,2.87,2.58v8.73h2v-8.9c0-2.63-1.62-4.08-4.27-4.08a4.72,4.72,0,0,0-4,2h0V44.45Zm15.84,13A4.61,4.61,0,0,0,214,55.59h.05v1.54h2V39.59h-2v6.65H214a4.69,4.69,0,0,0-4-2.09c-3.14,0-5.57,2.46-5.57,6.68s2.16,6.67,5.62,6.67Zm.07-1.67c-2.43,0-3.66-2.11-3.66-5s1.23-5,3.63-5c2.63,0,4,2.06,4,5s-1.2,5-4,5Zm10.61-11.38h-2V57.13h2v-7a3.66,3.66,0,0,1,3.69-3.85,2.37,2.37,0,0,1,.88.12h.07V44.45a1.86,1.86,0,0,0-.81-.15,4.5,4.5,0,0,0-3.78,2.26h-.05V44.45Zm.32-2.09h2.26l2.28-2.6h-2.08l-1.25,1.55h0l-1.21-1.55h-2.13l2.18,2.6Zm6,14.77h2V44.45h-2V57.13Zm0-15.09h2V39.59h-2V42Zm10,15.44c3.16,0,5.15-1.77,5.42-4.81h-2a3.19,3.19,0,0,1-3.46,3.14c-2.7,0-4.1-2.21-4.1-5s1.4-5,4.1-5a3.18,3.18,0,0,1,3.41,2.77h2a5.09,5.09,0,0,0-5.42-4.41c-3.78,0-6.14,3-6.14,6.67s2.36,6.68,6.14,6.68Zm9.27-17.89h-2V57.13h2v-7.8a3.35,3.35,0,0,1,3.48-3.51c1.8,0,2.88.93,2.88,2.58v8.73h2v-8.9c0-2.63-1.62-4.08-4.27-4.08a4.74,4.74,0,0,0-4,2h0V39.59Z"/></svg>