<svg xmlns="http://www.w3.org/2000/svg" viewBox="0 0 453.09 158.79"><g id="Chalupecky"><polygon points="259.69 60.27 263.49 60.27 268 53.28 262.5 53.28 259.69 60.27"/><path d="M254.41,102.56c3.47,0,5.67-1.21,8-7.09l12.15-30.75h-4.73l-6.49,17.71c-.88,2.37-1.87,5.56-1.87,5.56h-.11s-1-3.19-1.92-5.56l-6.71-17.71h-4.84L259,92.33l-1.1,2.81c-1.1,2.75-2.37,3.46-4.24,3.46a6.24,6.24,0,0,1-3-.6h-.22v4a9.88,9.88,0,0,0,4,.6"/><polygon points="241.96 93.16 247.18 93.16 234.97 74.95 245.86 64.72 240.19 64.72 227.71 76.88 227.71 53.84 223.26 53.84 223.26 93.16 227.71 93.16 227.71 81.77 231.89 77.81 241.96 93.16"/><path d="M206.92,93.93c7.1,0,11.55-4,12.16-10.78h-4.4c-.39,4.4-3.14,7-7.76,7-6,0-9.18-5-9.18-11.22s3.13-11.28,9.18-11.28c4.29,0,7,2.37,7.65,6.22h4.51c-1-6-5.45-9.9-12.16-9.9-8.47,0-13.75,6.71-13.75,15s5.28,15,13.75,15"/><path d="M177.67,90.19c-5.72,0-8.86-4.4-9.19-10.18h22c0-9.4-4.56-16-13.09-16-8.08,0-13.47,6.71-13.47,15s5.06,15,13.75,15c6.43,0,10.89-3.47,12.21-9.57h-4.35C184.54,88.21,181.79,90.19,177.67,90.19Zm-.28-22.66c5.12,0,8,3.46,8.31,9.13H168.59C169.25,71.49,172.11,67.53,177.39,67.53Z"/><path d="M148.85,64.06a10.66,10.66,0,0,0-9.13,4.68h-.11v-4h-4.46v37.57h4.46V89.8h.11c2.36,3,5.11,4.18,9,4.18,7.7,0,12.37-5.83,12.37-15C161.05,69.56,156.05,64.06,148.85,64.06Zm-.5,26.18c-6.54,0-9-5-9-11.16s2.86-11.22,9.08-11.22c5.39,0,8.08,4.84,8.08,11.22S153.8,90.24,148.35,90.24Z"/><path d="M129.36,93.16V64.72h-4.45V82.21c0,4.51-2.92,7.92-7.43,7.92-4,0-6.38-2.14-6.38-5.83V64.72h-4.45V84.41c0,5.89,3.74,9.41,9.57,9.41,4.12,0,6.54-1.82,8.58-4.57h.11v3.91Z"/><rect x="96.52" y="53.84" width="4.45" height="39.32"/><path d="M93.09,89.75c-2.47.55-3-.72-3-3V73.19c0-6.76-4.46-9-10.51-9C72,64.17,68.4,68.3,68.23,73.8h4.29c.17-4.29,2.48-6.27,7.1-6.27,4.07,0,6.38,1.81,6.38,5S83.19,76,79.18,76.6c-7.1,1.1-12.38,2.48-12.38,9.19,0,5.39,4.24,7.92,9.63,7.92a11.43,11.43,0,0,0,9.46-4.51h0c.44,2.91,2,4.23,4.9,4.23A6.12,6.12,0,0,0,93.26,93V89.75Zm-7-7.1c0,3.3-2.69,7.65-8.63,7.65-2.92,0-5.89-.83-5.89-4.62,0-4.18,3.58-5,8-5.78a20.29,20.29,0,0,0,6.49-2.09Z"/><path d="M44.14,53.84H39.69V93.16h4.45V75.67A7.52,7.52,0,0,1,52,67.8c4,0,6.43,2.09,6.43,5.78V93.16h4.46v-20c0-5.88-3.63-9.13-9.57-9.13a10.67,10.67,0,0,0-9,4.4h-.11Z"/><path d="M18.42,93.93c5,0,9-1.43,11.77-4.13a16.67,16.67,0,0,0,4.73-11H30c-.5,5.77-4,10.83-11.44,10.83-8.2,0-13.53-6.49-13.53-16.11,0-9.24,4.84-16.22,13.47-16.22,6.22,0,10.12,3.35,11.06,8.24h4.84C33.38,58.24,27.83,53,18.64,53,6.93,53,0,61.92,0,73.47,0,85.4,7.26,93.93,18.42,93.93"/><path d="M418,157.84c3.09,1.58,5.6,1.5,10.33-2.7l24.79-21.87-4.22-2.15L435.05,144c-1.86,1.71-4.19,4.11-4.19,4.11l-.1-.06s.52-3.31.81-5.82l2.06-18.82-4.31-2.2-2.63,29.64-2.26,2c-2.23,1.95-3.68,2-5.34,1.17a6.16,6.16,0,0,1-2.42-1.92l-.2-.1-1.8,3.53a9.7,9.7,0,0,0,3.3,2.36"/><path d="M413.24,117l3.68,1.87-8.84,17.35c-1.83,3.58-.15,6.1,3.09,7.75a18,18,0,0,0,3.36,1.28l1.75-3.43-.15-.08a8.42,8.42,0,0,1-2.28-.73c-1.62-.82-2.25-1.89-1.35-3.65l8.39-16.46,4.9,2.49,1.64-3.23-4.9-2.5,4.07-8-4-2-4.07,8-3.68-1.87Z"/><path d="M406.88,126.88c4.27-8.37,3.2-16.33-4.4-20.2-7.2-3.67-15.05-.14-18.79,7.21s-2.29,15.63,5.46,19.57c5.73,2.92,11.27,1.86,15.22-3l-3.87-2c-2.63,3-6,3.49-9.66,1.62-5.09-2.59-5.89-7.94-3.56-13.23Zm-6-17.06c4.56,2.32,5.59,6.73,3.26,11.9L388.9,114C391.83,109.65,396.18,107.42,400.88,109.82Z"/><rect x="385.32" y="88.78" width="5.5" height="4.45" transform="translate(130.67 395.35) rotate(-62.98)"/><rect x="363.7" y="108.7" width="28.43" height="4.45" transform="translate(107.55 397.33) rotate(-63.01)"/><path d="M354.6,115.86c6.32,3.22,12.09,1.72,15.72-4.08l-3.92-2c-2.34,3.74-6,4.85-10.1,2.75-5.39-2.75-5.94-8.58-3.09-14.17s7.91-8.62,13.3-5.87c3.82,2,5.15,5.28,4,9l4,2c1.86-5.84-.36-11.29-6.34-14.33-7.54-3.85-15.29-.27-19,7.08s-2.09,15.73,5.46,19.57"/><path d="M341.29,75.5c-7.55-3.84-15.3-.26-19,7.09s-2.09,15.73,5.46,19.57,15.25.24,19-7.11S348.89,79.37,341.29,75.5ZM342.63,93c-2.84,5.58-7.83,8.59-13.22,5.85s-5.94-8.58-3.1-14.17,7.92-8.62,13.31-5.87S345.48,87.39,342.63,93Z"/><path d="M299.54,87.81c7.54,3.84,14.76,2.89,18.1-3.68,4-7.89-1.35-12.72-7.46-17.57-4.72-3.7-8-6.87-6-10.84,1.85-3.63,6-4,10.76-1.62,5.14,2.63,7.1,6.77,5.2,12.1l4.16,2.12c2.41-6.92,1.06-13.23-7.71-17.7-7.11-3.62-13.68-2.58-16.63,3.2-3.37,6.61,1,11.07,6.5,15.59s9.21,7.85,6.77,12.65c-2.23,4.36-6.83,4.79-11.68,2.32-6.62-3.37-8.67-8.31-6.24-14.54L291,67.65c-3.2,7.25-1.29,15.14,8.56,20.16"/><path d="M338.49,0H334V39.32h4.46V21.83A7.52,7.52,0,0,1,346.3,14c4,0,6.43,2.09,6.43,5.77V39.32h4.46v-20c0-5.89-3.63-9.13-9.57-9.13a10.63,10.63,0,0,0-9,4.4h-.11Z"/><path d="M317.7,40.09c7.09,0,11.55-4,12.15-10.78h-4.4c-.38,4.4-3.13,7-7.75,7-6.05,0-9.19-5-9.19-11.22s3.14-11.27,9.19-11.27c4.29,0,7,2.36,7.64,6.21h4.51c-1-6.05-5.44-9.9-12.15-9.9-8.47,0-13.75,6.71-13.75,15s5.28,15,13.75,15"/><rect x="295.23" width="4.45" height="5.5"/><rect x="295.23" y="10.89" width="4.45" height="28.43"/><polygon points="281.67 6.21 286.73 6.21 291.85 0.39 287.17 0.39 284.37 3.85 284.26 3.85 281.56 0.39 276.78 0.39 281.67 6.21"/><path d="M281,10.89H276.5V39.32H281V23.54c0-5.34,3.85-8.64,8.25-8.64a5.38,5.38,0,0,1,2,.28h.16V10.89a4.27,4.27,0,0,0-1.81-.33,10.08,10.08,0,0,0-8.47,5.06H281Z"/><path d="M265.91,0V14.9h-.11a10.54,10.54,0,0,0-8.91-4.67c-7,0-12.49,5.5-12.49,15,0,9.13,4.84,15,12.6,15a10.32,10.32,0,0,0,8.8-4.29h.11v3.46h4.45V0Zm-8.75,36.41c-5.44,0-8.19-4.73-8.19-11.17S251.72,14,257.11,14c5.88,0,9.07,4.62,9.07,11.22C266.18,31.68,263.49,36.41,257.16,36.41Z"/><path d="M221.5,10.89H217V39.32h4.46V21.83A7.52,7.52,0,0,1,229.31,14c4,0,6.43,2.09,6.43,5.77V39.32h4.46v-20c0-5.89-3.63-9.13-9.57-9.13a10.63,10.63,0,0,0-9,4.4h-.11Z"/><rect x="206.9" width="4.45" height="5.5"/><rect x="206.9" y="10.89" width="4.45" height="28.43"/><path d="M189.05,40.09c7.59,0,11.39-4.45,11.39-10.72V0h-4.95V29c0,5-2.31,7-6.27,7-4.62,0-6.82-2.09-6.82-9.07v-.39h-4.9v.55c0,9.13,4.46,13,11.55,13"/></g></svg>