<?xml version="1.0" encoding="utf-8"?>
<!-- Generator: Adobe Illustrator 24.2.0, SVG Export Plug-In . SVG Version: 6.00 Build 0)  -->
<svg version="1.1" id="Layer_1" xmlns="http://www.w3.org/2000/svg" xmlns:xlink="http://www.w3.org/1999/xlink" x="0px" y="0px"
	 viewBox="0 0 456.8 93.9" style="enable-background:new 0 0 456.8 93.9;" xml:space="preserve">
<g id="Czech">
	<path d="M452.4,51.3c2.4,0,4.3-1.9,4.4-4.3c0-2.4-1.8-4.4-4.2-4.4c0,0-0.1,0-0.1,0c-2.4,0-4.4,2-4.4,4.4c0,0,0,0,0,0
		C448.1,49.4,450,51.3,452.4,51.3L452.4,51.3z"/>
	<path d="M93.9,44.8V0H0v93.9h4.4V4.4h85.2v40.4H79V15H15v79h79V49.2h343.5v-4.4H93.9z M89.6,89.6H19.3V19.3h55.3v25.4H64.1V29.9
		H29.9V79H79V49.2h10.6V89.6z M44.8,44.8v19.3h19.3V49.2h10.5v25.4H34.2V34.2h25.4v10.5H44.8z M59.7,49.1v10.5H49.2V49.2L59.7,49.1z
		"/>
	<path d="M128.2,29.4c-1.4,0.6-2.8,0.8-4.3,0.8c-5.3,0-8.5-3.3-8.5-8.4c0-5.5,3.8-8.8,8.9-8.8c1.4,0,2.7,0.2,4,0.7l-0.7,2.4
		c-1-0.4-2.1-0.7-3.3-0.6c-3.4,0-5.8,2.1-5.8,6.1c0,3.6,2.2,6,5.8,6c1.1,0,2.3-0.2,3.3-0.6L128.2,29.4z"/>
	<polygon points="131.1,28.2 139.6,15.9 139.6,15.8 131.9,15.8 131.9,13.3 143.6,13.3 143.6,15 135.2,27.3 135.2,27.4 143.7,27.4 
		143.7,29.9 131.1,29.9 	"/>
	<polygon points="157,22.5 150.7,22.5 150.7,27.4 157.7,27.4 157.7,29.9 147.7,29.9 147.7,13.3 157.3,13.3 157.3,15.8 150.7,15.8 
		150.7,20 157,20 	"/>
	<path d="M173.8,29.4c-1.4,0.6-2.8,0.8-4.3,0.8c-5.3,0-8.5-3.3-8.5-8.4c0-5.5,3.8-8.8,8.9-8.8c1.4,0,2.7,0.2,4,0.7l-0.7,2.4
		c-1-0.4-2.1-0.7-3.2-0.6c-3.4,0-5.8,2.1-5.8,6.1c0,3.6,2.1,6,5.8,6c1.1,0,2.3-0.2,3.3-0.6L173.8,29.4z"/>
	<polygon points="180.9,13.3 180.9,19.9 187.9,19.9 187.9,13.3 190.9,13.3 190.9,29.9 187.9,29.9 187.9,22.6 180.9,22.6 180.9,29.9 
		177.8,29.9 177.8,13.3 	"/>
	<path d="M214.4,29.4c-1.4,0.6-2.8,0.8-4.3,0.8c-5.3,0-8.5-3.3-8.5-8.4c0-5.5,3.8-8.8,8.9-8.8c1.4,0,2.8,0.2,4.1,0.7l-0.7,2.4
		c-1-0.4-2.1-0.7-3.3-0.6c-3.4,0-5.8,2.1-5.8,6.1c0,3.6,2.1,6,5.8,6c1.1,0,2.3-0.2,3.3-0.6L214.4,29.4z"/>
	<polygon points="227.8,22.5 221.5,22.5 221.5,27.4 228.5,27.4 228.5,29.9 218.5,29.9 218.5,13.3 228.1,13.3 228.1,15.8 221.5,15.8 
		221.5,20 227.8,20 	"/>
	<path d="M232.6,29.9V13.3h3.5l4.3,7.1c1.1,1.8,2,3.7,2.8,5.6l0,0c-0.2-2.2-0.3-4.4-0.3-6.9v-5.8h2.8v16.6h-3.1l-4.3-7.3
		c-1.1-1.8-2.1-3.8-3-5.7h-0.1c0.1,2.1,0.1,4.3,0.1,7.1v5.9L232.6,29.9z"/>
	<polygon points="254,15.8 249.2,15.8 249.2,13.3 261.8,13.3 261.8,15.8 257,15.8 257,29.9 254,29.9 	"/>
	<polygon points="274.5,22.5 268.3,22.5 268.3,27.4 275.3,27.4 275.3,29.9 265.2,29.9 265.2,13.3 274.9,13.3 274.9,15.8 268.3,15.8 
		268.3,20 274.5,20 	"/>
	<path d="M289.9,25.2c-0.4-1.6-1.1-2.8-2.3-3.2v0c1.8-0.6,3-2.3,3-4.2c0-1.3-0.5-2.5-1.4-3.3c-1.1-0.9-2.7-1.3-5.1-1.3
		c-1.5,0-3.1,0.1-4.6,0.4v16.4h3v-6.9h1.6c1.7,0,2.5,0.7,3,2.9c0.3,1.3,0.6,2.6,1.1,3.9h3.1C290.7,28.4,290.2,26.8,289.9,25.2z
		 M284.2,20.8h-1.8v-5.3c0.6-0.1,1.2-0.2,1.9-0.1c2,0,3.3,0.8,3.3,2.7C287.6,19.8,286.3,20.8,284.2,20.8z"/>
	<path d="M128.2,81.3c-1.4,0.6-2.8,0.8-4.3,0.8c-5.3,0-8.5-3.3-8.5-8.4c0-5.5,3.8-8.8,8.9-8.8c1.4,0,2.7,0.2,4,0.7l-0.6,2.4
		c-1-0.4-2.1-0.7-3.3-0.6c-3.4,0-5.8,2.1-5.8,6.1c0,3.7,2.2,6,5.8,6c1.1,0,2.3-0.2,3.3-0.6L128.2,81.3z"/>
	<polygon points="122,64.2 119.5,61.2 121.7,61.2 123.1,62.9 123.2,62.9 124.6,61.2 126.7,61.2 124.2,64.2 	"/>
	<polygon points="141.5,74.4 135.3,74.4 135.3,79.3 142.3,79.3 142.3,81.8 132.2,81.8 132.2,65.1 141.9,65.1 141.9,67.6 135.3,67.6 
		135.3,71.9 141.5,71.9 	"/>
	<path d="M146.3,78.4c1.2,0.7,2.6,1,4,1.1c1.9,0,3-0.9,3-2.3s-0.8-2-3-2.8c-2.7-1-4.5-2.4-4.5-4.8c0-2.7,2.3-4.8,5.9-4.8
		c1.4,0,2.8,0.2,4,0.8l-0.7,2.4c-1-0.5-2.2-0.8-3.3-0.8c-1.9,0-2.8,1-2.8,2c0,1.3,1,1.9,3.2,2.7c2.9,1.1,4.3,2.5,4.3,4.9
		c0,2.7-2,5-6.3,5c-1.5,0-3-0.3-4.4-1L146.3,78.4z"/>
	<path d="M160.7,65.1h3v7.7h0.1c0.4-0.6,0.8-1.2,1.2-1.8l4.3-5.8h3.8l-5.7,7.1l6.1,9.6h-3.5l-4.7-7.6l-1.5,1.8v5.8h-3L160.7,65.1z"
		/>
	<polygon points="185.8,74.4 179.6,74.4 179.6,79.3 186.6,79.3 186.6,81.8 176.5,81.8 176.5,65.1 186.2,65.1 186.2,67.6 179.6,67.6 
		179.6,71.9 185.8,71.9 	"/>
	<polygon points="185.5,61.2 182.3,64.2 179.9,64.2 182.1,61.2 	"/>
	<path d="M209.2,81.3c-1.4,0.6-2.8,0.8-4.3,0.8c-5.3,0-8.5-3.3-8.5-8.4c0-5.5,3.8-8.8,8.9-8.8c1.4,0,2.8,0.2,4.1,0.7l-0.7,2.4
		c-1-0.4-2.1-0.7-3.3-0.6c-3.4,0-5.8,2.1-5.8,6.1c0,3.7,2.1,6,5.8,6c1.1,0,2.3-0.2,3.3-0.6L209.2,81.3z"/>
	<polygon points="222.6,74.4 216.3,74.4 216.3,79.3 223.3,79.3 223.3,81.8 213.3,81.8 213.3,65.1 223,65.1 223,67.6 216.3,67.6 
		216.3,71.9 222.6,71.9 	"/>
	<path d="M227.5,81.8V65.1h3.5l4.3,7.1c1.1,1.8,2,3.7,2.8,5.6l0,0c-0.2-2.2-0.3-4.4-0.3-6.9v-5.8h2.8v16.6h-3.1l-4.3-7.3
		c-1.1-1.8-2.1-3.8-3-5.7h-0.1c0.1,2.2,0.1,4.3,0.1,7.1v6L227.5,81.8z"/>
	<polygon points="248.8,67.7 244.1,67.7 244.1,65.1 256.6,65.1 256.6,67.7 251.9,67.7 251.9,81.8 248.8,81.8 	"/>
	<path d="M270.5,77.1c-0.4-1.6-1.1-2.8-2.3-3.2v-0.1c1.8-0.6,3-2.3,3-4.2c0.1-1.3-0.5-2.5-1.4-3.3c-1.1-0.9-2.8-1.3-5.1-1.3
		c-1.5,0-3.1,0.1-4.6,0.3v16.4h3v-6.8h1.5c1.7,0,2.5,0.7,3,2.9c0.3,1.3,0.6,2.7,1.1,3.9h3.1C271.3,80.2,270.8,78.7,270.5,77.1z
		 M264.9,72.7h-1.8v-5.3c0.6-0.1,1.2-0.2,1.9-0.2c2,0,3.3,0.8,3.3,2.7C268.2,71.6,266.9,72.7,264.9,72.7z"/>
	<path d="M278.6,65.1v9.7c0,3.2,1.4,4.8,3.4,4.8s3.5-1.5,3.5-4.8v-9.7h3v9.5c0,5.1-2.6,7.4-6.6,7.4c-3.9,0-6.3-2.2-6.3-7.4v-9.5
		H278.6z"/>
	<path d="M307.5,75c-0.1-2.1-0.2-4.7-0.2-7h-0.1c-0.5,2-1.3,4.3-2,6.4l-2.4,7.2h-2.4l-2.2-7.1c-0.6-2.1-1.2-4.4-1.7-6.5h0
		c-0.1,2.2-0.2,4.8-0.3,7.1l-0.4,6.7H293l1.1-16.6h4l2.2,6.7c0.6,1.9,1.1,3.9,1.5,5.8h0.2c0.4-1.8,1-3.8,1.6-5.8l2.3-6.7h4l1,16.6
		h-3L307.5,75z"/>
</g>
</svg>
