<svg id="Layer_1" data-name="Layer 1" xmlns="http://www.w3.org/2000/svg" viewBox="0 0 393.04 150.02"><defs><style>.cls-1{fill:#fff;}</style></defs><rect class="cls-1" width="393.04" height="150.02"/><path d="M43.08,43.46v63.1H46V46.39h57.23V73.54H96.14v-20h-43v53h53V76.47H337V73.54H106.18V43.46Zm13,13H93.2V73.54H86.12v-10h-23v33h33v-20h7.11v27.15H56.07Zm10,10H83.18v7.08h-10v13h13v-10H93.2v17.1H66.09Zm10,16.89V76.47h7.08v7.08H76.1Z"/><path d="M347,77.94a2.94,2.94,0,1,0-2.94-2.9,3,3,0,0,0,2.94,2.9Z"/><path d="M129.18,63.21a7,7,0,0,1-2.88.51c-3.55,0-5.7-2.24-5.7-5.63a5.61,5.61,0,0,1,6-5.9,6.5,6.5,0,0,1,2.72.49l-.45,1.63a5.45,5.45,0,0,0-2.18-.43c-2.27,0-3.91,1.42-3.91,4.11a3.66,3.66,0,0,0,3.89,4,5.67,5.67,0,0,0,2.22-.41Z"/><path d="M131.17,62.41l5.72-8.3v0h-5.21V52.37h7.86v1.19l-5.63,8.22v.07h5.71v1.69h-8.45Z"/><path d="M148.54,58.58h-4.21v3.29H149v1.67h-6.75V52.37h6.5V54h-4.46v2.89h4.21Z"/><path d="M159.82,63.21a7,7,0,0,1-2.88.51c-3.55,0-5.7-2.24-5.7-5.63a5.62,5.62,0,0,1,6-5.9,6.48,6.48,0,0,1,2.71.49l-.44,1.63a5.47,5.47,0,0,0-2.19-.43c-2.27,0-3.91,1.42-3.91,4.11a3.66,3.66,0,0,0,3.89,4,5.67,5.67,0,0,0,2.22-.41Z"/><path d="M164.6,52.37v4.47h4.72V52.37h2V63.54h-2V58.62H164.6v4.92h-2V52.37Z"/><path d="M187.12,63.21a7,7,0,0,1-2.88.51c-3.55,0-5.71-2.24-5.71-5.63a5.62,5.62,0,0,1,6-5.9,6.58,6.58,0,0,1,2.72.49l-.45,1.63a5.47,5.47,0,0,0-2.19-.43c-2.27,0-3.91,1.42-3.91,4.11a3.67,3.67,0,0,0,3.9,4,5.67,5.67,0,0,0,2.22-.41Z"/><path d="M196.1,58.58h-4.21v3.29h4.71v1.67h-6.75V52.37h6.5V54h-4.46v2.89h4.21Z"/><path d="M199.38,63.54V52.37h2.32l2.89,4.79a30.66,30.66,0,0,1,1.9,3.74h0c-.14-1.49-.19-2.93-.19-4.64V52.37h1.89V63.54h-2.1l-2.92-4.92a32.77,32.77,0,0,1-2-3.85l-.05,0c.08,1.44.1,2.91.1,4.75v4Z"/><path d="M213.72,54.08h-3.18V52.37H219v1.71h-3.21v9.46h-2Z"/><path d="M227.52,58.58h-4.21v3.29H228v1.67h-6.74V52.37h6.49V54h-4.46v2.89h4.21Z"/><path d="M230.81,52.52a19.6,19.6,0,0,1,3.08-.23,5.16,5.16,0,0,1,3.44.89,2.8,2.8,0,0,1,1,2.24,3,3,0,0,1-2,2.8v.05a2.84,2.84,0,0,1,1.56,2.15,22.54,22.54,0,0,0,.88,3.12H236.6a15.58,15.58,0,0,1-.74-2.64c-.33-1.45-.85-1.95-2-1.95h-1v4.59h-2Zm2,4.94H234c1.37,0,2.23-.73,2.23-1.84s-.86-1.79-2.18-1.79a5.74,5.74,0,0,0-1.26.1Z"/><path d="M129.18,98.05a6.94,6.94,0,0,1-2.88.52c-3.55,0-5.7-2.24-5.7-5.64a5.61,5.61,0,0,1,6-5.9,6.3,6.3,0,0,1,2.72.5l-.45,1.62a5.45,5.45,0,0,0-2.18-.43c-2.27,0-3.91,1.43-3.91,4.11a3.67,3.67,0,0,0,3.89,4,5.66,5.66,0,0,0,2.22-.42Zm-4.12-11.43-1.69-2h1.49l.94,1.14h0l.93-1.14h1.46l-1.67,2Z"/><path d="M138.16,93.43H134v3.28h4.7v1.67h-6.74V87.21h6.49v1.68H134v2.88h4.2Z"/><path d="M141.4,96.16a5.62,5.62,0,0,0,2.7.72c1.31,0,2-.62,2-1.53s-.57-1.36-2-1.86c-1.84-.66-3-1.64-3-3.24,0-1.83,1.53-3.22,3.94-3.22a6,6,0,0,1,2.69.56l-.5,1.65A4.6,4.6,0,0,0,145,88.7c-1.29,0-1.85.7-1.85,1.35,0,.86.64,1.26,2.13,1.84,1.94.73,2.89,1.7,2.89,3.31,0,1.79-1.36,3.37-4.24,3.37a6.54,6.54,0,0,1-3-.72Z"/><path d="M151,87.21h2v5.14h.05c.27-.43.53-.83.82-1.21l2.91-3.93h2.52L155.52,92l4.09,6.41h-2.39l-3.16-5.12-1,1.2v3.92h-2Z"/><path d="M167.93,93.43h-4.21v3.28h4.71v1.67h-6.75V87.21h6.5v1.68h-4.46v2.88h4.21Zm-.25-8.83-2.11,2H164l1.49-2Z"/><path d="M183.64,98.05a6.94,6.94,0,0,1-2.88.52c-3.55,0-5.71-2.24-5.71-5.64a5.62,5.62,0,0,1,6-5.9,6.38,6.38,0,0,1,2.72.5l-.45,1.62a5.47,5.47,0,0,0-2.19-.43c-2.27,0-3.91,1.43-3.91,4.11a3.67,3.67,0,0,0,3.9,4,5.66,5.66,0,0,0,2.22-.42Z"/><path d="M192.62,93.43h-4.21v3.28h4.71v1.67h-6.75V87.21h6.5v1.68h-4.46v2.88h4.21Z"/><path d="M195.9,98.38V87.21h2.32L201.11,92a31.5,31.5,0,0,1,1.9,3.75h0c-.14-1.49-.19-2.94-.19-4.64v-3.9h1.89V98.38h-2.1l-2.92-4.92a32.64,32.64,0,0,1-2-3.84h0c.08,1.44.1,2.92.1,4.76v4Z"/><path d="M210.24,88.92h-3.18V87.21h8.43v1.71h-3.21v9.46h-2Z"/><path d="M217.79,87.36a19.84,19.84,0,0,1,3.09-.23,5.14,5.14,0,0,1,3.44.9,2.8,2.8,0,0,1,1,2.23,3,3,0,0,1-2,2.8v0a2.84,2.84,0,0,1,1.56,2.16,22.72,22.72,0,0,0,.88,3.11h-2.1a14.12,14.12,0,0,1-.75-2.63c-.33-1.46-.85-2-2-2h-1v4.59h-2Zm2,4.94H221c1.37,0,2.23-.73,2.23-1.84s-.86-1.79-2.18-1.79a5.82,5.82,0,0,0-1.26.1Z"/><path d="M230.24,87.21v6.52c0,2.18.91,3.19,2.29,3.19s2.35-1,2.35-3.19V87.21h2v6.38c0,3.45-1.77,5-4.46,5s-4.26-1.45-4.26-5v-6.4Z"/><path d="M249.68,93.83c-.07-1.45-.15-3.19-.13-4.69h-.05c-.37,1.35-.85,2.86-1.33,4.27l-1.62,4.84H245l-1.49-4.77c-.43-1.43-.83-3-1.12-4.34h0c0,1.45-.11,3.23-.2,4.75l-.25,4.49H240l.74-11.17h2.69l1.46,4.49c.41,1.31.74,2.64,1,3.88h.05c.3-1.21.67-2.58,1.11-3.89l1.55-4.48h2.65l.64,11.17h-2Z"/></svg>