<svg id="Layer_1" data-name="Layer 1" xmlns="http://www.w3.org/2000/svg" viewBox="0 0 393.04 150.02"><defs><style>.cls-1{fill:#fff;}</style></defs><rect class="cls-1" width="393.04" height="150.02"/><path d="M138.24,77.34a3.85,3.85,0,0,0,.48,0c.42,0,.59.09.66.56.27,1.83.6,3.65.92,5.47,0,.14-.06.36.17.38s.18-.22.21-.35c.39-1.78.77-3.55,1.17-5.33.05-.26,0-.65.35-.7a4.68,4.68,0,0,1,1.24,0c.2,0,.09.26.14.4.49,1.63.72,3.31,1.13,5,0,.09,0,.21,0,.28s.06.43.29.39.27-.25.28-.46c0-.37.11-.74.15-1.1.15-1.34.57-2.65.6-4a.46.46,0,0,1,.46-.5.27.27,0,0,1,.09,0c.48,0,1.09-.14,1.39.1s-.08.84-.17,1.28c-.55,2.56-1.06,5.12-1.58,7.68-.08.39,0,.95-.39,1.07a4.22,4.22,0,0,1-1.51,0c-.15,0-.17-.1-.2-.25-.29-1.37-.63-2.73-.89-4.11-.06-.37-.33-.68-.25-1.08a.39.39,0,0,0-.3-.44c-.17,0-.25.27-.27.42-.12.91-.41,1.78-.61,2.67-.16.7-.28,1.41-.42,2.12-.1.48-.3.82-.88.68a1.21,1.21,0,0,0-.38,0c-.55.08-.8-.07-.89-.69-.29-2.06-.91-4.06-1.22-6.12-.15-1-.4-1.93-.61-2.89-.07-.35-.2-.57.32-.49A2.55,2.55,0,0,0,138.24,77.34Z"/><path d="M120,79.07c0,2.62,0,5.24,0,7.86,0,.23.13.61-.2.65a2.52,2.52,0,0,1-1.49-.08c-.08,0-.07-.29-.07-.45,0-3.9,0-7.79,0-11.69,0-.43.14-.57.55-.52a2.71,2.71,0,0,0,.57,0c.52-.09.78.13,1,.6,1.26,2.53,2.56,5,3.84,7.55.16.31.35.6.53.9,0,.08,0,.22.1.24s.13-.13.13-.21a2.25,2.25,0,0,0,0-.44q0-3.93,0-7.86c0-.27-.17-.7.15-.77a2.94,2.94,0,0,1,1.5,0c.16.05.1.29.1.44,0,3.93,0,7.86,0,11.79,0,.45-.2.48-.57.52a1.59,1.59,0,0,1-1.84-1c-1.24-2.67-2.73-5.21-4-7.89,0-.21-.11-.44-.25-.43s-.08.29-.11.45A1.53,1.53,0,0,0,120,79.07Z"/><path d="M206.75,61.88c0,.9,0,1.79,0,2.69a2.62,2.62,0,0,0,4,2.22,1.38,1.38,0,0,0,.81-1.37,2.8,2.8,0,0,1,0-.29c0-.63.19-1.42-.11-1.86s-1.14-.14-1.73-.13-.49-.32-.5-.67-.05-.69.51-.67c1.06,0,2.11,0,3.17,0,.32,0,.47.11.46.44v4a.91.91,0,0,1-.28.58c-1.41,1.93-4.91,2.24-6.79.71A3.71,3.71,0,0,1,205,65a31.48,31.48,0,0,1,0-6.51,3.53,3.53,0,0,1,3.37-3,9.26,9.26,0,0,1,2.11.05,3.42,3.42,0,0,1,2.73,3c.08.35,0,.58-.46.59-1.05,0-1.05.06-1.43-1a2.21,2.21,0,0,0-1.87-1.33,2.44,2.44,0,0,0-2.75,2.64C206.73,60.22,206.75,61.05,206.75,61.88Z"/><path d="M338.57,65c0-2,0-4.1,0-6.14,0-.6.17-.83.75-.74a2.81,2.81,0,0,0,.58,0c.35,0,.52.07.51.47q0,4.6,0,9.21c0,.37-.09.55-.48.51h-.09c-1.38.06-1.56-.12-2.35-1.7s-1.62-3-2.43-4.5c-.08-.14-.17-.32-.34-.26s-.09.27-.09.41c0,1.76,0,3.52,0,5.28,0,.54-.06.81-.71.78-1.12,0-1.12,0-1.12-1.12,0-2.78,0-5.57,0-8.35,0-.6.16-.72.74-.76a1.46,1.46,0,0,1,1.6,1c.93,1.86,2,3.66,3,5.47.11.18.19.42.45.46,0,0-.09.11,0,.12Z"/><path d="M230.48,64.62c0-1.92,0-3.84,0-5.76,0-.64.2-.86.81-.77a1.61,1.61,0,0,0,.38,0c.51-.08.64.14.63.64,0,2.43,0,4.86,0,7.29,0,.58,0,1.16,0,1.73,0,.39-.07.61-.52.56a4,4,0,0,0-.77,0c-.56,0-.81-.25-1.06-.73-1-1.93-2.07-3.82-3.12-5.72,0-.11-.06-.29-.23-.22s-.08.22-.08.34c0,1.85,0,3.71,0,5.56,0,.26.19.67-.19.75a2.56,2.56,0,0,1-1.5,0c-.16-.06-.09-.29-.09-.44q0-4.61,0-9.21c0-.36.09-.5.48-.51.78,0,1.37,0,1.81.91.93,2,2.08,3.8,3.15,5.7.13.27.28.3.28.3S230.46,64.89,230.48,64.62Z"/><path d="M143.69,64.64c0-1.85,0-3.7,0-5.56,0-1.08-.27-.95,1.13-1,.49,0,.73.11.63.63v.09c0,2.94,0,5.88,0,8.83,0,.52-.14.66-.68.7a1.48,1.48,0,0,1-1.7-1c-.93-1.92-2-3.75-3.06-5.62-.05-.11-.15-.27-.22-.27-.25,0-.12.25-.12.37,0,1.88,0,3.77,0,5.65,0,.92.09.84-.81.83-1.12,0-1,.12-1-1,0-2.81,0-5.62,0-8.43,0-.93-.07-.79.81-.86a1.3,1.3,0,0,1,1.41.8c1,1.95,2.14,3.86,3.22,5.78.21.26.23.36.31.32Z"/><path d="M298,62c0-1.88,0-3.77,0-5.66,0-.56.08-.79.72-.77,1.95,0,3.9,0,5.86,0,.52,0,.71.13.72.69s-.19.76-.77.74c-1.37,0-2.75,0-4.13,0-.45,0-.7.06-.67.62a27.67,27.67,0,0,1,0,2.88c0,.55.22.62.67.61,1.19,0,2.37,0,3.55,0,.58,0,.61.25.61.68s0,.72-.59.7c-1.18-.06-2.37,0-3.55,0-.51,0-.66.17-.65.66q0,1.68,0,3.36c0,.46.14.61.6.6,1.44,0,2.88,0,4.32,0,.63,0,.64.28.64.75s0,.71-.6.7c-2.05,0-4.1,0-6.14,0-.49,0-.59-.17-.59-.61C298,65.86,298,63.91,298,62Z"/><path d="M118.26,61.9a15.34,15.34,0,0,1,.17-3.58,3.53,3.53,0,0,1,3.59-2.9c1.16.07,2.27,0,3.18.95a4.47,4.47,0,0,1,1,2.68c0,.1,0,.26,0,.28a2.83,2.83,0,0,1-1.5.09c-.35,0-.36-.34-.36-.66A1.67,1.67,0,0,0,123,56.92a1.9,1.9,0,0,0-2.69,1.13A5.29,5.29,0,0,0,120,60.2a33.29,33.29,0,0,0,.13,4.79c.23,1.74,1.9,2.79,3.4,1.81a1.74,1.74,0,0,0,.85-1.52c0-.81,0-.81.8-.81,1.16,0,1.16,0,.92,1.17a3.32,3.32,0,0,1-3.27,2.85,4.82,4.82,0,0,1-2-.14,4,4,0,0,1-2.6-3.76C118.24,63.69,118.26,62.8,118.26,61.9Z"/><path d="M173.33,82.42V77.91c0-.27-.09-.6.39-.57a25.45,25.45,0,0,1,4.09.17A2.6,2.6,0,0,1,180,79.68a2.54,2.54,0,0,1-1,2.77c-.37.25-.26.31,0,.47a2.13,2.13,0,0,1,1.06,2.14,5.23,5.23,0,0,0,.15,1.89c.12.36,0,.56-.45.58-1.4.06-1.4.08-1.41-1.37V86c.12-2.39-.84-2.56-2.79-2.52-.39,0-.48.18-.47.52,0,1-.05,1.93,0,2.88,0,.68-.23.85-.82.77a1.21,1.21,0,0,0-.38,0c-.48.07-.6-.14-.59-.6C173.34,85.49,173.33,84,173.33,82.42Zm1.76-2c0,1.92,0,1.92,1.87,1.69h.1a1.5,1.5,0,0,0,1.26-1.65,1.54,1.54,0,0,0-1.19-1.71,3.1,3.1,0,0,0-1.87.06c-.44.27-.11,1-.17,1.53A.27.27,0,0,0,175.09,80.42Z"/><path d="M243.62,63.25c0-1.5,0-3,0-4.51,0-.52.17-.63.65-.62,1.08,0,2.17,0,3.26,0A2.85,2.85,0,0,1,250,62.49a2.38,2.38,0,0,0,.08,1.83,2,2,0,0,1,.32,1.08,7.5,7.5,0,0,0,.15,2.36c.13.39,0,.55-.47.57-1.39,0-1.39.07-1.39-1.39a4.59,4.59,0,0,0-.19-1.76,1.27,1.27,0,0,0-1.33-.9h-.39c-1.35,0-1.35,0-1.35,1.32,0,.74,0,1.47,0,2.21,0,.41-.11.59-.53.54a1.88,1.88,0,0,0-.58,0c-.56.08-.68-.18-.67-.69C243.64,66.19,243.62,64.72,243.62,63.25Zm2.92-3.81c-1.38,0-1.13-.16-1.16,1.18v.76c0,1.58,0,1.58,1.55,1.46.16,0,.32-.05.48-.07a1.27,1.27,0,0,0,1.15-1.11C248.88,60.23,248.17,59.44,246.54,59.44Z"/><path d="M274.21,63.16a6.65,6.65,0,0,1,.36-3.15,3.56,3.56,0,0,1,4-2,3.67,3.67,0,0,1,3.07,3.17,14.21,14.21,0,0,1,0,4.17,3.75,3.75,0,0,1-3.56,3.18,3.69,3.69,0,0,1-3.88-3.8C274.22,64.19,274.21,63.68,274.21,63.16Zm5.83,0a13.4,13.4,0,0,0-.13-2,2,2,0,0,0-1.74-1.88A1.89,1.89,0,0,0,276.11,61a15.37,15.37,0,0,0,0,4.39,2.19,2.19,0,0,0,.54,1.1,1.77,1.77,0,0,0,2.56.12,2.37,2.37,0,0,0,.7-1.53C280,64.47,280,63.83,280,63.2Z"/><path d="M163.36,82.42a9.62,9.62,0,0,1,.25-2.72,3.41,3.41,0,0,1,3.54-2.47,3.45,3.45,0,0,1,3.57,2.67,9.69,9.69,0,0,1,.22,4,5.32,5.32,0,0,1-.54,2,3.9,3.9,0,0,1-5.74,1,4,4,0,0,1-1.29-2.9C163.34,83.49,163.36,82.94,163.36,82.42Zm5.83.07a9.8,9.8,0,0,0-.1-2.1,1.92,1.92,0,0,0-1.9-1.79,1.88,1.88,0,0,0-1.9,1.79,15.15,15.15,0,0,0,0,4.2,1.9,1.9,0,0,0,3.8,0A10.56,10.56,0,0,0,169.19,82.49Z"/><path d="M135.69,63.31a9.6,9.6,0,0,1-.18,2.47,3.56,3.56,0,0,1-3.29,2.69,3.33,3.33,0,0,1-3.62-2,8.52,8.52,0,0,1-.45-4.79,5,5,0,0,1,.74-2.17A3.61,3.61,0,0,1,132.72,58a3.77,3.77,0,0,1,3,3.77C135.71,62.27,135.69,62.75,135.69,63.31Zm-1.77,0c0-.64,0-1.28,0-1.92a2.38,2.38,0,0,0-.13-.56A1.9,1.9,0,0,0,132,59.29a1.82,1.82,0,0,0-1.82,1.54,11.19,11.19,0,0,0,0,4.75A1.82,1.82,0,0,0,132,67.13a1.89,1.89,0,0,0,1.83-1.54A6.74,6.74,0,0,0,133.92,63.31Z"/><path d="M157,62.16c0-1.12,0-2.24,0-3.35,0-.52.1-.81.68-.71H158c.85,0,.85,0,.86.81,0,1.82,0,3.65,0,5.47a7.41,7.41,0,0,0,.07,1.05,1.83,1.83,0,0,0,1.7,1.73,2.15,2.15,0,0,0,2-1.36,3.54,3.54,0,0,0,.26-1.47c0-1.79,0-3.58,0-5.37,0-.86,0-.86.9-.86h.48c.34,0,.44.15.42.47-.09,2.32.17,4.65-.15,7A3,3,0,0,1,162.75,68a4.66,4.66,0,0,1-3.55.28A3.3,3.3,0,0,1,157,65.23C157.05,64.21,157,63.19,157,62.16Z"/><path d="M330.44,63.38c-.1.66,0,1.43-.15,2.23a3.79,3.79,0,0,1-4.64,2.83,3.62,3.62,0,0,1-2.71-3.18,9.35,9.35,0,0,1-.17-2.73,5.47,5.47,0,0,1,.93-3.15A3.66,3.66,0,0,1,327.07,58a3.77,3.77,0,0,1,3.37,4.17Zm-5.77-.07a8.38,8.38,0,0,0,.18,2.29,1.87,1.87,0,0,0,1.8,1.56,1.75,1.75,0,0,0,1.85-1.49,11.13,11.13,0,0,0,0-4.84,1.85,1.85,0,0,0-1.77-1.5,1.92,1.92,0,0,0-1.86,1.51A8.23,8.23,0,0,0,324.67,63.31Z"/><path d="M182.71,82.4V78.18c0-1-.08-.85.79-.84,1.16,0,1-.14,1,1,0,.92,0,1.85,0,2.78,0,.22-.18.56.17.66s.54-.18.7-.48a16.54,16.54,0,0,0,1.4-2.62,1.71,1.71,0,0,1,2.19-1.3c.22,0,.54,0,.63.08s-.14.37-.25.55c-.75,1.17-1.45,2.37-2.27,3.49a1.13,1.13,0,0,0,0,1.45c.81,1.28,1.6,2.57,2.39,3.86.13.21.35.5.29.66s-.44.09-.67.09c-1.52,0-1.52,0-2.24-1.29-.48-.87-1-1.72-1.43-2.62a.55.55,0,0,0-.69-.32c-.35,0-.21.34-.21.53,0,1,0,2.11,0,3.16,0,.48-.09.74-.62.65a2.25,2.25,0,0,0-.58,0c-.48.06-.59-.17-.58-.61C182.72,85.47,182.71,83.94,182.71,82.4Z"/><path d="M351.1,58.13c.93,0,.92,0,1.24.94,1,2.9,1.9,5.8,2.89,8.69.17.49.12.61-.38.56a1.93,1.93,0,0,0-.48,0c-.59.08-.89-.11-1.06-.75-.37-1.38-.42-1.37-1.78-1.37h-.48c-.57,0-1.28-.17-1.67.1s-.45,1-.53,1.54-.49.47-.88.48c-1.18,0-1.19,0-.8-1.12.92-2.69,1.68-5.44,2.67-8.11C350.19,58.14,350.16,58.13,351.1,58.13Zm0,6.56c.29,0,.58,0,.86,0s.5-.08.39-.44c-.35-1.09-.7-2.18-1.06-3.26a.72.72,0,0,0-.17-.22A1.63,1.63,0,0,0,351,61c-.26.82-.51,1.64-.77,2.46C349.83,64.7,349.83,64.7,351.07,64.69Z"/><path d="M178.25,58.13c.95,0,1,0,1.27.93,1,2.9,1.92,5.81,2.91,8.7.15.43.13.58-.35.56-1.6-.08-1.31.37-1.8-1.32-.05-.18-.24-.28-.2-.51.1-.48-.23-.49-.58-.48h-2.4c-.39,0-.65,0-.73.53s-.29.82-.37,1.25a.59.59,0,0,1-.65.54c-1.45.06-1.45.09-1-1.29q1.3-4,2.63-8C177.3,58.13,177.3,58.13,178.25,58.13Zm-.05,6.53a8.19,8.19,0,0,1,.86,0c.51,0,.5-.21.39-.57-.32-1-.64-2-.95-3a.57.57,0,0,0-.27-.37l-.15.44-.72,2.26C177,64.66,177,64.66,178.2,64.66Z"/><path d="M256.47,66c-1.74,0-1.79,0-2.22,1.57-.18.65-.5.76-1.07.74-1.09,0-1.07,0-.73-1.07.91-2.91,1.89-5.8,2.87-8.68.12-.34.18-.43.52-.45,1.51-.06,1.51-.07,2,1.46.9,2.71,1.78,5.42,2.73,8.11.21.61,0,.66-.46.62h-.19c-1.08,0-1.27-.14-1.49-1.15,0-.09,0-.2,0-.28-.13-.55-.27-1.06-1-.88A4.3,4.3,0,0,1,256.47,66Zm-.05-1.35c.32,0,.63,0,.95,0s.38-.14.29-.41l-1-3.26a.22.22,0,0,0-.2-.18c-.12,0-.11.13-.13.2l-.78,2.45C255.16,64.66,255.16,64.66,256.42,64.66Z"/><path d="M310.24,68.52a5.73,5.73,0,0,1-1.88-.26c-1.17-.44-1.39-1.49-1.73-2.47,0-.1-.06-.25.1-.33a7,7,0,0,1,1.71,0c.14.12.07.3.11.44a1.51,1.51,0,0,0,1.37,1.22,2,2,0,0,0,2.05-.87c.37-.58-.05-1.39-.8-1.85a17.93,17.93,0,0,0-2.43-.94,2.92,2.92,0,0,1-1.21-4.4c.76-1.07,2-1.14,3.15-1.08a3.6,3.6,0,0,1,1.36.28,2.94,2.94,0,0,1,1.69,2.32c0,.39-.07.56-.51.57-1,0-1,.05-1.42-.88-.31-.77-1-.89-1.7-.84s-1.08.24-1.29,1a1.39,1.39,0,0,0,.55,1.5,3.43,3.43,0,0,0,1.27.59,9.35,9.35,0,0,1,1.91.78A2.66,2.66,0,0,1,313.9,66a2.61,2.61,0,0,1-2,2.26A4.57,4.57,0,0,1,310.24,68.52Z"/><path d="M151,68.48a3.77,3.77,0,0,1-1.8-.39,2.41,2.41,0,0,1-1.45-2.32c0-.36.08-.55.48-.51a2.72,2.72,0,0,0,.57,0c.42,0,.65,0,.73.57a1.81,1.81,0,0,0,3.5,0,1.25,1.25,0,0,0-.65-1.37c-.89-.5-1.92-.64-2.82-1.13a2.81,2.81,0,0,1-1-4.32A3.47,3.47,0,0,1,152,58a2.79,2.79,0,0,1,2.61,1.85,2.71,2.71,0,0,1,.15.74c0,.31-.06.49-.42.45a2.71,2.71,0,0,0-.57,0c-.44,0-.73,0-.82-.56a1.75,1.75,0,0,0-1.71-1.17,1.27,1.27,0,0,0-1.28.92,1.5,1.5,0,0,0,.63,1.8,9.37,9.37,0,0,0,1.84.72,8,8,0,0,1,1.35.66,2.46,2.46,0,0,1,1.15,2.69,2.37,2.37,0,0,1-1.73,2A5.2,5.2,0,0,1,151,68.48Z"/><path d="M157.22,85.22A7.54,7.54,0,0,0,156,80.41c-.67-1.28-1.21-2.63-1.78-4a8.9,8.9,0,0,1-.58-1.25c-.08-.27,0-.34.23-.35.42,0,.84,0,1.25,0s.46.13.59.46c.6,1.52,1.25,3,1.89,4.51.06.15.13.28.18.43a.48.48,0,0,0,.38.38c.35,0,.28-.31.35-.46.71-1.63,1.4-3.26,2.06-4.91a.6.6,0,0,1,.72-.41c.44,0,1.08-.15,1.29.08s-.22.75-.39,1.13c-.89,2-1.78,4-2.74,6a3.84,3.84,0,0,0-.41,1.81c0,1,0,2,0,3.07,0,.56-.2.76-.72.69a1.41,1.41,0,0,0-.29,0c-.59.08-.9-.09-.82-.77A14.77,14.77,0,0,0,157.22,85.22Z"/><path d="M129.41,82.42c0-1.47,0-2.94,0-4.41,0-.45,0-.7.6-.69,1.69,0,3.39,0,5.08,0,.6,0,.56.3.58.71s-.08.69-.62.67c-1,0-2,0-3,0-.6,0-.9.18-.85.82s-.27,1.52.13,1.94,1.27.1,1.93.15h.86c.87,0,.85,0,.85.83,0,.43-.15.54-.56.53-.83,0-1.66,0-2.49,0-.51,0-.76.09-.72.67s0,1.4,0,2.11c0,.47.1.68.63.65,1.06,0,2.11,0,3.17,0,.49,0,.65.13.65.64s-.2.65-.67.64q-2.44,0-4.89,0c-.53,0-.73-.16-.71-.71,0-1.5,0-3,0-4.5Z"/><path d="M192.21,63.23c0-1.47,0-2.95,0-4.42,0-.5.09-.74.67-.73,1.67,0,3.33,0,5,0,.56,0,.61.25.61.7s-.07.7-.62.68c-1.09,0-2.18,0-3.26,0-.4,0-.59.09-.56.53,0,.61,0,1.22,0,1.82,0,.44.17.55.57.54.89,0,1.79,0,2.68,0,.57,0,.51.32.51.68s.07.72-.5.69c-.87,0-1.73,0-2.59,0-.46,0-.71,0-.68.61a20.18,20.18,0,0,1,0,2.2c0,.39.13.5.5.49,1.12,0,2.24,0,3.35,0,.6,0,.58.29.59.7s0,.72-.59.71c-1.7,0-3.39,0-5.09,0-.48,0-.59-.18-.59-.62C192.23,66.23,192.21,64.73,192.21,63.23Z"/><path d="M235,63.19c0-1.5,0-3,0-4.51,0-.45.11-.6.58-.59,1.7,0,3.39,0,5.09,0,.53,0,.56.24.54.64s.06.76-.56.73c-1.09-.05-2.18,0-3.26,0-.44,0-.66.09-.62.58.07.73-.28,1.64.15,2.14s1.32.11,2,.16c.29,0,.58,0,.86,0a.76.76,0,0,1,.77,1.15c-.12.3-.36.19-.56.2-.9,0-1.8,0-2.69,0-.48,0-.61.16-.57.61a15.67,15.67,0,0,0,.1,2.65,22.85,22.85,0,0,0,2.48,0c.38,0,.77,0,1.15,0,.77,0,.73,0,.75.8,0,.48-.16.59-.61.58-1.69,0-3.39,0-5.08,0-.44,0-.53-.16-.53-.55C235,66.26,235,64.73,235,63.19Z"/><path d="M216.09,63.26c0-1.5,0-3,0-4.5,0-.46.06-.69.61-.68,1.66,0,3.33,0,5,0,.51,0,.63.17.63.65s-.11.74-.68.72c-1,0-2.11,0-3.16,0-.45,0-.64.09-.61.57a13.82,13.82,0,0,1,0,1.82c0,.44.15.55.55.53.9,0,1.79,0,2.69,0,.4,0,.6.09.55.53s.09.81-.53.8c-.86,0-1.72,0-2.59,0-.44,0-.73,0-.67.6a17.89,17.89,0,0,0,.12,2.64,20.37,20.37,0,0,0,2.47,0,8.69,8.69,0,0,0,1.25,0c.55-.07.6.21.61.66s-.05.75-.65.74c-1.66,0-3.33,0-5,0-.45,0-.6-.13-.59-.6C216.1,66.26,216.09,64.76,216.09,63.26Z"/><path d="M283.77,63.25c0-1.54,0-3.07,0-4.61,0-.4.09-.56.53-.55,1.76,0,3.52,0,5.27,0,.56,0,.53.3.52.67s.07.71-.5.69c-1.15,0-2.3,0-3.45,0-.48,0-.69.11-.65.63a12.31,12.31,0,0,1,0,1.92c0,.49.17.58.61.57.89,0,1.79,0,2.68,0,.63,0,.56.31.57.7s0,.72-.59.68c-.89-.06-1.79,0-2.69,0-.42,0-.54.15-.53.55,0,1.12,0,2.24,0,3.36,0,.4-.1.6-.53.55a1.55,1.55,0,0,0-.48,0c-.64.11-.79-.17-.78-.79C283.8,66.13,283.77,64.69,283.77,63.25Z"/><path d="M185.74,63.87c0-1.25,0-2.5,0-3.74,0-.56-.18-.74-.72-.69s-.9,0-1.34,0c-.63.07-.56-.32-.57-.72s0-.67.52-.66c2,0,4,0,6,0,.46,0,.63.14.6.6s0,.79-.59.76-1,0-1.44,0-.65.12-.64.63c0,2.24,0,4.48,0,6.72a3.81,3.81,0,0,1,0,.48c0,.34.19.82-.12,1a2.78,2.78,0,0,1-1.41.06c-.34,0-.25-.32-.25-.52C185.73,66.5,185.74,65.18,185.74,63.87Z"/><path d="M317.39,63.8c0-1.25,0-2.5,0-3.74,0-.47-.12-.63-.59-.59a11.53,11.53,0,0,1-1.44,0c-.23,0-.58.16-.66-.17a2.86,2.86,0,0,1,0-1c0-.16.26-.12.42-.12,2.05,0,4.1,0,6.14,0,.58,0,.52.32.5.66s.16.75-.46.7-1,0-1.53,0-.63.18-.63.66c0,2.53,0,5.06,0,7.59,0,.25.15.65-.3.67a2.39,2.39,0,0,1-1.4-.11c-.16-.09-.07-.35-.08-.54Z"/><path d="M167.19,63.22c0-1.47,0-2.94,0-4.41,0-.63.2-.8.76-.71h.19c.92,0,.84-.09.84.8v7.2c0,.94-.1.86.88.87.8,0,1.6,0,2.4,0,.55,0,.54.28.51.65s.17.77-.5.76c-1.51,0-3,0-4.51,0-.51,0-.56-.21-.56-.63C167.2,66.23,167.19,64.73,167.19,63.22Z"/><path d="M264.56,66.93c1,0,2,0,3,0,.46,0,.71.07.67.62s.05.8-.62.78c-1.47,0-2.94,0-4.41,0-.51,0-.57-.2-.56-.62,0-3,0-6,0-9,0-.53.18-.69.66-.62a1.61,1.61,0,0,0,.38,0c.57-.09.76.09.75.71,0,2.5,0,5,0,7.49,0,.16,0,.32,0,.47S264.42,67,264.56,66.93Z"/><path d="M345,63.22c0,1.5,0,3,0,4.51,0,.46-.13.65-.59.59a2.54,2.54,0,0,0-.39,0c-.85,0-.86,0-.86-.86q0-4.21,0-8.44c0-.29-.2-.73.19-.84a2.68,2.68,0,0,1,1.51,0c.22.07.11.4.11.62C345,60.28,345,61.75,345,63.22Z"/><path d="M338.57,65l0,.12c-.12,0-.05-.07,0-.12Z"/><path d="M96.66,55c.59-.58.59-.57.85.19.07.17.13.35.2.52.33.75,1.61,1.36,2.22,1a4.61,4.61,0,0,0,1.47-1,2.55,2.55,0,0,0-.13-3.6,3.25,3.25,0,0,0-3.21-.7.57.57,0,0,1-.16.11A5.9,5.9,0,0,0,94.49,55a3.36,3.36,0,0,1-.2.43c0,.07-.14.11-.21.16A.76.76,0,0,1,94,55.3a5.53,5.53,0,0,1,4-4.26,2.16,2.16,0,0,1,1.57-.16c.31.12.65,0,.91.23a.41.41,0,0,0,.45,0,3.47,3.47,0,0,1-.18-.33,3.51,3.51,0,0,0-.57-.76,27.18,27.18,0,0,0-3.31-3,13.63,13.63,0,0,1-3.12-3.7c-.91-1.52-.88-1.49-2.66-1.15a8.77,8.77,0,0,1-3,.13,37,37,0,0,1-7-1.95,19.46,19.46,0,0,0-5.79-1,9.35,9.35,0,0,0-4,.9c-.55.23-1,.89-1.51.83s-1-.59-1.58-.82a10.07,10.07,0,0,0-4.9-.83,23.47,23.47,0,0,0-5.83,1.23c-1.32.48-2.65.88-4,1.23a11.89,11.89,0,0,1-5.56.2c-1.2-.25-1.19-.3-1.77.77-.07.14-.15.28-.23.42a16.69,16.69,0,0,1-3.41,3.94c-.9.79-1.79,1.6-2.7,2.37a7.27,7.27,0,0,0-1,1.25c-.13.18,0,.35.18.26A4.49,4.49,0,0,1,41.77,51a4.73,4.73,0,0,1,3.42,2.76,16.1,16.1,0,0,1,.66,1.67c0,.12.07.27-.11.29s-.13-.11-.16-.19c-.2-.43-.41-.86-.6-1.3a5,5,0,0,0-2.73-2.65c-.17-.08-.33-.18-.5-.28a4,4,0,0,0-1.14-.12c-2,0-3.12,1.18-2.85,3.2a2.41,2.41,0,0,0,3.53,1.92,1.74,1.74,0,0,0,.87-1.5c0-.36.09-.41.45-.22A4.11,4.11,0,0,1,44,56a14.51,14.51,0,0,1,2.79,8,37.68,37.68,0,0,1-.56,7.26,22.38,22.38,0,0,1-2.54,7.83,11.24,11.24,0,0,1-3.5,4.16,2.26,2.26,0,0,0-.88,1.42c-.1.4-.17.8-.26,1.19,0,.15-.24.29-.07.42s.32-.08.46-.18c.4-.27.56-.88,1.18-.84-.14-.59.43-.82.66-1.17a43.26,43.26,0,0,0,2.53-4.25c.06-.13.12-.37.3-.28s0,.29,0,.42A14.3,14.3,0,0,1,41,84.79c-.23.21.1.64-.36.65-.36.4-.64.85-1,1.25a1.63,1.63,0,0,0-.53,1.71,32.9,32.9,0,0,0,4.29,9.06,16.77,16.77,0,0,0,3.9,3.85,18.48,18.48,0,0,0,6.41,2.76,6.19,6.19,0,0,1,2.06.56c.42-.2.76.15,1.15.17a.32.32,0,0,1,.4.17,6.61,6.61,0,0,1,2.2.42,22.08,22.08,0,0,1,4.28,1.32,17.36,17.36,0,0,1,5.52,3.67c.35.36.58.35.93,0a17.2,17.2,0,0,1,5.79-3.73,29.12,29.12,0,0,1,6.2-1.72.71.71,0,0,1,.61-.13c.33-.27.75-.18,1.13-.26,1.47-.4,2.94-.75,4.38-1.25a16.43,16.43,0,0,0,8.11-6.17,30,30,0,0,0,4.07-8.77,1.33,1.33,0,0,0-.28-1.37c-.39-.46-.75-.94-1.12-1.43-.06-.08-.19-.21,0-.3s.19,0,.25.06c.29.26.56.53.84.79.11.1.23.3.39.21s.09-.33.07-.5a4.7,4.7,0,0,0-1.74-3,14.66,14.66,0,0,1-4.2-6.5,35.84,35.84,0,0,1-1.56-7,22.43,22.43,0,0,1,.07-7.58A12.42,12.42,0,0,1,96.66,55ZM50.71,61.2a1.46,1.46,0,0,0,.31-.89,1.28,1.28,0,0,1,.64-.9c.28-.18.91-.13.61-.81,0-.07.39-.25.66-.28a2.74,2.74,0,0,1,1.21.22,1.71,1.71,0,0,0,1.39-.08,21.3,21.3,0,0,0,2.63-1.58c.07-.05.18-.16.16-.2s-.21-.1-.32-.09a1.41,1.41,0,0,1-1.12-.44c-.12-.1-.29-.2-.25-.38s.26-.09.4-.12.43.09.43-.2-.24-.29-.42-.33a4.88,4.88,0,0,0-.76-.07,1.52,1.52,0,0,1-1-.47.58.58,0,0,1-.18-.32c0-.23.23-.14.37-.18s.44.1.44-.18-.23-.29-.41-.34a11.58,11.58,0,0,1-1.31-.23,1.06,1.06,0,0,1-.6-.45c-.19-.36.2-.39.36-.56a.57.57,0,0,0,.06-.78.51.51,0,0,0-.7-.06,1,1,0,0,1-1.07.09,4.63,4.63,0,0,1-1.28-1.13c-.17-.23,0-.27.23-.38.68-.39.68-.53.22-1.16a1.15,1.15,0,0,1-.26-1.25.56.56,0,0,0,0-.63c-.1-.13-.38-.21-.17-.44a.52.52,0,0,1,.62-.12,2.84,2.84,0,0,0,1.32.17l0,0c-.53-.32-.11-1-.48-1.37-.06-.06.23-.15.39-.15.44,0,.61.41.88.67s.33.49.59.43.27-.39.32-.63,0-.34.09-.35a.37.37,0,0,1,.38.23c.45.94,1.09,1.84.29,2.93a1.14,1.14,0,0,0,.22,1.56,9.31,9.31,0,0,0,1.85,1.52,3.4,3.4,0,0,1,.8.76l.69-.92c.06-.07.14-.13.2-.21s.46-.45.3-.63-.38.16-.57.27-.4.06-.41-.23a1.86,1.86,0,0,1,0-.58,6,6,0,0,0,.39-2.85c-.06-.43.22-.48.55-.25a1.36,1.36,0,0,1,.44.48c.07.12,0,.46.32.29a.47.47,0,0,0,.15-.52c-.13-.47-.57-.46-.91-.6-.12-.05-.29-.05-.29-.19s.21-.24.36-.21a4.09,4.09,0,0,0,2.25-.63,3.5,3.5,0,0,1,3,0,3.91,3.91,0,0,0,2.16.62c.16,0,.45.1.41.16-.3.51.55.63.33,1.11A2.83,2.83,0,0,0,68,49.6a1.57,1.57,0,0,1,.12.46c0,.24.13.56-.13.71s-.36-.18-.53-.3-.23-.29-.39-.12,0,.3.11.42c.24.3.5.58.74.88s.34.31.44-.09c0-.19.27-.12.42-.08,2.8.77,5.5.15,8.2-.55a20.33,20.33,0,0,1,3.37-.68,11.34,11.34,0,0,1,3.88.48,2.37,2.37,0,0,0,1.32,0c.21-.07.42-.18.43-.45a.54.54,0,0,0-.27-.57.61.61,0,0,0-.72,0c-.26.22-.33.77-.85.41-.35-.24-.29-.61-.28-1a.77.77,0,0,0,0-.19c-.08.05-.2.07-.23.13-.14.28-.16.68-.63.54s-.36-.59-.42-1a.41.41,0,0,0-.32.3c-.08.54-.44.65-.9.63s-1,.21-1.08,0,.42-.53.59-.85a.58.58,0,0,0,0-.26h0c-.07,0-.14,0-.18,0-2.37,1.66-5.18,2-7.89,2.6a3.71,3.71,0,0,1-2.68-.5,2.1,2.1,0,0,1,.09-3.82,3.62,3.62,0,0,1,2.69-.31,8.81,8.81,0,0,0,2.65.3c.13,0,.33-.11.4.1s-.1.22-.2.3a5.18,5.18,0,0,1-1.61,1c-.39.14-.8.33-1-.25,0-.07-.16-.09-.24-.14a.94.94,0,0,0-.06.27c.08.57-.23.83-.72.95-.28.07-.58.14-.64-.31s-.26-.47-.55-.35-.28.48-.19.75a.85.85,0,0,0,.63.54,3.88,3.88,0,0,0,1.7.11,32.92,32.92,0,0,0,5-1.36A26.36,26.36,0,0,1,81,47.53c.28-.05.67-.3.79,0s-.34.35-.52.54-.47.21-.53.5h0a1.54,1.54,0,0,0,1.52-1.33,1.62,1.62,0,0,1,1.58-1.15c.28,0,.39.15.34.44-.13.75.28,1,1,1.14a4.54,4.54,0,0,1,1.16.44,2.3,2.3,0,0,1,1.37,2.23,2.19,2.19,0,0,1-1.51,2c-.09,0-.21,0-.27.08-.22.2-.79,0-.7.47s.34.92,1,.89a1.5,1.5,0,0,1,1.44.58c.08.12.25.23.19.41s-.27.1-.42.12-.19,0-.28,0-.52-.09-.57.2.29.46.57.51a3.84,3.84,0,0,0,.76,0,.88.88,0,0,1,.71.23c.14.17.34.34.24.58s-.33.11-.5.15-.53-.13-.54.19.31.37.56.4a2.54,2.54,0,0,1,1.12.21,1,1,0,0,1,.44.6c.12.45-.23.35-.46.38s-.21.14-.2.28a6,6,0,0,0,.16,1.79,1,1,0,0,1-.85,1.52c-.47.07-1,0-1.3.47-.14.18-.25,0-.33-.14a1.88,1.88,0,0,1-.36-1.43l-.05-.05c-.09,0-.21,0-.26.11a8.66,8.66,0,0,1-1.59,1.46c-.39.25-.41,0-.44-.28s.4-1,.11-1.16-.3.67-.78.72c-.19,0-.33.4-.56.18s0-.41.08-.62c.31-1.41,1-2.18,2.62-1.92.53.09.78-.29.69-.77s-.53-.35-.85-.36-.41.28-.63.39c-.43.23-.89.68-1.15-.21-.07-.23-.36-.31-.61-.42-1.75-.73-2.14-1.47-1.84-3.33.06-.34.13-.71-.33-.87h0a1.32,1.32,0,0,1-.56,1.4,1.31,1.31,0,0,0-.62,1.4,1.07,1.07,0,0,1-.12.74c-.13.22-.26.54-.51.52s-.06-.39-.18-.57a2.24,2.24,0,0,1-.14-.36c0-.13-.11-.26-.25-.22a.49.49,0,0,0-.26.25,1.07,1.07,0,0,0,0,.84.94.94,0,0,1,0,.92c-.13.21-.29.52-.53.5s-.06-.37-.19-.55a1.5,1.5,0,0,1-.16-.34c0-.13-.14-.26-.26-.23a.43.43,0,0,0-.25.26,1.11,1.11,0,0,0,0,.84.91.91,0,0,1-.07,1c-.14.17-.27.44-.49.43s-.2-.3-.25-.47-.14-.43-.4-.15-.74.46-.87,1a1.15,1.15,0,0,1-.74.7c-.41.18-.76.28-.71-.38,0-.2,0-.46-.25-.46s-.07.32-.17.47a1.49,1.49,0,0,1-1.14.77,1.56,1.56,0,0,0-1.25.33c-.17.18-.28.07-.28-.14s0-.64,0-1l-.08-.06a3,3,0,0,1-1.14.94c-.35.15-.52,0-.42-.31.18-.62,0-.71-.51-.41-.12.07-.26.24-.41,0a.35.35,0,0,1,.05-.51,7,7,0,0,0,1-1.39A1.89,1.89,0,0,1,71.13,59a2.16,2.16,0,0,0,1.3.22,1.73,1.73,0,0,0,1.07-.73c.25-.4.43-.66-.27-.59-.27,0-.29-.11-.2-.36a4.05,4.05,0,0,1,3.8-3.08c.54,0,1.09-.16,1.24-.83.1-.44.5-.42.83-.5.64-.15,1.22.24,1.85.19h0a1.94,1.94,0,0,0-2.17-.44,16.25,16.25,0,0,0-3.41,1.51,45.14,45.14,0,0,1-4.67,2.2c-.55.23-1.28.31-1,1.3.09.32-.51.53-.9.38a14.14,14.14,0,0,1-1.45-.74c-.34-.19-.2-.49-.12-.77s.43-.55.65-.82a2.12,2.12,0,0,0-.22-3.08c-.3-.25-.42,0-.48.2s.14.55.29.79a1.33,1.33,0,0,1,.13,1.28c-.21.51-.48.55-.78,0s-.47-.17-.61.05a.88.88,0,0,0,0,.74c.1.3.32.67.23.91-.31.86.28,1.1.83,1.42.2.13.67.14.5.54a.8.8,0,0,1-.83.37c-.39,0-.67-.35-1-.49s-.37-.6-.39-1,0-.94-.44-.92c-.56,0-.23.59-.3.92a1.22,1.22,0,0,0,.84,1.56c.35.13.29.35,0,.52a1.26,1.26,0,0,1-1.93-1.05c0-.31,0-.63,0-.95a.25.25,0,0,0-.24-.25.26.26,0,0,0-.32.26c0,.29,0,.58,0,.86s-.19.41-.49.25a1,1,0,0,1-.59-1.33,2.78,2.78,0,0,0,.11-.46.34.34,0,0,0-.23-.38c-.2-.06-.27.07-.36.22a1.34,1.34,0,0,0,.24,2c.33.3.3.51.09.79-.35.47-.53,1.13-1.33,1.07-.43,0-.61-.1-.34-.55.12-.22.53-.5.24-.71s-.62.14-.84.41a5.28,5.28,0,0,1-.37.55.83.83,0,0,1-1.38-.14c-.18-.29-.39-.44-.7-.31s-.2.41-.15.66a2.1,2.1,0,0,1-1.22,1.79c-.18,0-.32,0-.34-.22,0-.38-.49-.39-.6-.7-.06-.14-.28-.19-.29-.13-.14.75-.76.38-1.15.52a2.26,2.26,0,0,0-.35.17c-.36.27-.65.59-.74-.24-.06-.58-.61-.39-1-.29-.17,0-.33.26-.48,0A.38.38,0,0,1,50.71,61.2Zm21.41,6.49c-.29.08-.72.25-.79-.35a.34.34,0,0,0-.5-.29.5.5,0,0,0-.23.73,1.31,1.31,0,0,0,1.26.72,11.35,11.35,0,0,0,3.66-.63c1.72-.49,3.38-1.16,5.12-1.58.4-.09,1.11-.29,1.15-.14.12.49-.5.52-.8.76-2.32,1.9-5.23,2.21-8,2.87a3.86,3.86,0,0,1-3.29-.64,2.1,2.1,0,0,1,.19-3.54,3.37,3.37,0,0,1,2.57-.48,9.76,9.76,0,0,0,3.22.33c.1,0,.25,0,.28,0s-.06.22-.16.29a13.24,13.24,0,0,1-1.17.84c-.91.55-1.22.49-1.93-.24l-.06.07C72.75,67,72.77,67.5,72.12,67.69ZM89.41,95.78c-.26.08-.2.3-.19.48A4.39,4.39,0,0,0,89.46,98c.27.53-.06,1-.71,1.21-.5.18-1.1,0-1.52.49-.15.16-.27,0-.35-.15s-.4-.51-.38-.86c0-.16.11-.43-.19-.43a.33.33,0,0,0-.31.32c-.06,1-1.17.6-1.56,1.15,0,.07-.22-.07-.22-.22a2.57,2.57,0,0,0,0-.48c-.09-.32.3-.77.08-.86-.48-.18-.15.51-.47.62a4.23,4.23,0,0,0-.41.23c-.13.08-.29.22-.43.1s-.09-.35,0-.52.14-.16.16-.24c.2-1.46,1.08-1.92,2.44-1.68a.69.69,0,0,0,.55-.13.71.71,0,0,0,.2-.7c0-.29-.27-.3-.5-.34-.43-.06-.71.2-1,.4s-.81.45-1.08-.19c-.13-.31-.49-.4-.77-.53-1.67-.78-2-1.4-1.69-3.25A.91.91,0,0,0,81,91h0a1.43,1.43,0,0,1-.7,1.6,1.07,1.07,0,0,0-.48,1.16,1.26,1.26,0,0,1-.15.93c-.13.18-.25.45-.48.41s-.08-.32-.15-.48a2.55,2.55,0,0,0-.2-.44c-.21-.26-.4-.16-.5.1a1.23,1.23,0,0,0,.07.84.88.88,0,0,1-.11,1c-.12.14-.27.35-.42.35s-.11-.29-.21-.43a1.39,1.39,0,0,1-.16-.35c0-.13-.16-.25-.28-.22a.46.46,0,0,0-.24.27,1.12,1.12,0,0,0,.07.84.92.92,0,0,1-.12,1c-.28.42-.51.43-.68-.05s-.33-.33-.57-.11a2,2,0,0,0-.7.89,1.07,1.07,0,0,1-.67.64c-.43.19-.82.31-.81-.4,0-.13,0-.28-.17-.32-.28-.07-.14.2-.22.3-.38.53-.77,1-1.54.92-.09,0-.19,0-.28,0-.31-.08-.58.56-.85.12-.13-.24,0-.63,0-1v-.09l0,0c-.37.31-.57.83-1.1,1-.15,0-.25.24-.42.14s-.14-.32-.07-.51.07-.24.11-.36a1.14,1.14,0,0,1-.11-.11c-.35-.08-.68.52-.93.17s.19-.65.44-.94a5.27,5.27,0,0,0,.42-.74,1.76,1.76,0,0,1,2.06-.79c.34.09.67.22,1,.28a2,2,0,0,0,2.12-1.14c.13-.32-.15-.21-.25-.2-.73.09-.56-.26-.41-.72a3.63,3.63,0,0,1,3.22-2.59c.68-.09,1.45-.06,1.71-1,.11-.41.8-.45,1.28-.39a2.79,2.79,0,0,0,1.11.12h0a2.21,2.21,0,0,0-2.49-.17,27,27,0,0,0-3.79,1.84,33.67,33.67,0,0,1-4,1.79c-.49.21-.93.4-.82,1.09.08.53-.33.69-.75.53A12.22,12.22,0,0,1,67.24,95a.5.5,0,0,1-.23-.66,2.31,2.31,0,0,1,.6-.84,2.25,2.25,0,0,0-.14-3.27c-.16-.15-.26-.11-.37,0-.26.38,0,.68.15,1a1.25,1.25,0,0,1,.09,1.44c-.19.34-.4.69-.68.06-.07-.16-.11-.43-.38-.32a.48.48,0,0,0-.31.54c0,.22.12.43.18.65a1.57,1.57,0,0,1,.09,1.11.48.48,0,0,0,.29.7c.23.11.46.23.68.36s.49.15.46.41-.36.34-.6.39a1.48,1.48,0,0,1-1.68-1.31,1.42,1.42,0,0,0-.12-.65c-.1-.17,0-.53-.37-.43s-.3.3-.29.55a2.46,2.46,0,0,1,0,.66.94.94,0,0,0,.68,1.26c.15,0,.42.1.37.35s-.26.26-.44.32A1.26,1.26,0,0,1,63.5,96c0-.34.21-1-.24-1-.64,0-.3.63-.34,1s-.17.56-.56.28-.77-.69-.53-1.28a1.08,1.08,0,0,0,.1-.56.4.4,0,0,0-.27-.36c-.21-.07-.24.11-.32.25-.49,1-.48,1.13.32,2,.2.23.26.38.07.65-.36.51-.59,1.16-1.37,1.19-.37,0-.71,0-.37-.51a2,2,0,0,0,.14-.25c.08-.17.21-.37,0-.5a.39.39,0,0,0-.51.12,4.38,4.38,0,0,0-.43.63,1.15,1.15,0,0,1-.89.5c-.45.1-.61-.18-.74-.55s-.26-.39-.52-.28a.42.42,0,0,0-.22.64c.15.31.22.64-.06.88a5.53,5.53,0,0,1-1.24,1,.16.16,0,0,1-.23-.09c-.23-.58-.89-1-.65-1.74-.5.29-.12,1-.5,1.22s-.86-.13-1.26.2-.67.46-.74-.3c0-.31-.55-.47-1-.25-.15.08-.29.33-.48.14s-.09-.42,0-.61A1,1,0,0,0,51,98a1.46,1.46,0,0,1,1.36-1.47c.11,0,.45,0,.21-.22-.78-.66.12-.51.29-.58.4-.18.81,0,1.2.15a2.06,2.06,0,0,0,1.58-.09c.78-.44,1.54-.91,2.31-1.36.12-.08.32-.15.25-.33s-.21-.16-.33-.17a1.51,1.51,0,0,1-1.28-.84h0a0,0,0,0,0,0,0l-.06,0h.05a.06.06,0,0,1,0,0l0,0h0a2.47,2.47,0,0,0,.55,0c.16,0,.44.14.44-.15s-.2-.32-.39-.37a7.18,7.18,0,0,0-1-.19,1.31,1.31,0,0,1-.91-.47c-.12-.13-.34-.25-.26-.45s.3,0,.45-.05.42.13.44-.16-.2-.22-.34-.29a1.53,1.53,0,0,0-.84-.14,1.34,1.34,0,0,1-.88-.32c-.29-.21-.54-.41,0-.68A.56.56,0,0,0,54,88.9c-.21-.32-.49-.14-.76,0a2.15,2.15,0,0,1-2.21-1c0-.12-.08-.3.05-.34.51-.14.63-1.08,1.39-.67a.27.27,0,0,0,.22-.13c0-.14-.07-.21-.22-.23-1.36-.24-1.46-.37-1.28-1.68a.92.92,0,0,0,0-.37c-.17-.67-.09-.78.59-.57a6.28,6.28,0,0,0,1.13.16L53,84c-.56-.34-.15-1-.36-1.41,0-.08.41-.16.59,0s.45.44.69.65c.46.41.54.39.75-.22,0-.14,0-.36.15-.4s.34.14.42.31c.41.93.91,1.82.16,2.85a1.07,1.07,0,0,0,.23,1.47,8.87,8.87,0,0,0,2,1.64c.33.18.47.49.69.75a3.39,3.39,0,0,1,.67-.93,3.36,3.36,0,0,0,.72-1c-.35-.12-.51.17-.72.35s-.45.2-.46-.19a2,2,0,0,1,.11-1,3.47,3.47,0,0,0,.3-2.17,2.72,2.72,0,0,1,0-.57.54.54,0,0,1,.32-.62,5.42,5.42,0,0,0,2.69-.78,3.64,3.64,0,0,1,2.77,0,4.36,4.36,0,0,0,2.21.68c.65-.09.85.66.76,1.09a5.08,5.08,0,0,0,.41,2.76,1.54,1.54,0,0,1,0,.57c0,.15,0,.34-.16.4s-.24-.07-.33-.16a1.13,1.13,0,0,0-.71-.43c.14.72.8,1,1.19,1.58,0,0,.1,0,.15.08.13-.72.58-.35,1-.28s.81.15,1.22.2A15.1,15.1,0,0,0,75,88.76c1.62-.33,3.2-.83,4.84-1.1a10.62,10.62,0,0,1,4,.39,3.06,3.06,0,0,0,1.59,0c.24-.08.41-.2.42-.46a.64.64,0,0,0-.46-.65.5.5,0,0,0-.61.17c-.15.19-.07.66-.52.5a.84.84,0,0,1-.53-1c0-.12.06-.3,0-.34s-.23.09-.27.21c-.1.27-.13.65-.51.58s-.47-.53-.48-.92l0,0c-.38.76-1.11.86-1.84.94-.18,0-.43.1-.53-.07s.12-.32.25-.45c.28-.25.64-.42.79-.79h0c-.42-.16-.64.17-.89.39a4.08,4.08,0,0,1-1.69.84c-1.64.39-3.22,1-4.88,1.35a5.63,5.63,0,0,1-3.3-.16,2.14,2.14,0,0,1-1.54-2.28,2.49,2.49,0,0,1,2-2,4.84,4.84,0,0,1,2.36.08,4.27,4.27,0,0,0,2.45.18c.1,0,.25-.1.31,0s-.07.17-.14.23a6.69,6.69,0,0,1-1.5,1,5,5,0,0,1-.9.31c-.48.08-.31-.49-.59-.64A.58.58,0,0,0,72.5,85h0c.35,1,.23,1.21-.59,1.38-.32.07-.55.13-.57-.33,0-.28-.26-.35-.5-.29s-.34.36-.27.61c.16.6.64.73,1.18.76a11.09,11.09,0,0,0,3.57-.54c1.88-.51,3.66-1.31,5.57-1.67a2.24,2.24,0,0,0,.37-.1c.57-.15.62.13.46.56h0c.49,0,.51-.33.56-.7a1.46,1.46,0,0,1,1.46-1.24c.29,0,.51.06.45.43-.13.77.36,1,1,1.13a3.75,3.75,0,0,1,1.72.81,2.23,2.23,0,0,1-.66,3.82,1.23,1.23,0,0,0-.26.12c-.28.13-.8-.06-.78.49a1.1,1.1,0,0,0,1.08.89,1.41,1.41,0,0,1,1.39.64c.19.32.29.49-.23.51-.3,0-.86-.2-.85.24s.58.34.94.35.9,0,1.17.49c.17.29.17.45-.24.49s-.78-.21-.78.17.51.5.9.54c.22,0,.45,0,.67.07a.87.87,0,0,1,.65.75C90,95.86,89.62,95.72,89.41,95.78ZM73.31,76.57c-.36.05-.31-.12-.23-.39a4,4,0,0,1,3.56-3c.65-.08,1.38-.07,1.49-1,0-.24.35-.23.56-.29a2,2,0,0,1,1.89.37.77.77,0,0,1,0,1.34,1.75,1.75,0,0,0-.82,1.8.93.93,0,0,1-.17.64c-.11.19-.25.45-.47.42s0-.35-.15-.5-.1-.7-.46-.61-.33.52-.24.82c.16.51.33,1-.14,1.42-.21.2-.43.51-.49-.1a1.25,1.25,0,0,0-.13-.35c-.06-.18-.06-.45-.29-.44s-.31.27-.33.5a1.58,1.58,0,0,0,.12.74.88.88,0,0,1-.24,1c-.28.32-.46.3-.55-.12s-.24-.52-.56-.15-.58.48-.73.87a1.42,1.42,0,0,1-.76.7c-.41.18-.75.29-.71-.38,0-.19,0-.46-.24-.46s-.07.31-.17.46a1.78,1.78,0,0,1-1.3.87c-.2,0-.43-.06-.57,0-.81.47-.92.1-.8-.62a.3.3,0,0,0-.08-.23c-.1-.05-.18.06-.21.14a.9.9,0,0,1-.46.46c-.26.11-.49.46-.73.35s-.06-.49-.06-.75c0-.43-.23-.24-.43-.16s-.35.41-.57.16,0-.52.16-.68a4.8,4.8,0,0,0,.75-1.09,1.58,1.58,0,0,1,1.52-.83,4.15,4.15,0,0,1,1.2.28,1.65,1.65,0,0,0,2.08-.7C73.87,76.73,74,76.46,73.31,76.57Zm16.53.48c-.18.15-.61-.26-.6.18a4.45,4.45,0,0,0,.13,1.88,1,1,0,0,1-.84,1.5l-.76.11c-.32,0-.48.63-.78.35a1.32,1.32,0,0,1-.47-1.29,1.35,1.35,0,0,0,0-.29l-.07-.08c-.1.08-.28.15-.29.24-.11.79-.75,1-1.35,1.21-.19.07-.32.41-.56.21s-.07-.42-.05-.64a1.85,1.85,0,0,1,.45-1c0-.07.11-.17,0-.24a.21.21,0,0,0-.26,0,.86.86,0,0,0-.41.51.81.81,0,0,1-.43.6c-.19.11-.41.36-.59.23s-.06-.46.06-.68a2.55,2.55,0,0,0,.23-.62c.33-1.08.85-1.39,2-1.21.45.07.84.08,1-.42a.59.59,0,0,0-.11-.63.71.71,0,0,0-.81-.1c-.23.11-.4.33-.62.45-.4.21-.81.47-1-.24-.09-.29-.41-.37-.68-.48-1.7-.71-2.14-1.51-1.83-3.27A1.43,1.43,0,0,0,80,71.58a3.44,3.44,0,0,0-2,.16,34,34,0,0,0-3.12,1.47,39.57,39.57,0,0,1-4.42,2.08c-.48.22-1.54.25-.87,1.33.11.17-.18.21-.3.26A2.86,2.86,0,0,1,67,76.05a.68.68,0,0,1,.1-.72,6.8,6.8,0,0,1,.5-.57,2.15,2.15,0,0,0-.11-3.18c-.29-.32-.36-.07-.47.12s0,.57.19.79a1.28,1.28,0,0,1,.26,1.08c-.06.32-.17.69-.49.77s-.29-.34-.39-.54-.26-.2-.43-.06a.65.65,0,0,0-.16.79,2.2,2.2,0,0,1,.17,1.67c-.09.22.1.34.28.43s.52.26.76.4.49.17.47.43-.36.34-.59.4a1.54,1.54,0,0,1-1.72-1.28,2.62,2.62,0,0,0-.17-.84c0-.16-.11-.33-.31-.27s-.25.16-.25.26a8.77,8.77,0,0,0,0,1.7c0,.3.5.36.76.53s.3.16.28.35-.23.21-.36.27a1.28,1.28,0,0,1-1.84-1.13c0-.29,0-.57,0-.86s-.06-.33-.26-.33a.31.31,0,0,0-.31.3c0,.16,0,.33,0,.48s.15.56-.18.67-.46-.17-.66-.33a.81.81,0,0,1-.26-.94,2.17,2.17,0,0,0,.13-.56.39.39,0,0,0-.3-.43c-.2,0-.22.15-.3.29a1.38,1.38,0,0,0,.2,1.9c.61.56,0,1-.25,1.4a1,1,0,0,1-1.27.39c-.3-.07-.07-.29,0-.44s.4-.46.11-.66-.53.06-.71.3-.29.58-.59.75a.92.92,0,0,1-1.2-.31c-.14-.24-.27-.46-.58-.35s-.32.34-.26.63a2.2,2.2,0,0,1-1.28,1.93c-.1,0-.24,0-.23-.07,0-.58-.86-.74-.65-1.41,0-.07,0-.17-.06-.26-.06.08-.17.15-.17.22,0,.74-.4,1-1.1.89-.16,0-.36.13-.51.24-.32.24-.51.45-.66-.2a.63.63,0,0,0-1.06-.31c-.3.23-.59.14-.43-.19a11.4,11.4,0,0,1,.6-1.67,1.87,1.87,0,0,1,1.28-.78,1.43,1.43,0,0,0,.27-.09l-.13-.06-.13,0c-.37,0-.38-.17-.08-.36a1.21,1.21,0,0,1,1.18-.09,2.72,2.72,0,0,0,2.87-.48c.45-.35,1-.59,1.47-.9.12-.08.33-.13.25-.34s-.21-.13-.33-.13a1.44,1.44,0,0,1-1.1-.5c-.08-.09-.21-.17-.14-.32s.21-.1.33-.12.43.1.47-.15-.25-.25-.41-.34a2.25,2.25,0,0,0-.85-.12,1.56,1.56,0,0,1-1-.52c-.08-.09-.21-.2-.21-.3s.24-.1.37-.13.44.06.43-.23-.23-.31-.42-.33a2.39,2.39,0,0,1-1.62-.45c-.18-.18-.61-.39,0-.61a.53.53,0,0,0,.27-.8c-.19-.38-.49-.29-.82-.15a2,2,0,0,1-2.2-.94c-.11-.25,0-.36.25-.51.65-.47.62-.51.11-1.14a1.21,1.21,0,0,1-.28-1.15c.1-.31.22-.58-.12-.86s0-.38.22-.46a.63.63,0,0,1,.46.08c.26.09.59.43.76.14s.42-.66.21-1.06c-.07-.14-.34-.26-.07-.45a.47.47,0,0,1,.62.06,7.36,7.36,0,0,1,1.11,1.19c.06.11.12.28.25.24s.09-.21,0-.33-.14-.23-.07-.36,0-.61.26-.66.41.31.54.56a2.31,2.31,0,0,1,0,2.6,1.1,1.1,0,0,0,.25,1.47c.63.65,1.42,1.1,2,1.72s.81.38,1.18-.15.72-.73.81-1.27c-.34,0-.49.25-.71.43s-.45.12-.46-.23a.17.17,0,0,1,0-.1A17,17,0,0,0,59,65.11c0-.43.37-.43.6-.41A4.79,4.79,0,0,0,61.93,64a3.13,3.13,0,0,1,2.42-.08,9.16,9.16,0,0,0,2.6.81c.52,0,.79.74.69,1.16a4.67,4.67,0,0,0,.4,2.67,1.87,1.87,0,0,1,0,.67c0,.38-.17.46-.46.19s-.38-.45-.73-.35A3,3,0,0,0,68,70.35a.67.67,0,0,0,.22.14c.64-.73,1.33-.09,1.94,0a18.19,18.19,0,0,0,6.6-.82,31.86,31.86,0,0,1,3.36-.72,9.44,9.44,0,0,1,3.87.43,4.32,4.32,0,0,0,1.43.09.52.52,0,0,0,.53-.46.57.57,0,0,0-.31-.64.64.64,0,0,0-.78.17c-.51.55-.61.54-1,0-.2-.24-.23-.79-.73-.18-.18.22-.56-.25-.57-.64,0-.12.16-.25,0-.34a.24.24,0,0,0-.3.17c-.26,1.18-1.34.53-2,.89a.14.14,0,0,1-.2-.12.43.43,0,0,1,.11-.25,5.71,5.71,0,0,1,1.5-1.18,1,1,0,0,0,.63-1,1.56,1.56,0,0,1,1.58-1.23c.28,0,.37.21.32.48-.14.71.28,1,.88,1.11a5.85,5.85,0,0,1,1.34.5A2.25,2.25,0,0,1,86.23,71c-.09.05-.2.05-.27.12-.22.22-.8-.11-.78.47a1.16,1.16,0,0,0,1.12,1c.34,0,.72-.08,1,.19s.43.35.35.63-.37.15-.57.18-.59-.09-.58.3.32.44.64.44h.77a.81.81,0,0,1,.61.22c.15.17.35.32.26.58s-.31.13-.49.16-.52-.1-.55.19.28.39.54.41a4.29,4.29,0,0,1,.94.15,1,1,0,0,1,.68.73A.31.31,0,0,1,89.84,77.05Zm6,2.68a.49.49,0,0,1,.2.16,31.33,31.33,0,0,0,2.09,3.54.91.91,0,0,1,.09.17.31.31,0,0,1,0,.17.16.16,0,0,1-.24,0,.67.67,0,0,1-.21-.2,22.11,22.11,0,0,1-1.92-3.51A.29.29,0,0,1,95.82,79.73Z"/><path d="M59.83,84.7c.06.14.1.35.3.26a.41.41,0,0,0,.24-.47.7.7,0,0,0-.63-.61c-.26,0-.51-.06-.53-.4a.54.54,0,0,0-.32.62A.86.86,0,0,1,59.83,84.7Z"/><path d="M60.45,50.53c.21.13.5.12.63.39.45.92,1,1.78.71,2.92-.2.69.2,1,.94,1h.86c1,0,1.1-.12,1.06-1.11,0-.13,0-.25,0-.38a3.18,3.18,0,0,1,1.52-2.94,1.33,1.33,0,0,0,.55-1.59c0-.12-.13-.23-.26-.23s-.1.16-.11.24c-.06.56-.17,1.09-.77,1.33-.39.16-.7.31-.8.83s-.58.44-1,.31-.27-.41-.09-.67.23-.39,0-.51a.94.94,0,0,0-.92,0c-.22.1-.13.34,0,.5.19.35.18.63-.24.74s-.71,0-.82-.43c-.06-.25-.15-.51-.43-.59a1.34,1.34,0,0,1-1.09-1.47c0-.09,0-.24-.09-.25s-.21.1-.28.21A1.24,1.24,0,0,0,60.45,50.53Zm2.8,1.32c.33,0,.82.14.86.5.07.6-.39.7-.73.63-.54,0-1.08.16-1-.54C62.39,51.89,62.91,51.87,63.25,51.85Zm-.54,1.71a4,4,0,0,1,1,0,.46.46,0,0,1,.45.52c0,.31-.25.41-.54.4h-.85c-.24,0-.45,0-.48-.33A.46.46,0,0,1,62.71,53.56Z"/><path d="M58.85,56.24a1.8,1.8,0,0,1,1,1c0,.09.12.24.28.14a2.72,2.72,0,0,0,.07-2.22c-.23-.18-.34-.07-.41.15s-.09.44-.31.41A.58.58,0,0,1,59,55.2a2.1,2.1,0,0,1,.26-1.38c.16-.29.39-.6.22-1a.32.32,0,0,0-.27-.23c-.12,0-.15.08-.19.16a5.47,5.47,0,0,0-.78,2.14C58.27,55.44,58.35,56,58.85,56.24Z"/><path d="M64,48.83c.37.08.18.61.59.68s.39-.48.63-.68a1.4,1.4,0,0,1,.17-.09c.14-.06.35-.11.31-.3s-.26-.08-.4-.1a2.54,2.54,0,0,0-.39,0h-.76c-.13,0-.26,0-.33.14S63.81,48.79,64,48.83Z"/><path d="M61.64,49.44a.37.37,0,0,0,.57-.14,2,2,0,0,1,.34-.55c.27-.24.1-.37-.18-.4a5.42,5.42,0,0,0-.57,0H61c-.15,0-.27.19-.16.22C61.32,48.71,61.35,49.18,61.64,49.44Z"/><path d="M66.46,47.69a3.73,3.73,0,0,1,.46-.86.15.15,0,0,0-.11-.21.5.5,0,0,0-.63.42A.58.58,0,0,0,66.46,47.69Z"/><path d="M52.52,49.14c-.18,0-.3.09-.3.27s.15.09.24.09.25,0,.24-.19S52.63,49.13,52.52,49.14Z"/><path d="M54.47,46.54a.76.76,0,0,0,.06.16s.06-.05.06-.07a1.66,1.66,0,0,0-.06-.16S54.46,46.52,54.47,46.54Z"/><path d="M54.53,46.7h0a.76.76,0,0,1-.06-.16A.76.76,0,0,0,54.53,46.7Z"/><path d="M80.76,53.32h0c-.09.21,0,.33.2.39h0C81,53.52,81,53.39,80.76,53.32Z"/><polygon points="80.95 53.72 80.95 53.72 80.95 53.71 80.95 53.72"/><polygon points="80.95 53.72 80.95 53.72 80.95 53.71 80.95 53.72"/><path d="M80.75,53.33Z"/><path d="M80.76,53.32Z"/><path d="M53,46.73c.08-.07,0-.11-.1-.13l0,0C52.9,46.71,53,46.81,53,46.73Z"/><path d="M82.53,48.65s0,0,0,.05l.07-.06Z"/><path d="M82.51,48.7h0v0Z"/><path d="M84.82,60.34s0,0,.06,0,0,0,.05,0a.15.15,0,0,0-.05-.06S84.84,60.33,84.82,60.34Z"/><path d="M86.59,60.67l-.1.12.05.05C86.62,60.8,86.72,60.77,86.59,60.67Z"/><path d="M66.44,67.29c-.1,0-.1.2-.12.32-.08.52-.18,1-.72,1.27s-.75.33-.88.86-.63.39-1,.23-.14-.46,0-.7.17-.39-.06-.49a.9.9,0,0,0-.83,0c-.24.13-.15.39-.06.59s.24.44,0,.59a.76.76,0,0,1-.89-.08.74.74,0,0,1-.17-.33.88.88,0,0,0-.57-.59,1.28,1.28,0,0,1-.92-1.4c0-.1.06-.28-.14-.27s-.15.1-.21.17c-.37.51-.09,1,.14,1.42a3.3,3.3,0,0,1,1.78,3.76c-.13.68.35,1.07,1,.95a2.09,2.09,0,0,1,.66-.06c1.07.12,1.29-.12,1.17-1.17a3.76,3.76,0,0,1,.51-2.25c.38-.73,1.11-.9,1.56-1.44,0-.35,0-.71,0-1.06C66.71,67.46,66.61,67.28,66.44,67.29Zm-3.21,3.34a.64.64,0,0,1,.84.64c0,.65-.4.38-.73.34s-1,.4-1-.49C62.35,70.47,63,70.7,63.23,70.63Zm-.09,2.47c-.26-.07-.72.24-.81-.33-.06-.39.34-.62,1-.62.42,0,.77.12.86.57C64.24,73,64,73.1,63.14,73.1Z"/><path d="M59.82,74c-.06.19-.13.4-.36.37s-.4-.29-.43-.56a2,2,0,0,1,.32-1.37.93.93,0,0,0,0-1.15c-.06-.09-.21-.37-.3-.06-.22.82-.89,1.5-.81,2.34,0,.54,0,1,.49,1.26a2,2,0,0,1,1.14,1.07c0,.08.12.25.29.09a3.57,3.57,0,0,0,.17-2C60.18,73.77,60,73.49,59.82,74Z"/><path d="M52.52,67.79c-.16,0-.3.08-.3.25s.14.2.26.21a.18.18,0,0,0,.16-.06.3.3,0,0,0,.08-.16C52.7,67.91,52.69,67.78,52.52,67.79Z"/><path d="M52.64,68.19a.18.18,0,0,1-.16.06A.18.18,0,0,0,52.64,68.19Z"/><path d="M86.68,79.37c-.09-.13-.15,0-.19,0l.07.08S86.69,79.38,86.68,79.37Z"/><path d="M66.67,86.23c0-.11-.15-.28-.22-.27s-.12.18-.13.3a1.33,1.33,0,0,1-.86,1.36.92.92,0,0,0-.71.73c-.12.48-.6.42-1,.32s-.14-.44-.07-.67.19-.31,0-.42a1,1,0,0,0-.83-.06c-.25.07-.22.29-.13.47s.28.6-.19.74a.6.6,0,0,1-.87-.45c-.07-.24-.12-.49-.44-.57a1.29,1.29,0,0,1-1.06-1.47c0-.11,0-.28-.12-.31s-.18.15-.26.25c-.32.43,0,.85,0,1.28.33.3.87.41,1.09.74a3.48,3.48,0,0,1,.89,2.86c-.22.9.1,1.25,1,1.24h.87c.8,0,1.11-.32,1-1.12a3.39,3.39,0,0,1,0-1.23,3.45,3.45,0,0,1,1.87-2.44A1.5,1.5,0,0,0,66.67,86.23Zm-3.44,3a.75.75,0,0,1,.83.71c0,.61-.48.34-.76.4s-.92.18-.94-.49S62.89,89.35,63.23,89.27Zm.46,2.5H63.2c-.3-.11-.84.25-.86-.4,0-.37.54-.64,1.06-.56a2.16,2.16,0,0,1,.45.15.5.5,0,0,1,.35.52C64.16,91.78,63.91,91.77,63.69,91.77Z"/><path d="M59.83,92.67c-.06.21-.07.47-.39.41s-.38-.31-.41-.58a2.2,2.2,0,0,1,.37-1.45.91.91,0,0,0-.06-1.15c-.07-.08-.21-.21-.25,0-.14.85-.9,1.49-.8,2.39,0,.53,0,1,.5,1.29a2.46,2.46,0,0,1,1.1,1c.06.12.18.28.34,0a2.47,2.47,0,0,0,.1-2C60.15,92.39,60,92.21,59.83,92.67Z"/><path d="M52.2,98.73a.16.16,0,0,0,.22.1c.3-.16.26-.48.3-.75a1.2,1.2,0,0,0,0-.19h0C52.21,98,52.18,98.34,52.2,98.73Z"/><path d="M81.72,85.41h0c-.33-.07-.61-.08-.58.38h0A.57.57,0,0,0,81.72,85.41Z"/><polygon points="81.72 85.41 81.72 85.4 81.72 85.41 81.72 85.41"/><polygon points="81.14 85.79 81.14 85.79 81.15 85.79 81.14 85.79"/><polygon points="81.72 85.4 81.72 85.4 81.72 85.41 81.72 85.4"/><path d="M81.14,85.78h0Z"/><path d="M52.71,97.88h0a.38.38,0,0,0,.26-.26s-.09-.07-.12-.06S52.69,97.74,52.71,97.88Z"/><path d="M54.53,83.76l-.06,0a.37.37,0,0,0,0,.15s0,0,.05,0l.06-.06Z"/><path d="M54.53,84s0,0-.05,0S54.52,84,54.53,84Z"/><path d="M86.57,98s0,0,.05.06,0,0,0-.06,0,0,0-.05S86.57,98,86.57,98Z"/><path d="M54.68,98s0,0,0,0,.09,0,.08,0Z"/><path d="M54.66,98.05s0,0,0,0v0A.05.05,0,0,0,54.66,98.05Z"/><path d="M80.76,90.78h0c0,.14,0,.21.19.19h0C81,90.85,80.89,90.78,80.76,90.78Z"/><polygon points="80.96 90.98 80.96 90.98 80.95 90.97 80.96 90.98"/><path d="M81,91h0Z"/><path d="M80.76,90.79a0,0,0,0,0,0,0h0c0-.13-.07-.19-.2-.2h0C80.54,90.75,80.61,90.8,80.76,90.79Z"/><path d="M80.56,90.59Z"/><polygon points="80.56 90.58 80.56 90.59 80.57 90.59 80.56 90.58"/><polygon points="80.76 90.79 80.76 90.78 80.75 90.78 80.76 90.79"/><path d="M80.76,90.79h0A0,0,0,0,1,80.76,90.79Z"/><path d="M82.56,86l-.09.13,0,0C82.58,86.16,82.67,86.14,82.56,86Z"/><path d="M53,84.19c.13-.09,0-.13,0-.17l-.06.06A1,1,0,0,0,53,84.19Z"/><path d="M68.78,98.58a1.14,1.14,0,0,0,.11.11s.11-.11.1-.12S68.85,98.51,68.78,98.58Z"/><path d="M70.48,98.31a1.34,1.34,0,0,1-.11.14l0,0C70.51,98.46,70.61,98.43,70.48,98.31Z"/><path d="M69.25,60.64A.31.31,0,0,0,69,61c0,.07,0,.19.16.12a.39.39,0,0,0,.2-.28C69.41,60.71,69.36,60.66,69.25,60.64Z"/><path d="M69.49,60.38a.13.13,0,0,0,.05.07.27.27,0,0,0,.29-.19l0,0C69.66,60.22,69.54,60.23,69.49,60.38Z"/><path d="M70.52,61c-.14-.09-.14.11-.19.21l.08.06C70.52,61.16,70.64,61,70.52,61Z"/><path d="M69.79,60.22l0,0c.06,0,.23,0,.07-.16S69.79,60.14,69.79,60.22Z"/><path d="M69.18,79.4l.15.13a.63.63,0,0,0,.34-.41L69.56,79A.48.48,0,0,0,69.18,79.4Z"/><path d="M69.11,79.76c.1.06.17-.12.22-.23l-.15-.13C69.09,79.51,68.92,79.64,69.11,79.76Z"/><path d="M69.56,79l.11.12c.06-.05.16-.1.09-.18S69.61,78.94,69.56,79Z"/><polygon points="70.05 78.79 70.12 78.8 70.09 78.74 70.05 78.79"/><path d="M61.36,67.7a.89.89,0,0,0,.08.17c.4.58.45.58.87-.06,0-.07.06-.19.13-.23s.44,0,.35-.32-.32-.29-.55-.28h-.52c-.25,0-.67-.16-.83.13S61.26,67.45,61.36,67.7Z"/><path d="M65.15,67.58c0-.11.27-.15.41-.22a.22.22,0,0,0,.13-.23c0-.13-.12-.14-.21-.14H64.34c-.23,0-.48,0-.58.24s.31.23.37.39C64.51,68.59,64.82,68.44,65.15,67.58Z"/><path d="M61.4,86.43c0,.32.2.57.56.47s.25-.77.7-.86c0-.23-.13-.26-.26-.27l-.57,0c-.32,0-.76-.3-.95,0S61.35,86.09,61.4,86.43Z"/><path d="M64,86.18c.38.09.14.71.61.73s.29-.58.61-.72c.13-.06.35-.06.3-.27s-.3-.14-.47-.16a2.41,2.41,0,0,0-.38,0h0a5.19,5.19,0,0,0-.56,0c-.15,0-.34,0-.37.21S63.88,86.15,64,86.18Z"/><path d="M66.49,84.89a2.93,2.93,0,0,1,.71-.84c.08-.17,0-.16-.13-.18a.73.73,0,0,0-.86.84C66.24,84.83,66.36,85.09,66.49,84.89Z"/><path d="M72.44,66.27c-.08.15.12.13.21.17l.06-.07C72.64,66.25,72.5,66.16,72.44,66.27Z"/><path d="M72.34,84.94l.16.08h0C72.5,84.89,72.46,84.84,72.34,84.94Z"/></svg>