<?xml version="1.0" encoding="utf-8"?>
<!-- Generator: Adobe Illustrator 24.2.0, SVG Export Plug-In . SVG Version: 6.00 Build 0)  -->
<svg version="1.1" id="Layer_1" xmlns="http://www.w3.org/2000/svg" xmlns:xlink="http://www.w3.org/1999/xlink" x="0px" y="0px"
	 viewBox="0 0 385.9 157.7" style="enable-background:new 0 0 385.9 157.7;" xml:space="preserve">
<g id="Estonia">
	<path d="M104.1,0h2.4v157.7h-2.4V0z"/>
	<path d="M131.7,84.2h3.7c1.6,5.6,3.2,11.1,4.8,16.7h0.2c1.6-5.6,3.2-11.1,4.8-16.7h3.7V105h-2.8V89.6c-0.2,0.5-0.4,0.9-0.5,1.2
		c-1.4,4.4-2.8,8.7-4.1,13.1c-0.2,0.7-0.4,1.2-1.3,1.2s-1.2-0.5-1.4-1.2c-1.3-4.3-2.7-8.6-4-12.9c-0.1-0.4-0.3-0.7-0.6-1V105h-2.7
		V84.2z"/>
	<path d="M163.6,94v11h-2.7V88.5c2.4-0.6,2.7-0.4,3.8,1.6c1.7,3.1,3.4,6.2,5.4,9.3v-11h2.9v16.5c-2.6,0.5-2.7,0.5-3.9-1.8l-4.5-8.2
		c-0.2-0.4-0.5-0.8-0.7-1.1L163.6,94z"/>
	<path d="M195.6,93.2H193c-0.1-0.3-0.2-0.7-0.3-1.1c-0.3-1.2-1.4-2-2.6-1.8c-1.1-0.1-2.1,0.7-2.4,1.8c-0.4,1.2,0.3,2.5,1.5,2.9
		c0,0,0,0,0,0c1.2,0.5,2.4,0.9,3.6,1.4c2.4,1,3.4,2.7,3.1,5c-0.3,2.3-2.3,3.9-4.6,3.9c-1.6,0.1-3.1-0.1-4.6-0.6
		c-1.9-0.6-2.6-2.2-2.4-4.4h2.6c0.6,2.4,1.9,3.4,4.1,2.8c0.8-0.3,1.5-0.9,1.9-1.7c0.4-1,0-2.1-0.9-2.6c0,0,0,0-0.1,0
		c-1.5-0.7-3-1.2-4.5-1.8c-2.2-0.8-3.3-3.2-2.5-5.3c0-0.1,0-0.1,0.1-0.2c0.3-0.9,0.9-1.7,1.7-2.3c2.2-1.4,4.9-1.4,7.1-0.1
		C195.1,90,195.8,91.6,195.6,93.2z"/>
	<path d="M384.9,95.2v2.3h-6v5.4h7.1v2.2h-10V88.4h10v2.1h-7.1v4.7H384.9z"/>
	<path d="M342,60.5v13h-1.6V56.9c1.2-0.5,1.8,0,2.4,1c2.3,4,4.6,8,7.2,11.9v-13h1.7v16.6c-0.8,0.4-1.9,0-2.2-0.8
		c0-0.1,0-0.1-0.1-0.2c-2.1-3.7-4.2-7.3-6.4-10.9c-0.2-0.4-0.5-0.8-0.7-1.1L342,60.5z"/>
	<path d="M294.5,52.7v1.4h-9.3v7.8h8.1l0.1,1.6h-8.2v8.7h9.3v1.4h-11V52.7H294.5z"/>
	<path d="M205.2,105h-3V90.5H198v-2.1h11.4v2.1h-4.2L205.2,105z"/>
	<path d="M308.2,61.5h-1.4c-0.9-3.1-2.4-4.1-4.9-3.4c-1.2,0.2-2,1.2-2.2,2.4c-0.2,1.2,0.4,2.4,1.5,2.9c1.3,0.6,2.7,1,4,1.6
		c2.8,1.2,3.8,3,3.1,5.6c-0.1,0.3-0.2,0.6-0.4,0.9c-1.1,1.9-4,2.8-6.8,2.1c-2.4-0.6-3.5-2-3.6-4.7c1-0.4,1.6-0.3,1.8,0.9
		c0.3,1.6,1.5,2.2,3,2.4s3-0.1,3.9-1.5c0.8-1.2,0.4-2.9-0.8-3.6c-0.1,0-0.2-0.1-0.2-0.1c-1.4-0.7-2.8-1.2-4.2-1.8
		c-2.6-1.1-3.5-2.8-3-5.2c0.4-2,2.3-3.4,4.8-3.4C306.3,56.5,308.2,58.2,308.2,61.5z"/>
	<path d="M186.8,56.8h1.6c0.1,0.3,0.1,0.6,0.1,0.9c0,3.4,0,6.8,0,10.1c-0.1,4.4-3.4,6.8-7.7,5.7c-2.1-0.6-3.7-2-3.8-4.2
		c-0.2-4.2-0.1-8.3-0.1-12.5h1.6c0,2.2,0,4.3,0,6.4c0,1.6,0,3.2,0,4.9c0.1,2.6,1.7,4.2,4.1,4.2s4-1.7,4.1-4.3c0-3.2,0-6.4,0-9.6
		L186.8,56.8z"/>
	<path d="M200.6,64.9c1.7-1,2.6-3,2-4.9c-0.3-1.7-1.7-2.9-3.4-3c-2-0.2-4,0-6.1,0v16.6h5.9c2.4,0,4.3-1.9,4.3-4.2c0-0.2,0-0.4,0-0.5
		C203.2,67.1,202.1,65.6,200.6,64.9z M194.7,58.6c1.4-0.1,2.8-0.1,4.2,0c1.3,0.2,2,1.2,2,2.6c0.2,1.3-0.6,2.5-1.9,2.9
		c-1.4,0.2-2.9,0.3-4.3,0.4L194.7,58.6z M199.1,72c-1.5,0.1-2.9,0.1-4.4,0v-6.2c1.5-0.1,2.9-0.1,4.4,0c1.5,0.2,2.3,1.4,2.3,3.1
		S200.6,71.8,199.1,72z"/>
	<path d="M258.4,61.5c-0.3-2.7-2.6-4.8-5.4-4.9c-3-0.1-5.3,1.5-5.7,4.5c-0.4,2.7-0.4,5.4,0,8.1c0.3,2.8,2.9,4.9,5.7,4.6
		c2.8-0.1,5.1-2.2,5.4-5c0.2-1.2,0.2-2.4,0.3-3.6C258.6,63.9,258.6,62.7,258.4,61.5z M256.5,69.5c-0.3,1.8-1.9,3-3.7,2.9
		c-1.8,0-3.4-1-3.6-2.8c-0.3-2.9-0.3-5.8,0-8.7c0.3-1.7,1.8-3,3.6-2.9c1.7,0,3.3,1.1,3.7,2.8c0.1,0.3,0.2,0.6,0.2,0.9
		c0.1,1.2,0.1,2.3,0.2,4C256.9,67,256.7,68.2,256.5,69.5L256.5,69.5z"/>
	<path d="M335.9,61.8c-0.2-2.8-2.4-5.1-5.2-5.2c-2.9-0.3-5.5,1.7-6,4.6c-0.2,1.2-0.3,2.4-0.3,3.6c0.1,1.5,0,2.7,0.2,3.8
		c0.2,3,2.7,5.4,5.7,5.3c3,0,5.5-2.3,5.7-5.4C336.1,66.2,336.1,64,335.9,61.8z M333.9,69.3c-0.3,1.8-1.9,3-3.7,3
		c-1.9,0.2-3.5-1.2-3.8-3c-0.3-2.7-0.3-5.5,0-8.3c0.2-1.9,1.8-3.2,3.7-3.1c1.9-0.1,3.5,1.2,3.8,3.1c0.2,1.3,0.4,2.7,0.4,4.1
		C334.3,66.5,334.2,68,333.9,69.3L333.9,69.3z"/>
	<path d="M370,57.5c-0.2-0.4-0.7-0.6-1.1-0.6c-0.4,0.1-0.8,0.4-1,0.8c-1.1,3.1-2.1,6.2-3.2,9.3c-0.7,2.2-1.4,4.3-2.1,6.4
		c1.3,0.4,1.8,0.1,2.2-1.1c0.9-3.1,1-3.1,4.2-3.1s3.3,0,4.2,3c0.4,1.2,0.9,1.6,2.2,1.2C373.6,68.1,371.8,62.8,370,57.5z M366.2,67.6
		l2.7-8.4l2.7,8.4H366.2z"/>
	<path d="M288.4,88.2c0.6-1.6,2.2-2.5,3.8-2.1c1.5,0.2,2.4,1,2.8,2.8c0.1,0.5,0.2,1,0.3,1.5h2.6c0.1-3.5-1.5-5.7-4.5-6.4
		c-3.4-0.8-6.4,0.5-7.8,3.4c-1.2,2.5-1.2,12,0,14.5c1.5,2.9,4.9,4.3,8.1,3.3c2.8-0.8,4.5-3.5,4.1-6.4h-2.6c-0.1,0.6-0.2,1-0.3,1.6
		c-0.2,1.8-1.8,3.1-3.6,2.9c-0.3,0-0.7-0.1-1-0.3c-1.5-0.5-2.4-1.9-2.4-3.4c-0.1-3.3-0.1-6.6,0-9.9C288,89.2,288.2,88.7,288.4,88.2z
		"/>
	<path d="M313.9,88.4h-2.9v1.5c0,3.3,0,6.6-0.1,9.9c0.1,1.7-1.1,3.2-2.8,3.3c-0.2,0-0.3,0-0.5,0c-1.9,0-3.1-1.3-3.2-3.4
		c0-1.3,0-2.6,0-3.9v-7.4h-2.9c0,4-0.2,7.9,0,11.8c0.2,3.5,2.8,5.4,6.8,5.2c3.1,0,5.6-2.5,5.6-5.5c0-0.1,0-0.2,0-0.3
		c0-1.4,0-2.8,0-4.2L313.9,88.4z"/>
	<path d="M356.1,88.4h-2.8c0,0.8,0,1.6,0,2.3c0,3.1,0.1,6.1-0.1,9.2c0.2,1.6-1.1,3.1-2.7,3.3c-0.2,0-0.4,0-0.6,0
		c-1.9,0-3.1-1.3-3.1-3.5c0-2.7,0-5.5,0-8.2v-3h-2.9c0,4-0.2,7.9,0,11.8c0.2,3.5,2.8,5.3,6.6,5.1c3,0.1,5.6-2.3,5.7-5.4
		c0-0.1,0-0.3,0-0.4c0-3.5,0-7,0-10.4C356.2,88.9,356.2,88.7,356.1,88.4z"/>
	<path d="M234.9,90.1c-0.7,2-1.6,3.9-2.5,6.1c-1-2.4-2-4.6-2.9-6.9c-0.1-0.7-0.8-1.1-1.5-1c-0.6,0.1-1.3,0-2.1,0
		c1,2.1,1.8,4.1,2.8,5.9c1.8,2.9,2.5,6.3,2.2,9.7c0,0.4,0,0.7,0.1,1.1h2.7c0.1-0.1,0.1-0.3,0.1-0.4c0-0.4,0-0.7,0-1.1
		c-0.3-3,0.4-6,1.9-8.5c1.1-2.1,2.1-4.3,3.1-6.6c-0.5,0-0.9,0-1.3-0.1C236.1,88,235.3,88.6,234.9,90.1z"/>
	<path d="M264.6,105h2.9v-7.2h6.2v-2.2h-6.2v-5.1h7.3v-2.1h-10.2V105z"/>
	<path d="M329,90.6h4.2V105h2.9V90.5h4.2v-2.1H329V90.6z"/>
	<path d="M221.5,97.1c2.1-1.7,2.7-3.3,2-5.5c-0.6-1.9-2.4-3.3-4.4-3.2c-2.1-0.1-4.2,0-6.4,0V105h2.9v-6.7h1.8c2.9,0,3.4,0.6,3.4,3.4
		v0.7c0,2.9,0,2.9,3,2.6c0.1,0,0.1-0.1,0.2-0.2C223.3,102.2,225,98.8,221.5,97.1z M215.6,96v-5.4c3.9-0.3,5.1,0.4,5.1,2.8
		S219.6,96.3,215.6,96z"/>
	<path d="M369.3,97.1c2.1-1.7,2.7-3.4,2-5.7c-0.6-1.9-2.4-3.1-4.9-3.1c-1.9,0-3.8,0-5.8,0V105h2.9v-6.7h1.9c2.6,0,3.4,0.7,3.4,3.4
		c0,1.1,0,2.2,0,3.3h3.3C371,102.3,372.9,98.8,369.3,97.1z M368.1,95.1c-1.2,1.7-3,0.8-4.7,1v-5.6c1.6,0.3,3.4-0.7,4.6,1
		C368.9,92.6,368.9,94,368.1,95.1L368.1,95.1z"/>
	<path d="M260.6,94c-0.1-3.3-2.7-5.9-6-5.9c-3.3-0.2-6,2.3-6.2,5.6c0,0,0,0,0,0.1c-0.2,2.2-0.2,4.3,0.1,6.5c0.4,3.3,3.5,5.7,6.8,5.2
		c2.6-0.3,4.6-2.3,5.2-4.8c0.2-1.3,0.3-2.6,0.4-3.9h-0.1C260.6,95.8,260.7,94.9,260.6,94z M257.3,100.9c-0.2,1.4-1.4,2.4-2.8,2.2
		c-1.4,0.1-2.7-0.9-3-2.2c-0.3-1.3-0.4-2.7-0.5-4c0.1-1.4,0.2-2.7,0.4-4.1c0.2-1.5,1.5-2.5,3-2.4c1.4-0.1,2.7,0.9,2.9,2.3
		C257.5,95.4,257.5,98.2,257.3,100.9z"/>
	<path d="M320.9,102.8V88.3h-2.8V105h9.1c0-0.8-0.1-1.4-0.1-2.1L320.9,102.8z"/>
	<path d="M140.7,63.3c0.4-0.3,0.8-0.6,1.1-0.9c1.8-1.8,1.9-3.9,1.3-6.2c-0.4-1.9-2-3.3-3.9-3.4c-2.5-0.2-5,0-7.5,0v20.8l1.7-0.1
		v-9.4c1.5,0,3,0,4.4,0c2.5,0,3.8,1.3,3.9,3.9c0.1,1.3,0,2.7,0.2,4c0.2,1.7,0.6,1.9,2.1,1.4c-0.2-1.3-0.4-2.7-0.5-4
		C143.4,67,143.5,64.5,140.7,63.3z M138.3,62.5c-1.3,0.1-2.7,0.1-4,0.1c-0.3,0-0.6-0.1-0.9-0.1v-8.4c1.7,0,3.2-0.1,4.8,0
		c2.3,0.1,3.5,1.5,3.5,4C141.8,60.8,140.7,62.2,138.3,62.5z"/>
	<path d="M169.4,57c-2.2-0.1-4.5-0.2-6.7-0.1v16.5h1.8v-6.3c1.5,0,3,0.1,4.4,0c2.5-0.2,4.1-2.1,4.2-4.9S171.7,57.2,169.4,57z
		 M171.3,62.5c-0.1,1.9-1.2,3.2-2.9,3.3c-1.2,0.1-2.5,0-3.9,0v-7.5c1.4-0.1,2.9-0.1,4.3,0C170.5,58.5,171.4,60.2,171.3,62.5
		L171.3,62.5z"/>
	<path d="M149,73.5h9.4v-1.4h-7.6v-6.6h6.7c0-0.5,0-0.9-0.1-1.4h-6.6v-5.8h7.6v-1.3H149V73.5z"/>
	<path d="M236.3,62.1h-1.5c-0.1-0.5-0.2-1-0.3-1.5c-0.3-1.3-1.3-2.2-2.6-2.4c-1.3-0.4-2.7,0.1-3.5,1.2c-1.9,2.2-1.9,9.6,0,11.8
		c0.9,1.1,2.3,1.5,3.6,1.1c1.3-0.2,2.3-1.2,2.5-2.5c0.1-0.4,0.2-0.9,0.3-1.4h1.4c0.7,3.4-2.6,6.2-6.2,5.4c-2.4-0.5-4.2-2.6-4.4-5
		c-0.2-2.4-0.2-4.7,0-7.1c0.2-3,2.8-5.3,5.7-5.1c0.1,0,0.2,0,0.3,0C234.6,56.7,236.5,58.8,236.3,62.1z"/>
	<path d="M264.8,73.5H263V56.9h9.5c0,0.4,0,0.8,0.1,1.4h-7.7v6.1h6.6v1.6h-6.7L264.8,73.5z"/>
	<path d="M180.5,105h-2.8V88.4h2.8V105z"/>
	<path d="M156.3,105.1h-2.7V88.4h2.7V105.1z"/>
	<path d="M207.4,56.9h1.6v15.2h6.6v1.4h-8.3L207.4,56.9z"/>
	<path d="M315.3,58.2h-4.4v-1.4h10.6v1.4h-4.5v15.3l-1.8,0.1V58.2z"/>
	<path d="M359,73.5h-1.6V56.9h1.6V73.5z"/>
	<path d="M221,73.5h-1.6V56.9h1.6V73.5z"/>
	<path d="M42.1,89.2c-0.6-0.3-1.3-0.5-2-0.5c-1.1,0-2.1,0.4-3,0.9c-0.9,0.9-1.7,1.9-2.3,3c-0.2,0.3-0.1,0.9-0.2,1.4l0.3,0.2l4.2-3.5
		c-0.8,1.9-3.1,2.6-2.5,5.2l3.7-3.4c-0.2,0.9-0.5,2-0.9,3.3c0.7-0.3,1.4-0.6,2.1-0.9c0.8-0.2,1.9,0.1,2.5-0.3s0.9-1.4,1.5-2.4
		c0.2,0.8,0.4,1.5,0.6,2.2c1.1,0,2.2-0.6,2.7-1.6c0.6-0.9,1.3-1.8,2.1-2.6c0.3,1,0.4,1.6,0.6,2.2c1.2-0.5,1.8-1.9,1.3-3.1
		c0,0,0-0.1,0-0.1c-0.3-1-0.3-2,1-2.5c0.2,0.9,0.4,1.8,0.6,2.7c1.1-0.5,1.7-1.8,1.2-2.9c0,0,0,0,0-0.1c-0.3-1.1-0.4-2.1,1-2.7
		l0.7,2.8c1-0.6,1.6-1.4,1.2-2.7s0.4-2.2,1.4-2.9s1.1-1.6,0.1-2.5c-1.3-1-3.1-1.2-4.6-0.6C55.2,78,55,78.1,55,78.2
		c-0.1,1.9-1.6,1.8-2.7,1.9c-4.2,0.4-6.3,2.8-7.3,6.8l2.2-0.2c-0.4,0.3-0.7,0.7-1,1.1C45,89.4,44,89.8,42.1,89.2z"/>
	<path d="M60,113.7c-1-0.5-2.1-0.8-3.2-0.9c-0.9-0.1-1.9,0-2,1.4c0,0.3-0.7,0.7-1.2,0.8c-1,0.3-2,0.4-3,0.6c-2.3,0.4-4.1,2-4.9,4.1
		c-0.3,0.7-0.6,1.4-0.9,2.2c0.2,0,0.4,0.1,0.6,0.1c0.6-0.1,1.2-0.1,1.8-0.2c-0.4,0.3-0.7,0.7-1.1,1.1c-1.3,1.8-2.2,2.1-4.3,1.5
		c-0.7-0.2-1.3-0.4-2-0.5c-1.4-0.2-2.8,0.5-3.5,1.7c-0.4,0.6-1,1.2-1.3,1.8c-0.2,0.6-0.4,1.1-0.5,1.7l0.5,0.2l4-3.2
		c-2.4,2.5-2.9,3.3-2.2,4.8l3.4-3.1l-0.7,3.2c0.7-0.4,1.4-0.7,2.2-0.8c2.9,0,3,0,3.9-2.6l0.6,2c1.1,0.1,2.1-0.4,2.6-1.4
		c0.6-0.9,1.3-1.7,2.2-2.8c0.3,1,0.5,1.6,0.6,2.2c1.2-0.5,1.8-1.9,1.3-3.2c0,0,0-0.1,0-0.1c-0.4-0.9-0.1-2,0.8-2.4
		c0.1,0,0.1-0.1,0.2-0.1c0.2,0.9,0.4,1.9,0.7,2.8c1.1-0.5,1.7-1.8,1.2-3c0,0,0,0,0,0c-0.5-1.6-0.3-1.8,1-2.6
		c0.2,0.9,0.4,1.8,0.6,2.7c1-0.5,1.5-1.7,1.1-2.7c-0.3-1.2,0.4-2.1,1.4-2.8S61.2,114.4,60,113.7z"/>
	<path d="M42.5,54.2c-0.7-0.2-1.4-0.5-2.1-0.6c-1.4-0.4-2.9,0.1-3.7,1.2c-0.6,0.7-1.2,1.5-1.7,2.4c-0.2,0.5-0.4,1-0.4,1.6l0.4,0.2
		l4.4-3.5c-0.9,2-3.2,2.6-2.7,5.3l3.6-3.4c-0.2,0.9-0.5,2-0.8,3.2c0.7-0.4,1.4-0.7,2.2-0.8c2.7,0.1,2.9,0,3.9-2.6
		c0.2,0.6,0.4,1.3,0.6,2c1,0.1,2.1-0.4,2.6-1.3c0.7-0.9,1.3-1.8,2.2-2.9l0.7,2.2c1.2-0.5,1.8-1.9,1.3-3.1c0,0,0-0.1,0-0.1
		c-0.5-0.9-0.1-2,0.7-2.4c0.1,0,0.2-0.1,0.3-0.1c0.2,1,0.5,1.9,0.7,2.8c1.1-0.5,1.6-1.8,1.1-3c0,0,0,0,0,0c-0.5-0.9-0.1-2,0.8-2.5
		c0.1,0,0.1-0.1,0.2-0.1c0.2,0.9,0.4,1.8,0.6,2.7l0.5,0.2c0.3-0.8,0.9-1.7,0.7-2.4c-0.3-1.4,0.3-2.8,1.6-3.3
		c0.8-0.5,0.8-1.1,0.5-1.8c-0.7-1.5-4-2.2-5.3-1.1c-0.2,0.1-0.2,0.4-0.3,0.6c-0.4,0.4-0.8,1-1.3,1.2c-0.9,0.3-1.8,0.5-2.7,0.6
		c-2,0.3-3.8,1.5-4.7,3.3c-0.5,1-0.9,2-1.4,3.2l2.4-0.2c-0.5,0.6-1,1.2-1.5,1.8C44.9,54.2,43.7,54.6,42.5,54.2z"/>
	<path d="M39.8,108.1c1.4,0.5,2.9,0.6,4.4,0.4c4.6-1,9.1-2.2,13.6-3.4c0.2-0.1,0.4-0.2,0.6-0.4c1.3-0.9,2.6-1.8,3.8-2.7
		c0.2-0.2,0.4-0.5,0.6-0.7c-0.3,0-0.7,0-1,0c-3.2,0.9-6.3,1.8-9.5,2.7c-2.9,0.8-5.8,1.5-8.8,2c-1.1,0-2.3-0.3-3.2-0.8
		c-0.3-0.1-0.4-1-0.4-1.6c0-0.2,0.8-0.5,0.8-0.5c0.3,0.4,0.6,0.8,0.8,1.2c0.1,0.1,0.3,0.3,0.5,0.4c0.6-0.3,1.6-0.4,1.9-1
		s0-1.5-0.1-2.5c0.5,0.6,1,1.2,1.6,1.9c2.1-0.3,4-1.3,5.4-2.8c-2.8-0.4-5.5-0.8-8.2-1c-1-0.1-2,0.1-3,0.5c-1.8,0.6-3.1,2.2-3.2,4.2
		C36.5,106,37.9,107.6,39.8,108.1z"/>
	<path d="M50.8,65.2c-2.3-0.3-4.6-0.6-6.8-0.9c-1.6-0.3-3.4-0.1-4.9,0.6c-1.6,0.7-2.6,2.2-2.7,3.9c0,1.8,1.1,3.4,2.8,3.9
		c1.4,0.5,2.9,0.7,4.3,0.6c6-0.8,12-1.8,17.1-5.5c0.5-0.3,1-0.6,1.4-0.9c0.2-0.2,0.4-0.4,0.6-0.6c-0.4-0.2-0.9-0.3-1.4-0.1
		c-4.4,1.3-8.7,2.7-13.1,3.8c-1.9,0.4-3.9,0.7-5.9,0.7c-1.1,0.2-2.1-0.5-2.4-1.5c-0.1-0.4,0.3-0.9,0.5-1.4c0.4,0.3,0.8,0.5,1.2,0.8
		c0.1,0.1,0,0.4,0,0.6c2.6,0,3.2-0.9,2.4-3.2c0.4,0.6,0.9,1.1,1.4,1.8C47.4,67.7,49.3,66.7,50.8,65.2z"/>
	<path d="M40.6,37.9c2.2,0.3,4.4,0.2,6.6-0.3c4.9-1.3,10-1.9,14.1-5.4c0.5-0.3,0.9-0.6,1.4-0.9c-0.1-0.2-0.2-0.4-0.2-0.5
		c-1,0.2-2,0.4-2.9,0.6c-4,1.2-7.9,2.5-11.9,3.5c-2,0.4-4.1,0.6-6.2,0.4c-0.6,0-1.3-0.8-1.7-1.4c-0.1-0.2,0.4-0.9,0.6-1.3
		c0.4,0.3,0.7,0.5,1.1,0.8c0.1,0.1,0,0.4,0.1,1.1c1-0.6,2-0.8,2.4-1.4c0.3-0.4-0.2-1.4-0.4-2.4l1.8,1.9c2-0.2,3.9-1.2,5.2-2.8
		c-2-0.3-4.2-0.6-6.4-0.8c-1.1-0.2-2.3-0.2-3.5-0.1c-2.4,0.2-4.2,2.1-4.4,4.5C36.5,35.9,38.3,37.7,40.6,37.9z"/>
	<path d="M77.7,50.5c-0.7-0.2-1.4-0.3-2.1-0.2c-1,0-1.6-0.4-1.9-1.5h3.1c-0.4-1.8-1.7-1.8-3-1.7c-1,0.2-2-0.4-2.3-1.4
		c0-0.1,0-0.2,0-0.3h3.2c-0.7-1-1-2.1-2.3-1.8c-1.9,0.4-2.6-0.9-3.2-2.2c1.2-0.4,2.3-1,3.4-1.6c2.5-1.6,2.8-4.5,0.5-6.5
		c-1.2-0.9-2.6-1.6-4-2c-1.8-0.6-2.2-1.1-1.3-2.9c-2.6-0.5-4,0.5-4.2,2.9c0,0.3-0.5,0.7-0.8,0.9c-1.3,1.1-2.7,2.1-4.1,3.1
		c0.1,0.1,0.2,0.2,0.2,0.3l3.8-0.5l1.7-2.4c-0.1,0.8-0.1,1.5-0.1,2.3c0.1,0.2,0.8,0.3,1,0.4c0.5-0.8,0.9-1.5,1.3-2.1l0.3,0.2
		c-0.9,1.8-0.5,2.7,1.3,3c0.1-0.1,0.1-0.3,0.2-0.5c0.5-0.3,1-0.7,1.4-1c0.3,0.5,1,1,0.9,1.3c-0.2,0.5-0.7,1-1.2,1.2
		c-0.6,0.1-1.2,0.1-1.8-0.1c-4.5-1.3-9.2-1.3-13.7,0c-4.5,1.3-9.1,2.4-13.8,2c-1.3-0.1-2.6-0.3-3.8-0.5c0.2,1.1,0.4,2.1,0.6,3.2
		c-0.8-1-1.6-1.9-2.4-2.8c-0.8-0.5-1-1.5-0.5-2.3c0,0,0,0,0,0l1.3,0.4c-0.5-1.4-0.9-2.7-1.2-4.1c-0.1-1.3-0.1-2.6,0-3.9h-0.3l-2,2.5
		c-1.1-1.4-1-1.9,0.7-2.6c0.5-0.3,0.9-0.6,1.4-1c-1.6-0.4-3.2-0.8-4.8-1.4c-1.6-0.7-3.3-1.3-5-0.9c-2.3,0.6-4.6,1.5-7.1,2.4
		c0.4,0.3,0.8,0.6,1.3,0.9c1.6,0.7,1.7,1.3,0.6,2.5l-2.2-2.6c-0.1,0.4-0.2,0.9-0.1,1.3c0.3,1.4,0.2,2.9-0.5,4.1
		c-0.3,1-0.4,1.9-0.5,2.9l1.1-0.6l0.4,0.2c-0.2,0.7-0.4,1.4-0.8,2c-0.7,1-1.6,1.8-2.6,3c0.2-1.1,0.3-2,0.5-2.9
		c-0.9-0.7-1.9-1.5-2.7-2.3c-1.6-1.5-1.6-1.9-0.6-3.8c0.9-2,0.4-4.4-1.3-5.9c-0.1-0.1-0.3-0.1-0.4-0.1C9.1,28.4,9,29.5,8.9,31
		c-1.1-3-2.7-4.2-4-3.5c0.1,0.8,0.2,1.5,0.4,2.3l1.3,1c-1.9,0-3.5-1.4-5.4-0.4l1.3,0.9c-1,3-0.5,3.7,2.3,4.1c0.2,0,0.4,0.4,0.6,0.5
		c-0.2,0.1-0.5,0.3-0.7,0.2c-0.6-0.4-1.4-0.2-1.8,0.4c-0.1,0.1-0.1,0.3-0.2,0.4c-0.1,0.2-0.7,0.2-1.4,0.5c0.8,0.8,1.4,1.4,2.1,2
		c0.7,0.8,1.8,1.1,2.8,0.7c0.8-0.3,1.6-0.8,1.9,0.3s-0.6,1.3-1.5,1.5c-0.1,0-0.1,0.1-0.2,0.2c0.8,1.1,1.6,1.9,3.2,1.4
		c0.6-0.2,1.3,0.4,2,0.6l-0.1,0.4l-2,0.5c0.8,1.2,1.6,1.8,3.1,1.3c0.5-0.2,1.3,0.4,1.9,0.6c0,0.1-0.1,0.3-0.1,0.4l-1.8,0.5l-0.1,0.3
		l2.6,1.5c-0.9,0.5-2,1.1-2.9,1.8c-1.9,1.4-3.9,2-6.2,1.1c-1.1-0.5-2.4-0.1-3,0.9l1.5,0.2c-0.9,0.3-1.7,0.7-2.5,1.3
		c-0.5,0.7-0.9,1.5-1.2,2.4c-0.6,1.5-0.7,2-0.6,2.1c0.6-0.2,1.3-0.6,1.9-0.5c0.9,0.2,1-0.2,1.2-0.8c0.3-1.6,0.8-2,2.1-2.1
		c-1.5,1.4-2.4,3.9-2,4.6l4.1-1.1c-0.2-1.6,0.1-2.2,1.5-2.5c-0.7,0.8-1.4,1.6-0.4,2.7C9,59.9,9.3,60.4,9.8,61c0.6-0.5,1.3-1.1,2-1.6
		c0.9-0.5,1.2-1.5,0.7-2.4c0,0,0,0,0,0c-0.1-0.3,0.2-0.8,0.4-1.2c0.4,0.1,0.9,0.3,1.2,0.6c0.2,0.2,0.1,0.7,0.1,0.9
		c1.8,0.6,2.7-0.2,3.6-1.6c0.3-0.5,1.1-0.7,1.7-1.1l0.3,0.4c-0.5,0.8-1,1.5-1.5,2.3c2.6,0.3,2.8,0.2,4.1-2.5
		c-1.6-1.7-1.8-3.6-0.5-5.9c0.8,0.4,1.2,1.4,0.9,2.2c-0.3,1.6,0.2,2.3,1.8,2.8c0.6-0.9-0.6-2.5,1.1-3c0.2,1.6,0,3.1,0.6,4.2
		c0.6,1.3,1.8,1.2,3.6,0.1l-2.4-1.6c0.2-0.8,0.2-1.7,0.2-2.5c-0.2-1.1,0.2-1.7,1.3-2.4c0.2,1.3,0.3,2.5,0.5,3.7
		c0,0.3,0.2,0.5,0.4,0.7c1.7,1.5,2.4,1.6,4.5,0.2c-1.9-0.7-3.1-1.8-2.7-4c0-0.4-0.1-0.8-0.4-1.2c-0.5-0.8-0.4-1.9,0.4-2.5
		c0.3,0.5,0.6,1,1,1.5c1.5-1.5,1.6-2,0.7-3.7c-0.2-0.7-0.3-1.4-0.2-2.1c2.5,2,2.9,3.7,1.6,5.8c-0.4,0.5-0.8,1-1.1,1.6
		c-0.3,0.5-0.4,1.2-0.2,1.8c0.6,1.5,3.4,2.1,4.8,1.1c-0.9-1-0.8-1.4,0.2-2c4.1-1.9,8.1-3.9,12.2-5.8c1.7-0.9,3.5-1.6,5.4-2.2
		c1.4-0.2,2.7,0,4,0.5c1.2,0.4,1.9,1.8,1.5,3c-0.7,3.3,0.3,5.2,3.5,6.4c0.8,0.4,1.5,0.9,2.1,1.5L67,53.5c1.8,0.3,2.8-2.2,4.7-1.2
		c0.4,1.7,0,2.2-1.6,2.1c-0.3,0-0.7,0-1-0.1c-1.1-0.3-2.2,0.2-2.8,1.1c-0.6,1.3-1.1,2.6-1.6,4l0.6,0.3c0.6-0.8,1.2-1.6,1.9-2.3
		c0.5-0.5,1-1,1.6-1.4c0.1,0.1,0.2,0.2,0.2,0.3c-1.3,0.9-2,3.2-1.4,4.3l2.9-1.4l1.6-2.6l0.5,0.2c-1.5,1.7,0.1,2.7,0.4,3.7
		c0.9-0.4,1.8-0.7,2.8-0.9c1.7-0.3,2.6-1.1,2.3-2.5c-0.3-1.6-0.5-3.1-0.8-4.9l1.6,0.5C79.1,51.8,78.6,50.8,77.7,50.5z M30.1,30.9
		c-1.8,0.3-2.1-1.2-3-2.1C29,28.5,29.2,30,30.1,30.9z M30.7,32.8l-0.8,1c-0.2,0.3-0.5,0.6-0.7,0.9s-0.6,0.8-1,0.8s-0.7-0.5-1-0.8
		c-0.3-0.4-0.6-0.8-0.9-1.3C27.4,32.1,29.2,33.4,30.7,32.8z M27.5,31.1c-2.6,0.3-2.5-1.9-3.9-3C26,28,26.1,30.1,27.5,31.1z
		 M23.7,30.8c-1.6,0.3-1.9-1.1-2.9-2C22.8,28.5,22.9,30.1,23.7,30.8z M24.5,33.2c-0.3,0.5-0.6,0.9-0.9,1.4c-0.3,0.8-0.9,1.1-1.5,0.6
		c-0.7-0.8-1.3-1.6-1.9-2.5C21.6,33.3,23.4,32.2,24.5,33.2z M19.5,48.1c-0.3,1.2-0.6,2.3-0.7,3.5c-0.4-0.4-0.7-0.9-1-1.3
		c-0.4-0.8-0.8-1.5-1.2-2.3c-1.9-2.5-1.6-4.4,1.2-6.5c0,0.6-0.1,1.3-0.3,1.9c-0.9,1.6-0.8,2.3,0.6,3.8c0.3-0.5,0.6-1,1-1.5
		C19.8,46.3,20,47.3,19.5,48.1z M30.6,37.7c-1.7,1.3-2.6,3.5-2.5,5.6c0.4,2.2-0.1,2.8-2.3,2.6c-0.5,0-0.9,0-1.4,0.1
		c-1.5,0.1-2.3-0.6-1.9-2c0.6-2.2-0.6-3.9-1.5-5.7c-0.1-0.3-0.6-0.3-0.9-0.5c-1.4-0.7-1.9-2.5-1.2-3.8c0.1-0.1,0.1-0.2,0.2-0.4
		c0.4,2.7,0.6,2.9,2.8,3.5c0.7,2.3,1.4,2.8,3,1.5c-0.2-0.6-0.5-1.2-0.8-2h2.5c-0.3,0.7-0.5,1.3-0.8,1.9c1.1,1.1,2.3,0.9,2.8-0.6
		c0.1-0.3,0.3-0.9,0.5-1c1.9-0.4,2.4-1.7,2.4-3.4c1,1.2,0.8,2.9-0.4,3.9C31,37.5,30.8,37.6,30.6,37.7z"/>
	<path d="M76.4,120.6c-1.1,0-2.3,0.2-2.6-1.5h3.1c-0.5-1.7-1.7-2-3.1-1.8c-1,0.3-2.1-0.4-2.3-1.4c0-0.1,0-0.2-0.1-0.3h3l0.2-0.5
		c-0.7-0.4-1.5-1.2-2.2-1.1c-2,0.2-2.7-1-3.3-2.3c1.3-0.5,2.5-1.1,3.6-1.7c1.8-1,2.4-3.3,1.3-5.1c-0.2-0.4-0.5-0.7-0.9-1
		c-1.2-0.9-2.4-1.6-3.8-2.2c-0.6-0.3-1.6-0.4-1.9-0.9s-0.1-1.4-0.1-2.2c-2.2-0.3-3.9,0.7-3.9,2.6c0,0.8-0.4,1.1-0.9,1.4
		c-1.4,1-2.7,2-4,3.1l0.2,0.2l3.9-0.5l1.7-2.4c-0.1,0.8-0.1,1.6-0.1,2.4c0.1,0.2,0.8,0.3,1,0.4c0.5-0.8,0.9-1.4,1.3-2l0.3,0.2
		c-0.8,1.8-0.3,2.7,1.4,2.9c0.1-0.2,0.1-0.4,0.2-0.5c0.4-0.4,0.9-0.7,1.5-0.8c0.2,0,0.9,0.8,0.8,1c-0.2,0.5-0.6,1-1.1,1.3
		c-0.5,0.2-1.1,0.2-1.6,0c-5.1-1.6-10.1-1.3-15.2,0.2c-4.7,1.4-9.6,2.4-14.5,1.6l-1.9-0.3c0.2,1.1,0.4,2.1,0.6,3.3
		c-0.7-1-1.5-1.9-2.4-2.8c-0.8-0.7-1.1-1.4-0.5-2.4L35,108c0.4-2.9-2.1-5.2-0.6-8h-0.5l-2.1,2.5c-1.1-1.2-1-1.8,0.6-2.5
		c0.5-0.3,0.9-0.6,1.4-0.9l-0.2-0.3c-0.9,0-1.8-0.1-2.7-0.3c-1.2-0.4-2.4-1.3-3.7-1.5c-1.5-0.1-3.1,0-4.6,0.3
		c-1.7,0.3-3.1,1.7-4.9,1.4c-0.2,0-0.5,0.1-1.1,0.3c0.6,0.4,1.2,0.8,1.8,1.1c1.5,0.7,1.6,1.3,0.5,2.4l-2.4-2.7
		c-0.1,0.6-0.1,1.2,0,1.8c0.3,1.2,0.2,2.4-0.4,3.4c-0.3,1.1-0.6,2.2-0.7,3.3l1.6-0.8c-0.1,0.8-0.3,1.5-0.6,2.2
		c-0.8,1-1.7,1.9-2.8,3.1c0.2-1.1,0.4-2,0.5-3c-0.8-0.6-1.6-1.2-2.4-1.9c-1.9-1.8-2.2-2.3-0.9-4.5c1.1-1.7,0-4.8-1.9-5.7
		c0,1.1-0.1,2.3-0.1,3.7c-1.2-2.9-2.8-4.1-4-3.5c0.1,0.8,0.3,1.5,0.4,2.3l1.3,1c-1.8,0-3.4-1.3-5.4-0.3l1.3,0.9
		c-1,2.9-0.6,3.7,2.4,4c0.2,0,0.4,0.3,0.6,0.5c-0.2,0.2-0.4,0.3-0.7,0.4c-0.6,0.1-1.2,0.2-1.7,0.3c-0.5,0.3-1,0.8-1.4,1.2
		c0.6,0.4,1.1,0.9,1.6,1.4c0.7,1.2,2.3,1.5,3.4,0.8c0,0,0,0,0,0c0.7-0.4,1.4-0.3,1.5,0.5c0.1,0.4-0.5,1-0.9,1.4
		c-0.1,0.2-0.5,0.1-0.9,0.2c0.9,1.1,1.7,2,3.3,1.5c0.6-0.2,1.3,0.3,2,0.5l-0.1,0.4l-1.9,0.5c0.5,1.2,1.9,1.7,3.1,1.3
		c0.5-0.1,1.3,0.4,1.9,0.6l-0.1,0.4l-1.9,0.5c0.8,1.1,1.6,2,3.2,1.4c-1.3,0.9-2.7,1.6-3.9,2.5c-1.6,1.3-3.7,1.6-5.6,0.9
		c-1.1-0.6-2.5-0.2-3.2,0.8l1.6,0.2c-1.3,0.4-2.4,1.2-3.3,2.2c-0.6,1.1-1,2.2-1.3,3.5c0.8-0.1,1.7-0.2,2.5-0.3
		c0.4-0.1,0.6-0.5,0.8-0.8c0.1-1.1,0.9-2,2-2.3c-0.9,1.7-1.9,3.1-1.8,5.1c1.1-1.5,2.6-1.2,4.1-1.2c-0.3-1.9,0-2.5,1.5-2.9
		c-1.1,1.3-1.2,2-0.3,2.8c0.4,0.4,0.8,0.9,1.1,1.4c0.5-0.4,1.2-1,1.9-1.5c0.9-0.6,1.3-1.3,0.8-2.5c-0.1-0.3,0.3-0.8,0.4-1.2
		c0.4,0.1,0.8,0.4,1.2,0.6c0.2,0.2,0.1,0.7,0.1,0.9c1.3,0.6,2.8-0.1,3.4-1.4c0-0.1,0.1-0.1,0.1-0.2c0.3-0.8,1.1-1.2,1.9-0.9
		c0.1,0,0.1,0.1,0.2,0.1l-1.5,2.4c2.5,0.4,2.7,0.2,4.1-2.5c-1.6-1.8-1.8-2.9-0.6-5.9c0.9,0.4,1.3,1.4,1,2.2
		c-0.3,1.6,0.2,2.3,1.9,2.8c0-0.8,0-1.5,0-2.2c0-0.3,0.4-0.5,0.6-0.7c0.2,0.2,0.5,0.4,0.6,0.7c0,0.7,0,1.5,0.1,2.2
		c0.1,0.6,0.5,1.2,0.9,1.7c1.1,1.1,2.1,0.3,3.2-0.3l-2.4-1.6c0.2-0.8,0.3-1.6,0.2-2.4c-0.3-1,0.2-2,1.2-2.4c0.3,1,0.5,2,0.5,3
		c0,0.7,0.3,1.3,0.9,1.7c1.4,1.2,2.6,0.9,3.9,0c-0.9-1.1-3.1-1.1-2.5-3.3c0.3-1.4-1.7-2.9-0.1-4.4c0.3,0.5,0.6,1,0.9,1.5
		c1.5-1.3,1.6-2,0.8-3.6c-0.2-0.6-0.3-1.3-0.3-1.9c2.6,2,2.9,3.8,1.3,6c-0.3,0.4-0.7,0.7-0.8,1.1c-0.2,0.6-0.2,1.3,0,1.9
		c1.1,1.5,3.1,1.9,4.7,1.1c-1-1.2-0.8-1.5,0.5-2.1c3.1-1.4,6.2-2.8,9.2-4.3c2.3-1.1,4.5-2.3,6.9-3.3c1.2-0.4,2.5-0.6,3.8-0.4
		c1.7,0,3,1.4,2.9,3.1c0,0.2,0,0.4-0.1,0.6c-0.7,3.1,0.3,5.1,3.4,6.2c1.1,0.4,2,0.8,2.1,2.2l4.6-1.8c0.7,2.2,0.2,2.7-1.9,2.5
		c-1.4-0.1-2.8-0.1-3.5,1.4c-0.5,1.2-0.8,2.4-1.1,3.7c0,0,0.1,0.1,0.4,0.4c0.6-0.9,1.3-1.7,2-2.5c0.6-0.5,1.2-1,1.9-1.4
		c-1.5,1.6-2.2,3.3-1.6,4.7l3.3-1.6c0.3-1.7,0.5-2,1.9-2.3c-1.7,1.6-0.1,2.7,0.2,3.7c0.9-0.4,1.8-0.7,2.8-0.9
		c1.8-0.3,2.6-1.2,2.3-2.6s-0.5-3-0.8-4.7l1.6,0.4C79,121.4,78.3,120.7,76.4,120.6z M30.7,103.3l-1.1,0.9c-0.2,0.1-0.3,0.3-0.5,0.5
		c-0.4,0.4-0.7,0.8-1,1.2l-1.2-1.3l0.2-0.3H26c1.4-1.8,3.3-0.5,4.6-1.3L30.7,103.3z M30.3,101.3c-2,0.2-2.3-1.2-3.2-2.2
		C29,98.9,29.1,100.5,30.3,101.3z M27.5,101.6c-2.5,0.2-2.5-1.9-3.5-2.9C26,98.5,26.1,100.5,27.5,101.6z M24,101.3
		c-1.8,0.2-2.1-1.2-3-2.2C22.8,98.9,23,100.4,24,101.3z M24.4,103.6c-0.4,0.7-0.7,1.1-0.9,1.5c-0.3,0.8-1.3,1-1.4,0.5
		c-0.2-1.3-1.6-1.4-2-2.7C21.6,103.6,23.3,102.5,24.4,103.6L24.4,103.6z M19.2,121.8l-0.4,0.2c-0.4-0.4-0.7-0.9-1-1.4
		c-0.3-0.7-0.6-1.4-1-2c-2-2.5-1.8-4.4,1-6.7c0,0.6-0.1,1.3-0.3,1.9c-0.9,1.6-0.8,2.3,0.6,3.8l1-1.5
		C20.8,118.1,18.1,119.9,19.2,121.8L19.2,121.8z M30.7,108.1c-1.7,1.3-2.7,3.4-2.5,5.6c0.5,2.2,0,2.8-2.3,2.6c-0.5,0-0.9,0-1.4,0.1
		c-1.5,0.2-2.3-0.6-1.9-2c0.6-2.3-0.5-4-1.5-5.7c-0.1-0.3-0.6-0.4-0.9-0.5c-1.4-0.8-1.9-2.5-1.1-3.9c0.1-0.2,0.2-0.3,0.3-0.5
		c-0.2,2,0.4,3.2,2.3,3.6c0.2,0,0.4,0.4,0.5,0.7c0.5,1.6,1.2,1.9,2.9,1c-0.3-0.7-0.5-1.3-0.8-2.1h2.5c-0.3,0.7-0.5,1.4-0.8,2
		c1.4,1.1,2.3,0.8,2.8-0.9c0.1-0.3,0.2-0.5,0.5-0.7c2.1-1.1,2.1-1.1,2.5-3.4c0.9,1.3,0.5,3.2-0.8,4.1
		C30.8,107.9,30.8,108,30.7,108.1L30.7,108.1z"/>
	<path d="M2,94c0.9,0.2,1.2,0,1.3-0.8c0.1-1.1,0.9-2,2.1-2.2c-1.4,1.7-2.2,4-1.7,5.2c0.9-1.7,2.4-1.4,3.9-1.3c-0.3-2,0-2.5,1.5-2.9
		c-0.9,0.9-1.4,1.7-0.3,2.7c0.4,0.4,0.8,0.9,1.1,1.4c0.5-0.4,1.1-1,1.8-1.4c0.9-0.7,1.5-1.4,0.8-2.6c-0.1-0.2,0.2-1,0.4-1.1
		c0.5,0,0.9,0.1,1.3,0.4c0.2,0.2,0.2,0.7,0.2,1c1.5,0.4,2.7,0,3.3-1.4c0.3-0.8,1.1-1.3,2-1c0.1,0,0.2,0.1,0.2,0.1l-1.4,2.3
		c2.6,0.3,2.9,0.1,4-2.5c-2-1.7-1.3-3.8-0.6-5.9c1,0.4,1.4,1.5,1.1,2.5c-0.3,1.4,0.4,2.3,1.9,2.5c0.3-2.9,0.3-2.9,1.3-2.8
		c0,0.9,0,1.8,0,2.7c-0.1,1,0.5,1.9,1.5,2.1c0,0,0.1,0,0.1,0c1,0,1.9-0.2,2.8-0.5l-2.8-1.8c0.2-0.8,0.3-1.6,0.2-2.4
		c-0.3-1,0.2-2,1.2-2.4c0.2,1.1,0.4,2.2,0.6,3.2c0,0.3-0.1,0.7,0.1,0.9c0.9,1.3,2.7,1.7,4,0.8c0.2-0.1,0.4-0.3,0.6-0.5
		c-1.7-0.7-3-1.7-2.5-3.8c0-0.5-0.1-0.9-0.4-1.3c-0.5-0.8-0.4-1.9,0.4-2.5l1,1.5c1.5-1.6,1.6-2,0.7-3.7c-0.2-0.7-0.3-1.4-0.2-2.1
		c2.4,2,2.8,3.5,1.8,5.5c-0.3,0.6-0.9,1.1-1.2,1.7c-0.3,0.6-0.4,1.2-0.3,1.9c0.6,1.4,3.4,2.1,4.7,1.2c-0.8-1.2-0.7-1.5,0.5-2
		c3.2-1.5,6.5-3,9.7-4.5c2.3-1.1,4.7-2.3,7-3.3c1.6-0.7,3.4-0.6,4.8,0.4c1.1,0.6,1.7,1.9,1.3,3.1c-0.8,3,0.4,5,3.4,6.2
		c0.8,0.4,1.6,1,2.3,1.6L67,88.8l4.5-1.7c0.6,2,0.1,2.7-1.6,2.6c-0.8-0.1-1.6-0.1-2.3,0.1c-1.5,0.4-2.9,3.5-2.3,5.5
		c0.8-1,1.4-1.8,2.1-2.6c0.5-0.5,1.1-1,1.7-1.3l0.2,0.3c-1.6,1.2-2.2,3-1.6,4.3l3.3-1.5c-0.1-1.2,0.8-2.3,2-2.5
		c-1.9,1.8-0.3,2.9,0,3.9c1.1-0.3,2.1-0.7,3.1-0.9c1.5-0.3,2.3-1.2,2-2.4c-0.3-1.6-0.6-3.1-0.8-4.9l1.6,0.5c0.2-1.7-0.5-2.4-2.3-2.4
		c-1.1,0-2.4,0.2-2.8-1.5l3-0.1c-0.4-1.9-1.7-1.8-3-1.7c-1,0.2-2.1-0.4-2.3-1.5c0-0.1,0-0.1,0-0.2c0.6,0,1.1,0,1.6,0l1.4-0.1
		l0.2-0.5c-0.7-0.4-1.4-1.2-2-1.2c-1.6,0.2-3.1-0.8-3.5-2.3c1.1-0.4,2.2-0.9,3.3-1.4c2.7-1.7,2.9-4.8,0.4-6.7
		c-1.2-0.8-2.5-1.4-3.8-1.9c-0.6-0.3-1.4-0.5-1.7-1s0.1-1.2,0.2-1.9c-2.1-0.6-4,0.5-4.1,2.5c0,0.8-0.4,1-1,1.4
		c-1.3,0.9-2.6,1.9-3.8,2.9l0.2,0.3l3.7-0.4l1.5-2.2l0.3,0.2c-0.1,0.3-0.4,0.7-0.3,1c0.2,0.5,0.5,0.9,0.8,1.3
		c0.3-0.3,0.6-0.6,0.9-0.9s0.6-0.9,1-1.3c-0.6,2.1-0.3,2.9,1.6,3.3c0-0.1,0.1-0.2,0.2-0.3c0.5-0.4,1-0.8,1.4-1.2
		c0.3,0.4,1,1.1,0.9,1.3c-0.3,0.6-0.8,1-1.5,1.3c-0.6,0.1-1.3,0-1.9-0.3c-4.2-1.2-8.7-1.2-12.9,0c-6,1.7-12,3.2-18.2,1.6
		c0.2,1.1,0.4,2.1,0.7,3.4c-0.8-1-1.6-2-2.5-2.9c-0.8-0.5-1-1.5-0.5-2.3c0,0,0,0,0,0l1,0.5c0.2-2.9-2-5.3-0.7-8.2h-0.5l-2.1,2.5
		c-1.1-1.3-1-1.8,0.6-2.5c0.5-0.3,0.9-0.5,1.3-0.9l-0.2-0.5c-0.6,0-1.2,0-1.8,0c-0.3,0-0.7-0.1-1-0.2c-1.2-0.6-2.5-1.1-3.8-1.5
		c-1.3-0.2-2.7-0.1-4,0.2c-1.8,0.5-3.4,1.7-5.4,1.5c-0.2,0-0.4,0.2-0.9,0.4c0.5,0.3,1,0.7,1.5,0.9c1.6,0.7,1.8,1.2,0.7,2.5l-2.4-2.8
		c-0.1,0.6-0.1,1.2,0,1.8c0.3,1.2,0.1,2.4-0.4,3.4c-0.3,1.1-0.6,2.2-0.7,3.3l1.1-0.7c0.5,0.8,0.3,1.9-0.5,2.5c0,0-0.1,0-0.1,0.1
		c-0.9,0.8-1.6,1.8-2.3,2.8c0.2-1.2,0.3-2.1,0.5-3.1c-1-0.8-2-1.6-3-2.6c-1.4-1.3-1.4-1.7-0.4-3.4c1.1-2.1,0.5-4.6-1.3-6
		c-0.1-0.1-0.2,0-0.3-0.1C9.1,63.1,9,63.6,9,64.1s0,1.1,0,2c-1.3-3-2.8-4.1-4.5-3.3c1,0.5,1.3,1.1,0.6,1.8l1.7,1.6
		c-1.7-1-4.2-1.4-5.3-0.5l0.8,0.6c-0.1,1-0.1,2.1,0,3.2c0.4,1.2,1.5,1.2,2.6,1c0.2,0,0.4,0.3,0.5,0.4c-0.2,0.1-0.6,0.4-0.7,0.3
		c-0.6-0.4-1.4-0.1-1.7,0.5c-0.1,0.1-0.1,0.2-0.1,0.3c-0.1,0.3-0.7,0.3-1.1,0.4c0,0.2,0,0.4,0,0.5c0.9,1.8,3,2.7,4.9,2.1
		c0.5-0.1,1.1,0.1,1.4,0.4c0.4,0.7-0.1,1.2-0.8,1.4C7,77,6.8,77.1,6.5,77.3c0.9,1.2,1.8,1.9,3.4,1.4c0.4-0.2,1.2,0.4,1.8,0.6
		l-0.1,0.3l-1.9,0.6c0.6,1.2,1.9,1.7,3.2,1.3c0.5-0.2,1.2,0.4,1.8,0.6l-0.1,0.4L12.7,83c-0.1,0.1-0.1,0.3-0.1,0.4l2.7,1.3
		c-1,0.6-2.4,1.3-3.6,2.2c-1.5,1.2-3.6,1.5-5.4,0.8c-1.1-0.6-2.5-0.3-3.3,0.7l1.2,0.3c-1.1,0.5-2,1.1-2.9,1.9
		c-0.6,1.1-1.1,2.3-1.3,3.5c0,0.2,0.1,0.4,0.2,0.5C0.8,94.4,1.5,93.9,2,94z M30.2,66.1c-1.9,0.1-2.2-1.3-3.1-2.2
		C28.9,63.7,29.1,65.1,30.2,66.1z M30.7,67.9c-0.2,0.3-0.4,0.8-0.7,0.9c-0.5,0.2-0.9,0.5-0.9,1.1c0,0.2-0.6,0.7-0.9,0.6
		s-0.7-0.5-1-0.8c-0.3-0.4-0.6-0.8-0.9-1.3C27.4,67.2,29.3,68.6,30.7,67.9z M27.4,66.3c-2.5,0.3-2.4-2-3.8-3
		C26,63.2,26.1,65.2,27.4,66.3z M23.9,66.1c-1.8,0.2-2.1-1.2-3-2.2C22.7,63.7,23,65.1,23.9,66.1z M24.5,68.5
		c-0.3,0.4-0.7,0.9-0.9,1.4c-0.3,0.8-1.1,1.1-1.6,0.5c-0.6-0.8-1.1-1.6-2-2.8C21.6,68.5,23.3,67.3,24.5,68.5z M19.3,68.4
		c-0.1,2.1,0.5,3.5,2.8,3.6c0.2,1.3,0.4,2.4,2,2.2c0.8-0.1,1.2-0.4,0.6-1.3c-0.2-0.4-0.4-0.8-0.5-1.2h2.5c-0.3,0.7-0.5,1.3-0.8,1.9
		c1.1,1.1,2.3,0.9,2.8-0.6c0.1-0.3,0.2-0.9,0.4-0.9c2-0.3,2.5-1.7,2.5-3.6c1,1.3,0.7,3.1-0.6,4.1c-0.1,0.1-0.3,0.2-0.4,0.3
		c-1.7,1.3-2.7,3.5-2.5,5.6c0.4,2.1,0,2.7-2.2,2.6c-0.5,0-1.1,0-1.7,0c-1.4,0-2.1-0.7-1.8-1.9c0.6-2.2-0.5-4-1.4-5.8
		c-0.1-0.3-0.6-0.4-0.9-0.6c-1.4-0.8-1.9-2.7-1.1-4.1C19.1,68.6,19.2,68.5,19.3,68.4z M17.7,76.4c0,0.7,0,1.4-0.2,2.1
		c-0.9,1.7-0.9,2.4,0.6,3.9c0.3-0.5,0.6-1,1-1.6c1.7,2-1.1,3.8,0.1,5.7l-0.5,0.2c-0.4-0.5-0.7-0.9-1-1.4c-0.3-0.7-0.7-1.4-1.1-2.1
		C14.7,80.8,14.9,78.6,17.7,76.4L17.7,76.4z"/>
	<path d="M27,42.1c0-0.6,0.1-1.1,0.1-1.8h-3.5c0.1,0.8,0.1,1.4,0.2,1.8H27z"/>
	<path d="M26.6,43.4c-0.8-0.1-1.6-0.1-2.4,0c-0.2,0-0.6,0.6-0.6,0.9s0.5,0.5,0.9,0.6c0.3,0.1,0.6,0.1,0.9,0c0.3,0.1,0.6,0.1,0.9,0
		c0.4-0.1,0.7-0.3,1-0.5C27,44.1,26.9,43.4,26.6,43.4z"/>
	<path d="M27,112.5c0-0.6,0.1-1.1,0.2-1.8h-3.5c0.1,0.8,0.1,1.3,0.2,1.8H27z"/>
	<path d="M26.4,113.7c-0.8-0.1-1.5-0.1-2.3,0.1c-0.2,0.1-0.5,0.7-0.5,1s0.6,0.4,0.9,0.6c0.3,0,0.6,0,0.9,0c0.3,0,0.5,0,0.8,0
		c0.4-0.2,0.7-0.3,1.1-0.6C27,114.4,26.8,113.8,26.4,113.7z"/>
	<path d="M27,77.3c0-0.6,0.1-1.1,0.1-1.6c-0.5-0.3-1.1-0.5-1.7-0.6c-0.6,0.1-1.2,0.3-1.7,0.6c0.1,0.5,0.1,1.1,0.2,1.5L27,77.3z"/>
	<path d="M27.1,79.4c0-0.4-1.1-1-1.8-1s-1.2,0.6-1.8,1l1.6,1C26.1,80,27.2,80.7,27.1,79.4z"/>
</g>
</svg>
