<?xml version="1.0" encoding="utf-8"?>
<!-- Generator: Adobe Illustrator 24.2.0, SVG Export Plug-In . SVG Version: 6.00 Build 0)  -->
<svg version="1.1" id="Layer_1" xmlns="http://www.w3.org/2000/svg" xmlns:xlink="http://www.w3.org/1999/xlink" x="0px" y="0px"
	 viewBox="0 0 445.7 100" style="enable-background:new 0 0 445.7 100;" xml:space="preserve">
<style type="text/css">
	.st0{fill:#090909;}
</style>
<g id="Estonia">
	<path class="st0" d="M115.4,54.7c0,4-0.1,7.9,0,11.8c0,1.2-0.5,1.1-1.3,1.2s-1.2-0.2-1.2-1.2c0-5.1,0-10.2,0-15.3
		c0-0.5-0.4-1.4,0.4-1.4s2-0.5,2.6,0.9c1.2,2.7,2.6,5.4,4,8c0.7,1.3,1.4,2.7,2.3,4.3c0-0.7,0.1-1.1,0.1-1.5c0-3.5,0.1-7.1,0-10.6
		c0-1.2,0.4-1.2,1.3-1.2s1.2,0.1,1.2,1.1c-0.1,5.2,0,10.3,0,15.5c0,0.4,0.4,1.3-0.4,1.3s-2,0.6-2.6-0.7c-0.3-0.7-0.7-1.4-1.1-2.1
		C119,61.5,117.2,58.1,115.4,54.7z"/>
	<path class="st0" d="M113,31.6c0.1-2.2-0.3-4.4,0.8-6.5c1.2-2.2,3.6-3.2,6.7-2.6c2.2,0.6,3.8,2.6,3.8,4.9c0,0.7-0.3,0.8-0.8,0.7
		c-0.7-0.1-1.8,0.6-1.9-0.8c-0.1-1.8-0.9-3-3.1-2.9c-1.5,0-2.8,1.2-2.8,2.8c-0.4,3-0.4,6,0,9c0.1,1.7,1.7,3,3.4,2.8
		c0.6,0,1.2-0.3,1.6-0.6c0.7-0.5,1.1-1.4,1-2.3c0-0.3-0.2-0.8,0.3-0.9c0.8,0,1.5,0,2.3,0.1c0.1,0.3,0.1,0.7,0,1
		c-0.7,5.1-6.4,5.5-9.1,3.5c-1.4-1-2.2-2.7-2.2-4.4C113,34.2,113,33,113,31.6z"/>
	<path class="st0" d="M152.8,53.3c-0.4,0-0.8,0.1-0.8,0.7c-0.2,1.8-0.4,3.7-0.8,5.5c-0.2,0.8,0.2,1.8-0.7,2.5
		c-0.2-0.3-0.3-0.7-0.4-1c-0.5-2.3-1.1-4.5-1.5-6.8c-0.2-1.1-0.9-0.7-1.4-0.8s-0.9,0.3-1,0.9c-0.4,2.2-0.9,4.4-1.4,6.6
		c0,0.6-0.2,1.3-0.6,1.8c-0.4-2.4-0.8-4.5-1.2-6.8c-0.4-2.5-0.4-2.5-3.1-2.4c0.9,4.2,1.8,8.4,2.6,12.6c0.2,1.2,0.4,1.8,1.9,1.7
		c0.8-0.1,1.2-0.3,1.3-1.1c0.1-0.5,0.2-1,0.3-1.6c0.4-1.9,0.9-3.8,1.3-5.8c0.3,0.2,0.5,0.5,0.6,0.8c0.5,2.3,1,4.7,1.6,7
		c0,0.2-0.1,0.4,0.2,0.5c1,0.4,2.2,0,2.6-1c0-0.1,0.1-0.1,0.1-0.2c0.9-4.3,1.8-8.6,2.6-13L152.8,53.3z"/>
	<path class="st0" d="M245.6,31.5c-1.4,0.1-2.8,0.1-4.2,0c-0.9,0-0.7,0.5-0.8,1s0.1,0.8,0.8,0.8c2.5,0.1,2.5,0.1,2.5,2.6
		c0,0.1,0,0.3,0,0.4c0.1,0.9-0.4,1.8-1.3,2.2c-1.7,1-3.9,0.4-4.9-1.4c-0.1-0.2-0.2-0.4-0.3-0.6c-0.5-1.6-0.2-3.3-0.3-4.9
		c0-1.3-0.1-2.5,0-3.8c0.2-2.3,1.8-4.2,4.8-3.2c0.9,0.3,1.6,1.1,1.7,2c0.4,0.9,1.4,1.3,2.2,0.9c0,0,0.1,0,0.1,0
		c0.7-0.4,0.2-1,0.1-1.5c-0.2-1.1-0.9-2.2-1.9-2.8c-1.4-1-3.1-0.8-4.6-0.8c-2.5,0-4.5,1.9-4.8,4.3c-0.2,2.8-0.3,5.6-0.1,8.3
		c0.3,6,6.2,6.7,9.7,4.8c1-0.5,2.1-1.2,2.1-2.6c0-1.7,0-3.3,0-5C246.5,31.8,246.3,31.5,245.6,31.5z"/>
	<path class="st0" d="M423.5,26.4c-0.6,0-1.4-0.4-1.4,0.8c0.1,2.6,0,5.1,0,7.7c0,0.3,0.2,0.7-0.3,1c-0.2-0.3-0.3-0.5-0.5-0.8
		c-1.5-2.7-3-5.3-4.4-8c-0.6-1.2-1.6-0.6-2.5-0.7s-0.4,0.9-0.4,1.3c0,4,0,8-0.1,12c0,1,0.5,1,1.2,1s1.5,0.3,1.5-1
		c-0.1-2.7,0-5.4,0-8l0.3-0.1c1.2,2.2,2.5,4.4,3.7,6.7s1.3,2.5,3.3,2.4c0.6,0,0.9-0.1,0.9-0.8c0-4.2,0-8.4,0-12.6
		C424.7,26.1,424,26.3,423.5,26.4z M422.1,36.2L422.1,36.2L422.1,36.2L422.1,36.2z"/>
	<path class="st0" d="M273,27.4c0-1-0.3-1.2-1.2-1.2c-0.8,0.1-1.4-0.1-1.4,1.1c0.1,2.7,0,5.4,0,8.1c0.1,0.2,0.2,0.5-0.1,0.5
		s-0.4-0.2-0.4-0.4c-1.6-2.8-3.2-5.7-4.7-8.5c-0.6-1.2-1.6-0.7-2.5-0.7s-0.4,0.9-0.4,1.3c0,4,0,8,0,12c0,0.3-0.2,0.9,0.2,1
		c0.7,0.1,1.3,0.2,2,0.1c0.6-0.1,0.3-0.7,0.3-1.1c0-2.7,0-5.5,0-8.2c1.8,2.7,3.4,5.5,4.8,8.4c0.7,1.4,1.8,1,2.8,0.9s0.5-1,0.5-1.5
		C273,35.2,272.9,31.3,273,27.4z"/>
	<path class="st0" d="M140.6,39.4c0,0.9,0.1,1.3,1.2,1.3s1.4-0.2,1.3-1.3c-0.1-2.8,0-5.6,0-8.4c1.7,2.7,3.3,5.4,4.8,8.3
		c0.4,1,1.4,1.6,2.4,1.3c0.8,0,0.9-0.3,0.9-1c0-4.1-0.1-8.2,0-12.4c0-1-0.5-1-1.2-1s-1.4-0.3-1.4,1c0.1,2.7,0,5.5,0,8.2
		c0,0.2,0.2,0.5-0.1,0.5s-0.4-0.2-0.4-0.5c-1.6-2.8-3.2-5.7-4.8-8.6c-0.6-1.2-1.6-0.7-2.5-0.6s-0.3,0.9-0.3,1.4
		C140.6,31.6,140.6,35.5,140.6,39.4z"/>
	<path class="st0" d="M374.4,38.8c-1.9,0.1-3.9,0-5.8,0c-0.8,0-1-0.2-1-1c0-1.5,0-3.1,0-4.6c0-0.7,0.2-0.9,0.9-0.9c1.7,0,3.3,0,5,0
		c0.8,0,0.8-0.4,0.8-1s-0.1-1-0.9-1c-1.6,0.1-3.2,0-4.9,0c-0.7,0-1.1-0.1-1-0.9c0.1-1.3,0.1-2.6,0-3.9c0-0.7,0.2-0.9,0.9-0.9
		c1.9,0,3.9,0,5.8,0c0.7,0,1.1-0.1,1.1-0.9s-0.2-1.1-1-1.1c-2.7,0-5.5,0-8.2,0c-0.9,0-1,0.3-1,1.1c0,2.6,0,5.3,0,7.9s0,5.4,0,8.1
		c0,0.8,0.2,1,1,1c2.8,0,5.6,0,8.4,0c0.8,0,1-0.2,1-1S375.2,38.7,374.4,38.8z"/>
	<path class="st0" d="M298.3,37.2c0.2-1.5-0.7-3-2.1-3.5c1.7-0.7,2.6-2.5,2.1-4.2c-0.2-1.6-1.5-2.8-3.1-3.1
		c-1.9-0.2-3.8-0.3-5.8-0.1c-0.7,0-0.5,0.5-0.5,0.9c0,4.2,0,8.4,0,12.6c0,1,0.6,0.9,1.2,0.9s1.4,0.4,1.3-0.8s0-2.7,0-4
		c0-0.6,0.1-0.9,0.8-0.8c0.4,0,0.8,0,1.2,0c1.7,0,2.5,0.7,2.6,2.4c0,0.5,0,1,0,1.5c0,1.9,0,1.9,2,1.8c0.8,0,0.8-0.4,0.7-0.9
		C298.3,39,298.2,38.1,298.3,37.2z M294.8,32.7c-1,0.3-2,0.4-3,0.2c-0.5,0-0.4-0.4-0.4-0.7c0-0.6,0-1.2,0-1.9s-0.4-1.7,0.2-2
		c0.9-0.3,2-0.3,2.9,0c0.9,0.3,1.5,1.2,1.4,2.1C296.1,31.3,295.6,32.2,294.8,32.7z"/>
	<path class="st0" d="M199.7,64.6c0.3-1.6-0.5-3.2-2-3.8c1.5-0.8,2.3-2.5,2-4.2c-0.2-1.6-1.5-2.8-3.1-3.1c-1.9-0.5-3.8-0.1-5.7-0.3
		c-0.6,0-0.6,0.2-0.6,0.7c0,4.3,0,8.6,0,12.9c0,0.3-0.1,0.7,0.4,0.8c1.5,0.3,2,0,2-1.5v-2.6c0-1.8,0-1.8,1.8-1.8
		c2.1,0,2.8,0.8,2.8,2.9c0,0.7,0,1.4,0.1,2.2c0,0.3,0.1,0.7,0.5,0.8c1.5,0.4,2.1-0.1,1.8-1.6C199.7,65.6,199.7,65.1,199.7,64.6z
		 M197.2,58.3c-0.1,0.9-0.9,1.6-1.8,1.7c-2.5,0.3-2.6,0.2-2.6-2.4c0,0,0-0.1,0-0.1c0.2-0.7-0.5-1.9,0.4-2.1c1.1-0.4,2.4-0.3,3.4,0.4
		C197.2,56.3,197.5,57.3,197.2,58.3z"/>
	<path class="st0" d="M337.7,26.1c-2.3-0.4-4.6,0.9-5.5,3.1c-0.7,1.4-0.3,2.8-0.4,4.2v2.4c-0.1,2.9,2.2,5.3,5,5.3
		c2.4,0.1,4.5-1.5,5.1-3.8c0.6-2.3,0.7-4.8,0.2-7.1C341.8,28,340,26.4,337.7,26.1z M339.6,37c-0.2,1.2-1.3,2-2.5,2
		c-1.2,0.1-2.2-0.7-2.5-1.9c-0.6-2.4-0.6-4.9,0-7.3c0.2-1.1,1.2-1.9,2.4-1.9c1.1,0,2.1,0.7,2.5,1.7c0.4,1.2,0.5,2.5,0.4,3.7
		C340,34.6,339.9,35.8,339.6,37z"/>
	<path class="st0" d="M181.8,53.2c-1.7,0-3.4,0.3-4.4,2.1c-1.7,3-1.3,6.2-0.6,9.3c0.4,1.9,2.1,3.3,4.1,3.3c2.4,0.2,4.3-0.5,5.4-2.7
		c0.6-1.4,0.9-3,0.8-4.5c0.1-1.6-0.2-3.2-0.8-4.7C185.4,54.2,183.7,53.1,181.8,53.2z M184.1,64.2c-0.3,1.1-1.3,1.8-2.4,1.8
		c-1.2,0.1-2.3-0.7-2.5-1.8c-0.7-2.4-0.7-5,0-7.4c0.3-1,1.2-1.8,2.3-1.7c1.1-0.1,2.1,0.6,2.5,1.7c0.4,1.2,0.5,2.5,0.4,3.8
		C184.5,61.8,184.4,63,184.1,64.2L184.1,64.2z"/>
	<path class="st0" d="M173.6,40.8c2.7-0.5,3.9-1.7,4.3-4.4c0.5-3.1,0.1-6.2,0.2-9.2c0.1-1.2-0.6-0.9-1.3-0.9s-1.3-0.2-1.3,0.9
		c0.1,2.6,0,5.2,0,7.8c0,0.8-0.1,1.5-0.4,2.2c-0.5,1.1-1.6,1.7-2.8,1.8c-1.2-0.1-2.2-1.1-2.4-2.3c-0.1-0.5-0.1-1.1-0.1-1.6
		c0-2.7-0.1-5.3,0-7.9c0-1.2-0.8-0.8-1.4-0.9s-1.3-0.2-1.2,0.9c0.1,1.6,0,3.1,0,4.7c0,1.3,0.1,2.6,0,3.9
		C167.1,39.1,170.1,41.5,173.6,40.8z"/>
	<path class="st0" d="M132.9,26.1c-2-0.2-3.7,0.2-5,2.1c-1.1,1.6-0.9,3.4-0.9,5.1c0,0.9,0,1.9,0,2.8c0.1,2.4,1.9,4.3,4.3,4.7
		c3,0.2,5.3-1.2,5.9-3.8c0.5-2.4,0.5-4.9,0-7.3C136.6,27.8,134.9,26.4,132.9,26.1z M134.8,36.9c-0.3,1.2-1.3,2-2.5,2
		c-1.3,0-2.4-0.9-2.6-2.1c-0.5-2.2-0.5-4.5,0-6.7c0.2-1.2,1.3-2.1,2.5-2.1c1.3,0,2.3,0.9,2.6,2.1c0.2,1.1,0.3,2.2,0.2,3.3
		C135.1,34.6,135,35.8,134.8,36.9z"/>
	<path class="st0" d="M405.6,26.2c-1.8-0.2-3.5,0.6-4.5,2.1c-1.1,1.7-0.9,3.5-0.8,5.2c-0.1,1.2-0.1,2.5,0,3.7
		c0.5,2.2,2.5,3.7,4.8,3.7c2.5,0.1,4.6-1.1,5.2-3.3c0.9-2.8,0.8-5.7-0.1-8.5C409.4,27.3,407.6,26.1,405.6,26.2z M408,37
		c-0.3,1.2-1.4,2.1-2.6,2c-1.2,0-2.3-0.9-2.4-2.1c-0.5-2.2-0.5-4.6,0-6.8c0.2-1.2,1.2-2.1,2.5-2.1c1.3,0,2.3,0.9,2.6,2.1
		c0.3,1.1,0.3,2.2,0.3,3.3C408.4,34.7,408.3,35.8,408,37z"/>
	<path class="st0" d="M209.6,61.2c-0.5-0.6-0.5-1.5,0-2.1c1.3-1.8,2.4-3.7,3.7-5.8c-0.4,0-0.8,0-1.1,0c-1.3-0.4-2.6,0.3-3,1.6
		c0,0.1,0,0.2-0.1,0.2c-0.6,1.3-1.2,2.6-2,3.8c-0.2,0.3-0.4,0.6-0.8,0.5c-0.6-0.1-0.3-0.6-0.3-0.8c0-1.5-0.1-3,0-4.4
		c0.1-1.1-0.6-1-1.2-0.9s-1.4-0.5-1.4,0.8c0,4.3,0,8.5,0,12.8c0,1.1,0.7,0.8,1.3,0.8s1.3,0.4,1.3-0.8c-0.1-1.4,0-2.9,0-4.3
		c0-0.3-0.3-0.8,0.3-1s0.8,0.1,1,0.6c0.6,0.9,1.1,1.9,1.6,2.9c0.8,2.2,2.1,3.1,4.5,2.3c-0.1-0.3-0.3-0.6-0.5-1
		C211.8,64.7,210.7,62.9,209.6,61.2z"/>
	<path class="st0" d="M197.9,26.3c-2.1-0.1-2.2,0-2.8,2c-0.1,0.4-0.2,0.9-0.4,1.3c-1.2,3.6-2.4,7.3-3.6,11c0.3,0,0.7,0,1,0
		c1.2,0.2,2-0.2,2.1-1.5c0.1-1.5,1-2,2.4-1.8c0.7,0.1,1.3,0.1,2,0c0.7,0,1,0,1.2,0.9c0.5,2.5,0.7,2.5,3.2,2.3c0,0,0.1,0,0.2-0.1
		c-1.5-4.5-3-9-4.5-13.6C198.6,26.4,198.3,26.4,197.9,26.3z M195.4,35.5c0.6-1.8,1.1-3.6,1.8-5.8c0.7,2.1,1.2,3.9,1.8,5.8H195.4z"/>
	<path class="st0" d="M308.6,27.5c-0.4-1.4-1.2-1-2.1-1.1c-1-0.2-1.2,0.4-1.5,1.1c-1.4,4.3-2.9,8.7-4.3,13.1
		c2.6,0.2,2.6,0.2,3.4-2.1c0.2-0.8,0.5-1.1,1.4-1c0.8,0.1,1.7,0.1,2.6,0c1.2-0.2,1.5,0.4,1.7,1.4c0.3,1.8,0.4,1.8,2.2,1.9
		c0.9,0,1-0.2,0.7-1C311.2,35.6,309.8,31.5,308.6,27.5z M308.1,35.5h-3l1.8-5.8c0.6,2,1.2,3.7,1.7,5.3
		C308.7,35.5,308.5,35.5,308.1,35.5z"/>
	<path class="st0" d="M441.4,27.5c-0.3-0.9-0.7-1.5-1.7-1.2c-0.5,0.2-1.2-0.5-1.6,0.6c-1.4,4.4-2.8,8.7-4.3,13
		c-0.1,0.2-0.4,0.6,0.1,0.6c0.7,0.1,1.4,0.1,2.1,0c0.5-0.1,0.4-0.7,0.5-1.1c0.6-2,0.6-2,2.8-2c0.6,0,1.2,0,1.9,0s0.8,0,1,0.8
		c0.7,2.5,0.8,2.5,3.4,2.3C444.2,36.2,442.8,31.9,441.4,27.5z M440.8,35.5c-0.9,0-1.8,0-2.9,0c0.6-1.9,1.1-3.7,1.8-5.8
		c0.6,1.9,1.1,3.5,1.7,5.1C441.5,35.5,441.2,35.6,440.8,35.5L440.8,35.5z"/>
	<path class="st0" d="M383.8,32.8c-0.8-0.2-1.6-0.5-2.3-0.9c-0.9-0.4-1.4-1.4-1.1-2.3c0.2-0.9,1.1-1.6,2.1-1.4
		c1.1-0.1,2.2,0.7,2.4,1.8c0.4,1.2,1.4,0.6,2.1,0.6s0.4-0.9,0.2-1.3c-0.6-2.1-2.8-3.4-4.9-3.1c-1.4,0.2-3,0.3-3.8,1.8
		c-1.2,1.9-0.7,4.5,1.2,5.7c0.4,0.2,0.8,0.4,1.2,0.5c0.9,0.2,1.9,0.6,2.7,1c0.6,0.3,1.1,0.7,1.2,1.4c0.2,1.1-0.5,2.1-1.5,2.4
		c-1.3,0.4-2.8-0.1-3-1.2c-0.3-1.6-1.4-1.2-2.4-1.2c-0.6,0-0.7,0.2-0.5,0.7c0.7,2.4,1.8,3.7,4.7,3.6c0.4,0,0.8,0,1.2,0
		c3.5-0.2,5.4-3.3,3.8-6C386.2,33.9,385.1,33.1,383.8,32.8z"/>
	<path class="st0" d="M164.4,37.5c0.3-1.5-0.3-3-1.6-3.8c-1.2-0.8-2.7-1-4-1.7c-0.6-0.3-1.3-0.5-1.4-1.4c-0.2-1.5,0.3-2.3,1.4-2.6
		c1.2-0.2,2.5,0.5,2.9,1.7c0.1,0.3-0.2,0.7,0.3,0.8c0.7,0,1.6,0.1,2-0.2s0.1-1.2-0.2-1.9c-0.3-0.7-0.8-1.3-1.5-1.6
		c-1.7-0.8-3.6-0.9-5.4-0.2c-1.3,0.5-2.2,1.8-2.2,3.1c-0.2,1.4,0.4,2.9,1.7,3.6c1.4,0.9,3,1.1,4.4,1.8c0.8,0.3,1.2,1.2,0.9,2.1
		c-0.2,1.3-1.1,1.7-2.3,1.8c-1.3,0.2-2.4-0.7-2.6-2c0,0,0,0,0,0c-0.2-1.3-1.1-0.5-1.7-0.6c-0.4-0.1-0.8-0.1-0.8,0.5
		c-0.1,1.3,0.5,2.5,1.6,3.2c0.9,0.6,1.9,0.8,3,0.8c1.1,0.1,2.1-0.1,3.1-0.5C163.4,39.9,164.2,38.8,164.4,37.5z"/>
	<path class="st0" d="M173.3,49.8c-0.4-0.1-0.8,0.1-0.9,0.5c-0.9,2.2-1.9,4.4-2.8,6.6c-0.1,0.3-0.1,0.9-0.5,0.9
		c-0.6,0.1-0.6-0.6-0.8-1c-0.7-1.6-1.4-3.3-2.1-5c-1-2.3-1-2.3-3.7-2c0.8,1.7,1.6,3.3,2.3,4.9c0.9,1.9,1.9,3.8,2.6,5.8
		s0.2,4,0.3,5.9c0,0.8,0.2,1.1,1.1,1.2c1.2,0,1.6-0.3,1.5-1.5c-0.1-0.9,0.1-1.8,0-2.7c-0.1-1.6,0.3-3.3,1.1-4.7c1.4-3,2.8-6,4.2-9.1
		C174.6,49.8,173.9,49.8,173.3,49.8z"/>
	<path class="st0" d="M224.4,38.7c-0.5,0-1,0-1.5,0c-1.2,0-2.8,0.5-3.3-0.2s-0.2-2.3-0.2-3.5c0-0.7,0.1-1,0.9-0.9
		c1.2,0.1,2.3,0,3.5,0c0.9,0,0.9-0.4,0.9-1.1s-0.3-0.9-0.9-0.9c-0.4,0-0.9,0-1.4,0c-3.2,0-3.2,0-3-3.2c0-0.7,0.3-0.8,0.9-0.8
		c1.5,0,3,0,4.4,0c0.8,0,0.9-0.3,0.9-1s-0.3-0.9-0.9-0.9c-2.3,0-4.6,0-6.9,0c-0.9,0-1,0.4-1,1.1c0,2,0,4,0,6s0,4.1,0,6.2
		c0,0.8,0.2,1.1,1,1.1c2.2-0.1,4.4,0,6.6,0c0.7,0,1.2,0.1,1.2-0.9S225.1,38.7,224.4,38.7z"/>
	<path class="st0" d="M136.2,65.8c-0.5,0-1,0-1.5,0c-3.7,0-3.7,0-3.6-3.8c0-0.7,0.2-1,0.9-0.9c1.2,0,2.3,0,3.5,0
		c0.7,0,0.9-0.2,0.9-0.9s-0.1-1.1-0.9-1c-0.4,0-0.9,0-1.4,0c-3.2,0-3.2,0-3-3.2c0-0.7,0.3-0.8,0.9-0.8c1.4,0,2.9,0,4.3,0
		c0.8,0,1.1-0.2,1.1-1s-0.3-1-1-0.9c-1.1,0-2.2,0-3.4,0s-2.3,0-3.5,0c-0.7,0-0.9,0.2-0.9,0.9c0,4.2,0,8.4,0,12.7
		c0,0.7,0.3,0.9,1,0.9c2.2,0,4.5,0,6.7,0c0.8,0,1.1-0.1,1.1-1S136.9,65.8,136.2,65.8z"/>
	<path class="st0" d="M280.1,28.2c1.5,0,3,0,4.4,0c0.8,0,1-0.3,1-1s-0.3-0.9-1-0.9c-2.2,0-4.5,0.1-6.7,0c-0.9,0-1,0.3-1,1.1
		c0,2,0,4,0,6c0,2.2,0,4.3,0,6.5c0,0.6,0.2,0.8,0.8,0.8c2.3,0,4.7,0,7,0c0.9,0,0.9-0.4,0.9-1s-0.3-1-1-1c-1.4,0-2.9,0-4.3,0
		c-0.8,0-1-0.3-0.9-1c0.1-1.2-0.4-2.7,0.2-3.4s2.2-0.2,3.3-0.3h0.7c0.7,0.1,1.2,0,1.2-0.9s-0.4-1-1.1-1c-0.4,0-0.8,0-1.2,0
		c-3.2,0-3.2,0-3.1-3.2C279.3,28.4,279.4,28.2,280.1,28.2z"/>
	<path class="st0" d="M257.8,38.7c-0.5,0-1,0-1.5,0c-1.1-0.1-2.7,0.5-3.3-0.2s-0.1-2.2-0.2-3.4c-0.1-0.9,0.3-1,1.1-1
		c1.1,0.1,2.2,0,3.4,0c0.8,0,0.9-0.4,0.9-1s-0.2-1-0.9-0.9c-1.2,0.1-2.4,0-3.6,0c-0.6,0-0.9-0.2-0.8-0.8c0.2-1.1-0.6-2.3,0.5-3.3
		c0.1-0.1,0.4,0,0.7,0c1.4,0,2.7,0,4,0c0.7,0,1-0.1,1-0.9s-0.2-1-1-1c-2.3,0-4.6,0-6.9,0c-0.7,0-0.9,0.1-0.9,0.9c0,4.2,0,8.4,0,12.6
		c0,0.8,0.3,0.9,0.9,0.9c1.1,0,2.2,0,3.4,0s2.1,0,3.2,0c0.7,0,1.2,0.1,1.2-1S258.4,38.7,257.8,38.7z"/>
	<path class="st0" d="M353.2,26.3c-2.4,0-4.8,0-7.1,0c-0.7,0-0.9,0.2-0.9,0.9c0,2.1,0,4.2,0,6.3s0,4.1,0,6.2c0,0.3-0.2,0.7,0.2,1
		c0.7,0.4,1.6,0.2,2-0.5c0.1-0.2,0.2-0.5,0.2-0.7v-1c0-1.3-0.4-3,0.2-3.8s2.5-0.2,3.9-0.3c0.1,0,0.2,0,0.3,0c0.7,0.1,1-0.1,1-0.9
		s-0.2-1.1-1.1-1c-0.4,0-0.7,0-1.1,0c-3.4,0-3.4,0-3.2-3.5c0-0.7,0.2-0.9,0.9-0.8c1.6,0,3.1,0,4.7,0c0.8,0,0.8-0.4,0.8-1
		S354,26.3,353.2,26.3z"/>
	<path class="st0" d="M212.9,26.3c-2.6,0-5.3,0-7.9,0c-0.7,0-1,0.1-1,0.9s0.3,1.1,1.1,1c0.4,0,0.9,0,1.3,0c1-0.1,1.4,0.1,1.3,1.2
		c-0.1,1.6,0,3.3,0,5s0.1,3.5,0,5.2c-0.1,1.1,0.5,1.1,1.3,1.1s1.3,0.1,1.3-1.1c-0.1-2.9,0-5.7,0-8.6s0-2.8,2.7-2.8
		c0.9,0,1-0.4,1.1-1.1S213.5,26.3,212.9,26.3z"/>
	<path class="st0" d="M397.7,26.3c-2.6,0.1-5.3,0-7.9,0c-0.7,0-1.2-0.1-1.2,1s0.5,0.9,1.1,0.9s1.3,0,1.9,0s0.8,0.2,0.8,0.8
		c0,1.8,0,3.6,0,5.4s0.1,3.5,0,5.2c0,1,0.4,1.1,1.3,1.1s1.3,0,1.3-1.1c-0.1-2.8,0-5.6,0-8.5c0-1-0.4-2.2,0.2-2.8
		c0.5-0.5,1.7-0.2,2.6-0.1s0.9-0.2,0.9-0.9S398.5,26.3,397.7,26.3z"/>
	<path class="st0" d="M322.6,38.7c-1.2,0.1-2.3,0-3.5,0c-0.9,0.1-1.1-0.2-1.1-1.1c0-3.5,0-7,0-10.5c0-1.1-0.6-0.9-1.2-0.8
		s-1.4-0.4-1.3,0.9c0.1,2.1,0,4.2,0,6.3s0,4.2,0,6.3c0,0.6,0.1,0.9,0.8,0.9c2.1,0,4.2,0,6.3,0c0.9,0,0.7-0.6,0.7-1.1
		S323.3,38.7,322.6,38.7z"/>
	<path class="st0" d="M188.4,38.7c-1,0-2.1-0.1-3.1,0s-1.2-0.3-1.2-1.2c0-3.4,0-6.8,0-10.2c0-1-0.4-1.1-1.2-1s-1.4-0.3-1.4,1
		c0.1,2.1,0,4.1,0,6.2s0,4.2,0,6.3c0,0.7,0.2,0.9,0.9,0.9c1.9,0,3.9,0,5.8,0c0.8,0,1.2,0,1.2-1S189.1,38.7,188.4,38.7z"/>
	<path class="st0" d="M429.9,26.4c-0.7,0-1.4-0.3-1.4,1c0.1,4.1,0.1,8.2,0,12.4c0,1.1,0.6,1,1.2,1s1.4,0.3,1.4-1c-0.1-2,0-4.1,0-6.2
		s-0.1-4.1,0-6.2C431.2,26.2,430.6,26.3,429.9,26.4z"/>
	<g>
		<path d="M33.1,13.6c0.1,0.5,0.4,0.9,0.9,0.7c0.6-0.2,1-0.8,1-1.4c0-0.5-0.7-0.3-1.1-0.3h0c-0.5,0-1,0-1.5,0
			C32.3,13.3,33,13.1,33.1,13.6z"/>
		<path d="M23.4,62.4c0,0.1,0.1,0.2,0.1,0.3c0.1,0,0.2-0.1,0.2-0.2c0-0.1-0.1-0.2-0.1-0.3C23.5,62.3,23.4,62.4,23.4,62.4z"/>
		<path d="M31.5,15.5c1.7,1,2.6,3,2.1,4.9c-0.1,1,0.3,1.6,1.4,1.5H36c1.8,0,1.9-0.1,1.8-1.9c-0.2-1.8,0.6-3.5,2.2-4.4
			c0.2-0.1,0.4-0.2,0.5-0.4c0.6-0.7,0.5-1.7-0.2-2.3c-0.4,0.7-0.1,1.7-1,2.1c-0.6,0.3-1.3,0.5-1.4,1.4c-0.1,0.5-0.8,0.5-1.2,0.3
			c-0.4-0.1-0.4-0.4-0.2-0.7s0.5-0.7,0.1-1c-0.4-0.2-0.9-0.3-1.3,0c-0.5,0.2-0.3,0.5-0.1,0.9c0.2,0.4,0.1,0.7-0.3,0.8
			c-0.3,0.2-0.8,0-0.9-0.3c-0.2-0.3-0.2-0.9-0.6-1c-1.3-0.4-1.7-1.3-1.7-2.8h0C30.5,14,30.5,14.8,31.5,15.5z M35.8,17.8
			c0.1,0,0.2,0,0.3,0c0.5,0,0.8,0.4,0.8,0.9c-0.1,1-0.8,0-1,0.3c-0.6,0.1-1.2,0.2-1.2-0.5C34.7,17.7,35.5,17.9,35.8,17.8z
			 M35.9,19.9c0.5,0,1.1,0,1.1,0.6c0,0.9-0.8,0.4-1.3,0.5c-0.4-0.1-1.1,0.2-1.1-0.5C34.7,19.8,35.4,20,35.9,19.9z"/>
		<path d="M20.9,82c-0.5,0.2-0.8,0.8-0.6,1.4c0.1,0.1,0.2,0.2,0.3,0.2c0.6-0.2,0.5-0.8,0.5-1.3c0.2-0.1,0.6-0.3,0.3-0.5
			S21,81.8,20.9,82z"/>
		<path d="M31.6,25.7c0.3-1.1,0.5-1.8,0.6-2.5c0-0.5-0.2-0.9-0.6-1.1c-0.2-0.2-0.4-0.1-0.5,0.1s-0.2,0.8-0.6,0.6S30,22.1,30,21.7
			c-0.1-0.8,0.5-1.4,0.7-2.1c0.2-0.4,0-0.8-0.3-1c-0.5-0.2-0.5,0.4-0.7,0.6c-0.3,0.5-0.6,1.1-0.8,1.7c-0.4,0.9-0.5,2,0.4,2.6
			C30.3,24.1,31,24.9,31.6,25.7z"/>
		<path d="M36.3,63.9c0.2,0.1,0.4-0.1,0.4-0.4c-0.2-0.6-0.7-1.1-1.3-1.4c-0.1,0-0.1,0-0.2,0c-0.1,0.1-0.2,0.2-0.1,0.4
			C35.4,63,35.6,63.7,36.3,63.9z"/>
		<path d="M31,74.6c-0.2,0.3-0.2,0.8-0.6,0.6c-0.4-0.1-0.4-0.6-0.4-1c0-0.6,0.2-1.2,0.5-1.6c0,0,0-0.1,0.1-0.1
			c0.4-0.6,0.2-1.5-0.5-1.8c-0.4,0.9-0.8,1.7-1.1,2.5c-0.3,1-0.5,2.2,0.4,2.9c0.8,0.6,1.5,1.3,2.2,2.1c0.1-1.3,1-2.3,0.2-3.5
			C31.6,74.4,31.4,74,31,74.6z"/>
		<path d="M36.5,65.3c0.5,0.4,0.6,1.3,1.3,1.4c0.9,0.2,0.5-1.3,1.4-1.2h0c0-0.5-0.3-0.5-0.5-0.5C37.9,65.1,37.1,64.7,36.5,65.3z"/>
		<path d="M38.2,63.8c0.1,0,0.4,0,0.4-0.3c-0.2-0.4-0.4-0.9-1-1.1l0,0c-0.2,0-0.4,0-0.3,0.3C37.3,63.2,37.7,63.6,38.2,63.8z"/>
		<path d="M44.9,29.2c-0.2,0.1-0.5,0.2-0.4,0.5c0.2,0.3,0.4,0,0.6-0.2l0,0c0.1-0.1,0.1-0.2,0.2-0.2C45.2,29,45.1,29.2,44.9,29.2z"/>
		<path d="M66.1,29.5C66.1,29.5,66.2,29.6,66.1,29.5L66.1,29.5L66.1,29.5C66.1,29.4,66.1,29.5,66.1,29.5z"/>
		<path d="M34.4,11.2c0.2,0,0.3-0.2,0.2-0.4h0c0,0,0,0,0-0.1c-0.2-0.6-0.8-1-1.5-0.8C33.5,10.6,33.7,11.2,34.4,11.2z"/>
		<path d="M20.8,13.7c-0.2,0-0.5,0-0.5,0.3c-0.1,0.3,0.2,0.3,0.3,0.3c0,0,0,0,0.1,0c0.2,0,0.4-0.1,0.4-0.3c0,0,0,0,0,0
			C21.1,13.8,21,13.7,20.8,13.7z"/>
		<path d="M44.2,29.8c-0.2,0.1-0.3,0.3-0.4,0.5c0,0.2,0,0.3,0.2,0.3v0c0.3,0,0.5-0.3,0.4-0.5C44.5,29.9,44.5,29.8,44.2,29.8z"/>
		<path d="M23.6,9.9c-0.1,0.1-0.1,0.1-0.2,0.2s0,0.2,0.1,0.2c0.1,0,0.2-0.1,0.2-0.2C23.7,10.1,23.7,9.9,23.6,9.9z"/>
		<path d="M41,10.2c-0.1-0.2-0.5-0.2-0.7,0c-0.6,0.5-0.5,1,0.1,1.7C40.5,11.2,41.2,10.9,41,10.2z"/>
		<path d="M38.2,11.3c0.2,0,0.4-0.2,0.3-0.3c-0.3-0.5-0.5-1.1-1.3-1.1c0,0-0.1,0-0.2,0.1C37.3,10.6,37.5,11.2,38.2,11.3z"/>
		<path d="M36.4,11.5c0.2,0,0.4-0.1,0.3-0.3c-0.1-0.7-0.5-1.2-1.1-1.6c-0.3,0-0.6,0.1-0.5,0.3C35.4,10.5,35.6,11.2,36.4,11.5z"/>
		<path d="M37.3,12.5c-0.3,0-0.9,0-0.8,0.4c0.2,0.5,0.6,1,1,1.3c0.2,0.2,0.8,0.2,0.8-0.2c0.1-0.7,0.8-0.8,1.3-1.5
			C38.6,12.5,38,12.5,37.3,12.5z"/>
		<path d="M33.8,66.8c0.9,0.1,1.1-1,1.2-1.3c0.1-0.8-0.8-0.5-1.3-0.6v0c-0.4,0.2-1.3-0.3-1.2,0.4C32.6,66,33.1,66.6,33.8,66.8z"/>
		<path d="M36.3,37.6c0.2,0.1,0.4-0.1,0.4-0.4c-0.2-0.6-0.7-1.2-1.4-1.4c-0.2,0-0.4,0.1-0.3,0.3C35.3,36.6,35.6,37.4,36.3,37.6z"/>
		<path d="M33.9,40.6c0.8,0.1,0.7-1.1,1.4-1.3c-0.3-0.9-1-0.5-1.6-0.6c-0.4,0.2-1.3-0.2-1.2,0.4C32.6,39.7,33.1,40.4,33.9,40.6z"/>
		<path d="M34.3,37.4c0.3,0,0.4-0.2,0.3-0.5c-0.2-0.5-0.4-0.9-1-0.9c-0.3,0-0.4,0.2-0.3,0.4C33.5,36.9,33.8,37.3,34.3,37.4z"/>
		<path d="M37.2,38.7c-0.4,0-0.9,0.4-0.7,0.5c0.7,0.4,0.6,1.5,1.3,1.4c0.7-0.1,0.9-1.2,1.9-1.6C38.9,38.7,38,38.6,37.2,38.7z"/>
		<path d="M31.7,37.8C31.7,37.7,31.7,37.7,31.7,37.8c0.4-0.4,0.3-0.9,0-1.2c-0.4-0.4-0.8-0.4-1.5-0.2c0.3,0.4,0.7,0.8,0.8,1
			C31.1,37.6,31.2,38.1,31.7,37.8z"/>
		<path d="M38.2,41.7c-0.4,0.1-0.2,0.5-0.4,0.8c-0.2,0.5-0.7,0.5-1.2,0.4c-0.6-0.2-0.3-0.6-0.1-0.9c0.2-0.3,0.3-0.6-0.1-0.8
			c-0.4-0.2-0.8-0.2-1.2,0C35,41.3,35,41.5,35,41.9s0.6,0.9-0.1,1.1c-0.7,0.2-1.1-0.2-1.3-0.8c0-0.2-0.1-0.3-0.3-0.4
			c-1.2-0.3-2-1.5-1.7-2.7c-1.1,1-1.1,2,0.1,2.8c1.3,0.8,2.1,2.2,2.2,3.7c0.1,0.8-0.6,1.5,0.1,2.3c0.7,0.9,1.6,0.1,2.4,0.3
			c1.1,0.3,1.7-0.4,1.5-1.5c-0.4-1.9,0.4-3.8,2-4.8c1-0.7,1.1-1.7,0.2-2.9C40,40.3,39.7,41.4,38.2,41.7z M35.8,47.3
			c-0.4-0.1-1.2,0.3-1.1-0.5c0-0.7,0.7-0.7,1.3-0.7c0.5,0,1.1,0.2,1.1,0.7C37,47.6,36.2,47.1,35.8,47.3z"/>
		<path d="M84.2,22.8c0.5,1,1.6,1.7,2.8,1.7c0.1,0,0.1,0,0.2,0c2.3-0.6,3.6-2.9,3-5.2c-0.8-2.2-3.3-3.1-5.8-2.2
			c-2.8,1.1-4.1,3.3-5,5.9c-0.4,1.2-0.7,2.4-1,3.6c0.5-6,3.4-12,10.6-9.9c-1-1.5-2.2-2.9-3.7-3.9c-3-2.2-5.5-5.1-7.3-8.4
			c-0.3-0.6-0.6-0.7-1.3-0.6c-1.9,0.3-3.8,0.9-5.8,0.5c-3.4-0.7-6.7-1.6-9.9-2.7c-4.4-1.4-8.9-2.3-13.3-0.2c-1.6,1-3.6,0.9-5.2-0.1
			C39.2-0.5,35.7,0,32.2,0.7c-3.5,0.6-6.6,2.2-10.1,3c-2.6,0.7-5.3,0.8-7.9,0.1c-1.3-0.4-1.8,0-2.3,1c-1.7,3.5-4.8,6-7.7,8.5
			c-1.1,0.9-2,2-2.8,3.2c6.5-1.1,10.8,3,10.7,10.2c-0.3-1.3-0.6-2.6-1-3.7c-1-3-2.6-5.4-5.9-6.2c-2.5-0.6-5.7,0.5-5.1,4.4
			c0.3,1.6,1.5,2.9,3.1,3.3c1.2,0,2.3-0.7,2.9-1.8c0.2-0.5,0.3-0.9,0.4-1.4c1.9,0.8,2.7,2.5,3.7,4.1c3.1,5.3,3,11,2.3,16.8
			c-0.4,3.7-1.3,7.3-2.6,10.7c-1.3,3.1-3.2,6-5.7,8.3c-1.5,1.2-2.4,3-2.3,4.9c2.9-2.8,5.2-6,7-9.6c0,0.3-0.1,0.7-0.3,1
			C7.2,60.6,5.3,63.5,3,66c-1,0.9-1.3,2.3-0.8,3.5c1.3,4.2,3.2,8.1,5.6,11.7c2.7,3.9,6.6,6.8,11,8.4c3.8,1.4,7.8,2,11.7,2.9
			c5.2,1.3,9.9,3.2,13.7,7c0.6,0.7,1,0.6,1.5,0c3.3-3.1,7.4-5.3,11.8-6.4c4.8-1.4,9.8-1.9,14.4-3.7c3.3-1.3,6.2-3.3,8.6-6
			c3.8-4.2,6-9.3,7.6-14.7c0.2-0.6,0.1-1.2-0.3-1.7c-1.3-1.6-2.5-3.2-3.6-4.9c-1.2-1.6-2.1-3.4-2.8-5.3c1.8,3.4,4,6.5,6.8,9.2
			c-0.2-1.6-0.3-3.2-1.7-4.4c-2-1.6-3.6-3.5-4.8-5.8c-3.1-6.4-4.6-13.6-4.2-20.7c0.1-3.6,1.1-7.1,2.8-10.2c0.8-1.5,2-2.9,3.5-3.8
			C83.7,21.6,83.9,22.2,84.2,22.8z M43.8,12.6c0.4-1.5,1.7-2.5,3.2-2.6c0.8-0.1,1.5,0,2.3,0.2c0.7,0.2,1.3,0.3,2,0.4
			c0.7,0,1.3,0,2,0c-1.1,1.7-2.9,2.3-4.1,1.2c-0.4,0.3-0.1,0.7-0.2,1c-0.1,0.5-0.5,0.6-1,0.8c-0.5,0.1-0.6-0.1-0.7-0.5
			c0-0.1,0-0.1-0.1-0.1c-0.2-0.3-0.5-0.4-0.8-0.3c-0.5,0.2-0.5,0.6-0.4,1c0.2,0.5,0.7,0.9,1.3,1c1.9,0.5,3.7-0.2,5.5-0.7
			c2.8-0.7,5.4-1.9,8.2-2.5c0.2,0,0.5-0.2,0.7,0c-0.3,0.7-1.3,0.5-1.5,1.3c-2.1,1.4-4.6,1.9-7,2.6c-2.1,0.7-4.3,1.3-6.6,0.8
			C44.8,15.9,43.5,14.3,43.8,12.6z M60.4,12.9L60.4,12.9L60.4,12.9L60.4,12.9z M20.4,27.9c0.1,0,0.3-0.2,0.4-0.2
			c-0.5-1.4,0.8-1,1.2-0.9c2,0.9,3.7,0.1,5.2-1c0.6-0.4,1.3-0.9,2.2-1.4c-1.2-0.2-2.2-0.2-2.7-1.2c0.4-0.2,0.9,0.1,1.3-0.4
			c-0.8-1.3-2.8-0.1-3.4-1.7c0-0.2,0.1-0.1,0.4-0.2c0.3,0,0.7,0.1,0.8-0.3c0-0.4-0.4-0.6-0.8-0.6c-0.5-0.1-1-0.1-1.5-0.2
			c-0.6-0.2-1.8-0.4-0.5-1.4c0,0,0,0,0,0c0.3-0.3,0.3-0.8,0-1.1c0,0,0,0,0,0c-0.2-0.3-0.7-0.4-1-0.2c-1.5,1-2.2-0.3-3.1-1
			c-0.3-0.2-0.5-0.5,0.1-0.8c0.8-0.4,1.2-1,0.2-1.8c-0.6-0.5-0.7-1.3-0.2-1.9c0.4-0.6-1.1-1-0.1-1.4c0.4-0.1,1,0.2,1.6,0.2
			c0.2,0,0.4,0,0.7,0c0.1,0.1,0.2,0.3,0.4,0c0,0-0.1-0.2-0.2-0.3c-0.2-0.3-0.6-0.5-0.3-0.9s-0.3-0.6-0.3-1c0.6-0.3,1,0.1,1.4,0.5
			c0.3,0.4,0.7,1,1.2,0.9c0.6-0.1,0.4-0.9,0.6-1.4c1.4,1.5,1.7,2.6,0.8,4.2c-0.5,0.8-0.3,1.9,0.4,2.6c0.8,0.8,1.6,1.4,2.5,2
			c0.5,0.3,0.9,0.8,1,1.4c0.5-1.2,1.7-1.8,2-3c-0.7-0.3-0.8,0.5-1.4,0.5c-0.2-0.7-0.1-1.4,0.2-2.1c0.4-0.7,0.5-1.5,0.3-2.3
			c-0.1-0.3-0.3-0.9,0.2-1.1c0.5-0.2,0.8,0.3,1,0.7c0.1,0.2,0.2,0.4,0.3,0.6c0.9-1,0.8-1.2-1.3-2.2c1.8,0,3.2-0.7,4.5-1.3
			c1.8-0.6,3.2,0.4,4.8,0.9c0.3,0.2,0.6,0.3,0.9,0.3c0.2,0,0.5,0,0.7,0.1c0.9,0.3,1.3,1.3,0.9,2.2c-0.1,0.6-0.1,1.3,0.2,1.8
			c0.4,0.7,0.6,1.5,0.4,2.3c-0.6,0.1-0.7-0.8-1.4-0.6c0,1.1,0.9,1.5,1.5,2.2c0.2,0.2,0.4,0.2,0.5-0.1s0.3-0.3,0.6-0.3
			c3.9,1,7.7,0.3,11.4-0.8c3.4-1,6.9-1.4,10.4-0.2c0.6,0.2,1.2,0.2,1.7,0c0.1,0,0.2,0,0.2-0.1c0.4-0.2,0.5-0.7,0.3-1.1
			c0-0.1-0.1-0.1-0.1-0.2c-0.3-0.4-0.8-0.5-1.3-0.3c-1.4,0.6-1.4,0.7-1.7-1c-0.7-0.1-0.4,1.2-1.2,0.9c-0.6-0.2-0.4-0.7-0.5-1.1
			c0-0.1,0.2-0.2,0.1-0.3s-0.2,0-0.2,0.1c-0.6,1.1-1.9,1.7-3.1,1.3c-0.2-0.7,1.1-0.7,0.7-1.5c1.1,0,2-0.4,2.2-1.7
			c0.1-0.7,0.6-1.3,1.3-1.5c0.7-0.2,1.4-0.6,1.2,0.7c-0.1,0.6,0.4,1,1,1.2c0.7,0.2,1.3,0.4,1.9,0.6c1.3,0.5,2.1,1.7,2,3.1
			c0,1.3-0.8,2.5-2.1,2.9c-0.5,0.2-1.5-0.1-1.3,0.9c0,0,0,0,0,0c0.1,0.8,0.9,1.4,1.8,1.2c0.8-0.1,1.5,0.4,1.8,1.1
			c-0.2,0.4-0.4,0.1-0.8,0.2c-0.4,0.1-1-0.1-1,0.4c0,0.5,0.5,0.8,1,0.8c0.4,0,0.8,0,1.2,0c0.5,0,1,0.3,1,0.9s-0.6,0.2-0.9,0.3
			s-0.6,0-0.6,0.4c0,0.3,0.2,0.5,0.5,0.5c0.6,0.1,1.1,0.2,1.7,0.3c0.9,0.3,0.8,0.5,0.2,1.3c-0.7,0.8-0.4,1.8-0.2,2.7
			c0.4,1.8,0.2,2.2-1.5,2.4c-0.6,0-1.1,0.3-1.5,0.8c-0.4-0.8-0.9-1.4-0.7-2.2c0.1-0.1,0.1-0.3,0.1-0.4c0,0-0.2,0.1-0.3,0.1
			c-0.1,0-0.2,0.1-0.2,0.1c-0.4,1.3-1.6,1.7-2.7,2.2c-0.4-0.8,0.4-1.5,0-2.3c-0.7,0.4-0.9,1.5-2,1.5c0.3-0.8,0.6-1.7,0.9-2.5
			c0.3-0.6,1-1,1.7-0.9c0.4,0,0.8,0,1.2,0c0.8,0,1.2-0.3,1.1-1.2c-0.1-0.9-0.9-0.7-1.4-0.6c-0.4,0.1-0.8,0.6-1.1,0.7
			c-0.3,0.1-0.8,0.5-0.9,0.1c-0.4-1.1-1.4-1.1-2.2-1.6c-1.3-0.7-2-2.3-1.6-3.8c0.1-0.6,0.6-1.3-0.4-1.6c0,0.8-0.3,1.5-1,2
			c-0.6,0.4-0.9,1.1-0.8,1.8c0.1,0.7-0.1,1.4-0.7,1.8c-0.3,0.1-0.2-0.1-0.2-0.2c-0.2-0.5-0.1-1.4-0.8-1.3c-0.7,0.2-0.5,1-0.3,1.6
			c0.3,0.7,0,1.5-0.7,1.8c-0.3-0.5-0.1-1.7-0.9-1.5c-0.8,0.2-0.5,1.1-0.3,1.7c0.2,0.8-0.1,1.3-0.8,1.8c-0.2-0.4-0.3-0.7-0.5-1.2
			c-0.8,0.5-1.5,0.8-1.8,1.7c-0.1,0.3-0.3,0.5-0.6,0.7c-0.6,0.3-1.2,0.9-1.2-0.5c0-0.2-0.2-0.4-0.5-0.6c-0.2,2.5-2.6,1.3-3.8,2.5
			v-1.6c0.2-0.1,0.4-0.3,0.2-0.5c-0.2-0.2-0.3,0.1-0.4,0.3c-0.5,0.7-1.2,1.2-2,1.4c0.2-1.2,0-1.9-1.3-0.9c0.5-2.7,2.4-4,4.7-3.3
			c1.9,0.6,2.7,0.2,3.6-1.8l-1.1-0.1c-0.1-0.3,0.2-0.5,0.2-0.7c0.7-2.5,2.5-3.6,4.9-3.9c0.9,0,1.7-0.5,2-1.3c0.4-1,1.5-0.6,2.4-0.5
			c0.4,0,0.8,0.5,1.2,0.1c-0.2,0.4-0.1,0.5,0.3,0.5c0.2-0.3,0.1-0.5-0.3-0.5c-0.9-1.2-2.1-1-3.2-0.7c-1.7,0.5-3.4,1.3-4.9,2.2
			c-2.1,1.2-4.3,2.2-6.6,3c-0.7,0.3-1.4,0.5-1.2,1.6c0.2,0.8-0.6,0.8-1.1,0.6c-0.7-0.2-1.3-0.6-1.9-1c-0.8-0.7-0.1-1.2,0.3-1.8
			c1.4-1.7,1.5-2.7,0.2-4.4c-0.2-0.2-0.4-0.7-0.8-0.5c-0.4,0.3-0.5,0.5-0.2,1.1c0.3,0.5,0.7,1,0.6,1.7c-0.1,0.4-0.2,0.9-0.6,1
			c-0.4,0.2-0.4-0.4-0.6-0.6c-0.1-0.2-0.3-0.3-0.5-0.2c-0.4,0.2-0.6,0.8-0.4,1.2c0.5,1.5-0.1,3.7,2.5,4c-0.7,0.8-1.4,0.9-2,0.5
			c-0.6-0.4-1.5-0.6-1.3-1.6c0-0.3,0-0.6-0.2-0.9c-0.1-0.3-0.2-0.7-0.6-0.6c0,0,0,0,0,0c-0.3,0.1-0.5,0.4-0.5,0.7
			c0.1,1.3-0.5,2.9,1.8,3.1c-0.5,0.7-1.5,0.9-2.3,0.5c-0.8-0.4-0.8-1-0.8-1.7c0-0.3,0-0.5,0-0.8s-0.1-0.6-0.5-0.7
			c-0.4,0-0.5,0.3-0.5,0.6v1.5c-1.1-0.4-1.8-0.9-1.3-2.1c0.2-0.4,0.3-1-0.3-1.1s-0.6,0.5-0.8,0.8c-0.4,0.6-0.3,1.5,0.2,2
			c0.4,0.5,1,0.8,0.4,1.5c-0.6,0.8-1,1.6-2.3,1.1c0.1-0.2,0.2-0.3,0.2-0.5c0.1-0.4,0.8-0.7,0.3-1.1s-1,0.2-1.3,0.6
			c-1.1,1.5-1.2,1.5-2.5,0.3c-0.2-0.2-0.6-0.3-0.9-0.2c0,0,0,0-0.1,0c-0.3,0.1-0.4,0.4-0.3,0.7c0.7,1.5-0.8,1.8-1.4,2.5
			c-0.1,0.2-0.4,0.3-0.5,0c-0.5-1-1-1.4-2.2-0.7c-0.7,0.3-1.4,0.5-2.2,0.6c0.5-1,0.9-2.1,1.3-3.1c-0.1,0-0.1,0-0.2-0.1
			c-0.4-0.1-0.8,0.2-0.9,0.7c-0.2,1.3-1.3,1.4-2.5,1.6C18.8,30,18.5,28.3,20.4,27.9z M48.9,38.1c0.2,0.7,0,1.3-0.6,1.6s-1,0-1.2-0.6
			c-0.1-0.3-0.5-0.4-0.8-0.2c-0.4,0.2-0.5,0.7-0.3,1.1c0.4,0.7,1.2,1.2,2,1.1c2.8,0,5.3-1,7.8-1.8c2.1-0.7,4.2-1.3,6.3-1.6
			c-2.2,1.3-3.6,2.9-5.9,3.3c-2.1,0.4-4.1,1.3-6.2,1.7c-1.7,0.4-3.5,0.2-5-0.8c-0.4-0.3-0.8-0.7-1-1.1c-0.7-1.4-0.1-3.1,1.3-3.8
			c1.1-0.7,2.4-0.9,3.6-0.6c1.5,0.4,3.1,0.6,4.7,0.4c-2.4,2.2-3.2,2.4-4.5,1.2c-0.2-0.2-0.3-0.4-0.5-0.1C48.5,38,48.8,38,48.9,38.1z
			 M73,79c-1.7,0.8-0.8,2-0.5,3.1s-0.1,1.6-1.1,1.9c-0.6,0.1-1.3,0.3-1.9,0.5c-0.6,0.3-0.8-0.6-1-1.1c-0.1-0.3,0.2-0.8-0.3-0.8
			c-0.4,0-0.5,0.4-0.6,0.8c-0.3,1.1-1.6,0.5-2.1,1.6c-0.3-0.6-0.3-1.3-0.3-1.9c0.1-0.2,0.2-0.6-0.1-0.7c-0.3-0.1-0.4,0.2-0.4,0.4
			c-0.1,0.7-0.7,0.8-1.3,1.1c0.7-2.5,0.5-3.6,3.2-3.3c0.1,0,0.3,0,0.4,0c0.8,0,1.2-0.4,1.1-1.2c0-0.2-0.1-0.3-0.2-0.4
			c-0.3-0.4-0.8-0.4-1.2-0.1c-0.1,0.1-0.3,0.3-0.5,0.4c-0.9,0.5-2.1,0.2-2.6-0.7c-0.2-0.2-0.7-0.3-1-0.5c-1.5-0.6-2.3-2.3-1.8-3.9
			c0.1-0.6,0.3-1.2-0.2-1.5c0,0.9-0.4,1.7-1.2,2.1c-0.5,0.3-0.7,1-0.6,1.5c0.2,0.7-0.1,1.4-0.7,1.8C58.2,78,58.1,78,58.1,78
			c-0.1-0.5-0.1-1.4-0.8-1.3c-0.8,0.2-0.5,1-0.3,1.6c0.3,0.6,0,1.3-0.5,1.6c-0.3,0.2-0.3,0.1-0.3,0c-0.2-0.5-0.2-1.4-0.9-1.2
			c-0.7,0.2-0.5,1-0.3,1.5c0.3,0.6,0.1,1.4-0.5,1.8c-0.8-1-1.4-1-2.1,0.1c0,0,0,0.1-0.1,0.1c-1.1,1.8-1.4,1.8-2.5,0.2
			c-0.2,0.8-0.8,1.4-1.5,1.8c-0.7,0.2-1.6-0.1-2.4,0.7c0.1-0.8,0.1-1.3,0.1-1.8c0.1-0.1,0.3-0.2,0-0.4c0,0-0.2,0.1-0.3,0.2
			c-0.5,0.7-1.2,1.2-2,1.5c-0.4-0.4,0.1-0.7,0-1.1c0.9-0.4,1.1-1.4,2.2-2c-1.5-0.1-2,0.8-2.5,1.7l-1.1,0.4c0.3-2.6,2.3-3.9,4.6-3.2
			c1.9,0.5,2.4,0.3,3.9-1.7c-0.3-0.4-0.9,0-1.2-0.3c0.4-2.4,2.4-4.2,4.8-4.3c0.9-0.1,1.9-0.1,2.3-1.4c0.2-0.7,1.1-0.5,1.8-0.5
			c0.5,0.1,1,0.4,1.5,0.1c-0.1,0.3,0,0.4,0.3,0.3c-0.1,0.2,0,0.3,0.1,0.3c0,0,0,0-0.1,0c0-0.3,0-0.3-0.3-0.3c0.1-0.3,0-0.3-0.3-0.3
			c-1-1.1-2.3-0.8-3.4-0.4c-3.9,1.6-7.6,3.9-11.6,5.4c-0.5,0.1-0.8,0.6-0.7,1.2c0,0.3,0.1,0.6-0.1,0.7c-1.1,0.6-1.9-0.5-2.7-0.8
			c-0.8-0.3-0.5-0.9-0.2-1.3s0.8-0.9,1.1-1.4c0.7-1.4,0.4-3-0.7-4c-0.2-0.2-0.4-0.2-0.6,0c-0.3,0.3-0.3,0.9,0,1.2
			c0.6,0.7,0.7,1.7,0.2,2.5c-0.1,0.1-0.2,0.2-0.3,0.2c-0.5-0.1-0.3-1.3-1.1-0.8c-0.7,0.4-0.4,1-0.2,1.6c0.1,0.2,0.1,0.3,0.1,0.5
			c-0.3,1.7,0.6,2.6,2.2,3.1c-0.5,0.6-1.3,0.8-2,0.4c-0.7-0.4-1.4-0.7-1.2-1.7c0.1-0.2,0.1-0.4,0-0.5c-0.2-0.3-0.2-1-0.7-0.9
			s-0.5,0.7-0.5,1.1c0,1.2-0.2,2.5,1.8,2.7c-0.6,0.6-1.5,0.8-2.3,0.5c-0.8-0.3-0.8-1-0.8-1.7c0-0.2,0-0.4,0-0.7
			c0-0.4-0.1-0.8-0.5-0.8c-0.5,0-0.5,0.4-0.5,0.8s0,0.8,0,1.3c-1.1-0.5-1.8-1.1-1.2-2.3c0,0,0,0,0,0c0.2-0.4,0-0.8-0.4-1
			c-0.6-0.3-0.6,0.4-0.7,0.7c-0.4,0.6-0.4,1.4,0,2c0.3,0.5,1.2,0.6,0.6,1.5c-0.6,0.8-1,1.7-2.3,1.5c0-0.1-0.1-0.2-0.1-0.2
			c0.1-0.5,0.9-1.1,0.2-1.5c-0.6-0.4-0.9,0.4-1.3,0.9c-0.8,1.1-1.5,1.1-2.2,0.1c-0.2-0.3-0.4-0.6-0.9-0.4s-0.5,0.5-0.3,1
			c0.2,0.7-1.2,2.7-1.6,2.4c-0.6-0.3-1-0.9-1.1-1.5c0-0.3,0-0.5,0-0.8c0-0.1,0.2-0.2,0.1-0.3c-0.1-0.1-0.2,0-0.3,0.1
			c-0.3,1.5-1.4,1.8-2.7,2.1c-0.2,0.1-0.3,0.1-0.5,0.2c-0.4-1.3-0.8-1.5-2.6-0.8c0.7-1.5,0.5-3.4,2.7-3.6c0.2,0,0.2-0.1,0.2-0.4
			c-0.1-0.6,0-0.8,0.5-0.8c0.4,0,0.8,0.1,1.2,0.2c1.1,0.4,2.4,0.2,3.3-0.5c0.7-0.5,1.5-0.9,2.3-1.4c0.2-0.1,0.5-0.2,0.5-0.5
			c0-0.3-0.4-0.4-0.6-0.4c-0.7-0.1-1.4-0.5-1.8-1.1h1.4c-0.4-0.9-0.4-1-1.7-1.1c-0.8,0-1.5-0.4-1.9-1.1c0.4-0.3,1,0.2,1.3-0.3
			c-0.7-1.4-2.7-0.2-3.4-1.7c0.2-0.2,0.5-0.4,0.7-0.6c0.3-0.3,0.3-0.8,0-1.1c-0.3-0.3-0.6-0.3-1-0.1c-1.1,0.4-2.4,0-3.1-1
			c-0.2-0.4,0.7-1.5,1.4-1.5c0.3,0,0.8,0.3,0.8-0.3s-0.5-0.3-0.8-0.3c-0.1,0-0.3,0-0.4-0.1c-0.8-0.2-1.2-1.1-0.9-1.8
			c0.1-0.6,0.3-1.1-0.4-1.6c1.1-0.4,1.9,0.3,2.8,0.1c0.1,0.1,0.3,0.1,0.4,0.1c0,0-0.1-0.2-0.1-0.3c-0.8-0.4-0.2-1.2-0.5-1.8
			c-0.1-0.2,0.3-0.2,0.5-0.2c0.2,0.1,0.4,0.3,0.6,0.5c1.3,1.3,1.3,1.3,1.9-0.3c1.2,1.3,1.5,2.5,0.8,3.9c-0.6,0.9-0.4,2.1,0.4,2.8
			c0.7,0.7,1.5,1.4,2.4,2c0.5,0.3,1,0.6,1.1,1.3c0.4-1.1,1.8-1.6,1.9-2.9c-0.7-0.2-0.8,0.5-1.3,0.5c-0.2-0.6-0.1-1.2,0.1-1.8
			c0.5-0.9,0.6-2,0.4-3c-0.1-0.2-0.1-0.7,0.2-0.8c0.3-0.1,0.5,0.2,0.8,0.4s0.1,0.9,0.7,0.7c0.2,0,0.3-0.4,0.3-0.5
			c0.1-0.5-0.3-0.8-0.7-1c-0.2-0.1-0.5,0-0.8-0.4c1.5,0,2.7-0.8,4-1.3c1.8-0.7,3.4,0.2,5,0.8c0.3,0.1,0.6,0.4,1,0.3
			c1.4-0.3,1.7,0.7,1.5,1.5c-0.1,1.2,0,2.4,0.5,3.5c0.2,0.5,0.2,1,0.1,1.4l-0.4-0.2c-0.4-0.2-0.6-0.8-1-0.5c-0.4,0.4,0.1,0.8,0.4,1
			c0.6,0.3,0.7,1.9,1.9,0.8c0.2-0.2,0.8,0.1,1.2,0.2c3.5,0.8,6.9,0,10.3-1c3.4-1,6.9-1.4,10.4-0.3c0.6,0.2,1.2,0.2,1.8,0
			c0.4-0.1,0.6-0.4,0.6-0.8c0-0.4-0.2-0.7-0.5-0.9c-0.3-0.2-0.7-0.1-1,0.1c-0.3,0.2-0.1,1.1-0.9,0.7c-0.5-0.3-0.5-0.8-0.5-1.4
			c0-0.1,0-0.2,0-0.4c-0.6-0.5-1.3,2.9-1.8-0.1c0.1-0.1,0-0.3,0-0.3c0,0-0.2,0.1-0.3,0.1c-1,1.2-1,1.2-3.2,1.3
			c0.2-0.8,1.3-0.9,1.4-1.7c0.1,0,0.2,0.1,0.2,0c0.3,0,0.6-0.3,0.6-0.6c0.7,0.2,0.9-0.3,0.9-0.8c0-0.7,0.4-1.3,1.1-1.5
			c0.7-0.3,1.5-0.7,1.4,0.7c0,0.6,0.5,0.9,1.1,1.1c0.6,0.2,1.1,0.3,1.7,0.5c1,0.3,1.8,1.2,2,2.2c0.4,1.7-0.6,3.4-2.3,3.8
			c-0.4,0.1-1.3,0-1.1,0.8c0.2,0.7,0.6,1.4,1.5,1.3c0.9-0.2,1.9,0.3,2.2,1.2c-0.2,0.3-0.5,0-0.8,0.1c-0.3,0.1-0.9,0-0.9,0.5
			c0,0.5,0.5,0.6,0.9,0.6c0.8,0.1,1.8-0.2,2.3,1.1l-1.7,0.2c0.2,0.7,0.9,1.2,1.7,1.1c0.5,0,0.9,0.1,1.2,0.4C73,78.3,73.3,78.8,73,79
			z M49.6,52.1c0.4-2.4,2.3-4.3,4.8-4.5c1-0.1,2-0.1,2.4-1.5c0.2-0.7,1.4-0.6,2.2-0.4c0.7,0.1,1.3,0.6,1.5,1.3
			c0.1,0.5-0.2,0.8-0.5,1c-0.8,0.5-1.3,1.5-1.1,2.4c0.1,0.6-0.2,1.2-0.7,1.5c-0.1-0.1-0.1-0.1-0.2-0.2c-0.1-0.5-0.1-1.4-0.8-1.3
			c-0.8,0.1-0.6,1-0.3,1.6c0.3,0.7,0,1.5-0.7,1.8c-0.1-0.1-0.1-0.1-0.2-0.2c-0.2-0.5-0.1-1.5-0.8-1.3c-0.8,0.2-0.6,1.1-0.4,1.7
			c0.3,0.8,0,1.3-0.7,1.8c-0.2-0.4-0.3-0.7-0.5-1.1c-0.1,0-0.2,0-0.2,0c-0.5,0.3-0.9,0.7-1.3,1.2c-1.4,1.9-1.5,2-2.6,0
			c-0.3,2.4-2.4,1.8-3.8,2.5c0-0.5-0.1-1.1-0.1-1.8c-0.6,0.7-1.3,1.3-2.2,1.7c0.3-1.4,0.1-2.1-1.3-1c0.6-2.9,2.4-4,4.9-3.3
			c1.7,0.5,2.4,0.2,3.7-1.8L49.6,52.1z M61,65.1c-0.2-0.3-0.5-0.2-0.7,0c-2.4,2.1-5.5,2.2-8.3,3.2c-1.4,0.4-2.9,0.6-4.3,0.5
			c-0.9,0-1.7-0.3-2.4-0.7c-1.1-0.6-1.7-1.8-1.5-3c0.4-1.3,1.5-2.3,2.8-2.6c1.1-0.2,2.1-0.2,3.2,0.1c1.3,0.4,2.6,0.5,3.9,0.1
			c-0.7,0.7-1.5,1.3-2.4,1.8c-0.8,0.3-0.8,0.3-2.4-0.7c-0.1-0.1-0.3-0.2-0.4,0c0.1,0.1,0.1,0.2,0.2,0.2c0.4,1.3,0.2,1.7-0.8,1.8
			c-0.3,0-0.5,0.1-0.6-0.3c-0.1-0.7-0.5-0.9-1-0.5c-0.5,0.4-0.3,1,0.1,1.4c0.5,0.4,1.1,0.6,1.7,0.6c3.1,0.1,5.9-1.1,8.8-2
			c1.4-0.4,2.8-0.8,4.1-1.2c0.7-0.2,0.8,0.1,0.8,0.7C61.2,64.4,60.8,64.4,61,65.1z M72.4,52.8c-0.2,0.1-0.3,0.4-0.2,0.6
			c0.1,0.9-0.2,1.8,0.3,2.6c0,0.1,0.1,0.2,0.1,0.3c0.2,0.6-0.2,1.2-0.8,1.4c-0.8,0.3-1.7,0.1-2.4,0.8c-0.2,0.2-0.3-0.2-0.5-0.3
			c-0.4-0.5-0.5-1.1-0.4-1.7c0-0.1,0.3-0.1,0.1-0.3s-0.3-0.1-0.4,0.1c-0.8,1-1.5,2.1-3,2.2c-0.3-0.9,0.4-1.7,0.8-2.7
			c-1.5,0-1.2,2-2.5,1.9c0.6-2.4,0.6-3.7,3.4-3.2c0.5,0.2,1-0.1,1.2-0.6c0.2-0.4,0.1-0.8-0.2-1.1c-0.4-0.4-1.1-0.4-1.5,0
			c-0.8,0.7-1.6,1.1-2.3-0.2c-0.2-0.3-0.8-0.4-1.2-0.6c-1.7-0.6-2.6-2.4-2.1-4.1c0.1-0.2,0.1-0.5,0.1-0.7c0-1.2-1-2.2-2.2-2.2
			c-2-0.2-3.6,0.8-5.2,1.6c-2.8,1.5-5.5,2.8-8.4,4c-0.7,0.3-1.3,0.7-0.8,1.5c0.3,0.5-0.2,0.5-0.4,0.5c-1.1,0.1-2.2-0.4-2.9-1.2
			c-0.5-0.5,0.2-1,0.5-1.5c1.4-1.6,1.5-2.5,0.5-4.1c-0.3-0.4-0.4-1.2-1-0.9c-0.7,0.3-0.5,1-0.1,1.5c0.6,0.7,0.5,1.9-0.2,2.5
			c-0.6-0.1-0.3-1.3-1-0.9c-0.7,0.3-0.6,1-0.3,1.6c0,0,0,0.1,0,0.1c0.4,1.4,1.1,2.6,2.2,3.7c-0.3,0.3-0.8,0.5-1.3,0.5
			c-1,0-1.9-0.8-1.9-1.9c0-0.3-0.1-0.5-0.2-0.8c-0.1-0.3-0.1-0.7-0.5-0.6s-0.5,0.4-0.5,0.8c-0.2,1.8-0.1,2,1.6,3.2
			c-0.5,0.5-1.3,0.7-1.9,0.4c-0.7-0.2-1.1-0.9-1-1.6c0-0.1,0-0.3,0-0.4c-0.1-0.5,0.2-1.2-0.4-1.2c-0.8-0.1-0.5,0.7-0.6,1.2
			c0,0.3,0.2,0.8-0.3,0.8c-0.5-0.1-0.9-0.4-1.1-0.9c-0.1-0.2-0.1-0.3,0-0.5c0.1-0.6,0.6-1.2-0.2-1.7c0,0,0,0,0,0
			c-0.2-0.1-0.3,0-0.4,0.1c-0.3,0.7-0.9,1.4-0.4,2.3c0.1,0.1,0.1,0.2,0.2,0.3c0.5,0.5,0.9,1.1,0.4,1.8c-0.5,0.8-1.1,1.3-2.1,0.9
			c-0.1-0.5,0.9-1.1,0.2-1.5c-0.7-0.4-1,0.4-1.4,0.9c-0.7,0.9-1.4,1-2.1,0.1c-0.3-0.4-0.6-0.6-1-0.4s-0.4,0.5-0.3,0.9
			c0.1,0.8-0.9,2.6-1.6,2.5c-0.6-0.1-0.9-0.8-1.2-1.4c-0.1-0.2,0.1-0.6-0.4-1c0.1,2.3-2.1,1.3-2.9,2.4c0.1-1,0.8-1.9,0.8-3.2
			c-1.1,0.8-1.4,2.5-3,2.2c0-2,0.8-3.1,2.8-3.7c0.1-0.3-0.1-0.3-0.3-0.3l-0.4-0.1c0.6-0.8,1.4-0.5,2.1-0.3c1.5,0.4,5.3-1,6.2-2.2
			c0.3-0.5,0-0.6-0.3-0.6c-0.7,0-1.4-0.4-1.8-1c0.3-0.4,1.1,0.2,1.1-0.5c0-0.6-0.8-0.7-1.3-0.7c-0.9,0-1.7-0.4-2.2-1.1
			c0.4-0.3,1.1,0.2,1.1-0.5S24.7,46,24.2,46c-0.9,0.1-1.7-0.3-2.1-1.1c0.7-0.3,1.2-0.7,0.8-1.5c-0.4-0.7-0.8-0.4-1.5-0.1
			c-0.6,0.3-2.5-0.8-2.7-1.4c-0.1-0.5,0.3-0.4,0.5-0.6c0.4-0.5,1.2-1,0.1-1.6c-0.4-0.3-0.6-0.9-0.5-1.5c0-0.2,0.1-0.3,0.1-0.5
			c0.1-0.8,0.2-0.9,1.2-1s0.8-1,0.8-1.6c0.1-0.2-0.5-0.4,0-0.6c0.3-0.1,0.6,0,0.7,0.2c0.6,0.7,1.2,1.3,2,2.1c0.2-0.8-0.1-1.5,0.2-2
			c1.2,0.9,1.6,2.5,0.9,3.8c-0.6,0.9-0.4,2.2,0.5,2.9c0.8,0.7,1.6,1.3,2.4,2c0.4,0.3,0.9,0.4,0.9,1.3c0.7-0.8,1.3-1.5,1.8-2.2
			c0.2-0.3,0.5-0.7,0.2-0.9c-0.3-0.2-0.5,0.2-0.8,0.4l-0.4,0.3c-0.3-0.2-0.2-0.4-0.2-0.6c0.2-1.5,0.8-3,0.7-4.7c0-0.2,0-0.4,0-0.5
			c0.2-0.5,0.8-0.8,1.3-0.7c0.6,0.1,0.9-0.2,1.4-0.4c1.9-0.8,3.8-1.4,5.8-0.2c0.9,0.6,1.9,0.8,3,0.7c-0.3,0.6-0.8,0.5-1.1,0.7
			c-0.4,0.2-0.6,0.6-0.5,1c0.1,0.2,0.2,0.5,0.4,0.5c0.4,0,0.3-0.4,0.6-0.6c0.2-0.3,0.6-0.6,0.9-0.5s0.3,0.3,0.3,0.5
			c-0.4,1.4,0.2,2.6,0.6,3.9c0,0.4,0,0.7,0,1.1c-0.1,0.1-0.2,0.1-0.3,0.1c-0.4-0.1-0.8-0.9-1.2-0.5c-0.3,0.5,0.2,0.7,0.7,1.2
			c0.4,0.5,0.8,1.2,1.6,0.5c0.1-0.1,0.3,0,0.5,0c3.7,1,7.4,0.1,10.9-0.8s6.9-1.6,10.4-0.4c0.6,0.2,1.3,0.2,1.9,0
			c0.4,0,0.7-0.3,0.7-0.7c0.1-0.4-0.1-0.7-0.4-0.9c-0.3-0.2-0.8-0.3-1,0c-1.2,1.7-1.5,0.2-2-0.5c-0.4-0.1-0.4,0.8-0.9,0.5
			c-0.5-0.3-0.4-0.8-0.4-1.5c-0.8,1.5-2.1,1.6-3.6,1.6c0.7-0.8,1.5-1.5,2.4-2c0.5-0.2,0.8-0.7,0.8-1.2c0-1.1,0.9-1.4,1.8-1.7
			c0.5-0.1,0.8,0,0.7,0.6c-0.2,0.9,0.4,1.3,1.1,1.5c0.5,0.1,1,0.3,1.4,0.4c1.4,0.4,2.4,1.7,2.4,3.2c0,1.3-0.9,2.3-2.5,3
			c-0.3,0.2-1.3-0.1-1,0.8c0.2,0.7,0.6,1.4,1.5,1.4c0.4,0,0.7,0,1.1,0c0.5,0.1,0.8,0.4,0.9,0.9c0,0.5-0.6,0.2-0.9,0.3
			s-0.7,0-0.7,0.4c0,0,0,0,0,0.1c0,0.4,0.4,0.7,0.8,0.7c0.5,0,1,0,1.5,0c0.5,0,0.9,0.3,0.9,0.8c0,0.6-0.6,0.3-0.8,0.3
			c-0.2,0.1-0.6,0-0.6,0.3c0,0.4,0.3,0.6,0.6,0.6c0.5,0.1,1,0.2,1.5,0.2c0.5,0.1,0.9,0.5,1,1C73.2,53.1,72.6,52.6,72.4,52.8z"/>
		<path d="M38,37.4c0.3,0,0.4-0.1,0.3-0.5c-0.1-0.4-0.4-0.7-0.9-0.9c-0.1,0-0.1,0-0.2,0c-0.1,0.1-0.2,0.2-0.1,0.4
			C37.3,36.9,37.6,37.3,38,37.4z"/>
		<path d="M31,48.5c-0.2,0.3-0.2,0.8-0.7,0.6S30,48.4,30,48c0-0.6,0.2-1.2,0.5-1.7c0,0,0-0.1,0.1-0.1c0.4-0.6,0.1-1.5-0.5-1.8
			c-0.4,0.9-0.8,1.6-1.1,2.6c-0.3,0.9-0.5,2.1,0.4,2.7c0.9,0.6,1.7,1.4,2.3,2.3c0-1.4,1-2.4,0.2-3.5C31.6,48.3,31.3,47.9,31,48.5z"
			/>
		<path d="M20.7,39.8C20.7,39.8,20.7,39.8,20.7,39.8c-0.2,0-0.4,0.2-0.4,0.4c0,0.2,0.2,0.4,0.4,0.4c0.3,0,0.5-0.2,0.4-0.4
			C21.1,40,21,39.8,20.7,39.8z"/>
		<path d="M45.4,55.2C45.4,55.2,45.3,55.3,45.4,55.2l0,0.2L45.4,55.2C45.5,55.3,45.5,55.2,45.4,55.2z"/>
		<path d="M68.6,82.2C68.6,82.2,68.5,82.3,68.6,82.2l0,0.2L68.6,82.2C68.7,82.2,68.7,82.2,68.6,82.2z"/>
		<path d="M44.6,55.6c-0.3,0-0.5,0.3-0.5,0.6c-0.1,0.2-0.3,0.5-0.1,0.6c0.2,0.1,0.4-0.1,0.4-0.3c0.3-0.1,0.4-0.3,0.5-0.6
			c0.1-0.1,0.2-0.2,0.2-0.3C44.9,55.3,44.8,55.4,44.6,55.6z"/>
		<path d="M41.6,62.5C41.6,62.5,41.6,62.5,41.6,62.5c-0.6-0.3-1.3,0-1.6,0.6c-0.2,0.4-0.1,0.8,0.6,1.2v0
			C40.5,63.3,41.3,63.1,41.6,62.5z"/>
		<path d="M39.1,67.6c-0.6,0.2-1.1,0.4-1.2,1.2c-0.1,0.6-0.8,0.5-1.3,0.4c-0.4-0.1-0.2-0.3-0.1-0.6c0.1-0.3,0.5-0.7,0-0.9
			c-0.4-0.2-0.8-0.2-1.2,0c-0.4,0.2-0.3,0.6-0.1,0.9c0.2,0.3,0.2,0.6-0.2,0.8s-0.9,0.1-1-0.2c-0.4-1.6-3-1.6-2.4-3.9
			c-1,1.2-1,2.2,0.1,2.9c1.6,0.9,2.4,2.8,2,4.6c-0.2,1.1,0.3,1.7,1.5,1.7c0.4,0,0.9,0,1.3,0c1.2,0.1,1.6-0.5,1.5-1.5
			c-0.4-1.9,0.4-3.8,2-4.8c1-0.8,1-1.7,0.2-3.1C40.1,66.1,40.1,67.1,39.1,67.6z M35.9,70.1c0.5,0,1,0.3,1,0.9
			c0.1,0.9-0.7,0.3-0.9,0.5c-0.6,0-1.3,0.2-1.2-0.6C34.7,70.2,35.4,70.1,35.9,70.1z M35.8,73.4c-0.4-0.2-1.1,0.3-1.1-0.4
			c0-0.6,0.6-0.7,1.1-0.7c0.6,0,1.3,0.1,1.3,0.8S36.2,73.3,35.8,73.4z"/>
	</g>
</g>
</svg>
