<svg id="Layer_1" data-name="Layer 1" xmlns="http://www.w3.org/2000/svg" viewBox="0 0 393.04 150.02"><defs><style>.cls-1{fill:#fff;}</style></defs><rect class="cls-1" width="393.04" height="150.02"/><path d="M68.07,90.57a.41.41,0,0,0-.21-.49c-.29-.14-.54-.41-.87-.28-.17-.31,0-.42.17-.52s.13-.34.14-.5c-.06-.34-.53-.2-.6-.58a1.26,1.26,0,0,1,1.1-.3c.2.2.55.39.62.66s.47.34.65.58a1.93,1.93,0,0,1,.56,1.22c.2-.57.2-.57,0-1.06.32-.14,0-.57.35-.72-.14-.21-.27-.41-.11-.68.08,0,.2,0,.24,0,.43.4.91.78.85,1.47a.31.31,0,0,0,0,.17,1.9,1.9,0,0,1,.52,1.82l-1,2a8.76,8.76,0,0,0,3.11,3c0,.22-.23.29-.34.44s.09.63-.23.83l.29.6a.36.36,0,0,0,.11-.1c.32-.64.55-1.33,1.29-1.67a1.22,1.22,0,0,0,.59-.82c-.3-.18,0-.56-.19-.8l-.66.71a4.89,4.89,0,0,1,.5-3.18,1.35,1.35,0,0,0,.08-1.3,3.34,3.34,0,0,1,0-1.69c.45.54,1,1,1.43,1.46l0,.44c.23.11.53-.58.53-1.21a2.32,2.32,0,0,0-.93-.59l-.83-.74c.52-.11,1-.52,1.42-.09.61-.06.91-.57,1.45-.66a4.21,4.21,0,0,0,.71-.12c.22-.08.34-.32.59-.42a1.71,1.71,0,0,1,.61-.15h2.23a6,6,0,0,0,2.19.8l.55.55c.12,0,.33.06.42,0,.53-.43.94.08,1.48.07-.39.85-1.28.82-1.79,1.37v.82l.47.44c.16-.15.06-.32.09-.48l1.15-1.14c0-.16-.07-.33.07-.46a.48.48,0,0,1,.12.08c-.1.28.15.46.19.69a4.67,4.67,0,0,1-.36,1.77,5.11,5.11,0,0,1,.91,3.32c-.37.23-.42-.26-.72-.29.07.35-.26.6-.19,1,.39.4.83.86,1.29,1.29a2.15,2.15,0,0,1,.7,1.27A5.2,5.2,0,0,0,89,97c-.3-.29-.27-.73-.58-1,.32-.28.46.09.7.13a14.6,14.6,0,0,1,1.65.19,16.57,16.57,0,0,0,2.32.17c.46.06.82-.23,1.27-.22s.89.22,1.26-.17a10.12,10.12,0,0,0,2.44-.4c.59,0,1.16-.29,1.75-.4s1-.26,1.48-.38a12.23,12.23,0,0,0,1.47-.39c.52-.2,1.07,0,1.53-.22s1.06,0,1.58-.14.75.23,1.17.22.73-.15,1.09.15c.21.17.62-.13.89.16.74,0,1.38.44,2.12.44a1.52,1.52,0,0,0,1.27-.47V93.9l-.48-.36c-.33-.21-.66,0-1,.24v.59H110c-.8-.79-.82-.88-.35-2.07-.36,0-.44.32-.7.47v.85h-.88l-.46-.57c0-.41.28-.73.65-1.12-.74.18-1.07.6-1.27,1.51a13.52,13.52,0,0,0-3,.41c.3-.8,1-1.15,1.54-1.66a6,6,0,0,1,1.86-1.12c-.43-.45,0-.88.07-1.34.68-1.22,1.82-1.2,3.12-1l-.66.51v.84l.41.44a6.81,6.81,0,0,1,3.16,1.21,4.11,4.11,0,0,1,1.07,1.09,3.12,3.12,0,0,1,0,2.88,4.32,4.32,0,0,1-3.37,1.81s0,0-.06.05.1.38.22.47c.43.32.55.91,1,1.21h1.93l.84,1.31h-2.24c0,.47.31.7.57,1a8.06,8.06,0,0,1,2.5.2l.71,1.13h-2.48a1.75,1.75,0,0,1,.69,1h2.23l.86.85v1l-.1.08-.13-.56-.2.17h-.48V108l.33.33v1.18l-.7.56a3.71,3.71,0,0,1-1.55.33.78.78,0,0,0-.81.6c0,.11-.15.2-.27.34-.46-.38-.29-1.14-.86-1.4v-1c.07-.17.34-.24.37-.48a.14.14,0,0,0,.17-.12s0-.06-.05,0a.14.14,0,0,0-.12.17c-.12,0-.25-.05-.36.06s-.41.41-.6.59v1a2.89,2.89,0,0,0-2.38,1.22l-.35-.68c.35-.52.13-1.18.53-1.71l-.17-.09.91-.86a1.67,1.67,0,0,0-1.31,1c-.31.74-.34.73-1.11,1.18a2.5,2.5,0,0,0-.24.16c-.14-.08-.3-.17-.3-.38s.15-.54.58-1a2.89,2.89,0,0,1,.29-1.3c.35-.78,1-.87,1.68-1.07.3-.1.67.2,1.06.17a2,2,0,0,0,1.17-.27V105.2h-1.45l-.67.7c-.46,0-.81.41-1.29.16v-.58a2.44,2.44,0,0,0-1.11-.72,3.79,3.79,0,0,1-2.45-1.9,2.24,2.24,0,0,1-.19-1.94,9.61,9.61,0,0,0,.23-1,1.17,1.17,0,0,0-.25-.92,2.85,2.85,0,0,0-2.28-1.18,8,8,0,0,0-3.15.74c-1.42.57-2.69,1.39-4,2.06-1.09.54-2.16,1.13-3.25,1.67a14.69,14.69,0,0,1-2.22.89,3.53,3.53,0,0,0-.65.28c-.2.13-.54.06-.62.39v.59c.15.14.44.15.55.38-.28.31-.71.28-1.05.46s-.76-.06-1.1-.29-1-.61-1.47-.93v-1.17a5.18,5.18,0,0,0,1.37-2,2.19,2.19,0,0,0-.33-2c-.18-.31-.5-.54-.67-.88-.06-.13-.19-.15-.36-.07v1.23a1.57,1.57,0,0,1,.52,1.54,3.53,3.53,0,0,1-1,1.13l-.67-1.25-.49,1c.82,1.76.69,2.4.4,3.13L87.48,106a14.86,14.86,0,0,0-1.63.71,7.15,7.15,0,0,1-2-1.26,1.53,1.53,0,0,0,.05-1.32,10,10,0,0,1-.33-1.36l-.71.8c.06.4-.15.92.19,1.36-.28.29-.06.85-.63,1a10.55,10.55,0,0,0,2.29,1.2c-.77.29-1.33.77-2.14.64-.24-.37-.82-.39-1-.94v-2.4c-.22-.17-.47-.08-.78-.07v2.15a2.39,2.39,0,0,1-1.42-1.17c-.12-.26-.18-.59-.09-.7.35-.39,0-.8.17-1.08l-.7-.71a5.14,5.14,0,0,0-.45,2.74,3.05,3.05,0,0,0,1,1.34,10.48,10.48,0,0,1-1.43,1.8H76.15a7.48,7.48,0,0,1,1.22-1.74c-.33-.27-.66-.1-.94-.16-.63.53-.83,1.39-1.55,1.9H73.33c-.18-.16-.07-.28.08-.42-.12-.21-.15-.48-.38-.64s-.43,0-.49,0l-.43.25c-.07.46.26.67.36,1a1.93,1.93,0,0,1-1,1.34c-.42.22-.68.72-1.15.93a2,2,0,0,1-.26.06c-.18-.29,0-.58-.13-.89-.47-.12-.68-.56-.91-1,0-.43.41-.66.58-1a.14.14,0,0,0,.17-.12s0-.06-.06,0a.13.13,0,0,0-.11.17c-.87.24-1.11.82-.78,1.88H67.07c-.32.38-.88.44-1,1l0-.4-.18.14v-.85a3.37,3.37,0,0,0,.76-1.85l.81-.66c-1,.11-1.39.61-1.42,1.74l-.51.57c-.32-.37-.74-.22-1.05-.26-.35.11-.28.46-.5.59-.4,0-.16-.5-.5-.56.24-.47.24-1,.84-1-.16-1.4.58-2.28,2.56-2.57-.4-.18-.79,0-1.07-.09l.76-.76a5.1,5.1,0,0,1,2.25.32,3.58,3.58,0,0,0,1.36,0,18.58,18.58,0,0,0,2.13-1.17,22.24,22.24,0,0,0,2-1.3.13.13,0,0,0,.17-.11s0-.06-.06-.06a.13.13,0,0,0-.11.17h-1l-1.17-1.17c.56.13,1-.28,1.65-.14l-.9-.82c-.48-.2-1,.32-1.63.19l-1-1c.33-.42.84-.29,1.26-.33.11-.44-.32-.48-.39-.77-.54,0-1.08-.12-1.57.22-.75-.17-1.13-.81-1.78-1.36a1.68,1.68,0,0,0,1.46-.48c.1-.11,0-.35,0-.5l-.5-.61a4.22,4.22,0,0,1-1.49.58c-.45-.22-1.23-.22-1.52-1.07-.1-.1-.27,0-.42,0l-.45-.45v-.88a.91.91,0,0,0,.63.18c.27-.12,0-.47.25-.64s.5-.08.57-.36l.74.38.27-.22c.06-.28-.18-.34-.26-.51-.28.36-.66.13-.89.19-1.08-.39-1.25-1.2-1.12-2.18l.34-.63-.58-.44-.29,0L65,90l-.15-.19H66l.29.37c.69-.32,1.09-.15,1.83.37a.13.13,0,0,0,.11.17.09.09,0,0,0,.06-.06A.13.13,0,0,0,68.07,90.57Zm16.52,1.1c-.85.44-1.74.15-2.61.26a.55.55,0,0,0-.21.52c.22.13.5-.08.74.17v.74c.4.57.74.11,1.12,0v-.81c.5-.11,1-.23,1-.84a.14.14,0,0,0,.17-.12s0-.06-.06,0S84.57,91.63,84.59,91.67Zm.77,1.58a2.79,2.79,0,0,1-.89,1.16c-.4-.07-.65.32-1,.21v.57a1.94,1.94,0,0,1-.69.94h-1c-.1-.22-.39-.3-.47-.65.31-.31.71-.64.57-1.23H80.4c-.2.64.33,1,.51,1.42a1.43,1.43,0,0,1-1.34.47l-.79-.71V94.6a1.65,1.65,0,0,1-1.22-.38c-.72-.56-.67-1.34-.67-2.14-.59.3-.18.93-.63,1.22.46.23.06.74.39.94s.23.69.73.78a2.39,2.39,0,0,1,.87.44V96l.73.72a10.66,10.66,0,0,0,.41,1.88c-.36.6-.1,1.26-.18,1.79.25.34.56.33.79.52.2-.24.49-.21.77-.2a3.68,3.68,0,0,1,1,0,2.15,2.15,0,0,0,1-.06A1.89,1.89,0,0,0,82.9,99a.59.59,0,0,1,0-.45c.29-.49.12-1,.2-1.53.48-.47,1-.87,1-1.54a2.94,2.94,0,0,0,1.7-1.57c0-1.15,0-1.15-.32-1.73,0,0-.06.05-.06.07C85.35,92.55,85.36,92.9,85.36,93.25Zm-9.64,4.59c-.41,0-.53.3-.7.47a2.46,2.46,0,0,0-.64,2.76,3.07,3.07,0,0,0,.73,1.24,1.89,1.89,0,0,1,.61,1c0,.7.47,1.06,1,1.56a4.6,4.6,0,0,1,.63-3.17,3.5,3.5,0,0,1-.53-.94c-.36.22-.37.67-.6.94h-.33a2.14,2.14,0,0,1-.68-2c.19-.27.24-.61.51-.73Zm1.78-6.33c-.06.38.25.51.25.56.24.46.63.35.87.48,0,.23-.07.31-.18.42.26.15.17.58.53.66s.53-.23.77-.27c.13-.31-.06-.6.14-.9h.63c-.23-.13-.06-.43-.26-.55h-2.1C78,91.69,77.73,91.7,77.5,91.51Zm2.4-2.84A5.22,5.22,0,0,1,81,90.08a1.46,1.46,0,0,0,.7.56.62.62,0,0,0,.7,0l-1.44-2Zm2.5.48c.24.43.63.66.82,1.07a.88.88,0,0,0,.7.35c.18,0,.31,0,.28-.31-.46-.28-.6-.89-1-1.23C82.93,89.06,82.71,89,82.4,89.15ZM79,89.06h-1c.27.42.66.67.88,1.1s.63.43,1.1.23C79.72,89.92,79.18,89.64,79,89.06Zm32.36,19c.09-.06.09-.12,0-.19S111.29,108,111.38,108Z"/><path d="M68.07,66.36c0-.42-.26-.62-.58-.75-.12,0-.19-.16-.3-.2s-.19,0-.25-.08c.1-.24.48-.34.33-.78a1.14,1.14,0,0,0-.71-.55,1.23,1.23,0,0,1,1.22-.28c.71.06.66,1,1.37,1.13.11.45.57.77.53,1.32a18.67,18.67,0,0,0,.13-2.44c.33-.2.4.27.66.14A3.1,3.1,0,0,1,71,65.18a.73.73,0,0,0,.38.6l.09.08V67.2a11.91,11.91,0,0,0-.94,1.85c.51,1.42,1.74,2.12,2.9,3a7.79,7.79,0,0,1-.41,1.44l.32.67a2.28,2.28,0,0,1,.43-1,7,7,0,0,1,.8-.91c.22-.27.66-.32.69-.78-.29-.24,0-.67-.15-1l-.67.67a4.15,4.15,0,0,1,.43-2.9,1.61,1.61,0,0,0,.14-1.57,3.45,3.45,0,0,1,0-1.47c.17,0,.31,0,.33.07a.72.72,0,0,0,.42.58c.61.23.74.74.82,1.32a1.48,1.48,0,0,0,.53-1.26c-.39-.71-1.43-.48-1.73-1.26,0-.21.18-.26.28-.42.44.08.92-.14,1.36.18a1.93,1.93,0,0,1,1.17-.69c.37.1.86-.26,1.37-.5a3.75,3.75,0,0,1,3.27.06,2.56,2.56,0,0,1,.24.11,3.7,3.7,0,0,1,.28.28,1.85,1.85,0,0,1,1.3.31,1.43,1.43,0,0,0,1,.27,7.37,7.37,0,0,1,.94,0c.09.16.29.2.27.49l-.64.45c-.3,0-.61.34-1,.44v1.06l.44.44a.25.25,0,0,0,.1-.24.81.81,0,0,1,.38-.78A1.52,1.52,0,0,0,87,65c.65.91.17,1.72,0,2.57a5.26,5.26,0,0,1,.94,3.38c-.4.16-.46-.2-.66-.32-.14.32-.44.6-.21,1.14a3.85,3.85,0,0,1,1.93,2.49A5.4,5.4,0,0,0,89,72.88l-.54-1.06a.41.41,0,0,1,.54,0,.55.55,0,0,0,.25.1,17.42,17.42,0,0,0,2.8.2c.6,0,1.21,0,1.82,0a25.1,25.1,0,0,0,4.22-.69c.91-.19,1.8-.46,2.71-.66.64-.13,1.26-.37,1.9-.51a12.28,12.28,0,0,1,1.72-.24c.64,0,1.28,0,1.92,0a2,2,0,0,1,1.08.17c.31.16.76-.16,1.07.2a13,13,0,0,1,2.55.55,1.4,1.4,0,0,0,1.37-.61c.17-.38-.1-.69-.21-1-.17-.14-.46.07-.59-.21a1.48,1.48,0,0,0-.69.43l0,.6c-.18.18-.81.08-1.12-.18-.58-.48-.54-1.11.14-2-.17-.14-.28,0-.4.08s-.31.32-.51.51v.84h-.92a1.89,1.89,0,0,1-.46-.8,1.46,1.46,0,0,1,.4-.79c-.32,0-.73.15-.74.44s-.33.6-.21,1a8.69,8.69,0,0,0-3,.31c.13-.67,1.78-2.08,3.19-2.69v-.81a2.43,2.43,0,0,1,1.2-1.54,2.79,2.79,0,0,1,1.61-.27c.09.2.33.14.46.26-.62.42-.68.7-.36,1.55.45.44,1,.28,1.56.46a6.66,6.66,0,0,1,2.54,1.52c.32.32.38.76.7,1.12a4.25,4.25,0,0,1-.25,2.07c-1.24,1.45-1.66,1.59-3.55,2.11l1,1.44h1.56c.91.26,1,1,1.65,1.48-.43,0-.63-.2-.89-.12a3.85,3.85,0,0,1-.76,0,1.87,1.87,0,0,0-.89.1l.66,1h2.31c.49.35.62.88,1.18,1.37h-2.51l1,1c.27,0,.71,0,1.16,0a1.22,1.22,0,0,1,1.44,1v.7c-.39.15-.49-.37-.9-.22-.1.72,0,1.56,0,2.39a2,2,0,0,1,.41,1.29,1.18,1.18,0,0,1-.94,1.17c-.55.06-1.07.35-1.64.19l-.76.8c-.45-.33-.3-1.06-.89-1.21a7,7,0,0,0,0-.8c0-.27.29-.42.15-.68.17,0,.34.07.42-.13-.13-.13-.26-.11-.42.13-.46-.08-.51.37-.72.77v.91l-1,0c-.4.29-.94.43-1.19.94-.2,0-.3-.1-.39-.21a.58.58,0,0,1-.06-.62c.31-.32.09-.68.17-.91a2.93,2.93,0,0,1,1.34-1.43c-.87-.1-1.55.51-1.74,1.58a2.34,2.34,0,0,0-1.22.83.77.77,0,0,1-.09-1.18,4.9,4.9,0,0,0,.6-1.61c.78-1.19,1.91-1.28,3.19-.86.25-.14.58-.16.78-.5V81h-1.46a2.81,2.81,0,0,1-1.62.91c-.5-.1-.3-.56-.36-.87-.49-.49-1.17-.53-1.72-.83a3.3,3.3,0,0,1-2-2.34,1.35,1.35,0,0,1,0-1.08,4.1,4.1,0,0,0,.27-1,1.47,1.47,0,0,0-.68-1.48c-.27-.21-.51-.53-.74-.53-.47-.16-.84.06-1.14-.25a.59.59,0,0,0-.55,0c-.47.28-1,.14-1.48.38s-.9.29-1.31.56a13,13,0,0,1-1.35.67c-2,1-3.91,2.13-5.93,3.07A16.23,16.23,0,0,1,90,79.23c-.15,0-.19.15-.3.21s0,.43-.08.63a1.06,1.06,0,0,0,.59.42,3.11,3.11,0,0,1-1.61.71c-.55-.69-1.49-.81-2-1.49v-1a7.45,7.45,0,0,0,1-1.13A3.62,3.62,0,0,0,88,75.83a2.44,2.44,0,0,0-.77-1.68c-.16-.21-.31-.5-.69-.49a1.67,1.67,0,0,0,.48,1.79v.81c-.29.42-.37,1-1,1.27l-.59-1.18-.51,1a9.69,9.69,0,0,1,.58,1.53,10,10,0,0,1,0,1.65c.65.31,1.11.94,1.94,1.07-.47.55-1.17.58-1.77.94-.52-.53-1.28-.72-1.85-1.23a2.15,2.15,0,0,0,0-1.5c-.12-.43-.39-.82-.29-1.25l-.75.75c.05.3-.16.84.12,1.36-.22.27-.08.78-.57.94A15.57,15.57,0,0,0,84.53,83a9.78,9.78,0,0,1-1.56.67c-.6-.15-1-.62-1.46-.8V80h-.75v2.26c-.38-.13-.62-.44-.88-.52-.42-.12-.29-.62-.64-.66-.19-.64.32-1.18.14-1.78l-.63-.66a4.61,4.61,0,0,0-.5,2.88,1.51,1.51,0,0,0,1,1A16.11,16.11,0,0,1,78.39,84a1.28,1.28,0,0,1-1.24.66,3.88,3.88,0,0,1-1.1-.08,12.38,12.38,0,0,0,1.23-1.79h-1c-.49.58-.71,1.47-1.49,1.84H73.32c-.19-.26.1-.34.14-.54s-.3-.24-.2-.48l-.67-.34-.5.68c0,.29.25.56.41.91A2.14,2.14,0,0,1,71.36,86c-.15.68-.83.73-1.29,1.07-.19-.27,0-.6-.12-.91-.56-.1-.71-.59-.92-1a2.47,2.47,0,0,1,.82-1.07c-.44-.17-.56.23-.83.23-.47.81-.48.92-.18,1.7a1.4,1.4,0,0,1-1.33-.09c-.5.29-1.1.44-1.44,1l-.28-.28v-.83l.52-.52a3.24,3.24,0,0,1,.78-1.77c-.15-.15-.27-.08-.4,0L66,84.3v1l-.25.25a.94.94,0,0,1-.9-.16,2,2,0,0,0-.92.77,1.67,1.67,0,0,1-.42-.71c.06-.5.45-.79.77-1.12v-1a5.22,5.22,0,0,1,1.53-1.25h1.11c0-.3-.22-.19-.32-.18s-.22-.23-.41-.2-.29.43-.58.08c.08-.59.76-.49,1-.83a2.93,2.93,0,0,1,1.61.27,8.39,8.39,0,0,1,1,.25c.36.17.79-.16,1.18-.31.93-.37,1.69-1,2.57-1.44A7.74,7.74,0,0,1,74.43,79c-.38-.34-.64.18-1.1,0-.4-.3-.73-.84-1.32-1.09.23-.28.25-.1.32-.09.42-.19.93-.08,1.3-.41a2.53,2.53,0,0,0-.94-.69c-.29.39-.83.1-1.36.32-.51-.17-.86-.75-1.4-1.21.55-.13,1.12.09,1.51-.26l-.79-.8c-.36-.09-.89.51-1.64.07-.19-.29-.8-.43-1.12-.89.35-.39,1-.12,1.31-.55v-.83c-.53-.55-1-.11-1.52.12h-1c-.27-.29-.62-.5-.91-.81s-.61-.51-.92-.79v-.72a.66.66,0,0,0,.68.2c.15-.12,0-.3.08-.48l.5-.45c.38-.17.71.26,1.13.17.2-.13,0-.33.09-.45a.24.24,0,0,0-.3-.11,1.7,1.7,0,0,1-1.18,0c-.46-.12-.56-.53-.8-.88a2.31,2.31,0,0,1,.4-1.86,3.06,3.06,0,0,0-1-.43c.14-.64.79-.38,1.08-.76a2.3,2.3,0,0,0,1.84.45c.33.14.43.51.76.59a.13.13,0,0,0,.11.17s.06,0,.06,0A.14.14,0,0,0,68.07,66.36ZM77.57,71c.34,0,.63,0,.68.45a1.08,1.08,0,0,0,.75,1,7.92,7.92,0,0,0,.4,2.06,2.82,2.82,0,0,0-.19,1.59l.46.45H82.4l.71-.46c-.16-.53.07-1-.17-1.46s.26-.92.12-1.43a.82.82,0,0,1,.12-.73c.09-.2.59-.1.63-.46a1.35,1.35,0,0,1,.41-.93,2.3,2.3,0,0,0,1.49-1.37V68.14c-.13-.06-.15-.22-.35-.2a4.7,4.7,0,0,1,0,.84c-.13.64-.39,1.25-1.09,1.4-.31.07-.55.23-.83.32A1.3,1.3,0,0,1,82.3,72c-.22-.35-.84-.07-1-.69.32-.32.69-.67.57-1.24h-1.5c0,.28-.13.57.11.75s.29.58.22.93c-.36-.1-.58.25-.9.2a1.31,1.31,0,0,1-1-1.48c-.75-.32-1.61-.38-1.93-1.29V67.91C76.15,68.57,76.1,69.69,77.57,71Zm-1.83,7.76c0,1.09.09,1.21.94,1.7.07-1.09-.1-2.2.65-3.09-.27-.27-.2-.78-.74-.81-.17.32-.21.74-.57,1a2.72,2.72,0,0,1-.82-1.09c-.27-.88.38-1.43.73-2.08-.36-.2,0-.61-.27-.85-.59.32-.76.51-1.41,1.62A3.74,3.74,0,0,0,75.74,78.73Zm7.63-9.5c.49-.18.12-.66.31-.91.73-.31.73-.31,1.08-1-.33-.06-.55.26-.87.19a5,5,0,0,0-1,0H82l-.27.27c0,.15-.06.31,0,.44s.51-.06.71.14-.11.65.33.86Zm-5.92-1.81c.18.58.71.71,1.16.94l-.23.35c.24.09.22.33.33.52h.72c.54-.21.23-.67.42-.93.17,0,.34,0,.48-.08a.53.53,0,0,0-.26-.69A19.14,19.14,0,0,1,77.45,67.42ZM80,64.27l1.4,2.08a2.67,2.67,0,0,0,.93,0,10,10,0,0,0-1.67-2Zm-.66,1.9c.2,0,.42.06.63-.06a5.81,5.81,0,0,0-1.24-1.47c-.19,0-.42-.07-.62.06A5.77,5.77,0,0,0,79.32,66.17Zm4.86-.07a6,6,0,0,0-1.28-1.48c-.17.08-.4-.08-.6.09a6.35,6.35,0,0,0,1.28,1.47C83.75,66.1,84,66.27,84.18,66.1Z"/><path d="M113.59,59.83c-.12,0-.25,0-.36.07s-.41.4-.6.59v1.25a2.21,2.21,0,0,0-2.37,1c-.19-.42-.53-.71-.14-1.16.11-.13,0-.43,0-.66.36-.49.42-1.21,1.28-1.4-1-.09-1.47.37-1.67,1.56-.12.15-.3,0-.62.12l-.63.79c-.06-.33-.31-.49-.28-.77a1.63,1.63,0,0,1,.58-.91,2.17,2.17,0,0,1,1.33-2.23h2.61l.26-.25V56.59h-1.22a2.54,2.54,0,0,1-2.14.93c-.15-.21,0-.44-.06-.59-.25-.54-.75-.6-1.17-.74a4,4,0,0,1-2.63-2.55,2.19,2.19,0,0,1,0-1.29,2.13,2.13,0,0,0,.11-1.72.33.33,0,0,1,0-.1l-.19-.2a3.08,3.08,0,0,0-3-1,6.82,6.82,0,0,0-2.21.68c-1.06.52-2.14,1-3.18,1.6-1.51.83-3,1.58-4.6,2.34a16.37,16.37,0,0,1-2.22.9c-.33.1-.58.3-.89.38v.73c.1.2.33.23.52.32a4.56,4.56,0,0,1-1.45.65l-2.15-1.35v-1a12,12,0,0,0,1.37-2.29,2.26,2.26,0,0,0-.46-2.18c-.19-.27-.54-.43-.6-.83-.57.32-.23.84-.35,1.23a1.48,1.48,0,0,1,.55.77c.2.85-.28,1.38-.94,1.9-.31-.29-.27-.78-.63-1-.38.1-.26.56-.57.72a5.93,5.93,0,0,1,.62,3.35,11.16,11.16,0,0,0,2.08,1.17c-.81.21-1.33.88-2.18.62a6.09,6.09,0,0,0-1.63-1c.57-1-.08-1.84-.21-2.74l-.71.73c0,.35-.16.86.18,1.31-.24.34-.14.84-.64,1.09l2,1.2a3.88,3.88,0,0,1-1.51.74,3.2,3.2,0,0,1-1.43-1V55.91s0-.07-.07-.07l-.71-.05V58a2.46,2.46,0,0,1-1.42-1.17c-.12-.26-.18-.6-.08-.71.34-.38,0-.8.16-1.08l-.71-.7A5.17,5.17,0,0,0,78.25,57a3,3,0,0,0,1,1.35L78,60.19H76.14l1.13-1.66H76.19a7.93,7.93,0,0,1-1.32,1.68H73.35c-.21-.2,0-.33.09-.46-.21-.15-.15-.47-.39-.6s-.52-.11-.92.17a1.7,1.7,0,0,0,.36,1.27c-.31,1.06-1.49,1.28-2,2.12h-.43c-.21-.2,0-.49-.15-.75-.34-.22-.82-.37-.87-1a1.78,1.78,0,0,1,.72-1.15c-1,.27-1.31.89-.91,1.88a9.45,9.45,0,0,1-1.45,0,3.16,3.16,0,0,0-1.37,1l-.28-.28v-.84l.6-.53c-.17-.4.16-.71.23-1.25.06-.12.43-.22.51-.55a.14.14,0,0,0,.17-.12s0-.06-.06,0a.13.13,0,0,0-.11.17h-.43A1.54,1.54,0,0,0,66,60.88l-.51.51c-.28-.06-.52-.33-1-.11l-.56.56a1.25,1.25,0,0,1-.39-.93l.74-.65v-.92c.49-1.28,1.5-1.51,2.51-1.81H65.58c.16-.44.56-.52.86-.75a5.34,5.34,0,0,1,2,.26A2.72,2.72,0,0,0,71,56.69c.68-.48,1.44-.85,2.16-1.28.36-.21.72-.45,1.18-.74H73.18l-1.11-1.11a5,5,0,0,0,1.57-.35l-.7-.66c-.58-.19-1.11.36-1.77.11a2.52,2.52,0,0,0-.6-.44c-.22-.1-.37-.34-.6-.57l1.55-.34c.06-.52-.48-.42-.65-.67-.61-.19-1.14.35-1.82.09l-1.19-1.19c.3-.17.62,0,.9-.1l.41-.41a1.37,1.37,0,0,0,0-.64,1.89,1.89,0,0,1-.2-.2c-.06,0-.11-.07-.16-.07a1.4,1.4,0,0,0-1,.19,1.38,1.38,0,0,1-1.07.17,2.14,2.14,0,0,1-1.07-1.07l-.07-.06c-.15,0-.32.07-.45-.08s-.27-.27-.41-.4v-.58c.21-.21.5,0,.71-.13s-.13-.57.32-.68a1.79,1.79,0,0,1,1.34.16.25.25,0,0,0,.13-.28c0-.09,0-.18,0-.3h-1.4L65,44.18c.05-.64-.17-1.34.38-1.92-.22-.31-.59-.39-1-.58l.63-.29-.14-.17h1l.17.38a3.09,3.09,0,0,1,2,.32c0,.17-.07.34.13.42.13-.13.12-.26-.13-.42a.35.35,0,0,0-.19-.44,1.24,1.24,0,0,0-.9-.27c-.16-.49.63-.58.35-1-.07-.39-.54-.26-.62-.65l.7-.36c.43.24.94.34,1.07.91a.48.48,0,0,0,.27.27c.73.26.88.86.91,1.66.23-.32.13-.56.16-.77a.61.61,0,0,0-.18-.59c.28-.18.16-.45.17-.69s0-.45,0-.68A1.38,1.38,0,0,1,71,40.74c0,.39.51.53.5.79.36,1.34-.53,2.18-.92,3.28a8.29,8.29,0,0,0,3.07,2.95c0,.34-.39.57-.35,1s0,.75.06,1.13a2.79,2.79,0,0,1,.84-1.38c.42-.38.81-.8,1.27-1.26-.29-.26-.26-.64-.4-1.06l-.56.76a4.59,4.59,0,0,1,.72-3.39c.07-.81-.41-1.71-.14-2.66.15-.05.32-.09.32.15s.32.26.2.49c.63.34.65.36,1,1.14l.53-.53v-.64a1.15,1.15,0,0,0-.76-.42,4.06,4.06,0,0,1-.67-.26c-.27-.09-.32-.36-.26-.69h1.73c.79-.81,2-.69,2.78-1.39a7.05,7.05,0,0,1,2.52.1,8.39,8.39,0,0,1,2.73,1.28h1.71c.16.32-.23.44-.19.69a5.81,5.81,0,0,0-1.48.67v.84c.23.17.18.54.49.63.15-.2,0-.43.07-.62.4-.56,1.13-.85,1.25-1.64.08.42.48.83.26,1.23s0,.93-.33,1.34a5.19,5.19,0,0,1,.9,3.51c-.19.05-.24-.15-.33-.23s-.15-.26-.29-.34c-.06.41-.3.68-.35,1,.7.9,1.75,1.48,2.07,2.78A5.84,5.84,0,0,0,89,48.59a3.11,3.11,0,0,0-.6-1.06c.21-.38.31,0,.44,0a24.08,24.08,0,0,0,4.64.37c.42,0,.77-.2,1.17-.22s.83.21,1.17-.18a9.57,9.57,0,0,0,2.43-.4,11.89,11.89,0,0,0,1.84-.41c1-.28,2-.53,3-.75a30.12,30.12,0,0,1,4.34-.17c.8.28,1.66.27,2.46.55a2,2,0,0,0,.59.22c.47,0,1,0,1.43,0l.48-.48v-.77l-.48-.48h-.57c-.15.2-.46.3-.47.56a.59.59,0,0,1-.36.59,1.3,1.3,0,0,1-1-.66c-.19-.34-.48-.76,0-1.17,0,0,0-.18,0-.28a.13.13,0,0,0,.17-.11.09.09,0,0,0-.06-.06.13.13,0,0,0-.11.17c-.25,0-.43.07-.6.38V45c-.19.18-.32.4-.76.12l-.53-.6a2.61,2.61,0,0,1,.47-1.15A1.67,1.67,0,0,0,107,44.81l-3.09.46a10.3,10.3,0,0,1,3.5-2.79.94.94,0,0,1-.16-.69c0-.24.38-.39.17-.66l.81-.81a3.7,3.7,0,0,1,2.09-.23c.05.34-.23.41-.36.69v.7c.15.16.29.41.58.49s.76.18,1.13.29a4.74,4.74,0,0,1,3.2,2.62s0,0,.07.06v1.48a3.31,3.31,0,0,1-1.48,1.74c-.69.3-1.27.86-2.16.7,0,.81.53,1.23,1,1.74H114a4.34,4.34,0,0,1,1.08,1.34H112.9a1.24,1.24,0,0,0,.65,1h2a3.9,3.9,0,0,1,1.08,1.34h-2.3a1.87,1.87,0,0,0,.68,1h1.79a2.78,2.78,0,0,1,1.14.85v1.07l-.86-.44a21.89,21.89,0,0,0-.07,2.66l.37.37v1.15a2.5,2.5,0,0,1-1.16.88c-.19,0-.51,0-.82,0s-.5.42-.78.22c-.34.18-.24.59-.63.69-.34-.06-.13-.52-.34-.68s-.24-.51-.46-.68a1.93,1.93,0,0,1,.36-1.47.13.13,0,0,0,.17-.11s0-.06-.05-.06A.14.14,0,0,0,113.59,59.83ZM76.87,44.91V43.47c-.32.4-.33.86-.56,1.23.07.08.18.15.18.22a1.9,1.9,0,0,0,1.38,1.85.55.55,0,0,1,.39.56,1.73,1.73,0,0,0,.25.56c.1.22.39.15.44.24l.41,2c-.31.59-.07,1.21-.17,1.82.5.24.86.69,1.46.28a1,1,0,0,1,.92,0c.5.36.86.07,1.27-.1a1.86,1.86,0,0,0,0-1.76.55.55,0,0,1,0-.47c.31-.46.12-1,.19-1.46.45-.46,1-.85,1-1.57a2.5,2.5,0,0,0,1.71-1.49c0-1.24,0-1.24-.37-1.83v1.16A2,2,0,0,1,83.44,46a1.6,1.6,0,0,1-.69,1.51h-.83l-.6-.45c.53-.87.53-.87.53-1.22H80.38c-.08.55.28.86.51,1.19l-.41.48H79.31A1.7,1.7,0,0,1,78.82,46c-.64.15-1-.27-1.51-.42C77.32,45.25,77.06,45.13,76.87,44.91ZM76,53.3a2.43,2.43,0,0,1-.83-2.25c.29-.14.32-.5.56-.74a3.42,3.42,0,0,0-.11-1.11,4.84,4.84,0,0,0-1.43,1.71v1.45a8.69,8.69,0,0,0,1.55,2.24c-.14.56.29.93.48,1.42.2-.13.24.13.47.14a4.4,4.4,0,0,1,.59-3l-.51-1C76.43,52.45,76.45,53,76,53.3Zm6-10c-.25.21-.4.43-.2.74a.53.53,0,0,1,.69-.1v.72c.27.49.62.33.81.34.58-.32.19-.79.42-1.12l.46,0c.17-.3.61-.42.63-1l-.54.46Zm-3.54,1c.2.2.21.54.48.68s.64.1.88-.35V44c.25-.18.54,0,.73-.15l-.24-.48c-.91-.12-1.86.16-2.8-.23a1.62,1.62,0,0,0,.42.73c.22.15.5-.07.67.1S78.61,44.22,78.44,44.36ZM82.34,42a7.18,7.18,0,0,1-1-1.26c-.3-.67-.79-.72-1.53-.71.8.66,1,1.58,1.79,2.13C81.83,42.09,82.06,42.25,82.34,42Zm2-.12c-.39-.6-1-.89-1.12-1.44h-.92c.25.43.65.67.87,1.09A1,1,0,0,0,84.32,41.9ZM80,42a5.09,5.09,0,0,0-1.25-1.53c-.26.06-.49-.09-.66.14.56.36.7,1.1,1.26,1.39Z"/><path d="M135.33,20.48H137V129.54h-1.66Z"/><path d="M166.38,93.24H164.3v-.77c0-2.53,0-5,0-7.58,0-.69.35-1.34.2-2,0-.12,0-.26-.09-.36-.62,1.61-1,3.28-1.58,4.9-.35,1-.69,2-1,3-.18.7-.44,1.36-.61,2-.07.28-.28.47-.3.75h-1.16c-.36-.24-.34-.68-.48-1-.55-1.5-.93-3.06-1.46-4.57-.23-.67-.42-1.36-.65-2s-.4-1.37-.58-2.06a5.77,5.77,0,0,1-.28-.86,3,3,0,0,0-.11,1.11c0,.39,0,.77,0,1.15s-.15.76.15,1.1c.07.07,0,.24,0,.36,0,2.2,0,4.41,0,6.65-.66.39-1.37.11-2.07.22V78.68H157a17.55,17.55,0,0,1,.61,1.95c.16.8.43,1.56.63,2.34.15.56.38,1.14.5,1.7s.32,1.1.46,1.65a18.64,18.64,0,0,0,.79,2.64c.17.39,0,.87.45,1.22.21-.8.42-1.58.65-2.36s.37-1.44.6-2.15a17.41,17.41,0,0,0,.51-1.7c.12-.56.34-1.08.46-1.65a15.31,15.31,0,0,1,.58-2c.15-.4.21-.81.33-1.21,0-.17.18-.24.27-.39h2.59Z"/><path d="M91.57,84.42c-.53,0-.68.31-.84.66-.25.52-.35.68-.87.85s-.49.48-.82.61a.49.49,0,0,1-.42-.52c0-.39.11-.81.44-.94s.45-.46.66-.69.18-.44.34-.52.37-.14.47-.41a1.57,1.57,0,0,0-1.27.84,1.59,1.59,0,0,1-.91.83c-.28.1-.4.39-.66.45s-.33-.19-.43-.39a1.87,1.87,0,0,1,1.14-1.43,2.21,2.21,0,0,1,1.61-2,2.5,2.5,0,0,1,1.55,0,6.09,6.09,0,0,0,2.12.45,1.23,1.23,0,0,0,1-.39c.23-.28.58-.45.69-.86s.54-.28.73-.56c-.11-.24-.39-.14-.46-.09-.4.36-.83.08-1.42.19a10.9,10.9,0,0,0,1.19-2.28A4.83,4.83,0,0,1,98,76.15a13.35,13.35,0,0,1,1.87-.34,5.08,5.08,0,0,1,1.14-.26.86.86,0,0,0,.32-.9,2.32,2.32,0,0,1,2.38-.53,2.27,2.27,0,0,1,1.34.71,1.46,1.46,0,0,1,.41,1.3,3.9,3.9,0,0,0-1.09.72,1.71,1.71,0,0,0-.54,1.22c.26.42.09.93.13,1.44l-.91.85a9.75,9.75,0,0,1-.5-2c-.38.13-.45.53-.68.83-.19.75.39,1.48,0,2.47-.13.2-.66.36-.71,1.07l-.55-2.23-.74.76a6.52,6.52,0,0,0,.37,1.9,2.54,2.54,0,0,1-.51.79c-.26.22-.48.48-.79.78V83.56c-.24-.1-.16-.35-.28-.45a3.37,3.37,0,0,0-1.68,2c-.45.07-.61.54-1,.61h-.82c-.18-.25,0-.35.15-.48a2.33,2.33,0,0,1-.31-.87,1.52,1.52,0,0,0-.5,1.09l-.65.66c-.16,0-.34-.07-.46.08a.4.4,0,0,1-.52.09,1.58,1.58,0,0,0-1.56.07.68.68,0,0,1-.43.53c0-.52,0-1,0-1.58a3.25,3.25,0,0,1,.65-.91s.08,0,.1-.12,0-.06,0,0S91.49,84.33,91.57,84.42Z"/><path d="M91.12,109c-.35.17-.64.39-.58.85-.56.33-1.23.49-1.62,1.08l-.29-.29v-.8a12.6,12.6,0,0,0,1.67-2c.17-.05.34.07.42-.13-.13-.13-.26-.11-.42.13-.72.06-1.09.57-1.35,1.31-.61-.08-1,.38-1.41.81,0-.29-.3-.44-.26-.72A1.69,1.69,0,0,1,88.43,108c-.09-.68.4-1,.8-1.47A2.79,2.79,0,0,1,90.6,106a2.26,2.26,0,0,1,1.3.31c.53.21,1.13.12,1.63.43.56-.27,1.31-.24,1.63-.89.2-.39.58-.63.76-1a.13.13,0,0,0,.17-.11.09.09,0,0,0-.06-.06.13.13,0,0,0-.11.17H94.39c.25-.67.73-1.16.78-1.84a4.77,4.77,0,0,1,3.21-2.59c.62-.15,1.25-.21,1.86-.34a2,2,0,0,0,1.23-.71c0-.25-.13-.28-.16-.39a1.53,1.53,0,0,1,1.25-.48c.51,0,1,0,1.43,0,.83.39,1.62.73,1.53,1.86a3.64,3.64,0,0,0-1.71,2,.43.43,0,0,0,.18.48v.89a2.77,2.77,0,0,1-.91,1.14,10.72,10.72,0,0,1-.44-2.2l-.77.84c-.11.74.4,1.55.15,2.41l-.84.83c-.31-.64-.23-1.4-.54-2.07l-.68.75c.07.26-.15.65.11,1s-.18.73.29.87a4.79,4.79,0,0,1-1.29,1.63c-.2-.53.13-1.16-.4-1.53-.15.14-.32.34-.51.5a5.91,5.91,0,0,1-.64.44,2.07,2.07,0,0,1-1.34,1.69h-1c-.2-.26.09-.34.13-.53-.17-.24-.18-.61-.52-.77a1.81,1.81,0,0,1-2.63,1.7c-.54,0-.83.45-1.27.86a5.81,5.81,0,0,1,.19-2.19c.13,0,.19-.06.19-.2a.13.13,0,0,0,.17-.11.09.09,0,0,0-.06-.06.13.13,0,0,0-.11.17C91.18,108.81,91.11,108.87,91.12,109Z"/><path d="M90.54,59.26c-.55,0-1.05.12-1.21.73a1.19,1.19,0,0,1-.81.79,2.37,2.37,0,0,0-1,.61c0-.28-.31-.43-.27-.72.41-.9.43-.93,1.15-1.07a1.42,1.42,0,0,1,.4-1.23,2.81,2.81,0,0,1,1-.79,6.24,6.24,0,0,1,3.22.45c.68.27,1.2-.21,1.76-.48a.75.75,0,0,0,.27-.26,2.14,2.14,0,0,1,1.42-1.17c-.56-.23-.82.15-1.17.08a4.73,4.73,0,0,0-1,0,4.81,4.81,0,0,0,.93-1.79c.59-1.54,1.56-2.1,3.3-2.63.61-.19,1.25-.18,1.87-.34.25-.07.49-.26.77-.24s.05-.38.27-.46c0-.11-.21-.15-.18-.3.11-.53.7-.28,1-.57a5.87,5.87,0,0,1,2,.17c.8.38,1.52.73,1.3,1.87-.29.37-.82.37-1.14.73s-.29.86-.58,1.24c.34.43.16.94.22,1.45l-.92.85a9.4,9.4,0,0,1-.48-2l-.74.74c-.12.66.42,1.46.13,2.41l-.81.76c-.29-.62-.25-1.37-.5-2l-.73.74a5.85,5.85,0,0,0,.35,2L99,60.08v-.9a.51.51,0,0,1-.23-.54c-.5.35-.73.9-1.29,1a2,2,0,0,1-1.35,1.66h-.93c-.2-.26.08-.35.13-.52a1.77,1.77,0,0,0-.62-.88c.17.65-.2,1.06-.39,1.55-.2.09-.45.15-.57.46a4.64,4.64,0,0,1-1.63-.16c-.12,0-.25.33-.51.07L91,62.7V60.84c.08-.16.44-.26.34-.62a.14.14,0,0,0,.17-.12s0-.06-.06-.05a.13.13,0,0,0-.11.17c-.34.13-.5.46-.77.66,0,.32,0,.62-.35.67a2.67,2.67,0,0,0-1.29.77l-.27-.27v-.76c.27-.4.74-.64,1-1.11s.62-.63,1-.92a.14.14,0,0,0,.17-.12s0-.06,0,0A.14.14,0,0,0,90.54,59.26Z"/><path d="M180.79,89.18v-7.6h2.12V93.21h-2c-.62-1-1.19-2.07-1.78-3.13-.48-.85-1-1.7-1.4-2.58s-.79-1.41-1.2-2.14c0,.17,0,0-.08.06s-.06,0-.06.07v7.75c-.7,0-1.41.19-2.09-.17V81.57h2.17A24.44,24.44,0,0,1,178,84.26c.56,1,1.15,1.94,1.62,3C180,87.91,180.51,88.45,180.79,89.18Z"/><path d="M318.11,87.6a2.31,2.31,0,0,1,1.61,2,16.56,16.56,0,0,1,.16,2.71c0,.22-.06.46.19.61l-.26.28h-2.06c.17-.65-.25-1.19-.19-1.83a17.36,17.36,0,0,0,0-1.91c-.26-.1-.16-.39-.34-.54a1.65,1.65,0,0,0-1.14-.51c-.64,0-1.27,0-2,0v4.79H312V81.54c1.58,0,3.16-.12,4.7,0a3,3,0,0,1,2.95,3c0,.42,0,.83,0,1.25C318.9,87.24,318.92,87.1,318.11,87.6Zm-.53-1.94V84.33a2.61,2.61,0,0,0-.8-1,7,7,0,0,0-2.66-.27c0,1.34,0,2.59,0,3.85a6.93,6.93,0,0,0,1.59,0,3.55,3.55,0,0,0,1.43-.43A1.7,1.7,0,0,1,317.58,85.66Z"/><path d="M212.13,88.45v4.78h-2.07V81.54c1.66,0,3.32,0,5,0a2.16,2.16,0,0,1,1.54.68c.28.3.58.59.91.91,0,.79.74,1.53.21,2.4.06,1-.85,1.39-1.32,2a2.74,2.74,0,0,1,1.51,2.52v1a4,4,0,0,0,.31,2.15H216l-.25-.26V91.07c0-.38.12-.83,0-1.13s0-.76-.35-1l-.93-.48Zm3.46-4.31c-.46-.79-.73-1-1.94-1.06h-1.47v3.85a9,9,0,0,1,1.38,0c.49.08.87-.35,1.32-.2C215.87,86.05,215.52,85,215.59,84.14Z"/><path d="M263.9,91.72c.4,0,.82,0,1.23,0s.69-.37,1-.39c.83-.73.61-1.78,1-2.65h1.83a4,4,0,0,1-.52,2.77,3.72,3.72,0,0,1-2.7,1.8,7.33,7.33,0,0,1-1.17.22,6.49,6.49,0,0,1-2.1-.53,4,4,0,0,1-1.72-1.65,4.9,4.9,0,0,1-.78-2.84c0-1.89,0-3.78,0-5.66a4.44,4.44,0,0,1,.48-1.82,4.37,4.37,0,0,1,2.21-2.23c.15-.07.39,0,.47-.26.47-.11,1,.19,1.43-.25a1.1,1.1,0,0,0,.8.24,3.53,3.53,0,0,1,3.23,2,3.75,3.75,0,0,1,.37,2.53h-1.8c-.34-.57-.19-1.31-.58-1.93a2.25,2.25,0,0,0-2.56-1c-.18.07-.37,0-.53.12a4.17,4.17,0,0,1-.47.47,2.54,2.54,0,0,0-.91,2.11c-.06,2,0,4,0,6a4.62,4.62,0,0,0,.82,2.25C263.15,91.43,263.61,91.42,263.9,91.72Z"/><path d="M106.86,90.39v.47a9.3,9.3,0,0,0-2.89,2,2.57,2.57,0,0,1-1.4.56c-.52.13-1,.31-1.55.45l-3.34,1a19.42,19.42,0,0,1-2.74.62,18.07,18.07,0,0,1-2.32.15,5.19,5.19,0,0,1-2.09-.51A3.46,3.46,0,0,1,89,93.59c-.13-.2-.24-.41-.39-.68a3.07,3.07,0,0,0,0-.6A1.8,1.8,0,0,1,89,90.94a3.86,3.86,0,0,1,2.49-1.74A6,6,0,0,1,93.25,89a9.93,9.93,0,0,1,2,.44,2,2,0,0,0,.62.12h2.2a1.68,1.68,0,0,0,.39,0,2.87,2.87,0,0,0,.4-.26c-.41,1-1.31,1.29-2,1.78a6.9,6.9,0,0,1-2.26.79c-.19-.18,0-.42-.11-.67l-.77-.68a.68.68,0,0,0-.4.09c.22.14.53.17.56.37s.29.33.26.48a1.69,1.69,0,0,1-.67,1.15H92.07l.21-.32c-.06-.31-.37-.4-.48-.61-.28,0-.53-.06-.66.23V93a2.54,2.54,0,0,0,1.74.63,8.83,8.83,0,0,1,1.15,0,8.2,8.2,0,0,0,2.79-.45c2.11-.61,4.23-1.2,6.27-2,1-.08,1.83-.61,2.82-.64A3.94,3.94,0,0,1,106.86,90.39Z"/><path d="M93.61,42.09a3.23,3.23,0,0,1,.59.86,1.21,1.21,0,0,1-.58,1,1.86,1.86,0,0,1-1.49.27c-.25-.26.22-.35.1-.68l-.54-.35c-.16-.11-.37-.07-.54.2v1a1.78,1.78,0,0,0,1.33.65c.5,0,1,.37,1.51.08s1.07.14,1.51-.29a32.69,32.69,0,0,0,5.84-1.65c1.23-.37,2.45-.76,3.7-1.07.49-.12,1.06,0,1.47-.42l.45.46a17.1,17.1,0,0,0-3.46,2.48,8.85,8.85,0,0,0-2,.47c-1.72.47-3.4,1.11-5.15,1.48A14.53,14.53,0,0,1,94.3,47a13.47,13.47,0,0,1-2.2,0,3.84,3.84,0,0,1-2.65-1.22,2.64,2.64,0,0,1,0-3.91,3.71,3.71,0,0,1,2.38-1.23c.45-.05,1-.32,1.33-.09s1-.14,1.31.31c.54-.12,1,.26,1.56.21a.77.77,0,0,1,.52.11,1.08,1.08,0,0,0,1,0c.42-.26.8-.06,1.2-.11a7,7,0,0,1-4.09,2.29c-.18-.52-.15-1.12-1-1.25-.14,0-.08.07-.07.07s.29.11.25-.08S93.57,41.93,93.61,42.09Z"/><path d="M98.88,65.21a6.39,6.39,0,0,1-4.31,2.34,1.68,1.68,0,0,0-.22-.92l-.6-.28c-.12.07-.14.12-.09.16.33.22.37.61.55.84-.29,1.24-1.18,1.17-2,1.11-.22-.22,0-.33.11-.46a.41.41,0,0,1-.19-.44h-.94v.94l.68.64a3,3,0,0,0,1.85.29,2,2,0,0,0,1.08-.17c.3-.17.75.16,1.06-.2a9.42,9.42,0,0,0,2.63-.61c.86-.19,1.66-.65,2.52-.86a39.45,39.45,0,0,1,4.57-1.23,2,2,0,0,1,1.29-.17.3.3,0,0,1-.15.45,12.8,12.8,0,0,0-2.83,1.94,3.42,3.42,0,0,1-1.56.63c-1.23.28-2.4.71-3.61,1.05-.65.19-1.32.35-2,.51a12.8,12.8,0,0,1-2.62.43,3.37,3.37,0,0,1-1.58,0c-.46-.18-1,0-1.55-.21a3.79,3.79,0,0,1-2.3-2.41,3.08,3.08,0,0,1,1.35-3,6.11,6.11,0,0,1,3.82-.75c.71.35,1.55.19,2.25.57.77-.1,1.58.21,2.33-.18C98.48,65.17,98.63,65.21,98.88,65.21Z"/><path d="M243.24,87.32c0,.51,0,1,0,1.54A4.58,4.58,0,0,1,240.94,93c-.18.12-.37,0-.53.13-.38.28-.9.06-1.3.33a.4.4,0,0,1-.37,0c-.52-.35-1.21-.12-1.71-.53-.3-.24-.69-.37-1-.63a4.16,4.16,0,0,1-1.25-2.16,6.64,6.64,0,0,1-.21-1.94c0-.83,0-1.66,0-2.49a4.45,4.45,0,0,1,3.33-4.28,4.11,4.11,0,0,1,2.76.19,4.46,4.46,0,0,1,2.55,4C243.21,86.17,243.24,86.74,243.24,87.32Zm-3.6-4.25c-.36,0-.72,0-1.07,0a1.44,1.44,0,0,0-1.3.83,4.66,4.66,0,0,0-.54,2.07,21.34,21.34,0,0,0,0,2.77A3.52,3.52,0,0,0,238,91.53c.13,0,.24,0,.31,0a1.55,1.55,0,0,0,2-.39,2.73,2.73,0,0,0,.85-2q0-1.77,0-3.54A2.54,2.54,0,0,0,239.64,83.07Z"/><path d="M306.3,93.22c-.42.06-.82,0-1.2.21a.49.49,0,0,1-.54,0c-.19-.2-.41-.12-.62-.13a3.69,3.69,0,0,1-2.65-1.44,3.74,3.74,0,0,1-.79-2.34c0-2.62,0-5.24,0-7.9h2.12v6.8a4.2,4.2,0,0,0,.69,2.78c1,.58,1.16.6,2.62.37l.83-.79a5.41,5.41,0,0,0,.27-2.42c0-2.23,0-4.47,0-6.74h2.12v8.24a3,3,0,0,1-.89,2.14A5.71,5.71,0,0,1,306.3,93.22Z"/><path d="M277.85,81.56h2.08v.94c0,2.33,0,4.67,0,7a3.83,3.83,0,0,1-2.7,3.59,5.09,5.09,0,0,0-1.48.36c-1.39-.23-2.81-.4-3.72-1.66a4.05,4.05,0,0,1-.59-1.3,6.88,6.88,0,0,1-.16-1.75V81.56h2.11v7.65a3,3,0,0,0,.16,1,1.66,1.66,0,0,0,.66,1.06,2,2,0,0,0,1.34.47,3.62,3.62,0,0,1,.57,0A3.28,3.28,0,0,0,277.85,90Z"/><path d="M198.68,89.13v1.05a2.89,2.89,0,0,1-2.2,2.89,2.62,2.62,0,0,1-1.07.18c-.34,0-.65.37-1,.18s-.93-.06-1.26-.18a4.29,4.29,0,0,1-2.57-2c.26-.51-.58-1.06.09-1.57h1.76c.18.82.32,1.64,1.33,1.9s1,.29,2.34-.24c.18-.5.6-.94.42-1.53-.38-1.09-1.37-1.38-2.31-1.68a8.88,8.88,0,0,1-2.41-1.14,2.44,2.44,0,0,1-1-1.8,8.55,8.55,0,0,1,0-1.34,1.19,1.19,0,0,0,.09-.15,3.18,3.18,0,0,1,2.59-2.21,7,7,0,0,1,2.57.08c1.72.64,1.62.76,2.2,1.8.07.13,0,.33.21.37V85h-2.08a2,2,0,0,0-.91-1.92h-1.67a2,2,0,0,0-.75,2.39c.11.46.87.67,1.55.84s1.29.46,1.92.69a3.11,3.11,0,0,1,2,1.92C198.52,89,198.62,89.06,198.68,89.13Z"/><path d="M154.34,56.76c1.48,0,2.91,0,4.35,0a4.82,4.82,0,0,1,1.84.39,3.26,3.26,0,0,1,1.84,2.17,6.66,6.66,0,0,1,.22,1.55,4.7,4.7,0,0,1-1,2.66c-.17.26-.61.36-.78.74a3,3,0,0,1,1.41,1.61,6.51,6.51,0,0,1,.34,1.68c0,.61,0,1.22,0,1.83a2.09,2.09,0,0,0,.57,1.68s0,.12,0,.23h-1.44a3.45,3.45,0,0,1-.47-1.95c0-.51-.05-1,0-1.53a5,5,0,0,0-.24-1.55,1.58,1.58,0,0,0-.93-1.08,3,3,0,0,0-1.28-.38h-3.1V71.3a8.66,8.66,0,0,1-1.35.07Zm1.33,6.91h3.14A2.36,2.36,0,0,0,161.05,62a5.21,5.21,0,0,0,0-2.63c-.33-.22-.33-.71-.73-.91a4.66,4.66,0,0,0-1.68-.54c-1-.09-2,0-3,0Z"/><path d="M322.59,93.22V81.57h7.05v1.49h-4.92V86.3c1.35.09,2.74,0,4.16.06v1.49h-4.17v3.66h5v1.71Z"/><path d="M306.21,71.34h-1.44a13.17,13.17,0,0,0-1.11-2.06,4.74,4.74,0,0,1-.51-.94,3.44,3.44,0,0,0-.58-.91c-.82-1.32-1.5-2.72-2.41-4a9.92,9.92,0,0,1-.62-1.29v9.19h-1.32V59.66h1c.51.37.7,1,1.05,1.59.77,1.21,1.44,2.48,2.19,3.7.36.58.65,1.21,1,1.78a6.51,6.51,0,0,1,1,1.79c0,.13.18.23.37.45V59.66H306l.23.24Z"/><path d="M196.58,71.36V59.64h3.53c.42.29.93.16,1.39.35a6.14,6.14,0,0,1,1.58,1.26c.61,2.41-.05,3.52-1.12,4,.12.24.39.27.58.41a3.23,3.23,0,0,1,.85,3.91,2.82,2.82,0,0,1-2.6,1.74Zm1.35-1.15h3c1.47-.54,1.49-1.64,1.38-2.71a3.55,3.55,0,0,0-1-1.29,12,12,0,0,0-3.38-.25Zm2.94-5.38c.15-.13.27-.32.44-.38.53-.18.62-.6.63-1.07s0-.9,0-1.19A1.62,1.62,0,0,0,200.48,61,19.27,19.27,0,0,0,198,61v4a8.05,8.05,0,0,0,1.48,0A5.38,5.38,0,0,1,200.87,64.83Z"/><path d="M245.77,81.56H253v1.49h-4.94v3.47h4.18v1.71h-4.17c-.08,1.61,0,3.19-.05,4.75l-.25.25H246l-.24-.23Z"/><path d="M258.84,57l.23-.24h7.58V57.9h-6.48v5.36h5.67c.15.39,0,.76.1,1.16h-5.75v5.77h6.45v1.15h-7.8Z"/><path d="M226,81.56h2.24c-.46,1.24-1.13,2.38-1.65,3.58s-1.08,2.23-1.57,3.38c0,.08-.11.14-.21.26v4.45h-2.09V89.62a3.27,3.27,0,0,0-.3-1.22c-.46-1.28-1.22-2.43-1.68-3.72a24.57,24.57,0,0,0-1.46-2.84s0-.13,0-.24a4,4,0,0,1,1.1-.06c.38,0,.76,0,1.2,0,.72,1.71,1.43,3.43,2.19,5.25C224.59,85,225.1,83.22,226,81.56Z"/><path d="M295.3,65.68v1.15a2.69,2.69,0,0,1-.17,1.08c-.12.29-.1.64-.2,1a3.78,3.78,0,0,1-3.6,2.68,4.29,4.29,0,0,1-2-.4,3.59,3.59,0,0,1-1.86-2.35,7.63,7.63,0,0,1-.4-2.23c0-.74,0-1.47,0-2.21a2.42,2.42,0,0,1,.17-1.08c.12-.28.08-.63.19-1a4,4,0,0,1,5.53-2.42,4.06,4.06,0,0,1,2.15,2.8,8.76,8.76,0,0,1,.23,1.45C295.27,64.66,295.3,65.17,295.3,65.68Zm-2.75,4.47a3.83,3.83,0,0,0,1.4-3.37c0-.48,0-1,0-1.44a8,8,0,0,0-.17-2.33,3.87,3.87,0,0,0-.69-1.44,1.76,1.76,0,0,0-1.5-.78c-.36-.46-.72,0-1.09,0s-.71.27-1,.52a4.71,4.71,0,0,0-.89,1.36c.15.43-.23.86-.2,1.36s0,1.09,0,1.64c0,.25,0,.51,0,.76a6,6,0,0,0,.38,2.34,2.05,2.05,0,0,0,1.08,1.28c.17.09.44.09.54.32A4.65,4.65,0,0,0,292.55,70.15Z"/><path d="M236.61,59.64h.65c.22,0,.44,0,.51-.18.29-.05.35.19.58.2a3.4,3.4,0,0,1,2.85,1.86,5.15,5.15,0,0,1,.71,2.68c0,1,0,2,0,3a4.67,4.67,0,0,1-1.44,3.43,5,5,0,0,1-1.23.74,2.11,2.11,0,0,0-.31.21H237.4a2.94,2.94,0,0,1-1.91-.72A4.34,4.34,0,0,1,234,68.5c0-.07-.12-.12-.12-.23a23.71,23.71,0,0,1-.17-3.56,8.56,8.56,0,0,1,.74-3.23A3.53,3.53,0,0,1,235.89,60C236.13,59.91,236.41,59.88,236.61,59.64Zm1.25.89a.63.63,0,0,1-.65.26.94.94,0,0,0-.84.28,2.67,2.67,0,0,0-1,1.49,14.61,14.61,0,0,0-.34,2c-.05.64,0,1.29,0,1.92s.36,1.27.21,1.84a14,14,0,0,0,.62,1.28c.26.44.79.55,1.23.82,1.93,0,1.71.3,3.14-1.27,0-.53.4-.94.39-1.47s0-1.16,0-1.73c0-.42,0-.83,0-1.25a7.28,7.28,0,0,0-.16-1.85A2.79,2.79,0,0,0,239,61C238.63,60.75,238.16,61,237.86,60.53Z"/><path d="M269.69,67.93l.26.27c-.19.89.43,1.41,1,2a4.27,4.27,0,0,0,3,0,3.47,3.47,0,0,0,1-1.31c0-.12,0-.38,0-.63a1.35,1.35,0,0,0-.77-1.26,14.83,14.83,0,0,0-2.7-1.13,8,8,0,0,1-1.8-1c-.39-.24-.39-.74-.67-1.06-.09-.32.14-.7-.26-1,.35-.3.21-.73.25-1.06a5.61,5.61,0,0,1,.56-1,2.88,2.88,0,0,1,2.23-1.08c.19,0,.37,0,.53-.14a.33.33,0,0,1,.43,0,.65.65,0,0,0,.61.16,2.15,2.15,0,0,1,1.55.65,2.86,2.86,0,0,1,1.15,2.78h-1.29a2.61,2.61,0,0,0-.39-1.52,1.26,1.26,0,0,0-1.08-.73c-.36,0-.65-.43-1-.18s-.67.06-1,.19c-.81.49-1.21.68-1,2.74A5,5,0,0,0,272.9,65a9.79,9.79,0,0,1,1.65.66,3.5,3.5,0,0,1,1.53,1.56A3,3,0,0,1,274.86,71a4.1,4.1,0,0,1-2.07.56,7.14,7.14,0,0,1-1.84-.18,2.73,2.73,0,0,1-2.16-2.15c-.31-.38-.15-.83-.2-1.29Z"/><path d="M188.62,70.4a5.61,5.61,0,0,0,2.4-.29,2.52,2.52,0,0,1,.35-.37,2.73,2.73,0,0,0,1-2.29c0-2.46,0-4.93,0-7.39v-.39h1.09l.26.26v7.2a2.22,2.22,0,0,1-.18,1c-.11.27-.08.58-.18.89a2.74,2.74,0,0,1-1.19,1.7,2.86,2.86,0,0,0-.46.46c-.16,0-.31,0-.47.07a2.31,2.31,0,0,1-1.5.32,7.65,7.65,0,0,1-1.56-.16,3.75,3.75,0,0,1-2.53-2.5,4.15,4.15,0,0,1-.2-1.36c0-2.5,0-5,0-7.49,0-.12-.05-.25.07-.38h1.27v1.71c0,2,0,4,0,6.05a4.73,4.73,0,0,0,.6,2.06c.18.42.65.51,1,.73A2.34,2.34,0,0,1,188.62,70.4Z"/><path d="M317.46,59.66h1.05l3.89,11.66h-1.3c-.46-.87-.57-1.93-1.05-2.84h-4.31c-.48.9-.59,2-1.06,2.85h-1.3c1.29-3.83,2.57-7.63,3.86-11.44C317.27,59.81,317.37,59.75,317.46,59.66Zm2.32,7.65a22.94,22.94,0,0,1-1-2.77c-.32-.92-.49-1.89-.9-2.86-.59,1.93-1.29,3.74-1.76,5.63Z"/><path d="M298.35,81.57v1.48h-3V93.22h-2.11V83.11h-2.89c-.06-.52,0-1,0-1.54Z"/><path d="M208.08,81.57V83h-2.94l-.09.1a.41.41,0,0,0,0,.08v10H203s0,0,0,0a.11.11,0,0,1,0-.08v-10H200V81.57Z"/><path d="M166.25,59.66h6.66v1.11h-5.32v4h4.57V66H167.6c-.07,1.42,0,2.81,0,4.23h5.07l.28.28v.88h-6.66Z"/><path d="M177,67.15v4.17h-1.25c-.15-.81-.19-6.75-.08-11.68a34.68,34.68,0,0,1,4.08,0,3.32,3.32,0,0,1,3.2,3.51,4,4,0,0,1-.56,2.36A3.11,3.11,0,0,1,180.45,67,17.15,17.15,0,0,1,177,67.15ZM177,66a23.58,23.58,0,0,0,2.39,0,2.07,2.07,0,0,0,1.92-1.11,3.6,3.6,0,0,0,.25-2.18,1.87,1.87,0,0,0-.68-1.33,2.9,2.9,0,0,0-1.59-.55H177Z"/><path d="M282.83,93.22V81.57h2s0,0,0,0a.11.11,0,0,1,0,.08c0,3.26,0,6.52,0,9.84h4.2v1.7Z"/><path d="M222.84,59.4a1.39,1.39,0,0,0,1,.23,3.39,3.39,0,0,1,2.66,3.82h-1.09l-.26-.28a2.07,2.07,0,0,0-.53-1.82c-.42-.47-1.12-.51-1.7-.73-.18-.08-.26.18-.39.16a1.81,1.81,0,0,0-1.5.78,4.25,4.25,0,0,0-.69,1.45,5,5,0,0,0-.17,1.75c0,.83,0,1.66,0,2.49a4.05,4.05,0,0,0,1.16,2.68,1.42,1.42,0,0,0,1.15.47c.41,0,.83,0,1.17,0a3.06,3.06,0,0,0,1.52-1.53V67.74h1.32a3.14,3.14,0,0,1-.31,1.92,3.31,3.31,0,0,1-2.94,1.89h-1.44c-.14-.23-.41-.28-.61-.37A4,4,0,0,1,219,68.35a6.63,6.63,0,0,1-.18-2c0-.8,0-1.6,0-2.4a5.14,5.14,0,0,1,.8-2.63,3.52,3.52,0,0,1,1.68-1.45.82.82,0,0,0,.25-.16C222,59.55,222.47,59.84,222.84,59.4Z"/><path d="M244.81,59.66h6.66v1.07l0,0-.08,0h-5.2V65l0,0a.19.19,0,0,0,.08,0h4.43v1.12h-4.54v5.17h-1.35Z"/><path d="M171.38,93.24h-2V81.58a3.43,3.43,0,0,1,1,0c.35,0,.7,0,1.08,0Z"/><path d="M188.09,93.24H186V81.57c.31,0,.65,0,1,0s.69,0,1.07,0Z"/><path d="M280.92,60.79h-3.07v-1.1h7.43v1.08h-3V71.31h-1.34Z"/><path d="M206.4,59.66h1.31V70.2h4.58v1.1l0,0a.19.19,0,0,1-.08,0H206.4Z"/><path d="M215.94,71.34h-1.28V59.89l.28-.23h1Z"/><path d="M311,71.34h-1.29V59.89l.28-.23h1Z"/><path d="M82.25,96.84v1.37H80c-.11-.41.13-.87-.28-1.14.36-.43.48.21.76,0l.12-.33h1c0,.1.07.21.11.32C82,97.19,82.08,97,82.25,96.84Z"/><path d="M80,100.14c-.19-.19-.37-.33-.23-.61a1.78,1.78,0,0,1,1-.71,1.9,1.9,0,0,1,1.66.68.58.58,0,0,1-.27.64Z"/><path d="M80.91,72.32h.48c.24.11.3.36.41.57l.44-.42V74H80c-.12-.45.11-1-.3-1.46l.39,0,.09.27.54-.54Z"/><path d="M80.05,75.94c-.35-.27-.27-.58-.23-.91a2.29,2.29,0,0,1,2.4-.19c.1.17,0,.42.24.43.06.3-.26.39-.2.67Z"/><path d="M82.13,49.8a2.91,2.91,0,0,0-2.1.06c-.14-.48.1-1-.27-1.4.28-.39.43.12.68,0s.12-.17.11-.3c.27-.18.57,0,.81-.09a.73.73,0,0,1,.37.78l.56-.56C82.23,48.82,82.41,49.31,82.13,49.8Z"/><path d="M81.1,50.13c.26.35.55.29.9.29l.51.63c.08.31-.31.47-.55.74a1.58,1.58,0,0,0-1.64,0c-.18,0-.21-.37-.45-.18a1.32,1.32,0,0,1-.08-.69l.45-.45C80.45,50.31,80.85,50.59,81.1,50.13Z"/></svg>