<svg id="Layer_1" data-name="Layer 1" xmlns="http://www.w3.org/2000/svg" viewBox="0 0 327.54 59.33"><path d="M104.43,4.61a3.9,3.9,0,0,0-3.11,1.28,5.25,5.25,0,0,0-1.1,3.52A5.26,5.26,0,0,0,101.36,13a3.91,3.91,0,0,0,3.12,1.34,4.05,4.05,0,0,0,3.79-2.49l1.34.66a5.37,5.37,0,0,1-2.09,2.36,5.87,5.87,0,0,1-3.12.81,6.25,6.25,0,0,1-3.14-.75,5,5,0,0,1-2-2.16,7.47,7.47,0,0,1-.69-3.32,6.25,6.25,0,0,1,1.55-4.5,5.65,5.65,0,0,1,4.3-1.63,6.24,6.24,0,0,1,3.22.75,4.44,4.44,0,0,1,1.88,2.22L108,6.77a3.24,3.24,0,0,0-1.31-1.61A4.21,4.21,0,0,0,104.43,4.61Z"/><path d="M119.62,10.85a5.28,5.28,0,0,1-1.07,3.61,3.94,3.94,0,0,1-3.1,1.18,3.76,3.76,0,0,1-3-1.23,5.4,5.4,0,0,1-1-3.56q0-4.78,4.13-4.77a3.93,3.93,0,0,1,3.12,1.14A5.52,5.52,0,0,1,119.62,10.85Zm-1.61,0a5.22,5.22,0,0,0-.58-2.77,2.09,2.09,0,0,0-1.9-.87,2.18,2.18,0,0,0-2,.88,5,5,0,0,0-.57,2.76,5.1,5.1,0,0,0,.57,2.74,2.08,2.08,0,0,0,1.87.92,2.21,2.21,0,0,0,2-.89A5.13,5.13,0,0,0,118,10.85Z"/><path d="M121.5,11.51V10.15h4.26v1.36Z"/><path d="M129.94,7.36v8.11h-1.53V7.36h-1.3V6.22h1.3v-1A2.48,2.48,0,0,1,129,3.39a2.29,2.29,0,0,1,1.71-.57,4.47,4.47,0,0,1,1.09.1V4.11A3.21,3.21,0,0,0,131.1,4a1.09,1.09,0,0,0-.86.3A1.65,1.65,0,0,0,130,5.42v.82h1.8V7.38Z"/><path d="M134.74,6.24V12.1a4.79,4.79,0,0,0,.18,1.41,1.28,1.28,0,0,0,.57.72,2.4,2.4,0,0,0,1.15.23,2.16,2.16,0,0,0,1.74-.76,3.15,3.15,0,0,0,.64-2.11V6.24h1.53V13.5c0,1.08,0,1.73,0,2h-1.45V13.9h0a3,3,0,0,1-2.94,1.74,2.92,2.92,0,0,1-2.22-.75,3.67,3.67,0,0,1-.7-2.5V6.24Z"/><path d="M149.16,15.47V9.62A4.24,4.24,0,0,0,149,8.21a1.23,1.23,0,0,0-.57-.73,2.37,2.37,0,0,0-1.14-.22,2.18,2.18,0,0,0-1.75.76,3.24,3.24,0,0,0-.64,2.11v5.34h-1.53V8.21c0-1.07,0-1.73,0-2h1.44a1,1,0,0,1,0,.24V7.82h0a3.39,3.39,0,0,1,1.28-1.35,3.42,3.42,0,0,1,1.72-.39,2.88,2.88,0,0,1,2.22.75,3.58,3.58,0,0,1,.71,2.49v6.15Z"/><path d="M159.19,14a2.81,2.81,0,0,1-1.14,1.27,3.55,3.55,0,0,1-1.72.38,2.93,2.93,0,0,1-2.57-1.17,6.11,6.11,0,0,1-.85-3.57q0-4.83,3.39-4.82a3.69,3.69,0,0,1,1.75.38,2.8,2.8,0,0,1,1.14,1.22h0V2.82h1.53V13.57a18.62,18.62,0,0,0,.06,1.9h-1.47c0-.09,0-.3-.06-.63s0-.61,0-.85Zm-4.66-3.14a5.73,5.73,0,0,0,.51,2.77,1.85,1.85,0,0,0,1.66.84,2.11,2.11,0,0,0,1.92-.91,5.31,5.31,0,0,0,.57-2.8,4.93,4.93,0,0,0-.57-2.69,2.13,2.13,0,0,0-1.88-.85,1.82,1.82,0,0,0-1.68.85A5.71,5.71,0,0,0,154.53,10.85Z"/><path d="M164.6,11.17a4,4,0,0,0,.66,2.44,2.29,2.29,0,0,0,1.92.88,2.81,2.81,0,0,0,1.6-.4,2,2,0,0,0,.82-1l1.34.39c-.57,1.45-1.8,2.18-3.76,2.18a3.9,3.9,0,0,1-3.11-1.22A5.31,5.31,0,0,1,163,10.8a5.11,5.11,0,0,1,1.07-3.51,3.86,3.86,0,0,1,3.06-1.21c2.7,0,4.06,1.63,4.06,4.9v.19Zm5-1.15a3.57,3.57,0,0,0-.74-2.13,2.29,2.29,0,0,0-1.77-.66,2.25,2.25,0,0,0-1.77.74,3.24,3.24,0,0,0-.7,2.05Z"/><path d="M179.31,14a2.7,2.7,0,0,1-1.14,1.27,3.64,3.64,0,0,1-1.75.38,2.93,2.93,0,0,1-2.57-1.17A6.36,6.36,0,0,1,173,10.9q0-4.83,3.39-4.82a3.59,3.59,0,0,1,1.76.38,2.8,2.8,0,0,1,1.14,1.22h0V2.82h1.53V13.57c0,1,0,1.59.05,1.9h-1.46q0-.32-.06-.63c0-.33,0-.61,0-.85Zm-4.66-3.14a5.51,5.51,0,0,0,.52,2.77,1.84,1.84,0,0,0,1.66.84,2.11,2.11,0,0,0,1.9-.91,5.31,5.31,0,0,0,.57-2.8,4.93,4.93,0,0,0-.57-2.69,2.13,2.13,0,0,0-1.88-.85,1.82,1.82,0,0,0-1.68.85A5.59,5.59,0,0,0,174.65,10.85Z"/><path d="M196.55,10.82q0,4.81-3.39,4.82a3.47,3.47,0,0,1-1.74-.38A2.82,2.82,0,0,1,190.27,14h0c0,.17,0,.44,0,.8a3.46,3.46,0,0,1-.05.63H188.7c0-.31.05-.94.05-1.9V2.82h1.54V6.43c0,.36,0,.8,0,1.3h0a2.76,2.76,0,0,1,1.14-1.27,3.63,3.63,0,0,1,1.74-.38,2.89,2.89,0,0,1,2.57,1.17A6.32,6.32,0,0,1,196.55,10.82Zm-1.61,0a5.68,5.68,0,0,0-.51-2.78,1.82,1.82,0,0,0-1.67-.83,2.11,2.11,0,0,0-1.88.88,5.22,5.22,0,0,0-.57,2.82,4.89,4.89,0,0,0,.57,2.68,2.11,2.11,0,0,0,1.88.87,1.8,1.8,0,0,0,1.68-.86A5.67,5.67,0,0,0,194.94,10.87Z"/><path d="M199.26,19.09a4.61,4.61,0,0,1-1-.09V17.86a5.53,5.53,0,0,0,.71,0c1,0,1.71-.69,2.28-2.1l.15-.37-3.66-9.18h1.63l2,5.1a1,1,0,0,0,.1.28c0,.11.17.49.39,1.15s.33,1,.35,1.05l.57-1.68,2-5.87h1.62l-3.55,9.23a11.34,11.34,0,0,1-1.06,2.19,3.51,3.51,0,0,1-1.1,1.07A2.54,2.54,0,0,1,199.26,19.09Z"/><path d="M216.64,15.4a5.85,5.85,0,0,1-1.55.21c-1.23,0-1.85-.7-1.84-2.09V7.36h-1.07V6.22h1.14l.45-2.06h1V6.22h1.71V7.36H214.8v5.83a1.52,1.52,0,0,0,.21.93.94.94,0,0,0,.76.27,6.57,6.57,0,0,0,.89-.12Z"/><path d="M219.82,7.82A3.46,3.46,0,0,1,221,6.49a3.36,3.36,0,0,1,1.76-.41,2.93,2.93,0,0,1,2.21.74,3.54,3.54,0,0,1,.71,2.5v6.15h-1.54V9.62A4.42,4.42,0,0,0,224,8.18a1.23,1.23,0,0,0-.57-.7,2.47,2.47,0,0,0-1.14-.22,2.18,2.18,0,0,0-1.71.75,3,3,0,0,0-.69,2v5.45h-1.53V2.82h1.53V7.19A3.89,3.89,0,0,1,219.82,7.82Z"/><path d="M229.53,11.17a4,4,0,0,0,.66,2.44,2.28,2.28,0,0,0,1.92.86,2.78,2.78,0,0,0,1.59-.4,2,2,0,0,0,.82-1l1.35.38c-.57,1.45-1.81,2.19-3.76,2.19A3.9,3.9,0,0,1,229,14.4a5.36,5.36,0,0,1-1.07-3.62A5.12,5.12,0,0,1,229,7.28a3.85,3.85,0,0,1,3.06-1.22c2.71,0,4.07,1.63,4.06,4.9v.21Zm5-1.15a3.52,3.52,0,0,0-.75-2.13A2.25,2.25,0,0,0,232,7.23a2.21,2.21,0,0,0-1.76.74,3.2,3.2,0,0,0-.71,2.05Z"/><path d="M104.43,24.56a3.9,3.9,0,0,0-3.11,1.29,5.2,5.2,0,0,0-1.1,3.52,5.26,5.26,0,0,0,1.14,3.55,3.91,3.91,0,0,0,3.12,1.34,4.05,4.05,0,0,0,3.79-2.49l1.34.66a5.37,5.37,0,0,1-2.09,2.36,6,6,0,0,1-3.12.81,6.37,6.37,0,0,1-3.14-.76,5,5,0,0,1-2-2.15,7.47,7.47,0,0,1-.69-3.32,6.2,6.2,0,0,1,1.55-4.5,5.65,5.65,0,0,1,4.3-1.64,6.18,6.18,0,0,1,3.2.76,4.39,4.39,0,0,1,1.9,2.22l-1.55.51a3.15,3.15,0,0,0-1.3-1.6A4.22,4.22,0,0,0,104.43,24.56Z"/><path d="M111.85,35.43V28.35c0-.65,0-1.36,0-2.15h1.45c0,1.05.07,1.67.07,1.89h0a3.57,3.57,0,0,1,.85-1.62,1.91,1.91,0,0,1,1.34-.44,2.16,2.16,0,0,1,.62.09v1.4a3.22,3.22,0,0,0-.82-.08,1.6,1.6,0,0,0-1.45.82,4.5,4.5,0,0,0-.5,2.36v4.81Z"/><path d="M119.15,31.15a4,4,0,0,0,.66,2.45,2.3,2.3,0,0,0,1.92.86,2.81,2.81,0,0,0,1.6-.4,2.06,2.06,0,0,0,.82-1l1.34.4c-.57,1.45-1.8,2.18-3.76,2.18a3.91,3.91,0,0,1-3.09-1.24,5.37,5.37,0,0,1-1.07-3.63,5.1,5.1,0,0,1,1.07-3.5,3.85,3.85,0,0,1,3-1.24c2.72,0,4.07,1.64,4.07,4.91v.23Zm5-1.17a3.57,3.57,0,0,0-.74-2.13,2.26,2.26,0,0,0-1.77-.69,2.18,2.18,0,0,0-1.76.74,3.2,3.2,0,0,0-.71,2.05Z"/><path d="M130.39,35.6a2.78,2.78,0,0,1-2.09-.73,2.81,2.81,0,0,1-.69-2,2.68,2.68,0,0,1,.94-2.21,5,5,0,0,1,3-.81l2.07,0v-.5a2.27,2.27,0,0,0-.48-1.61,2,2,0,0,0-1.5-.49,2.55,2.55,0,0,0-1.5.35,1.58,1.58,0,0,0-.57,1.14l-1.6-.14Q128.4,26,131.72,26a3.78,3.78,0,0,1,2.61.8,2.94,2.94,0,0,1,.88,2.29v4a2.23,2.23,0,0,0,.18,1,.7.7,0,0,0,.69.35,2.2,2.2,0,0,0,.5-.06v1a5.29,5.29,0,0,1-1.19.13,1.58,1.58,0,0,1-1.24-.44,2.29,2.29,0,0,1-.44-1.41h-.05a3.78,3.78,0,0,1-1.37,1.49A3.91,3.91,0,0,1,130.39,35.6Zm.35-1.14a3,3,0,0,0,1.5-.39,2.76,2.76,0,0,0,1-1,2.71,2.71,0,0,0,.38-1.38v-.77l-1.68,0a5.32,5.32,0,0,0-1.64.22,1.72,1.72,0,0,0-.86.64,1.9,1.9,0,0,0-.3,1.14,1.59,1.59,0,0,0,.41,1.14,1.52,1.52,0,0,0,1.15.4Z"/><path d="M141.65,35.36a5.45,5.45,0,0,1-1.55.2c-1.23,0-1.85-.69-1.84-2.08V27.32h-1.07V26.18h1.14l.45-2.06h1v2.06h1.71v1.14h-1.71v5.82a1.55,1.55,0,0,0,.22.94.94.94,0,0,0,.76.27,6.42,6.42,0,0,0,.88-.12Z"/><path d="M143.29,24.24V22.78h1.54v1.46Zm0,11.19V26.2h1.54v9.23Z"/><path d="M151.58,35.43h-1.82l-3.35-9.23h1.64l2,6c.07.23.27.91.57,2l.3-1,.33-1,2.1-6H155Z"/><path d="M157.79,31.15a4,4,0,0,0,.66,2.45,2.28,2.28,0,0,0,1.91.86,2.79,2.79,0,0,0,1.6-.4,2,2,0,0,0,.82-1l1.34.39c-.57,1.45-1.8,2.18-3.76,2.18a3.92,3.92,0,0,1-3.11-1.22,5.31,5.31,0,0,1-1.07-3.62,5.11,5.11,0,0,1,1.07-3.51A3.85,3.85,0,0,1,160.33,26c2.71,0,4.06,1.64,4.07,4.91v.23Zm5-1.17a3.52,3.52,0,0,0-.75-2.13,2.24,2.24,0,0,0-1.76-.69,2.2,2.2,0,0,0-1.77.74,3.15,3.15,0,0,0-.7,2.05Z"/><path d="M172.13,35.43v-12h9.14v1.33h-7.51v3.85h7v1.32h-7v4.18h7.84v1.33Z"/><path d="M185.37,26.2v5.85a4.27,4.27,0,0,0,.18,1.42,1.28,1.28,0,0,0,.57.72,2.38,2.38,0,0,0,1.14.23,2.16,2.16,0,0,0,1.75-.76,3.16,3.16,0,0,0,.64-2.11V26.2h1.54v7.24a19.11,19.11,0,0,0,.05,2H189.8a1,1,0,0,1,0-.24V33.83h0a3.38,3.38,0,0,1-1.22,1.35,3.42,3.42,0,0,1-1.72.39,2.89,2.89,0,0,1-2.22-.75,3.58,3.58,0,0,1-.7-2.49V26.2Z"/><path d="M194,35.43V28.35c0-.65,0-1.36-.05-2.15h1.45c0,1.05.07,1.67.07,1.89h0a3.71,3.71,0,0,1,.84-1.62,1.94,1.94,0,0,1,1.34-.44,2.16,2.16,0,0,1,.62.09v1.4a3.22,3.22,0,0,0-.82-.08,1.6,1.6,0,0,0-1.45.82,4.51,4.51,0,0,0-.51,2.36v4.81Z"/><path d="M207.9,30.81a5.3,5.3,0,0,1-1.07,3.61,3.94,3.94,0,0,1-3.1,1.18,3.75,3.75,0,0,1-3-1.23,5.4,5.4,0,0,1-1-3.56q0-4.78,4.14-4.78a4,4,0,0,1,3.11,1.14A5.5,5.5,0,0,1,207.9,30.81Zm-1.61,0a5.26,5.26,0,0,0-.57-2.78,2.1,2.1,0,0,0-1.91-.87,2.15,2.15,0,0,0-1.94.88,5,5,0,0,0-.6,2.75,5.16,5.16,0,0,0,.57,2.75,2.07,2.07,0,0,0,1.89.93,2.22,2.22,0,0,0,2-.89A5.12,5.12,0,0,0,206.29,30.81Z"/><path d="M218,30.77q0,4.83-3.39,4.83a2.83,2.83,0,0,1-2.86-1.6h0a14,14,0,0,1,0,1.45v3.6h-1.54v-11c0-.95,0-1.58,0-1.89h1.48v.25c0,.14,0,.35,0,.64s0,.49,0,.57h.09a2.79,2.79,0,0,1,1.08-1.25,3.54,3.54,0,0,1,1.77-.4,2.94,2.94,0,0,1,2.55,1.15A6.31,6.31,0,0,1,218,30.77Zm-1.61,0a5.48,5.48,0,0,0-.52-2.76,1.83,1.83,0,0,0-1.66-.83A2,2,0,0,0,212,28.81a7.57,7.57,0,0,0-.27,2.12,5,5,0,0,0,.58,2.67,2.1,2.1,0,0,0,1.88.87,1.83,1.83,0,0,0,1.67-.84,5.6,5.6,0,0,0,.53-2.82Z"/><path d="M221.4,31.15a3.93,3.93,0,0,0,.65,2.45,2.24,2.24,0,0,0,1.92.86,2.81,2.81,0,0,0,1.6-.4,2,2,0,0,0,.81-1l1.34.4c-.57,1.45-1.8,2.18-3.76,2.18a3.91,3.91,0,0,1-3.09-1.24,5.32,5.32,0,0,1-1.07-3.63,5.1,5.1,0,0,1,1.07-3.5,3.86,3.86,0,0,1,3-1.24c2.72,0,4.07,1.64,4.07,4.91v.23Zm5-1.17a3.51,3.51,0,0,0-.74-2.13,2.24,2.24,0,0,0-1.76-.69,2.19,2.19,0,0,0-1.77.74,3.22,3.22,0,0,0-.68,2.07Z"/><path d="M245,27a3.49,3.49,0,0,1-1.15,2.71,4.31,4.31,0,0,1-3,1h-3.53v4.68h-1.62v-12h5.06a4.61,4.61,0,0,1,3.12.95A3.32,3.32,0,0,1,245,27Zm-1.64,0c0-1.55-.94-2.33-2.8-2.33h-3.23v4.74h3.3c1.82,0,2.73-.78,2.73-2.39Z"/><path d="M247.51,35.43V28.35c0-.65,0-1.36,0-2.15h1.45c.05,1.05.07,1.67.07,1.89h0a3.65,3.65,0,0,1,.84-1.62A1.94,1.94,0,0,1,251.2,26a2.28,2.28,0,0,1,.63.09v1.4a3.26,3.26,0,0,0-.82-.08,1.63,1.63,0,0,0-1.46.82,4.6,4.6,0,0,0-.5,2.36v4.81Z"/><path d="M261.45,30.81a5.3,5.3,0,0,1-1.07,3.61,4,4,0,0,1-3.09,1.18,3.77,3.77,0,0,1-3.06-1.23,5.46,5.46,0,0,1-1-3.56q0-4.78,4.14-4.78a4,4,0,0,1,3.11,1.14A5.5,5.5,0,0,1,261.45,30.81Zm-1.62,0a5.26,5.26,0,0,0-.57-2.78,2.09,2.09,0,0,0-1.9-.87,2.17,2.17,0,0,0-2,.88,5,5,0,0,0-.57,2.75,5.16,5.16,0,0,0,.57,2.75,2.06,2.06,0,0,0,1.86.92,2.24,2.24,0,0,0,2-.89A5.11,5.11,0,0,0,259.83,30.81Z"/><path d="M267.2,39.05a4.27,4.27,0,0,1-2.4-.57,2.66,2.66,0,0,1-1.15-1.71l1.55-.22a1.54,1.54,0,0,0,.67,1,2.41,2.41,0,0,0,1.38.35c1.52,0,2.29-.89,2.29-2.69V33.71h0a3.09,3.09,0,0,1-1.2,1.33,3.34,3.34,0,0,1-1.77.45,2.86,2.86,0,0,1-2.5-1.14,6.25,6.25,0,0,1-.79-3.53,6.33,6.33,0,0,1,.85-3.62,3,3,0,0,1,2.61-1.14,3.13,3.13,0,0,1,1.71.45,2.86,2.86,0,0,1,1.14,1.27h0v-.89a5.38,5.38,0,0,1,.07-.69h1.46c0,.31-.05.94-.05,1.92v7Q271.07,39.05,267.2,39.05Zm2.34-8.23a5.33,5.33,0,0,0-.31-1.94,2.73,2.73,0,0,0-.87-1.25,2,2,0,0,0-1.26-.43,1.88,1.88,0,0,0-1.71.85,5.51,5.51,0,0,0-.54,2.77,5.56,5.56,0,0,0,.51,2.72,1.84,1.84,0,0,0,1.71.82,2,2,0,0,0,1.28-.42,2.65,2.65,0,0,0,.88-1.23A5.28,5.28,0,0,0,269.54,30.82Z"/><path d="M273.8,35.43V28.35c0-.65,0-1.36-.05-2.15h1.45c.05,1.05.07,1.67.07,1.89h0a3.93,3.93,0,0,1,.84-1.62,2,2,0,0,1,1.35-.44,2.16,2.16,0,0,1,.62.09v1.4a3.14,3.14,0,0,0-.81-.08,1.62,1.62,0,0,0-1.46.82,4.5,4.5,0,0,0-.5,2.36v4.81Z"/><path d="M282.28,35.6a2.49,2.49,0,0,1-2.78-2.73,2.65,2.65,0,0,1,.94-2.21,5,5,0,0,1,3-.81l2.07,0v-.5a2.32,2.32,0,0,0-.47-1.61,2.08,2.08,0,0,0-1.51-.49,2.55,2.55,0,0,0-1.5.35,1.51,1.51,0,0,0-.57,1.14l-1.6-.14q.39-2.5,3.7-2.49a3.73,3.73,0,0,1,2.61.8,2.94,2.94,0,0,1,.88,2.28v4a2.29,2.29,0,0,0,.18,1,.68.68,0,0,0,.68.34,2.22,2.22,0,0,0,.51-.06v.92a5.29,5.29,0,0,1-1.19.13,1.58,1.58,0,0,1-1.24-.44,2.31,2.31,0,0,1-.44-1.41h0a3.76,3.76,0,0,1-1.36,1.49A3.91,3.91,0,0,1,282.28,35.6Zm.36-1.14a3,3,0,0,0,1.49-.39,2.87,2.87,0,0,0,1.42-2.43v-.77l-1.68,0a5.36,5.36,0,0,0-1.64.22,1.81,1.81,0,0,0-.86.64,1.88,1.88,0,0,0-.3,1.14,1.59,1.59,0,0,0,.41,1.14,1.53,1.53,0,0,0,1.16.4Z"/><path d="M295.37,35.43V29.58a3.48,3.48,0,0,0-.37-1.85,1.51,1.51,0,0,0-1.32-.51,1.86,1.86,0,0,0-1.56.75,3.49,3.49,0,0,0-.57,2.11v5.35H290V28.17c0-1.07,0-1.73,0-2h1.45v1.58h0a3.23,3.23,0,0,1,1.14-1.37,3.11,3.11,0,0,1,1.56-.38,2.94,2.94,0,0,1,1.66.42,2.23,2.23,0,0,1,.84,1.33h0a3.24,3.24,0,0,1,1.15-1.34,3.1,3.1,0,0,1,1.64-.41,2.5,2.5,0,0,1,2,.76,3.86,3.86,0,0,1,.64,2.49v6.15h-1.52V29.58a3.3,3.3,0,0,0-.37-1.85,1.5,1.5,0,0,0-1.32-.51,1.86,1.86,0,0,0-1.57.74,3.54,3.54,0,0,0-.57,2.12v5.35Z"/><path d="M310.26,35.43V29.58a3.38,3.38,0,0,0-.36-1.85,1.52,1.52,0,0,0-1.32-.51A1.86,1.86,0,0,0,307,28a3.49,3.49,0,0,0-.57,2.11v5.35h-1.52V28.17c0-1.07,0-1.73-.05-2h1.44v1.58h0a3.37,3.37,0,0,1,1.14-1.37A3.17,3.17,0,0,1,309,26a2.89,2.89,0,0,1,1.65.42,2.2,2.2,0,0,1,.85,1.33h0a3.32,3.32,0,0,1,1.15-1.34,3.15,3.15,0,0,1,1.64-.41,2.48,2.48,0,0,1,2,.76,3.86,3.86,0,0,1,.64,2.49v6.15h-1.52V29.58a3.3,3.3,0,0,0-.37-1.85,1.5,1.5,0,0,0-1.32-.51,1.83,1.83,0,0,0-1.56.74,3.54,3.54,0,0,0-.57,2.12v5.35Z"/><path d="M321,31.15a4,4,0,0,0,.66,2.45,2.24,2.24,0,0,0,1.92.86,2.81,2.81,0,0,0,1.6-.4,2,2,0,0,0,.81-1l1.35.39c-.56,1.45-1.81,2.18-3.76,2.18a3.94,3.94,0,0,1-3.12-1.22,5.37,5.37,0,0,1-1.07-3.63,5.21,5.21,0,0,1,1.07-3.5A3.87,3.87,0,0,1,323.48,26c2.71,0,4.07,1.64,4.06,4.91v.23ZM326,30a3.55,3.55,0,0,0-.74-2.13,2.27,2.27,0,0,0-1.76-.68,2.21,2.21,0,0,0-1.77.74A3.26,3.26,0,0,0,321,30Z"/><path d="M106.65,50.77a5.25,5.25,0,0,1-1.07,3.6,4,4,0,0,1-3.1,1.19,3.77,3.77,0,0,1-3-1.24,5.37,5.37,0,0,1-1-3.55q0-4.79,4.14-4.78a3.94,3.94,0,0,1,3.11,1.14A5.55,5.55,0,0,1,106.65,50.77Zm-1.62,0a5.26,5.26,0,0,0-.57-2.78,2.14,2.14,0,0,0-1.89-.85,2.21,2.21,0,0,0-1.95.89,5,5,0,0,0-.6,2.76,5.2,5.2,0,0,0,.57,2.74,2,2,0,0,0,1.87.91,2.18,2.18,0,0,0,2-.88,5,5,0,0,0,.61-2.79Z"/><path d="M110.82,47.28v8.11h-1.53V47.28H108V46.13h1.3v-1a2.44,2.44,0,0,1,.57-1.81,2.22,2.22,0,0,1,1.71-.57,4.39,4.39,0,0,1,1.08.1V44a5.05,5.05,0,0,0-.68-.07,1.07,1.07,0,0,0-.85.3,1.66,1.66,0,0,0-.27,1.08v.83h1.8v1.14Z"/><path d="M122.87,55.32a6.3,6.3,0,0,1-1.56.2c-1.23,0-1.84-.69-1.84-2.09V47.28h-1.06V46.13h1.14l.45-2.06h1v2.06h1.71v1.15H121V53.1a1.52,1.52,0,0,0,.22.93.91.91,0,0,0,.75.28,6.57,6.57,0,0,0,.89-.12Z"/><path d="M126.06,47.72A3,3,0,0,1,129,46a2.92,2.92,0,0,1,2.22.75,3.59,3.59,0,0,1,.71,2.5v6.14h-1.54V49.54a4.44,4.44,0,0,0-.18-1.45,1.25,1.25,0,0,0-.57-.69,2.38,2.38,0,0,0-1.14-.23,2.21,2.21,0,0,0-1.72.76,3,3,0,0,0-.71,2v5.44h-1.53V42.73h1.53v4.35a4.2,4.2,0,0,1,0,.64Z"/><path d="M135.77,51.1a4,4,0,0,0,.66,2.45,2.26,2.26,0,0,0,1.92.85A2.81,2.81,0,0,0,140,54a2,2,0,0,0,.81-1l1.35.39c-.57,1.45-1.8,2.18-3.76,2.18a3.92,3.92,0,0,1-3.15-1.22,5.39,5.39,0,0,1-1.07-3.63,5.07,5.07,0,0,1,1.07-3.5A3.83,3.83,0,0,1,138.27,46c2.72,0,4.07,1.64,4.07,4.9v.21Zm5-1.18a3.57,3.57,0,0,0-.74-2.13,2.3,2.3,0,0,0-1.78-.65,2.24,2.24,0,0,0-1.77.75,3.26,3.26,0,0,0-.71,2Z"/><path d="M150.1,55.39v-12h9.13v1.33h-7.48v3.86h7v1.31h-7v4.17h7.83v1.33Z"/><path d="M163.34,46.16V52a4.27,4.27,0,0,0,.18,1.42,1.28,1.28,0,0,0,.57.72,2.37,2.37,0,0,0,1.14.22,2.2,2.2,0,0,0,1.75-.75,3.22,3.22,0,0,0,.64-2.11V46.16h1.53v7.27a17.89,17.89,0,0,0,.06,2h-1.46v-.66c0-.16,0-.47,0-.92h0a3.38,3.38,0,0,1-1.28,1.32,3.42,3.42,0,0,1-1.72.39,2.88,2.88,0,0,1-2.22-.75,3.61,3.61,0,0,1-.7-2.5V46.16Z"/><path d="M171.93,55.39v-7.1c0-.65,0-1.37-.05-2.15h1.45c0,1,.07,1.67.07,1.88h.07a3.85,3.85,0,0,1,.83-1.62,1.94,1.94,0,0,1,1.35-.43,2.72,2.72,0,0,1,.63.08v1.41a3.27,3.27,0,0,0-.82-.09,1.61,1.61,0,0,0-1.46.83,4.54,4.54,0,0,0-.53,2.37v4.81Z"/><path d="M185.87,50.77a5.25,5.25,0,0,1-1.07,3.6,3.94,3.94,0,0,1-3.09,1.19,3.77,3.77,0,0,1-3.06-1.24,5.42,5.42,0,0,1-1-3.55q0-4.79,4.14-4.78a4,4,0,0,1,3.11,1.14A5.48,5.48,0,0,1,185.87,50.77Zm-1.62,0a5.26,5.26,0,0,0-.57-2.78,2.1,2.1,0,0,0-1.9-.85,2.21,2.21,0,0,0-1.95.89,5,5,0,0,0-.57,2.76,5.2,5.2,0,0,0,.57,2.74,2,2,0,0,0,1.86.91,2.19,2.19,0,0,0,2-.88,5,5,0,0,0,.58-2.79Z"/><path d="M195.93,50.73q0,4.82-3.4,4.83A2.81,2.81,0,0,1,189.68,54h0a11.7,11.7,0,0,1,0,1.45V59h-1.53v-11c0-1,0-1.59,0-1.89h1.48l0,.24a5.85,5.85,0,0,0,0,.65,2.53,2.53,0,0,1,0,.57h0a2.79,2.79,0,0,1,1.08-1.25,3.65,3.65,0,0,1,1.77-.4,3,3,0,0,1,2.56,1.15A6.14,6.14,0,0,1,195.93,50.73Zm-1.61,0A5.48,5.48,0,0,0,193.8,48a1.84,1.84,0,0,0-1.66-.83,2,2,0,0,0-2.21,1.59,6.9,6.9,0,0,0-.27,2.12,4.88,4.88,0,0,0,.57,2.67,2.12,2.12,0,0,0,1.89.86,1.81,1.81,0,0,0,1.67-.84A5.69,5.69,0,0,0,194.32,50.77Z"/><path d="M199.36,51.1a4,4,0,0,0,.66,2.45,2.26,2.26,0,0,0,1.92.85,2.81,2.81,0,0,0,1.6-.4,2,2,0,0,0,.82-1l1.34.39c-.57,1.45-1.81,2.18-3.76,2.18a3.94,3.94,0,0,1-3.12-1.22,5.39,5.39,0,0,1-1.07-3.63,5.19,5.19,0,0,1,1.07-3.5A3.87,3.87,0,0,1,201.88,46c2.71,0,4.07,1.64,4.07,4.9v.21Zm5-1.18a3.57,3.57,0,0,0-.74-2.13,2.32,2.32,0,0,0-1.77-.65,2.29,2.29,0,0,0-1.77.75,3.24,3.24,0,0,0-.7,2Z"/><path d="M210.59,55.56a2.51,2.51,0,0,1-2.79-2.18,3.55,3.55,0,0,1,.94-2.77,5,5,0,0,1,3-.82l2.07,0v-.5a2.22,2.22,0,0,0-.48-1.62,2,2,0,0,0-1.5-.48,2.55,2.55,0,0,0-1.5.35,1.55,1.55,0,0,0-.57,1.14l-1.61-.14q.41-2.49,3.7-2.49a3.82,3.82,0,0,1,2.63.79,3,3,0,0,1,.87,2.29v4a2.23,2.23,0,0,0,.18,1,.71.71,0,0,0,.68.35,2.73,2.73,0,0,0,.5-.06v1a5.15,5.15,0,0,1-1.18.14,1.55,1.55,0,0,1-1.24-.45,2.27,2.27,0,0,1-.44-1.4h0a3.74,3.74,0,0,1-1.37,1.5A3.94,3.94,0,0,1,210.59,55.56Zm.35-1.15a2.94,2.94,0,0,0,1.5-.38,2.88,2.88,0,0,0,1.41-2.42v-.78l-1.71,0a5.36,5.36,0,0,0-1.64.22,1.73,1.73,0,0,0-.86.63,1.91,1.91,0,0,0-.29,1.14,1.54,1.54,0,0,0,.4,1.14,1.52,1.52,0,0,0,1.2.4Z"/><path d="M224.17,55.39V49.54a4.27,4.27,0,0,0-.18-1.42,1.28,1.28,0,0,0-.57-.72,2.38,2.38,0,0,0-1.14-.23,2.23,2.23,0,0,0-1.75.76,3.15,3.15,0,0,0-.64,2.11v5.35h-1.54V48.13a19.11,19.11,0,0,0,0-2h1.42a.89.89,0,0,1,0,.23v1.35h0A3.27,3.27,0,0,1,221,46.39a3.37,3.37,0,0,1,1.71-.4,2.89,2.89,0,0,1,2.22.76,3.58,3.58,0,0,1,.7,2.49v6.15Z"/><path d="M238.63,55.56a5.89,5.89,0,0,1-2.58-.54,4,4,0,0,1-1.71-1.56,4.71,4.71,0,0,1-.61-2.44V43.37h1.63v7.52a3.48,3.48,0,0,0,.83,2.49,3.24,3.24,0,0,0,2.42.86A3.12,3.12,0,0,0,242,51.47a3.28,3.28,0,0,0,0-.7V43.35h1.61v7.52a4.89,4.89,0,0,1-.61,2.51A4.09,4.09,0,0,1,241.29,55,6,6,0,0,1,238.63,55.56Z"/><path d="M252.39,55.39V49.54a4.27,4.27,0,0,0-.18-1.42,1.24,1.24,0,0,0-.57-.72,2.36,2.36,0,0,0-1.14-.23,2.24,2.24,0,0,0-1.75.76,3.26,3.26,0,0,0-.64,2.11v5.35h-1.54V48.13a17.89,17.89,0,0,0-.06-2H248v.66c0,.16,0,.47,0,.92h0a3.27,3.27,0,0,1,1.23-1.35,3.37,3.37,0,0,1,1.71-.4,2.89,2.89,0,0,1,2.22.76,3.58,3.58,0,0,1,.7,2.49v6.15Z"/><path d="M256.59,44.2V42.73h1.53V44.2Zm0,11.19V46.16h1.53v9.23Z"/><path d="M268.63,50.77a5.25,5.25,0,0,1-1.07,3.6,4,4,0,0,1-3.1,1.19,3.77,3.77,0,0,1-3-1.24,5.37,5.37,0,0,1-1-3.55q0-4.79,4.14-4.78a3.91,3.91,0,0,1,3.11,1.14A5.55,5.55,0,0,1,268.63,50.77Zm-1.61,0a5.24,5.24,0,0,0-.57-2.78,2.12,2.12,0,0,0-1.91-.85,2.21,2.21,0,0,0-2,.89,5,5,0,0,0-.57,2.76,5.1,5.1,0,0,0,.57,2.74,2,2,0,0,0,1.86.91,2.19,2.19,0,0,0,2-.88A5.13,5.13,0,0,0,267,50.77Z"/><path d="M276.74,55.39V49.54a4.53,4.53,0,0,0-.17-1.42,1.29,1.29,0,0,0-.58-.72,2.34,2.34,0,0,0-1.14-.23,2.24,2.24,0,0,0-1.75.76,3.19,3.19,0,0,0-.63,2.11v5.35h-1.54V48.13c0-1.07,0-1.73-.05-2h1.45v.66c0,.16,0,.47,0,.92h0a3.25,3.25,0,0,1,1.22-1.35,3.43,3.43,0,0,1,1.72-.4,2.89,2.89,0,0,1,2.22.76,3.58,3.58,0,0,1,.7,2.49v6.15Z"/><path d="M0,0V59.33H87.34V0ZM85.66,57.61h-84v-56h84Z"/><polygon points="41.88 13.83 43.65 12.53 45.42 13.83 44.75 11.73 46.55 10.44 44.33 10.44 43.65 8.32 42.97 10.44 40.76 10.44 42.55 11.73 41.88 13.83"/><polygon points="32.71 16.29 34.48 15 36.25 16.29 35.58 14.2 37.38 12.9 35.16 12.9 34.48 10.79 33.8 12.91 31.59 12.9 33.38 14.2 32.71 16.29"/><polygon points="27.77 17.51 27.09 19.63 24.88 19.63 26.67 20.92 26 23.02 27.77 21.72 29.54 23.02 28.87 20.92 30.67 19.63 28.45 19.63 27.77 17.51"/><polygon points="25.31 30.88 27.08 32.17 26.41 30.08 28.21 28.79 25.99 28.79 25.31 26.67 24.63 28.79 22.41 28.79 24.21 30.08 23.54 32.17 25.31 30.88"/><polygon points="28.45 37.98 27.77 35.86 27.09 37.98 24.88 37.98 26.67 39.27 26 41.36 27.77 40.06 29.54 41.36 28.87 39.27 30.67 37.98 28.45 37.98"/><polygon points="35.17 44.7 34.49 42.58 33.82 44.7 31.6 44.7 33.4 45.99 32.72 48.08 34.5 46.79 36.27 48.08 35.59 45.99 37.39 44.7 35.17 44.7"/><polygon points="44.33 47.13 43.65 45.02 42.98 47.14 40.76 47.13 42.56 48.43 41.88 50.52 43.66 49.23 45.43 50.52 44.75 48.43 46.55 47.13 44.33 47.13"/><polygon points="53.49 44.7 52.81 42.58 52.13 44.7 49.92 44.7 51.72 45.99 51.04 48.08 52.81 46.79 54.59 48.08 53.91 45.99 55.71 44.7 53.49 44.7"/><polygon points="60.22 37.98 59.54 35.86 58.86 37.98 56.64 37.98 58.44 39.27 57.77 41.36 59.54 40.06 61.31 41.36 60.63 39.27 62.43 37.98 60.22 37.98"/><polygon points="64.87 28.76 62.65 28.76 61.97 26.64 61.29 28.77 59.08 28.76 60.87 30.06 60.2 32.15 61.97 30.85 63.74 32.15 63.07 30.06 64.87 28.76"/><polygon points="57.77 22.99 59.54 21.69 61.31 22.99 60.63 20.89 62.43 19.61 60.22 19.61 59.54 17.48 58.86 19.61 56.64 19.61 58.44 20.89 57.77 22.99"/><polygon points="52.84 10.79 52.16 12.91 49.94 12.9 51.74 14.2 51.07 16.29 52.84 15 54.61 16.29 53.94 14.2 55.74 12.9 53.52 12.9 52.84 10.79"/></svg>