<svg id="Layer_1" data-name="Layer 1" xmlns="http://www.w3.org/2000/svg" viewBox="0 0 393.04 150.02"><defs><style>.cls-1{fill:#fff;}</style></defs><rect class="cls-1" width="393.04" height="150.02"/><path d="M137.18,50a3.9,3.9,0,0,0-3.11,1.29,6.08,6.08,0,0,0,0,7.06,3.92,3.92,0,0,0,3.12,1.35,4.06,4.06,0,0,0,3.79-2.5l1.33.66a5.43,5.43,0,0,1-2.08,2.37,6,6,0,0,1-3.12.81,6.37,6.37,0,0,1-3.14-.76,5,5,0,0,1-2-2.16,7.31,7.31,0,0,1-.69-3.32,6.28,6.28,0,0,1,1.55-4.5,5.64,5.64,0,0,1,4.3-1.63,6.34,6.34,0,0,1,3.22.75,4.47,4.47,0,0,1,1.88,2.23l-1.54.51a3.22,3.22,0,0,0-1.31-1.6A4.22,4.22,0,0,0,137.18,50Z"/><path d="M152.37,56.2a5.25,5.25,0,0,1-1.07,3.6A4,4,0,0,1,148.2,61a3.75,3.75,0,0,1-3-1.24,5.36,5.36,0,0,1-1-3.55q0-4.79,4.13-4.78a4,4,0,0,1,3.12,1.14A5.53,5.53,0,0,1,152.37,56.2Zm-1.62,0a5.15,5.15,0,0,0-.57-2.78,2.09,2.09,0,0,0-1.9-.87,2.19,2.19,0,0,0-1.95.89,5,5,0,0,0-.57,2.76,5.14,5.14,0,0,0,.57,2.74,2,2,0,0,0,1.87.91,2.23,2.23,0,0,0,2-.88A5,5,0,0,0,150.75,56.2Z"/><path d="M154.24,56.86V55.49h4.27v1.37Z"/><path d="M162.69,52.71v8.11h-1.54V52.71h-1.29V51.56h1.29v-1a2.51,2.51,0,0,1,.58-1.82,2.32,2.32,0,0,1,1.71-.57,4.88,4.88,0,0,1,1.08.1v1.19a5.05,5.05,0,0,0-.68-.07,1.08,1.08,0,0,0-.85.3,1.66,1.66,0,0,0-.27,1.08v.83h1.8v1.14Z"/><path d="M167.49,51.59v5.85a4.86,4.86,0,0,0,.18,1.42,1.28,1.28,0,0,0,.57.72,2.5,2.5,0,0,0,1.14.22,2.16,2.16,0,0,0,1.75-.76,3.18,3.18,0,0,0,.64-2.1V51.59h1.53v7.26c0,1.07,0,1.73,0,2H171.9V59.24h0A3,3,0,0,1,168.94,61a2.93,2.93,0,0,1-2.22-.76,3.58,3.58,0,0,1-.71-2.49V51.59Z"/><path d="M181.91,60.82V55a4.27,4.27,0,0,0-.18-1.42,1.28,1.28,0,0,0-.57-.72A2.38,2.38,0,0,0,180,52.6a2.16,2.16,0,0,0-1.75.76,3.2,3.2,0,0,0-.64,2.11v5.35H176.1V53.56c0-1.08,0-1.73,0-2h1.44a.88.88,0,0,1,0,.23v1.35h0a3.15,3.15,0,0,1,3-1.75,2.91,2.91,0,0,1,2.23.76,3.58,3.58,0,0,1,.7,2.49v6.15Z"/><path d="M191.94,59.33a2.73,2.73,0,0,1-1.15,1.27,3.63,3.63,0,0,1-1.71.39,2.94,2.94,0,0,1-2.57-1.18,6.09,6.09,0,0,1-.86-3.56c0-3.22,1.14-4.83,3.4-4.83a3.63,3.63,0,0,1,1.74.38A2.82,2.82,0,0,1,191.94,53h0V48.16h1.53V58.91c0,1,0,1.6.05,1.91h-1.46c0-.1,0-.31-.06-.64s0-.61,0-.85Zm-4.66-3.13a5.64,5.64,0,0,0,.51,2.77,1.82,1.82,0,0,0,1.66.83,2.1,2.1,0,0,0,1.92-.9,5.37,5.37,0,0,0,.57-2.81,4.93,4.93,0,0,0-.57-2.69,2.13,2.13,0,0,0-1.88-.85,1.81,1.81,0,0,0-1.68.86A5.71,5.71,0,0,0,187.28,56.2Z"/><path d="M197.35,56.51A3.92,3.92,0,0,0,198,59a2.29,2.29,0,0,0,1.92.88,2.81,2.81,0,0,0,1.6-.4,2,2,0,0,0,.82-1l1.34.39c-.57,1.45-1.8,2.18-3.76,2.18a3.91,3.91,0,0,1-3.12-1.23,5.36,5.36,0,0,1-1.06-3.62,5.13,5.13,0,0,1,1.06-3.5,3.88,3.88,0,0,1,3.06-1.22q4.06,0,4.07,4.9v.19Zm5-1.14a3.57,3.57,0,0,0-.74-2.13,2.3,2.3,0,0,0-1.77-.67,2.22,2.22,0,0,0-1.77.75,3.22,3.22,0,0,0-.7,2Z"/><path d="M212.06,59.33a2.66,2.66,0,0,1-1.14,1.27,3.65,3.65,0,0,1-1.75.39,2.94,2.94,0,0,1-2.57-1.18,6.27,6.27,0,0,1-.82-3.56q0-4.83,3.39-4.83a3.7,3.7,0,0,1,1.76.38A2.86,2.86,0,0,1,212.07,53h0V48.16h1.53V58.91c0,1,0,1.6.05,1.91h-1.46c0-.21-.05-.43-.06-.64s0-.61,0-.85ZM207.4,56.2a5.53,5.53,0,0,0,.52,2.77,1.8,1.8,0,0,0,1.66.83,2.07,2.07,0,0,0,1.89-.9,5.18,5.18,0,0,0,.57-2.81,4.78,4.78,0,0,0-.57-2.69,2.13,2.13,0,0,0-1.88-.85,1.8,1.8,0,0,0-1.67.86A5.59,5.59,0,0,0,207.4,56.2Z"/><path d="M229.3,56.16q0,4.83-3.39,4.83a3.54,3.54,0,0,1-1.75-.39A2.8,2.8,0,0,1,223,59.38h0q0,.27,0,.81a3.46,3.46,0,0,1-.05.63h-1.49c0-.31.05-1,.05-1.91V48.16H223v3.61c0,.37,0,.8,0,1.3h0a2.81,2.81,0,0,1,1.14-1.27,3.63,3.63,0,0,1,1.74-.38,2.89,2.89,0,0,1,2.57,1.18A6.31,6.31,0,0,1,229.3,56.16Zm-1.61.05a5.62,5.62,0,0,0-.51-2.77,1.81,1.81,0,0,0-1.67-.84,2.11,2.11,0,0,0-1.88.89,5.16,5.16,0,0,0-.57,2.81,4.93,4.93,0,0,0,.57,2.69,2.1,2.1,0,0,0,1.88.86,1.8,1.8,0,0,0,1.68-.86A5.65,5.65,0,0,0,227.69,56.21Z"/><path d="M232,64.44a6.32,6.32,0,0,1-1.06-.09V63.2a5.81,5.81,0,0,0,.72,0c1,0,1.71-.7,2.28-2.1l.15-.37-3.67-9.19h1.64l2,5.1a1.11,1.11,0,0,0,.1.29c0,.11.17.48.39,1.14s.33,1,.34,1.06l.58-1.68,2-5.88h1.62l-3.55,9.23A10.58,10.58,0,0,1,234.45,63a3.51,3.51,0,0,1-1.09,1.08A2.74,2.74,0,0,1,232,64.44Z"/><path d="M249.39,60.75a6.28,6.28,0,0,1-1.55.2c-1.23,0-1.85-.69-1.84-2.09V52.71h-1.07V51.56h1.14l.45-2.06h1v2.06h1.72v1.15h-1.72v5.82a1.59,1.59,0,0,0,.22.93.94.94,0,0,0,.76.27,4.43,4.43,0,0,0,.89-.12Z"/><path d="M252.57,53.17a3,3,0,0,1,3-1.75,2.93,2.93,0,0,1,2.21.74,3.55,3.55,0,0,1,.71,2.51v6.15H256.9V55a4.44,4.44,0,0,0-.18-1.45,1.25,1.25,0,0,0-.57-.69A2.38,2.38,0,0,0,255,52.6a2.18,2.18,0,0,0-1.71.76,3,3,0,0,0-.69,2v5.44h-1.54V48.16h1.54v4.37A4.2,4.2,0,0,1,252.57,53.17Z"/><path d="M262.28,56.51a4,4,0,0,0,.66,2.44,2.26,2.26,0,0,0,1.91.87,2.79,2.79,0,0,0,1.6-.4,2,2,0,0,0,.82-1l1.35.39c-.57,1.45-1.81,2.18-3.77,2.18a3.92,3.92,0,0,1-3.11-1.22,5.36,5.36,0,0,1-1.07-3.62,5.16,5.16,0,0,1,1.07-3.51,3.88,3.88,0,0,1,3.06-1.22c2.71,0,4.07,1.64,4.06,4.9v.21Zm5-1.14a3.65,3.65,0,0,0-.75-2.13,2.26,2.26,0,0,0-1.76-.67,2.22,2.22,0,0,0-1.77.75,3.17,3.17,0,0,0-.7,2Z"/><path d="M137.18,69.91a3.9,3.9,0,0,0-3.11,1.28,6.09,6.09,0,0,0,0,7.07,3.88,3.88,0,0,0,3.12,1.34A4.05,4.05,0,0,0,141,77.11l1.33.66a5.43,5.43,0,0,1-2.08,2.37,5.91,5.91,0,0,1-3.12.8,6.25,6.25,0,0,1-3.14-.75A5,5,0,0,1,132,78a7.31,7.31,0,0,1-.69-3.32,6.2,6.2,0,0,1,1.55-4.5,5.64,5.64,0,0,1,4.3-1.63,6.27,6.27,0,0,1,3.2.75,4.46,4.46,0,0,1,1.9,2.23l-1.55.51a3.17,3.17,0,0,0-1.3-1.61A4.31,4.31,0,0,0,137.18,69.91Z"/><path d="M144.6,80.78V73.69c0-.64,0-1.36,0-2.14H146c0,1,.07,1.67.07,1.88h0a3.62,3.62,0,0,1,.85-1.62,1.9,1.9,0,0,1,1.34-.43,2.15,2.15,0,0,1,.62.08v1.41a2.82,2.82,0,0,0-.82-.08,1.58,1.58,0,0,0-1.45.82,4.57,4.57,0,0,0-.51,2.35v4.82Z"/><path d="M151.9,76.5a4,4,0,0,0,.66,2.44,2.27,2.27,0,0,0,1.92.86,2.88,2.88,0,0,0,1.6-.39,2,2,0,0,0,.81-1l1.35.39c-.57,1.46-1.8,2.18-3.76,2.18a3.88,3.88,0,0,1-3.09-1.24,5.39,5.39,0,0,1-1.08-3.62,5.13,5.13,0,0,1,1.08-3.5,3.82,3.82,0,0,1,3-1.24c2.72,0,4.07,1.63,4.07,4.9v.24Zm5-1.18a3.57,3.57,0,0,0-.74-2.13,2.3,2.3,0,0,0-1.77-.69,2.19,2.19,0,0,0-1.76.75,3.18,3.18,0,0,0-.71,2Z"/><path d="M163.14,80.94a2.74,2.74,0,0,1-2.09-.73,2.87,2.87,0,0,1-.7-2,2.66,2.66,0,0,1,1-2.2,5,5,0,0,1,3-.82l2.07,0v-.51a2.28,2.28,0,0,0-.48-1.61,2,2,0,0,0-1.5-.48,2.48,2.48,0,0,0-1.5.35,1.56,1.56,0,0,0-.57,1.14l-1.6-.15q.39-2.54,3.71-2.54a3.73,3.73,0,0,1,2.61.8,3,3,0,0,1,.88,2.28v4a2.29,2.29,0,0,0,.18,1,.71.71,0,0,0,.68.35,3,3,0,0,0,.51-.07v1a5.3,5.3,0,0,1-1.19.14,1.55,1.55,0,0,1-1.24-.45,2.28,2.28,0,0,1-.44-1.4h-.05a3.36,3.36,0,0,1-3.27,1.93Zm.35-1.14a2.91,2.91,0,0,0,1.5-.38,2.86,2.86,0,0,0,1-1.06,2.68,2.68,0,0,0,.38-1.38v-.76l-1.68,0a5.14,5.14,0,0,0-1.65.23,1.67,1.67,0,0,0-.85.63,1.92,1.92,0,0,0-.3,1.14,1.59,1.59,0,0,0,.41,1.14,1.52,1.52,0,0,0,1.15.4Z"/><path d="M174.4,80.71a6.3,6.3,0,0,1-1.56.2c-1.22,0-1.84-.7-1.83-2.09V72.67h-1.07V71.52h1.14l.45-2.06h1v2.06h1.71v1.15h-1.71v5.82a1.53,1.53,0,0,0,.22.93.94.94,0,0,0,.76.27,4.43,4.43,0,0,0,.88-.12Z"/><path d="M176,69.59V68.12h1.54v1.47Zm0,11.19V71.55h1.54v9.23Z"/><path d="M184.33,80.78h-1.82l-3.35-9.23h1.64l2,6c.07.23.27.9.57,2l.3-1,.33-1,2.1-6h1.63Z"/><path d="M190.54,76.5a4,4,0,0,0,.65,2.44,2.28,2.28,0,0,0,1.92.86,2.88,2.88,0,0,0,1.6-.39,2,2,0,0,0,.82-1l1.34.38c-.57,1.46-1.8,2.18-3.76,2.18A3.93,3.93,0,0,1,190,79.74a5.37,5.37,0,0,1-1.06-3.63,5.13,5.13,0,0,1,1.06-3.5,3.87,3.87,0,0,1,3.09-1.25c2.71,0,4.06,1.63,4.07,4.9v.24Zm5-1.18a3.51,3.51,0,0,0-.74-2.13A2.28,2.28,0,0,0,193,72.5a2.2,2.2,0,0,0-1.77.75,3.18,3.18,0,0,0-.71,2Z"/><path d="M204.88,80.78v-12H214v1.33h-7.51V74h7v1.31h-7v4.19h7.84V80.8Z"/><path d="M218.12,71.55v5.84a4.27,4.27,0,0,0,.18,1.42,1.3,1.3,0,0,0,.57.73,2.5,2.5,0,0,0,1.14.22,2.16,2.16,0,0,0,1.75-.76,3.19,3.19,0,0,0,.64-2.11V71.55h1.54v7.23a19,19,0,0,0,.05,2h-1.44a.89.89,0,0,1,0-.23V79.17h0a3.25,3.25,0,0,1-1.22,1.35,3.43,3.43,0,0,1-1.72.4,2.89,2.89,0,0,1-2.22-.76,3.58,3.58,0,0,1-.7-2.49V71.55Z"/><path d="M226.72,80.78V73.69c0-.64,0-1.36-.05-2.14h1.45c0,1,.06,1.67.06,1.88h0a3.71,3.71,0,0,1,.84-1.62,1.9,1.9,0,0,1,1.34-.43,2.15,2.15,0,0,1,.62.08v1.41a2.82,2.82,0,0,0-.82-.08,1.61,1.61,0,0,0-1.46.82,4.56,4.56,0,0,0-.5,2.35v4.82Z"/><path d="M240.65,76.15a5.26,5.26,0,0,1-1.07,3.61,3.94,3.94,0,0,1-3.1,1.18,3.75,3.75,0,0,1-3-1.23,5.4,5.4,0,0,1-1-3.56q0-4.77,4.13-4.77a4,4,0,0,1,3.12,1.14A5.5,5.5,0,0,1,240.65,76.15Zm-1.61,0a5.27,5.27,0,0,0-.58-2.78,2.1,2.1,0,0,0-1.9-.87,2.22,2.22,0,0,0-1.95.88,5,5,0,0,0-.59,2.76,5.1,5.1,0,0,0,.57,2.74,2,2,0,0,0,1.89.93,2.23,2.23,0,0,0,2-.88A5.18,5.18,0,0,0,239,76.15Z"/><path d="M250.71,76.12q0,4.83-3.39,4.82a2.81,2.81,0,0,1-2.86-1.6h0a11.7,11.7,0,0,1,0,1.45V84.4h-1.53v-11c0-1,0-1.57,0-1.88h1.48v.24c0,.15,0,.36,0,.64s0,.49,0,.57h.09a2.85,2.85,0,0,1,1.08-1.25,3.51,3.51,0,0,1,1.77-.39,3,3,0,0,1,2.55,1.14A6.37,6.37,0,0,1,250.71,76.12Zm-1.61,0a5.42,5.42,0,0,0-.52-2.75,1.82,1.82,0,0,0-1.66-.83,2,2,0,0,0-2.21,1.58,6.9,6.9,0,0,0-.27,2.12A5,5,0,0,0,245,79a2.12,2.12,0,0,0,1.89.86,1.81,1.81,0,0,0,1.67-.84,5.6,5.6,0,0,0,.53-2.82Z"/><path d="M254.15,76.5a3.91,3.91,0,0,0,.65,2.44,2.24,2.24,0,0,0,1.92.86,2.88,2.88,0,0,0,1.6-.39,2,2,0,0,0,.81-1l1.34.39c-.57,1.46-1.81,2.18-3.76,2.18a3.88,3.88,0,0,1-3.09-1.24,5.29,5.29,0,0,1-1.07-3.62,5.07,5.07,0,0,1,1.07-3.5,3.8,3.8,0,0,1,3-1.24q4.06,0,4.07,4.9v.24Zm5-1.18a3.57,3.57,0,0,0-.74-2.13,2.28,2.28,0,0,0-1.76-.69,2.2,2.2,0,0,0-1.77.75,3.2,3.2,0,0,0-.68,2.06Z"/><path d="M277.78,72.37a3.5,3.5,0,0,1-1.14,2.72,4.35,4.35,0,0,1-3,1h-3.53v4.69h-1.63v-12h5.06a4.68,4.68,0,0,1,3.13,1A3.29,3.29,0,0,1,277.78,72.37Zm-1.63,0c0-1.55-.94-2.33-2.8-2.33h-3.24v4.74h3.31c1.82,0,2.73-.78,2.73-2.39Z"/><path d="M280.26,80.78V73.69c0-.64,0-1.36-.05-2.14h1.45c0,1,.07,1.67.07,1.88h0a3.83,3.83,0,0,1,.85-1.62,1.93,1.93,0,0,1,1.34-.43,2.15,2.15,0,0,1,.62.08v1.41a2.76,2.76,0,0,0-.81-.08,1.6,1.6,0,0,0-1.46.82,4.46,4.46,0,0,0-.5,2.35v4.82Z"/><path d="M294.2,76.15a5.26,5.26,0,0,1-1.07,3.61,3.94,3.94,0,0,1-3.1,1.18,3.75,3.75,0,0,1-3-1.23,5.4,5.4,0,0,1-1-3.56q0-4.77,4.14-4.77a3.93,3.93,0,0,1,3.11,1.14A5.45,5.45,0,0,1,294.2,76.15Zm-1.62,0a5.26,5.26,0,0,0-.57-2.78,2.11,2.11,0,0,0-1.9-.87,2.21,2.21,0,0,0-1.95.88,5,5,0,0,0-.57,2.76,5.1,5.1,0,0,0,.57,2.74,2.06,2.06,0,0,0,1.86.92,2.22,2.22,0,0,0,2-.89A5.09,5.09,0,0,0,292.58,76.15Z"/><path d="M300,84.4a4.33,4.33,0,0,1-2.41-.57,2.73,2.73,0,0,1-1.14-1.72l1.54-.21a1.63,1.63,0,0,0,.68,1,2.5,2.5,0,0,0,1.38.35c1.52,0,2.28-.9,2.28-2.69V79.05h0a3,3,0,0,1-1.19,1.34,3.54,3.54,0,0,1-1.78.45,2.85,2.85,0,0,1-2.49-1.14,6.28,6.28,0,0,1-.8-3.54,6.29,6.29,0,0,1,.86-3.61,3.06,3.06,0,0,1,2.61-1.15,3.22,3.22,0,0,1,1.71.45,3,3,0,0,1,1.14,1.27h0v-.88a3.94,3.94,0,0,1,.07-.69h1.46c0,.31-.05.94-.05,1.91v7Q303.82,84.4,300,84.4Zm2.34-8.24a5.33,5.33,0,0,0-.31-1.94,2.81,2.81,0,0,0-.87-1.25,2,2,0,0,0-1.26-.42,1.84,1.84,0,0,0-1.71.85,5.39,5.39,0,0,0-.54,2.76,5.64,5.64,0,0,0,.5,2.72,1.87,1.87,0,0,0,1.72.83,2.12,2.12,0,0,0,1.28-.43,2.74,2.74,0,0,0,.88-1.22A5.34,5.34,0,0,0,302.29,76.16Z"/><path d="M306.55,80.78V73.69c0-.64,0-1.36-.05-2.14H308c.05,1,.07,1.67.07,1.88h0a3.81,3.81,0,0,1,.84-1.62,1.94,1.94,0,0,1,1.35-.43,2.15,2.15,0,0,1,.62.08v1.41a2.79,2.79,0,0,0-.81-.08,1.57,1.57,0,0,0-1.46.82,4.46,4.46,0,0,0-.5,2.35v4.82Z"/><path d="M315,80.94a2.7,2.7,0,0,1-2.08-.73,2.83,2.83,0,0,1-.71-2,2.66,2.66,0,0,1,.95-2.2,5,5,0,0,1,3-.82l2.08,0v-.51a2.3,2.3,0,0,0-.48-1.61,2,2,0,0,0-1.5-.48,2.48,2.48,0,0,0-1.5.35,1.5,1.5,0,0,0-.57,1.14l-1.61-.15q.41-2.49,3.7-2.49a3.74,3.74,0,0,1,2.62.8,3,3,0,0,1,.88,2.28v4a2.29,2.29,0,0,0,.18,1,.69.69,0,0,0,.68.35,2.74,2.74,0,0,0,.5-.07v.92a5.15,5.15,0,0,1-1.18.14,1.57,1.57,0,0,1-1.24-.45,2.28,2.28,0,0,1-.44-1.4h0A3.34,3.34,0,0,1,315,80.94Zm.36-1.14a3,3,0,0,0,1.49-.38,2.78,2.78,0,0,0,1-1.06A2.89,2.89,0,0,0,318.3,77v-.76l-1.68,0a5,5,0,0,0-1.64.23,1.65,1.65,0,0,0-.86.63,1.92,1.92,0,0,0-.3,1.14,1.55,1.55,0,0,0,.41,1.14,1.53,1.53,0,0,0,1.16.4Z"/><path d="M328.12,80.78V74.92a3.48,3.48,0,0,0-.37-1.85,1.58,1.58,0,0,0-1.33-.51,1.85,1.85,0,0,0-1.55.75,3.53,3.53,0,0,0-.57,2.11v5.36h-1.52V73.52a17.76,17.76,0,0,0-.06-2h1.45a.88.88,0,0,1,0,.23v1.34h0a3.3,3.3,0,0,1,1.15-1.36,3.48,3.48,0,0,1,3.22,0,2.26,2.26,0,0,1,.84,1.33h0a3.27,3.27,0,0,1,1.14-1.33,3.06,3.06,0,0,1,1.64-.41,2.54,2.54,0,0,1,2,.75,3.94,3.94,0,0,1,.64,2.49v6.16h-1.52V74.92a3.3,3.3,0,0,0-.37-1.85,1.56,1.56,0,0,0-1.32-.51,1.86,1.86,0,0,0-1.57.75,3.51,3.51,0,0,0-.57,2.11v5.36Z"/><path d="M343,80.78V74.92a3.3,3.3,0,0,0-.37-1.85,1.56,1.56,0,0,0-1.32-.51,1.85,1.85,0,0,0-1.55.75,3.37,3.37,0,0,0-.57,2.11v5.36h-1.52V73.52a17.76,17.76,0,0,0-.06-2h1.45v1.57h0a3.28,3.28,0,0,1,1.14-1.36,3,3,0,0,1,1.57-.38,2.9,2.9,0,0,1,1.65.41,2.23,2.23,0,0,1,.85,1.33h0a3.22,3.22,0,0,1,1.15-1.33,3,3,0,0,1,1.64-.41,2.52,2.52,0,0,1,2,.75,3.94,3.94,0,0,1,.64,2.49v6.16h-1.52V74.92a3.3,3.3,0,0,0-.37-1.85,1.56,1.56,0,0,0-1.32-.51,1.81,1.81,0,0,0-1.56.75,3.51,3.51,0,0,0-.57,2.11v5.36Z"/><path d="M353.71,76.5a4,4,0,0,0,.66,2.44,2.23,2.23,0,0,0,1.92.86,2.9,2.9,0,0,0,1.6-.39,2.11,2.11,0,0,0,.81-1l1.35.38c-.56,1.45-1.81,2.18-3.76,2.18a3.94,3.94,0,0,1-3.12-1.22,5.34,5.34,0,0,1-1.07-3.62,5.17,5.17,0,0,1,1.07-3.5,3.83,3.83,0,0,1,3.05-1.24c2.72,0,4.07,1.63,4.07,4.9v.24Zm5-1.19a3.52,3.52,0,0,0-.75-2.13,2.53,2.53,0,0,0-3.52.07,3.22,3.22,0,0,0-.7,2Z"/><path d="M139.4,96.11a5.26,5.26,0,0,1-1.07,3.61,3.94,3.94,0,0,1-3.1,1.18,3.75,3.75,0,0,1-3-1.23,5.4,5.4,0,0,1-1-3.56q0-4.77,4.13-4.77a4,4,0,0,1,3.12,1.14A5.52,5.52,0,0,1,139.4,96.11Zm-1.62,0a5.26,5.26,0,0,0-.57-2.78,2.11,2.11,0,0,0-1.89-.84,2.21,2.21,0,0,0-1.95.88,5,5,0,0,0-.6,2.76,5.1,5.1,0,0,0,.57,2.74,2.06,2.06,0,0,0,1.86.92,2.22,2.22,0,0,0,2-.89,5,5,0,0,0,.61-2.79Z"/><path d="M143.56,92.62v8.11H142V92.62h-1.29V91.48H142v-1a2.51,2.51,0,0,1,.58-1.82,2.26,2.26,0,0,1,1.71-.57,4.94,4.94,0,0,1,1.08.1v1.14a3.91,3.91,0,0,0-.68-.06,1.05,1.05,0,0,0-.85.29,1.68,1.68,0,0,0-.27,1.09v.83h1.8v1.14Z"/><path d="M155.61,100.66a5.74,5.74,0,0,1-1.55.21c-1.23,0-1.84-.7-1.84-2.09V92.62h-1.07V91.48h1.15l.45-2.07h1v2.07h1.71v1.14h-1.71v5.83a1.53,1.53,0,0,0,.22.93.9.9,0,0,0,.75.27,4.43,4.43,0,0,0,.89-.12Z"/><path d="M158.81,93.06a3,3,0,0,1,2.93-1.71,3,3,0,0,1,2.22.74,3.62,3.62,0,0,1,.71,2.51v6.13h-1.55V94.88a4.13,4.13,0,0,0-.17-1.44,1.27,1.27,0,0,0-.57-.7,2.39,2.39,0,0,0-1.15-.22,2.2,2.2,0,0,0-1.71.75,3,3,0,0,0-.71,2v5.44h-1.53V88.07h1.53v4.35a4.2,4.2,0,0,1,0,.64Z"/><path d="M168.52,96.44a4,4,0,0,0,.66,2.45,2.3,2.3,0,0,0,1.92.86,2.83,2.83,0,0,0,1.6-.4,2,2,0,0,0,.81-1l1.35.38c-.57,1.46-1.8,2.18-3.76,2.18A3.92,3.92,0,0,1,168,99.68a5.36,5.36,0,0,1-1.07-3.62A5.11,5.11,0,0,1,168,92.55a3.85,3.85,0,0,1,3.07-1.2c2.72,0,4.07,1.63,4.07,4.9v.2Zm5-1.18a3.59,3.59,0,0,0-.74-2.13,2.33,2.33,0,0,0-1.79-.64,2.19,2.19,0,0,0-1.76.75,3.23,3.23,0,0,0-.71,2Z"/><path d="M182.84,100.73v-12H192v1.33H184.5v3.85h7v1.32h-7V99.4h7.83v1.33Z"/><path d="M196.09,91.51v5.84a4.27,4.27,0,0,0,.18,1.42,1.33,1.33,0,0,0,.57.73,2.47,2.47,0,0,0,1.14.22,2.18,2.18,0,0,0,1.75-.76,3.24,3.24,0,0,0,.64-2.11V91.51h1.53v7.26c0,1.07,0,1.73,0,2H200.5v-.66c0-.16,0-.46,0-.91h0a3.18,3.18,0,0,1-3,1.71,2.89,2.89,0,0,1-2.22-.76,3.58,3.58,0,0,1-.7-2.49V91.51Z"/><path d="M204.68,100.73v-7.1c0-.65,0-1.36-.05-2.15h1.45c0,1,.07,1.68.07,1.89h.06a3.81,3.81,0,0,1,.84-1.62,2,2,0,0,1,1.35-.44,2.16,2.16,0,0,1,.62.09v1.4a3.14,3.14,0,0,0-.81-.08,1.6,1.6,0,0,0-1.46.82,4.58,4.58,0,0,0-.54,2.38v4.8Z"/><path d="M218.62,96.11a5.26,5.26,0,0,1-1.07,3.61,3.94,3.94,0,0,1-3.1,1.18,3.75,3.75,0,0,1-3-1.23,5.46,5.46,0,0,1-1-3.56q0-4.77,4.14-4.77a3.93,3.93,0,0,1,3.11,1.14A5.45,5.45,0,0,1,218.62,96.11Zm-1.62,0a5.26,5.26,0,0,0-.57-2.78,2.1,2.1,0,0,0-1.9-.84,2.18,2.18,0,0,0-1.95.88,5,5,0,0,0-.57,2.76,5.1,5.1,0,0,0,.57,2.74,2.06,2.06,0,0,0,1.86.92,2.22,2.22,0,0,0,2-.89,5,5,0,0,0,.58-2.79Z"/><path d="M228.68,96.08c0,3.21-1.14,4.82-3.4,4.82a2.81,2.81,0,0,1-2.85-1.6h0a11.66,11.66,0,0,1,0,1.45v3.61h-1.53v-11a18.14,18.14,0,0,0-.06-1.88h1.49l0,.24a5.78,5.78,0,0,0,0,.64,2.51,2.51,0,0,1,0,.57h0a2.71,2.71,0,0,1,1.08-1.24,3.43,3.43,0,0,1,1.77-.4,3,3,0,0,1,2.55,1.14A6.1,6.1,0,0,1,228.68,96.08Zm-1.62,0a5.31,5.31,0,0,0-.51-2.75,1.82,1.82,0,0,0-1.66-.83,2,2,0,0,0-2.21,1.58,6.9,6.9,0,0,0-.27,2.12,4.89,4.89,0,0,0,.57,2.68,2.11,2.11,0,0,0,1.89.85,1.81,1.81,0,0,0,1.66-.83A5.5,5.5,0,0,0,227.06,96.11Z"/><path d="M232.11,96.44a4,4,0,0,0,.66,2.45,2.3,2.3,0,0,0,1.92.86,2.89,2.89,0,0,0,1.6-.4,2,2,0,0,0,.81-1l1.35.38c-.57,1.46-1.81,2.18-3.76,2.18a3.94,3.94,0,0,1-3.12-1.22,5.36,5.36,0,0,1-1.07-3.62,5.22,5.22,0,0,1,1.07-3.51,3.83,3.83,0,0,1,3.06-1.2c2.71,0,4.06,1.63,4.07,4.9v.2Zm5-1.18a3.59,3.59,0,0,0-.74-2.13,2.31,2.31,0,0,0-1.77-.64,2.22,2.22,0,0,0-1.77.75,3.22,3.22,0,0,0-.7,2.05Z"/><path d="M243.34,100.9a2.5,2.5,0,0,1-2.79-2.18,2.18,2.18,0,0,1,0-.57,2.7,2.7,0,0,1,1-2.19,4.91,4.91,0,0,1,3-.82l2.07,0v-.5a2.18,2.18,0,0,0-.48-1.61,2,2,0,0,0-1.5-.49,2.55,2.55,0,0,0-1.5.35,1.57,1.57,0,0,0-.57,1.15l-1.61-.15q.41-2.49,3.7-2.49a3.79,3.79,0,0,1,2.62.8,3,3,0,0,1,.88,2.28v4a2.29,2.29,0,0,0,.18,1,.7.7,0,0,0,.68.34,2.07,2.07,0,0,0,.5-.06v1a5.14,5.14,0,0,1-1.18.13,1.54,1.54,0,0,1-1.24-.44,2.29,2.29,0,0,1-.44-1.41h0a3.67,3.67,0,0,1-1.37,1.5A3.72,3.72,0,0,1,243.34,100.9Zm.34-1.14a3,3,0,0,0,1.51-.38A2.91,2.91,0,0,0,246.6,97v-.77l-1.71,0a5,5,0,0,0-1.64.23,1.69,1.69,0,0,0-.86.62,1.92,1.92,0,0,0-.29,1.15,1.54,1.54,0,0,0,.4,1.14,1.56,1.56,0,0,0,1.2.4Z"/><path d="M256.92,100.73V94.88a4.75,4.75,0,0,0-.18-1.41,1.26,1.26,0,0,0-.57-.73,2.37,2.37,0,0,0-1.14-.22,2.16,2.16,0,0,0-1.75.76,3.12,3.12,0,0,0-.64,2.1v5.35H251.1V93.48a18.85,18.85,0,0,0,0-2h1.42a.88.88,0,0,1,0,.23v1.34h0a3,3,0,0,1,2.94-1.74,2.88,2.88,0,0,1,2.22.75,3.6,3.6,0,0,1,.7,2.49v6.15Z"/><path d="M271.38,100.9a5.75,5.75,0,0,1-2.58-.54,4,4,0,0,1-1.71-1.55,4.76,4.76,0,0,1-.61-2.44V88.71h1.63v7.52a3.41,3.41,0,0,0,.83,2.5,3.27,3.27,0,0,0,2.42.85,3.12,3.12,0,0,0,3.43-2.77,4,4,0,0,0,0-.69V88.69h1.61v7.52a4.92,4.92,0,0,1-.61,2.52,4.06,4.06,0,0,1-1.75,1.61A6,6,0,0,1,271.38,100.9Z"/><path d="M285.14,100.73V94.88a4.17,4.17,0,0,0-.18-1.41,1.26,1.26,0,0,0-.57-.73,2.35,2.35,0,0,0-1.14-.22,2.18,2.18,0,0,0-1.75.76,3.18,3.18,0,0,0-.64,2.1v5.35h-1.55V93.48a18.85,18.85,0,0,0-.05-2h1.45a.88.88,0,0,1,0,.23v.42c0,.16,0,.47,0,.92h0a3,3,0,0,1,2.94-1.74,2.88,2.88,0,0,1,2.22.75,3.6,3.6,0,0,1,.7,2.49v6.15Z"/><path d="M289.34,89.54V88.07h1.53v1.47Zm0,11.19V91.51h1.53v9.22Z"/><path d="M301.38,96.11a5.26,5.26,0,0,1-1.07,3.61,3.94,3.94,0,0,1-3.1,1.18,3.75,3.75,0,0,1-3-1.23,5.4,5.4,0,0,1-1-3.56q0-4.77,4.13-4.77a3.93,3.93,0,0,1,3.12,1.14A5.52,5.52,0,0,1,301.38,96.11Zm-1.61,0a5.18,5.18,0,0,0-.58-2.78,2.1,2.1,0,0,0-1.9-.84,2.18,2.18,0,0,0-2,.88,5,5,0,0,0-.57,2.76,5.1,5.1,0,0,0,.57,2.74,2.06,2.06,0,0,0,1.86.92,2.22,2.22,0,0,0,2-.89A5.09,5.09,0,0,0,299.77,96.11Z"/><path d="M309.49,100.73V94.88a4.17,4.17,0,0,0-.18-1.41,1.23,1.23,0,0,0-.57-.73,2.35,2.35,0,0,0-1.14-.22,2.18,2.18,0,0,0-1.75.76,3.23,3.23,0,0,0-.64,2.1v5.35h-1.53V93.48c0-1.08,0-1.74-.05-2h1.45v.65c0,.16,0,.47,0,.92h0a3.38,3.38,0,0,1,1.22-1.35,3.42,3.42,0,0,1,1.72-.39,2.88,2.88,0,0,1,2.22.75,3.6,3.6,0,0,1,.7,2.49v6.15Z"/><path d="M32.75,45.34v59.33h87.34V45.34ZM118.41,103h-84V47h84Z"/><polygon points="74.63 59.17 76.4 57.88 78.17 59.17 77.5 57.08 79.3 55.78 77.08 55.78 76.4 53.67 75.72 55.79 73.5 55.78 75.3 57.08 74.63 59.17"/><polygon points="65.46 61.63 67.23 60.34 69 61.63 68.33 59.54 70.13 58.25 67.91 58.25 67.23 56.13 66.55 58.25 64.33 58.25 66.13 59.54 65.46 61.63"/><polygon points="60.52 62.85 59.84 64.98 57.62 64.97 59.42 66.27 58.75 68.36 60.52 67.06 62.29 68.36 61.62 66.27 63.42 64.97 61.2 64.97 60.52 62.85"/><polygon points="58.06 76.22 59.83 77.52 59.16 75.43 60.96 74.13 58.74 74.13 58.06 72.01 57.38 74.14 55.16 74.13 56.96 75.43 56.29 77.52 58.06 76.22"/><polygon points="61.2 83.32 60.52 81.2 59.84 83.32 57.62 83.32 59.42 84.61 58.75 86.7 60.52 85.41 62.29 86.7 61.62 84.61 63.42 83.32 61.2 83.32"/><polygon points="67.92 90.04 67.24 87.93 66.57 90.05 64.35 90.04 66.15 91.34 65.47 93.43 67.25 92.13 69.02 93.43 68.34 91.34 70.14 90.04 67.92 90.04"/><polygon points="77.08 92.48 76.4 90.36 75.72 92.48 73.51 92.48 75.31 93.77 74.63 95.86 76.4 94.57 78.17 95.86 77.5 93.77 79.3 92.48 77.08 92.48"/><polygon points="86.24 90.04 85.56 87.93 84.88 90.05 82.67 90.04 84.46 91.34 83.79 93.43 85.56 92.13 87.33 93.43 86.66 91.34 88.46 90.04 86.24 90.04"/><polygon points="92.97 83.32 92.29 81.2 91.61 83.32 89.39 83.32 91.19 84.61 90.51 86.7 92.29 85.41 94.06 86.7 93.38 84.61 95.18 83.32 92.97 83.32"/><polygon points="97.62 74.11 95.4 74.11 94.72 71.99 94.04 74.11 91.82 74.11 93.62 75.4 92.95 77.49 94.72 76.2 96.49 77.49 95.82 75.4 97.62 74.11"/><polygon points="90.51 68.33 92.29 67.04 94.06 68.33 93.38 66.24 95.18 64.95 92.97 64.95 92.29 62.83 91.61 64.95 89.39 64.95 91.19 66.24 90.51 68.33"/><polygon points="85.59 56.13 84.91 58.25 82.69 58.25 84.49 59.54 83.82 61.64 85.59 60.34 87.36 61.64 86.69 59.54 88.49 58.25 86.27 58.25 85.59 56.13"/></svg>