<svg id="Layer_1" data-name="Layer 1" xmlns="http://www.w3.org/2000/svg" viewBox="0 0 393.04 150.02"><defs><style>.cls-1{fill:#fff;}</style></defs><rect class="cls-1" width="393.04" height="150.02"/><path d="M301.35,91.07l-1.17.23a2.27,2.27,0,0,0,1.05,1.54,4.39,4.39,0,0,0,2.3.49,4,4,0,0,0,2.4-.61,2,2,0,0,0,.86-1.75,2.29,2.29,0,0,0-.15-.82,2,2,0,0,0-.42-.63,2.61,2.61,0,0,0-.74-.5,8.16,8.16,0,0,0-1.52-.49,10.8,10.8,0,0,1-1.47-.44,1.38,1.38,0,0,1-.52-.37.82.82,0,0,1-.18-.56.92.92,0,0,1,.43-.83,3.21,3.21,0,0,1,2.61,0,1.19,1.19,0,0,1,.59.82l1.21-.15a2.18,2.18,0,0,0-1-1.49,4.09,4.09,0,0,0-2.09-.47,3.91,3.91,0,0,0-2.28.57,1.94,1.94,0,0,0-.77,1.67,1.68,1.68,0,0,0,.27,1,2.39,2.39,0,0,0,.75.7,7.27,7.27,0,0,0,1.64.58l1,.25a2.6,2.6,0,0,1,1.05.49,1,1,0,0,1,.33.76A1,1,0,0,1,305,92a2.72,2.72,0,0,1-1.48.31,3.15,3.15,0,0,1-1.48-.3,1.47,1.47,0,0,1-.7-1m-8-2.64a2.79,2.79,0,0,1,.61-1.78,1.92,1.92,0,0,1,1.54-.65,2,2,0,0,1,1.53.58,3,3,0,0,1,.64,1.85Zm-.48-2.35a4.39,4.39,0,0,0-.93,3,4.63,4.63,0,0,0,.93,3.15,3.4,3.4,0,0,0,2.7,1q2.55,0,3.27-1.89l-1.18-.33A1.65,1.65,0,0,1,297,92a2.43,2.43,0,0,1-1.39.35,2,2,0,0,1-1.67-.74,3.57,3.57,0,0,1-.57-2.13h5.71v-.17c0-2.84-1.17-4.27-3.53-4.27a3.3,3.3,0,0,0-2.64,1.07m-4.59-.91h-1v1h.93v5.35c0,1.21.52,1.81,1.59,1.81a5.11,5.11,0,0,0,1.35-.18v-1a4,4,0,0,1-.77.1.79.79,0,0,1-.65-.23,1.29,1.29,0,0,1-.2-.81V86.14h1.48v-1H289.6v-1.8h-.88Zm-7.31,0h-1.35v5.37a3.11,3.11,0,0,0,.62,2.16,2.53,2.53,0,0,0,1.93.66A3,3,0,0,0,283.7,93a2.94,2.94,0,0,0,1.07-1.17h0V93a.67.67,0,0,0,0,.2H286c0-.21,0-.78,0-1.71v-6.3h-1.32v4.65a2.77,2.77,0,0,1-.56,1.82,1.86,1.86,0,0,1-1.51.7,2.08,2.08,0,0,1-1-.2,1.15,1.15,0,0,1-.5-.62,4.28,4.28,0,0,1-.15-1.23Zm-12.91,0h-1v1h.93v5.35c0,1.21.52,1.81,1.59,1.81a5.11,5.11,0,0,0,1.35-.18v-1a4.06,4.06,0,0,1-.77.1.81.81,0,0,1-.69-.23,1.22,1.22,0,0,1-.16-.79V86.14h1.48v-1h-1.48v-1.8h-.89Zm-18.61-2.42H248.1V93.15h1.39Zm-8-.55h-1.34v11h1.34ZM232.68,91a1.66,1.66,0,0,1,.25-1,1.52,1.52,0,0,1,.75-.55,4.55,4.55,0,0,1,1.42-.19h1.46V90A2.51,2.51,0,0,1,235.33,92a2.59,2.59,0,0,1-1.3.33,1.4,1.4,0,0,1-1-.36,1.35,1.35,0,0,1-.34-1m-1.4,0a2.53,2.53,0,0,0,.61,1.76,2.42,2.42,0,0,0,1.81.63,3.26,3.26,0,0,0,1.65-.38,3.31,3.31,0,0,0,1.19-1.3h0a2.15,2.15,0,0,0,.38,1.22,1.4,1.4,0,0,0,1.08.39,4,4,0,0,0,1-.13v-.89a2.12,2.12,0,0,1-.44,0,.59.59,0,0,1-.59-.3,2,2,0,0,1-.15-.89V87.74a2.54,2.54,0,0,0-.77-2,3.26,3.26,0,0,0-2.27-.7q-2.86,0-3.21,2.16l1.39.13a1.39,1.39,0,0,1,.49-1,2.2,2.2,0,0,1,1.3-.3,1.75,1.75,0,0,1,1.3.42,1.94,1.94,0,0,1,.42,1.39v.44h-1.8a4.37,4.37,0,0,0-2.63.7,2.27,2.27,0,0,0-.83,1.9M226,105.28a2.73,2.73,0,0,1,.61-1.78,1.91,1.91,0,0,1,1.53-.65,2,2,0,0,1,1.53.58,3.1,3.1,0,0,1,.65,1.85Zm-.49-2.36a4.46,4.46,0,0,0-.92,3,4.61,4.61,0,0,0,.92,3.14,3.4,3.4,0,0,0,2.71,1.06c1.7,0,2.78-.63,3.26-1.9l-1.17-.33a1.71,1.71,0,0,1-.69.88,2.35,2.35,0,0,1-1.39.35,2,2,0,0,1-1.67-.74,3.43,3.43,0,0,1-.57-2.13h5.71v-.14c0-2.85-1.17-4.27-3.53-4.26a3.35,3.35,0,0,0-2.65,1.06m-4.35-.91h-1.26c0,.7,0,1.3,0,1.86v6.15h1.33v-4.17a3.89,3.89,0,0,1,.44-2,1.41,1.41,0,0,1,1.27-.7,2.71,2.71,0,0,1,.69.08V102a2,2,0,0,0-.54-.08,1.67,1.67,0,0,0-1.17.38,3.11,3.11,0,0,0-.73,1.39h0c0-.18,0-.69-.06-1.63m-5.28-12.87a4.3,4.3,0,0,1,.53-2.4,1.91,1.91,0,0,1,1.69-.76,1.83,1.83,0,0,1,1.66.75,4.57,4.57,0,0,1,.49,2.41,4.39,4.39,0,0,1-.52,2.41,1.91,1.91,0,0,1-1.76.77,1.8,1.8,0,0,1-1.62-.8,4.37,4.37,0,0,1-.51-2.38m-.51,3.09a3.28,3.28,0,0,0,2.68,1,3.43,3.43,0,0,0,2.69-1,4.62,4.62,0,0,0,.93-3.13,4.72,4.72,0,0,0-.88-3.1,3.36,3.36,0,0,0-2.7-1q-3.59,0-3.59,4.17a4.62,4.62,0,0,0,.9,3.09m-2.58,9.79h-1.34v5.33a3.16,3.16,0,0,0,.61,2.17,2.53,2.53,0,0,0,1.93.66,2.62,2.62,0,0,0,2.6-1.54h0v1.37h1.26c0-.21,0-.78,0-1.71v-6.3h-1.29v4.64a2.76,2.76,0,0,1-.56,1.83,1.88,1.88,0,0,1-1.51.69,2,2,0,0,1-1-.19,1.12,1.12,0,0,1-.5-.63,3.92,3.92,0,0,1-.16-1.23Zm0-16.87h-1.34v8h1.34Zm-1.34-1.71h1.34V82.18h-1.34Zm-4,18.58h-1v1h.93v5.35c0,1.21.53,1.81,1.6,1.81a5.14,5.14,0,0,0,1.35-.21v-1a4.91,4.91,0,0,1-.77.09.76.76,0,0,1-.65-.23,1.27,1.27,0,0,1-.19-.81v-5h1.48v-1h-1.48v-1.8h-.89Zm0-16.87h-1v.94h.93v5.35c0,1.21.53,1.81,1.6,1.81a5.16,5.16,0,0,0,1.35-.18v-1a4.17,4.17,0,0,1-.78.1.79.79,0,0,1-.65-.23,1.35,1.35,0,0,1-.19-.81V86.14h1.48v-1h-1.48v-1.8h-.89Zm-2.22,13.9h-1.33v11h1.33Zm-4-6.74a1.38,1.38,0,0,1-1-.36,1.4,1.4,0,0,1-.35-1,1.6,1.6,0,0,1,.26-1,1.45,1.45,0,0,1,.74-.55,4.57,4.57,0,0,1,1.43-.19h1.45V90a2.47,2.47,0,0,1-1.23,2.08,2.64,2.64,0,0,1-1.3.33m-.27.9a3.26,3.26,0,0,0,1.65-.38,3.31,3.31,0,0,0,1.19-1.3h0a2.12,2.12,0,0,0,.38,1.22,1.4,1.4,0,0,0,1.08.39,4.46,4.46,0,0,0,1-.12v-.8a2.12,2.12,0,0,1-.44,0,.59.59,0,0,1-.59-.3,2,2,0,0,1-.15-.89V87.74a2.54,2.54,0,0,0-.77-2A3.26,3.26,0,0,0,202,85q-2.87,0-3.21,2.16l1.39.13a1.41,1.41,0,0,1,.49-1,2.2,2.2,0,0,1,1.3-.3,1.75,1.75,0,0,1,1.3.42,2,2,0,0,1,.42,1.39v.44h-1.8a4.42,4.42,0,0,0-2.64.7,2.29,2.29,0,0,0-.82,1.9,2.49,2.49,0,0,0,.61,1.75,2.34,2.34,0,0,0,1.81.63m-4.1,8.73h-1.34v5.33a3.14,3.14,0,0,0,.61,2.17,2.52,2.52,0,0,0,1.93.65,2.88,2.88,0,0,0,1.49-.35,3,3,0,0,0,1.07-1.16h0v1.16a.67.67,0,0,0,0,.2h1.25c0-.2,0-.77,0-1.71v-6.26h-1.33v4.64a2.82,2.82,0,0,1-.56,1.83,1.88,1.88,0,0,1-1.51.69,2,2,0,0,1-1-.19,1.12,1.12,0,0,1-.5-.63,3.92,3.92,0,0,1-.16-1.23ZM189.27,84.3l5.56,8.88h1.71V82.76h-1.26v6.83a20.47,20.47,0,0,0,.09,2.08l-5.64-8.93h-1.65V93.16h1.26v-7l0-1.24Zm-3.67,16.58a5.43,5.43,0,0,0-1.35,3.92,6.37,6.37,0,0,0,.6,2.88,4.28,4.28,0,0,0,1.75,1.87,5.43,5.43,0,0,0,2.73.66,5.12,5.12,0,0,0,2.7-.7,4.77,4.77,0,0,0,1.82-2.08l-1.16-.58A3.54,3.54,0,0,1,189.4,109a3.41,3.41,0,0,1-2.74-1.12,5.26,5.26,0,0,1,0-6.14,3.35,3.35,0,0,1,2.69-1.11,3.65,3.65,0,0,1,1.91.48,2.78,2.78,0,0,1,1.16,1.39l1.34-.45a3.83,3.83,0,0,0-1.64-1.93,5.38,5.38,0,0,0-2.78-.65,4.87,4.87,0,0,0-3.72,1.39m-9.12,1.17H175.2c0,.69.05,1.29.05,1.86v6.14h1.33v-4.17a3.91,3.91,0,0,1,.44-2,1.4,1.4,0,0,1,1.26-.7,3.27,3.27,0,0,1,.7.08V102a2,2,0,0,0-.54-.08,1.64,1.64,0,0,0-1.17.38,3.11,3.11,0,0,0-.7,1.39h0c0-.18,0-.69-.06-1.63m-3.1-10.53a3.43,3.43,0,0,0,1.48,1.39,5.74,5.74,0,0,0,4.55,0,3.58,3.58,0,0,0,1.52-1.39,4.28,4.28,0,0,0,.53-2.19V82.76h-1.39v6.42a2.7,2.7,0,0,1-2.36,3,3.11,3.11,0,0,1-.61,0,2.72,2.72,0,0,1-2.08-.74,2.9,2.9,0,0,1-.73-2.16V82.76H172.9v6.63a3.92,3.92,0,0,0,.53,2.09M167.86,106a4.3,4.3,0,0,1,.53-2.4,1.88,1.88,0,0,1,1.68-.76,1.83,1.83,0,0,1,1.66.75,4.57,4.57,0,0,1,.49,2.41,4.47,4.47,0,0,1-.51,2.41,1.93,1.93,0,0,1-1.73.79,1.79,1.79,0,0,1-1.62-.79,4.49,4.49,0,0,1-.52-2.38m-1.39,0a4.75,4.75,0,0,0,.89,3.09,3.31,3.31,0,0,0,2.66,1.07,3.44,3.44,0,0,0,2.68-1,4.64,4.64,0,0,0,.93-3.13,4.74,4.74,0,0,0-.87-3.14,3.36,3.36,0,0,0-2.7-1q-3.58,0-3.59,4.17m-78.4-11.8c.14-.18.26-.37.41-.55,1.1-1.39,2.21-2.78,3.33-4.1a1.53,1.53,0,0,0,.41-1.12v-2c0-.83,0-.83.77-1,.94-.25,1.86-.51,2.79-.7a2.2,2.2,0,0,0,1.1-.64c1.24-1.26,2.49-2.49,3.74-3.74l.51-.47.14.08-1.48,4.17,2.88.32c-.27.25-.4.4-.56.52-1.43,1.17-2.85,2.33-4.28,3.48a3.75,3.75,0,0,0-1,1.15c-.69,1.2-1.39,2.38-2.08,3.57-.12.21-.25.4-.44.69L92.68,91.8l-4.52,2.61-.11-.14m8.18,12.32c.2-.26.38-.53.59-.78,1.58-2,3.15-3.92,4.75-5.86a2.17,2.17,0,0,0,.59-1.57c0-1,0-1.94,0-2.9,0-1.18,0-1.18,1.1-1.47,1.32-.35,2.64-.7,4-1a3.1,3.1,0,0,0,1.56-.91c1.76-1.8,3.56-3.56,5.34-5.33.23-.24.49-.46.73-.7l.2.11c-.7,2-1.39,3.89-2.12,5.91l4.11.44c-.39.37-.58.58-.8.76-2,1.66-4.06,3.31-6.11,4.94a5.44,5.44,0,0,0-1.39,1.63c-1,1.71-2,3.41-3,5.1-.17.29-.35.57-.62,1-.79-1-1.52-2-2.31-3l-6.51,3.85-.15-.19m21.62-57.81c-.39.64-.76,1.29-1.13,1.94-.07.12-.15.23-.26.42L115.58,50l-2.45,1.45-.06-.06a2.53,2.53,0,0,1,.18-.27c.6-.75,1.2-1.49,1.81-2.23a.9.9,0,0,0,.23-.64V46.69l1-.27a5.18,5.18,0,0,0,1.27-.39,4.47,4.47,0,0,0,.91-.83l1.39-1.39a1.08,1.08,0,0,1,.32-.24c-.19.77-.52,1.48-.76,2.27L121,46l-.4.35c-.75.61-1.51,1.21-2.26,1.84a2.11,2.11,0,0,0-.48.55m5.29,47.44c.25-.34.5-.69.77-1,2.08-2.59,4.17-5.19,6.25-7.75a2.86,2.86,0,0,0,.78-2.08c-.06-1.27,0-2.55,0-3.83,0-1.56,0-1.56,1.45-1.94,1.76-.47,3.47-1,5.28-1.39a4.21,4.21,0,0,0,2.08-1.2c2.34-2.37,4.71-4.71,7.07-7.06.31-.3.64-.6,1-.89l.26.14L145.27,77l5.43.59c-.5.48-.76.77-1.06,1q-4,3.29-8.08,6.51a7.17,7.17,0,0,0-1.83,2.16c-1.28,2.26-2.6,4.5-3.9,6.75-.23.39-.47.75-.82,1.31l-3.06-4-8.61,5.08-.2-.24M109.43,56.78l2.09.24-.52.46c-1,.79-2,1.59-3,2.41a2.94,2.94,0,0,0-.63.73c-.51.84-1,1.69-1.48,2.54-.09.16-.2.32-.34.56l-1.16-1.51-3.26,1.9-.07-.09c.07-.12.15-.24.23-.35.8-1,1.58-2,2.38-2.93a1.25,1.25,0,0,0,.33-.8c0-.66,0-1.31,0-2l1.27-.38a7.64,7.64,0,0,0,1.63-.48,6.12,6.12,0,0,0,1.2-1.13L110,54.12a1.57,1.57,0,0,1,.41-.32c-.24,1-.69,2-1,3m-10.55,14c.87-.89,1.77-1.78,2.66-2.67l.37-.33.09.06c-.34,1-.69,1.94-1,2.94l2,.23c-.2.18-.29.29-.41.38-1,.82-2,1.65-3,2.47a2.57,2.57,0,0,0-.69.81c-.48.85-1,1.7-1.48,2.55-.08.15-.18.28-.3.49-.41-.51-.77-1-1.16-1.5l-3.26,1.93-.07-.1.29-.39c.79-1,1.58-2,2.38-2.93a1.11,1.11,0,0,0,.29-.78V72.48c0-.59,0-.59.55-.73s1.33-.37,2-.53a1.65,1.65,0,0,0,.79-.45m-14.37,39.3h69.79V40.28H84.48Zm78.44-8h-1.13v1h1.13v7h1.33v-7h1.56v-1h-1.56v-.69a1.49,1.49,0,0,1,.23-.94,1,1,0,0,1,.74-.26,3,3,0,0,1,.59.06v-1a5,5,0,0,0-.94-.08,2,2,0,0,0-1.48.48,2.14,2.14,0,0,0-.47,1.58Zm7.81-19.29h-7.91V93.18H171V92h-6.8V88.39h6.05V87.25h-6.05V83.91h6.5Zm-7.84-9.38h27V68H169.82V59.3h17.67V53.94H169.82V45.6h19.11V40.27h-26Zm60.69-12.75V40.27h-7V60.2a8.74,8.74,0,0,1-2,6.1,7.45,7.45,0,0,1-5.72,2.12,7,7,0,0,1-5.48-2c-1.24-1.34-1.87-3.34-1.87-6V40.27h-6.95V61q0,6.21,3.63,9.54t10.51,3.33q7.05,0,10.94-3.48t3.88-9.73m4.79,32.55h1.34V87.84a3.16,3.16,0,0,0-.65-2.19,2.55,2.55,0,0,0-1.93-.69,2.62,2.62,0,0,0-2.56,1.52h0V85.31a.67.67,0,0,0,0-.2h-1.26c0,.21.05.78.05,1.71v6.3h1.33V88.54a2.79,2.79,0,0,1,.55-1.83,1.89,1.89,0,0,1,1.52-.69,2,2,0,0,1,1,.19,1.12,1.12,0,0,1,.5.63,3.65,3.65,0,0,1,.15,1.23Zm21.54-19.8h8.14V40.27h-6.16V59.51a56.07,56.07,0,0,0,.42,6.47L237.66,40.27h-7.9V73.38h6.15V53.85a54.27,54.27,0,0,0-.42-6ZM257,93.18h1.34V87.84a3.1,3.1,0,0,0-.61-2.16A2.54,2.54,0,0,0,255.8,85a2.64,2.64,0,0,0-2.56,1.52h0V85.34a.67.67,0,0,0,0-.2H252c0,.21.05.78.05,1.71v6.3h1.33V88.54a2.75,2.75,0,0,1,.56-1.83,1.88,1.88,0,0,1,1.51-.69,2.13,2.13,0,0,1,1,.19,1.12,1.12,0,0,1,.5.63,3.92,3.92,0,0,1,.16,1.23Zm8.21-7.66a4.14,4.14,0,0,0-2.09-.47,3.86,3.86,0,0,0-2.27.57,1.93,1.93,0,0,0-.78,1.67,1.77,1.77,0,0,0,.27,1,2.39,2.39,0,0,0,.76.69,6.74,6.74,0,0,0,1.63.58l.95.25a2.58,2.58,0,0,1,1.06.49,1,1,0,0,1,.32.77,1.05,1.05,0,0,1-.47.94,2.71,2.71,0,0,1-1.48.3,2.92,2.92,0,0,1-1.48-.3,1.43,1.43,0,0,1-.7-.94l-1.17.23a2.27,2.27,0,0,0,1.05,1.54,4.39,4.39,0,0,0,2.31.46,4.07,4.07,0,0,0,2.4-.61,2.23,2.23,0,0,0,.69-2.57,1.85,1.85,0,0,0-.41-.63,3.11,3.11,0,0,0-.74-.5,8.16,8.16,0,0,0-1.52-.49,10.75,10.75,0,0,1-1.47-.43,1.4,1.4,0,0,1-.52-.38.82.82,0,0,1-.18-.56.92.92,0,0,1,.43-.83,3.18,3.18,0,0,1,2.63,0,1.19,1.19,0,0,1,.59.82l1.2-.15a2.07,2.07,0,0,0-1-1.46M265,73.38h6.95V40.27H265Zm7.14,10.09h1.33V82.18h-1.33Zm0,9.73h1.33v-8h-1.33Zm6.3-8h-1.48v-1.8H276l-.39,1.8h-1v1h1v5.35c0,1.21.54,1.81,1.6,1.81a5.11,5.11,0,0,0,1.35-.18v-1a4,4,0,0,1-.77.1.81.81,0,0,1-.66-.23,1.35,1.35,0,0,1-.18-.81V86.14h1.44Zm23.64-34.52L308.16,49A12.47,12.47,0,0,0,303,42.11a17.58,17.58,0,0,0-9.51-2.33q-8,0-12.2,4.37t-4.2,12.51q0,8.13,4.36,12.66t12.34,4.52a16.79,16.79,0,0,0,9-2.34,14.46,14.46,0,0,0,5.72-7.13l-6-2.28q-2.44,6.3-8.72,6.3a8.88,8.88,0,0,1-7.22-3c-1.67-2-2.5-4.91-2.5-8.73s.81-6.58,2.43-8.53,4-2.91,7.13-2.91A9.66,9.66,0,0,1,299,46.73a7.14,7.14,0,0,1,3.06,3.93"/></svg>