<svg id="Layer_1" data-name="Layer 1" xmlns="http://www.w3.org/2000/svg" viewBox="0 0 224.08 70.46"><path d="M216.87,51.29l-1.17.23a2.27,2.27,0,0,0,1.05,1.54,4.37,4.37,0,0,0,2.3.49,4.05,4.05,0,0,0,2.4-.61,2.05,2.05,0,0,0,.86-1.75,2.29,2.29,0,0,0-.15-.82,2,2,0,0,0-.42-.63,2.61,2.61,0,0,0-.74-.5,8.16,8.16,0,0,0-1.52-.49,10.75,10.75,0,0,1-1.47-.43,1.52,1.52,0,0,1-.52-.38.82.82,0,0,1-.18-.56.92.92,0,0,1,.43-.83,3.25,3.25,0,0,1,2.61,0,1.22,1.22,0,0,1,.59.82l1.21-.14a2.17,2.17,0,0,0-1-1.5,4,4,0,0,0-2.09-.46,3.74,3.74,0,0,0-2.28.57,2,2,0,0,0-.78,1.66,1.74,1.74,0,0,0,.28,1,2.19,2.19,0,0,0,.75.7,7.27,7.27,0,0,0,1.64.58l1,.25a2.6,2.6,0,0,1,1,.49,1,1,0,0,1,.33.76,1,1,0,0,1-.48.94,2.72,2.72,0,0,1-1.48.31,3.15,3.15,0,0,1-1.48-.3,1.44,1.44,0,0,1-.7-1m-8-2.64a2.79,2.79,0,0,1,.61-1.78,1.94,1.94,0,0,1,1.53-.65,2,2,0,0,1,1.54.58,3.09,3.09,0,0,1,.64,1.85Zm-.48-2.35a4.39,4.39,0,0,0-.93,3,4.57,4.57,0,0,0,.93,3.15,3.4,3.4,0,0,0,2.7,1q2.55,0,3.27-1.89l-1.18-.33a1.65,1.65,0,0,1-.69.87,2.35,2.35,0,0,1-1.39.35,2,2,0,0,1-1.67-.74,3.43,3.43,0,0,1-.57-2.13h5.71v-.17c0-2.84-1.17-4.26-3.53-4.26a3.33,3.33,0,0,0-2.65,1.06m-4.58-.91h-1v1h.93v5.35c0,1.21.52,1.81,1.59,1.81a5.11,5.11,0,0,0,1.35-.18v-1a4.92,4.92,0,0,1-.77.11.83.83,0,0,1-.65-.24,1.22,1.22,0,0,1-.2-.81V46.36h1.48v-1h-1.48V43.6h-.88Zm-7.31,0h-1.35v5.37a3.15,3.15,0,0,0,.61,2.16,2.57,2.57,0,0,0,1.94.66A2.57,2.57,0,0,0,200.28,52h0v1.37h1.26c0-.21,0-.78,0-1.71V45.4h-1.32v4.65a2.77,2.77,0,0,1-.56,1.82,1.86,1.86,0,0,1-1.51.7,2.07,2.07,0,0,1-1-.19,1.16,1.16,0,0,1-.5-.63,4.23,4.23,0,0,1-.15-1.23Zm-12.91,0h-1v1h.92v5.35c0,1.21.53,1.81,1.6,1.81a5,5,0,0,0,1.34-.18v-1a3.87,3.87,0,0,1-.76.11.83.83,0,0,1-.69-.24,1.22,1.22,0,0,1-.16-.79V46.36h1.48v-1H184.9V43.6H184ZM165,43h-1.39V53.38H165Zm-8-.55h-1.34v11H157Zm-8.78,8.79a1.75,1.75,0,0,1,.26-1,1.65,1.65,0,0,1,.75-.55,4.55,4.55,0,0,1,1.42-.19h1.46v.7a2.51,2.51,0,0,1-1.23,2.08,2.59,2.59,0,0,1-1.3.33,1.22,1.22,0,0,1-1.36-1.35m-1.39,0a2.44,2.44,0,0,0,.61,1.75,2.42,2.42,0,0,0,1.81.63,3.26,3.26,0,0,0,1.65-.38,3.31,3.31,0,0,0,1.19-1.3h0a2.12,2.12,0,0,0,.38,1.22,1.4,1.4,0,0,0,1.08.39,4.46,4.46,0,0,0,1-.12v-.9a2.12,2.12,0,0,1-.44,0,.6.6,0,0,1-.59-.29,2,2,0,0,1-.15-.9V48a2.54,2.54,0,0,0-.77-2,3.31,3.31,0,0,0-2.27-.7c-1.91,0-3,.73-3.21,2.17l1.39.12a1.35,1.35,0,0,1,.49-1,2.13,2.13,0,0,1,1.3-.31,1.76,1.76,0,0,1,1.3.42,2,2,0,0,1,.42,1.39v.44h-1.8a4.42,4.42,0,0,0-2.64.7,2.29,2.29,0,0,0-.82,1.9M141.47,65.5a2.73,2.73,0,0,1,.61-1.78,1.94,1.94,0,0,1,1.53-.65,2,2,0,0,1,1.53.58,3.1,3.1,0,0,1,.65,1.85ZM141,63.14a4.52,4.52,0,0,0-.93,3,4.71,4.71,0,0,0,.93,3.15,3.43,3.43,0,0,0,2.71,1c1.7,0,2.78-.63,3.26-1.9l-1.17-.33a1.68,1.68,0,0,1-.69.88,2.37,2.37,0,0,1-1.39.35,2,2,0,0,1-1.67-.74,3.43,3.43,0,0,1-.57-2.13h5.71v-.14c0-2.84-1.17-4.26-3.53-4.26A3.35,3.35,0,0,0,141,63.18m-4.36-.91h-1.25c0,.7,0,1.3,0,1.87v6.14h1.33V66.11a3.91,3.91,0,0,1,.44-2,1.41,1.41,0,0,1,1.27-.7,2.71,2.71,0,0,1,.69.08V62.2a2,2,0,0,0-.54-.08,1.67,1.67,0,0,0-1.17.38,3.29,3.29,0,0,0-.74,1.39h0c0-.18,0-.69,0-1.63m-5.28-12.87a4.32,4.32,0,0,1,.52-2.39,2,2,0,0,1,1.7-.77,1.82,1.82,0,0,1,1.65.75,4.49,4.49,0,0,1,.5,2.41,4.39,4.39,0,0,1-.52,2.41,1.91,1.91,0,0,1-1.76.77,1.8,1.8,0,0,1-1.62-.8,4.47,4.47,0,0,1-.52-2.38m-.5,3.09a3.26,3.26,0,0,0,2.68,1,3.43,3.43,0,0,0,2.69-1,4.54,4.54,0,0,0,.92-3.12,4.66,4.66,0,0,0-.87-3.11,3.36,3.36,0,0,0-2.7-1q-3.58,0-3.59,4.17a4.66,4.66,0,0,0,.89,3.09m-2.57,9.79h-1.34v5.34a3.15,3.15,0,0,0,.61,2.16,2.53,2.53,0,0,0,1.93.66,2.61,2.61,0,0,0,2.6-1.54h0v1.37h1.26c0-.21-.05-.78-.05-1.71v-6.3H132v4.64a2.75,2.75,0,0,1-.56,1.83,1.88,1.88,0,0,1-1.51.69,2,2,0,0,1-1-.19,1.08,1.08,0,0,1-.5-.63,3.92,3.92,0,0,1-.16-1.23Zm0-16.87h-1.34v8h1.34Zm-1.34-1.71h1.34V42.4h-1.34Zm-4,18.58h-1v1h.93V68.6c0,1.21.53,1.81,1.6,1.81a5.14,5.14,0,0,0,1.35-.21v-1a4.91,4.91,0,0,1-.77.1.82.82,0,0,1-.65-.23,1.32,1.32,0,0,1-.19-.82v-5h1.48v-1H124.2v-1.8h-.89Zm0-16.87h-1v.94h.93v5.35c0,1.21.53,1.81,1.6,1.81a5.16,5.16,0,0,0,1.35-.18v-1a4.19,4.19,0,0,1-.78.11.83.83,0,0,1-.65-.24,1.34,1.34,0,0,1-.19-.81V46.36h1.48v-1h-1.48V43.6h-.89Zm-2.22,13.9h-1.33v11h1.33Zm-4-6.74a1.38,1.38,0,0,1-1-.36,1.4,1.4,0,0,1-.35-1,1.6,1.6,0,0,1,.26-1,1.45,1.45,0,0,1,.74-.55,4.55,4.55,0,0,1,1.42-.19h1.46v.7a2.47,2.47,0,0,1-1.23,2.08,2.54,2.54,0,0,1-1.3.33m-.27.9a3.26,3.26,0,0,0,1.65-.38,3.18,3.18,0,0,0,1.19-1.3h0a2.1,2.1,0,0,0,.38,1.22,1.4,1.4,0,0,0,1.08.39,4.46,4.46,0,0,0,1-.12v-.8a2.12,2.12,0,0,1-.44,0,.6.6,0,0,1-.59-.29,2,2,0,0,1-.15-.9V48a2.54,2.54,0,0,0-.77-2,3.31,3.31,0,0,0-2.27-.7c-1.91,0-3,.73-3.21,2.17l1.39.12a1.39,1.39,0,0,1,.49-1,2.13,2.13,0,0,1,1.3-.31,1.76,1.76,0,0,1,1.3.42,2,2,0,0,1,.42,1.39v.44h-1.8a4.42,4.42,0,0,0-2.64.7,2.29,2.29,0,0,0-.82,1.9,2.44,2.44,0,0,0,.61,1.75,2.39,2.39,0,0,0,1.81.64m-4.11,8.72h-1.33v5.33a3.19,3.19,0,0,0,.6,2.17,2.52,2.52,0,0,0,1.94.65A2.88,2.88,0,0,0,115,70,2.92,2.92,0,0,0,116,68.88h0V70a.74.74,0,0,0,0,.21h1.25c0-.21,0-.78,0-1.71V62.27h-1.33v4.64a2.8,2.8,0,0,1-.56,1.83,1.88,1.88,0,0,1-1.51.69,2.07,2.07,0,0,1-1-.19,1.11,1.11,0,0,1-.49-.63,3.92,3.92,0,0,1-.16-1.23Zm-7.47-17.72,5.56,8.88h1.71V43H110.8v6.83a20.75,20.75,0,0,0,.09,2.09L105.25,43H103.6V53.38h1.26v-7l0-1.23Zm-3.67,16.59A5.39,5.39,0,0,0,99.77,65a6.37,6.37,0,0,0,.6,2.88,4.28,4.28,0,0,0,1.75,1.87,5.43,5.43,0,0,0,2.73.66,5.12,5.12,0,0,0,2.7-.7,4.77,4.77,0,0,0,1.82-2.08l-1.16-.58a3.53,3.53,0,0,1-3.29,2.17,3.38,3.38,0,0,1-2.74-1.12,5.26,5.26,0,0,1,0-6.14,3.35,3.35,0,0,1,2.69-1.11,3.65,3.65,0,0,1,1.91.48,2.78,2.78,0,0,1,1.16,1.39l1.34-.45a3.83,3.83,0,0,0-1.64-1.93,5.48,5.48,0,0,0-2.78-.65,4.94,4.94,0,0,0-3.73,1.39M92,62.27H90.72c0,.69,0,1.3,0,1.86v6.14H92.1V66.1a3.93,3.93,0,0,1,.44-2,1.39,1.39,0,0,1,1.26-.7,3.27,3.27,0,0,1,.7.08V62.2a2,2,0,0,0-.54-.08,1.64,1.64,0,0,0-1.17.38,3.11,3.11,0,0,0-.7,1.39h0c0-.18,0-.69-.06-1.63M88.9,51.73a3.43,3.43,0,0,0,1.48,1.39,5.74,5.74,0,0,0,4.55,0,3.5,3.5,0,0,0,1.51-1.39A4.18,4.18,0,0,0,97,49.53V43H95.59V49.4a2.7,2.7,0,0,1-2.36,3,2.49,2.49,0,0,1-.61,0,2.74,2.74,0,0,1-2.08-.73,2.94,2.94,0,0,1-.73-2.17V43H88.42v6.64a4,4,0,0,0,.52,2.08M83.38,66.24a4.38,4.38,0,0,1,.52-2.4,1.93,1.93,0,0,1,1.69-.76,1.83,1.83,0,0,1,1.66.75,4.57,4.57,0,0,1,.49,2.41,4.47,4.47,0,0,1-.51,2.41,1.93,1.93,0,0,1-1.73.79,1.78,1.78,0,0,1-1.62-.79,4.47,4.47,0,0,1-.52-2.38m-1.39,0a4.75,4.75,0,0,0,.89,3.09,3.28,3.28,0,0,0,2.66,1.07,3.41,3.41,0,0,0,2.68-1,4.62,4.62,0,0,0,.93-3.13,4.73,4.73,0,0,0-.87-3.13,3.36,3.36,0,0,0-2.7-1Q82,62.12,82,66.29M3.57,54.5A5.61,5.61,0,0,1,4,54c1.1-1.39,2.21-2.78,3.33-4.11a1.52,1.52,0,0,0,.41-1.11v-2c0-.82,0-.82.77-1,.94-.25,1.86-.51,2.78-.7a2.19,2.19,0,0,0,1.11-.64c1.24-1.25,2.49-2.49,3.74-3.74l.51-.47.14.08-1.48,4.17,2.88.32c-.27.25-.4.4-.56.53-1.43,1.16-2.85,2.32-4.29,3.47a3.86,3.86,0,0,0-1,1.15c-.69,1.2-1.39,2.38-2.08,3.57-.12.21-.25.4-.44.7L8.2,52,3.68,54.63l-.11-.13m8.18,12.31c.2-.25.38-.53.59-.78,1.58-2,3.15-3.92,4.75-5.86a2.17,2.17,0,0,0,.59-1.57c-.05-1,0-1.94,0-2.9,0-1.18,0-1.18,1.09-1.47l4-1a3.13,3.13,0,0,0,1.57-.91c1.76-1.8,3.56-3.56,5.34-5.33.23-.24.49-.46.73-.7l.2.11c-.7,2-1.39,3.9-2.12,5.91l4.11.45c-.39.36-.58.57-.8.75-2,1.66-4.06,3.31-6.11,4.94A5.44,5.44,0,0,0,24.29,60c-1,1.71-2,3.41-2.95,5.1-.17.3-.36.57-.62,1-.79-1-1.52-2-2.31-3L11.9,67l-.15-.19M33.36,9c-.38.64-.75,1.29-1.12,1.94-.07.12-.15.24-.27.42l-.87-1.15-2.46,1.45-.05-.06a2.53,2.53,0,0,1,.18-.27c.6-.74,1.2-1.49,1.81-2.23a.9.9,0,0,0,.23-.64V6.92l1-.27a5.65,5.65,0,0,0,1.27-.39A4.83,4.83,0,0,0,34,5.42L35.38,4a1.08,1.08,0,0,1,.32-.24c-.19.77-.52,1.49-.76,2.27l1.57.2-.4.34c-.75.62-1.52,1.21-2.26,1.84a2.29,2.29,0,0,0-.48.55m5.29,47.44c.25-.34.49-.69.77-1,2.08-2.59,4.17-5.19,6.25-7.74a2.9,2.9,0,0,0,.78-2.09c-.06-1.27,0-2.55,0-3.83,0-1.56,0-1.56,1.45-1.94,1.75-.47,3.47-1,5.28-1.39a4.14,4.14,0,0,0,2.08-1.2c2.34-2.37,4.71-4.71,7.07-7.06.31-.3.64-.59,1-.89l.26.14-2.78,7.82,5.42.59c-.5.48-.75.77-1,1q-4,3.28-8.08,6.51a7.09,7.09,0,0,0-1.83,2.17c-1.28,2.25-2.6,4.49-3.9,6.74-.23.39-.47.76-.82,1.31l-3.06-4-8.61,5.08-.2-.24M25,17l2.09.24-.52.46c-1,.8-2,1.59-3,2.41a2.94,2.94,0,0,0-.63.73c-.51.84-1,1.69-1.48,2.54-.09.16-.2.32-.34.57l-1.16-1.52-3.26,1.9-.07-.09c.07-.12.15-.24.23-.35.79-1,1.58-2,2.38-2.93a1.25,1.25,0,0,0,.33-.8c0-.66,0-1.31,0-2l1.27-.39a7.64,7.64,0,0,0,1.63-.48,5.8,5.8,0,0,0,1.19-1.13l1.84-1.82a1.81,1.81,0,0,1,.41-.32c-.24,1-.69,2-1,3M14.37,31c.88-.89,1.78-1.78,2.67-2.66l.37-.34.09.06c-.35,1-.69,1.94-1.05,2.94l2.05.23c-.2.18-.3.29-.41.38-1,.83-2,1.65-3.05,2.47a2.68,2.68,0,0,0-.69.81c-.48.85-1,1.7-1.48,2.55-.08.15-.18.29-.3.49-.41-.51-.77-1-1.16-1.5L8.15,38.35l-.07-.1.29-.39c.79-1,1.58-2,2.38-2.92a1.15,1.15,0,0,0,.29-.79V32.7c0-.59,0-.59.55-.73s1.32-.36,2-.52a1.76,1.76,0,0,0,.79-.46M0,70.29H69.79V.5H0Zm78.43-8H77.31v1h1.12v7h1.34v-7h1.56v-1H79.77v-.69a1.49,1.49,0,0,1,.23-.94.94.94,0,0,1,.74-.26l.59.06v-1a5,5,0,0,0-.94-.09,2,2,0,0,0-1.48.48,2.19,2.19,0,0,0-.48,1.58ZM86.25,43H78.34V53.4h8.21V52.25h-6.8V48.61h6V47.48h-6V44.13h6.5ZM78.41,33.6h27V28.24H85.34V19.53H103V14.17H85.34V5.82h19.11V.49h-26ZM139.1,20.85V.49h-6.95V20.42a8.74,8.74,0,0,1-2,6.1,7.41,7.41,0,0,1-5.72,2.12,7,7,0,0,1-5.48-2c-1.25-1.34-1.87-3.34-1.87-6V.49h-7v20.7q0,6.21,3.63,9.54t10.51,3.33q7,0,10.94-3.48t3.88-9.73m4.78,32.55h1.35V48.07a3.18,3.18,0,0,0-.65-2.19,2.52,2.52,0,0,0-1.93-.7,2.62,2.62,0,0,0-2.56,1.52h0V45.54a.74.74,0,0,0,0-.21h-1.26c0,.21,0,.78,0,1.71v6.3h1.33V48.76a2.81,2.81,0,0,1,.55-1.83,1.89,1.89,0,0,1,1.52-.69,2.15,2.15,0,0,1,1,.19,1.12,1.12,0,0,1,.5.63,4,4,0,0,1,.15,1.23Zm21.55-19.8h8.14V.49h-6.16V19.73a53.92,53.92,0,0,0,.42,6.47L153.18.49h-7.91V33.6h6.16V14.08a54.45,54.45,0,0,0-.42-6Zm7.09,19.8h1.34V48.07a3.19,3.19,0,0,0-.61-2.17,2.54,2.54,0,0,0-1.93-.69,2.64,2.64,0,0,0-2.56,1.52h0V45.56a.67.67,0,0,0,0-.2H167.5c0,.21.05.78.05,1.71v6.3h1.33V48.76a2.76,2.76,0,0,1,.56-1.83,1.88,1.88,0,0,1,1.51-.69,2.13,2.13,0,0,1,1,.19,1.12,1.12,0,0,1,.5.63,3.92,3.92,0,0,1,.16,1.23Zm8.2-7.66a4.08,4.08,0,0,0-2.08-.47,3.86,3.86,0,0,0-2.27.57,1.93,1.93,0,0,0-.78,1.67,1.77,1.77,0,0,0,.27,1,2.42,2.42,0,0,0,.76.7,6.71,6.71,0,0,0,1.63.57l.95.25a2.47,2.47,0,0,1,1.06.5,1,1,0,0,1,.32.76,1.07,1.07,0,0,1-.47.94,2.81,2.81,0,0,1-1.48.31,3.12,3.12,0,0,1-1.48-.3,1.47,1.47,0,0,1-.7-1l-1.17.23a2.27,2.27,0,0,0,1.05,1.54,4.39,4.39,0,0,0,2.31.46,4.07,4.07,0,0,0,2.4-.61,2.22,2.22,0,0,0,.69-2.56,1.8,1.8,0,0,0-.41-.64,3.11,3.11,0,0,0-.74-.5,9,9,0,0,0-1.52-.49,10.75,10.75,0,0,1-1.47-.43,1.3,1.3,0,0,1-.52-.38.82.82,0,0,1-.18-.56.93.93,0,0,1,.43-.83,2.66,2.66,0,0,1,1.33-.28,2.56,2.56,0,0,1,1.3.29,1.19,1.19,0,0,1,.59.82l1.2-.15a2.06,2.06,0,0,0-1-1.46m-.23-12.14h6.95V.49h-6.95Zm7.14,10.09H189V42.4h-1.33Zm0,9.74H189v-8h-1.33Zm6.3-8h-1.48V43.6h-.89l-.39,1.8h-1v1h1v5.35c0,1.21.54,1.81,1.6,1.81a5.11,5.11,0,0,0,1.35-.18v-1a4,4,0,0,1-.77.11.84.84,0,0,1-.66-.24,1.33,1.33,0,0,1-.18-.81V46.36h1.44Zm23.63-34.52,6.11-1.67a12.35,12.35,0,0,0-5.14-6.87A17.49,17.49,0,0,0,209,0q-8,0-12.2,4.37t-4.2,12.51c0,5.43,1.45,9.64,4.36,12.66s7,4.52,12.34,4.52a16.79,16.79,0,0,0,9-2.34,14.41,14.41,0,0,0,5.72-7.13l-6-2.28q-2.44,6.3-8.72,6.3a8.87,8.87,0,0,1-7.22-3q-2.5-3-2.5-8.73T202,8.36q2.43-2.92,7.13-2.92A9.66,9.66,0,0,1,214.51,7a7.08,7.08,0,0,1,3.05,3.93"/></svg>