<svg xmlns="http://www.w3.org/2000/svg" viewBox="0 0 963.79 102.78"><defs><style>.eu-yellow{fill:#fff200;}.eu-blue{fill:#3b54a5;}</style></defs><g id="EUNIC"><rect class="eu-yellow" x="402.87" y="6.8" width="137.19" height="87.94"/><path class="eu-blue" d="M312,73.79l-1.69.33a3.3,3.3,0,0,0,1.52,2.21,6.31,6.31,0,0,0,3.31.71,5.83,5.83,0,0,0,3.45-.88,2.91,2.91,0,0,0,1.23-2.51,3.1,3.1,0,0,0-.21-1.18,2.85,2.85,0,0,0-.61-.91,3.76,3.76,0,0,0-1.06-.72,12.15,12.15,0,0,0-2.19-.71,15.1,15.1,0,0,1-2.11-.62,2,2,0,0,1-.75-.54,1.25,1.25,0,0,1-.26-.81,1.32,1.32,0,0,1,.62-1.19A4.61,4.61,0,0,1,317,67a1.75,1.75,0,0,1,.86,1.18l1.73-.21a3.07,3.07,0,0,0-1.42-2.15,5.87,5.87,0,0,0-3-.67,5.49,5.49,0,0,0-3.28.82,2.79,2.79,0,0,0-1.12,2.4,2.54,2.54,0,0,0,.39,1.44,3.41,3.41,0,0,0,1.09,1,10,10,0,0,0,2.35.83L316,72a3.73,3.73,0,0,1,1.51.71,1.42,1.42,0,0,1,.47,1.1,1.52,1.52,0,0,1-.68,1.35,4,4,0,0,1-2.14.44,4.4,4.4,0,0,1-2.13-.43,2.12,2.12,0,0,1-1-1.36M300.53,70a4.08,4.08,0,0,1,.88-2.56,2.8,2.8,0,0,1,2.21-.93,2.84,2.84,0,0,1,2.21.84,4.39,4.39,0,0,1,.92,2.65Zm-.69-3.38A6.42,6.42,0,0,0,298.5,71a6.7,6.7,0,0,0,1.34,4.53A4.92,4.92,0,0,0,303.73,77q3.66,0,4.7-2.72l-1.69-.48a2.42,2.42,0,0,1-1,1.26,3.51,3.51,0,0,1-2,.5,2.83,2.83,0,0,1-2.4-1.07,5,5,0,0,1-.82-3.06h8.22v-.25c0-4.08-1.69-6.13-5.08-6.13a4.79,4.79,0,0,0-3.81,1.53m-6.59-1.31h-1.4V66.7h1.33v7.69c0,1.74.76,2.61,2.3,2.61a7.49,7.49,0,0,0,1.94-.26V75.33a6.08,6.08,0,0,1-1.11.15,1.15,1.15,0,0,1-.94-.34,1.81,1.81,0,0,1-.28-1.16V66.7h2.13V65.31h-2.13V62.73h-1.27Zm-10.52,0H280.8V73a4.53,4.53,0,0,0,.88,3.11,3.64,3.64,0,0,0,2.78.94,4.3,4.3,0,0,0,2.15-.49,4.25,4.25,0,0,0,1.53-1.69h0c0,.56,0,.94,0,1.14s0,.39,0,.54a1.4,1.4,0,0,0,0,.29h1.81c0-.3-.07-1.12-.07-2.46V65.31h-1.91V72a4,4,0,0,1-.8,2.63,2.68,2.68,0,0,1-2.18,1,2.89,2.89,0,0,1-1.44-.28,1.58,1.58,0,0,1-.72-.9,5.79,5.79,0,0,1-.22-1.77Zm-18.57,0h-1.4V66.7h1.33v7.69c0,1.74.76,2.61,2.3,2.61a7.36,7.36,0,0,0,1.93-.26V75.33a5.89,5.89,0,0,1-1.1.15,1.19,1.19,0,0,1-1-.34A1.88,1.88,0,0,1,266,74V66.7h2.13V65.31H266V62.73h-1.28Zm-26.78-3.48h-2v15h2ZM225.82,61H223.9v15.8h1.92ZM213.2,73.65a2.39,2.39,0,0,1,.37-1.4,2.24,2.24,0,0,1,1.07-.79,6.53,6.53,0,0,1,2.05-.27l2.1,0v1a3.66,3.66,0,0,1-1.77,3,3.74,3.74,0,0,1-1.87.47,2,2,0,0,1-1.45-.51,2,2,0,0,1-.5-1.44m-2,0a3.51,3.51,0,0,0,.87,2.52,3.44,3.44,0,0,0,2.61.91,4.72,4.72,0,0,0,2.37-.55,4.62,4.62,0,0,0,1.71-1.87h.06a3,3,0,0,0,.55,1.76,2,2,0,0,0,1.55.56,6.12,6.12,0,0,0,1.48-.18V75.57a3,3,0,0,1-.63.08.88.88,0,0,1-.85-.43,2.91,2.91,0,0,1-.22-1.29V69a3.69,3.69,0,0,0-1.1-2.88,4.74,4.74,0,0,0-3.27-1q-4.12,0-4.62,3.11l2,.18a2,2,0,0,1,.7-1.39,3.19,3.19,0,0,1,1.88-.44,2.53,2.53,0,0,1,1.87.61,2.81,2.81,0,0,1,.6,2v.63l-2.59,0a6.29,6.29,0,0,0-3.79,1,3.3,3.3,0,0,0-1.18,2.74m-7.68,20.67a4,4,0,0,1,.88-2.56,2.78,2.78,0,0,1,2.21-.93,2.85,2.85,0,0,1,2.2.83,4.51,4.51,0,0,1,.93,2.66Zm-.7-3.39a6.46,6.46,0,0,0-1.33,4.38,6.71,6.71,0,0,0,1.33,4.53,4.92,4.92,0,0,0,3.9,1.52q3.66,0,4.69-2.73l-1.68-.48a2.47,2.47,0,0,1-1,1.27,3.47,3.47,0,0,1-2,.5,2.84,2.84,0,0,1-2.4-1.07,5,5,0,0,1-.82-3.06h8.22V95.5q0-6.14-5.08-6.13a4.83,4.83,0,0,0-3.82,1.52m-6.26-1.3h-1.81c0,1,.06,1.87.06,2.68v8.84h1.92v-6a5.63,5.63,0,0,1,.63-2.94,2,2,0,0,1,1.82-1,4,4,0,0,1,1,.11V89.48a3,3,0,0,0-.78-.11,2.38,2.38,0,0,0-1.68.55,4.6,4.6,0,0,0-1.06,2h0c0-.26,0-1-.08-2.35M189,71.06a6.26,6.26,0,0,1,.75-3.45,2.77,2.77,0,0,1,2.44-1.1,2.63,2.63,0,0,1,2.38,1.08,6.54,6.54,0,0,1,.71,3.47,6.38,6.38,0,0,1-.74,3.46A2.76,2.76,0,0,1,192,75.63a2.59,2.59,0,0,1-2.33-1.15,6.39,6.39,0,0,1-.74-3.42m-.72,4.44A4.68,4.68,0,0,0,192.06,77a4.93,4.93,0,0,0,3.87-1.48,6.59,6.59,0,0,0,1.33-4.5A6.82,6.82,0,0,0,196,66.55a4.83,4.83,0,0,0-3.88-1.46q-5.17,0-5.17,6a6.72,6.72,0,0,0,1.29,4.44m-3.71,14.09h-1.92v7.67a4.49,4.49,0,0,0,.88,3.12,3.61,3.61,0,0,0,2.77.94A3.74,3.74,0,0,0,190,99.14h0q0,.84,0,1.14t0,.54c0,.16,0,.25,0,.29h1.81q-.06-.45-.06-2.46V89.59H189.9v6.67a4,4,0,0,1-.8,2.63,2.71,2.71,0,0,1-2.18,1,2.94,2.94,0,0,1-1.44-.28,1.56,1.56,0,0,1-.71-.9,5.45,5.45,0,0,1-.23-1.77Zm0-24.28h-1.92V76.83h1.92Zm-1.92-2.45h1.92V61h-1.92Zm-5.78,26.73h-1.41V91h1.33v7.69c0,1.74.77,2.61,2.3,2.61A7.44,7.44,0,0,0,181,101V99.61a6.61,6.61,0,0,1-1.11.14,1.16,1.16,0,0,1-.94-.33,1.9,1.9,0,0,1-.27-1.17V91h2.13V89.59h-2.13V87h-1.28Zm0-24.28h-1.41V66.7h1.33v7.69c0,1.74.77,2.61,2.3,2.61a7.44,7.44,0,0,0,1.94-.26V75.33a5.87,5.87,0,0,1-1.11.15,1.17,1.17,0,0,1-.94-.34,1.88,1.88,0,0,1-.27-1.16V66.7h2.13V65.31h-2.13V62.73h-1.28Zm-3.2,20h-1.91v15.81h1.91Zm-5.82-9.7a1.92,1.92,0,0,1-1.44-.51,2,2,0,0,1-.51-1.44,2.39,2.39,0,0,1,.37-1.4,2.24,2.24,0,0,1,1.07-.79,6.53,6.53,0,0,1,2.05-.27l2.1,0v1a3.6,3.6,0,0,1-1.77,3,3.71,3.71,0,0,1-1.87.47M167.42,77a4.72,4.72,0,0,0,2.37-.55,4.62,4.62,0,0,0,1.71-1.87h.06a3,3,0,0,0,.55,1.76,2,2,0,0,0,1.55.56,6.06,6.06,0,0,0,1.48-.18V75.57a3,3,0,0,1-.63.08.88.88,0,0,1-.85-.43,2.91,2.91,0,0,1-.22-1.29V69a3.69,3.69,0,0,0-1.1-2.88,4.74,4.74,0,0,0-3.27-1q-4.12,0-4.62,3.11l2,.18a2,2,0,0,1,.71-1.39,3.16,3.16,0,0,1,1.87-.44,2.53,2.53,0,0,1,1.87.61,2.81,2.81,0,0,1,.6,2v.63l-2.59,0a6.29,6.29,0,0,0-3.79,1,3.3,3.3,0,0,0-1.18,2.74,3.51,3.51,0,0,0,.87,2.52,3.45,3.45,0,0,0,2.61.91m-5.91,12.55h-1.92v7.67a4.55,4.55,0,0,0,.87,3.12,3.64,3.64,0,0,0,2.78.94,4.27,4.27,0,0,0,2.15-.5,4.22,4.22,0,0,0,1.53-1.68h0c0,.56,0,.94,0,1.14s0,.38,0,.54a1.4,1.4,0,0,0,0,.29h1.81q-.06-.45-.06-2.46V89.59h-1.92v6.67a4,4,0,0,1-.8,2.63,2.71,2.71,0,0,1-2.18,1,2.91,2.91,0,0,1-1.44-.28,1.56,1.56,0,0,1-.71-.9,5.45,5.45,0,0,1-.23-1.77ZM150.76,64.05l8,12.78h2.45v-15H159.4v9.83c0,.63,0,1.64.13,3l-8.11-12.86h-2.37v15h1.81v-10l-.05-1.78Zm-5.29,23.86a7.8,7.8,0,0,0-1.94,5.63,9.19,9.19,0,0,0,.87,4.14,6.16,6.16,0,0,0,2.52,2.7,7.76,7.76,0,0,0,3.92.94,7.39,7.39,0,0,0,3.89-1,6.78,6.78,0,0,0,2.61-3l-1.66-.83a5.08,5.08,0,0,1-4.74,3.12A4.87,4.87,0,0,1,147,98a7.57,7.57,0,0,1-.06-8.83,4.83,4.83,0,0,1,3.87-1.6,5.27,5.27,0,0,1,2.75.69,4,4,0,0,1,1.67,2l1.93-.64a5.5,5.5,0,0,0-2.36-2.78,7.83,7.83,0,0,0-4-.94,7.07,7.07,0,0,0-5.36,2m-13.11,1.68h-1.81c0,1,.06,1.87.06,2.68v8.84h1.92v-6a5.63,5.63,0,0,1,.63-2.94,2,2,0,0,1,1.82-1,4,4,0,0,1,1,.11V89.48a3,3,0,0,0-.78-.11,2.38,2.38,0,0,0-1.68.55,4.5,4.5,0,0,0-1,2h-.05c0-.26,0-1-.08-2.35M127.9,74.42a4.91,4.91,0,0,0,2.13,2,7.16,7.16,0,0,0,3.21.67,7.36,7.36,0,0,0,3.33-.7,5,5,0,0,0,2.18-2,6.07,6.07,0,0,0,.77-3.14V61.83h-2v9.24a3.88,3.88,0,0,1-4.27,4.32,4,4,0,0,1-3-1.06,4.27,4.27,0,0,1-1.05-3.12V61.83h-2v9.55a5.79,5.79,0,0,0,.76,3m-8,20.92a6.24,6.24,0,0,1,.75-3.45,2.74,2.74,0,0,1,2.43-1.1,2.62,2.62,0,0,1,2.38,1.08,6.54,6.54,0,0,1,.71,3.47,6.4,6.4,0,0,1-.74,3.46A2.75,2.75,0,0,1,123,99.9a2.57,2.57,0,0,1-2.33-1.14,6.41,6.41,0,0,1-.74-3.42m-2,0a6.79,6.79,0,0,0,1.28,4.44,4.69,4.69,0,0,0,3.82,1.54,4.91,4.91,0,0,0,3.86-1.48,6.56,6.56,0,0,0,1.33-4.5,6.82,6.82,0,0,0-1.24-4.51,4.85,4.85,0,0,0-3.89-1.46q-5.16,0-5.16,6M5.13,78.4c.2-.26.38-.54.59-.79,1.59-2,3.18-4,4.8-5.91a2.2,2.2,0,0,0,.59-1.6c0-1,0-1.94,0-2.91,0-1.19,0-1.19,1.11-1.49,1.34-.35,2.67-.73,4-1a3.21,3.21,0,0,0,1.59-.92c1.78-1.81,3.58-3.59,5.38-5.38l.74-.68.2.11-2.14,6,4.15.46c-.39.36-.58.58-.81.76-2.05,1.67-4.09,3.34-6.16,5a5.4,5.4,0,0,0-1.4,1.65c-1,1.73-2,3.43-3,5.14-.17.3-.36.58-.63,1l-2.34-3L5.29,78.59l-.16-.19M16.91,96.12c.28-.37.54-.76.84-1.13,2.27-2.81,4.53-5.63,6.84-8.42a3.16,3.16,0,0,0,.84-2.27c-.06-1.39,0-2.78,0-4.16,0-1.7,0-1.7,1.58-2.12,1.91-.51,3.81-1,5.74-1.5A4.47,4.47,0,0,0,35,75.21c2.54-2.58,5.12-5.12,7.68-7.67.34-.34.71-.65,1.06-1l.28.16c-1,2.8-2,5.6-3.05,8.5l5.91.64c-.55.53-.83.83-1.15,1.09-2.92,2.38-5.84,4.76-8.79,7.1a8,8,0,0,0-2,2.35c-1.38,2.46-2.82,4.9-4.24,7.34-.24.42-.51.82-.89,1.43-1.14-1.49-2.19-2.84-3.33-4.32l-9.36,5.53-.22-.27M48,12.92c-.56.92-1.08,1.86-1.62,2.79-.1.17-.22.34-.38.61l-1.26-1.66-3.53,2.09-.08-.09c.09-.13.16-.27.26-.39.86-1.07,1.72-2.14,2.6-3.21a1.3,1.3,0,0,0,.34-.92c0-.71,0-1.43,0-2.19l1.43-.39A8,8,0,0,0,47.59,9,6.89,6.89,0,0,0,48.9,7.8l2-2a1.86,1.86,0,0,1,.46-.35c-.28,1.11-.75,2.14-1.09,3.27L52.52,9c-.26.23-.41.37-.57.5-1.08.88-2.18,1.74-3.25,2.64a3.11,3.11,0,0,0-.69.8m7.61,68.25c.36-.5.71-1,1.1-1.49,3-3.72,6-7.46,9-11.14a4.2,4.2,0,0,0,1.12-3c-.09-1.83,0-3.67,0-5.51,0-2.24,0-2.24,2.08-2.79,2.53-.68,5-1.39,7.6-2a6,6,0,0,0,3-1.73c3.36-3.41,6.77-6.77,10.16-10.15.45-.44.93-.86,1.4-1.29l.37.21-4,11.25,7.81.85c-.72.69-1.09,1.1-1.52,1.45C89.88,59,86,62.12,82.12,65.22a10.25,10.25,0,0,0-2.64,3.11c-1.83,3.25-3.73,6.47-5.6,9.7-.33.56-.68,1.09-1.18,1.89l-4.41-5.71L55.9,81.52l-.28-.35M35.9,24.46l3,.34c-.35.31-.54.49-.75.66-1.42,1.15-2.86,2.29-4.27,3.47a4.32,4.32,0,0,0-.9,1.05c-.74,1.21-1.43,2.44-2.14,3.66-.13.23-.28.46-.49.81l-1.66-2.18L24,35l-.11-.12a5.65,5.65,0,0,1,.34-.51c1.14-1.4,2.27-2.82,3.42-4.21A1.8,1.8,0,0,0,28.12,29c0-.94,0-1.88.05-2.88L30,25.56a10.4,10.4,0,0,0,2.34-.69,8.74,8.74,0,0,0,1.72-1.62l2.64-2.62a2.51,2.51,0,0,1,.59-.46c-.35,1.45-1,2.81-1.43,4.29M20.68,44.59c1.26-1.29,2.55-2.56,3.83-3.84l.53-.48.14.08c-.5,1.4-1,2.8-1.52,4.24l2.95.33c-.28.26-.42.41-.58.54-1.46,1.19-2.91,2.38-4.39,3.55a4,4,0,0,0-1,1.17c-.69,1.23-1.41,2.45-2.12,3.67-.12.21-.26.41-.44.71-.58-.74-1.1-1.42-1.67-2.16l-4.68,2.77-.1-.14c.13-.18.27-.38.41-.56,1.14-1.41,2.27-2.82,3.42-4.21a1.58,1.58,0,0,0,.42-1.13c0-.7,0-1.39,0-2.08,0-.85,0-.85.79-1.06.95-.25,1.91-.52,2.87-.75a2.39,2.39,0,0,0,1.13-.65M0,101.12H100.4V.72H0ZM112.84,89.59h-1.62V91h1.62v10.13h1.92V91H117V89.59h-2.24v-1a2.08,2.08,0,0,1,.33-1.35,1.34,1.34,0,0,1,1.06-.37,5.61,5.61,0,0,1,.85.08V85.45a6.5,6.5,0,0,0-1.35-.12,2.89,2.89,0,0,0-2.12.69,3.13,3.13,0,0,0-.69,2.27Zm11.24-27.76H112.7v15h11.82V75.17h-9.79V69.94h8.71V68.3h-8.71V63.49h9.35ZM112.81,48.34h38.84V40.63H122.78V28.09H148.2V20.38H122.78v-12h27.48V.71H112.81ZM200.12,30V.71h-10V29.38c0,3.8-1,6.73-2.87,8.77s-4.66,3.06-8.22,3.06-6.1-1-7.89-2.93-2.69-4.8-2.69-8.57V.71h-10V30.49q0,8.93,5.22,13.72T178.79,49q10.14,0,15.74-5t5.59-14M207,76.83h1.93V69.15A4.5,4.5,0,0,0,208,66a3.64,3.64,0,0,0-2.78-1,4.27,4.27,0,0,0-2.15.5,4.18,4.18,0,0,0-1.53,1.69h0c0-.56,0-.94,0-1.15s0-.38,0-.53a1.33,1.33,0,0,0,0-.29h-1.81c0,.3.07,1.12.07,2.46v9.06h1.91V70.15a4,4,0,0,1,.8-2.63,2.71,2.71,0,0,1,2.18-1,3,3,0,0,1,1.44.28,1.63,1.63,0,0,1,.72.91,5.72,5.72,0,0,1,.22,1.76Zm31-28.49h11.7V.71h-8.86V28.39a80.32,80.32,0,0,0,.61,9.3L220.37.71H209V48.34h8.86V20.25a81.06,81.06,0,0,0-.61-8.59Zm10.2,28.49h1.92V69.15a4.5,4.5,0,0,0-.87-3.11,3.64,3.64,0,0,0-2.78-1,4.27,4.27,0,0,0-2.15.5,4.18,4.18,0,0,0-1.53,1.69h0c0-.56,0-.94,0-1.15s0-.38,0-.53a1.33,1.33,0,0,0,0-.29h-1.81c0,.3.07,1.12.07,2.46v9.06h1.91V70.15a4,4,0,0,1,.8-2.63,2.71,2.71,0,0,1,2.18-1,3.06,3.06,0,0,1,1.44.28,1.58,1.58,0,0,1,.71.91,5.39,5.39,0,0,1,.23,1.76ZM260,65.8a5.87,5.87,0,0,0-3-.67,5.48,5.48,0,0,0-3.27.82,2.79,2.79,0,0,0-1.12,2.4,2.54,2.54,0,0,0,.39,1.44,3.41,3.41,0,0,0,1.09,1,10,10,0,0,0,2.35.83l1.37.36a3.71,3.71,0,0,1,1.52.71,1.41,1.41,0,0,1,.46,1.1,1.51,1.51,0,0,1-.67,1.35,4,4,0,0,1-2.14.44,4.34,4.34,0,0,1-2.13-.43,2.09,2.09,0,0,1-1-1.36l-1.69.33a3.3,3.3,0,0,0,1.52,2.21A6.31,6.31,0,0,0,257,77a5.83,5.83,0,0,0,3.45-.88,3.2,3.2,0,0,0,1-3.69,2.67,2.67,0,0,0-.6-.91,3.92,3.92,0,0,0-1.06-.72,12.44,12.44,0,0,0-2.19-.71,14.66,14.66,0,0,1-2.11-.62,2,2,0,0,1-.75-.54,1.2,1.2,0,0,1-.26-.81,1.32,1.32,0,0,1,.62-1.19,3.65,3.65,0,0,1,1.91-.4,3.7,3.7,0,0,1,1.87.41,1.75,1.75,0,0,1,.86,1.18l1.72-.21A3,3,0,0,0,260,65.8m-.34-17.46h10V.71h-10Zm10.27,14.52h1.92V61h-1.92Zm0,14h1.92V65.31h-1.92ZM279,65.31h-2.13V62.73h-1.28l-.57,2.58h-1.4V66.7H275v7.69c0,1.74.77,2.61,2.3,2.61a7.44,7.44,0,0,0,1.94-.26V75.33a5.87,5.87,0,0,1-1.11.15,1.15,1.15,0,0,1-.94-.34,1.88,1.88,0,0,1-.27-1.16V66.7H279ZM313,15.65l8.79-2.4a17.84,17.84,0,0,0-7.4-9.89Q309.08,0,300.7,0q-11.49,0-17.54,6.29t-6.05,18q0,11.7,6.27,18.21T301.14,49a24.21,24.21,0,0,0,13-3.36,20.79,20.79,0,0,0,8.23-10.26l-8.69-3.28q-3.51,9.06-12.54,9.06-6.79,0-10.39-4.32t-3.6-12.55q0-8.07,3.5-12.27t10.26-4.19A13.84,13.84,0,0,1,308.6,10,10.2,10.2,0,0,1,313,15.65"/><path class="eu-blue" d="M390.26,0V101.32h152V0ZM493.73,32.54,495,28.7l1.23,3.83h4L497,34.87l1.22,3.78L495,36.31l-3.21,2.34L493,34.87l-3.26-2.34Zm-66,16.61h4L433,45.32l1.23,3.83h4L435,51.5l1.22,3.78L433,52.94l-3.2,2.34L431,51.5Zm12.9,22.75-3.2-2.34-3.21,2.34,1.22-3.78-3.25-2.34h4l1.23-3.84,1.23,3.84h4l-3.26,2.34Zm-1.22-37,1.22,3.79-3.2-2.35-3.21,2.35,1.22-3.79-3.25-2.34h4l1.23-3.83,1.23,3.83h4Zm8.93-14.51,1.23-3.84,1.23,3.84h4l-3.25,2.34,1.22,3.78-3.21-2.34-3.21,2.34,1.22-3.78-3.25-2.34Zm4.46,63.66-3.2-2.34-3.21,2.34,1.22-3.78L444.4,78h4l1.22-3.83L450.87,78h4l-3.26,2.34ZM465,16l1.23-3.84L467.45,16h4l-3.26,2.34,1.22,3.79-3.2-2.34L463,22.08l1.22-3.79L461,16Zm4.44,72.52-3.21-2.34L463,88.48l1.22-3.79L461,82.35h4l1.23-3.84,1.23,3.83h4l-3.25,2.34ZM486,84.07l-3.2-2.34-3.21,2.34,1.22-3.78L477.55,78h4l1.24-3.83L484,78h4l-3.26,2.34Zm-1.17-61.32,1.22,3.79-3.2-2.35-3.22,2.35,1.22-3.79-3.25-2.34h4l1.23-3.84,1.23,3.83h4ZM498.17,71.9,495,69.56l-3.21,2.34L493,68.12l-3.26-2.34h4L495,61.94l1.23,3.84h4L497,68.12Zm4.4-16.67-3.2-2.34-3.21,2.34,1.22-3.78-3.26-2.34h4l1.23-3.84,1.23,3.84h4l-3.26,2.34Z"/><path class="eu-blue" d="M573.12,7.52a6.81,6.81,0,0,0-5.44,2.25,9.11,9.11,0,0,0-1.94,6.15,9.19,9.19,0,0,0,2,6.22,6.84,6.84,0,0,0,5.47,2.35c2.94,0,5.16-1.46,6.64-4.37l2.33,1.16a9.42,9.42,0,0,1-3.65,4.14,10.4,10.4,0,0,1-5.46,1.42,11,11,0,0,1-5.5-1.32,8.75,8.75,0,0,1-3.54-3.78,13,13,0,0,1-1.21-5.82q0-5,2.71-7.88a9.92,9.92,0,0,1,7.53-2.85A11,11,0,0,1,578.7,6.5,7.79,7.79,0,0,1,582,10.4l-2.7.9A5.55,5.55,0,0,0,577,8.49,7.3,7.3,0,0,0,573.12,7.52Z"/><path class="eu-blue" d="M599.71,18.45c0,2.82-.62,4.93-1.87,6.31a6.89,6.89,0,0,1-5.42,2.08,6.57,6.57,0,0,1-5.34-2.16,9.45,9.45,0,0,1-1.81-6.23q0-8.37,7.24-8.36c2.47,0,4.29.67,5.45,2S599.71,15.59,599.71,18.45Zm-2.82,0a9.15,9.15,0,0,0-1-4.86,3.71,3.71,0,0,0-3.34-1.52,3.83,3.83,0,0,0-3.41,1.55,8.74,8.74,0,0,0-1,4.83,9,9,0,0,0,1,4.8,3.6,3.6,0,0,0,3.27,1.6,3.85,3.85,0,0,0,3.45-1.55A8.89,8.89,0,0,0,596.89,18.45Z"/><path class="eu-blue" d="M603,19.61V17.22h7.47v2.39Z"/><path class="eu-blue" d="M617.79,12.34v14.2H615.1V12.34h-2.27v-2h2.27V8.56a4.41,4.41,0,0,1,1-3.18,4.08,4.08,0,0,1,3-1,8.57,8.57,0,0,1,1.9.18V6.64a6.93,6.93,0,0,0-1.19-.12,1.91,1.91,0,0,0-1.5.52,2.91,2.91,0,0,0-.46,1.9v1.44h3.15v2Z"/><path class="eu-blue" d="M626.2,10.38V20.63a7.72,7.72,0,0,0,.31,2.48,2.22,2.22,0,0,0,1,1.26,4.18,4.18,0,0,0,2,.39,3.79,3.79,0,0,0,3.06-1.33,5.56,5.56,0,0,0,1.12-3.68V10.38h2.68V23.09q0,2.82.09,3.45h-2.54c0-.05,0-.18,0-.4s0-.48,0-.76,0-.82,0-1.6h-.05a5.93,5.93,0,0,1-2.14,2.36,6,6,0,0,1-3,.7,5.11,5.11,0,0,1-3.89-1.32,6.37,6.37,0,0,1-1.23-4.37V10.38Z"/><path class="eu-blue" d="M651.44,26.54V16.3a7.68,7.68,0,0,0-.31-2.48,2.24,2.24,0,0,0-1-1.27,4.18,4.18,0,0,0-2-.39,3.79,3.79,0,0,0-3.06,1.33,5.61,5.61,0,0,0-1.12,3.69v9.36h-2.68V13.83q0-2.82-.09-3.45h2.53a2.28,2.28,0,0,1,0,.41c0,.22,0,.47,0,.75s0,.82,0,1.61h.05A5.9,5.9,0,0,1,646,10.78a6,6,0,0,1,3-.69,5.08,5.08,0,0,1,3.89,1.32c.83.88,1.24,2.33,1.24,4.36V26.54Z"/><path class="eu-blue" d="M669,23.94a4.8,4.8,0,0,1-2,2.23,6.4,6.4,0,0,1-3,.67,5.12,5.12,0,0,1-4.5-2.06Q658,22.71,658,18.54q0-8.46,5.94-8.45a6.3,6.3,0,0,1,3.06.67,4.87,4.87,0,0,1,2,2.13h0l0-1.8V4.38h2.69V23.21q0,2.52.09,3.33h-2.57c0-.16-.06-.53-.1-1.11s-.05-1.07-.05-1.49Zm-8.15-5.49a9.84,9.84,0,0,0,.89,4.85,3.17,3.17,0,0,0,2.91,1.46A3.65,3.65,0,0,0,668,23.18a9.16,9.16,0,0,0,1-4.91,8.43,8.43,0,0,0-1-4.71,3.72,3.72,0,0,0-3.29-1.49,3.16,3.16,0,0,0-2.93,1.5A9.92,9.92,0,0,0,660.85,18.45Z"/><path class="eu-blue" d="M678.48,19a6.9,6.9,0,0,0,1.15,4.28A4,4,0,0,0,683,24.82a5,5,0,0,0,2.8-.7,3.52,3.52,0,0,0,1.43-1.78l2.35.68c-1,2.54-3.16,3.82-6.58,3.82a6.86,6.86,0,0,1-5.46-2.14c-1.25-1.42-1.87-3.54-1.87-6.34a9,9,0,0,1,1.87-6.14,6.77,6.77,0,0,1,5.36-2.13q7.11,0,7.12,8.58V19ZM687.23,17a6.27,6.27,0,0,0-1.3-3.73,4,4,0,0,0-3.09-1.17,3.92,3.92,0,0,0-3.1,1.31A5.63,5.63,0,0,0,678.51,17Z"/><path class="eu-blue" d="M704.24,23.94a4.8,4.8,0,0,1-2,2.23,6.41,6.41,0,0,1-3.06.67,5.12,5.12,0,0,1-4.5-2.06q-1.44-2.07-1.44-6.24,0-8.46,5.94-8.45a6.31,6.31,0,0,1,3.07.67,4.93,4.93,0,0,1,2,2.13h0l0-1.8V4.38h2.68V23.21q0,2.52.09,3.33h-2.56a10.12,10.12,0,0,1-.1-1.11c0-.57-.05-1.07-.05-1.49Zm-8.16-5.49a9.71,9.71,0,0,0,.9,4.85,3.17,3.17,0,0,0,2.91,1.46,3.67,3.67,0,0,0,3.32-1.58,9.26,9.26,0,0,0,1-4.91,8.52,8.52,0,0,0-1-4.71,3.74,3.74,0,0,0-3.29-1.49,3.16,3.16,0,0,0-2.93,1.5A9.79,9.79,0,0,0,696.08,18.45Z"/><path class="eu-blue" d="M734.42,18.39q0,8.45-5.94,8.45a6.23,6.23,0,0,1-3.05-.67,4.87,4.87,0,0,1-2-2.14h0q0,.46-.06,1.41c0,.63-.07,1-.09,1.1h-2.6q.09-.81.09-3.33V4.38h2.69V10.7c0,.64,0,1.41-.06,2.28h.06a4.82,4.82,0,0,1,2-2.22,6.28,6.28,0,0,1,3.05-.67,5.09,5.09,0,0,1,4.5,2.06Q734.42,14.2,734.42,18.39Zm-2.82.09a9.89,9.89,0,0,0-.89-4.86,3.17,3.17,0,0,0-2.92-1.46,3.69,3.69,0,0,0-3.3,1.55,9.11,9.11,0,0,0-1,4.93,8.66,8.66,0,0,0,1,4.7,3.68,3.68,0,0,0,3.3,1.51,3.16,3.16,0,0,0,2.94-1.5A9.88,9.88,0,0,0,731.6,18.48Z"/><path class="eu-blue" d="M739.17,32.88a8.84,8.84,0,0,1-1.85-.16v-2a9.61,9.61,0,0,0,1.25.08c1.68,0,3-1.22,4-3.68l.25-.65-6.41-16.08h2.87l3.41,8.93c0,.14.1.31.17.5s.3.85.68,2,.58,1.72.61,1.85l1-2.94,3.54-10.29h2.84l-6.21,16.16a19.61,19.61,0,0,1-1.87,3.84,6.09,6.09,0,0,1-1.92,1.88A4.52,4.52,0,0,1,739.17,32.88Z"/><path class="eu-blue" d="M769.6,26.42a10.36,10.36,0,0,1-2.72.36q-3.23,0-3.22-3.66V12.34h-1.87v-2h2l.79-3.61h1.79v3.61h3v2h-3v10.2a2.67,2.67,0,0,0,.38,1.63,1.62,1.62,0,0,0,1.33.47,8.42,8.42,0,0,0,1.55-.21Z"/><path class="eu-blue" d="M775.17,13.15a6.05,6.05,0,0,1,2.08-2.33,5.88,5.88,0,0,1,3.08-.73,5.15,5.15,0,0,1,3.88,1.3c.83.87,1.24,2.33,1.24,4.38V26.54h-2.7V16.3a7.57,7.57,0,0,0-.31-2.53,2.2,2.2,0,0,0-1-1.22,4.21,4.21,0,0,0-2-.39,3.83,3.83,0,0,0-3,1.32A5.18,5.18,0,0,0,775.24,17v9.53h-2.69V4.38h2.69v5.77c0,.6,0,1.23,0,1.88s-.06,1-.07,1.12Z"/><path class="eu-blue" d="M792.17,19a7,7,0,0,0,1.15,4.28,4,4,0,0,0,3.36,1.51,4.94,4.94,0,0,0,2.8-.7,3.52,3.52,0,0,0,1.43-1.78l2.36.68c-1,2.54-3.16,3.82-6.59,3.82a6.82,6.82,0,0,1-5.45-2.14c-1.25-1.42-1.88-3.54-1.88-6.34a9,9,0,0,1,1.88-6.14,6.73,6.73,0,0,1,5.35-2.13q7.13,0,7.12,8.58V19ZM800.92,17a6.27,6.27,0,0,0-1.3-3.73,4,4,0,0,0-3.09-1.17,3.9,3.9,0,0,0-3.09,1.31A5.58,5.58,0,0,0,792.2,17Z"/><path class="eu-blue" d="M573.12,42.46a6.81,6.81,0,0,0-5.44,2.25,9.13,9.13,0,0,0-1.94,6.16,9.2,9.2,0,0,0,2,6.22,6.84,6.84,0,0,0,5.47,2.35c2.94,0,5.16-1.46,6.64-4.37l2.33,1.16a9.42,9.42,0,0,1-3.65,4.14,10.4,10.4,0,0,1-5.46,1.41,11,11,0,0,1-5.5-1.32,8.78,8.78,0,0,1-3.54-3.77,13,13,0,0,1-1.21-5.82c0-3.36.9-6,2.71-7.88a9.92,9.92,0,0,1,7.53-2.86,10.93,10.93,0,0,1,5.61,1.32,7.75,7.75,0,0,1,3.32,3.9l-2.7.89A5.64,5.64,0,0,0,577,43.43,7.4,7.4,0,0,0,573.12,42.46Z"/><path class="eu-blue" d="M586.11,61.49V49.09c0-1.13,0-2.39-.09-3.76h2.54q.12,2.74.12,3.3h.06a6.53,6.53,0,0,1,1.48-2.84,3.39,3.39,0,0,1,2.35-.76,4.09,4.09,0,0,1,1.09.15v2.46a5.49,5.49,0,0,0-1.43-.14,2.81,2.81,0,0,0-2.55,1.44,7.91,7.91,0,0,0-.88,4.12v8.43Z"/><path class="eu-blue" d="M598.9,54a7,7,0,0,0,1.15,4.28,4,4,0,0,0,3.36,1.51,5,5,0,0,0,2.8-.7,3.52,3.52,0,0,0,1.43-1.78L610,58c-1,2.55-3.16,3.82-6.59,3.82A6.85,6.85,0,0,1,598,59.65q-1.87-2.13-1.88-6.35A9,9,0,0,1,598,47.17,6.7,6.7,0,0,1,603.31,45q7.13,0,7.12,8.59V54Zm8.75-2.06a6.22,6.22,0,0,0-1.3-3.73A4,4,0,0,0,603.26,47a3.85,3.85,0,0,0-3.09,1.31,5.56,5.56,0,0,0-1.24,3.59Z"/><path class="eu-blue" d="M618.58,61.78a4.82,4.82,0,0,1-3.66-1.28A4.92,4.92,0,0,1,613.7,57a4.69,4.69,0,0,1,1.65-3.86q1.65-1.34,5.32-1.43l3.63-.06v-.88a3.93,3.93,0,0,0-.84-2.82,3.51,3.51,0,0,0-2.62-.85,4.43,4.43,0,0,0-2.63.61,2.72,2.72,0,0,0-1,2l-2.8-.26Q615.1,45,620.9,45a6.62,6.62,0,0,1,4.58,1.4,5.15,5.15,0,0,1,1.54,4v7a4,4,0,0,0,.31,1.8,1.22,1.22,0,0,0,1.2.61,4.39,4.39,0,0,0,.88-.11V61.4a9,9,0,0,1-2.08.23,2.72,2.72,0,0,1-2.17-.78,4,4,0,0,1-.77-2.46h-.09A6.6,6.6,0,0,1,621.9,61,6.71,6.71,0,0,1,618.58,61.78Zm.61-2a5.17,5.17,0,0,0,2.63-.67,5,5,0,0,0,1.82-1.85,4.84,4.84,0,0,0,.66-2.41V53.51l-2.94.06a9.24,9.24,0,0,0-2.88.39,3.06,3.06,0,0,0-1.5,1.11,3.38,3.38,0,0,0-.52,2,2.77,2.77,0,0,0,.71,2A2.71,2.71,0,0,0,619.19,59.77Z"/><path class="eu-blue" d="M638.29,61.37a10.36,10.36,0,0,1-2.72.35q-3.23,0-3.22-3.65V47.29h-1.87v-2h2l.79-3.61H635v3.61h3v2h-3V57.48a2.69,2.69,0,0,0,.38,1.64,1.65,1.65,0,0,0,1.33.47,8.31,8.31,0,0,0,1.55-.21Z"/><path class="eu-blue" d="M641.17,41.9V39.33h2.69V41.9Zm0,19.59V45.33h2.69V61.49Z"/><path class="eu-blue" d="M655.68,61.49H652.5l-5.87-16.16h2.87l3.55,10.51c.13.4.48,1.58,1,3.54l.53-1.75.58-1.76,3.67-10.54h2.85Z"/><path class="eu-blue" d="M666.55,54a7,7,0,0,0,1.15,4.28,4,4,0,0,0,3.36,1.51,5,5,0,0,0,2.8-.7,3.52,3.52,0,0,0,1.43-1.78l2.35.67c-1,2.55-3.16,3.82-6.58,3.82a6.89,6.89,0,0,1-5.46-2.13q-1.87-2.13-1.87-6.35a9,9,0,0,1,1.87-6.13A6.74,6.74,0,0,1,671,45q7.11,0,7.12,8.59V54Zm8.75-2.06a6.22,6.22,0,0,0-1.3-3.73A4,4,0,0,0,670.91,47a3.89,3.89,0,0,0-3.1,1.31,5.61,5.61,0,0,0-1.23,3.59Z"/><path class="eu-blue" d="M691.66,61.49v-21h16v2.33H694.51v6.75h12.22v2.3H694.51v7.33h13.73v2.33Z"/><path class="eu-blue" d="M714.85,45.33V55.57a7.68,7.68,0,0,0,.31,2.48,2.24,2.24,0,0,0,1,1.27,4.18,4.18,0,0,0,2,.39,3.79,3.79,0,0,0,3.06-1.33,5.55,5.55,0,0,0,1.12-3.69V45.33h2.69V58q0,2.82.09,3.45H722.6a4.11,4.11,0,0,1,0-.41c0-.22,0-.47,0-.75s0-.82,0-1.61h-.05a5.83,5.83,0,0,1-2.14,2.37,6,6,0,0,1-3,.69,5.1,5.1,0,0,1-3.89-1.32c-.82-.88-1.23-2.33-1.23-4.36V45.33Z"/><path class="eu-blue" d="M729.9,61.49V49.09c0-1.13,0-2.39-.09-3.76h2.54q.12,2.74.12,3.3h.06A6.53,6.53,0,0,1,734,45.79a3.39,3.39,0,0,1,2.35-.76,4.09,4.09,0,0,1,1.09.15v2.46A5.49,5.49,0,0,0,736,47.5a2.81,2.81,0,0,0-2.55,1.44,7.91,7.91,0,0,0-.88,4.12v8.43Z"/><path class="eu-blue" d="M754.3,53.39c0,2.83-.63,4.93-1.87,6.32A6.92,6.92,0,0,1,747,61.78a6.58,6.58,0,0,1-5.35-2.15,9.51,9.51,0,0,1-1.8-6.24q0-8.36,7.24-8.36c2.47,0,4.28.68,5.45,2S754.3,50.54,754.3,53.39Zm-2.83,0a9.15,9.15,0,0,0-1-4.86A3.68,3.68,0,0,0,747.14,47a3.84,3.84,0,0,0-3.41,1.54,8.74,8.74,0,0,0-1.05,4.83,9,9,0,0,0,1,4.8A3.6,3.6,0,0,0,747,59.8a3.88,3.88,0,0,0,3.46-1.55A9,9,0,0,0,751.47,53.39Z"/><path class="eu-blue" d="M771.91,53.33q0,8.46-5.94,8.45-3.74,0-5-2.8h-.07a22.39,22.39,0,0,1,.06,2.54v6.31h-2.69V48.63q0-2.49-.09-3.3h2.6s0,.18,0,.43.05.62.07,1.12,0,.86,0,1H761a5,5,0,0,1,1.89-2.19,6.15,6.15,0,0,1,3.11-.69,5.16,5.16,0,0,1,4.46,2C771.42,48.38,771.91,50.48,771.91,53.33Zm-2.82.06a9.46,9.46,0,0,0-.91-4.82,3.16,3.16,0,0,0-2.9-1.45,3.56,3.56,0,0,0-3.87,2.77,12.23,12.23,0,0,0-.47,3.71,8.6,8.6,0,0,0,1,4.69,3.68,3.68,0,0,0,3.3,1.51,3.18,3.18,0,0,0,2.92-1.47A9.83,9.83,0,0,0,769.09,53.39Z"/><path class="eu-blue" d="M777.93,54a6.9,6.9,0,0,0,1.15,4.28,3.94,3.94,0,0,0,3.36,1.51,5,5,0,0,0,2.8-.7,3.5,3.5,0,0,0,1.42-1.78L789,58c-1,2.55-3.16,3.82-6.58,3.82A6.89,6.89,0,0,1,777,59.65q-1.87-2.13-1.87-6.35A9,9,0,0,1,777,47.17,6.73,6.73,0,0,1,782.33,45q7.13,0,7.13,8.59V54Zm8.75-2.06a6.22,6.22,0,0,0-1.3-3.73A4,4,0,0,0,782.29,47a3.89,3.89,0,0,0-3.1,1.31A5.61,5.61,0,0,0,778,51.92Z"/><path class="eu-blue" d="M819.32,46.78a6.1,6.1,0,0,1-2,4.75,7.63,7.63,0,0,1-5.29,1.76h-6.19v8.2H803v-21h8.86a8.17,8.17,0,0,1,5.48,1.66A5.81,5.81,0,0,1,819.32,46.78Zm-2.87,0q0-4.08-4.9-4.08h-5.66V51h5.78C814.86,51,816.45,49.63,816.45,46.81Z"/><path class="eu-blue" d="M823.66,61.49V49.09c0-1.13,0-2.39-.09-3.76h2.54q.12,2.74.12,3.3h.06a6.53,6.53,0,0,1,1.48-2.84,3.39,3.39,0,0,1,2.35-.76,4.09,4.09,0,0,1,1.09.15v2.46a5.49,5.49,0,0,0-1.43-.14,2.81,2.81,0,0,0-2.55,1.44,7.91,7.91,0,0,0-.88,4.12v8.43Z"/><path class="eu-blue" d="M848.06,53.39c0,2.83-.63,4.93-1.87,6.32a6.92,6.92,0,0,1-5.42,2.07,6.58,6.58,0,0,1-5.35-2.15,9.51,9.51,0,0,1-1.8-6.24q0-8.36,7.24-8.36c2.47,0,4.28.68,5.45,2S848.06,50.54,848.06,53.39Zm-2.83,0a9.15,9.15,0,0,0-1-4.86A3.68,3.68,0,0,0,840.9,47a3.84,3.84,0,0,0-3.41,1.54,8.74,8.74,0,0,0-1,4.83,9,9,0,0,0,1,4.8,3.6,3.6,0,0,0,3.26,1.61,3.88,3.88,0,0,0,3.46-1.55A9,9,0,0,0,845.23,53.39Z"/><path class="eu-blue" d="M858.13,67.83a7.48,7.48,0,0,1-4.21-1,4.68,4.68,0,0,1-2-3l2.7-.38a2.77,2.77,0,0,0,1.19,1.72,4.24,4.24,0,0,0,2.41.61q4,0,4-4.71v-2.6h0a5.38,5.38,0,0,1-2.09,2.34,6.07,6.07,0,0,1-3.11.79,5,5,0,0,1-4.37-2q-1.39-2-1.39-6.19t1.5-6.33a5.31,5.31,0,0,1,4.56-2,5.56,5.56,0,0,1,3,.78,5.19,5.19,0,0,1,2,2.23h0c0-.3,0-.81,0-1.55a7.3,7.3,0,0,1,.12-1.21H865c-.06.54-.09,1.65-.09,3.35V61Q864.9,67.83,858.13,67.83Zm4.1-14.42a9.59,9.59,0,0,0-.54-3.4,4.83,4.83,0,0,0-1.52-2.18,3.54,3.54,0,0,0-2.21-.75,3.28,3.28,0,0,0-3,1.49,9.51,9.51,0,0,0-.94,4.84,9.68,9.68,0,0,0,.88,4.76,3.25,3.25,0,0,0,3,1.45,3.59,3.59,0,0,0,2.25-.75,4.7,4.7,0,0,0,1.53-2.14A9.2,9.2,0,0,0,862.23,53.41Z"/><path class="eu-blue" d="M869.69,61.49V49.09c0-1.13,0-2.39-.09-3.76h2.54q.12,2.74.12,3.3h.06a6.64,6.64,0,0,1,1.47-2.84,3.43,3.43,0,0,1,2.36-.76,4.15,4.15,0,0,1,1.09.15v2.46a5.49,5.49,0,0,0-1.43-.14,2.8,2.8,0,0,0-2.55,1.44,7.91,7.91,0,0,0-.88,4.12v8.43Z"/><path class="eu-blue" d="M884.54,61.78a4.79,4.79,0,0,1-3.65-1.28A4.89,4.89,0,0,1,879.66,57a4.69,4.69,0,0,1,1.65-3.86c1.1-.89,2.88-1.37,5.32-1.43l3.63-.06v-.88a4,4,0,0,0-.83-2.82,3.56,3.56,0,0,0-2.63-.85,4.43,4.43,0,0,0-2.63.61,2.68,2.68,0,0,0-1,2l-2.81-.26q.69-4.37,6.48-4.36a6.6,6.6,0,0,1,4.58,1.4,5.15,5.15,0,0,1,1.54,4v7a4,4,0,0,0,.31,1.8,1.22,1.22,0,0,0,1.2.61,4.31,4.31,0,0,0,.88-.11V61.4a9,9,0,0,1-2.08.23,2.74,2.74,0,0,1-2.17-.78,4.05,4.05,0,0,1-.77-2.46h-.09A6.52,6.52,0,0,1,887.87,61,6.75,6.75,0,0,1,884.54,61.78Zm.62-2a5.16,5.16,0,0,0,2.62-.67,4.9,4.9,0,0,0,1.82-1.85,4.84,4.84,0,0,0,.66-2.41V53.51l-2.94.06a9.17,9.17,0,0,0-2.87.39,3,3,0,0,0-1.5,1.11,3.31,3.31,0,0,0-.53,2,2.77,2.77,0,0,0,.71,2A2.73,2.73,0,0,0,885.16,59.77Z"/><path class="eu-blue" d="M907.45,61.49V51.24a6,6,0,0,0-.64-3.24,2.69,2.69,0,0,0-2.32-.89,3.23,3.23,0,0,0-2.72,1.31,6.05,6.05,0,0,0-1,3.7v9.37H898.1V48.78q0-2.82-.09-3.45h2.54a3.8,3.8,0,0,1,0,.4c0,.22,0,.48,0,.76s0,.82,0,1.6h0a5.69,5.69,0,0,1,2-2.39,5.31,5.31,0,0,1,2.73-.67,5.13,5.13,0,0,1,2.91.73,3.91,3.91,0,0,1,1.48,2.33h0a5.63,5.63,0,0,1,2-2.34,5.44,5.44,0,0,1,2.87-.72,4.43,4.43,0,0,1,3.57,1.33,6.81,6.81,0,0,1,1.11,4.36V61.49h-2.66V51.24a5.88,5.88,0,0,0-.64-3.24,2.69,2.69,0,0,0-2.32-.89,3.24,3.24,0,0,0-2.74,1.3,6.13,6.13,0,0,0-1,3.71v9.37Z"/><path class="eu-blue" d="M933.53,61.49V51.24a5.88,5.88,0,0,0-.64-3.24,2.68,2.68,0,0,0-2.31-.89,3.22,3.22,0,0,0-2.72,1.31,6,6,0,0,0-1,3.7v9.37h-2.67V48.78q0-2.82-.09-3.45h2.53a3.8,3.8,0,0,1,0,.4c0,.22,0,.48,0,.76s0,.82,0,1.6h0a5.75,5.75,0,0,1,2-2.39,5.32,5.32,0,0,1,2.74-.67,5.12,5.12,0,0,1,2.9.73,3.92,3.92,0,0,1,1.49,2.33h0a5.7,5.7,0,0,1,2-2.34,5.47,5.47,0,0,1,2.88-.72,4.41,4.41,0,0,1,3.56,1.33,6.81,6.81,0,0,1,1.11,4.36V61.49h-2.66V51.24a5.88,5.88,0,0,0-.64-3.24,2.68,2.68,0,0,0-2.31-.89,3.21,3.21,0,0,0-2.74,1.3,6.13,6.13,0,0,0-1,3.71v9.37Z"/><path class="eu-blue" d="M952.27,54a6.9,6.9,0,0,0,1.15,4.28,3.94,3.94,0,0,0,3.36,1.51,5,5,0,0,0,2.8-.7A3.5,3.5,0,0,0,961,57.29l2.36.67q-1.46,3.82-6.58,3.82a6.89,6.89,0,0,1-5.46-2.13q-1.87-2.13-1.87-6.35a9,9,0,0,1,1.87-6.13A6.72,6.72,0,0,1,956.67,45q7.13,0,7.12,8.59V54ZM961,51.92a6.28,6.28,0,0,0-1.3-3.73A4,4,0,0,0,956.63,47a3.87,3.87,0,0,0-3.1,1.31,5.61,5.61,0,0,0-1.23,3.59Z"/><path class="eu-blue" d="M577,88.34c0,2.83-.63,4.93-1.87,6.32a6.92,6.92,0,0,1-5.42,2.07,6.55,6.55,0,0,1-5.34-2.16c-1.21-1.44-1.81-3.51-1.81-6.23q0-8.36,7.24-8.36,3.7,0,5.45,2C576.43,83.37,577,85.48,577,88.34Zm-2.83,0a9.15,9.15,0,0,0-1-4.86A3.68,3.68,0,0,0,569.86,82a3.84,3.84,0,0,0-3.41,1.55,8.74,8.74,0,0,0-1.05,4.83,9,9,0,0,0,1,4.8,3.6,3.6,0,0,0,3.26,1.6,3.85,3.85,0,0,0,3.46-1.55A8.9,8.9,0,0,0,574.19,88.34Z"/><path class="eu-blue" d="M584.3,82.23v14.2h-2.68V82.23h-2.27v-2h2.27V78.46a4.34,4.34,0,0,1,1-3.18,4,4,0,0,1,3-1,8.53,8.53,0,0,1,1.89.18v2a6.75,6.75,0,0,0-1.19-.12,1.87,1.87,0,0,0-1.49.52,2.91,2.91,0,0,0-.47,1.9v1.45h3.15v2Z"/><path class="eu-blue" d="M605.4,96.31a10.36,10.36,0,0,1-2.72.36q-3.23,0-3.22-3.66V82.23h-1.87v-2h2l.79-3.62h1.79v3.62h3v2h-3v10.2a2.65,2.65,0,0,0,.38,1.63,1.61,1.61,0,0,0,1.32.48,8.4,8.4,0,0,0,1.56-.21Z"/><path class="eu-blue" d="M611,83A5.28,5.28,0,0,1,616.13,80a5.15,5.15,0,0,1,3.88,1.3c.83.88,1.24,2.34,1.24,4.39V96.43h-2.7V86.19a7.57,7.57,0,0,0-.31-2.53,2.23,2.23,0,0,0-1-1.22,4.21,4.21,0,0,0-2-.39,3.83,3.83,0,0,0-3,1.32A5.19,5.19,0,0,0,611,86.91v9.52h-2.69V74.27H611V80c0,.61,0,1.23,0,1.88s-.06,1-.07,1.12Z"/><path class="eu-blue" d="M628,88.92a7,7,0,0,0,1.15,4.29,4,4,0,0,0,3.36,1.5,4.94,4.94,0,0,0,2.8-.7,3.5,3.5,0,0,0,1.43-1.77l2.36.67c-1,2.55-3.16,3.82-6.59,3.82A6.85,6.85,0,0,1,627,94.6c-1.25-1.43-1.88-3.54-1.88-6.35A9,9,0,0,1,627,82.11,6.73,6.73,0,0,1,632.38,80q7.13,0,7.12,8.58v.36Zm8.75-2.06a6.27,6.27,0,0,0-1.3-3.73A4,4,0,0,0,632.33,82a3.88,3.88,0,0,0-3.09,1.31A5.58,5.58,0,0,0,628,86.86Z"/><path class="eu-blue" d="M653.08,96.43v-21h16v2.33h-13.1v6.75h12.21v2.3H655.94V94.1h13.72v2.33Z"/><path class="eu-blue" d="M676.27,80.28V90.52a8,8,0,0,0,.31,2.48,2.32,2.32,0,0,0,1,1.27,4.33,4.33,0,0,0,2,.39,3.8,3.8,0,0,0,3.06-1.33,5.55,5.55,0,0,0,1.12-3.69V80.28h2.69V93q0,2.82.09,3.45H684a3.8,3.8,0,0,1,0-.4c0-.22,0-.47,0-.75s0-.82-.05-1.61h0A6,6,0,0,1,681.71,96a6,6,0,0,1-3,.69,5.1,5.1,0,0,1-3.89-1.32c-.82-.88-1.23-2.34-1.23-4.37V80.28Z"/><path class="eu-blue" d="M691.32,96.43V84c0-1.14,0-2.39-.09-3.76h2.54q.12,2.75.12,3.3H694a6.58,6.58,0,0,1,1.47-2.84,3.38,3.38,0,0,1,2.36-.76,4.15,4.15,0,0,1,1.09.15v2.46a5.43,5.43,0,0,0-1.43-.15,2.8,2.8,0,0,0-2.55,1.44A8,8,0,0,0,694,88v8.42Z"/><path class="eu-blue" d="M715.72,88.34c0,2.83-.63,4.93-1.87,6.32a6.92,6.92,0,0,1-5.42,2.07,6.59,6.59,0,0,1-5.35-2.16,9.48,9.48,0,0,1-1.8-6.23q0-8.36,7.24-8.36c2.47,0,4.28.68,5.45,2S715.72,85.48,715.72,88.34Zm-2.83,0a9.15,9.15,0,0,0-1-4.86A3.68,3.68,0,0,0,708.56,82a3.83,3.83,0,0,0-3.41,1.55,8.74,8.74,0,0,0-1,4.83,9,9,0,0,0,1,4.8,3.6,3.6,0,0,0,3.26,1.6,3.85,3.85,0,0,0,3.46-1.55A8.9,8.9,0,0,0,712.89,88.34Z"/><path class="eu-blue" d="M733.33,88.28q0,8.44-5.94,8.45-3.74,0-5-2.81h-.07a22.53,22.53,0,0,1,.06,2.54v6.32h-2.69V83.58q0-2.51-.09-3.3h2.6a3.81,3.81,0,0,1,.05.42c0,.25,0,.62.06,1.13s0,.85,0,1h.06a4.89,4.89,0,0,1,1.9-2.18,6.08,6.08,0,0,1,3.1-.7,5.22,5.22,0,0,1,4.47,2C732.84,83.33,733.33,85.42,733.33,88.28Zm-2.82.06a9.43,9.43,0,0,0-.91-4.82,3.16,3.16,0,0,0-2.9-1.45,3.56,3.56,0,0,0-3.87,2.77,12.23,12.23,0,0,0-.47,3.71,8.62,8.62,0,0,0,1,4.69,3.7,3.7,0,0,0,3.3,1.5,3.18,3.18,0,0,0,2.92-1.47A9.79,9.79,0,0,0,730.51,88.34Z"/><path class="eu-blue" d="M739.35,88.92a7,7,0,0,0,1.15,4.29,4,4,0,0,0,3.36,1.5,5,5,0,0,0,2.8-.7,3.5,3.5,0,0,0,1.43-1.77l2.35.67c-1,2.55-3.16,3.82-6.58,3.82a6.89,6.89,0,0,1-5.46-2.13c-1.25-1.43-1.87-3.54-1.87-6.35a9,9,0,0,1,1.87-6.14A6.77,6.77,0,0,1,743.76,80q7.11,0,7.12,8.58v.36Zm8.75-2.06a6.27,6.27,0,0,0-1.3-3.73A4,4,0,0,0,743.71,82a3.92,3.92,0,0,0-3.1,1.31,5.63,5.63,0,0,0-1.23,3.59Z"/><path class="eu-blue" d="M759,96.73a4.38,4.38,0,0,1-4.89-4.81,4.72,4.72,0,0,1,1.65-3.85c1.1-.9,2.88-1.37,5.33-1.43l3.63-.06V85.7a3.94,3.94,0,0,0-.84-2.83,3.58,3.58,0,0,0-2.63-.85,4.45,4.45,0,0,0-2.63.62,2.72,2.72,0,0,0-1,2l-2.81-.25q.69-4.36,6.48-4.36a6.65,6.65,0,0,1,4.59,1.39,5.21,5.21,0,0,1,1.53,4v7a4,4,0,0,0,.32,1.8,1.21,1.21,0,0,0,1.19.6,4.23,4.23,0,0,0,.88-.1v1.67a8.94,8.94,0,0,1-2.07.24,2.72,2.72,0,0,1-2.17-.78,3.93,3.93,0,0,1-.77-2.46h-.09a6.5,6.5,0,0,1-2.4,2.62A6.71,6.71,0,0,1,759,96.73Zm.61-2a5.12,5.12,0,0,0,2.63-.67,5.08,5.08,0,0,0,2.48-4.25V88.46l-3,.06a9.17,9.17,0,0,0-2.87.39,3,3,0,0,0-1.5,1.1,3.34,3.34,0,0,0-.52,2,2.75,2.75,0,0,0,.71,2A2.69,2.69,0,0,0,759.64,94.71Z"/><path class="eu-blue" d="M782.78,96.43V86.19a7.72,7.72,0,0,0-.31-2.48,2.24,2.24,0,0,0-1-1.27,4.18,4.18,0,0,0-2-.39,3.82,3.82,0,0,0-3.06,1.33,5.55,5.55,0,0,0-1.12,3.69v9.36h-2.69V83.73q0-2.83-.09-3.45H775a3.8,3.8,0,0,1,0,.4c0,.22,0,.47,0,.75s0,.82,0,1.61h.05a5.83,5.83,0,0,1,2.14-2.37,6,6,0,0,1,3-.69,5.08,5.08,0,0,1,3.89,1.32c.82.88,1.23,2.34,1.23,4.37V96.43Z"/><path class="eu-blue" d="M808.1,96.73a10.15,10.15,0,0,1-4.51-.94,6.92,6.92,0,0,1-3-2.73,8.22,8.22,0,0,1-1.06-4.27V75.39h2.85V88.55a6,6,0,0,0,1.46,4.37,5.66,5.66,0,0,0,4.23,1.5,5.46,5.46,0,0,0,6-6.07v-13h2.83V88.52a8.57,8.57,0,0,1-1.08,4.4,7,7,0,0,1-3.06,2.83A10.44,10.44,0,0,1,808.1,96.73Z"/><path class="eu-blue" d="M832.2,96.43V86.19a7.72,7.72,0,0,0-.31-2.48,2.29,2.29,0,0,0-1-1.27,4.18,4.18,0,0,0-2-.39,3.82,3.82,0,0,0-3.06,1.33,5.55,5.55,0,0,0-1.12,3.69v9.36H822V83.73q0-2.83-.09-3.45h2.54a3.8,3.8,0,0,1,0,.4c0,.22,0,.47,0,.75s0,.82.05,1.61h0a5.83,5.83,0,0,1,2.14-2.37,6,6,0,0,1,3-.69,5.1,5.1,0,0,1,3.89,1.32c.82.88,1.23,2.34,1.23,4.37V96.43Z"/><path class="eu-blue" d="M839.55,76.84V74.27h2.68v2.57Zm0,19.59V80.28h2.68V96.43Z"/><path class="eu-blue" d="M860.63,88.34c0,2.83-.63,4.93-1.87,6.32a6.92,6.92,0,0,1-5.42,2.07A6.55,6.55,0,0,1,848,94.57c-1.21-1.44-1.81-3.51-1.81-6.23q0-8.36,7.24-8.36,3.71,0,5.45,2T860.63,88.34Zm-2.82,0a9,9,0,0,0-1-4.86A3.68,3.68,0,0,0,853.48,82a3.85,3.85,0,0,0-3.42,1.55,8.74,8.74,0,0,0-1,4.83,9,9,0,0,0,1,4.8,3.6,3.6,0,0,0,3.26,1.6,3.84,3.84,0,0,0,3.46-1.55A8.89,8.89,0,0,0,857.81,88.34Z"/><path class="eu-blue" d="M874.84,96.43V86.19a7.72,7.72,0,0,0-.31-2.48,2.29,2.29,0,0,0-1-1.27,4.18,4.18,0,0,0-2-.39,3.82,3.82,0,0,0-3.06,1.33,5.55,5.55,0,0,0-1.12,3.69v9.36h-2.69V83.73q0-2.83-.09-3.45h2.54a3.8,3.8,0,0,1,0,.4c0,.22,0,.47,0,.75s0,.82.05,1.61h0a5.91,5.91,0,0,1,2.15-2.37,6,6,0,0,1,3-.69,5.1,5.1,0,0,1,3.89,1.32c.82.88,1.23,2.34,1.23,4.37V96.43Z"/></g></svg>
