<?xml version="1.0" encoding="utf-8"?>
<!-- Generator: Adobe Illustrator 24.2.0, SVG Export Plug-In . SVG Version: 6.00 Build 0)  -->
<svg version="1.1" id="Layer_1" xmlns="http://www.w3.org/2000/svg" xmlns:xlink="http://www.w3.org/1999/xlink" x="0px" y="0px"
	 viewBox="0 0 219.2 129.2" style="enable-background:new 0 0 219.2 129.2;" xml:space="preserve">
<g>
	<path d="M36,0c0.2,0.6,0.4,1.3,0.6,1.9c0.3,0.9,0.7,1.9,1,2.8c0.3,0.9,0.6,1.9,0.9,2.8c0.5,1.5,1.1,3,1.6,4.6
		c0.5,1.3,0.8,2.6,1.3,3.9c0.4,1.1,0.7,2.3,1.2,3.4c0.5,1.2,0.8,2.5,1.3,3.8c0.4,1.1,0.7,2.3,1.2,3.4c0.5,1.2,0.8,2.5,1.3,3.8
		c0.5,1.3,0.8,2.6,1.3,3.9c0.4,1.1,0.7,2.2,1.2,3.3c0.5,1.3,0.8,2.6,1.3,3.9c0.4,1.1,0.7,2.2,1.2,3.3c0.5,1.3,0.9,2.6,1.3,3.9
		c0.5,1.3,0.8,2.6,1.3,3.9c0.5,1.3,0.9,2.7,1.4,4c0.4,0.8,0.6,1.7,0.9,2.6c0.3,1.1,0.8,2.2,1.1,3.3c0.5,1.5,1,3,1.5,4.5
		c0.5,1.3,0.9,2.7,1.4,4c0.4,1,0.7,2.1,1.1,3.2c0.3,0.8,0.6,1.6,0.9,2.4c-0.1,0-0.2,0-0.4,0c-0.3-0.5-0.4-1.1-0.6-1.7
		c-0.3-0.8-0.5-1.6-0.8-2.3c-0.3-0.7-0.5-1.5-0.8-2.2c-0.4-0.9-0.6-1.8-0.9-2.7c-0.3-0.8-0.5-1.5-0.8-2.3c-0.3-0.7-0.4-1.6-0.9-2.2
		c-0.2-0.9-0.6-1.8-0.9-2.7c-0.2-0.8-0.5-1.5-0.8-2.3c-0.3-0.7-0.4-1.6-0.8-2.2c-0.3-1.1-0.7-2.1-1-3.2c-0.2-0.7-0.5-1.4-0.7-2
		c-0.2-0.7-0.5-1.3-0.7-2c-0.3-0.9-0.6-1.8-0.9-2.7c-0.3-0.9-0.6-1.9-0.9-2.8c-0.6-1.7-1.2-3.3-1.7-5c-0.4-1.3-0.8-2.6-1.3-3.9
		c-0.4-1.1-0.7-2.2-1.2-3.3c-0.5-1.3-0.9-2.6-1.3-3.9c-0.4-1.1-0.7-2.3-1.2-3.4c-0.5-1.2-0.8-2.6-1.3-3.8c-0.6-1.4-0.9-2.9-1.5-4.3
		c-0.4-0.9-0.6-1.8-1-2.8c-0.3-0.9-0.6-1.9-0.9-2.8c-0.5-1.5-1.1-3-1.6-4.6C37,4,36.6,2.7,36.2,1.5c-0.1-0.3-0.2-0.6-0.3-0.8
		c-0.2-0.3,0-0.4,0.1-0.6C35.9,0,36,0,36,0z"/>
	<path d="M14.5,13.7c0.1,0.1,0.2,0.1,0.3,0.2c0.8,0.7,1.3,1.6,1.7,2.5c0.6,1.2,1.1,2.4,1.5,3.7c0.1,0.4,0.3,0.8,0.5,1.3
		c0.3,1,0.6,2,0.9,3c0.3,1.5,0.6,2.9,1.1,4.3c0.3,1,0.5,2,0.8,3c0.1,0.3,0.1,0.6,0.2,1c0.1,0.6,0.3,1.2,0.4,1.8
		c0.1,0.3,0.1,0.7,0.2,1c0.1,0.8,0.3,1.5,0.6,2.2c0.3,0.7,0.6,1.3,0.9,2c0.5,0.9,1,1.9,1.5,2.8c0.3,0.6,0.5,1.3,0.8,2
		c-0.1,0.5,0.2,0.9,0.3,1.3c0.1,0.5,0.4,0.9,0.7,1.3c0.5,0.7,1.2,1.2,2,1.7c0.1,0.1,0.3,0,0.4,0.1c0.2,0.3,0.6-0.1,0.9,0.3
		c0.3-0.1,0.6,0.1,0.9-0.1c0.4,0.1,0.8,0,1.2-0.2c0.6-0.2,1.1-0.5,1.6-0.8c0.5-0.3,0.9-0.7,1.2-1.1c0.3-0.4,0.5-0.8,0.7-1.3
		c0.1-0.5,0.2-0.9,0.1-1.3c-0.1-0.3-0.1-0.6-0.1-0.8c-0.1-0.2-0.1-0.3-0.2-0.4c-0.3-0.8-1-1.3-1.7-1.7c-0.5-0.2-0.9-0.5-1.4-0.7
		c-0.8-0.3-1.3-0.8-1.8-1.5c-0.3-0.5-0.6-0.9-0.8-1.4c-0.3-0.8-0.2-0.9,0.4-1.5c0.2,0,0.5,0,0.8,0c0.3,0.3,0.6,0.6,1,0.9
		c0.6,0.4,0.8,0.5,1.9,0.5c0.5-0.4,1.1-0.3,1.7-0.6c0.5,0.2,1.2,0.2,1.6,0.8c0,4.5,0,9.1,0,13.7c-0.3,0.1-0.5,0-0.7-0.1
		c-0.2-0.1-0.5,0-0.7-0.1c-0.3-0.1-0.7-0.2-1-0.2c-0.5-0.1-1-0.1-1.5-0.1c-0.5,0-1,0-1.5,0c-0.9,0-1.7,0.4-2.5,0.9
		c-1.1,0.7-1.8,2.3-2.2,3.4c-0.1,0.3,0,0.5-0.1,0.8c-0.2,0.4-0.1,0.9-0.2,1.4c0.3,0.4,0.7,0.6,1.1,0.8c1.3,0.7,2.6,1.3,4,1.7
		c0.8,0.2,1.5,0.4,2.3,0.6c1,0.2,2,0.3,3,0.3c0,1.5,0,2.9,0,4.4c-0.4,0-0.7-0.1-1.1-0.1c-0.5,0-1-0.2-1.5-0.4
		c-0.8-0.2-1.6-0.6-2.3-1c-0.6-0.3-1.2-0.7-1.7-1.1c-0.8-0.6-1.6-1.3-2.3-2c-0.7-0.7-1.3-1.4-1.8-2.2c-0.3-0.4-0.5-0.9-0.5-1.5
		c0-0.3-0.1-0.6-0.1-0.9c0-0.3-0.2-0.6-0.2-1c0.1-0.3,0.1-0.7,0-1c-0.2-0.6,0-1.2-0.2-1.8c-0.1-0.5-0.1-1-0.1-1.5
		c-0.1-0.7-0.2-1.4-0.5-2.1c-0.3-0.8-0.7-1.6-1.1-2.4c-0.4-0.8-0.9-1.5-1.4-2.3c-0.4-0.7-0.8-1.5-1.1-2.3c-0.4-0.9-0.6-1.9-1-2.8
		c-0.2-0.5-0.2-1-0.4-1.5c-0.2-0.7-0.3-1.5-0.6-2.3c-0.1-0.3,0-0.6-0.2-0.9c-0.1-0.4-0.1-0.8-0.2-1.2c-0.2-0.6-0.2-1.2-0.4-1.7
		c-0.1-0.3,0-0.7-0.2-1c-0.1-0.3-0.1-0.7-0.2-1c-0.1-0.3,0-0.7-0.3-0.9c0-0.6-0.2-1.1-0.3-1.6c-0.1-0.3,0-0.7-0.2-1
		c-0.2-0.3-0.1-0.7-0.3-1c-0.2-0.3-0.1-0.6-0.2-1c-0.2-0.7-0.3-1.4-0.5-2c-0.2-0.6-0.2-1.1-0.4-1.7c-0.1-0.5-0.3-1-0.3-1.5
		c-0.1-0.5-0.1-1-0.4-1.4c0.1-0.5-0.3-0.9-0.3-1.4c0-0.5-0.3-0.9-0.4-1.4c0-0.2-0.1-0.3-0.2-0.4C14.4,13.7,14.4,13.7,14.5,13.7z"/>
	<path d="M128.6,20.3c0-1.8,0-3.6,0-5.4c0.1-0.1,0.1-0.1,0.2-0.2c0.3,0,0.7,0.1,1,0c0.4-0.2,0.7-0.1,1.1-0.1c0.3-0.1,0.7-0.1,1-0.2
		c0.1,0.1,0.2,0.2,0.2,0.2c0,7,0,13.9,0,21c-0.8,0-1.7,0-2.6,0c-0.2-0.3-0.4-0.6-0.6-1c-0.5,0.3-1,0.6-1.5,0.8
		c-0.6,0.3-1.2,0.5-1.9,0.5c-0.4,0-0.9,0-1.3,0c-0.7,0-1.4-0.3-2.1-0.5c-0.6-0.2-1-0.6-1.5-1c-1-1-1.7-2.2-1.9-3.6
		c-0.3-0.4-0.1-0.9-0.3-1.4c-0.2-0.4-0.1-1,0-1.5c0.1-0.5,0.1-1,0.2-1.5c0.1-0.5,0.2-0.9,0.4-1.4c0.3-1,0.8-1.9,1.5-2.6
		c0.6-0.7,1.3-1.2,2.2-1.6c0.8-0.3,1.6-0.6,2.4-0.7c0.6-0.1,1.2-0.1,1.8-0.1c0.4,0,0.7-0.1,1.1,0.1C128,20.4,128.3,20.3,128.6,20.3z
		 M128.6,23.7c-0.5-0.1-1-0.2-1.5-0.3c-0.4,0-0.9,0-1.3,0c-0.4,0-0.7,0-1,0.2c-1.1,0.4-1.9,1-2.4,2c-0.3,0.7-0.5,1.5-0.5,2.2
		c-0.1,0.6,0.1,1.1,0.1,1.7c0,0.1,0.1,0.1,0.1,0.2c0.1,0.7,0.4,1.2,0.8,1.7c0.6,0.8,1.4,1.2,2.5,1.3c0.5,0,1,0,1.4-0.2
		c0.6-0.2,1.3-0.3,1.8-0.8C128.6,29.1,128.6,26.4,128.6,23.7z"/>
	<path d="M95,34.4c-0.5,0.3-1,0.6-1.5,0.9c-0.6,0.3-1.4,0.5-2.1,0.5c-0.4,0-0.8,0-1.3,0c-1.3-0.1-2.5-0.5-3.4-1.6
		c-0.4-0.4-0.6-1-0.7-1.5C86.1,32.4,86,32,86,31.6c0-0.2-0.1-0.4-0.1-0.5c0-0.2,0.2-0.5,0.1-0.7c0-0.2-0.1-0.5,0.1-0.7
		c0.1-0.2,0.1-0.5,0.2-0.7c0.4-0.7,1-1.3,1.8-1.6c0.9-0.3,1.7-0.5,2.6-0.4c1.2,0,2.4,0,3.6,0c0.1-0.8,0-1.6-0.4-2.3
		c-0.3-0.6-0.8-0.9-1.4-1.1c-0.2-0.1-0.4-0.1-0.6-0.1c-0.4,0-0.8-0.1-1.2,0c-0.9,0.2-1.7,0.3-2.5,0.7c-0.3,0.1-0.5,0.2-0.9,0.4
		c-0.3-1-0.5-2-0.8-3c0.7-0.2,1.3-0.5,2-0.7c0.5-0.1,0.9-0.2,1.4-0.4c0,0,0.1,0,0.1,0c0.9-0.1,1.9-0.2,2.8-0.1
		c1,0.1,2.1,0.3,2.9,0.9c0.5,0.3,0.9,0.8,1.3,1.2c0.3,0.4,0.5,0.9,0.6,1.4c0.1,0.4,0.2,0.9,0.2,1.4c0,2.2,0,4.3,0,6.4
		c0.4,1.1,1.3,1.4,2.2,1.7c-0.5,0.9-1,1.8-1.5,2.7C97.1,36.1,96,35.3,95,34.4z M94.4,29.6c-1.1,0-2.1,0-3.1,0c-0.3,0-0.7,0.1-1,0.1
		c-0.5,0.1-1,0.8-1,1.3c0,0.3,0,0.5,0,0.8c0.4,0.7,0.4,0.7,1.3,1.3c0.4,0,0.9,0,1.3,0c1,0,1.8-0.7,2.2-1.4c0-0.1,0.1-0.2,0.1-0.3
		C94.5,30.8,94.5,30.2,94.4,29.6z"/>
	<path d="M147.9,29.3c-3.1,0-6.2,0-9.3,0c0.5,1.4,0.6,2.1,2.8,3.2c2,0.5,3.8,0.2,5.6-0.8c0,0,0,0,0,0c0,0,0,0,0,0.1
		c0,1.1,0,2.2,0,3.4c-0.8,0.3-1.6,0.5-2.4,0.7c-1,0.2-2.1,0.1-3.1,0.1c-0.7,0-1.3-0.2-1.9-0.5c-0.9-0.4-1.8-0.9-2.6-1.6
		c-0.8-0.8-1.3-1.7-1.6-2.8c-0.1-0.3-0.3-0.6-0.3-0.8c0-0.6-0.2-1.2-0.2-1.9c0-0.4,0-0.8,0-1.2c0-0.3,0.1-0.7,0.1-1
		c0.4-1.4,0.8-2.7,1.9-3.8c0.5-0.5,1-1.1,1.7-1.4c0.5-0.2,1-0.4,1.5-0.6c0,0,0.1,0,0.1,0c0.6,0,1.3-0.3,1.9-0.1
		c0.8,0.1,1.5,0.2,2.3,0.6c0.8,0.3,1.4,0.8,2,1.4c0.5,0.6,0.8,1.3,1,2c0.2,0.6,0.3,1.2,0.3,1.8c0.1,0.5,0.1,1.1,0.1,1.6
		C147.9,28.1,147.9,28.7,147.9,29.3z M144.6,26.6c0.1-0.7-0.2-1.3-0.5-1.8c-0.3-0.6-0.4-0.6-1.4-1.1c-0.2-0.1-0.3-0.1-0.5-0.1
		c-0.3,0-0.6,0-1,0c-0.5,0-1,0.2-1.3,0.5c-0.1,0.1-0.3,0.2-0.4,0.3c-0.1,0.1-0.2,0.3-0.4,0.4c-0.3,0.4-0.6,1.3-0.6,1.8
		C140.6,26.6,142.6,26.6,144.6,26.6z"/>
	<path d="M105.5,35.6c-1.2,0-2.4,0-3.5,0c0-5,0-10.1,0-15.1c0.9,0,1.9,0,2.9,0c0.3,0.3,0.2,0.7,0.4,1.1c0.8-0.4,1.6-0.9,2.4-1.1
		c0.4-0.1,0.7-0.2,1.1-0.2c0.2,0,0.4-0.1,0.7-0.1c0.2,0,0.5,0,0.7,0c1.1,0,2.1,0.3,3.1,0.8c0.6,0.3,1,0.8,1.4,1.3
		c0.4,0.6,0.8,1.3,0.9,2.1c0.2,0.9,0.1,1.9,0.1,2.8c0,0.9,0,1.9,0,2.8c0,1.9,0,3.7,0,5.6c-1.1,0.1-2.2,0-3.4,0c0-0.3,0-0.5,0-0.8
		c0-2.7,0-5.4,0-8.1c0-0.5-0.1-1-0.3-1.4c-0.1-0.3-0.4-0.8-0.5-0.9c-0.6-0.5-1.2-0.9-2.1-0.9c-0.4,0-0.9,0-1.3,0
		c-0.5,0-1,0.1-1.5,0.3c-0.3,0.1-0.7,0.3-1,0.4C105.5,28,105.5,31.8,105.5,35.6z"/>
	<path d="M69.1,19.7c0,1.6,0,3.1,0,4.7c2.7,0,5.3,0,8,0c0,1.1,0,2.2,0,3.2c-2.7,0-5.3,0-8,0c0,2.7,0,5.3,0,7.9c-1.1,0-2.2,0-3.4,0
		c0-6.4,0-12.8,0-19.2c3.9,0,7.8,0,11.7,0c0,0,0,0,0,0c0,0,0,0,0,0.1c0,1.1,0,2.1,0,3.2C74.7,19.7,72,19.7,69.1,19.7z"/>
	<path d="M21.7,62.8c-0.1,0.1-0.1,0.1-0.2,0.2c0,0-0.1,0-0.1-0.1c-0.1-0.1-0.1-0.3-0.2-0.3c-0.8-0.8-1.8-1.4-2.7-2.1
		c-0.6-0.5-1.3-0.9-1.9-1.4c-0.5-0.3-0.9-0.8-1.3-1.2c-0.5-0.4-0.9-1-1.4-1.4c-0.3-0.3-0.6-0.7-0.8-1.1c-0.4-0.8-0.9-1.6-1.1-2.4
		c-0.1-0.5-0.2-1.1-0.4-1.6c-0.2-0.6-0.1-1.2-0.1-1.8c0-0.2-0.1-0.4-0.1-0.6c-0.1-0.4,0.2-0.8,0.1-1.2c0-0.4-0.1-0.8,0-1.2
		c0.1-0.6,0.2-1.2,0.3-1.8c0-0.2,0.1-0.3,0.1-0.5c0.3-1.5,0.8-3,1.3-4.5c0.4-1.1,0.7-2.2,1-3.4c0.1-0.7,0.3-1.4,0.4-2.1
		c0-0.3,0.1-0.7,0.2-1c0.1-0.3,0.1-0.7,0.1-1c0-0.4,0-0.7,0-1.1c0.5,0.4,0.6,0.9,0.9,1.3c0.3,0.4,0.3,1,0.4,1.4c0.2,0.5,0,1,0.2,1.4
		c0.2,0.7,0.1,1.5,0.1,2.2c0,0.6-0.1,1.2-0.2,1.8c-0.1,0.6-0.1,1.2-0.3,1.7c-0.1,0.4-0.2,0.9-0.3,1.3c-0.1,0.4-0.2,0.8-0.3,1.2
		c-0.1,0.3-0.2,0.6-0.2,1c0.1,0.6-0.2,1.2-0.2,1.8c0,0.6,0,1.2,0,1.8c0,0.4-0.1,0.7,0.1,1.1c0.1,0.3,0.1,0.7,0.1,1.1
		c0.1,0.7,0.3,1.3,0.5,1.9c0.4,1,0.8,2,1.5,2.8c0.5,0.6,1,1.2,1.6,1.9c0.9,1.1,1.7,2.3,2.4,3.6c0.1,0.3,0.2,0.5,0.3,0.8
		C21.7,61.9,21.8,62.3,21.7,62.8z"/>
	<path d="M19.4,129.2c-0.2,0-0.3,0-0.5,0c-0.9,0-1.6-0.3-2.4-0.6c-1-0.4-1.7-1.2-2.4-1.9c-0.5-0.6-1-1.6-1.2-2.5
		c-0.2-0.6-0.3-1.2-0.3-1.8c0-0.4,0-0.9,0-1.3c0-0.8,0.2-1.6,0.5-2.4c0.2-0.5,0.5-1,0.8-1.5c0.3-0.5,0.8-0.8,1.1-1.2
		c0.4-0.5,0.9-0.8,1.5-1.1c0.6-0.3,1.2-0.5,1.8-0.6c0.6-0.1,1.1-0.1,1.6-0.1c0.2,0,0.4-0.1,0.6,0c0.4,0.2,1,0.2,1.4,0.3
		c0.5,0.2,1,0.4,1.4,0.7c0.5,0.4,1,0.7,1.3,1.3c0.2,0.4,0.5,0.6,0.7,1c0.4,0.8,0.6,1.3,0.8,2.2c0.1,0.3,0.1,0.7,0.1,1
		c0.1,0.3,0.2,0.6,0.1,0.9c-0.1,1.2-0.1,2.3-0.7,3.4c0,0.4-0.3,0.6-0.4,0.9c-0.1,0.3-0.4,0.6-0.6,0.9c-0.3,0.6-0.9,0.8-1.3,1.3
		c-0.3,0.3-1.8,0.9-2.2,1C20.6,129.2,20,129.2,19.4,129.2z M15.1,121.6c0,0.2,0,0.4,0,0.6c-0.1,0.8,0.3,1.4,0.4,2.2
		c0.5,0.7,0.9,1.5,1.8,1.9c0.5,0.2,1,0.5,1.6,0.4c0.4,0,0.8,0,1.2,0c0.7,0,1.4-0.3,1.9-0.7c1.2-0.8,1.6-2.1,1.7-3.5
		c0.1-0.7,0.1-1.5-0.1-2.2c-0.2-0.5-0.2-1-0.5-1.4c-0.4-0.6-0.9-1.2-1.5-1.5c-1.1-0.6-2.2-0.9-3.4-0.5c-1,0.3-1.7,1-2.3,1.7
		c-0.2,0.2-0.4,0.5-0.5,0.8c-0.1,0.6-0.4,1.1-0.3,1.7C15.2,121.2,15.1,121.4,15.1,121.6z"/>
	<path d="M170.5,20.8c0,1,0,2,0,3c-0.1,0.1-0.1,0.1-0.2,0.2c0,0-0.1,0-0.1,0c-1.8-0.6-1.3-0.5-2.7-0.5c-0.1,0-0.2,0-0.3,0
		c-0.3,0-0.6,0-0.9,0.1c-0.3,0.1-0.5,0.2-0.7,0.4c-0.6,0.6-0.5,1.2,0.2,1.6c0.5,0.3,1.1,0.5,1.7,0.7c0.9,0.3,1.7,0.6,2.5,1.2
		c0.5,0.1,0.7,0.6,1,1c0.4,0.6,0.6,1.3,0.6,2c0,0.3,0,0.5,0,0.8c-0.1,1.6-0.8,2.9-2.3,3.7c-0.4,0.2-0.9,0.5-1.4,0.6
		c-0.4,0.1-0.8,0.2-1.3,0.3c-0.4,0-0.8,0-1.2,0c-1.2,0.1-2.2-0.3-3.3-0.8c-0.1,0-0.2-0.1-0.3-0.1c0-1.1,0-2.2,0-3.4
		c0.5,0.2,0.9,0.4,1.3,0.5c0.7,0.3,1.5,0.5,2.3,0.5c0.4,0,0.8,0.1,1.3-0.1c0.6-0.2,1.1-0.5,1.4-1c0-0.3,0-0.7,0-1.2
		c-0.3-0.7-1-1-1.7-1.3c-0.9-0.3-1.8-0.6-2.7-1c-0.9-0.4-1.4-1.1-1.8-2c-0.3-0.6-0.2-1.7,0-2.5c0.3-1.1,0.5-1.6,1.1-2.2
		c0.4-0.4,1.2-0.8,1.9-1c0.8-0.2,2.3-0.4,3-0.3c0.7,0.2,1.4,0.2,2,0.4C170.1,20.7,170.3,20.7,170.5,20.8z"/>
	<path d="M48.5,114.5c0,2,0,4,0,6c2,0,4,0,6,0c0-2,0-4,0-6c0.9,0,1.8,0,2.6,0c0,4.8,0,9.6,0,14.5c-0.8,0.1-1.7,0-2.6,0c0-2,0-4,0-6
		c-2,0-4,0-6,0c0,2,0,4,0,6c-0.9,0-1.8,0-2.6,0c0-4.8,0-9.7,0-14.5C46.8,114.5,47.6,114.5,48.5,114.5z"/>
	<path d="M115.7,129c-0.9,0-1.8,0-2.8,0c-0.4-1-0.6-2-1.1-3c-1.9,0-3.7,0-5.6,0c-0.3,1-0.7,2-1.1,3c-0.9,0-1.8,0-2.7,0
		c1.7-4.9,3.4-9.9,5.1-14.8c1,0,2,0,3,0C112.2,119.1,113.9,124,115.7,129z M109,117.8c-0.4,1-0.7,1.9-1,2.9c-0.3,0.9-0.7,1.8-1,2.8
		c1.3,0,2.5,0,3.7,0c0,0,0,0,0.1,0c0,0,0,0,0.1-0.1C110.3,121.5,109.7,119.7,109,117.8z"/>
	<path d="M80.5,124.6c0.1,0.3,0.2,0.5,0.3,0.7c0.5,0.9,1.2,1.3,2.2,1.4c0.4,0,0.9,0,1.3,0c1.1-0.1,2.1-0.6,2.6-1.8
		c0.1-0.4,0.2-0.8,0.2-1.2c0-2.8,0-5.6,0-8.5c0-0.2,0-0.5,0-0.8c0.9,0,1.7,0,2.6,0c0,0.2,0,0.3,0,0.5c0,3,0,6,0,9
		c0,1.1-0.3,2.1-0.9,3c-0.6,0.9-1.4,1.5-2.5,1.8c-0.6,0.2-1.2,0.3-1.8,0.3c-0.5,0-1,0-1.5,0c-1.1,0-2.2-0.3-3.2-0.9
		c-0.7-0.5-1.3-1.1-1.6-2c-0.1-0.4-0.3-0.7-0.4-1.1c0,0-0.1-0.1-0.1-0.1c-0.1-0.5-0.1-1.1-0.1-1.6c0-2.7,0-5.5,0-8.2
		c0-0.2,0-0.5,0-0.7c0.9,0,1.7,0,2.6,0c0,0.2,0,0.5,0,0.7c0,2.2,0,4.4,0,6.5c0,0.5,0,1,0,1.5C80.2,123.8,80.6,124.2,80.5,124.6z"/>
	<path d="M68.7,114.5c0,0.8,0,1.6,0,2.5c-2,0-4,0-6,0c0,1.2,0,2.4,0,3.5c1.9,0,3.9,0,5.8,0c0,0.8,0,1.6,0,2.5c-0.9,0.1-1.9,0-2.9,0
		c-1,0-2,0-3,0c0,1.2,0,2.3,0,3.5c2,0,4,0,6,0c0,0.9,0,1.7,0,2.5c-2.9,0-5.8,0-8.6,0c0-4.8,0-9.7,0-14.5
		C62.9,114.5,65.8,114.5,68.7,114.5z"/>
	<path d="M7.1,50.8c-0.1,0-0.2,0-0.3,0c0-0.1-0.1-0.1,0-0.1c0.2-0.9,0.1-1.6,0-2.6c-0.1-1-0.5-1.8-0.9-2.7c-0.3-0.8-0.6-1.6-0.8-2.4
		c-0.3-1.3-0.4-2.6-0.3-3.8c0.2-1.3,0.3-2.7,1-3.9c0.1-0.8,0.6-1.4,0.8-2.2c0.3-0.7,0.8-1.4,1.2-2c0.7-0.9,1.4-1.9,2.1-2.7
		c0.7-0.7,1.2-1.5,1.8-2.3c0.6-0.6,1.6-2.5,1.8-3.2c0-0.2,0-0.3,0-0.6c0.2,0.2,0.3,0.3,0.3,0.4c0,0.4,0.3,0.7,0.2,1.1
		c0.3,0.5,0.2,1.1,0.1,1.6c0,1.6-0.5,3-1.4,4.3c-0.7,1-1.3,2-1.9,3.1c-0.2,0.4-0.5,0.8-0.7,1.3c-0.3,0.7-0.6,1.3-0.8,2
		c-0.3,0.7-0.4,1.4-0.7,2.1c-0.1,0.3,0.1,0.6-0.2,0.9c0,0.7-0.1,1.4-0.1,2.1c0,0.7-0.1,1.4,0,2.1c0.2,0.8,0.1,1.6,0.1,2.4
		c0,0.8,0.1,1.6,0,2.4C8.4,49,8,50,7.1,50.8z"/>
	<path d="M217.4,100.4c0-3.8,0-7.4,0-11.1c0.6,0,1.2,0,1.8,0c0,4.8,0,9.7,0,14.5c-0.6,0-1.1,0-1.7,0c-2.3-3.7-4.6-7.4-7-11.2
		c-0.1,0-0.1,0.1-0.1,0.1c0,0,0,0,0,0.1c0,3.7,0,7.3,0,11c-0.6,0-1.1,0-1.7,0c-0.1-0.6-0.2-11.1-0.1-14.5c0.6,0,1.2,0,1.9,0
		C212.8,93,215.1,96.7,217.4,100.4z"/>
	<path d="M37.9,92.7c0,3.7,0,7.4,0,11.2c-0.6,0-1.2,0-1.7,0c0-4.8,0-9.7,0-14.5c0.6,0,1.2,0,1.8,0c2.3,3.7,4.6,7.3,6.9,11.1
		c0-3.7,0-7.4,0-11.1c0.6,0,1.2,0,1.8,0c0,4.8,0,9.7,0,14.5c-0.6,0-1.1,0-1.7,0C42.7,100.1,40.4,96.4,37.9,92.7
		C38,92.7,38,92.7,37.9,92.7z"/>
	<path d="M153.9,21.7c0.7-0.5,1.4-1,2.2-1.2c0.8-0.3,1.6-0.4,2.4-0.3c0.8,0.1,1.6,0.1,2.3,0.6c-0.2,0.6-0.4,1.2-0.6,1.7
		c-0.2,0.6-0.3,1.1-0.5,1.7c-0.9-0.6-1.9-0.8-2.9-0.7c-1.1,0-1.9,0.5-2.7,1.1c0,3.6,0,7.3,0,11c-1.1,0-2.2,0-3.4,0c0-5,0-10,0-15.1
		c1,0,1.9,0,2.9,0C153.6,20.9,153.7,21.2,153.9,21.7z"/>
	<path d="M83.1,14.4c0,7.1,0,14.1,0,21.1c-1.1,0-2.2,0-3.3,0c-0.1-0.7-0.2-16.6-0.1-20.8c0.6-0.1,1.1-0.2,1.7-0.2
		C82,14.6,82.5,14.4,83.1,14.4z"/>
	<path d="M99.9,114.5c0,0.8,0,1.6,0,2.4c-1.6-0.3-3.2-0.4-4.8,0.1c-0.1,0.2-0.4,0.4-0.5,0.7c-0.1,0.2-0.1,0.4-0.1,0.5
		c0.2,0.4,0.4,0.8,0.8,1.1c0.8,0.5,1.6,0.9,2.4,1.2c0.7,0.2,1.4,0.5,2,1c0.4,0.4,0.8,0.8,1.2,1.2c0.4,0.4,0.3,0.9,0.6,1.3
		c0,0.9,0.1,1.8-0.4,2.6c-0.4,0.6-0.8,1-1.3,1.4c-0.4,0.3-0.9,0.5-1.3,0.7c-0.5,0.2-1,0.3-1.4,0.4c-0.1,0-0.2,0-0.4,0
		c-0.6,0-1.2,0-1.8,0c-0.9,0-1.6-0.3-2.4-0.5c-0.1,0-0.1-0.1-0.2-0.2c0-0.6,0-1.1,0-1.7c0-0.2,0-0.4,0-0.7c0.5,0.2,1.1,0.3,1.6,0.4
		c0.9,0.2,1.7,0.1,2.6,0.1c0.5,0,1-0.2,1.5-0.4c0.4-0.2,0.7-0.5,0.9-0.9c0.2-0.2,0.3-0.5,0-0.8c0-0.1,0-0.2,0-0.3
		c-0.7-0.9-1.7-1.3-2.7-1.7c-0.9-0.4-1.8-0.7-2.6-1.3c-1-0.7-1.6-1.7-1.6-3c0-0.4,0-0.8,0.1-1.3c0.3-0.9,0.8-1.5,1.7-2
		c0.5-0.2,1-0.4,1.4-0.6c0.5-0.2,1-0.2,1.4-0.3c0.4-0.1,0.9,0,1.3,0c0.4,0,0.8,0.1,1.2,0.1C99.4,114.4,99.6,114.5,99.9,114.5z"/>
	<path d="M49.4,103.9c0-4.9,0-9.7,0-14.6c1.8,0,3.5,0,5.3,0c0.6,0,1.3,0.2,1.9,0.5c0.7,0.2,1.2,0.6,1.8,1c0.7,0.5,1.2,1.1,1.7,1.7
		c0.4,0.5,0.7,1.1,0.8,1.8c0.2,0.8,0.3,1.6,0.3,2.4c0,1.6-0.5,3-1.4,4.3c-0.4,0.5-0.9,1-1.4,1.4c-0.3,0.2-0.6,0.5-1,0.7
		c-0.4,0.1-0.7,0.3-1.1,0.5c-0.2,0.1-0.5-0.1-0.7,0.2c-0.5,0-1,0.1-1.6,0.1C52.5,103.9,51,103.9,49.4,103.9z M51.2,102.3
		c1.2,0,2.3,0,3.4,0c0.4,0,0.8-0.1,1.1-0.2c1.2-0.3,2.2-1.1,2.9-2.1c0.4-0.6,0.7-1.3,0.8-1.9c0.1-0.9,0.1-1.9-0.1-2.8
		c-0.2-0.7-0.5-1.4-0.9-1.9c-0.4-0.6-1-1.1-1.6-1.5c-0.7-0.4-1.4-0.8-2.2-0.8c-1.1-0.1-2.2,0-3.4,0C51.2,94.7,51.2,98.5,51.2,102.3z
		"/>
	<path d="M104.3,103.9c0-4.9,0-9.7,0-14.6c0.7,0,1.4,0,2.1,0c0.9,0,1.8,0,2.7,0c1.2,0,2.2,0.3,3.2,0.9c0.9,0.5,1.6,1.1,2.3,2
		c0.6,0.8,0.9,1.6,1.2,2.4c0,0,0,0.1,0.1,0.1c0.1,0.4,0.1,0.9,0.1,1.3c0,0.4,0.1,0.9,0,1.3c-0.1,0.7-0.2,1.4-0.5,2.1
		c-0.4,0.8-0.7,1.5-1.4,2.1c-0.7,0.6-1.3,1.2-2.1,1.6c-0.6,0.2-1.3,0.5-2,0.6c-0.8,0.1-1.5,0.1-2.3,0.1c-0.8,0-1.6,0-2.4,0
		C105,103.9,104.7,103.9,104.3,103.9z M106.1,90.9c0,3.8,0,7.6,0,11.3c1.2,0,2.3,0,3.5,0c0.4,0,0.7-0.1,1.1-0.2
		c1.2-0.4,2.2-1.1,2.9-2.1c0.4-0.6,0.7-1.3,0.8-1.9c0.1-0.9,0.1-1.9-0.1-2.8c-0.2-0.7-0.5-1.4-0.9-1.9c-0.4-0.6-1-1.1-1.6-1.5
		c-0.7-0.4-1.5-0.8-2.3-0.8C108.3,90.9,107.2,90.9,106.1,90.9z"/>
	<path d="M85.6,102.6c-0.1,0.6-0.6,0.9-0.8,1.4c-0.6,0.1-1-0.3-1.4-0.6c-0.8-0.7-1.4-1.5-1.9-2.4c-0.4-0.7-0.8-1.4-1.1-2.1
		c-0.7-0.1-1.4,0.2-2.1,0.2c-0.6-0.1-1.2,0-1.8,0c-0.2,0-0.3,0.1-0.5,0.1c0,1.6,0,3.1,0,4.7c-0.5,0-1,0-1.6,0c0-4.8,0-9.7,0-14.5
		c1,0,1.9,0,2.9,0c0.6,0,1.2,0,1.8,0c0.4,0,0.8,0.2,1.3,0.2c0.4,0,0.8,0.2,1.2,0.3c0.6,0.2,1.2,0.5,1.6,0.9c0.5,0.5,0.8,1.1,1,1.8
		c0.3,0.9,0.2,1.8,0.1,2.7c-0.1,1.1-0.6,2.1-1.6,2.8c-0.2,0.1-0.5,0.3-0.7,0.5c0.3,0.9,0.9,1.7,1.4,2.4
		C84.1,101.5,84.7,102.3,85.6,102.6z M76,90.9c0,0.8,0,1.4,0,2.1c0,1.3,0,2.6,0,4c0,0.2,0,0.4,0.2,0.5c0.1,0,0.1,0,0.2,0
		c0.7,0,1.4,0,2.1-0.1c0.7-0.1,1.3-0.1,1.9-0.3c0.7-0.2,1.4-0.7,1.7-1.2c0.4-0.7,0.6-1.4,0.5-2.2c-0.2-0.2-0.1-0.5-0.2-0.8
		c-0.2-0.3-0.3-0.6-0.5-0.8c-0.7-0.8-1.7-1.1-2.7-1.1C78.3,90.9,77.2,90.9,76,90.9z"/>
	<path d="M199.6,104c-0.2,0-0.4,0-0.6,0c-1.4,0-2.6-0.5-3.6-1.5c-0.4-0.4-0.9-0.8-1.2-1.3c-0.5-0.9-1-1.7-1.1-2.8
		c-0.1-0.4-0.1-0.8-0.1-1.3c0-0.2,0-0.3-0.1-0.5c0,0,0-0.2,0-0.2c0.3-0.5,0-1,0.2-1.4c0.1-0.3,0.1-0.6,0.2-1c0.2-0.7,0.5-1.4,0.9-2
		c0.8-1.1,1.7-2.1,2.9-2.6c0.5-0.2,1.1-0.4,1.7-0.4c0.2,0,0.4-0.1,0.7-0.1c0.2,0,0.4,0,0.7,0c0.9,0.1,1.8,0.2,2.7,0.6
		c1.1,0.5,1.9,1.3,2.5,2.3c0.4,0.7,0.7,1.4,1,2.1c0.1,0.3-0.1,0.6,0.2,0.9c-0.1,0.6,0.2,1.1,0.1,1.7c-0.2,1.4-0.3,2.8-1,4
		c-0.6,1-1.3,1.9-2.3,2.5c-0.9,0.6-1.9,0.9-3,0.9C200,104,199.8,104,199.6,104z M204.8,96.8c0-0.4,0-0.6,0-0.9
		c0-0.3-0.1-0.5-0.1-0.7c-0.1-0.6-0.2-1.1-0.5-1.6c-0.9-1.8-1.8-2.4-3.6-2.9c-0.2-0.1-2,0-2.4,0.2c-1,0.4-1.8,0.9-2.4,1.8
		c-0.3,0.5-0.5,1-0.8,1.5c-0.3,0.5-0.2,1.1-0.4,1.7c-0.1,0.3,0,0.6,0,0.9c0,0.3-0.1,0.5,0.1,0.8c0.2,0.2-0.1,0.6,0.2,0.9
		c0.1,1.2,0.8,2.1,1.6,2.9c0.4,0.4,1,0.7,1.5,1c0.3,0.2,1.7,0.3,2,0.3c0.2,0,0.4-0.2,0.7-0.2c0.4,0,0.7-0.1,1.1-0.3
		c0.7-0.3,1.1-0.7,1.6-1.2c0.5-0.5,0.9-1.2,1.1-1.9C204.7,98.3,204.9,97.5,204.8,96.8z"/>
	<path d="M161.5,91.1c-0.3-0.1-0.5-0.1-0.7-0.2c-1-0.2-2.1-0.4-3.1-0.3c-0.4,0-0.9,0.1-1.3,0.2c-0.5,0.2-1.1,0.3-1.5,0.7
		c-0.9,0.7-1.7,1.6-2,2.8c-0.2,0.8-0.4,2-0.3,2.7c0.2,0.8,0.2,1.7,0.7,2.5c0.7,1.1,1.4,2.1,2.6,2.6c0.3,0.1,0.5,0.2,0.9,0.3
		c0.2,0,0.4,0.1,0.6,0.1c0.9-0.1,1.7-0.1,2.5-0.6c0.4-0.2,0.6-0.6,0.9-0.8c0-1.2,0-2.5,0-3.8c-1,0-2,0-3.1,0c0-0.3,0-0.5,0-0.8
		c0-0.3,0-0.5,0-0.8c1.6,0,3.1,0,4.7,0c0.1,0.1,0.1,0.1,0.2,0.2c0,2.6,0,5.2,0,7.9c-0.3,0-0.5,0-0.8,0c-0.3-0.2-0.6-0.5-0.9-0.7
		c-0.3,0.2-0.7,0.3-1,0.5c-0.4,0.2-1.1,0.4-1.5,0.4c-0.5,0-1,0-1.5,0c-1,0-1.8-0.3-2.6-0.8c-1.2-0.8-2.1-1.8-2.6-3.1
		c-0.2-0.5-0.3-1-0.4-1.4c-0.3-1.2-0.1-2.4-0.2-3.6c0.3-1.2,0.6-2.3,1.4-3.3c0.8-1.1,1.9-1.8,3.2-2.3c0.4-0.1,0.7-0.2,1.2-0.2
		c0.4,0,0.7-0.1,1.1-0.1c0.4,0,0.9-0.1,1.3,0c0.4,0.2,0.8,0,1.2,0.1c0.4,0.2,0.8,0.1,1.2,0.3C161.5,90,161.5,90.5,161.5,91.1z"/>
	<path d="M7.1,129c-0.9,0-1.8,0-2.7,0c0-4,0-8,0-12c-1.5,0-2.9,0-4.4,0c0-0.8,0-1.6,0-2.4c0.6-0.1,7.7-0.2,11.4-0.1
		c0,0.4,0,0.8,0,1.2c0,0.4,0,0.7,0,1.1c-0.1,0.1-0.1,0.1-0.3,0.2c-1.3,0-2.7,0-4.1,0C7.1,121,7.1,125,7.1,129z"/>
	<path d="M36.3,117c-1.5,0-2.8,0-4.2,0c-0.1-0.1-0.1-0.1-0.2-0.2c0-0.7,0-1.5,0-2.3c3.8,0,7.6,0,11.4,0c0,0.8,0,1.6,0,2.4
		c-1.4,0-2.9,0-4.4,0c0,4,0,8,0,12c0,0-0.1,0.1-0.1,0.1c0,0,0,0-0.1,0c-0.8,0-1.7,0-2.5,0C36.3,125,36.3,121,36.3,117z"/>
	<path d="M24.8,100.5c-0.4,1.1-0.8,2.2-1.2,3.3c-0.5,0-1.1,0-1.7,0c0-0.2,0.1-0.3,0.1-0.4c0.6-1.7,1.1-3.3,1.7-5
		c0.3-0.9,0.7-1.7,0.9-2.6c0.2-0.8,0.6-1.6,0.8-2.4c0.3-0.9,0.7-1.9,1-2.8c0.1-0.4,0.3-0.8,0.4-1.3c0.8,0,1.6,0,2.4,0
		c0.4,1.1,0.7,2.3,1.1,3.5c0.6,1.7,1.1,3.4,1.7,5c0.5,1.4,1,2.9,1.5,4.3c0.2,0.4,0.3,0.9,0.5,1.3c0,0.1,0,0.2,0.1,0.4
		c-0.6,0-1.2,0-1.7,0c-0.4-1.1-0.8-2.2-1.1-3.3C29.1,100.5,26.9,100.5,24.8,100.5z M25.3,98.9c1.8,0,3.6,0,5.3,0
		c-0.9-2.6-1.8-5.1-2.7-7.7C27.1,93.8,26.2,96.3,25.3,98.9z"/>
	<path d="M176.6,103.9c-0.6,0-1.2,0-1.8,0c-0.4-1.1-0.7-2.2-1.1-3.3c-2.1,0-4.3,0-6.5,0c-0.4,1.1-0.8,2.2-1.2,3.3
		c-0.6,0-1.1,0-1.8,0c1.7-4.9,3.3-9.7,5-14.5c0.8,0,1.6,0,2.3,0C173.3,94.2,175,99,176.6,103.9z M170.4,91.1
		c-0.1,0.3-0.1,0.4-0.2,0.6c-0.3,0.8-0.5,1.6-0.8,2.4c-0.5,1.5-1,2.9-1.5,4.4c0,0.1-0.1,0.3-0.1,0.5c1,0,1.8,0,2.7,0
		c0.9,0,1.7,0,2.6,0c-0.4-1.3-0.8-2.6-1.3-3.8C171.3,93.8,171,92.5,170.4,91.1z"/>
	<path d="M63.4,89.3c2.9,0,5.8,0,8.8,0c0,0.5,0,1,0,1.6c-2.3,0-4.7,0-7,0c0,1.6,0,3.2,0,4.8c2.3,0,4.6,0,7,0c0,0.3,0,0.5,0,0.8
		c0,0.3,0,0.5,0,0.8c-2.3,0-4.7,0-7,0c0,1.6,0,3.2,0,4.9c2.3,0,4.6,0,7,0c0,0.6,0,1.1,0,1.6c-2.9,0-5.8,0-8.8,0
		C63.4,99,63.4,94.2,63.4,89.3z"/>
	<path d="M118.1,103.8c0-4.8,0-9.6,0-14.5c0.6-0.1,6.8-0.1,8.8,0c0,0.5,0,0.9,0,1.4c-0.1,0.1-0.1,0.1-0.2,0.2c-2.2,0-4.5,0-6.8,0
		c0,1.6,0,3.2,0,4.8c2.3,0,4.7,0,7,0c0,0.3,0,0.5,0,0.8c0,0.3,0,0.5,0,0.8c-2.4,0-4.7,0-7,0c0,1.6,0,3.2,0,4.9c2.3,0,4.6,0,7,0
		c0,0.6,0,1.1,0,1.6C124,103.8,121.1,103.8,118.1,103.8z"/>
	<path d="M148.9,95.8c0,0.6,0,1.1,0,1.6c-2.4,0-4.8,0-7.2,0c0,1.6,0,3.2,0,4.9c2.4,0,4.7,0,7.1,0c0,0.6,0,1.1,0,1.6
		c-2.9,0-5.8,0-8.8,0c0-4.8,0-9.7,0-14.5c0.6-0.1,6.8-0.1,8.8,0c0,0.5,0,0.9,0,1.4c-0.1,0.1-0.1,0.1-0.2,0.2c-2.3,0-4.6,0-7,0
		c0,1.6,0,3.2,0,4.8C144.1,95.8,146.4,95.8,148.9,95.8z"/>
	<path d="M11.2,14.7c0.4-0.1,0.7,0.1,0.9,0.3c0.8,0.5,1.2,1.3,1.1,2.2c-0.1,0.8-0.4,1.6-0.8,2.2c-0.4,0.5-0.8,1-1.2,1.5
		c-0.3,0.4-0.6,0.8-1,1.1c-0.3,0.3-0.6,0.5-0.9,0.8c-0.3,0.2-0.5,0.6-0.9,0.7c-0.1,0-0.2,0.2-0.3,0.3c-0.3,0.3-0.7,0.6-1,0.8
		c-0.5,0.5-1,1.1-1.4,1.7c-0.4,0.4-0.7,0.9-1,1.4c-0.4,0.7-0.7,1.3-0.8,2.1c-0.1,0.3-0.1,0.6-0.1,1c0,0.5,0.2,1,0.3,1.6
		c-0.4-0.3-0.7-0.5-1-0.7c-0.3-0.3-0.6-0.6-0.8-1c-0.4-0.5-0.6-1.1-0.8-1.7c-0.1-0.5-0.1-1.1,0-1.6c0.1-0.5,0.3-1.1,0.6-1.5
		c0.3-0.5,0.5-0.9,0.9-1.3c0.4-0.5,0.9-1,1.3-1.4c0.6-0.6,1.2-1.1,1.9-1.6c0,0,0.1-0.1,0.1-0.1c0.9-0.9,1.9-1.7,2.8-2.7
		c0.7-0.7,1.4-1.5,1.9-2.4c0.1-0.3,0.3-0.5,0.4-0.8C11.3,15.3,11.3,15,11.2,14.7z"/>
	<path d="M10.3,95.8c0,0.5,0,1,0,1.5c-2.4,0-4.8,0-7.2,0c0,2.2,0,4.4,0,6.6c-0.6,0-1.2,0-1.8,0c0-4.8,0-9.6,0-14.5
		c0.6-0.1,6.8-0.1,8.9,0c0,0.2,0,0.5,0,0.7c0,0.2,0,0.4,0,0.7c-0.1,0.1-0.1,0.1-0.2,0.2c-2.3,0-4.6,0-7,0c0,1.6,0,3.2,0,4.8
		C5.5,95.8,7.8,95.8,10.3,95.8z"/>
	<path d="M94.3,99.4c-0.2-0.3-0.2-0.5-0.4-0.7c-0.3-0.3-0.6-0.5-0.9-0.7c-0.9-0.5-1.9-1-2.8-1.5c-0.6-0.3-1.2-0.6-1.7-1.2
		c-0.2-0.3-0.4-0.6-0.5-1c-0.1-0.3-0.2-0.6-0.2-0.9c-0.1-0.3,0-0.7,0-1c0-0.3,0.1-0.6,0.2-0.9c0.2-0.4,0.4-1,0.9-1.3
		c0.5-0.4,1.1-0.7,1.8-0.9c0.7-0.2,1.4-0.4,2.1-0.3c0.8,0.1,1.6,0.1,2.4,0.5c0,0.5,0,0.9,0,1.4c-0.5,0.1-0.9-0.1-1.4-0.2
		c-0.5-0.1-0.9-0.1-1.4-0.1c-0.5,0-0.9,0.1-1.3,0.1c-0.2,0.1-0.4,0.2-0.5,0.3c-0.6,0.3-0.9,0.8-0.9,1.5c0,0.3,0,0.6,0,0.9
		c0.2,0.3,0.3,0.5,0.5,0.7c0.2,0.2,0.5,0.4,0.8,0.5c0.9,0.5,1.7,0.9,2.6,1.4c0.7,0.4,1.4,0.8,2,1.4c0.5,0.5,0.8,1.2,0.8,1.9
		c0,0.6-0.1,1.1-0.3,1.7c-0.3,0.9-0.9,1.6-1.7,2.1c-0.3,0.2-0.6,0.3-0.9,0.4c-0.3,0.1-0.7,0.1-1,0.3c-0.1,0-0.2,0-0.3,0
		c-0.8,0-1.6,0-2.4,0c-0.5,0-0.9-0.2-1.4-0.4c-0.1,0-0.2,0-0.4-0.1c0-0.5,0-1,0-1.6c0.1,0,0.3,0,0.4,0c0.6,0.3,1.3,0.4,2,0.4
		c0.3,0,0.6,0.1,0.8,0.1c1,0,1.9-0.2,2.7-0.7c0.5-0.3,0.6-0.7,0.7-1.2C94.3,100.2,94.3,99.8,94.3,99.4z"/>
	<path d="M165.2,55.2c-0.3,0.9-0.6,1.8-0.9,2.7c-0.5,0-1,0-1.5,0c1.4-4,2.8-8,4.1-12c0.7,0,1.3,0,1.9,0c1.4,4,2.8,8,4.2,12
		c-0.5,0-1,0-1.5,0c-0.3-0.9-0.6-1.8-1-2.7C168.9,55.2,167.1,55.2,165.2,55.2z M168,47.5c-0.4,0.7-0.5,1.4-0.8,2.1
		c-0.5,1.2-0.8,2.4-1.2,3.6c-0.1,0.2-0.3,0.4-0.1,0.7c1.4,0,2.7,0,4.1,0c0,0,0,0,0.1,0c0,0,0-0.1,0-0.1
		C169.4,51.6,168.7,49.6,168,47.5z"/>
	<path d="M187,90.7c-0.1,0.1-0.1,0.1-0.2,0.2c-1.4,0-2.9,0-4.3,0c0,4.3,0,8.6,0,12.9c-0.6,0-1.2,0-1.8,0c0-4.3,0-8.6,0-12.8
		c0,0-0.1-0.1-0.1-0.1c0,0,0,0-0.1,0c-1.4,0-2.8,0-4.3,0c0-0.5,0-1,0-1.6c3.5,0,7.1,0,10.7,0C187,89.8,187,90.3,187,90.7z"/>
	<path d="M139.5,44.9c0.5-0.2,0.9-0.3,1.4-0.2c0,1.4,0,2.9,0,4.4c0.5-0.2,1-0.5,1.5-0.6c0.3-0.1,0.7-0.2,1-0.2c0.3,0,0.7-0.2,1,0.1
		c0.7,0,1.2,0.4,1.7,0.8c0.4,0.4,0.6,0.9,0.7,1.4c0.1,0.6,0.2,1.2,0.2,1.8c0,1.8,0,3.6,0,5.5c-0.5,0-0.9,0-1.5,0c0-0.2,0-0.3,0-0.5
		c0-2,0-3.9,0-5.9c0-0.4-0.1-0.8-0.4-1.2c-0.2-0.3-0.5-0.5-1-0.6c-0.5-0.1-0.9-0.1-1.4,0c-0.7,0.1-1.2,0.5-1.8,0.7c0,2.5,0,5,0,7.5
		c-0.3,0-0.5,0-0.7,0c-0.2,0-0.5,0-0.7,0C139.5,53.6,139.5,49.3,139.5,44.9z"/>
	<path d="M88,56.9c-0.3,0.5-0.5,0.9-0.8,1.3c-0.8-0.1-1.1-0.7-1.5-1.2c-0.5,0.6-1.2,0.9-1.9,1.1c-0.4,0.1-0.8,0-1.2,0.1
		c-0.6,0-1.1-0.1-1.6-0.4c-0.8-0.5-1.2-1.1-1.3-2c0-0.3,0-0.5,0-0.8c0-0.3,0.1-0.6,0.2-0.8c0.4-0.9,0.8-1.1,1.8-1.4
		c0.4-0.1,0.8-0.1,1.3-0.1c0.8,0,1.5,0,2.3,0c0.1-0.7,0-1.3-0.1-1.9c-0.1-0.3-0.2-0.7-0.6-0.8c-0.2-0.1-0.3-0.2-0.5-0.3
		c-1.1-0.1-2.3,0.1-3.4,0.6c-0.4-0.3-0.3-0.8-0.5-1.1c0.7-0.2,1.4-0.5,2.1-0.7c0.6-0.1,1.1-0.1,1.7-0.1c0.8,0,1.5,0.3,2,0.9
		c0.4,0.5,0.7,1,0.7,1.6c0,1.3,0,2.6,0,3.9c0,0.4,0.1,0.8,0.3,1.2C87.2,56.5,87.2,56.5,88,56.9z M81.3,56.1c0.2,0.2,0.5,0.5,0.8,0.7
		c0.4,0,0.8,0,1.2,0c0.5,0,1.1-0.2,1.4-0.7c0.5-0.7,0.7-1.4,0.6-2.3c-0.9,0-1.7,0-2.5,0c-0.4,0-0.8,0.1-1.2,0.4
		c-0.1,0.1-0.2,0.1-0.3,0.1C80.9,54.9,81,55.4,81.3,56.1z"/>
	<path d="M150.5,53.5c0.1,0.8,0.3,1.5,0.8,2.2c0.4,0.5,0.8,0.8,1.4,1c0.1,0,0.2,0.1,0.3,0.1c0.1,0,0.3,0,0.4,0
		c1,0.1,1.9-0.1,2.8-0.7c0,0.3,0,0.5,0,0.7c0,0.2,0,0.4,0,0.7c-0.3,0-0.6,0.2-0.9,0.4c-1,0.4-1.9,0.3-2.9,0.2
		c-0.5,0-1.1-0.3-1.5-0.7c-0.4-0.3-0.8-0.7-1.1-1.2c-0.2-0.4-0.7-1.4-0.7-1.7c0-0.6-0.3-1.1-0.2-1.7c0-0.2,0.1-0.5,0.1-0.7
		c0.1-0.3-0.1-0.6,0.1-0.8c0.1-0.2,0.1-0.5,0.2-0.7c0.4-0.8,0.9-1.4,1.7-1.8c0.2-0.1,0.4-0.2,0.6-0.3c0.6-0.1,1.2-0.2,1.9-0.2
		c0.3,0,1.4,0.4,1.6,0.6c0.5,0.4,0.8,1,1,1.7c0.3,1,0.1,2,0.2,3C154.4,53.5,152.5,53.5,150.5,53.5z M150.5,52.2c0.8,0,1.5,0,2.3,0
		c0.8,0,1.5,0,2.3,0c-0.1-0.6-0.2-1.1-0.4-1.7c-0.1-0.2-0.2-0.5-0.4-0.6c-0.5-0.4-1.1-0.5-1.7-0.3c-0.8,0.2-1.3,0.7-1.6,1.4
		C150.7,51.4,150.7,51.8,150.5,52.2z"/>
	<path d="M103.3,53.5c-2,0-3.9,0-5.9,0c0.1,0.6,0.2,1.2,0.5,1.8c0.2,0.4,0.5,0.7,0.9,1c0.4,0.3,0.8,0.4,1.2,0.5c0.3,0,0.6,0,0.9,0
		c0.7,0,1.4-0.2,2-0.5c0.1,0,0.1-0.1,0.3-0.1c0,0.5,0,0.9,0,1.4c-0.2,0.1-0.4,0.1-0.6,0.2c-1,0.5-2,0.5-3.1,0.4
		c-0.7-0.1-1.4-0.4-2-1c-0.5-0.5-0.9-1.2-1.2-1.8c-0.1-0.2-0.1-0.5-0.2-0.7c-0.1-0.5-0.2-1.1-0.2-1.6c0-0.3,0.1-0.6,0.1-0.9
		c0.1-0.3,0.1-0.6,0.1-1c0-0.3,0.3-0.5,0.3-0.8c0.4-0.5,0.8-1.1,1.4-1.4c0.2-0.1,0.5-0.3,0.7-0.4c0.2-0.1,0.6,0.1,0.8-0.2
		c0.8,0,1.6,0,2.3,0.3c0.4,0.2,0.7,0.4,0.9,0.8c0.3,0.5,0.6,1.1,0.6,1.8C103.3,51.9,103.3,52.7,103.3,53.5z M100.5,49.6
		c-0.9-0.1-1.7,0.2-2.3,0.9c-0.4,0.5-0.7,1-0.6,1.7c1.5,0,2.9,0,4.4,0c-0.1-0.5-0.1-0.9-0.2-1.3C101.5,50.3,101.1,49.8,100.5,49.6z"
		/>
	<path d="M14.1,102.3c2.3,0,4.6,0,6.9,0c0,0.5,0,1,0,1.6c-0.6,0.1-6.1,0.1-8.5,0c0-4.8,0-9.7,0-14.5c0.5,0,1,0,1.6,0
		C14.1,93.6,14.1,97.9,14.1,102.3z"/>
	<path d="M137.7,102.2c0,0.6,0,1.1,0,1.6c-2.8,0-5.6,0-8.5,0c0-4.8,0-9.7,0-14.5c0.5,0,1,0,1.5,0c0,0,0,0,0,0c0,0,0,0,0,0.1
		c0,4.3,0,8.5,0,12.8C133.1,102.2,135.3,102.2,137.7,102.2z"/>
	<path d="M114.3,58.1c-1.1,0.1-2.1-0.5-2.9-1.4c-0.6-0.7-1-1.5-1.1-2.4c-0.1-0.4-0.2-0.8-0.1-1.3c0.1-1.5,0.6-2.9,1.9-3.9
		c0.5-0.4,1-0.6,1.6-0.7c0.4-0.1,0.7-0.1,1-0.1c0.7,0,1.3,0.2,1.9,0.5c0.9,0.5,1.6,1.3,2,2.3c0.2,0.6,0.3,1.2,0.4,1.8
		c0.1,0.3-0.1,0.7-0.1,1c-0.1,0.7-0.3,1.3-0.6,2c-0.5,1-1.3,1.7-2.4,2.1C115.4,58.2,115,58.1,114.3,58.1z M113.8,56.8
		c0.4,0,0.9,0,1.3,0c0.5,0,0.9-0.2,1.3-0.5c0.7-0.6,1-1.4,1.1-2.3c0.2-1,0-2.1-0.5-3c-0.2-0.4-0.5-0.7-0.8-0.9
		c-0.2-0.2-0.4-0.5-0.8-0.4c-0.5-0.2-1-0.1-1.6,0c-0.5,0.1-0.8,0.4-1.1,0.6c-0.3,0.2-0.5,0.6-0.6,0.9c-0.2,0.4-0.3,0.8-0.4,1.2
		c-0.1,0.5,0,0.9,0,1.4c0,0.3,0.1,0.5,0.1,0.7c0.3,0.8,0.6,1.6,1.6,1.9C113.5,56.6,113.6,56.7,113.8,56.8z"/>
	<path d="M64.4,57.6c0-0.4,0-0.8,0-1.2c0.4,0.1,0.8,0.2,1.1,0.3c0.9,0.3,1.8,0.2,2.7,0.1c0.7,0,1.3-0.5,1.6-1.3c0-0.2,0-0.6,0-1
		c0-0.2-0.1-0.4-0.2-0.6c-0.3-0.4-0.6-0.7-1.1-0.9c-1-0.5-1.9-1-2.8-1.5c-0.5-0.3-0.8-0.8-1-1.4c-0.2-0.8-0.3-1.7,0-2.4
		c0.2-0.6,0.6-1.2,1.2-1.5c0.6-0.3,1.2-0.5,1.9-0.5c0.4,0,0.8,0,1.2,0c0.4,0,0.7,0.1,1.2,0.2c0.3,0.3,0.1,0.8,0.2,1.2
		c-0.2,0.1-0.4,0.1-0.6,0c-0.2-0.1-0.4,0-0.6-0.1c-0.3,0-0.6,0.1-0.8-0.1c-0.1-0.1-0.3-0.1-0.4,0c-0.3,0.2-0.6,0.1-1,0.1
		c-0.9,0.5-0.9,0.5-1.2,1.1c0,0.3,0,0.7,0,1c0,0.3,0.1,0.5,0.3,0.8c0.3,0.4,0.7,0.6,1.1,0.8c0.6,0.3,1.3,0.6,1.9,0.9
		c0.8,0.5,1.6,1,2,2c0,0.4,0,0.8,0,1.3c0,0.6-0.2,1.1-0.6,1.5c-0.6,0.9-1.5,1.2-2.4,1.5c-0.1,0-0.2,0-0.4,0c-0.4,0-0.8,0-1.2,0
		C65.7,58.1,65.4,58.1,64.4,57.6z"/>
	<path d="M3.6,19.7c-0.1-0.6-0.2-1-0.2-1.5c0-0.4,0-0.9,0-1.3c0-0.6,0.1-1.2,0.3-1.7c0.2-0.5,0.5-1,0.8-1.5c0.9-1.2,2-2,3.2-2.7
		c0.3-0.2,0.5-0.4,0.8-0.6c0.5-0.4,0.9-0.8,1.2-1.4c0.1-0.2,0.2-0.4,0.3-0.5c0.3,0.8,0.5,1.7,0.3,2.6c-0.2,1.2-0.7,2.8-2.2,3.7
		c-1,0.6-1.9,1.3-2.7,2.1c-0.5,0.6-1.1,1.2-1.4,2C4,19.2,3.8,19.4,3.6,19.7z"/>
	<path d="M29.9,25.3c-0.4-0.3-0.6-0.4-0.8-0.7C29,24.5,28.9,24.2,29,24c0-0.2,0.2-0.4,0.4-0.7c-0.4-0.6-1-0.7-1.7-0.8
		c-0.8-0.1-1.7-0.2-2.5-0.4c-0.5-0.2-1-0.4-1.4-0.8c-0.8-0.8-1.4-1.8-2-2.7c-0.2-0.3-0.4-0.5-0.8-0.7c0.8-0.2,1.5-0.4,2.3-0.4
		c0.3,0,0.5,0.1,0.8-0.1c0,0,0.1,0,0.2,0c1.2,0.2,2.4,0.2,3.6,0.8c1.1,0.6,1.8,1.5,2.2,2.6c0.2,0.5,0.4,1.1,0.3,1.6
		c0,0.2,0,0.3,0.1,0.5c0,0,0,0.2,0,0.2c-0.2,0.4-0.1,0.8-0.2,1.3C30.2,24.6,30.1,24.9,29.9,25.3z M26.5,20.1c-0.3,0-0.5,0-0.8,0
		c-0.3-0.2-0.1-0.6-0.2-0.9c0.5-0.1,0.9-0.1,1.3-0.2c0.3-0.1,0.2-0.4,0.2-0.6c-0.1-0.1-0.1-0.1-0.1-0.1c-1.1-0.4-1.7,0.3-2.3,1
		c-0.1,0-0.2,0-0.3,0c0,0.4,0,0.7,0,1.1c0.1,0.1,0.1,0.1,0.2,0.2c0.2,0.5,0.7,0.7,1.2,0.9c0.2,0.1,0.4,0,0.6,0.1c0.2,0,0.8,0,1-0.1
		c0.7-0.3,0.9-0.8,0.8-1.7C27.5,19.6,27,19.9,26.5,20.1z"/>
	<path d="M121.7,50c-0.1-0.1-0.2-0.2-0.3-0.3c-0.4,0-0.9,0-1.4,0c0-0.4,0-0.8,0-1.3c0.5,0,1,0,1.6,0c0-0.3,0-0.5,0-0.8
		c0.1-0.9,0.3-1.7,1-2.4c0.4-0.3,0.8-0.5,1.3-0.5c0.5,0,0.9-0.1,1.4,0c0.5,0.1,0.9,0.2,1.4,0.3c-0.1,0.4-0.3,0.8-0.4,1.3
		c-0.6-0.4-1.3-0.3-1.9-0.3c-0.4,0-0.8,0.2-1,0.6c-0.2,0.3-0.3,0.6-0.3,1c0,0.2-0.1,0.5-0.2,0.8c0.7,0,1.5,0,2.2,0
		c0,0.5,0,0.9,0,1.3c-0.7,0-1.3,0-1.9,0c-0.1,0.1-0.2,0.2-0.2,0.2c0,2.6,0,5.3,0,8c-0.4,0-0.8,0-1.3,0
		C121.7,55.3,121.7,52.6,121.7,50z"/>
	<path d="M191,103.9c-0.6,0-1.2,0-1.8,0c0-2.4,0-4.9,0-7.3c0-2.4,0-4.8,0-7.3c0.3,0,0.6,0,0.8,0c0.3,0,0.6,0,0.9,0
		c0,2.4,0,4.9,0,7.3C191,99,191,101.4,191,103.9z"/>
	<path d="M75,55.5c0.2,0.5,0.5,0.9,1,1.3c0.8,0,1.7,0.1,2.5-0.5c0.1,0.5,0.3,0.9,0.4,1.4c-1,0.6-2.2,0.6-3.2,0.5
		c-0.6-0.2-1-0.5-1.3-0.9c-0.2-0.2-0.4-0.5-0.5-0.8c-0.1-0.5-0.3-1-0.3-1.6c0-1.7,0-3.3,0-5c-0.3,0-0.7,0-1,0c0-0.5,0-0.9,0-1.3
		c0.3,0,0.6,0,1,0c0-0.5,0-1,0-1.5c0.1-0.1,0.2-0.2,0.2-0.2c0.4-0.1,0.8-0.1,1.3-0.2c0,0.7,0,1.3,0,1.9c0.8,0,1.6,0,2.4,0
		c0.1,0.1,0.2,0.2,0.2,0.2c0,0.4,0,0.7,0,1.1c-0.9,0-1.7,0-2.6,0C75,51.7,75,53.6,75,55.5z"/>
	<path d="M132.5,49.7c-0.4,0-0.7,0-1,0c0-0.4,0-0.8,0-1.3c0.3,0,0.6,0,1,0c0.1-0.5,0-1.1,0-1.6c0.4-0.3,1-0.1,1.4-0.4
		c0,0.7,0,1.3,0,1.9c0,0,0.1,0.1,0.1,0.1c0,0,0,0,0.1,0c0.8,0,1.7,0,2.5,0c0,0.4,0,0.8,0,1.3c-0.8,0-1.7,0-2.6,0c0,0.6,0,1.2,0,1.7
		c0,1.2,0,2.3,0,3.5c0,0.4,0.1,0.8,0.3,1.1c0.2,0.4,0.5,0.6,0.8,0.8c0.8,0.1,1.6,0.1,2.3-0.5c0.3,0.4,0.3,0.9,0.4,1.3
		c-1,0.6-2,0.6-3.1,0.5c-0.5,0-1.3-0.6-1.6-1.2c-0.2-0.4-0.4-0.9-0.5-1.4c-0.2-0.8-0.1-1.6-0.1-2.4
		C132.5,52.1,132.5,50.9,132.5,49.7z"/>
	<path d="M181.9,46.7c0.4-0.1,0.8-0.1,1.2-0.2c0,0.6,0,1.2,0,1.9c0.9,0,1.8,0,2.6,0c0,0.5,0,0.9,0,1.3c-0.9,0-1.7,0-2.6,0
		c0,0.2,0,0.3,0,0.5c0,1.5,0,3.1,0,4.6c0,0.6,0.3,1.1,0.6,1.5c0.1,0.2,0.4,0.3,0.5,0.4c0.8,0,1.6,0.1,2.4-0.5
		c0.2,0.5,0.4,0.9,0.4,1.3c-1,0.6-2,0.7-3,0.5c-0.8-0.1-1.5-0.6-1.8-1.5c-0.3-0.9-0.4-1.8-0.4-2.7c0-1.4,0-2.7,0-4.1
		c-0.3,0-0.7,0-1,0c0-0.5,0-0.9,0-1.3c0.3,0,0.6,0,1,0c0-0.5,0-1,0-1.5C181.8,46.8,181.8,46.7,181.9,46.7z"/>
	<path d="M93.7,56.8c0.3-0.2,0.6-0.3,1-0.5c0,0.1,0.1,0.2,0.1,0.2c0.1,0.4,0.1,0.7,0.2,1c-1,0.6-2,0.6-3,0.5c-0.6,0-1.2-0.4-1.5-0.9
		c-0.4-0.5-0.6-1.2-0.7-1.9c-0.3-1.9,0-3.7-0.2-5.6c-0.3,0-0.6,0-1,0c0-0.5,0-0.9,0-1.3c0.3,0,0.6,0,1,0c0-0.5,0-1,0-1.6
		c0.5-0.1,0.9-0.2,1.4-0.4c0.1,0.3,0,0.6,0,1c0,0.3,0,0.6,0,1c0.9,0,1.7,0,2.6,0c0.1,0.4,0,0.9,0,1.3c-0.9,0-1.7,0-2.7,0
		c0,0.2,0,0.4,0,0.6c0,1.4,0,2.8,0,4.3c0,0.5,0.2,1,0.4,1.6c0.2,0.5,0.6,0.7,1,0.7C93,56.8,93.4,56.8,93.7,56.8z"/>
	<path d="M175.7,48.4c0.1,0.3,0.2,0.7,0.4,1.1c0.5-0.6,1.1-1,1.8-1.2c0.7-0.2,1.4,0,2.1,0.3c-0.2,0.4-0.3,0.8-0.5,1.2
		c-0.5,0-0.8-0.3-1.3-0.2c-0.8,0.1-1.5,0.4-1.9,1.1c0,0-0.1,0.1-0.1,0.1c0,2.3,0,4.7,0,7.1c-0.5,0-0.9,0-1.4,0c0-3.2,0-6.3,0-9.5
		C175.1,48.4,175.3,48.4,175.7,48.4z"/>
</g>
</svg>
