<svg id="Layer_1" data-name="Layer 1" xmlns="http://www.w3.org/2000/svg" viewBox="0 0 393.04 150.02"><defs><style>.cls-1{fill:#fff;}</style></defs><rect class="cls-1" width="393.04" height="150.02"/><path d="M122.94,9.4c.21.63.41,1.26.63,1.88.32.94.67,1.88,1,2.82s.61,1.86.93,2.78c.54,1.52,1.05,3.05,1.59,4.56.45,1.29.85,2.59,1.33,3.87s.73,2.29,1.18,3.41.83,2.54,1.31,3.79.74,2.29,1.19,3.41.83,2.54,1.31,3.79.85,2.59,1.34,3.86c.42,1.1.73,2.25,1.16,3.34.5,1.27.85,2.59,1.34,3.86.43,1.11.74,2.24,1.16,3.34.49,1.28.85,2.59,1.34,3.86s.81,2.61,1.33,3.86.86,2.68,1.43,4a26,26,0,0,1,.89,2.57c.34,1.11.76,2.19,1.13,3.29.49,1.51.95,3,1.54,4.5.53,1.31.89,2.67,1.42,4,.42,1,.7,2.11,1.07,3.16.27.81.57,1.61.86,2.45H149a10.07,10.07,0,0,1-.62-1.7c-.27-.77-.53-1.55-.79-2.32s-.52-1.5-.82-2.23-.61-1.81-.91-2.71-.5-1.52-.77-2.26a8.42,8.42,0,0,0-.85-2.22c-.21-.94-.58-1.82-.88-2.73-.25-.75-.5-1.51-.77-2.25a8.79,8.79,0,0,0-.85-2.22c-.27-1.09-.66-2.13-1-3.18-.25-.68-.51-1.36-.74-2s-.45-1.33-.7-2c-.33-.89-.59-1.81-.91-2.71s-.6-1.86-.93-2.77c-.6-1.67-1.16-3.35-1.74-5-.45-1.29-.84-2.59-1.33-3.86-.43-1.11-.74-2.25-1.17-3.34-.49-1.28-.86-2.59-1.33-3.86s-.74-2.3-1.18-3.41-.82-2.56-1.32-3.79c-.57-1.42-1-2.89-1.53-4.3-.38-.9-.64-1.84-1-2.77s-.62-1.85-.94-2.77c-.53-1.52-1-3.05-1.59-4.57-.44-1.28-.89-2.57-1.31-3.86a4.92,4.92,0,0,0-.34-.81c-.16-.28,0-.44.06-.65Z"/><path d="M101.39,23.07a1.56,1.56,0,0,1,.28.16,7.17,7.17,0,0,1,1.69,2.46,25.59,25.59,0,0,1,1.5,3.72c.12.43.34.84.46,1.28.28,1,.62,1.95.85,3,.35,1.45.65,2.91,1.06,4.34.28,1,.48,2,.82,3a8.63,8.63,0,0,1,.18,1c.1.61.25,1.21.4,1.81.09.34.12.69.19,1a10.82,10.82,0,0,0,.6,2.25c.29.67.59,1.33.94,2,.52.93,1,1.88,1.5,2.83.31.63.47,1.33.78,2a3.36,3.36,0,0,0,.29,1.28,3.52,3.52,0,0,0,.71,1.32,7.61,7.61,0,0,0,2,1.67c.12.06.31,0,.39.11.25.26.65-.08.86.25.3,0,.63.14.89-.14a2.62,2.62,0,0,0,1.18-.18,7.41,7.41,0,0,0,1.58-.82,5.34,5.34,0,0,0,1.22-1.1,3.48,3.48,0,0,0,.66-1.35,2.93,2.93,0,0,0,.11-1.34,4.76,4.76,0,0,1-.13-.79l-.16-.4a3.41,3.41,0,0,0-1.71-1.68c-.47-.23-.92-.49-1.41-.69a4.16,4.16,0,0,1-1.81-1.49,5.53,5.53,0,0,1-.79-1.45c-.26-.8-.23-.89.36-1.51h.76c.31.27.64.58,1,.85.57.44.78.48,1.93.46.48-.42,1.13-.34,1.7-.57.53.21,1.17.24,1.59.8V60.71c-.26.13-.48,0-.73-.09a5.34,5.34,0,0,0-.71-.07c-.33-.06-.66-.18-1-.23-.49-.07-1-.12-1.48-.15s-1,0-1.48,0a4.52,4.52,0,0,0-2.5.89,7.18,7.18,0,0,0-2.21,3.43c-.09.26,0,.54-.15.82a5.78,5.78,0,0,0-.19,1.35,2.55,2.55,0,0,0,1.09.83,20.74,20.74,0,0,0,4,1.68c.78.21,1.55.42,2.34.58a11.45,11.45,0,0,0,3,.27v4.37c-.37,0-.74-.08-1.11-.09A6.79,6.79,0,0,1,121.2,74a12,12,0,0,1-2.3-1,8.79,8.79,0,0,1-1.68-1.09,25,25,0,0,1-2.32-2,11.7,11.7,0,0,1-1.77-2.2,3.48,3.48,0,0,1-.51-1.49,6.5,6.5,0,0,1-.13-.9c0-.33-.21-.61-.15-1a2.34,2.34,0,0,0,0-.95c-.15-.59,0-1.21-.16-1.77a12.81,12.81,0,0,1-.12-1.49,9.24,9.24,0,0,0-.48-2.08,26.42,26.42,0,0,0-1.15-2.4c-.4-.79-.93-1.52-1.35-2.31A21.49,21.49,0,0,1,108,51c-.36-.93-.62-1.9-1-2.84-.18-.5-.24-1-.41-1.52-.25-.74-.27-1.53-.56-2.27-.11-.28,0-.59-.15-.89s-.07-.8-.19-1.18c-.17-.57-.18-1.18-.39-1.75-.12-.32,0-.68-.16-1s-.07-.71-.18-1,0-.66-.28-.91a7.71,7.71,0,0,0-.29-1.65,3.09,3.09,0,0,0-.18-1c-.19-.33-.06-.69-.25-1s-.08-.64-.17-1c-.19-.66-.28-1.36-.46-2s-.24-1.11-.4-1.66-.25-1-.34-1.49a3.89,3.89,0,0,0-.41-1.44c.09-.51-.28-.92-.32-1.42a6.53,6.53,0,0,0-.42-1.37c0-.15-.11-.29-.16-.44Z"/><path d="M215.48,29.71V24.35l.24-.23a2.46,2.46,0,0,0,1,0,3.92,3.92,0,0,1,1.06-.12l1-.17L219,24V45h-2.6l-.65-1c-.5.29-1,.59-1.48.83a4.48,4.48,0,0,1-1.94.48c-.44,0-.88,0-1.32,0a5.71,5.71,0,0,1-2.08-.49,4.28,4.28,0,0,1-1.5-1,6.77,6.77,0,0,1-1.94-3.62c-.32-.4-.09-.9-.26-1.36a2.74,2.74,0,0,1,0-1.45c.1-.49.06-1,.18-1.47s.24-.93.39-1.38a6.88,6.88,0,0,1,1.52-2.61,6.36,6.36,0,0,1,2.16-1.55,9.22,9.22,0,0,1,2.44-.69,13.4,13.4,0,0,1,1.78-.11,2.17,2.17,0,0,1,1.06.12C214.93,29.79,215.22,29.71,215.48,29.71Zm0,3.38c-.48-.09-1-.23-1.47-.28s-.88,0-1.32,0a2.6,2.6,0,0,0-1,.15,3.88,3.88,0,0,0-2.38,2,6.22,6.22,0,0,0-.53,2.2,8.17,8.17,0,0,0,.13,1.7c0,.06.11.11.12.17a4.05,4.05,0,0,0,.83,1.72,3.19,3.19,0,0,0,2.46,1.32,3.88,3.88,0,0,0,1.41-.17,4.51,4.51,0,0,0,1.79-.79Z"/><path d="M182,43.83c-.5.32-1,.64-1.47.93a4.56,4.56,0,0,1-2.05.55c-.42,0-.84,0-1.25,0a4.35,4.35,0,0,1-3.38-1.59,3.38,3.38,0,0,1-.72-1.54,6,6,0,0,1-.14-1.12c0-.17-.14-.36-.12-.52a4.52,4.52,0,0,0,.14-.75,1,1,0,0,1,.09-.7c.13-.2.08-.52.21-.72a3.31,3.31,0,0,1,1.8-1.59,8,8,0,0,1,2.61-.45c1.2,0,2.4,0,3.64,0a3.82,3.82,0,0,0-.4-2.3,2.42,2.42,0,0,0-1.4-1.08,2.1,2.1,0,0,0-.6-.14,5.23,5.23,0,0,0-1.25,0,11.7,11.7,0,0,0-2.52.66l-.85.36-.82-3c.7-.2,1.29-.53,2-.69a8.87,8.87,0,0,0,1.38-.38l.13,0a16.54,16.54,0,0,1,2.81-.14,6.68,6.68,0,0,1,2.93.89A5,5,0,0,1,184,31.68a4.2,4.2,0,0,1,.62,1.36,6,6,0,0,1,.16,1.41c0,2.15,0,4.31,0,6.42.38,1.07,1.31,1.37,2.19,1.68l-1.47,2.74A4.41,4.41,0,0,1,182,43.83ZM181.34,39c-1.05,0-2.06,0-3.06,0a4.06,4.06,0,0,0-1,.14,1.53,1.53,0,0,0-.95,1.35c0,.27,0,.54,0,.76a2.47,2.47,0,0,0,1.26,1.27h1.32a2.58,2.58,0,0,0,2.18-1.45.93.93,0,0,0,.1-.25A5,5,0,0,0,181.34,39Z"/><path d="M234.77,38.69H225.5c.45,1.37.6,2.14,2.76,3.17a7.56,7.56,0,0,0,5.57-.79l0,0a.11.11,0,0,1,0,.06v3.38a17.09,17.09,0,0,1-2.4.66,15.33,15.33,0,0,1-3.1.09,5,5,0,0,1-1.94-.45,8,8,0,0,1-2.56-1.63,7.49,7.49,0,0,1-1.63-2.79,3.39,3.39,0,0,1-.28-.83,14.29,14.29,0,0,1-.17-1.85c.05-.39,0-.79,0-1.18a6,6,0,0,1,.14-1,7.76,7.76,0,0,1,1.87-3.78,6.53,6.53,0,0,1,1.71-1.39c.47-.23,1-.39,1.45-.58a.31.31,0,0,1,.12-.05,12.53,12.53,0,0,1,1.93-.14,9,9,0,0,1,2.26.56,5.34,5.34,0,0,1,2,1.42,5.45,5.45,0,0,1,1,2,11.66,11.66,0,0,1,.34,1.78c.06.55.1,1.09.11,1.64S234.77,38.08,234.77,38.69ZM231.51,36a2.65,2.65,0,0,0-.46-1.84c-.33-.65-.4-.63-1.35-1.1a1,1,0,0,0-.47-.13c-.31,0-.63,0-.95,0a2.06,2.06,0,0,0-1.33.53c-.13.12-.29.2-.42.33a5.2,5.2,0,0,0-.35.44,3.66,3.66,0,0,0-.64,1.77Z"/><path d="M192.42,45h-3.54V29.89h2.9c.3.26.17.74.39,1.11a12,12,0,0,1,2.43-1.06,5.05,5.05,0,0,1,1.09-.24c.22,0,.45-.11.67-.13s.49,0,.74,0a6.94,6.94,0,0,1,3.06.78,3.72,3.72,0,0,1,1.37,1.27,5.06,5.06,0,0,1,.89,2.13,18.88,18.88,0,0,1,.12,2.81c0,.93,0,1.86,0,2.79V45c-1.12,0-2.23,0-3.39,0v-.75c0-2.7,0-5.4,0-8.09a3.93,3.93,0,0,0-.29-1.43,3.21,3.21,0,0,0-.55-1,2.9,2.9,0,0,0-2.07-.86c-.44,0-.88,0-1.32,0a3.42,3.42,0,0,0-1.48.34l-1,.43Z"/><path d="M156.06,29.1v4.71h8.05v3.24h-8V45H152.7V25.76h11.68s0,0,0,0,0,0,0,.06V29.1Z"/><path d="M108.63,72.2l-.16.16s-.07,0-.09-.06a2.56,2.56,0,0,0-.22-.35,20.62,20.62,0,0,0-2.67-2.06c-.64-.46-1.28-.92-1.93-1.36s-.88-.83-1.35-1.19a15.38,15.38,0,0,1-1.38-1.42A4.59,4.59,0,0,1,100,64.8a12.49,12.49,0,0,1-1.1-2.41c-.15-.53-.23-1.08-.39-1.6A7.14,7.14,0,0,1,98.36,59a2.61,2.61,0,0,0-.14-.6c-.1-.42.16-.79.15-1.19a4.15,4.15,0,0,1,0-1.17c.15-.6.18-1.2.28-1.8,0-.18.1-.35.14-.53a39.14,39.14,0,0,1,1.27-4.47,31.55,31.55,0,0,0,1-3.36c.14-.7.34-1.38.43-2.09,0-.35.1-.7.16-1a5.29,5.29,0,0,0,.13-1c0-.36,0-.72,0-1.14.52.36.63.9.88,1.35a9.9,9.9,0,0,1,.45,1.43,11.61,11.61,0,0,1,.17,1.4,7.29,7.29,0,0,1,.1,2.23c0,.61-.07,1.24-.15,1.84a10.83,10.83,0,0,1-.28,1.72c-.13.42-.16.86-.28,1.28s-.16.81-.26,1.21a2.94,2.94,0,0,0-.17,1c.05.61-.19,1.17-.17,1.78s0,1.17,0,1.76a2.6,2.6,0,0,0,.11,1.13,5.32,5.32,0,0,1,.15,1.11,13.05,13.05,0,0,0,.47,1.94,8.89,8.89,0,0,0,1.49,2.84c.52.61,1,1.24,1.56,1.85A17.35,17.35,0,0,1,108.22,70a4.12,4.12,0,0,1,.3.83A3,3,0,0,1,108.63,72.2Z"/><path d="M106.3,138.6h-.52a5.77,5.77,0,0,1-2.41-.58,6.86,6.86,0,0,1-2.42-1.94,6.6,6.6,0,0,1-1.25-2.5,6.71,6.71,0,0,1-.3-1.79c0-.44,0-.88,0-1.32a7.16,7.16,0,0,1,.53-2.36,9.86,9.86,0,0,1,.77-1.52,10.88,10.88,0,0,1,1.12-1.22,4.19,4.19,0,0,1,1.53-1.1,7.63,7.63,0,0,1,1.83-.57,12.91,12.91,0,0,1,1.64-.11,1.25,1.25,0,0,1,.58,0c.45.21,1,.15,1.4.35a5.22,5.22,0,0,1,1.4.69c.46.39,1,.65,1.33,1.26.18.36.52.63.73,1a7.75,7.75,0,0,1,.84,2.23c.08.33.07.66.15,1a2.76,2.76,0,0,1,.13.9,7.74,7.74,0,0,1-.73,3.38c0,.39-.3.61-.43.92s-.44.56-.6.86c-.3.59-.89.84-1.31,1.28a9.83,9.83,0,0,1-2.23,1A6.69,6.69,0,0,1,106.3,138.6ZM102.05,131a3.85,3.85,0,0,1,0,.59c-.12.78.34,1.43.45,2.16.54.69.94,1.49,1.83,1.88a3.57,3.57,0,0,0,1.59.43,11.41,11.41,0,0,1,1.17,0,3.08,3.08,0,0,0,1.9-.72,4.52,4.52,0,0,0,1.73-3.45,5.16,5.16,0,0,0-.13-2.21,6.42,6.42,0,0,0-.51-1.41,4.66,4.66,0,0,0-1.54-1.55,4.09,4.09,0,0,0-3.4-.53,5.13,5.13,0,0,0-2.32,1.68,1.81,1.81,0,0,0-.45.76,5.51,5.51,0,0,0-.32,1.71A4.85,4.85,0,0,1,102.05,131Z"/><path d="M257.42,30.19v3l-.18.18-.1,0a4.78,4.78,0,0,0-2.72-.52c-.1,0-.2,0-.3,0a2.08,2.08,0,0,0-.89.14,1.79,1.79,0,0,0-.71.43c-.6.61-.49,1.2.24,1.65a9.6,9.6,0,0,0,1.69.71,8.34,8.34,0,0,1,2.46,1.18c.53.12.69.63.95,1a3.44,3.44,0,0,1,.6,2c0,.27,0,.54,0,.81a4.29,4.29,0,0,1-2.25,3.69,6.73,6.73,0,0,1-1.37.61,6.32,6.32,0,0,1-1.28.26c-.42,0-.84,0-1.25,0A6.43,6.43,0,0,1,249,44.5l-.26-.11V41l1.29.53a5.31,5.31,0,0,0,2.28.51,5.11,5.11,0,0,0,1.29-.07,2.43,2.43,0,0,0,1.42-1V39.8a2.51,2.51,0,0,0-1.7-1.26c-.89-.33-1.8-.61-2.66-1a3.61,3.61,0,0,1-1.78-2,4.53,4.53,0,0,1,0-2.51A3.69,3.69,0,0,1,250,30.85a4.88,4.88,0,0,1,1.87-1,7.93,7.93,0,0,1,3-.28,15.22,15.22,0,0,1,2,.42Z"/><path d="M135.45,123.91v6h6v-6h2.63v14.52c-.83.06-1.7,0-2.6,0v-6h-6v6h-2.64V123.91Z"/><path d="M202.58,138.42h-2.76c-.37-1-.62-2-1.08-3h-5.61l-1.07,3.05h-2.73q2.55-7.41,5.11-14.82h3Q200,131,202.58,138.42ZM196,127.16c-.36,1-.67,2-1,2.88s-.73,1.83-1,2.82h3.72l.06,0s0,0,.08-.1C197.25,130.94,196.63,129.12,196,127.16Z"/><path d="M167.38,134c.13.27.21.49.32.68a2.57,2.57,0,0,0,2.2,1.38,11.8,11.8,0,0,0,1.33,0,2.73,2.73,0,0,0,2.57-1.81,3.42,3.42,0,0,0,.21-1.17c0-2.81,0-5.63,0-8.45v-.75h2.62c0,.15,0,.34,0,.52,0,3,0,6,0,9a5.57,5.57,0,0,1-.91,3,4.37,4.37,0,0,1-2.45,1.82,6,6,0,0,1-1.79.31c-.51,0-1,0-1.54,0a5.4,5.4,0,0,1-3.16-.9,4,4,0,0,1-1.63-2c-.13-.36-.27-.72-.37-1.09,0,0,0-.08-.06-.12,0-.55-.14-1.09-.14-1.63q0-4.12,0-8.23v-.73h2.65v7.26a13.19,13.19,0,0,1,0,1.54C167.16,133.2,167.49,133.62,167.38,134Z"/><path d="M155.59,123.91v2.46h-6v3.54h5.82v2.48c-.94.06-1.91,0-2.88,0h-3v3.51h6v2.49h-8.65V123.91Z"/><path d="M94,60.17h-.28a.86.86,0,0,1,0-.15,7.08,7.08,0,0,0,0-2.6,11.39,11.39,0,0,0-.88-2.74,19.69,19.69,0,0,1-.76-2.4,11.13,11.13,0,0,1-.27-3.85,9.8,9.8,0,0,1,1-3.92,8.45,8.45,0,0,1,.85-2.15,7.32,7.32,0,0,1,1.24-2c.69-.92,1.37-1.86,2.14-2.71s1.17-1.55,1.8-2.28a12.66,12.66,0,0,0,1.77-3.24,3.3,3.3,0,0,0,0-.64c.16.23.29.33.29.44,0,.38.26.72.16,1.11a3.24,3.24,0,0,1,.14,1.63A7.81,7.81,0,0,1,99.73,39a29.2,29.2,0,0,0-1.92,3.11c-.23.42-.48.83-.67,1.26-.3.67-.59,1.33-.84,2s-.44,1.44-.68,2.15c-.1.28.06.62-.19.87-.05.69-.12,1.38-.15,2.07a8.85,8.85,0,0,0,0,2.06,13.44,13.44,0,0,1,.11,2.37,18.43,18.43,0,0,1,0,2.35A3.89,3.89,0,0,1,94,60.17Z"/><path d="M304.36,109.83V98.75h1.76v14.51h-1.71l-7-11.18-.09.07a.14.14,0,0,0,0,.06v11.05h-1.7c-.11-.63-.16-11.08-.05-14.51h1.87Z"/><path d="M124.87,102.12v11.15h-1.75V98.74H125l6.93,11.07V98.74h1.75v14.53H132q-3.48-5.58-7-11.19Z"/><path d="M240.79,31.09A8.32,8.32,0,0,1,243,29.85a5,5,0,0,1,2.45-.26,4.73,4.73,0,0,1,2.27.64c-.18.57-.38,1.16-.56,1.74s-.33,1.14-.5,1.71a4.8,4.8,0,0,0-2.93-.75A5.1,5.1,0,0,0,241,34V45h-3.38V29.89h2.89Z"/><path d="M170,23.84V45h-3.31c-.12-.69-.16-16.57-.05-20.81a10.67,10.67,0,0,1,1.68-.19A14.57,14.57,0,0,1,170,23.84Z"/><path d="M186.79,124v2.37a9.57,9.57,0,0,0-4.81.11,3.44,3.44,0,0,0-.54.65.75.75,0,0,0-.07.55,2.73,2.73,0,0,0,.83,1.11,12,12,0,0,0,2.44,1.2,5.69,5.69,0,0,1,2,1c.41.37.8.76,1.18,1.16s.33.89.59,1.3A4.51,4.51,0,0,1,188,136a5.33,5.33,0,0,1-1.34,1.38,6.45,6.45,0,0,1-1.31.73c-.45.2-1,.25-1.43.45a1.07,1.07,0,0,1-.36,0c-.59,0-1.18,0-1.77,0a8.21,8.21,0,0,1-2.45-.49c-.06,0-.1-.1-.18-.18v-2.4c.54.17,1.06.31,1.59.43a11.82,11.82,0,0,0,2.59.13,3.06,3.06,0,0,0,1.51-.43,2.84,2.84,0,0,0,.92-.87c.17-.25.3-.55,0-.84-.05,0,0-.19,0-.26a5.91,5.91,0,0,0-2.68-1.73,11.89,11.89,0,0,1-2.62-1.31,3.56,3.56,0,0,1-1.61-3,3.74,3.74,0,0,1,.12-1.28,3.34,3.34,0,0,1,1.68-2,12.23,12.23,0,0,1,1.45-.59,7.84,7.84,0,0,1,1.43-.27,6.47,6.47,0,0,1,1.32,0,9.68,9.68,0,0,1,1.19.15A6,6,0,0,1,186.79,124Z"/><path d="M136.35,113.29V98.72c1.78,0,3.54,0,5.29,0a6.42,6.42,0,0,1,1.86.46,7.36,7.36,0,0,1,1.79,1A7.49,7.49,0,0,1,147,102a5.79,5.79,0,0,1,.83,1.78,9,9,0,0,1,.31,2.37,7.31,7.31,0,0,1-1.35,4.29,5.77,5.77,0,0,1-1.39,1.4,3.36,3.36,0,0,1-1,.66,7,7,0,0,0-1.12.5c-.2.1-.49-.06-.65.19-.52,0-1,.13-1.56.14C139.46,113.3,137.92,113.29,136.35,113.29Zm1.77-1.62c1.16,0,2.28,0,3.41,0a5.21,5.21,0,0,0,1.15-.23,5,5,0,0,0,2.85-2.12,4,4,0,0,0,.78-2,9.43,9.43,0,0,0-.1-2.8,5.26,5.26,0,0,0-.9-1.91,6.33,6.33,0,0,0-1.58-1.47,5,5,0,0,0-2.23-.82c-1.11-.08-2.24,0-3.38,0Z"/><path d="M191.23,113.29V98.72h2.12c.9,0,1.81,0,2.71,0a6.84,6.84,0,0,1,3.23.9,7.24,7.24,0,0,1,2.27,2,9.14,9.14,0,0,1,1.22,2.44,1.39,1.39,0,0,1,.06.13c0,.44.12.89.14,1.33a6.47,6.47,0,0,1,0,1.32,7.75,7.75,0,0,1-.51,2.07,6.89,6.89,0,0,1-1.4,2.14,6.79,6.79,0,0,1-2.15,1.56,10.08,10.08,0,0,1-2,.59,14.83,14.83,0,0,1-2.3.11c-.78,0-1.57,0-2.35,0Zm1.77-13v11.33c1.17,0,2.32,0,3.47,0a4.51,4.51,0,0,0,1.08-.22,5.15,5.15,0,0,0,2.86-2.12,4.13,4.13,0,0,0,.78-1.94,9.17,9.17,0,0,0-.1-2.81,5,5,0,0,0-.89-1.9,5.88,5.88,0,0,0-1.58-1.48,4.93,4.93,0,0,0-2.29-.83C195.24,100.28,194.13,100.34,193,100.34Z"/><path d="M172.57,112c-.12.59-.58.92-.8,1.4a1.69,1.69,0,0,1-1.43-.65,11.06,11.06,0,0,1-1.92-2.43c-.41-.66-.76-1.35-1.15-2-.67-.06-1.36.22-2.09.15a14.76,14.76,0,0,0-1.76,0,1.68,1.68,0,0,0-.46.13v4.69h-1.58V98.72h2.91c.62,0,1.23,0,1.84,0,.44,0,.83.16,1.26.16a4.89,4.89,0,0,1,1.2.29,3.51,3.51,0,0,1,2.62,2.66,6.43,6.43,0,0,1,.11,2.65,3.61,3.61,0,0,1-1.62,2.79c-.24.14-.46.32-.74.52a8.39,8.39,0,0,0,1.43,2.39A4.81,4.81,0,0,0,172.57,112ZM163,100.34v2.13c0,1.32,0,2.64,0,4a.51.51,0,0,0,.25.53h.24c.72,0,1.43,0,2.14-.12a11.27,11.27,0,0,0,1.93-.32,3.06,3.06,0,0,0,1.7-1.19,3.6,3.6,0,0,0,.51-2.2c-.22-.24-.11-.54-.16-.83a6,6,0,0,0-.52-.79,4,4,0,0,0-2.75-1.15C165.22,100.26,164.11,100.34,163,100.34Z"/><path d="M286.52,113.43h-.59a5,5,0,0,1-3.57-1.49,6.46,6.46,0,0,1-1.16-1.28,7.85,7.85,0,0,1-1.14-2.77,10.91,10.91,0,0,1-.12-1.27c0-.16.05-.34-.13-.46a.25.25,0,0,1,0-.21c.26-.45,0-1,.16-1.41s.1-.64.19-1a6.54,6.54,0,0,1,.85-2A6.75,6.75,0,0,1,284,99a5,5,0,0,1,1.66-.44c.22,0,.44-.11.67-.14a2.91,2.91,0,0,1,.66,0,8.14,8.14,0,0,1,2.68.63,6.51,6.51,0,0,1,2.54,2.29,9.78,9.78,0,0,1,1,2.1c.1.29-.06.63.19.88-.11.58.22,1.13.14,1.7a9.77,9.77,0,0,1-1,4,7.54,7.54,0,0,1-2.33,2.53,5.38,5.38,0,0,1-3,.88Zm5.19-7.24c0-.36,0-.61,0-.85s-.11-.5-.14-.75a5.23,5.23,0,0,0-4.05-4.54,9.28,9.28,0,0,0-2.36.16,4.63,4.63,0,0,0-2.43,1.79,13.33,13.33,0,0,0-.76,1.45,17,17,0,0,0-.39,1.68,2.33,2.33,0,0,0,0,1c0,.27-.08.54.12.83s-.1.62.17.88a4.78,4.78,0,0,0,1.57,2.88,5.08,5.08,0,0,0,1.5,1,7.37,7.37,0,0,0,2,.3c.23,0,.42-.18.68-.15a2,2,0,0,0,1.06-.26,5.26,5.26,0,0,0,1.64-1.2,4.39,4.39,0,0,0,1.07-1.91A5.15,5.15,0,0,0,291.71,106.19Z"/><path d="M248.43,100.51l-.69-.17a10.88,10.88,0,0,0-3.11-.29,5.28,5.28,0,0,0-1.31.22,4.81,4.81,0,0,0-1.55.68,5.44,5.44,0,0,0-2,2.83,7,7,0,0,0-.27,2.67,8.27,8.27,0,0,0,.7,2.5,5.71,5.71,0,0,0,2.64,2.61,2.27,2.27,0,0,0,.85.26c.2,0,.4.15.6.13a5.39,5.39,0,0,0,2.48-.56,10.43,10.43,0,0,0,.93-.79v-3.76h-3c0-.28,0-.54,0-.8v-.82h4.66l.18.18v7.87h-.77l-.94-.73-1,.49a4.14,4.14,0,0,1-1.52.4h-1.55a4.55,4.55,0,0,1-2.58-.85,6.93,6.93,0,0,1-2.64-3.14A10.78,10.78,0,0,1,238,108a18.26,18.26,0,0,1-.15-3.62,9.5,9.5,0,0,1,1.38-3.33,6.43,6.43,0,0,1,3.19-2.25,3.68,3.68,0,0,1,1.15-.24c.38,0,.75-.11,1.12-.13a3.37,3.37,0,0,1,1.31,0c.42.16.83,0,1.19.13s.83.11,1.23.35Z"/><path d="M94,138.44H91.31v-12H86.92V124c.61-.12,7.73-.16,11.45-.06v2.27l-.26.22H94Z"/><path d="M123.26,126.38H119l-.2-.2v-2.27h11.44v2.45h-4.37v12l-.08.07-.06,0h-2.51Z"/><path d="M111.69,109.93l-1.17,3.34h-1.71a3,3,0,0,1,.11-.45c.55-1.65,1.09-3.32,1.67-5,.31-.87.65-1.74.93-2.63s.55-1.58.83-2.37.66-1.89,1-2.83c.14-.41.25-.83.39-1.27h2.4c.37,1.13.71,2.31,1.13,3.46.62,1.66,1.14,3.36,1.73,5,.52,1.43,1,2.88,1.48,4.31.16.45.33.9.52,1.33a2.9,2.9,0,0,1,.07.38H119.3l-1.14-3.32Zm.56-1.67h5.34l-2.67-7.72Z"/><path d="M263.56,113.27h-1.8c-.37-1.11-.74-2.23-1.12-3.35h-6.45L253,113.27h-1.75q2.52-7.3,5-14.54h2.32Zm-6.19-12.78c-.08.31-.11.45-.15.58-.27.79-.55,1.58-.82,2.38-.5,1.45-1,2.91-1.52,4.37,0,.14-.07.28-.12.46,1,0,1.83,0,2.71,0s1.74,0,2.58,0c-.44-1.3-.83-2.58-1.31-3.83S257.93,101.87,257.37,100.49Z"/><path d="M150.34,98.74h8.78v1.59h-7v4.84h7c0,.28,0,.54,0,.8v.82h-7v4.87h7v1.61h-8.77Z"/><path d="M205.05,113.25V98.8c.6-.11,6.84-.15,8.8,0v1.39l-.21.22h-6.81v4.81h7c0,.28,0,.54,0,.8v.82h-7v4.87h7v1.59Z"/><path d="M235.79,105.17v1.62h-7.17v4.87h7.15v1.61H227V98.79c.57-.1,6.82-.14,8.78,0v1.39l-.22.22h-6.95v4.81Z"/><path d="M98.11,24.15c.37-.15.66.12.89.28a2.39,2.39,0,0,1,1.11,2.22,4.63,4.63,0,0,1-.83,2.22c-.37.52-.76,1-1.18,1.51a13.3,13.3,0,0,1-1,1.11c-.29.28-.61.53-.92.79s-.49.59-.87.73c-.11,0-.18.17-.26.25-.31.3-.66.57-1,.85-.53.5-.95,1.12-1.44,1.67a8.65,8.65,0,0,0-1,1.44,7.69,7.69,0,0,0-1,3.07A8.6,8.6,0,0,0,91,41.85a10.42,10.42,0,0,1-1-.74,11.14,11.14,0,0,1-.83-1,4.29,4.29,0,0,1-.76-1.67,3.6,3.6,0,0,1,0-1.6A5.14,5.14,0,0,1,89,35.34,14,14,0,0,1,89.84,34c.4-.52.88-1,1.32-1.43A14.57,14.57,0,0,1,93.06,31l.11-.1C94.1,30,95.08,29.14,96,28.2a11.29,11.29,0,0,0,1.89-2.45,4.73,4.73,0,0,0,.35-.8A1,1,0,0,0,98.11,24.15Z"/><path d="M97.18,105.17v1.48H90v6.62H88.24V98.79c.58-.1,6.76-.14,9,0v1.37l-.24.24H90v4.81Z"/><path d="M181.21,108.84a3.27,3.27,0,0,0-.43-.74,3.89,3.89,0,0,0-.88-.69c-.94-.51-1.91-1-2.84-1.49a5.75,5.75,0,0,1-1.66-1.15,2.54,2.54,0,0,1-.55-1l-.24-.92a2.69,2.69,0,0,1,0-1,8.15,8.15,0,0,1,.21-.94,3.72,3.72,0,0,1,.88-1.33,4.34,4.34,0,0,1,1.77-.88,5.69,5.69,0,0,1,2.08-.28,7.37,7.37,0,0,1,2.39.48v1.4a4,4,0,0,1-1.38-.17,9.78,9.78,0,0,0-1.42-.1c-.47,0-.93.1-1.34.15l-.53.29a1.7,1.7,0,0,0-.9,1.48c0,.31,0,.63,0,.91a4.17,4.17,0,0,0,.46.73,3.06,3.06,0,0,0,.78.55c.85.47,1.73.92,2.58,1.4a8.62,8.62,0,0,1,2,1.4,2.71,2.71,0,0,1,.82,1.94,4.87,4.87,0,0,1-.27,1.72,4.23,4.23,0,0,1-1.72,2.07,4.87,4.87,0,0,1-.92.44,7.27,7.27,0,0,0-1,.29.7.7,0,0,1-.29,0c-.81,0-1.62,0-2.42,0A4.24,4.24,0,0,1,175,113a1.36,1.36,0,0,0-.38-.07v-1.6a1,1,0,0,1,.35,0,5.3,5.3,0,0,0,2,.42,6.06,6.06,0,0,0,.82.13,5.69,5.69,0,0,0,2.72-.71,1.65,1.65,0,0,0,.73-1.2A6.89,6.89,0,0,0,181.21,108.84Z"/><path d="M252.16,64.61c-.32.93-.62,1.83-.93,2.74h-1.48l4.12-12h1.93q2.06,5.94,4.15,12H258.5l-1-2.74Zm2.71-7.74c-.35.74-.54,1.44-.8,2.12-.47,1.16-.83,2.36-1.18,3.55-.07.21-.34.45-.1.72h4.12s0,0,0,0,0-.1,0-.13C256.29,61,255.6,59,254.87,56.87Z"/><path d="M273.88,100.14l-.2.21h-4.31v12.9H267.6V100.44l-.07-.08-.06,0h-4.28V98.76h10.69Z"/><path d="M226.41,54.34a2.35,2.35,0,0,1,1.43-.16v4.35c.52-.22,1-.46,1.5-.64a3.19,3.19,0,0,1,1-.21c.32,0,.68-.17,1,.13a2.37,2.37,0,0,1,1.71.84,2.65,2.65,0,0,1,.69,1.4,7.59,7.59,0,0,1,.18,1.85c0,1.81,0,3.62,0,5.45h-1.47v-.53c0-2,0-3.92,0-5.88a2.16,2.16,0,0,0-.36-1.18,1.53,1.53,0,0,0-1-.64,3.33,3.33,0,0,0-1.44,0,9.9,9.9,0,0,0-1.77.75v7.49l-.72,0h-.75Z"/><path d="M174.89,66.26l-.78,1.28c-.78-.08-1.07-.74-1.5-1.2a4,4,0,0,1-1.89,1.14,5.58,5.58,0,0,1-1.23,0,2.8,2.8,0,0,1-1.59-.43,2.27,2.27,0,0,1-1.26-2c0-.27,0-.54,0-.81a1.48,1.48,0,0,1,.19-.8,2.33,2.33,0,0,1,1.83-1.38,5.06,5.06,0,0,1,1.27-.12h2.27a4.46,4.46,0,0,0-.12-1.86,1,1,0,0,0-.62-.79A3,3,0,0,1,171,59a7,7,0,0,0-3.35.58c-.37-.27-.26-.77-.53-1.14a21.52,21.52,0,0,1,2.11-.66,6.18,6.18,0,0,1,1.71-.11,2.59,2.59,0,0,1,2,.87,2.68,2.68,0,0,1,.66,1.64c0,1.3,0,2.6,0,3.89a2.81,2.81,0,0,0,.3,1.21C174.16,66,174.16,66,174.89,66.26Zm-6.69-.76.8.7c.45,0,.84,0,1.22,0a1.84,1.84,0,0,0,1.41-.66,3.09,3.09,0,0,0,.58-2.28h-2.54a1.53,1.53,0,0,0-1.16.4c0,.06-.16.07-.25.09C167.78,64.28,167.94,64.84,168.2,65.5Z"/><path d="M237.38,62.94a4.28,4.28,0,0,0,.78,2.19,2.49,2.49,0,0,0,1.44,1c.11,0,.21.08.32.1s.29,0,.44,0a4.49,4.49,0,0,0,2.76-.67c0,.28,0,.48,0,.69v.67a3,3,0,0,0-.88.37,6.27,6.27,0,0,1-2.91.24,2.62,2.62,0,0,1-1.53-.69,4.1,4.1,0,0,1-1.07-1.16,6.94,6.94,0,0,1-.67-1.71,9.68,9.68,0,0,1-.15-1.7c.05-.25.1-.5.14-.75s-.08-.55.14-.83.08-.5.18-.73a4,4,0,0,1,1.72-1.82c.18-.1.37-.18.56-.27a8.56,8.56,0,0,1,1.9-.18,6,6,0,0,1,1.6.58,3.34,3.34,0,0,1,1,1.66,16.18,16.18,0,0,1,.16,3Zm.06-1.3H242c-.12-.6-.19-1.15-.35-1.67a1.2,1.2,0,0,0-.45-.61,2,2,0,0,0-1.73-.31,2.64,2.64,0,0,0-1.64,1.41A10.83,10.83,0,0,0,237.44,61.64Z"/><path d="M190.19,63h-5.9a4.56,4.56,0,0,0,.5,1.78,4.12,4.12,0,0,0,.89,1,2.06,2.06,0,0,0,1.21.46c.29,0,.58,0,.88,0a3.66,3.66,0,0,0,2-.52,1.32,1.32,0,0,1,.26-.12c0,.47,0,.9,0,1.38a3.63,3.63,0,0,0-.58.21,5.43,5.43,0,0,1-3.08.35,3.53,3.53,0,0,1-2-1,6.39,6.39,0,0,1-1.18-1.79A3.74,3.74,0,0,1,183,64a7.3,7.3,0,0,1-.16-1.62,4.68,4.68,0,0,1,.14-.9c.05-.32.09-.64.14-1s.35-.5.3-.83a4.5,4.5,0,0,1,1.36-1.42c.25-.13.49-.26.72-.4s.59.1.81-.19a5.3,5.3,0,0,1,2.3.29,2,2,0,0,1,.92.77,3.7,3.7,0,0,1,.65,1.78C190.21,61.31,190.19,62.12,190.19,63Zm-2.81-4a2.37,2.37,0,0,0-2.31.93,2.27,2.27,0,0,0-.61,1.69h4.43l-.2-1.33A2,2,0,0,0,187.38,59Z"/><path d="M101,111.66h6.9v1.55c-.59.11-6.06.15-8.48.05V98.73H101Z"/><path d="M224.6,111.64v1.62h-8.48V98.75h1.53s0,0,0,0a.14.14,0,0,1,0,.07v12.8Z"/><path d="M201.26,67.54a3.47,3.47,0,0,1-2.94-1.39,4.44,4.44,0,0,1-1.08-2.41,6,6,0,0,1-.14-1.27A5.41,5.41,0,0,1,199,58.54a4.19,4.19,0,0,1,1.6-.74,4.1,4.1,0,0,1,3,.36,4.47,4.47,0,0,1,2,2.32,11.56,11.56,0,0,1,.42,1.81,3.09,3.09,0,0,1-.1,1,5.34,5.34,0,0,1-.61,2,4.61,4.61,0,0,1-2.37,2.09A4.47,4.47,0,0,1,201.26,67.54Zm-.52-1.34c.43,0,.85,0,1.27,0a2.28,2.28,0,0,0,1.32-.53,3.43,3.43,0,0,0,1.1-2.27,4.54,4.54,0,0,0-.53-3,2.82,2.82,0,0,0-.82-.89c-.21-.16-.42-.5-.8-.36a2.55,2.55,0,0,0-1.57,0,2.52,2.52,0,0,0-1.15.62,2.21,2.21,0,0,0-.62.9,4.47,4.47,0,0,0-.35,1.25,8.07,8.07,0,0,0,0,1.39,2.33,2.33,0,0,0,.15.75c.31.8.62,1.61,1.55,1.91A2.58,2.58,0,0,1,200.74,66.2Z"/><path d="M151.36,67V65.78c.4.09.78.16,1.14.28a6.59,6.59,0,0,0,2.65.11,1.89,1.89,0,0,0,1.63-1.32c0-.24,0-.61,0-1a1.11,1.11,0,0,0-.19-.58,3.58,3.58,0,0,0-1.08-.93c-1-.48-1.91-1-2.85-1.47a2.22,2.22,0,0,1-1-1.37,4,4,0,0,1,0-2.44,2.47,2.47,0,0,1,1.22-1.47,4.12,4.12,0,0,1,1.95-.46c.41,0,.83,0,1.25,0s.73.12,1.15.19c.32.34.07.8.17,1.23a.86.86,0,0,1-.63,0,1.93,1.93,0,0,0-.55-.07c-.28-.05-.58.13-.84-.14a.36.36,0,0,0-.35,0c-.3.22-.64.11-1,.15-.88.52-.88.52-1.24,1.1,0,.32,0,.67,0,1a1,1,0,0,0,.3.76,3.89,3.89,0,0,0,1.14.79c.62.33,1.28.59,1.9.93a4,4,0,0,1,2,2v1.31a2.51,2.51,0,0,1-.56,1.54,4.73,4.73,0,0,1-2.45,1.54,1.4,1.4,0,0,1-.36,0h-1.17A4.12,4.12,0,0,1,151.36,67Z"/><path d="M90.48,29.13c-.08-.61-.17-1.05-.2-1.49s0-.88,0-1.32a4.15,4.15,0,0,1,.34-1.69,7.17,7.17,0,0,1,.84-1.5,10.29,10.29,0,0,1,3.22-2.69,8.93,8.93,0,0,0,.8-.57,4.43,4.43,0,0,0,1.24-1.38L97,18a5.54,5.54,0,0,1,.35,2.64,5.16,5.16,0,0,1-2.16,3.73,13.92,13.92,0,0,0-2.72,2.12,8,8,0,0,0-1.44,2A4.9,4.9,0,0,1,90.48,29.13Z"/><path d="M116.86,34.69A4.87,4.87,0,0,1,116,34a.92.92,0,0,1-.14-.65,2.58,2.58,0,0,1,.38-.68c-.38-.61-1-.69-1.72-.8a12.68,12.68,0,0,1-2.46-.44,4.11,4.11,0,0,1-1.42-.84,13.54,13.54,0,0,1-2-2.7,1.55,1.55,0,0,0-.8-.67,10.12,10.12,0,0,1,2.32-.35c.25,0,.54.11.76-.13,0,0,.14,0,.21,0a9.56,9.56,0,0,1,3.56.8,4.82,4.82,0,0,1,2.18,2.61,3.81,3.81,0,0,1,.31,1.64c0,.16,0,.34.13.46a.25.25,0,0,1,0,.21c-.25.4-.08.85-.16,1.26A6.34,6.34,0,0,1,116.86,34.69Zm-3.4-5.15h-.76c-.34-.25-.15-.55-.23-.89l1.3-.16c.3-.13.17-.4.19-.63l-.14-.13c-1.1-.36-1.7.29-2.28,1h-.35V29.8c.07.07.14.11.17.18a1.74,1.74,0,0,0,1.17.86,3.39,3.39,0,0,0,.64.06,3.65,3.65,0,0,0,1-.09,1.44,1.44,0,0,0,.83-1.67A2.27,2.27,0,0,0,113.46,29.54Z"/><path d="M208.6,59.38l-.25-.25H207V57.84h1.58c0-.28,0-.54,0-.8a3.37,3.37,0,0,1,1-2.37,2,2,0,0,1,1.25-.52,6,6,0,0,1,1.4,0,11.42,11.42,0,0,1,1.38.33l-.4,1.3a3.31,3.31,0,0,0-1.91-.32,1,1,0,0,0-1,.59,1.78,1.78,0,0,0-.31,1,3.34,3.34,0,0,1-.16.76h2.2v1.33h-1.94l-.24.24v8c-.42,0-.85,0-1.3,0Z"/><path d="M277.88,113.27h-1.76V98.74l.84,0h.92v14.55Z"/><path d="M162,65a3,3,0,0,0,1,1.25,3.36,3.36,0,0,0,2.47-.54l.37,1.35a6,6,0,0,1-3.23.51,3.34,3.34,0,0,1-1.32-.94,1.84,1.84,0,0,1-.47-.84,5.24,5.24,0,0,1-.28-1.57c0-1.66,0-3.33,0-5h-1V57.82h1V56.29l.21-.2,1.28-.21v1.91h2.41l.22.22v1.12H162Z"/><path d="M219.47,59.12h-1V57.84h1c.07-.54,0-1.07,0-1.63.43-.29,1-.09,1.43-.37v1.87a.57.57,0,0,1,.08.08l.06,0h2.51v1.31h-2.62v1.72c0,1.15,0,2.3,0,3.45a2.74,2.74,0,0,0,.29,1.13,1.67,1.67,0,0,0,.84.77,3.13,3.13,0,0,0,2.29-.49,4.2,4.2,0,0,1,.43,1.28,5,5,0,0,1-3.1.54,2.62,2.62,0,0,1-1.62-1.15,5.84,5.84,0,0,1-.47-1.35,11.15,11.15,0,0,1-.12-2.37C219.45,61.5,219.47,60.35,219.47,59.12Z"/><path d="M268.83,56.09l1.24-.18v1.9h2.65v1.3h-2.61c0,.18,0,.34,0,.5,0,1.55,0,3.09,0,4.63a2.93,2.93,0,0,0,.55,1.54c.12.18.37.28.54.41a3.33,3.33,0,0,0,2.36-.5,2.88,2.88,0,0,1,.38,1.31,4.4,4.4,0,0,1-3,.5A2.23,2.23,0,0,1,269.05,66a8,8,0,0,1-.44-2.69c0-1.36,0-2.73,0-4.12h-1V57.83h1V56.28Z"/><path d="M180.64,66.2l1-.5c0,.08.12.15.14.24.08.36.14.72.2,1a4.78,4.78,0,0,1-3,.52,2.08,2.08,0,0,1-1.52-.9,4.21,4.21,0,0,1-.67-1.85c-.28-1.86,0-3.73-.16-5.61h-1V57.82h1V56.23l1.45-.36a3.84,3.84,0,0,1,.05,1c0,.31,0,.63,0,1h2.62c.07.45,0,.88,0,1.33h-2.66V64a4.12,4.12,0,0,0,.43,1.58,1,1,0,0,0,1,.66Z"/><path d="M262.61,57.84l.37,1.09a3.88,3.88,0,0,1,1.82-1.2,3.53,3.53,0,0,1,2.1.3l-.47,1.19a9.85,9.85,0,0,0-1.28-.23,2.13,2.13,0,0,0-1.87,1.13c0,.05-.06.07-.12.13v7.11h-1.43V57.84Z"/></svg>