<svg id="Layer_1" data-name="Layer 1" xmlns="http://www.w3.org/2000/svg" viewBox="0 0 465.76 218.02"><path d="M109.1,0V8.53C75.34,9.54,48,23,27.88,50.14,13.44,69.66,7.3,91.86,9,116.08a100.09,100.09,0,0,0,94.19,93c28.67,1.54,53.78-7.51,74.69-27.2s31.1-44.21,31.66-72.88H218c0,1.63.06,3.16,0,4.69a106.38,106.38,0,0,1-7.35,34.92Q195.33,186.84,158.87,206a104.13,104.13,0,0,1-35.8,11.12c-3,.37-6.06.54-9.09.81a2.46,2.46,0,0,0-.45.11h-9a8.42,8.42,0,0,0-1-.14,103.91,103.91,0,0,1-29.93-5.77Q30.14,196.63,10.18,155A103.54,103.54,0,0,1,.54,119.76c-.2-2.08-.36-4.15-.54-6.23v-9c.06-.45.14-.9.16-1.36A103.33,103.33,0,0,1,3.22,82.57a108.16,108.16,0,0,1,30.12-52A108.39,108.39,0,0,1,98.26.54c2.07-.2,4.15-.36,6.23-.54Z"/><path d="M181.1,0c1.93.31,3.89.53,5.8.94A39.8,39.8,0,1,1,171.83.53c1.24-.21,2.49-.36,3.73-.53ZM147.38,39.71a30.89,30.89,0,1,0,30.9-30.86A30.93,30.93,0,0,0,147.38,39.71Z"/><path d="M465.76,116.49h-8.47v33.88h-9V116.54H439.8V109.1h26Z"/><path d="M191.9,109.1h8.68c-.11,2.51-.15,5-.34,7.4a88.6,88.6,0,0,1-5.63,25,90.9,90.9,0,0,1-43.23,48.71,87.87,87.87,0,0,1-32.52,9.86,91.59,91.59,0,0,1-91.23-49A88.36,88.36,0,0,1,18,118.91,91.62,91.62,0,0,1,67.29,27.49,87.52,87.52,0,0,1,98.34,18.1c3.26-.36,6.56-.42,9.84-.64.68,0,.9.18.89.88,0,2.37,0,4.74,0,7.11,0,.24,0,.48,0,.7C81.36,27,58.87,38,42.31,60.18c-12,16.11-17.16,34.47-15.82,54.51a82.57,82.57,0,0,0,79.38,76.95c23.33.77,43.64-6.9,60.48-23.06S191.41,132.42,191.9,109.1Z"/><path d="M109,35.15v8.62c-21.87.65-39.63,9.39-52.67,27A62.81,62.81,0,0,0,44,113.54a65,65,0,0,0,62.13,60.53c18.41.71,34.48-5.27,47.83-18s19.88-28.53,20.31-47h8.55c.53,20.52-9.84,49.18-38.34,64.85A74,74,0,1,1,109,35.15Z"/><path d="M157,109.09h8.51c.49,15.14-7.22,37.38-29.37,49.52A56.49,56.49,0,0,1,58.91,83C70.65,60.28,93.31,52.11,109,52.65v8.49c-16.61.54-29.94,7.35-39.48,21a46.1,46.1,0,0,0-8.14,30.67,47.71,47.71,0,0,0,44.79,43.87,46.5,46.5,0,0,0,35.64-12.93C151.76,134.44,156.65,122.76,157,109.09Z"/><path d="M139.53,109.1h8.55a36.45,36.45,0,0,1-2.31,13.33,38.47,38.47,0,0,1-15.37,19.38A39.15,39.15,0,0,1,73.64,92.23C81.33,76.06,97.34,69.57,109,70v8.56c-9.92.29-18,4.17-24.11,12a29.28,29.28,0,0,0-6.2,20.72,30.34,30.34,0,0,0,28.42,28.09,29.54,29.54,0,0,0,22.69-8.15A30.1,30.1,0,0,0,139.53,109.1Z"/><path d="M324.68,73.3a37.85,37.85,0,0,1-1.6,11.62c-2.15,6.43-6.72,10-13.46,10.54A27,27,0,0,1,301,95c-5.51-1.31-9-4.83-10.79-10.1A36.59,36.59,0,0,1,288.53,73a37.43,37.43,0,0,1,1.68-12.26c2.12-6.2,6.49-9.58,13-10.34a25.81,25.81,0,0,1,9.43.46c5.91,1.49,9.23,5.51,10.83,11.19A41.61,41.61,0,0,1,324.68,73.3Zm-9.2-.35-.23,0a34.46,34.46,0,0,0-1-9.32c-1.14-3.83-3.36-5.66-7.35-5.77-3.1-.09-5.72.82-7.3,4.38a13.14,13.14,0,0,0-.69,2A36.81,36.81,0,0,0,298,74.93a24.58,24.58,0,0,0,1.42,8.32,6.64,6.64,0,0,0,3.9,4.18c3.91,1.33,9.06.9,10.83-5.11a5.88,5.88,0,0,0,.24-.89C314.76,78.6,315.12,75.78,315.48,73Z"/><path d="M298.06,150.44c-2.63,0-5.18,0-7.73,0a1.26,1.26,0,0,1-.82-.66c-2.86-5.37-5.68-10.76-8.52-16.14-1.2-2.27-2.4-4.55-3.8-6.79v23.57H269v-41.3h1.43c1.94,0,3.88,0,5.81,0a1.32,1.32,0,0,1,1.4.87q5.76,11,11.58,22l.58,1V109.15h8.25Z"/><path d="M395.91,51.5h9.16V68.28h13.81V51.49H428V94.28h-9.11V76.11H405.1V94.29h-9.19Z"/><path d="M281.7,69.3V81.1c0,3.63,0,7.26,0,10.89a1.07,1.07,0,0,1-.79,1.22,36.06,36.06,0,0,1-13.42,2,23.89,23.89,0,0,1-9.3-2.06,16.66,16.66,0,0,1-9.31-11.17A31.89,31.89,0,0,1,249,64c2.09-7,7-11.13,14-12.6a34.23,34.23,0,0,1,17.13,1,.93.93,0,0,1,.79,1.23c-.28,1.89-.48,3.78-.72,5.68,0,.26-.09.53-.12.67-2.42-.46-4.77-1-7.15-1.33a20,20,0,0,0-7.06.23A9.78,9.78,0,0,0,258.1,66a24.14,24.14,0,0,0,0,14c1.38,4.62,4.64,7.14,9.45,7.44,1.65.11,3.31,0,5.05,0V76.7h-5.75V69.3Z"/><path d="M426.61,109.11h8.78a3.39,3.39,0,0,1,.1.52c0,9.45.06,18.89-.05,28.33-.05,3.82-1.18,7.35-4.2,10a13.22,13.22,0,0,1-6.86,2.93,24.06,24.06,0,0,1-9.78-.4c-5.27-1.38-8.13-4.92-9-10.17a29.37,29.37,0,0,1-.34-4.59c0-8.46,0-16.92,0-25.38v-1.17h9v1c0,8.46,0,16.92,0,25.37a16.9,16.9,0,0,0,.55,4.19,4.52,4.52,0,0,0,4,3.53,11.42,11.42,0,0,0,4-.15c2.41-.59,3.32-2.55,3.64-4.82a18.28,18.28,0,0,0,.17-2.66q0-12.69,0-25.38Z"/><path d="M461.45,76.08h-15V86.66h18.32v7.63H437.26V51.51h27v7.58H446.45v9.37h15Z"/><path d="M358.85,51.51v7.55H341.17v9.41h15V76h-15V86.68h18.22v7.59H331.92V51.51Z"/><path d="M305.34,141.15a70.54,70.54,0,0,0,6.93,2.33,14.75,14.75,0,0,0,4.92.11,3.88,3.88,0,0,0,3.47-3,4.17,4.17,0,0,0-1.38-4.74,23.09,23.09,0,0,0-3.61-2.18c-1.82-1-3.75-1.72-5.52-2.75-4.47-2.61-6.38-6.72-5.66-11.85.87-6.2,4.81-9.91,11.08-10.52A23.18,23.18,0,0,1,326.78,110c.28.11.56.25.9.4-.32,2.38-.65,4.75-1,7.16-1.27-.42-2.47-.87-3.71-1.21a13.26,13.26,0,0,0-6.56-.28,3.76,3.76,0,0,0-3.12,3.12,3.52,3.52,0,0,0,1.8,3.92c2.09,1.17,4.28,2.14,6.43,3.2a16.35,16.35,0,0,1,5.64,4.06A12,12,0,0,1,329.6,140c-.8,6.56-4.83,10.38-11.44,11.06a23.59,23.59,0,0,1-13-2.24,1.17,1.17,0,0,1-.81-1.53C304.78,145.18,305,143.07,305.34,141.15Z"/><path d="M372.07,59.22h-9.25V51.5h27.87v3.7c0,1,0,2.09,0,3.13,0,.69-.18.91-.88.9-2.77,0-5.53,0-8.39,0V94.27h-9.36Z"/><path d="M330.64,116.48v-7.32h26v7.33h-8.42v33.89h-9v-33.9Z"/><path d="M383.5,116.53H375v-7.37h25.9v7.33h-8.39v33.88h-9Z"/><path d="M250.9,109.13h9v41.24h-9Z"/><path d="M370.27,150.39h-9V109.16h9Z"/></svg>