<svg id="Layer_1" data-name="Layer 1" xmlns="http://www.w3.org/2000/svg" viewBox="0 0 393.04 150.02"><defs><style>.cls-1{fill:#fff;}</style></defs><rect class="cls-1" width="393.04" height="150.02"/><path d="M146,30.48V34c-13.79.42-25,5.91-33.17,17a39.46,39.46,0,0,0-7.73,26.93,40.88,40.88,0,0,0,38.47,38A39.8,39.8,0,0,0,174,104.79c8.53-8,12.7-18.06,12.93-29.77h3.46c0,.67,0,1.29,0,1.91a43.65,43.65,0,0,1-3,14.27,44.17,44.17,0,0,1-21.13,23.41,43,43,0,0,1-14.62,4.56c-1.24.15-2.48.26-3.72.32a1.16,1.16,0,0,0-.18,0h-3.69a.72.72,0,0,0-.41,0,42.42,42.42,0,0,1-12.22-2.36A44.1,44.1,0,0,1,105.56,93.8a41.94,41.94,0,0,1-3.94-14.4c-.08-.85-.15-1.7-.22-2.55V73.16a5.14,5.14,0,0,0,.06-.55,42.39,42.39,0,0,1,1.25-8.4A44.14,44.14,0,0,1,115,43,44.25,44.25,0,0,1,141.53,30.7l2.55-.22Z"/><path d="M175.37,30.48c.79.14,1.59.21,2.37.38a16.27,16.27,0,1,1-6.16-.16c.51-.09,1-.15,1.53-.22ZM161.6,46.68A12.62,12.62,0,1,0,174.24,34.1,12.61,12.61,0,0,0,161.6,46.68Z"/><path d="M291.64,78.06h-3.46V91.9H284.5V78.08H281v-3h10.6Z"/><path d="M179.77,75h3.48A37.36,37.36,0,1,1,130.57,40.9a36.33,36.33,0,0,1,15.35-3.28v3.53c-11.9.4-21.4,5.3-28.12,15.17a32.55,32.55,0,0,0-5.44,22.61,33.73,33.73,0,0,0,34.26,29.85A32.84,32.84,0,0,0,170,98.67,33.34,33.34,0,0,0,179.77,75Z"/><path d="M145.92,44.83v3.52c-9.37.31-16.86,4.18-22.15,12a25.56,25.56,0,0,0-4.25,18,26.6,26.6,0,0,0,27.11,23.3,26.65,26.65,0,0,0,25.94-26.56h3.55a30.15,30.15,0,0,1-14.84,26,30.22,30.22,0,1,1-15.36-56.22Z"/><path d="M145.92,52v3.47c-7.08.25-12.68,3.23-16.53,9.22A18.69,18.69,0,0,0,126.6,77.8,19.55,19.55,0,0,0,165.5,75H169A23.06,23.06,0,0,1,157.55,95a23.07,23.07,0,1,1-11.63-43Z"/><path d="M145.93,59.08v3.48a12.36,12.36,0,0,0-10.55,5.9,11.85,11.85,0,0,0-1.76,8.22,12.39,12.39,0,0,0,12.13,10.75,12.09,12.09,0,0,0,6.27-1.6,12.28,12.28,0,0,0,4.63-4.53A12.46,12.46,0,0,0,158.38,75h3.5a14.9,14.9,0,0,1-1,5.66,15.79,15.79,0,0,1-6.52,7.91A16,16,0,0,1,131.57,68,15.81,15.81,0,0,1,145.93,59.08Z"/><path d="M234,60.38a15.51,15.51,0,0,1-.68,4.86,5.92,5.92,0,0,1-5.44,4.23,10.64,10.64,0,0,1-3.56-.19,5.88,5.88,0,0,1-4.4-4.12,14.88,14.88,0,0,1-.69-4.87,15.21,15.21,0,0,1,.69-5,5.9,5.9,0,0,1,5.25-4.21,10.6,10.6,0,0,1,3.89.19,5.94,5.94,0,0,1,4.42,4.57A16.89,16.89,0,0,1,234,60.38Zm-3.85-.1a14.36,14.36,0,0,0-.43-3.82,2.9,2.9,0,0,0-3-2.36,2.83,2.83,0,0,0-3,1.83,5.54,5.54,0,0,0-.27.78,15.36,15.36,0,0,0-.35,4.38,9.88,9.88,0,0,0,.58,3.4,2.68,2.68,0,0,0,1.6,1.7c1.6.55,3.7.37,4.42-2.09,0-.12.07-.24.1-.36A15.57,15.57,0,0,0,230.17,60.28Z"/><path d="M219.77,84.8V75.07h3.38V91.89a2.48,2.48,0,0,1-.77,0c-.75,0-1.51,0-2.26,0a.48.48,0,0,1-.49-.3q-2.37-4.52-4.75-9a.75.75,0,0,0-.26-.36V91.9h-3.33V75c.6,0,1.19,0,1.79,0s1.13-.19,1.51.08.51.84.74,1.28l4.16,7.9Z"/><path d="M276.23,51.51V69h-3.72V61.57h-5.64V69h-3.76V51.53h3.74v6.84h5.64V51.51Z"/><path d="M212.77,66.12V61.81h-2.36v-3h6c.07.08.05.17.05.26v9c0,.2,0,.35-.25.42a13.06,13.06,0,0,1-8.93.16,6.68,6.68,0,0,1-4.22-4.74,12.93,12.93,0,0,1,0-7.32,7.07,7.07,0,0,1,5.74-5.15,14.05,14.05,0,0,1,7,.4c.3.09.37.22.32.51-.11.77-.19,1.54-.29,2.31,0,.11,0,.22-.06.37a11.85,11.85,0,0,0-2.91-.64,9,9,0,0,0-2.88.1,4,4,0,0,0-3.18,2.93,10,10,0,0,0,0,5.72,4,4,0,0,0,3.86,3A8.62,8.62,0,0,0,212.77,66.12Z"/><path d="M275.65,75.06h3.6a1.1,1.1,0,0,1,0,.16c0,3.87,0,7.74,0,11.61a5.26,5.26,0,0,1-1.71,4.08,5.31,5.31,0,0,1-2.84,1.2,9.33,9.33,0,0,1-4.39-.29,4.76,4.76,0,0,1-3.26-4.06,11.76,11.76,0,0,1-.13-1.87V75.06h3.62c.11.13.06.28.06.43v10.4a4.85,4.85,0,0,0,.29,1.85A2,2,0,0,0,272.37,89a3.3,3.3,0,0,0,1.68,0,2.13,2.13,0,0,0,1.53-2,7.88,7.88,0,0,0,.07-1.09V75.06Z"/><path d="M280,51.51h11V54.6h-7.25v3.84h6.13v3.1h-6.14v4.34h7.49V69H280Z"/><path d="M246.88,61.55h-6.13v4.33h7.46V69H237V51.53h11v3.09h-7.22v3.83h6.13Z"/><path d="M234.84,78.51c-.53-.17-1-.35-1.52-.49a5.41,5.41,0,0,0-2.68-.11,1.57,1.57,0,0,0-.56,2.87,18.75,18.75,0,0,0,2.66,1.31A6.85,6.85,0,0,1,235,83.64a4.89,4.89,0,0,1,1.08,4,4.81,4.81,0,0,1-4.69,4.51,9.51,9.51,0,0,1-5.37-1,.41.41,0,0,1-.26-.53c.16-.87.28-1.75.42-2.66.52.25,1,.52,1.52.71a6,6,0,0,0,3.28.41,1.7,1.7,0,0,0,1.45-1.26,1.79,1.79,0,0,0-.6-2,6.25,6.25,0,0,0-1.52-.89c-.73-.34-1.46-.65-2.16-1.06a4.52,4.52,0,0,1-2.33-4.83,4.66,4.66,0,0,1,4.5-4.33,9.72,9.72,0,0,1,4.65.63.38.38,0,0,1,.28.5C235.06,76.79,235,77.65,234.84,78.51Z"/><path d="M261,51.53v3.13h-3.78V69h-3.82V54.67h-3.77V51.53Z"/><path d="M243.61,78.05V91.9h-3.68V78.08h-3.46v-3h10.58v3Z"/><path d="M254.58,75.06h10.58v3h-3.44V91.91h-3.67V78.09h-3.47Z"/><path d="M252.63,91.91H249V75.07h3.65Z"/><path d="M203.87,75.06h3.64c.07.34.1,15.67,0,16.84h-3.68Z"/></svg>