<?xml version="1.0" encoding="utf-8"?>
<!-- Generator: Adobe Illustrator 24.2.0, SVG Export Plug-In . SVG Version: 6.00 Build 0)  -->
<svg version="1.1" id="Layer_1" xmlns="http://www.w3.org/2000/svg" xmlns:xlink="http://www.w3.org/1999/xlink" x="0px" y="0px"
	 viewBox="0 0 393 150" style="enable-background:new 0 0 393 150;" xml:space="preserve">
<g>
	<path d="M180.7,62.4c0-3.4,0-6.8,0-10.1c0-0.5,0-0.5,0.5-0.5c4.3,0,8.7,0,13,0c0.6,0,0.6,0,0.6,0.6c0,0.9,0,1.8,0,2.8
		c0,0.3-0.2,0.3-0.3,0.3c-0.5,0-0.9,0-1.4,0c-3.2,0-6.6,0-9.8,0c-0.6,0-0.6,0-0.6,0.6c0,1.2,0,2.3,0,3.5c0,0.5,0,0.5,0.5,0.5
		c2.9,0,5.8,0,8.7,0c0.2,0,0.5,0,0.6,0s0.3,0,0.3,0.3c0,1.1,0,2,0,3.1c0,0.2,0,0.2-0.2,0.2s-0.5,0-0.6,0c-2.9,0-5.8,0-8.9,0
		c-0.5,0-0.5,0-0.5,0.5c0,1.7,0,3.4,0,5.1c0,0.3,0.2,0.5,0.5,0.5c3.5,0,7.2,0,10.7,0c0.2,0,0.5,0,0.6,0s0.3,0,0.3,0.3
		c0,1.1,0,2,0,3.1c0,0.3-0.2,0.3-0.3,0.3c-1.4,0-2.8,0-4.3,0c-2.9,0-6,0-8.9,0c-0.6,0-0.6,0-0.6-0.8
		C180.7,69.1,180.7,65.8,180.7,62.4z"/>
	<path d="M136.3,62.5c0-3.4,0-6.8,0-10.1c0-0.5,0-0.5,0.5-0.5c4.3,0,8.7,0,13,0c0.6,0,0.6,0.2,0.6,0.8c0,0.8,0,1.7,0,2.5
		c0,0.3-0.2,0.5-0.5,0.5s-0.5,0-0.8,0c-3.4,0-6.9,0-10.3,0c-0.5,0-0.5,0-0.5,0.5c0,1.2,0,2.6,0,3.8c0,0.3,0.2,0.3,0.3,0.3
		c2.9,0,5.8,0,8.7,0c0.9,0,1.1,0,0.9,1.1c0,0.6,0,1.2,0,2c0,0.6,0,0.6-0.6,0.6c-2.1,0-4.3,0-6.4,0c-0.9,0-2,0-2.9,0c0-0.2,0-0.2,0,0
		c0,1.8,0,3.5,0,5.4c0,0.2,0,0.2,0.2,0.2s0.5,0,0.6,0c3.5,0,7.2,0,10.7,0c0.5,0,0.5,0,0.5,0.5c0,0.9,0,1.8,0,2.8
		c0,0.3,0,0.3-0.3,0.3c-0.9,0-1.7,0-2.6,0c-3.7,0-7.2,0-10.9,0c-0.5,0-0.5,0.2-0.5-0.5C136.3,69.3,136.3,65.9,136.3,62.5z"/>
	<path d="M105.6,73.4c-2,0-3.8-0.6-5.5-1.8c-1.7-1.2-3.1-2.8-3.8-4.6c-0.3-0.8-0.5-1.5-0.8-2.3c-0.2-0.9-0.2-1.7-0.2-2.6
		c0-1.5,0.5-2.9,1.1-4.3c0.5-0.9,0.9-1.7,1.5-2.5c1.1-1.2,2.3-2.1,3.8-2.8c0.9-0.5,2-0.8,3.1-0.8c0.2,0,0.3,0,0.6-0.2
		c0.3-0.2,0.6-0.2,0.9,0c0.2,0.2,0.3,0.2,0.5,0c0.9,0,1.8,0.3,2.8,0.6c1.2,0.5,2.3,1.2,3.4,2.1c1.2,1.1,2,2.3,2.6,3.8
		c0.5,0.9,0.8,1.8,0.8,2.9c0,0.3,0.3,0.5,0.2,0.8c0,0.2,0,0.5,0,0.8c0.2,1.2-0.3,2.5-0.6,3.5c-0.3,0.9-0.6,1.8-1.4,2.6
		c-0.5,0.6-0.9,1.2-1.4,1.7c-0.8,0.8-1.7,1.5-2.8,2c-0.9,0.5-1.8,0.8-2.8,0.9C107,73.4,106.4,73.4,105.6,73.4z M105.8,55.5
		c-0.8-0.2-1.5,0-2.5,0.2c-1.1,0.3-2,0.6-2.9,1.2c-0.8,0.6-1.5,1.2-2.1,2.1c-0.5,1.1-0.9,2-0.9,3.2c0,0.3,0,0.8,0,1.1
		c0,0.6,0.2,1.4,0.5,2c0.8,1.5,1.4,2.3,3.1,3.2c1.2,0.8,2.6,0.9,4,1.2c1.1,0.2,2.1,0,3.2-0.2c1.1-0.2,2.1-0.6,3.1-1.2
		c0.9-0.6,1.8-1.4,2.3-2.5c0.5-0.9,0.8-2,0.8-2.9c0-0.6,0-1.2-0.2-1.8c-0.2-0.9-0.5-1.8-1.1-2.6c-0.8-0.9-1.7-1.8-2.9-2.3
		c-1.1-0.5-2.1-0.8-3.2-0.8C106.6,55.5,106.2,55.5,105.8,55.5z"/>
	<path d="M237.5,87.6c0,0.3,0,0.5,0,0.6c0.2,1.1-0.3,2.1-0.6,3.2c-0.3,0.9-0.8,2-1.4,2.8c-0.5,0.6-1.1,1.4-1.7,1.8
		c-0.9,0.6-1.7,1.2-2.6,1.7c-0.9,0.5-2,0.8-3.1,0.8c-0.2,0-0.3,0-0.6,0.2s-0.6,0.2-0.9,0c-0.3-0.2-0.5-0.2-0.6-0.2
		c-0.9,0-1.7-0.3-2.6-0.6c-1.8-0.6-3.2-1.8-4.5-3.2c-0.9-1.1-1.5-2.3-1.8-3.7c-0.2-0.6-0.3-1.2-0.5-1.8c-0.2-0.6-0.2-1.4-0.2-2
		c0-0.9,0.2-1.7,0.5-2.5c0.2-0.8,0.5-1.5,0.8-2.1c0.3-0.6,0.8-1.4,1.4-2c0.2-0.2,0.3-0.5,0.5-0.6c0.9-0.9,2-1.7,3.1-2.3
		c0.9-0.5,1.8-0.6,2.8-0.9c0.8-0.2,1.7-0.2,2.5-0.2c2,0.2,3.7,0.8,5.4,2c0.5,0.5,0.9,0.8,1.4,1.2c0.5,0.5,0.9,1.1,1.2,1.5
		c0.3,0.6,0.6,1.1,0.9,1.7c0.3,0.8,0.5,1.5,0.8,2.3C237.5,86.3,237.3,86.9,237.5,87.6z M226.9,94.8c1.2,0.2,2.3-0.2,3.4-0.5
		c1.7-0.5,3.1-1.4,4-2.9c0.6-0.9,0.9-2,0.9-3.1c0-0.5,0-0.8,0-1.2c0-0.9-0.3-1.8-0.8-2.8c-0.3-0.8-1.8-2.1-2.8-2.6
		c-1.2-0.8-2.6-0.9-4-1.2c-1.1-0.2-2.1,0.2-3.2,0.2l-0.2,0.2c-0.9,0.2-1.5,0.5-2.3,0.9c-0.9,0.5-1.7,1.2-2.5,2
		c-0.8,0.9-0.9,2-1.2,2.9c-0.2,0.5,0,1.1,0,1.7c0,0.5,0.3,0.8,0.2,1.2c0.3,0.5,0.3,0.9,0.5,1.4c0.5,0.6,0.8,1.2,1.2,1.7
		c0.8,0.6,1.5,1.4,2.6,1.5c0.3,0.2,0.8,0.2,1.1,0.3c0.3,0.3,0.8-0.2,1.1,0.3c0.3,0,0.8,0,1.1,0C226.4,94.8,226.7,94.8,226.9,94.8z"
		/>
	<path d="M313.7,61.6c1.1,0,2.3,0,3.4,0c0.3,0,0.3,0,0.3,0.3c0,0.9,0.2,1.8,0,2.8c-0.3,2-0.8,3.8-2.1,5.5c-0.9,1.1-2,2-3.2,2.6
		c-0.6,0.3-1.1,0.5-1.7,0.6c-0.8,0.2-1.5,0.2-2.5,0.2c-0.5,0-2.1-0.3-2.6-0.6c-0.6-0.3-1.4-0.6-2-0.9c-0.3-0.2-0.5-0.5-0.8-0.6
		c-0.6-0.8-1.5-1.4-2.1-2.3c-0.5-0.8-1.1-1.5-1.4-2.6c0-0.3-0.3-0.5-0.3-0.8c-0.2-0.9-0.5-1.7-0.3-2.8c0-0.3,0-0.8,0-1.1
		c0-1.1,0.3-2.1,0.6-3.2c0.5-1.5,1.4-2.8,2.5-4c0.9-1.1,2.1-1.8,3.4-2.5c0.9-0.5,1.8-0.8,2.9-0.8c0.2,0,0.3,0,0.6-0.2
		c0.3-0.2,0.6-0.2,0.9,0c0.2,0.2,0.3,0.2,0.5,0.2c0.9,0,1.8,0.3,2.6,0.6c1.1,0.3,1.8,1.1,2.8,1.7c0.5,0.3,0.6,0.8,0.6,1.4
		c0,1.1,0,2,0,3.1c0,0.2,0,0.2-0.2,0.2c-0.2,0-0.2,0-0.3,0c-0.2-0.2-0.2-0.5-0.3-0.6c-1.1-0.9-2.1-1.8-3.7-2.1
		c-2.1-0.6-2.1-0.6-4-0.5c-1.8,0.2-3.7,0.9-5.1,2.3c-0.8,0.8-1.4,1.7-1.8,2.8c-0.2,0.3-0.3,0.8-0.3,1.1c0,0.3,0.2,0.6-0.2,0.9v0.2
		c0.3,0.9,0.2,2,0.6,2.9c0.6,1.5,2,2.9,3.4,3.5c0.8,0.3,1.5,0.6,2.5,0.9c0.9,0.2,1.8,0,2.8,0.2c0.6-0.3,1.4-0.3,2-0.5
		c0.6-0.3,1.2-0.5,1.8-0.9c0.9-0.6,1.7-1.5,1.8-2.6c0-0.2,0.2-0.2,0.2-0.3c0-0.2,0-0.3-0.2-0.3c-0.2,0-0.3,0-0.5,0
		c-1.4,0-2.8,0-4.3,0c-0.3,0-0.5,0-0.5-0.3c0-1.1,0-2,0-3.1c0-0.3,0-0.3,0.3-0.3C311.6,61.6,312.7,61.6,313.7,61.6z"/>
	<path d="M163.8,62.5c0-3.2,0-6.4,0-9.7c0-0.2,0-0.3,0-0.5c0-0.3,0.2-0.5,0.5-0.5c0.6,0,1.4,0,2,0c1.2,0,2.3,0,3.5,0
		c0.8,0,1.4,0.3,2,0.2c0.9,0.3,2,0.6,2.9,1.2c0.8,0.6,1.2,1.2,1.7,2c0.3,0.5,0.6,1.2,0.6,1.8c0,0.5,0.3,0.9,0.2,1.4
		c-0.2,0.5-0.2,1.1-0.3,1.5c-0.2,0.6-0.5,1.2-0.8,1.8c-0.6,0.9-1.4,1.5-2.3,2c-0.5,0.3-1.1,0.5-1.5,0.5c-0.2,0-0.3,0.2-0.2,0.3
		c0.6,1.1,1.2,2.1,1.8,3.2c0.2,0.2,0.2,0.5,0.3,0.6c0.5,0.8,0.9,1.5,1.4,2.3c0,0.2,0,0.2,0,0.3c0.3,0.6,0.6,1.2,1.1,1.8
		c-0.8,0-1.4,0-2.1,0c-0.3,0-0.5,0-0.8,0c-0.8,0-0.8,0-1.1-0.8c-0.5-0.9-0.9-1.8-1.5-2.8c-0.8-1.2-1.4-2.6-2.1-3.8
		c-0.2-0.3-0.3-0.6-0.5-0.9c-0.5,0-0.8,0-1.2,0c-0.3,0-0.8,0-1.1,0c-0.2,0-0.2,0-0.2,0.2s0,0.5,0,0.6c0,2.3,0,4.8,0,7.1
		c0,0.5,0,0.5-0.5,0.5c-0.5,0-0.9,0-1.4,0c-0.3,0-0.3-0.2-0.3-0.5c0-2.3,0-4.8,0-7.1C163.8,64.7,163.8,63.6,163.8,62.5z M169,55.6
		c-0.9,0-2,0-2.9,0c-0.2,0-0.3,0-0.3,0.3c0,1.8,0,3.5,0,5.4c0,0.2,0,0.3,0.2,0.3c1.1,0,2,0,3.1,0s2,0,3.1-0.2
		c0.8-0.2,1.4-0.3,1.8-0.8c0.5-0.3,0.6-0.8,0.8-1.2c0-0.3,0.3-0.8,0.2-0.9c-0.2-0.3,0-0.6-0.3-0.9c-0.2-0.2-0.2-0.3-0.3-0.5
		c-0.8-0.9-1.7-1.2-2.9-1.2C170.7,55.6,169.9,55.6,169,55.6z"/>
	<path d="M278.4,62.5c0-3.4,0-6.8,0-10.1c0-0.5,0-0.5,0.5-0.6c0.5,0,0.8,0.2,1.1,0.5c0.8,0.8,1.4,1.5,2,2.3c0.3,0.5,0.8,0.9,1.2,1.4
		c0.6,0.6,1.1,1.2,1.7,1.8c0.8,0.9,1.7,2,2.5,2.9c0.5,0.6,1.1,1.4,1.7,1.8c0.6,0.5,0.9,1.2,1.5,1.7c0.2,0.5,0.6,0.6,0.9,1.1
		c0.3,0.5,0.6,0.8,0.9,1.1l0.2,0.2c0.2,0,0.2-0.2,0.2-0.2c0-0.3,0-0.5,0-0.8c0-4.3,0-8.7,0-13c0-0.2,0-0.5,0-0.6s0.2-0.3,0.3-0.3
		c0.5,0,0.9,0,1.4,0c0.3,0,0.5,0.2,0.5,0.5c0,0.2,0,0.3,0,0.5c0,6.6,0,13.2,0,19.8c0,0.2,0,0.3,0,0.5s0,0.2-0.2,0.2
		c-0.3,0-0.6,0-0.9,0c-0.2,0-0.3-0.2-0.3-0.2c-0.3-0.5-0.8-0.8-1.1-1.2c-0.3-0.5-0.8-0.9-1.2-1.4c-0.6-0.6-1.1-1.2-1.7-1.8
		c-0.8-0.8-1.5-1.7-2.3-2.6c-0.8-0.8-1.4-1.7-2-2.5s-1.2-1.5-1.8-2.1c-0.8-0.9-1.5-1.8-2.3-2.6v-0.2c0-0.2,0-0.2-0.2-0.2v0.2
		c0,0.3,0,0.5,0,0.8c0,4.5,0,8.9,0,13.5c0,0.5,0,0.6-0.5,0.5c-0.5,0-1.1,0-1.5,0c-0.2-0.5,0-1.1,0-1.5
		C278.4,68.5,278.4,65.5,278.4,62.5z"/>
	<path d="M257.3,87.7c0,3.4,0,6.6,0,10c0,0.5,0,0.5-0.5,0.6c-0.5,0-0.8-0.2-1.1-0.5c-0.8-0.8-1.4-1.5-2-2.3
		c-0.3-0.5-0.8-0.9-1.2-1.4c-0.6-0.6-1.1-1.2-1.7-1.8c-0.5-0.6-1.1-1.1-1.4-1.7c-0.3-0.5-0.8-0.9-1.2-1.4c-0.6-0.6-1.1-1.2-1.7-1.8
		c-0.8-0.9-1.7-1.8-2.5-2.9l0,0c-0.3-0.3-0.6-0.6-0.8-0.8c-0.2,0.3-0.2,0.8-0.2,1.1c0,4.3,0,8.7,0,13c0,0.2,0,0.3,0,0.5
		s-0.2,0.3-0.3,0.3c-0.5,0-0.9,0-1.4,0c-0.3,0-0.5-0.2-0.5-0.5c0-0.2,0-0.3,0-0.5c0-6.6,0-13.2,0-19.8c0-0.2,0-0.3,0-0.5
		s0-0.2,0.2-0.2c0.3,0,0.6,0,0.9,0c0.2,0,0.3,0.2,0.3,0.2c0.3,0.3,0.8,0.5,0.8,0.9l0.2,0.2c0.6,0.6,1.1,1.2,1.7,1.8
		c0.8,0.9,1.5,1.8,2.5,2.8c0.6,0.8,1.4,1.5,2,2.3c0.8,0.9,1.5,1.7,2.3,2.6c0.8,0.8,1.4,1.7,2,2.5c0.3,0.5,0.8,0.8,1.1,1.2h0.2v-0.2
		c0-0.3,0-0.5,0-0.8c0-4.5,0-8.9,0-13.2c0-0.5,0-0.6,0.5-0.6s1.1,0,1.5,0c0.2,0.5,0,1.1,0,1.5C257.3,81.7,257.3,84.6,257.3,87.7z"/>
	<path d="M191.7,98.3c-0.5,0-0.8,0-1.2,0c-0.3,0-0.5-0.2-0.6-0.5c-0.6-1.1-0.9-2.3-1.5-3.4c-0.5-0.8-0.6-1.5-1.1-2.3
		c-0.2-0.3-0.3-0.5-0.6-0.5c-2.8,0-5.5,0-8.3,0c-0.3,0-0.5,0.2-0.6,0.5c-0.3,0.6-0.6,1.2-0.9,2c-0.2,0.6-0.6,1.2-0.9,2
		c-0.2,0.6-0.6,1.1-0.8,1.7c-0.2,0.3-0.3,0.3-0.6,0.3c-0.5,0-0.9,0-1.4,0c-0.3,0-0.3-0.2-0.3-0.3s0-0.2,0.2-0.2
		c0.3-0.8,0.8-1.7,1.1-2.5c0.6-1.2,1.1-2.5,1.7-3.7c0.5-1.1,1.1-2,1.5-3.1c0.3-0.6,0.6-1.2,0.8-1.8c0.3-0.6,0.6-1.2,0.8-1.8
		c0.6-1.4,1.2-2.6,1.8-4c0.5-1.1,0.9-2.1,1.4-3.2c0.2-0.5,0.5-0.6,0.9-0.6c0.5,0,0.6,0.2,0.8,0.5c0.6,1.4,1.2,2.6,1.8,4
		c0.3,0.9,0.8,1.7,1.2,2.5c0.8,1.7,1.5,3.4,2.3,4.9c0.8,1.7,1.5,3.4,2.3,4.9c0.6,1.4,1.2,2.8,1.8,4.1c0.2,0.2,0,0.3-0.3,0.3
		C192.8,98.3,192.2,98.3,191.7,98.3z M182.4,88.3c0.9,0,1.7,0,2.6,0c0.5,0,0.5-0.2,0.3-0.5c-0.6-1.2-1.2-2.5-1.8-3.7
		c-0.2-0.2-0.2-0.5-0.3-0.6c-0.2-0.5-0.5-0.9-0.6-1.4c0-0.2-0.2-0.2-0.2,0s-0.2,0.3-0.2,0.3c-0.8,1.5-1.4,3.1-2.1,4.6
		c-0.2,0.3-0.5,0.6-0.5,0.9c0,0.2-0.3,0.3,0.2,0.3C180.7,88.3,181.4,88.3,182.4,88.3z"/>
	<path d="M75.5,62.5c0-3.4,0-6.6,0-10c0-0.2,0-0.3,0-0.5c0-0.2,0-0.2,0.2-0.2c0.5,0,1.1,0,1.5,0c0.3,0,0.5,0.2,0.5,0.5
		c0,0.2,0,0.3,0,0.5c0,2.5,0,4.9,0,7.2c0,0.5,0,0.5,0.5,0.5c3.7,0,7.5,0,11.2,0c0.5,0,0.5,0,0.5-0.5c0-2.6,0-5.2,0-7.8
		c0-0.3,0-0.3,0.3-0.3c0.5,0,0.9,0,1.4,0c0.3,0,0.5,0.2,0.5,0.5c0,0.2,0,0.3,0,0.3c0,6.6,0,13.2,0,19.8c0,0.2,0,0.3,0,0.3
		c0,0.2,0,0.3-0.3,0.3c-0.5,0-1.1,0-1.5,0c-0.3,0-0.3-0.2-0.3-0.5c0-2.6,0-5.1,0-7.7c0-0.2,0-0.5,0-0.6c0-0.2-0.2-0.3-0.3-0.3
		c-0.9,0-1.8,0-2.8,0c-2.8,0-5.5,0-8.3,0c-0.8,0-0.8,0-0.8,0.8c0,2.5,0,4.9,0,7.4c0,0.2,0,0.3,0,0.5s-0.2,0.3-0.3,0.2
		c-0.6,0-1.2,0.2-1.8,0c0-0.6,0-1.1,0-1.7C75.5,68.4,75.5,65.5,75.5,62.5z"/>
	<path d="M214.4,55.9c0,0.3,0,0.6,0,0.9c0,0.3,0.2,0.8-0.2,1.1c-0.3-0.3-0.5-0.5-0.8-0.8c-0.9-0.8-2-1.2-3.1-1.5
		c-0.8-0.2-1.5-0.5-2.3-0.3c-0.3,0-0.8,0-1.1,0c-1.4,0-2.8,0.5-4,1.1c-1.5,0.8-2.9,2.5-3.4,4.1c-0.3,0.9-0.2,2.1,0,3.2
		s0.5,1.8,1.1,2.6c0.6,0.8,1.2,1.5,2.1,2c0.5,0.3,0.9,0.5,1.4,0.6s0.9,0.3,1.4,0.3c0.9,0.2,1.8,0.3,2.9,0.2c1.4-0.2,2.8-0.5,4.1-1.2
		c0.6-0.3,1.2-0.8,1.7-1.2c0,0,0.2,0,0.2-0.2V67c0,1.2,0,2.5,0,3.7c0,0.2-0.2,0.3-0.2,0.3c-0.6,0.6-1.4,1.1-2.1,1.4
		c-0.6,0.2-1.1,0.5-1.7,0.6c-0.6,0.2-1.2,0.3-1.8,0.3c-0.5,0-0.8,0-1.2,0c-1.1,0-2.1-0.3-3.2-0.8c-0.8-0.3-1.5-0.8-2.1-1.2
		c-0.6-0.6-1.4-1.1-1.8-1.7c-0.6-0.9-1.2-1.7-1.7-2.6c-0.3-0.8-0.6-2.1-0.8-2.9c-0.2-0.6-0.2-1.4-0.2-2c0-1.5,0.5-2.9,1.1-4.3
		c0.6-1.4,1.5-2.6,2.8-3.7c1.2-1.1,2.8-1.8,4.3-2.3c0.5-0.2,0.9-0.3,1.5-0.3s1.4,0,2,0c1.1,0,2.1,0.3,3.1,0.8c0.8,0.3,1.4,0.8,2,1.1
		c0.2,0.2,0.3,0.3,0.3,0.6C214.3,54.9,214.4,55.3,214.4,55.9z"/>
	<path d="M252,56.1c0,0.6,0,1.2,0,1.8c0,0.2,0,0.2,0,0.3c0,0-0.2,0-0.2-0.2c-0.6-0.6-1.2-1.1-2-1.5c-0.8-0.5-1.7-0.6-2.6-0.9
		c-1.1-0.3-2.1-0.2-3.2-0.2c-0.6,0-1.4,0.3-2,0.5c-0.6,0.2-1.2,0.6-1.8,0.9c-0.6,0.5-1.2,1.1-1.7,1.7c-0.5,0.6-0.8,1.2-0.9,2
		c-0.2,0.5-0.3,1.1-0.3,1.5c0,0.5-0.2,1.1,0.2,1.5c0,0.8,0.3,1.4,0.6,2c0.5,0.9,1.2,1.7,2,2.3c0.8,0.6,1.7,0.9,2.5,1.4
		c0.3,0.2,0.6-0.2,0.8,0.3c0.6-0.2,1.1,0.2,1.5,0.2s1.1,0.2,1.5,0c0.5-0.2,0.9,0,1.4-0.2c0.9-0.3,2-0.6,2.8-1.2
		c0.5-0.3,0.9-0.6,1.4-1.1c0,0,0-0.2,0.2-0.2v0.2c0,1.1,0,2.3,0,3.4c0,0.3-0.2,0.5-0.3,0.6c-0.8,0.8-1.7,1.2-2.8,1.5
		c-1.4,0.5-3.4,0.8-4.6,0.5c-1.2-0.2-2.3-0.5-3.4-1.1c-0.9-0.5-1.8-1.1-2.6-1.8c-0.5-0.6-1.1-1.1-1.5-1.7c-0.8-1.2-1.4-2.5-1.7-3.8
		c-0.5-0.5-0.2-1.1-0.3-1.5c-0.2-0.5-0.2-1.1,0-1.7c0.3-1.1,0.3-2.1,0.8-3.2c0.5-1.1,1.1-2,1.7-2.9c1.1-1.5,2.6-2.5,4.3-3.2
		c0.6-0.3,1.2-0.5,1.8-0.6c1.2-0.3,2.3-0.2,3.5-0.2c0.8,0,1.5,0.3,2.3,0.6c0.8,0.3,1.4,0.8,2.1,1.1c0.3,0.3,0.6,0.5,0.5,0.9
		C252,55,252,55.5,252,56.1z"/>
	<path d="M144.5,94.5c0-0.5-0.2-1.2,0.2-1.8c0.5,0.5,0.9,0.8,1.5,1.1c0.8,0.5,1.5,0.8,2.5,1.1s2,0.2,2.9,0.2c0.6,0,1.1-0.3,1.7-0.6
		c0.9-0.5,1.1-1.4,0.9-2.3c0-0.5-0.5-0.8-0.8-1.1c-0.8-0.5-1.5-0.8-2.3-1.1c-0.9-0.3-3.7-1.5-4.1-2c-1.1-0.9-2-1.8-2.3-3.2v-0.2
		c0-0.8-0.3-1.4-0.2-2c0-0.6,0.2-1.4,0.5-2c0.3-0.6,0.6-1.2,1.2-1.7c0.8-0.9,1.7-1.4,2.8-1.7c0.5-0.2,0.9-0.3,1.5-0.3
		c0.5,0,0.9,0,1.4,0c0.5,0,0.9,0.2,1.2,0.2c0.9,0.2,1.8,0.6,2.6,1.2c0.2,0.2,0.3,0.3,0.3,0.5c0,1.1,0,2,0,3.1c0,0.2-0.2,0.3-0.5,0.3
		c-0.3-0.2-0.5-0.3-0.6-0.5c-0.8-0.6-1.5-0.8-2.3-1.1c-0.8,0.2-1.5-0.3-2.3-0.2c-0.9,0.2-1.8,0.3-2.8,0.9c-0.5,0.3-0.8,0.8-0.9,1.4
		c0,0.6,0.3,1.2,0.9,1.7c0.8,0.6,1.8,0.9,2.8,1.2c1.4,0.5,2.8,1.1,4,1.8c1.1,0.8,1.7,1.7,2.1,2.9c0,0.5,0.3,0.9,0.2,1.4
		c0,0.3,0,0.8,0,1.1c0,1.2-0.3,2.3-0.9,3.2c-0.5,0.8-0.9,1.4-1.7,1.7c-0.8,0.5-1.7,0.9-2.6,0.9c-0.3,0-0.6,0.3-0.9,0.2
		c-0.8-0.2-1.5-0.2-2.3-0.3c-0.6-0.3-1.4-0.5-2-0.9c-0.3-0.2-0.5-0.3-0.8-0.5c-0.3-0.2-0.5-0.5-0.3-0.8
		C144.5,95.7,144.5,95.1,144.5,94.5z"/>
	<path d="M120.1,62.5c0-3.4,0-6.8,0-10.1c0-0.5,0-0.5,0.5-0.5c2,0,4-0.2,6,0c1.1,0,2.3,0.2,3.4,0.8c1.7,1.1,2.9,2.5,3.4,4.5
		c0.2,0.9,0.2,1.8,0.2,2.6c0,0.6-0.3,1.2-0.6,1.7c-0.5,0.8-0.8,1.4-1.4,1.8c-0.6,0.6-1.2,1.2-2,1.5c-0.6,0.2-1.1,0.5-1.7,0.5
		c-1.7,0.3-3.5,0.2-5.2,0.2c-0.3,0-0.3,0.2-0.3,0.3c0,2.3,0,4.6,0,6.8c0,0.5,0,0.5-0.5,0.5c-0.6,0-1.1,0-1.7,0c-0.2-0.6,0-1.1,0-1.7
		C120.1,68.5,120.1,65.5,120.1,62.5z M122.1,58.4c0,1.1,0,2.1,0,3.1c0,0.3,0.2,0.3,0.5,0.3c1.5,0,3.2,0,4.8,0c0.6,0,1.2-0.2,1.8-0.3
		c0.3-0.2,0.6-0.3,0.9-0.6c0.5-0.2,0.8-0.6,0.9-0.9c0.5-0.9,0.2-2.5-0.6-3.2c-0.8-0.8-1.7-1.1-2.6-1.1c-0.9,0-1.8,0-2.6,0
		c-0.9,0-2,0-2.9,0C122.1,56.6,122.2,57.6,122.1,58.4z"/>
	<path d="M167.6,89.4c0,2.8,0,5.5,0,8.4c0,0.5,0,0.5-0.5,0.5c-0.3,0-0.8,0-1.1,0c-0.5,0-0.5-0.2-0.6-0.5c0-0.2,0-0.5,0-0.6
		c0-5.2,0-10.4,0-15.7c0-0.2,0-0.5,0-0.6c0-0.3-0.2-0.3-0.3-0.3c-2.1,0-4.1,0-6.3,0c-0.8,0-0.8,0-0.8-0.8c0-0.8,0-1.5,0-2.3
		c0-0.5,0-0.5,0.5-0.5c0.2,0,0.2,0,0.3,0c5.2,0,10.4,0,15.5,0c0.2,0,0.3,0,0.5,0c0.3,0,0.3,0.2,0.3,0.3c0,0.9,0,2,0,2.9
		c0,0.3-0.2,0.3-0.3,0.3c-2.1,0-4.1,0-6.3,0c-0.8,0-0.8,0-0.8,0.8C167.6,84,167.6,86.8,167.6,89.4z"/>
	<path d="M200.8,89.4c0,2.8,0,5.5,0,8.4c0,0.5,0,0.5-0.5,0.5c-0.3,0-0.8,0-1.1,0c-0.5,0-0.5-0.2-0.6-0.5c0-0.2,0-0.5,0-0.6
		c0-5.2,0-10.4,0-15.7c0-0.2,0-0.5,0-0.6c0-0.3-0.2-0.3-0.3-0.3c-2.1,0-4.1,0-6.3,0c-0.8,0-0.8,0-0.8-0.8c0-0.8,0-1.5,0-2.3
		c0-0.5,0-0.5,0.5-0.5c0.2,0,0.2,0,0.3,0c5.2,0,10.4,0,15.5,0c0.2,0,0.3,0,0.5,0c0.3,0,0.3,0.2,0.3,0.3c0,0.9,0,2,0,2.9
		c0,0.3-0.2,0.3-0.3,0.3c-2.1,0-4.1,0-6.3,0c-0.8,0-0.8,0-0.8,0.8C200.8,84,200.8,86.8,200.8,89.4z"/>
	<path d="M225,68.8c0-1.2,0-2.5,0-3.7c0-0.3-0.2-0.6-0.3-0.9c-0.8-1.2-1.7-2.3-2.5-3.5c-0.6-0.9-1.2-1.8-2-2.8
		c-0.6-0.9-1.2-1.8-2-2.8c-0.6-0.8-1.1-1.7-1.8-2.6c-0.2-0.2,0-0.3-0.2-0.3c-0.2-0.2-0.2-0.2,0-0.2c1.2,0,2.5,0,3.7,0
		c0.2,0,0.3,0.2,0.5,0.3c0.9,1.5,2,3.1,3.1,4.6c0.9,1.4,1.7,2.8,2.8,4c0.2,0.2,0.2,0.5,0.3,0.5c0-0.2,0.2-0.3,0.3-0.5
		c0.8-1.2,1.5-2.5,2.3-3.7c1.1-1.7,2.1-3.2,3.2-4.9c0-0.2,0.2-0.2,0.3-0.2c0.8,0,1.5,0,2.1,0c0.3,0,0.3,0.2,0.2,0.3
		c-0.3,0.5-0.6,0.9-0.9,1.4c-1.7,2.6-3.5,5.1-5.2,7.7c-0.6,0.9-1.2,2-1.8,2.9c-0.2,0.2-0.2,0.5-0.2,0.6c0,2.5,0,4.9,0,7.4
		c0,0.2,0,0.5,0,0.6s0,0.2-0.2,0.2c0,0,0,0-0.2,0c-0.6,0-1.2,0-1.7,0c-0.2-0.6,0-1.2,0-1.7C225,70.5,225,69.6,225,68.8z"/>
	<path d="M256.3,62.4c0-3.4,0-6.8,0-10.1c0-0.5,0-0.5,0.5-0.5c0.6,0,1.1,0,1.7,0c0.2,0.6,0,1.1,0,1.7c0,5.1,0,10.1,0,15.2
		c0,0.2,0,0.5,0,0.6s0,0.3,0.2,0.3s0.5,0,0.6,0c2.9,0,6,0,8.9,0c0.2,0,0.5,0,0.6,0s0.3,0,0.2,0.2c0,0,0,0,0,0.2c0,1.1,0.2,2.1,0,3.2
		c-1.1,0-2,0-3.1,0c-2.9,0-5.8,0-8.7,0c-0.2,0-0.3,0-0.5,0c-0.5,0-0.5,0-0.5-0.5c0-1.5,0-3.1,0-4.5
		C256.3,66.2,256.3,64.4,256.3,62.4z"/>
	<path d="M212.8,87.7c0,3.2,0,6.4,0,9.7c0,0.8,0,0.8-0.8,0.8c-0.3,0-0.5,0-0.8,0c-0.3,0-0.5-0.2-0.5-0.5c0-0.2,0-0.3,0-0.3
		c0-6.6,0-13.2,0-19.8c0-0.2,0-0.3,0-0.3c0-0.2,0-0.3,0.3-0.3h0.2c0.6,0,1.1,0,1.7,0c0.2,0.6,0,1.1,0,1.7
		C212.8,81.7,212.8,84.8,212.8,87.7z"/>
	<path d="M273.8,62.5c0,3.4,0,6.8,0,10.1c0,0.5,0,0.5-0.5,0.5s-1.1,0-1.5,0c-0.2-0.5,0-1.1,0-1.5c0-6.1,0-12.4,0-18.6
		c0-0.2,0-0.3,0-0.5c0-0.5,0.2-0.6,0.6-0.6c0.5,0,0.9,0,1.5,0c0.2,0.5,0,0.9,0,1.5C273.8,56.4,273.8,59.5,273.8,62.5z"/>
</g>
</svg>
