<?xml version="1.0" encoding="utf-8"?>
<!-- Generator: Adobe Illustrator 24.2.0, SVG Export Plug-In . SVG Version: 6.00 Build 0)  -->
<svg version="1.1" id="Layer_1" xmlns="http://www.w3.org/2000/svg" xmlns:xlink="http://www.w3.org/1999/xlink" x="0px" y="0px"
	 viewBox="0 0 157.6 30.8" style="enable-background:new 0 0 157.6 30.8;" xml:space="preserve">
<g>
	<path d="M68.5,7.1c0-2.2,0-4.4,0-6.6c0-0.3,0-0.3,0.3-0.3c2.8,0,5.7,0,8.5,0c0.4,0,0.4,0,0.4,0.4c0,0.6,0,1.2,0,1.8
		c0,0.2-0.1,0.2-0.2,0.2c-0.3,0-0.6,0-0.9,0c-2.1,0-4.3,0-6.4,0c-0.4,0-0.4,0-0.4,0.4c0,0.8,0,1.5,0,2.3c0,0.3,0,0.3,0.3,0.3
		c1.9,0,3.8,0,5.7,0c0.1,0,0.3,0,0.4,0c0.1,0,0.2,0,0.2,0.2c0,0.7,0,1.3,0,2c0,0.1,0,0.1-0.1,0.1c-0.1,0-0.3,0-0.4,0
		c-1.9,0-3.8,0-5.8,0c-0.3,0-0.3,0-0.3,0.3c0,1.1,0,2.2,0,3.3c0,0.2,0.1,0.3,0.3,0.3c2.3,0,4.7,0,7,0c0.1,0,0.3,0,0.4,0
		c0.1,0,0.2,0,0.2,0.2c0,0.7,0,1.3,0,2c0,0.2-0.1,0.2-0.2,0.2c-0.9,0-1.8,0-2.8,0c-1.9,0-3.9,0-5.8,0c-0.4,0-0.4,0-0.4-0.5
		C68.5,11.5,68.5,9.3,68.5,7.1z"/>
	<path d="M39.6,7.2c0-2.2,0-4.4,0-6.6c0-0.3,0-0.3,0.3-0.3c2.8,0,5.7,0,8.5,0c0.4,0,0.4,0.1,0.4,0.5c0,0.5,0,1.1,0,1.6
		c0,0.2-0.1,0.3-0.3,0.3c-0.2,0-0.3,0-0.5,0c-2.2,0-4.5,0-6.7,0c-0.3,0-0.3,0-0.3,0.3c0,0.8,0,1.7,0,2.5c0,0.2,0.1,0.2,0.2,0.2
		c1.9,0,3.8,0,5.7,0c0.6,0,0.7,0,0.6,0.7c0,0.4,0,0.8,0,1.3c0,0.4,0,0.4-0.4,0.4c-1.4,0-2.8,0-4.2,0c-0.6,0-1.3,0-1.9,0
		C41,8,41,8,41,8.1c0,1.2,0,2.3,0,3.5c0,0.1,0,0.1,0.1,0.1c0.1,0,0.3,0,0.4,0c2.3,0,4.7,0,7,0c0.3,0,0.3,0,0.3,0.3
		c0,0.6,0,1.2,0,1.8c0,0.2,0,0.2-0.2,0.2c-0.6,0-1.1,0-1.7,0c-2.4,0-4.7,0-7.1,0c-0.3,0-0.3,0.1-0.3-0.3
		C39.6,11.6,39.6,9.4,39.6,7.2z"/>
	<path d="M19.6,14.3c-1.3,0-2.5-0.4-3.6-1.2c-1.1-0.8-2-1.8-2.5-3c-0.2-0.5-0.3-1-0.5-1.5c-0.1-0.6-0.1-1.1-0.1-1.7
		c0-1,0.3-1.9,0.7-2.8c0.3-0.6,0.6-1.1,1-1.6c0.7-0.8,1.5-1.4,2.5-1.8c0.6-0.3,1.3-0.5,2-0.5c0.1,0,0.2,0,0.4-0.1
		c0.2-0.1,0.4-0.1,0.6,0c0.1,0.1,0.2,0.1,0.3,0c0.6,0,1.2,0.2,1.8,0.4c0.8,0.3,1.5,0.8,2.2,1.4c0.8,0.7,1.3,1.5,1.7,2.5
		c0.3,0.6,0.5,1.2,0.5,1.9c0,0.2,0.2,0.3,0.1,0.5c0,0.1,0,0.3,0,0.5c0.1,0.8-0.2,1.6-0.4,2.3c-0.2,0.6-0.4,1.2-0.9,1.7
		c-0.3,0.4-0.6,0.8-0.9,1.1c-0.5,0.5-1.1,1-1.8,1.3c-0.6,0.3-1.2,0.5-1.8,0.6C20.5,14.3,20.1,14.3,19.6,14.3z M19.7,2.6
		c-0.5-0.1-1,0-1.6,0.1c-0.7,0.2-1.3,0.4-1.9,0.8c-0.5,0.4-1,0.8-1.4,1.4c-0.3,0.7-0.6,1.3-0.6,2.1c0,0.2,0,0.5,0,0.7
		c0,0.4,0.1,0.9,0.3,1.3c0.5,1,0.9,1.5,2,2.1c0.8,0.5,1.7,0.6,2.6,0.8c0.7,0.1,1.4,0,2.1-0.1c0.7-0.1,1.4-0.4,2-0.8
		c0.6-0.4,1.2-0.9,1.5-1.6c0.3-0.6,0.5-1.3,0.5-1.9c0-0.4,0-0.8-0.1-1.2c-0.1-0.6-0.3-1.2-0.7-1.7c-0.5-0.6-1.1-1.2-1.9-1.5
		c-0.7-0.3-1.4-0.5-2.1-0.5C20.2,2.6,20,2.6,19.7,2.6z"/>
	<path d="M105.5,23.5c0,0.2,0,0.3,0,0.4c0.1,0.7-0.2,1.4-0.4,2.1c-0.2,0.6-0.5,1.3-0.9,1.8c-0.3,0.4-0.7,0.9-1.1,1.2
		c-0.6,0.4-1.1,0.8-1.7,1.1c-0.6,0.3-1.3,0.5-2,0.5c-0.1,0-0.2,0-0.4,0.1c-0.2,0.1-0.4,0.1-0.6,0c-0.2-0.1-0.3-0.1-0.4-0.1
		c-0.6,0-1.1-0.2-1.7-0.4c-1.2-0.4-2.1-1.2-2.9-2.1c-0.6-0.7-1-1.5-1.2-2.4c-0.1-0.4-0.2-0.8-0.3-1.2c-0.1-0.4-0.1-0.9-0.1-1.3
		c0-0.6,0.1-1.1,0.3-1.6c0.1-0.5,0.3-1,0.5-1.4c0.2-0.4,0.5-0.9,0.9-1.3c0.1-0.1,0.2-0.3,0.3-0.4c0.6-0.6,1.3-1.1,2-1.5
		c0.6-0.3,1.2-0.4,1.8-0.6c0.5-0.1,1.1-0.1,1.6-0.1c1.3,0.1,2.4,0.5,3.5,1.3c0.3,0.3,0.6,0.5,0.9,0.8c0.3,0.3,0.6,0.7,0.8,1
		c0.2,0.4,0.4,0.7,0.6,1.1c0.2,0.5,0.3,1,0.5,1.5C105.5,22.7,105.4,23.1,105.5,23.5z M98.6,28.2c0.8,0.1,1.5-0.1,2.2-0.3
		c1.1-0.3,2-0.9,2.6-1.9c0.4-0.6,0.6-1.3,0.6-2c0-0.3,0-0.5,0-0.8c0-0.6-0.2-1.2-0.5-1.8c-0.2-0.5-1.2-1.4-1.8-1.7
		c-0.8-0.5-1.7-0.6-2.6-0.8c-0.7-0.1-1.4,0.1-2.1,0.1c0,0-0.1,0.1-0.1,0.1c-0.6,0.1-1,0.3-1.5,0.6c-0.6,0.3-1.1,0.8-1.6,1.3
		c-0.5,0.6-0.6,1.3-0.8,1.9c-0.1,0.3,0,0.7,0,1.1c0,0.3,0.2,0.5,0.1,0.8c0.2,0.3,0.2,0.6,0.3,0.9c0.3,0.4,0.5,0.8,0.8,1.1
		c0.5,0.4,1,0.9,1.7,1c0.2,0.1,0.5,0.1,0.7,0.2c0.2,0.2,0.5-0.1,0.7,0.2c0.2,0,0.5,0,0.7,0C98.3,28.2,98.5,28.2,98.6,28.2z"/>
	<path d="M155.2,6.6c0.7,0,1.5,0,2.2,0c0.2,0,0.2,0,0.2,0.2c0,0.6,0.1,1.2,0,1.8c-0.2,1.3-0.5,2.5-1.4,3.6c-0.6,0.7-1.3,1.3-2.1,1.7
		c-0.4,0.2-0.7,0.3-1.1,0.4c-0.5,0.1-1,0.1-1.6,0.1c-0.3,0-1.4-0.2-1.7-0.4c-0.4-0.2-0.9-0.4-1.3-0.6c-0.2-0.1-0.3-0.3-0.5-0.4
		c-0.4-0.5-1-0.9-1.4-1.5c-0.3-0.5-0.7-1-0.9-1.7c0-0.2-0.2-0.3-0.2-0.5c-0.1-0.6-0.3-1.1-0.2-1.8c0-0.2,0-0.5,0-0.7
		c0-0.7,0.2-1.4,0.4-2.1c0.3-1,0.9-1.8,1.6-2.6c0.6-0.7,1.4-1.2,2.2-1.6c0.6-0.3,1.2-0.5,1.9-0.5c0.1,0,0.2,0,0.4-0.1
		c0.2-0.1,0.4-0.1,0.6,0c0.1,0.1,0.2,0.1,0.3,0.1c0.6,0,1.2,0.2,1.7,0.4c0.7,0.2,1.2,0.7,1.8,1.1c0.3,0.2,0.4,0.5,0.4,0.9
		c0,0.7,0,1.3,0,2c0,0.1,0,0.1-0.1,0.1c-0.1,0-0.1,0-0.2,0c-0.1-0.1-0.1-0.3-0.2-0.4c-0.7-0.6-1.4-1.2-2.4-1.4
		c-1.4-0.4-1.4-0.4-2.6-0.3c-1.2,0.1-2.4,0.6-3.3,1.5c-0.5,0.5-0.9,1.1-1.2,1.8c-0.1,0.2-0.2,0.5-0.2,0.7c0,0.2,0.1,0.4-0.1,0.6
		c0,0,0,0.1,0,0.1c0.2,0.6,0.1,1.3,0.4,1.9c0.4,1,1.3,1.9,2.2,2.3c0.5,0.2,1,0.4,1.6,0.6c0.6,0.1,1.2,0,1.8,0.1
		c0.4-0.2,0.9-0.2,1.3-0.3c0.4-0.2,0.8-0.3,1.2-0.6c0.6-0.4,1.1-1,1.2-1.7c0-0.1,0.1-0.1,0.1-0.2c0-0.1,0-0.2-0.1-0.2
		c-0.1,0-0.2,0-0.3,0c-0.9,0-1.8,0-2.8,0c-0.2,0-0.3,0-0.3-0.2c0-0.7,0-1.3,0-2c0-0.2,0-0.2,0.2-0.2C153.8,6.6,154.5,6.6,155.2,6.6z
		"/>
	<path d="M57.5,7.2c0-2.1,0-4.2,0-6.3c0-0.1,0-0.2,0-0.3c0-0.2,0.1-0.3,0.3-0.3c0.4,0,0.9,0,1.3,0c0.8,0,1.5,0,2.3,0
		c0.5,0,0.9,0.2,1.3,0.1c0.6,0.2,1.3,0.4,1.9,0.8c0.5,0.4,0.8,0.8,1.1,1.3c0.2,0.3,0.4,0.8,0.4,1.2c0,0.3,0.2,0.6,0.1,0.9
		c-0.1,0.3-0.1,0.7-0.2,1c-0.1,0.4-0.3,0.8-0.5,1.2c-0.4,0.6-0.9,1-1.5,1.3c-0.3,0.2-0.7,0.3-1,0.3c-0.1,0-0.2,0.1-0.1,0.2
		c0.4,0.7,0.8,1.4,1.2,2.1c0.1,0.1,0.1,0.3,0.2,0.4c0.3,0.5,0.6,1,0.9,1.5c0,0.1,0,0.1,0,0.2c0.2,0.4,0.4,0.8,0.7,1.2
		c-0.5,0-0.9,0-1.4,0c-0.2,0-0.3,0-0.5,0c-0.5,0-0.5,0-0.7-0.5c-0.3-0.6-0.6-1.2-1-1.8c-0.5-0.8-0.9-1.7-1.4-2.5
		c-0.1-0.2-0.2-0.4-0.3-0.6c-0.3,0-0.5,0-0.8,0c-0.2,0-0.5,0-0.7,0c-0.1,0-0.1,0-0.1,0.1c0,0.1,0,0.3,0,0.4c0,1.5,0,3.1,0,4.6
		c0,0.3,0,0.3-0.3,0.3c-0.3,0-0.6,0-0.9,0c-0.2,0-0.2-0.1-0.2-0.3c0-1.5,0-3.1,0-4.6C57.5,8.6,57.5,7.9,57.5,7.2z M60.9,2.7
		c-0.6,0-1.3,0-1.9,0c-0.1,0-0.2,0-0.2,0.2c0,1.2,0,2.3,0,3.5c0,0.1,0,0.2,0.1,0.2c0.7,0,1.3,0,2,0c0.7,0,1.3,0,2-0.1
		c0.5-0.1,0.9-0.2,1.2-0.5c0.3-0.2,0.4-0.5,0.5-0.8c0-0.2,0.2-0.5,0.1-0.6c-0.1-0.2,0-0.4-0.2-0.6c-0.1-0.1-0.1-0.2-0.2-0.3
		c-0.5-0.6-1.1-0.8-1.9-0.8C62,2.7,61.5,2.7,60.9,2.7z"/>
	<path d="M132.2,7.2c0-2.2,0-4.4,0-6.6c0-0.3,0-0.3,0.3-0.4c0.3,0,0.5,0.1,0.7,0.3c0.5,0.5,0.9,1,1.3,1.5c0.2,0.3,0.5,0.6,0.8,0.9
		c0.4,0.4,0.7,0.8,1.1,1.2c0.5,0.6,1.1,1.3,1.6,1.9c0.3,0.4,0.7,0.9,1.1,1.2c0.4,0.3,0.6,0.8,1,1.1c0.1,0.3,0.4,0.4,0.6,0.7
		c0.2,0.3,0.4,0.5,0.6,0.7c0,0,0.1,0.1,0.1,0.1c0.1,0,0.1-0.1,0.1-0.1c0-0.2,0-0.3,0-0.5c0-2.8,0-5.7,0-8.5c0-0.1,0-0.3,0-0.4
		c0-0.1,0.1-0.2,0.2-0.2c0.3,0,0.6,0,0.9,0c0.2,0,0.3,0.1,0.3,0.3c0,0.1,0,0.2,0,0.3c0,4.3,0,8.6,0,12.9c0,0.1,0,0.2,0,0.3
		c0,0.1,0,0.1-0.1,0.1c-0.2,0-0.4,0-0.6,0c-0.1,0-0.2-0.1-0.2-0.1c-0.2-0.3-0.5-0.5-0.7-0.8c-0.2-0.3-0.5-0.6-0.8-0.9
		c-0.4-0.4-0.7-0.8-1.1-1.2c-0.5-0.5-1-1.1-1.5-1.7c-0.5-0.5-0.9-1.1-1.3-1.6c-0.4-0.5-0.8-1-1.2-1.4c-0.5-0.6-1-1.2-1.5-1.7
		c0,0,0-0.1,0-0.1c0-0.1,0-0.1-0.1-0.1c0,0,0,0.1,0,0.1c0,0.2,0,0.3,0,0.5c0,2.9,0,5.8,0,8.8c0,0.3,0,0.4-0.3,0.3c-0.3,0-0.7,0-1,0
		c-0.1-0.3,0-0.7,0-1C132.2,11.1,132.2,9.1,132.2,7.2z"/>
	<path d="M118.4,23.6c0,2.2,0,4.3,0,6.5c0,0.3,0,0.3-0.3,0.4c-0.3,0-0.5-0.1-0.7-0.3c-0.5-0.5-0.9-1-1.3-1.5
		c-0.2-0.3-0.5-0.6-0.8-0.9c-0.4-0.4-0.7-0.8-1.1-1.2c-0.3-0.4-0.7-0.7-0.9-1.1c-0.2-0.3-0.5-0.6-0.8-0.9c-0.4-0.4-0.7-0.8-1.1-1.2
		c-0.5-0.6-1.1-1.2-1.6-1.9c0,0,0,0,0,0c-0.2-0.2-0.4-0.4-0.5-0.5c-0.1,0.2-0.1,0.5-0.1,0.7c0,2.8,0,5.7,0,8.5c0,0.1,0,0.2,0,0.3
		c0,0.1-0.1,0.2-0.2,0.2c-0.3,0-0.6,0-0.9,0c-0.2,0-0.3-0.1-0.3-0.3c0-0.1,0-0.2,0-0.3c0-4.3,0-8.6,0-12.9c0-0.1,0-0.2,0-0.3
		c0-0.1,0-0.1,0.1-0.1c0.2,0,0.4,0,0.6,0c0.1,0,0.2,0.1,0.2,0.1c0.2,0.2,0.5,0.3,0.5,0.6c0,0,0.1,0.1,0.1,0.1
		c0.4,0.4,0.7,0.8,1.1,1.2c0.5,0.6,1,1.2,1.6,1.8c0.4,0.5,0.9,1,1.3,1.5c0.5,0.6,1,1.1,1.5,1.7c0.5,0.5,0.9,1.1,1.3,1.6
		c0.2,0.3,0.5,0.5,0.7,0.8c0,0,0.1,0,0.1,0c0,0,0-0.1,0-0.1c0-0.2,0-0.3,0-0.5c0-2.9,0-5.8,0-8.6c0-0.3,0-0.4,0.3-0.4
		c0.3,0,0.7,0,1,0c0.1,0.3,0,0.7,0,1C118.4,19.7,118.4,21.6,118.4,23.6z"/>
	<path d="M75.7,30.5c-0.3,0-0.5,0-0.8,0c-0.2,0-0.3-0.1-0.4-0.3c-0.4-0.7-0.6-1.5-1-2.2c-0.3-0.5-0.4-1-0.7-1.5
		c-0.1-0.2-0.2-0.3-0.4-0.3c-1.8,0-3.6,0-5.4,0c-0.2,0-0.3,0.1-0.4,0.3c-0.2,0.4-0.4,0.8-0.6,1.3c-0.1,0.4-0.4,0.8-0.6,1.3
		c-0.1,0.4-0.4,0.7-0.5,1.1c-0.1,0.2-0.2,0.2-0.4,0.2c-0.3,0-0.6,0-0.9,0c-0.2,0-0.2-0.1-0.2-0.2c0-0.1,0-0.1,0.1-0.1
		c0.2-0.5,0.5-1.1,0.7-1.6c0.4-0.8,0.7-1.6,1.1-2.4c0.3-0.7,0.7-1.3,1-2c0.2-0.4,0.4-0.8,0.5-1.2c0.2-0.4,0.4-0.8,0.5-1.2
		c0.4-0.9,0.8-1.7,1.2-2.6c0.3-0.7,0.6-1.4,0.9-2.1c0.1-0.3,0.3-0.4,0.6-0.4c0.3,0,0.4,0.1,0.5,0.3c0.4,0.9,0.8,1.7,1.2,2.6
		c0.2,0.6,0.5,1.1,0.8,1.6c0.5,1.1,1,2.2,1.5,3.2c0.5,1.1,1,2.2,1.5,3.2c0.4,0.9,0.8,1.8,1.2,2.7c0.1,0.1,0,0.2-0.2,0.2
		C76.4,30.5,76,30.5,75.7,30.5z M69.6,24c0.6,0,1.1,0,1.7,0c0.3,0,0.3-0.1,0.2-0.3c-0.4-0.8-0.8-1.6-1.2-2.4
		c-0.1-0.1-0.1-0.3-0.2-0.4c-0.1-0.3-0.3-0.6-0.4-0.9c0-0.1-0.1-0.1-0.1,0c0,0.1-0.1,0.2-0.1,0.2c-0.5,1-0.9,2-1.4,3
		c-0.1,0.2-0.3,0.4-0.3,0.6c0,0.1-0.2,0.2,0.1,0.2C68.5,24,69,24,69.6,24z"/>
	<path d="M0,7.2C0,5,0,2.9,0,0.7c0-0.1,0-0.2,0-0.3c0-0.1,0-0.1,0.1-0.1c0.3,0,0.7,0,1,0c0.2,0,0.3,0.1,0.3,0.3c0,0.1,0,0.2,0,0.3
		c0,1.6,0,3.2,0,4.7c0,0.3,0,0.3,0.3,0.3c2.4,0,4.9,0,7.3,0c0.3,0,0.3,0,0.3-0.3c0-1.7,0-3.4,0-5.1c0-0.2,0-0.2,0.2-0.2
		c0.3,0,0.6,0,0.9,0c0.2,0,0.3,0.1,0.3,0.3c0,0.1,0,0.2,0,0.2c0,4.3,0,8.6,0,12.9c0,0.1,0,0.2,0,0.2c0,0.1,0,0.2-0.2,0.2
		c-0.3,0-0.7,0-1,0c-0.2,0-0.2-0.1-0.2-0.3c0-1.7,0-3.3,0-5c0-0.1,0-0.3,0-0.4c0-0.1-0.1-0.2-0.2-0.2c-0.6,0-1.2,0-1.8,0
		c-1.8,0-3.6,0-5.4,0c-0.5,0-0.5,0-0.5,0.5c0,1.6,0,3.2,0,4.8c0,0.1,0,0.2,0,0.3c0,0.1-0.1,0.2-0.2,0.1c-0.4,0-0.8,0.1-1.2,0
		c0-0.4,0-0.7,0-1.1C0,11,0,9.1,0,7.2z"/>
	<path d="M90.5,2.9c0,0.2,0,0.4,0,0.6c0,0.2,0.1,0.5-0.1,0.7c-0.2-0.2-0.3-0.3-0.5-0.5c-0.6-0.5-1.3-0.8-2-1c-0.5-0.1-1-0.3-1.5-0.2
		c-0.2,0-0.5,0-0.7,0c-0.9,0-1.8,0.3-2.6,0.7c-1,0.5-1.9,1.6-2.2,2.7c-0.2,0.6-0.1,1.4,0,2.1c0.1,0.7,0.3,1.2,0.7,1.7
		c0.4,0.5,0.8,1,1.4,1.3c0.3,0.2,0.6,0.3,0.9,0.4c0.3,0.1,0.6,0.2,0.9,0.2c0.6,0.1,1.2,0.2,1.9,0.1c0.9-0.1,1.8-0.3,2.7-0.8
		c0.4-0.2,0.8-0.5,1.1-0.8c0,0,0.1,0,0.1-0.1c0,0,0,0.1,0,0.1c0,0.8,0,1.6,0,2.4c0,0.1-0.1,0.2-0.1,0.2c-0.4,0.4-0.9,0.7-1.4,0.9
		c-0.4,0.1-0.7,0.3-1.1,0.4c-0.4,0.1-0.8,0.2-1.2,0.2c-0.3,0-0.5,0-0.8,0c-0.7,0-1.4-0.2-2.1-0.5c-0.5-0.2-1-0.5-1.4-0.8
		c-0.4-0.4-0.9-0.7-1.2-1.1c-0.4-0.6-0.8-1.1-1.1-1.7c-0.2-0.5-0.4-1.4-0.5-1.9c-0.1-0.4-0.1-0.9-0.1-1.3c0-1,0.3-1.9,0.7-2.8
		c0.4-0.9,1-1.7,1.8-2.4c0.8-0.7,1.8-1.2,2.8-1.5c0.3-0.1,0.6-0.2,1-0.2c0.4,0,0.9,0,1.3,0c0.7,0,1.4,0.2,2,0.5
		c0.5,0.2,0.9,0.5,1.3,0.7c0.1,0.1,0.2,0.2,0.2,0.4C90.4,2.2,90.5,2.5,90.5,2.9z"/>
	<path d="M115,3c0,0.4,0,0.8,0,1.2c0,0.1,0,0.1,0,0.2c0,0-0.1,0-0.1-0.1c-0.4-0.4-0.8-0.7-1.3-1c-0.5-0.3-1.1-0.4-1.7-0.6
		c-0.7-0.2-1.4-0.1-2.1-0.1c-0.4,0-0.9,0.2-1.3,0.3c-0.4,0.1-0.8,0.4-1.2,0.6c-0.4,0.3-0.8,0.7-1.1,1.1c-0.3,0.4-0.5,0.8-0.6,1.3
		c-0.1,0.3-0.2,0.7-0.2,1c0,0.3-0.1,0.7,0.1,1c0,0.5,0.2,0.9,0.4,1.3c0.3,0.6,0.8,1.1,1.3,1.5c0.5,0.4,1.1,0.6,1.6,0.9
		c0.2,0.1,0.4-0.1,0.5,0.2c0.4-0.1,0.7,0.1,1,0.1c0.3,0,0.7,0.1,1,0c0.3-0.1,0.6,0,0.9-0.1c0.6-0.2,1.3-0.4,1.8-0.8
		c0.3-0.2,0.6-0.4,0.9-0.7c0,0,0-0.1,0.1-0.1c0,0,0,0.1,0,0.1c0,0.7,0,1.5,0,2.2c0,0.2-0.1,0.3-0.2,0.4c-0.5,0.5-1.1,0.8-1.8,1
		c-0.9,0.3-2.2,0.5-3,0.3c-0.8-0.1-1.5-0.3-2.2-0.7c-0.6-0.3-1.2-0.7-1.7-1.2c-0.3-0.4-0.7-0.7-1-1.1c-0.5-0.8-0.9-1.6-1.1-2.5
		c-0.3-0.3-0.1-0.7-0.2-1c-0.1-0.3-0.1-0.7,0-1.1c0.2-0.7,0.2-1.4,0.5-2.1c0.3-0.7,0.7-1.3,1.1-1.9c0.7-1,1.7-1.6,2.8-2.1
		c0.4-0.2,0.8-0.3,1.2-0.4c0.8-0.2,1.5-0.1,2.3-0.1c0.5,0,1,0.2,1.5,0.4c0.5,0.2,0.9,0.5,1.4,0.7c0.2,0.2,0.4,0.3,0.3,0.6
		C115,2.3,115,2.6,115,3z"/>
	<path d="M44.9,28c0-0.3-0.1-0.8,0.1-1.2c0.3,0.3,0.6,0.5,1,0.7c0.5,0.3,1,0.5,1.6,0.7c0.6,0.2,1.3,0.1,1.9,0.1
		c0.4,0,0.7-0.2,1.1-0.4c0.6-0.3,0.7-0.9,0.6-1.5c0-0.3-0.3-0.5-0.5-0.7c-0.5-0.3-1-0.5-1.5-0.7c-0.6-0.2-2.4-1-2.7-1.3
		c-0.7-0.6-1.3-1.2-1.5-2.1c0,0,0-0.1,0-0.1c0-0.5-0.2-0.9-0.1-1.3c0-0.4,0.1-0.9,0.3-1.3c0.2-0.4,0.4-0.8,0.8-1.1
		c0.5-0.6,1.1-0.9,1.8-1.1c0.3-0.1,0.6-0.2,1-0.2c0.3,0,0.6,0,0.9,0c0.3,0,0.6,0.1,0.8,0.1c0.6,0.1,1.2,0.4,1.7,0.8
		c0.1,0.1,0.2,0.2,0.2,0.3c0,0.7,0,1.3,0,2c0,0.1-0.1,0.2-0.3,0.2c-0.2-0.1-0.3-0.2-0.4-0.3c-0.5-0.4-1-0.5-1.5-0.7
		c-0.5,0.1-1-0.2-1.5-0.1c-0.6,0.1-1.2,0.2-1.8,0.6c-0.3,0.2-0.5,0.5-0.6,0.9c0,0.4,0.2,0.8,0.6,1.1c0.5,0.4,1.2,0.6,1.8,0.8
		c0.9,0.3,1.8,0.7,2.6,1.2c0.7,0.5,1.1,1.1,1.4,1.9c0,0.3,0.2,0.6,0.1,0.9c0,0.2,0,0.5,0,0.7c0,0.8-0.2,1.5-0.6,2.1
		c-0.3,0.5-0.6,0.9-1.1,1.1c-0.5,0.3-1.1,0.6-1.7,0.6c-0.2,0-0.4,0.2-0.6,0.1c-0.5-0.1-1-0.1-1.5-0.2c-0.4-0.2-0.9-0.3-1.3-0.6
		c-0.2-0.1-0.3-0.2-0.5-0.3c-0.2-0.1-0.3-0.3-0.2-0.5C44.9,28.8,44.9,28.4,44.9,28z"/>
	<path d="M29,7.2c0-2.2,0-4.4,0-6.6c0-0.3,0-0.3,0.3-0.3c1.3,0,2.6-0.1,3.9,0c0.7,0,1.5,0.1,2.2,0.5c1.1,0.7,1.9,1.6,2.2,2.9
		c0.1,0.6,0.1,1.2,0.1,1.7c0,0.4-0.2,0.8-0.4,1.1C37,7,36.8,7.4,36.4,7.7c-0.4,0.4-0.8,0.8-1.3,1C34.7,8.8,34.4,9,34,9
		c-1.1,0.2-2.3,0.1-3.4,0.1c-0.2,0-0.2,0.1-0.2,0.2c0,1.5,0,3,0,4.4c0,0.3,0,0.3-0.3,0.3c-0.4,0-0.7,0-1.1,0c-0.1-0.4,0-0.7,0-1.1
		C29,11.1,29,9.1,29,7.2z M30.3,4.5c0,0.7,0,1.4,0,2c0,0.2,0.1,0.2,0.3,0.2c1,0,2.1,0,3.1,0c0.4,0,0.8-0.1,1.2-0.2
		c0.2-0.1,0.4-0.2,0.6-0.4C35.8,6,36,5.7,36.1,5.5c0.3-0.6,0.1-1.6-0.4-2.1c-0.5-0.5-1.1-0.7-1.7-0.7c-0.6,0-1.2,0-1.7,0
		c-0.6,0-1.3,0-1.9,0C30.3,3.3,30.4,4,30.3,4.5z"/>
	<path d="M60,24.7c0,1.8,0,3.6,0,5.5c0,0.3,0,0.3-0.3,0.3c-0.2,0-0.5,0-0.7,0c-0.3,0-0.3-0.1-0.4-0.3c0-0.1,0-0.3,0-0.4
		c0-3.4,0-6.8,0-10.2c0-0.1,0-0.3,0-0.4c0-0.2-0.1-0.2-0.2-0.2c-1.4,0-2.7,0-4.1,0c-0.5,0-0.5,0-0.5-0.5c0-0.5,0-1,0-1.5
		c0-0.3,0-0.3,0.3-0.3c0.1,0,0.1,0,0.2,0c3.4,0,6.8,0,10.1,0c0.1,0,0.2,0,0.3,0c0.2,0,0.2,0.1,0.2,0.2c0,0.6,0,1.3,0,1.9
		c0,0.2-0.1,0.2-0.2,0.2c-1.4,0-2.7,0-4.1,0c-0.5,0-0.5,0-0.5,0.5C60,21.2,60,23,60,24.7z"/>
	<path d="M81.6,24.7c0,1.8,0,3.6,0,5.5c0,0.3,0,0.3-0.3,0.3c-0.2,0-0.5,0-0.7,0c-0.3,0-0.3-0.1-0.4-0.3c0-0.1,0-0.3,0-0.4
		c0-3.4,0-6.8,0-10.2c0-0.1,0-0.3,0-0.4c0-0.2-0.1-0.2-0.2-0.2c-1.4,0-2.7,0-4.1,0c-0.5,0-0.5,0-0.5-0.5c0-0.5,0-1,0-1.5
		c0-0.3,0-0.3,0.3-0.3c0.1,0,0.1,0,0.2,0c3.4,0,6.8,0,10.1,0c0.1,0,0.2,0,0.3,0c0.2,0,0.2,0.1,0.2,0.2c0,0.6,0,1.3,0,1.9
		c0,0.2-0.1,0.2-0.2,0.2c-1.4,0-2.7,0-4.1,0c-0.5,0-0.5,0-0.5,0.5C81.6,21.2,81.6,23,81.6,24.7z"/>
	<path d="M97.4,11.3c0-0.8,0-1.6,0-2.4c0-0.2-0.1-0.4-0.2-0.6c-0.5-0.8-1.1-1.5-1.6-2.3c-0.4-0.6-0.8-1.2-1.3-1.8
		c-0.4-0.6-0.8-1.2-1.3-1.8c-0.4-0.5-0.7-1.1-1.2-1.7c-0.1-0.1,0-0.2-0.1-0.2c-0.1-0.1-0.1-0.1,0-0.1c0.8,0,1.6,0,2.4,0
		c0.1,0,0.2,0.1,0.3,0.2c0.6,1,1.3,2,2,3c0.6,0.9,1.1,1.8,1.8,2.6c0.1,0.1,0.1,0.3,0.2,0.3c0-0.1,0.1-0.2,0.2-0.3
		c0.5-0.8,1-1.6,1.5-2.4c0.7-1.1,1.4-2.1,2.1-3.2c0-0.1,0.1-0.1,0.2-0.1c0.5,0,1,0,1.4,0c0.2,0,0.2,0.1,0.1,0.2
		c-0.2,0.3-0.4,0.6-0.6,0.9c-1.1,1.7-2.3,3.3-3.4,5c-0.4,0.6-0.8,1.3-1.2,1.9c-0.1,0.1-0.1,0.3-0.1,0.4c0,1.6,0,3.2,0,4.8
		c0,0.1,0,0.3,0,0.4c0,0.1,0,0.1-0.1,0.1c0,0,0,0-0.1,0c-0.4,0-0.8,0-1.1,0c-0.1-0.4,0-0.8,0-1.1C97.4,12.4,97.4,11.8,97.4,11.3z"/>
	<path d="M117.8,7.1c0-2.2,0-4.4,0-6.6c0-0.3,0-0.3,0.3-0.3c0.4,0,0.7,0,1.1,0c0.1,0.4,0,0.7,0,1.1c0,3.3,0,6.6,0,9.9
		c0,0.1,0,0.3,0,0.4c0,0.1,0,0.2,0.1,0.2c0.1,0,0.3,0,0.4,0c1.9,0,3.9,0,5.8,0c0.1,0,0.3,0,0.4,0c0.1,0,0.2,0,0.1,0.1c0,0,0,0,0,0.1
		c0,0.7,0.1,1.4,0,2.1c-0.7,0-1.3,0-2,0c-1.9,0-3.8,0-5.7,0c-0.1,0-0.2,0-0.3,0c-0.3,0-0.3,0-0.3-0.3c0-1,0-2,0-2.9
		C117.8,9.6,117.8,8.4,117.8,7.1z"/>
	<path d="M89.4,23.6c0,2.1,0,4.2,0,6.3c0,0.5,0,0.5-0.5,0.5c-0.2,0-0.3,0-0.5,0c-0.2,0-0.3-0.1-0.3-0.3c0-0.1,0-0.2,0-0.2
		c0-4.3,0-8.6,0-12.9c0-0.1,0-0.2,0-0.2c0-0.1,0-0.2,0.2-0.2c0,0,0.1,0,0.1,0c0.4,0,0.7,0,1.1,0c0.1,0.4,0,0.7,0,1.1
		C89.4,19.7,89.4,21.7,89.4,23.6z"/>
	<path d="M129.2,7.2c0,2.2,0,4.4,0,6.6c0,0.3,0,0.3-0.3,0.3c-0.3,0-0.7,0-1,0c-0.1-0.3,0-0.7,0-1c0-4,0-8.1,0-12.1
		c0-0.1,0-0.2,0-0.3c0-0.3,0.1-0.4,0.4-0.4c0.3,0,0.6,0,1,0c0.1,0.3,0,0.6,0,1C129.2,3.2,129.2,5.2,129.2,7.2z"/>
</g>
</svg>
