<svg id="Layer_1" data-name="Layer 1" xmlns="http://www.w3.org/2000/svg" viewBox="0 0 386.08 163.49"><polygon points="227.3 40.49 217.09 40.49 217.09 24.1 212.59 24.1 212.59 44.58 227.3 44.58 227.3 40.49"/><rect x="230.43" y="28.9" width="4.45" height="15.68"/><rect x="230.31" y="23.22" width="4.68" height="3.95"/><path d="M239.79,40.14c0,3.62,1.84,4.71,4.56,4.71a6.48,6.48,0,0,0,3.51-.91V40.37a4.5,4.5,0,0,1-2.19.55c-1,0-1.43-.49-1.43-1.52V32.7h3.68V28.9h-3.68v-4h-4.45v4h-1.87v3.8h1.87Z"/><path d="M255.65,35.83c0-2.1,1.08-3.18,2.77-3.18s2.7,1.08,2.7,3.18v8.75h4.44V34.43c0-3.6-2-5.82-5.32-5.82a5.55,5.55,0,0,0-4.59,2.51V23.23H251.2V44.58h4.45Z"/><path d="M274.22,44.87a5.57,5.57,0,0,0,4.59-2.51v2.22h4.45V28.9h-4.45v8.75c0,2.11-1.08,3.19-2.78,3.19s-2.69-1.08-2.69-3.19V28.9h-4.45V39.05C268.89,42.65,270.85,44.87,274.22,44.87Z"/><path d="M291.68,44.87a6.08,6.08,0,0,0,4.74-2v1.69h4.3v-9.1c0-4.24-2.14-6.76-7-6.76A13.82,13.82,0,0,0,287.64,30l1.11,3.4a11.52,11.52,0,0,1,4.33-.85c2.23,0,3.37,1,3.37,2.86v.27a11.24,11.24,0,0,0-3.84-.64c-3.71,0-6.32,1.57-6.32,5v.06C286.29,43.18,288.72,44.87,291.68,44.87Zm-1.08-5c0-1.4,1.16-2.16,3.07-2.16a7,7,0,0,1,2.84.58v.79c0,1.61-1.41,2.75-3.49,2.75-1.43,0-2.42-.7-2.42-1.9Z"/><path d="M308.58,35.83c0-2.1,1.09-3.18,2.78-3.18s2.69,1.08,2.69,3.18v8.75h4.45V34.43c0-3.6-2-5.82-5.32-5.82a5.56,5.56,0,0,0-4.6,2.51V28.9h-4.45V44.58h4.45Z"/><rect x="322.15" y="28.9" width="4.45" height="15.68"/><rect x="322.03" y="23.22" width="4.68" height="3.95"/><path d="M334.81,44.87a6,6,0,0,0,4.74-2v1.69h4.3v-9.1c0-4.24-2.13-6.76-7-6.76A13.81,13.81,0,0,0,330.78,30l1.11,3.4a11.44,11.44,0,0,1,4.33-.85c2.22,0,3.36,1,3.36,2.86v.27a11.13,11.13,0,0,0-3.83-.64c-3.72,0-6.32,1.57-6.32,5v.06C329.43,43.18,331.86,44.87,334.81,44.87Zm-1.08-5c0-1.4,1.17-2.16,3.07-2.16a6.9,6.9,0,0,1,2.84.58v.79c0,1.61-1.4,2.75-3.48,2.75-1.43,0-2.43-.7-2.43-1.9Z"/><path d="M351.72,35.83c0-2.1,1.08-3.18,2.78-3.18s2.69,1.08,2.69,3.18v8.75h4.45V34.43c0-3.6-2-5.82-5.33-5.82a5.55,5.55,0,0,0-4.59,2.51V28.9h-4.45V44.58h4.45Z"/><path d="M222.18,76.46a10.49,10.49,0,0,0,8.4-3.66l-2.87-2.9a7.36,7.36,0,0,1-5.38,2.4c-3.51,0-5.94-2.92-5.94-6.43v-.06a6.07,6.07,0,0,1,5.94-6.38,7.58,7.58,0,0,1,5.24,2.31l2.86-3.3a10.53,10.53,0,0,0-8.07-3.16,10.4,10.4,0,0,0-10.68,10.59v.06A10.34,10.34,0,0,0,222.18,76.46Z"/><path d="M243.51,69.17c0,2.11-1.09,3.19-2.78,3.19S238,71.28,238,69.17V60.43h-4.45V70.58c0,3.6,2,5.82,5.32,5.82a5.57,5.57,0,0,0,4.6-2.52v2.23H248V60.43h-4.44Z"/><rect x="252.13" y="54.75" width="4.45" height="21.36"/><path d="M261.49,56.42v4h-1.87v3.8h1.87v7.43c0,3.63,1.85,4.71,4.57,4.71a6.53,6.53,0,0,0,3.51-.91V71.89a4.47,4.47,0,0,1-2.2.56c-1,0-1.43-.5-1.43-1.52v-6.7h3.69v-3.8h-3.69v-4Z"/><path d="M282.7,69.17c0,2.11-1.08,3.19-2.78,3.19s-2.69-1.08-2.69-3.19V60.43h-4.45V70.58c0,3.6,2,5.82,5.33,5.82a5.53,5.53,0,0,0,4.59-2.52v2.23h4.45V60.43H282.7Z"/><path d="M291.12,60.43V76.11h4.45v-5.8c0-3.74,1.82-5.53,4.77-5.53h.24V60.13c-2.64-.11-4.1,1.29-5,3.45V60.43Z"/><path d="M310.78,76.46a7.83,7.83,0,0,0,6.41-2.93l-2.54-2.25a5.16,5.16,0,0,1-3.81,1.61A3.63,3.63,0,0,1,307,69.82h10.91c0-.41.06-.68.06-1.12v0c0-4.45-2.4-8.52-7.64-8.52-4.56,0-7.75,3.69-7.75,8.17v0A7.85,7.85,0,0,0,310.78,76.46Zm-.44-12.76c1.88,0,3.05,1.35,3.31,3.34H307C307.3,65,308.5,63.7,310.34,63.7Z"/><rect x="212.79" y="87.15" width="4.51" height="20.48"/><path d="M231,91.66a5.58,5.58,0,0,0-4.6,2.51V92H222v15.68h4.44V98.88c0-2.1,1.08-3.18,2.78-3.18s2.69,1.08,2.69,3.18v8.75h4.45V97.48C236.31,93.88,234.35,91.66,231,91.66Z"/><path d="M246.93,98.15c-1.7-.58-3.19-1-3.19-1.87v-.06c0-.61.55-1.08,1.64-1.08a9.36,9.36,0,0,1,4.24,1.46l1.7-3.07a10.89,10.89,0,0,0-5.85-1.81c-3.17,0-5.74,1.78-5.74,5v.06c0,3,2.49,4.06,4.68,4.71,1.73.53,3.25.85,3.25,1.81v.06c0,.7-.59,1.17-1.87,1.17a8.86,8.86,0,0,1-4.95-1.87l-1.9,2.93a11,11,0,0,0,6.73,2.36c3.39,0,6-1.57,6-5.06v-.06C251.67,99.94,249.12,98.88,246.93,98.15Z"/><path d="M260,87.94h-4.44v4h-1.88v3.8h1.88v7.43c0,3.63,1.84,4.71,4.56,4.71a6.62,6.62,0,0,0,3.51-.9v-3.57a4.51,4.51,0,0,1-2.2.55c-1,0-1.43-.49-1.43-1.52v-6.7h3.69V92H260Z"/><rect x="267.08" y="86.27" width="4.68" height="3.95"/><rect x="267.2" y="91.95" width="4.45" height="15.68"/><path d="M281,87.94h-4.45v4h-1.87v3.8h1.87v7.43c0,3.63,1.84,4.71,4.56,4.71a6.57,6.57,0,0,0,3.51-.9v-3.57a4.5,4.5,0,0,1-2.19.55c-1,0-1.43-.49-1.43-1.52v-6.7h3.68V92H281Z"/><path d="M297.77,100.7c0,2.11-1.09,3.19-2.78,3.19s-2.7-1.08-2.7-3.19V92h-4.44V102.1c0,3.6,2,5.82,5.32,5.82a5.57,5.57,0,0,0,4.6-2.51v2.22h4.45V92h-4.45Z"/><path d="M311.37,87.94h-4.45v4h-1.87v3.8h1.87v7.43c0,3.63,1.84,4.71,4.56,4.71A6.57,6.57,0,0,0,315,107v-3.57a4.5,4.5,0,0,1-2.19.55c-1,0-1.43-.49-1.43-1.52v-6.7h3.68V92h-3.68Z"/><path d="M317.57,99.88a8.29,8.29,0,0,0,14.6,5.18l-2.55-2.26a5.1,5.1,0,0,1-3.8,1.61,3.63,3.63,0,0,1-3.83-3.07H332.9c0-.41.06-.67.06-1.11v-.06c0-4.44-2.4-8.51-7.64-8.51-4.56,0-7.75,3.68-7.75,8.16Zm7.75-4.65c1.87,0,3,1.34,3.31,3.33h-6.71C322.28,96.54,323.48,95.23,325.32,95.23Z"/><path d="M382.43,1.63H192.62l-.53.12L129.79,32.3,67.58,1.75a2.2,2.2,0,0,0-.43-.09,2.13,2.13,0,0,0-.49-.1,2.42,2.42,0,0,0-.51.1,2.59,2.59,0,0,0-.4.09l-63.22,31a2.07,2.07,0,0,0-1.16,1.86V159.14a2.07,2.07,0,0,0,2.08,2.06,2.09,2.09,0,0,0,.91-.21l62.3-30.55L128.87,161a2.1,2.1,0,0,0,1.83,0l60.36-29.58a9,9,0,0,1,4-.93H382.43a2.07,2.07,0,0,0,2.07-2.07V3.7A2.07,2.07,0,0,0,382.43,1.63ZM5.52,35.89l59.07-29V126.85l-59.07,29Zm63.21-29,59,29V155.82l-59-29Zm63.13,29,59-28.95V126.87l-59,28.95Zm248.49,90.45H195.07V5.77H380.35Z"/><polygon points="35.01 51.77 23.92 57.22 23.92 116.45 46.19 105.52 46.19 93.52 35.01 99.01 35.01 51.77"/><polygon points="155.93 55.5 155.93 114.73 167.2 109.11 167.2 49.88 155.93 55.5"/><path d="M106.85,101.65a8.73,8.73,0,0,1-5.15-1.05Q96.38,98,93,91.42a30.73,30.73,0,0,1-3.4-14.29q0-7.72,3.4-11t8.72-.61a16.63,16.63,0,0,1,5,3.77,27.13,27.13,0,0,1,4.11,6.08l7.16-6.24a46,46,0,0,0-7.42-10.29,33.35,33.35,0,0,0-9.16-6.75,19.32,19.32,0,0,0-9.09-2.29,11.49,11.49,0,0,0-7.35,2.89A16.33,16.33,0,0,0,80,60.21a35.26,35.26,0,0,0-1.66,11.41,51.88,51.88,0,0,0,1.66,13A52.59,52.59,0,0,0,84.9,96.82,45.33,45.33,0,0,0,92.29,107a33.17,33.17,0,0,0,9,6.66,18.83,18.83,0,0,0,9.29,2.25,11.75,11.75,0,0,0,7.45-3.18l-7.27-13.49A6.21,6.21,0,0,1,106.85,101.65Z"/></svg>