<svg id="Layer_1" data-name="Layer 1" xmlns="http://www.w3.org/2000/svg" viewBox="0 0 393.04 150.02"><defs><style>.cls-1{fill:#fff;}</style></defs><rect class="cls-1" width="393.04" height="150.02"/><polygon points="213.66 54.61 208.57 54.61 208.57 46.44 206.32 46.44 206.32 56.65 213.66 56.65 213.66 54.61"/><rect x="215.22" y="48.83" width="2.22" height="7.82"/><rect x="215.16" y="46" width="2.33" height="1.97"/><path d="M219.89,54.43c0,1.81.92,2.35,2.28,2.35a3.26,3.26,0,0,0,1.75-.45V54.55a2.33,2.33,0,0,1-1.1.28c-.49,0-.71-.25-.71-.76V50.73H224v-1.9h-1.84v-2h-2.22v2H219v1.9h.93Z"/><path d="M227.8,52.29c0-1,.54-1.59,1.39-1.59s1.34.54,1.34,1.59v4.36h2.22V51.59c0-1.8-1-2.91-2.66-2.91a2.77,2.77,0,0,0-2.29,1.26V46h-2.22V56.65h2.22Z"/><path d="M237.06,56.8a2.75,2.75,0,0,0,2.29-1.26v1.11h2.22V48.83h-2.22v4.36c0,1.05-.54,1.59-1.38,1.59s-1.35-.54-1.35-1.59V48.83h-2.21v5.06C234.41,55.69,235.39,56.8,237.06,56.8Z"/><path d="M245.77,56.8a3,3,0,0,0,2.37-1v.84h2.14V52.11c0-2.11-1.06-3.37-3.48-3.37a6.9,6.9,0,0,0-3,.63l.56,1.69a5.76,5.76,0,0,1,2.15-.42c1.11,0,1.68.51,1.68,1.43v.13a5.51,5.51,0,0,0-1.91-.32c-1.85,0-3.15.79-3.15,2.49v0A2.42,2.42,0,0,0,245.77,56.8Zm-.54-2.51c0-.7.59-1.08,1.54-1.08a3.34,3.34,0,0,1,1.41.29v.39c0,.81-.7,1.37-1.73,1.37-.72,0-1.22-.35-1.22-.94Z"/><path d="M254.21,52.29c0-1,.54-1.59,1.38-1.59s1.34.54,1.34,1.59v4.36h2.22V51.59c0-1.8-1-2.91-2.65-2.91a2.75,2.75,0,0,0-2.29,1.26V48.83H252v7.82h2.22Z"/><rect x="260.97" y="48.83" width="2.22" height="7.82"/><rect x="260.92" y="46" width="2.33" height="1.97"/><path d="M267.29,56.8a3,3,0,0,0,2.36-1v.84h2.15V52.11c0-2.11-1.07-3.37-3.49-3.37a6.86,6.86,0,0,0-3,.63l.55,1.69a5.85,5.85,0,0,1,2.16-.42c1.11,0,1.68.51,1.68,1.43v.13a5.56,5.56,0,0,0-1.91-.32c-1.86,0-3.16.79-3.16,2.49v0A2.43,2.43,0,0,0,267.29,56.8Zm-.54-2.51c0-.7.58-1.08,1.53-1.08a3.39,3.39,0,0,1,1.42.29v.39c0,.81-.7,1.37-1.74,1.37-.71,0-1.21-.35-1.21-.94Z"/><path d="M275.72,52.29c0-1,.54-1.59,1.39-1.59s1.34.54,1.34,1.59v4.36h2.22V51.59c0-1.8-1-2.91-2.66-2.91a2.77,2.77,0,0,0-2.29,1.26V48.83H273.5v7.82h2.22Z"/><path d="M211.11,72.55a5.23,5.23,0,0,0,4.19-1.82l-1.43-1.45a3.71,3.71,0,0,1-2.69,1.2,3,3,0,0,1-3-3.21v0a3,3,0,0,1,3-3.18,3.77,3.77,0,0,1,2.61,1.15l1.43-1.65a5.26,5.26,0,0,0-4-1.57,5.19,5.19,0,0,0-5.33,5.28v0A5.15,5.15,0,0,0,211.11,72.55Z"/><path d="M221.75,68.92c0,1-.55,1.59-1.39,1.59S219,70,219,68.92V64.55H216.8v5.07c0,1.79,1,2.9,2.65,2.9a2.79,2.79,0,0,0,2.3-1.25v1.11H224V64.55h-2.21Z"/><rect x="226.05" y="61.72" width="2.22" height="10.65"/><path d="M230.72,62.55v2h-.94v1.9h.94v3.71c0,1.81.92,2.35,2.27,2.35a3.36,3.36,0,0,0,1.76-.45V70.27a2.25,2.25,0,0,1-1.1.28c-.5,0-.71-.25-.71-.76V66.45h1.83v-1.9h-1.83v-2Z"/><path d="M241.3,68.92c0,1-.54,1.59-1.39,1.59s-1.34-.54-1.34-1.59V64.55h-2.22v5.07c0,1.79,1,2.9,2.66,2.9a2.78,2.78,0,0,0,2.29-1.25v1.11h2.22V64.55H241.3Z"/><path d="M245.5,64.55v7.83h2.22V69.49c0-1.87.9-2.76,2.37-2.76h.12V64.41a2.41,2.41,0,0,0-2.49,1.72V64.55Z"/><path d="M255.3,72.55a3.9,3.9,0,0,0,3.2-1.46L257.23,70a2.55,2.55,0,0,1-1.9.8,1.81,1.81,0,0,1-1.91-1.53h5.44a5.12,5.12,0,0,0,0-.56v0c0-2.21-1.19-4.24-3.81-4.24a3.89,3.89,0,0,0-3.86,4.07v0A3.91,3.91,0,0,0,255.3,72.55Zm-.22-6.36a1.67,1.67,0,0,1,1.65,1.66h-3.34A1.75,1.75,0,0,1,255.08,66.19Z"/><rect x="206.42" y="77.89" width="2.25" height="10.22"/><path d="M215.5,80.13a2.77,2.77,0,0,0-2.29,1.26V80.28H211V88.1h2.22V83.74c0-1,.54-1.59,1.39-1.59s1.34.54,1.34,1.59V88.1h2.22V83C218.16,81.24,217.18,80.13,215.5,80.13Z"/><path d="M223.45,83.37c-.85-.29-1.59-.49-1.59-.93v0c0-.31.28-.54.82-.54a4.63,4.63,0,0,1,2.11.73l.85-1.53a5.43,5.43,0,0,0-2.92-.91c-1.57,0-2.86.89-2.86,2.48v0c0,1.52,1.24,2,2.34,2.35.86.26,1.62.43,1.62.91v0c0,.35-.3.58-.94.58a4.4,4.4,0,0,1-2.46-.93l-.95,1.46a5.5,5.5,0,0,0,3.35,1.18c1.7,0,3-.79,3-2.53v0C225.82,84.26,224.55,83.74,223.45,83.37Z"/><path d="M230,78.28h-2.22v2h-.93v1.9h.93v3.7c0,1.81.92,2.35,2.28,2.35a3.26,3.26,0,0,0,1.75-.45V86a2.33,2.33,0,0,1-1.1.28c-.49,0-.71-.25-.71-.76V82.18h1.84v-1.9H230Z"/><rect x="233.5" y="77.45" width="2.33" height="1.97"/><rect x="233.56" y="80.28" width="2.22" height="7.82"/><path d="M240.45,78.28h-2.22v2h-.93v1.9h.93v3.7c0,1.81.92,2.35,2.28,2.35a3.26,3.26,0,0,0,1.75-.45V86a2.32,2.32,0,0,1-1.09.28c-.5,0-.72-.25-.72-.76V82.18h1.84v-1.9h-1.84Z"/><path d="M248.81,84.64c0,1-.54,1.59-1.38,1.59s-1.35-.54-1.35-1.59V80.28h-2.22v5.06c0,1.8,1,2.91,2.66,2.91A2.77,2.77,0,0,0,248.81,87V88.1H251V80.28h-2.22Z"/><path d="M255.6,78.28h-2.22v2h-.94v1.9h.94v3.7c0,1.81.92,2.35,2.27,2.35a3.21,3.21,0,0,0,1.75-.45V86a2.29,2.29,0,0,1-1.09.28c-.5,0-.71-.25-.71-.76V82.18h1.83v-1.9H255.6Z"/><path d="M258.69,84.23A4.13,4.13,0,0,0,266,86.82l-1.27-1.13a2.56,2.56,0,0,1-1.9.81A1.82,1.82,0,0,1,260.89,85h5.44a4.8,4.8,0,0,0,0-.55v0c0-2.22-1.19-4.25-3.8-4.25a3.9,3.9,0,0,0-3.87,4.08Zm3.87-2.32a1.68,1.68,0,0,1,1.64,1.67h-3.34A1.76,1.76,0,0,1,262.56,81.91Z"/><path d="M291,35.22H196.36l-.26.06L165,50.53,134,35.28a1.43,1.43,0,0,0-.22,0,.93.93,0,0,0-.24-.05,1,1,0,0,0-.25.05,1.18,1.18,0,0,0-.2,0L101.54,50.75a1,1,0,0,0-.57.93v62.11a1,1,0,0,0,.48.88,1.08,1.08,0,0,0,.55.15,1,1,0,0,0,.45-.1l31.08-15.24,31,15.24a1.11,1.11,0,0,0,.92,0L195.59,100a4.45,4.45,0,0,1,2-.46H291a1,1,0,0,0,1-1V36.26A1,1,0,0,0,291,35.22ZM103,52.32,132.5,37.87V97.69L103,112.14Zm31.53-14.45L164,52.32v59.82L134.56,97.69Zm31.49,14.45L195.5,37.88V97.7l-29.45,14.44ZM290,97.43H197.59V37.29H290Z"/><polygon points="117.74 60.24 112.21 62.95 112.21 92.5 123.32 87.05 123.32 81.06 117.74 83.8 117.74 60.24"/><polygon points="178.06 62.09 178.06 91.64 183.68 88.84 183.68 59.29 178.06 62.09"/><path d="M153.58,85.12a4.31,4.31,0,0,1-2.57-.53A9.91,9.91,0,0,1,146.66,80,15.27,15.27,0,0,1,145,72.88q0-3.84,1.69-5.46c1.13-1.07,2.58-1.18,4.35-.31A8.4,8.4,0,0,1,153.48,69a13.15,13.15,0,0,1,2.05,3l3.57-3.12a22.94,22.94,0,0,0-3.7-5.13,16.67,16.67,0,0,0-4.57-3.36,9.68,9.68,0,0,0-4.54-1.15,5.79,5.79,0,0,0-3.66,1.44,8.16,8.16,0,0,0-2.43,3.73,17.39,17.39,0,0,0-.83,5.7,25.33,25.33,0,0,0,.83,6.46,26,26,0,0,0,2.43,6.11,22.66,22.66,0,0,0,3.69,5.08,16.2,16.2,0,0,0,4.51,3.32,9.38,9.38,0,0,0,4.63,1.13,5.9,5.9,0,0,0,3.72-1.59l-3.63-6.73A3.13,3.13,0,0,1,153.58,85.12Z"/></svg>