<svg id="Layer_1" data-name="Layer 1" xmlns="http://www.w3.org/2000/svg" viewBox="0 0 393.04 150.02"><defs><style>.cls-1{fill:#fff;}</style></defs><rect class="cls-1" width="393.04" height="150.02"/><path d="M172.21,124.71a42.81,42.81,0,0,1-12-1.77,45.83,45.83,0,0,1-23.6-15.9c-2.74-3.6-7.16-10.71-5.87-17.87,1.43-8,9.28-12.13,16.15-13.37,4.85-.88,10-.76,15-.64h.3l0,.78h-.3c-4.94-.12-10-.24-14.81.63-6.61,1.19-14.16,5.16-15.52,12.73-.53,3-.49,9.12,5.72,17.26a45,45,0,0,0,23.2,15.63c9.34,2.72,18.51,2.24,25.84-1.33a64.32,64.32,0,0,0,10.9-7.32c5.75-4.45,11.69-9.05,19.43-9.73a46.35,46.35,0,0,1,9.82.56,50.85,50.85,0,0,0,8.84.63c3.87-.2,7.51-1.88,9.49-4.4a7,7,0,0,0,1.46-5.75c-.4-2.2-1.69-4.16-3.05-6.24-.66-1-1.34-2-1.9-3.09a17.9,17.9,0,0,1-1.61-4.28v-.13c0-.36.9-8.91,6.13-13.21A10.76,10.76,0,0,1,254,65.57c2.83.29,4.66-.33,5.3-1.78.79-1.79-.35-4.68-2.64-6.73s-5.06-2.57-7.27-1.28a16.1,16.1,0,0,0-5,4.54c-2,2.55-3.2,4.09-10.33,1.12l-.08,0L214.58,46.7c-4.17-3.15-8.33-6.62-9.39-11.22a17.27,17.27,0,0,1,.18-6.77,28.25,28.25,0,0,0,.45-3.78c.14-4.67-3-7.81-5.35-8a8.89,8.89,0,0,0-7.89,3.45c-3.17,4.07-3.89,11.45-1.78,18.37.29,1,.56,1.88.8,2.76l-.75.21c-.25-.88-.51-1.78-.8-2.74-2.18-7.15-1.41-14.82,1.92-19.08a9.77,9.77,0,0,1,8.55-3.76c3.73.31,6.2,4.89,6.08,8.81a30.69,30.69,0,0,1-.45,3.88,16.43,16.43,0,0,0-.2,6.47c1,4.35,5.05,7.71,9.1,10.78l19.36,14.65c6.53,2.72,7.48,1.51,9.36-.89A16.84,16.84,0,0,1,249,55.1c2.52-1.47,5.58-1,8.19,1.38,2.92,2.61,3.64,5.81,2.84,7.62-.55,1.25-2.06,2.66-6.1,2.25a10,10,0,0,0-7.65,2.17c-4.77,3.93-5.74,11.83-5.82,12.6a16.68,16.68,0,0,0,1.52,4c.55,1,1.21,2,1.86,3,1.35,2,2.74,4.17,3.17,6.52a7.75,7.75,0,0,1-1.61,6.39c-2.13,2.69-6,4.48-10.07,4.69a52.17,52.17,0,0,1-9-.63,45.57,45.57,0,0,0-9.65-.56c-7.51.66-13.1,5-19,9.57a64.89,64.89,0,0,1-11,7.4,32.65,32.65,0,0,1-14.4,3.15"/><path d="M245.18,133.89c-4.82,0-9.66-2.23-13.3-5-3.92-3-7.3-6.86-10.58-10.61-1.76-2-3.58-4.1-5.46-6-6.61-6.74-13-9.89-19-9.35-9.42.85-16.34,10.61-21.31,19-3.8,6.43-10,11-15.36,11.47a9.79,9.79,0,0,1-8.55-3.77c-2.29-3-.58-7.88,2.39-10.44a28.81,28.81,0,0,1,3.17-2.28,16.38,16.38,0,0,0,4.9-4.23c2.53-3.67,2.28-8.92,1.8-14l-2.27-24.22.78-.07,2.27,24.22c.49,5.21.74,10.61-1.93,14.51a17.23,17.23,0,0,1-5.12,4.43,29.16,29.16,0,0,0-3.09,2.23c-3.54,3-3.72,7.5-2.29,9.35a8.9,8.9,0,0,0,7.87,3.48c5.15-.41,11.08-4.86,14.76-11.09C180,113,187,103,196.82,102.13c6.21-.56,12.8,2.66,19.58,9.58,1.9,1.94,3.72,4,5.49,6.05,3.25,3.72,6.61,7.57,10.47,10.51,5.34,4.07,13.37,6.95,19.87,2.84,5.9-3.73,8.09-11.55,8.86-15.88A45,45,0,0,0,257,87.57c-4.3-8.72-10.85-15.17-18.43-18.16a64.2,64.2,0,0,0-12.76-3.09c-7.16-1.24-14.57-2.51-20.3-7.76a46.39,46.39,0,0,1-6.22-7.62A50,50,0,0,0,193.73,44,15.06,15.06,0,0,0,191,41.86l.41-.66a15.34,15.34,0,0,1,2.88,2.24,50.41,50.41,0,0,1,5.6,7.05A45.56,45.56,0,0,0,206,58c5.56,5.09,12.53,6.28,19.9,7.55a66.26,66.26,0,0,1,12.91,3.14c7.77,3.06,14.47,9.65,18.85,18.54a45.83,45.83,0,0,1,4.21,28.15c-.8,4.45-3.06,12.51-9.21,16.4a13.8,13.8,0,0,1-7.47,2.12"/><path d="M161.68,74.57c-2.42-6.7-4-6.58-7-6.35a17,17,0,0,1-7-.63c-2.78-.87-4.47-3.48-4.51-7,0-3.92,1.83-6.61,3.71-7.25,1.29-.44,3.34-.28,5.77,3a10,10,0,0,0,6.76,4.18c6.13.86,12.61-3.76,13.24-4.22a16.9,16.9,0,0,0,1.94-3.84c.39-1.1.69-2.28,1-3.42.6-2.38,1.22-4.83,2.67-6.74,3.26-4.32,9-3.67,13.17-1.11l-.41.67c-3.9-2.38-9.17-3-12.14.91-1.35,1.78-1.92,4-2.53,6.46-.3,1.16-.6,2.36-1,3.49a17.75,17.75,0,0,1-2.07,4.07l0,.06-.05,0c-.29.21-7.13,5.35-13.86,4.4A10.8,10.8,0,0,1,152,56.82c-1.7-2.28-3.39-3.22-4.89-2.71-1.85.63-3.22,3.42-3.18,6.5s1.52,5.47,4,6.23a16.12,16.12,0,0,0,6.71.6c3.23-.25,5.18-.4,7.8,6.86Z"/><path d="M177.74,69.49l-1.38-3h0l-1.36,3Zm-6,3,4.31-9.33a.25.25,0,0,1,.23-.15h.14a.25.25,0,0,1,.24.15l4.26,9.33a.24.24,0,0,1-.23.36H179.5c-.21,0-.3-.09-.4-.28l-.68-1.5h-4.14l-.68,1.5a.41.41,0,0,1-.4.28H172a.25.25,0,0,1-.23-.36"/><path d="M186.62,67.52A1.41,1.41,0,0,0,188,66.11a1.37,1.37,0,0,0-1.37-1.35h-2.26v2.76Zm-4.07-4.16a.26.26,0,0,1,.26-.26h4a3,3,0,0,1,3,3,3.06,3.06,0,0,1-2,2.8l1.9,3.52a.26.26,0,0,1-.23.4H188a.24.24,0,0,1-.22-.13L185.89,69h-1.54v3.54a.27.27,0,0,1-.26.26h-1.28a.26.26,0,0,1-.26-.26Z"/><path d="M193.42,64.76H191.3a.26.26,0,0,1-.26-.26V63.36a.26.26,0,0,1,.26-.26h6.06a.26.26,0,0,1,.26.26V64.5a.26.26,0,0,1-.26.26h-2.12v7.77a.28.28,0,0,1-.27.27h-1.28a.28.28,0,0,1-.27-.27Z"/><path d="M198.84,71.44l.5-.86a.33.33,0,0,1,.47-.1,4.49,4.49,0,0,0,2.09.86,1.16,1.16,0,0,0,1.26-1.06c0-.71-.6-1.2-1.76-1.67s-2.6-1.35-2.6-3c0-1.23.91-2.66,3.11-2.66a4.81,4.81,0,0,1,2.77.93.35.35,0,0,1,.09.46l-.53.79a.36.36,0,0,1-.48.16,4.58,4.58,0,0,0-1.93-.76,1.11,1.11,0,0,0-1.22,1c0,.65.51,1.1,1.64,1.55,1.34.54,2.89,1.35,2.89,3.13A2.93,2.93,0,0,1,202,72.94a4.44,4.44,0,0,1-3-1.08c-.13-.13-.2-.2-.07-.42"/><path d="M177.31,75.74A4.7,4.7,0,0,1,180.67,77a.25.25,0,0,1,0,.38l-.85.88a.22.22,0,0,1-.34,0,3.24,3.24,0,0,0-2.13-.82,3.22,3.22,0,0,0,0,6.43,3.33,3.33,0,0,0,2.12-.79.25.25,0,0,1,.34,0l.86.89a.26.26,0,0,1,0,.37,4.76,4.76,0,0,1-3.37,1.34,5,5,0,1,1,0-10"/><path d="M187.08,83.91a3.19,3.19,0,1,0-3.17-3.17,3.2,3.2,0,0,0,3.17,3.17m0-8.17a5,5,0,1,1-5,5,5,5,0,0,1,5-5"/><path d="M194.09,76.14a.26.26,0,0,1,.26-.26h1.32a.26.26,0,0,1,.26.26v5.67a2,2,0,1,0,4,0V76.14a.26.26,0,0,1,.26-.26h1.32a.26.26,0,0,1,.26.26V81.9a3.86,3.86,0,0,1-7.71,0Z"/><path d="M204.53,76a.26.26,0,0,1,.26-.25h.35l5.76,6.12h0V76.14a.26.26,0,0,1,.26-.26h1.28a.27.27,0,0,1,.26.26v9.32a.26.26,0,0,1-.26.25h-.34l-5.79-6.36h0v6a.26.26,0,0,1-.26.26h-1.27a.27.27,0,0,1-.26-.26Z"/><path d="M219.88,75.74A4.66,4.66,0,0,1,223.23,77a.25.25,0,0,1,0,.38l-.85.88a.23.23,0,0,1-.35,0,3.22,3.22,0,0,0-2.13-.82,3.22,3.22,0,0,0,0,6.43,3.31,3.31,0,0,0,2.12-.79.26.26,0,0,1,.35,0l.86.89a.27.27,0,0,1,0,.37,4.8,4.8,0,0,1-3.37,1.34,5,5,0,1,1,0-10"/><rect x="225.41" y="75.88" width="1.81" height="9.7" rx="0.26"/><path d="M230.09,76.14a.26.26,0,0,1,.26-.26h1.28a.27.27,0,0,1,.26.26v7.77h3.53a.27.27,0,0,1,.26.27v1.13a.26.26,0,0,1-.26.26h-5.07a.26.26,0,0,1-.26-.26Z"/><path d="M174,88.72a.24.24,0,0,1,.25-.21h.22a.27.27,0,0,1,.24.14l3,6.54h.05l3-6.54a.27.27,0,0,1,.24-.14h.22a.24.24,0,0,1,.25.21L183.22,98a.24.24,0,0,1-.25.32H181.7a.3.3,0,0,1-.26-.21l-.82-5.25h0l-2.42,5.45a.24.24,0,0,1-.24.15h-.25a.25.25,0,0,1-.23-.15L175,92.89h-.05l-.8,5.25a.26.26,0,0,1-.25.21h-1.25a.25.25,0,0,1-.26-.32Z"/><path d="M190.18,95,188.8,92h-.05L187.4,95Zm-6,2.95,4.31-9.32a.24.24,0,0,1,.23-.16h.14a.22.22,0,0,1,.23.16L193.38,98a.24.24,0,0,1-.23.36h-1.21c-.21,0-.3-.08-.4-.28l-.68-1.49h-4.14L186,98.07a.42.42,0,0,1-.4.28h-1.21a.24.24,0,0,1-.23-.36"/><path d="M195,88.92a.27.27,0,0,1,.26-.27h1.28a.28.28,0,0,1,.26.27v7.77h3.53a.26.26,0,0,1,.26.26v1.14a.26.26,0,0,1-.26.26h-5.07a.26.26,0,0,1-.26-.26Z"/><path d="M203.08,90.32H201a.27.27,0,0,1-.27-.27V88.92a.27.27,0,0,1,.27-.27h6a.27.27,0,0,1,.26.27v1.13a.27.27,0,0,1-.26.27h-2.12v7.77a.26.26,0,0,1-.26.26h-1.29a.26.26,0,0,1-.26-.26Z"/><path d="M213.26,95,211.87,92h0L210.47,95Zm-6,2.95,4.31-9.32a.24.24,0,0,1,.24-.16H212a.23.23,0,0,1,.23.16L216.46,98a.25.25,0,0,1-.24.36H215a.39.39,0,0,1-.4-.28l-.68-1.49h-4.15l-.67,1.49a.43.43,0,0,1-.41.28h-1.2a.25.25,0,0,1-.24-.36"/></svg>