<svg id="Layer_1" data-name="Layer 1" xmlns="http://www.w3.org/2000/svg" viewBox="0 0 132.02 117.76"><path d="M41.69,108.59a42.81,42.81,0,0,1-12-1.78A45.77,45.77,0,0,1,6.1,90.91C3.35,87.31-1.06,80.2.23,73c1.43-8,9.28-12.13,16.15-13.37,4.85-.88,10-.76,15-.64h.3l0,.78h-.3c-4.94-.11-10-.24-14.81.63C9.91,61.63,2.36,65.6,1,73.18.47,76.12.51,82.29,6.72,90.43a45,45,0,0,0,23.2,15.63c9.33,2.72,18.51,2.24,25.84-1.33a64.32,64.32,0,0,0,10.9-7.32c5.75-4.45,11.69-9,19.43-9.73a46.35,46.35,0,0,1,9.82.56,50.85,50.85,0,0,0,8.84.63,13.14,13.14,0,0,0,9.49-4.39,7,7,0,0,0,1.46-5.76c-.41-2.2-1.69-4.16-3.06-6.24-.65-1-1.33-2-1.89-3.09a17.74,17.74,0,0,1-1.61-4.28l0-.06V65c0-.36.9-8.91,6.13-13.21a10.78,10.78,0,0,1,8.21-2.33c2.83.29,4.66-.33,5.3-1.78.79-1.79-.35-4.68-2.64-6.73s-5.06-2.57-7.28-1.28a16.22,16.22,0,0,0-5,4.54c-2,2.55-3.19,4.09-10.32,1.12l-.08-.05L84.07,30.57C79.9,27.42,75.74,24,74.68,19.35a17.27,17.27,0,0,1,.18-6.77,30,30,0,0,0,.45-3.78c.14-4.67-3-7.81-5.35-8a8.88,8.88,0,0,0-7.89,3.45C58.9,8.32,58.18,15.7,60.28,22.62c.3,1,.57,1.88.81,2.76l-.75.21c-.25-.88-.51-1.77-.8-2.74C57.36,15.7,58.13,8,61.45,3.77A9.76,9.76,0,0,1,70,0c3.73.31,6.2,4.89,6.08,8.8a29,29,0,0,1-.46,3.88,16.61,16.61,0,0,0-.19,6.47c1,4.35,5,7.71,9.1,10.78L103.9,44.6c6.53,2.72,7.48,1.51,9.36-.89a16.84,16.84,0,0,1,5.2-4.74C121,37.5,124,38,126.65,40.35c2.92,2.61,3.64,5.81,2.84,7.63-.55,1.25-2.06,2.65-6.1,2.24a10,10,0,0,0-7.65,2.17C111,56.32,110,64.22,109.92,65a16.76,16.76,0,0,0,1.52,4,35.16,35.16,0,0,0,1.86,3c1.34,2,2.74,4.17,3.17,6.52A7.79,7.79,0,0,1,114.86,85c-2.13,2.69-6,4.48-10.07,4.69a51.19,51.19,0,0,1-9-.63,45.61,45.61,0,0,0-9.65-.56c-7.51.66-13.1,5-19,9.57a65.29,65.29,0,0,1-11,7.4,32.67,32.67,0,0,1-14.41,3.16"/><path d="M114.67,117.76c-4.83,0-9.66-2.23-13.3-5-3.92-3-7.3-6.86-10.58-10.61-1.76-2-3.58-4.1-5.46-6-6.61-6.74-13-9.89-19-9.35C57,87.63,50,97.39,45.07,105.8c-3.8,6.43-10,11-15.37,11.47a9.78,9.78,0,0,1-8.54-3.77c-2.29-3-.58-7.87,2.39-10.44a28.81,28.81,0,0,1,3.17-2.28,16.24,16.24,0,0,0,4.9-4.23c2.53-3.67,2.27-8.92,1.8-14L31.15,58.34l.78-.07L34.2,82.49c.49,5.21.74,10.61-1.93,14.51a17.23,17.23,0,0,1-5.12,4.43,29.16,29.16,0,0,0-3.09,2.23c-3.54,3-3.72,7.5-2.29,9.35a8.9,8.9,0,0,0,7.87,3.48c5.15-.41,11.08-4.86,14.76-11.09C49.46,96.83,56.53,86.88,66.31,86c6.21-.56,12.8,2.66,19.58,9.58,1.89,1.94,3.72,4,5.49,6,3.25,3.72,6.61,7.57,10.47,10.51,5.34,4.07,13.37,7,19.87,2.84,5.9-3.73,8.09-11.55,8.86-15.88a45,45,0,0,0-4.14-27.66c-4.3-8.72-10.85-15.17-18.43-18.16a64.9,64.9,0,0,0-12.76-3.09C88.09,49,80.68,47.68,75,42.43a45.88,45.88,0,0,1-6.22-7.62,50.6,50.6,0,0,0-5.51-6.94,14.58,14.58,0,0,0-2.74-2.13l.41-.67a15.76,15.76,0,0,1,2.88,2.24,51.15,51.15,0,0,1,5.6,7.05,45.56,45.56,0,0,0,6.11,7.5C81,47,88,48.15,95.38,49.42a64.85,64.85,0,0,1,12.91,3.14c7.77,3.06,14.46,9.64,18.85,18.53a45.83,45.83,0,0,1,4.21,28.15c-.8,4.45-3.06,12.51-9.21,16.4a13.83,13.83,0,0,1-7.47,2.12"/><path d="M31.17,58.44c-2.42-6.7-4-6.58-7-6.35a17,17,0,0,1-7-.63c-2.78-.87-4.47-3.48-4.51-7-.05-3.92,1.83-6.61,3.7-7.25,1.3-.44,3.35-.27,5.78,3a10,10,0,0,0,6.76,4.18c6.13.86,12.61-3.76,13.24-4.22a16.9,16.9,0,0,0,1.94-3.84c.39-1.1.69-2.28,1-3.42.6-2.38,1.22-4.83,2.66-6.74,3.27-4.32,9-3.67,13.18-1.11l-.41.67c-3.9-2.38-9.17-3-12.14.91-1.35,1.78-1.92,4.06-2.54,6.46-.29,1.16-.59,2.36-1,3.49a18,18,0,0,1-2.07,4.08l0,0-.05,0c-.29.22-7.13,5.35-13.87,4.4a10.76,10.76,0,0,1-7.28-4.48c-1.7-2.28-3.39-3.22-4.89-2.71-1.85.63-3.22,3.42-3.18,6.5S15,50,17.4,50.71a16.12,16.12,0,0,0,6.71.6c3.23-.25,5.18-.4,7.8,6.86Z"/><path d="M47.23,53.36l-1.38-3h0l-1.36,3Zm-6,3L45.56,47a.24.24,0,0,1,.23-.16h.14a.22.22,0,0,1,.23.16l4.27,9.32a.24.24,0,0,1-.23.36H49c-.21,0-.3-.08-.4-.28l-.68-1.49H43.77l-.68,1.49a.42.42,0,0,1-.4.28H41.48a.24.24,0,0,1-.23-.36"/><path d="M56.11,51.39A1.41,1.41,0,0,0,57.48,50a1.37,1.37,0,0,0-1.37-1.35H53.85v2.76ZM52,47.23A.26.26,0,0,1,52.3,47h4a3,3,0,0,1,3,3,3.05,3.05,0,0,1-2.05,2.8l1.9,3.52a.26.26,0,0,1-.23.4H57.44a.24.24,0,0,1-.22-.13l-1.84-3.67H53.84v3.54a.28.28,0,0,1-.26.26H52.3a.26.26,0,0,1-.26-.26Z"/><path d="M62.91,48.63H60.79a.26.26,0,0,1-.26-.26V47.24a.27.27,0,0,1,.26-.27h6.06a.27.27,0,0,1,.26.27v1.13a.26.26,0,0,1-.26.26H64.73v7.78a.28.28,0,0,1-.27.26H63.17a.28.28,0,0,1-.26-.26Z"/><path d="M68.33,55.31l.5-.86a.32.32,0,0,1,.47-.09,4.62,4.62,0,0,0,2.09.85,1.16,1.16,0,0,0,1.26-1.06c0-.71-.6-1.19-1.76-1.66s-2.6-1.36-2.6-3c0-1.23.91-2.66,3.11-2.66a4.81,4.81,0,0,1,2.77.93.35.35,0,0,1,.09.46l-.53.79a.37.37,0,0,1-.49.16,4.66,4.66,0,0,0-1.92-.76,1.11,1.11,0,0,0-1.22,1c0,.65.51,1.1,1.63,1.55,1.35.54,2.9,1.35,2.9,3.13a2.93,2.93,0,0,1-3.19,2.75,4.44,4.44,0,0,1-3-1.08c-.13-.13-.2-.2-.07-.42"/><path d="M46.8,59.61a4.7,4.7,0,0,1,3.36,1.29.25.25,0,0,1,0,.38l-.85.88a.22.22,0,0,1-.34,0,3.3,3.3,0,0,0-2.14-.82,3.22,3.22,0,0,0,0,6.43A3.33,3.33,0,0,0,49,67a.25.25,0,0,1,.34,0l.86.89a.26.26,0,0,1,0,.37,4.76,4.76,0,0,1-3.37,1.34,5,5,0,1,1,0-10"/><path d="M56.57,67.78a3.19,3.19,0,1,0-3.17-3.17,3.19,3.19,0,0,0,3.17,3.17m0-8.17a5,5,0,1,1-5,5,5,5,0,0,1,5-5"/><path d="M63.58,60a.26.26,0,0,1,.26-.26h1.32a.26.26,0,0,1,.26.26v5.67a2,2,0,1,0,4,0V60a.26.26,0,0,1,.26-.26H71a.26.26,0,0,1,.26.26v5.76a3.86,3.86,0,0,1-7.71,0Z"/><path d="M74,59.86a.26.26,0,0,1,.26-.25h.35l5.76,6.12h0V60a.26.26,0,0,1,.26-.26h1.27a.27.27,0,0,1,.27.26v9.32a.27.27,0,0,1-.27.25h-.33l-5.79-6.36h0v6a.27.27,0,0,1-.27.27H74.28a.27.27,0,0,1-.26-.27Z"/><path d="M89.37,59.61a4.66,4.66,0,0,1,3.35,1.29.25.25,0,0,1,0,.38l-.84.88a.23.23,0,0,1-.35,0,3.29,3.29,0,0,0-2.13-.82,3.22,3.22,0,0,0,0,6.43A3.33,3.33,0,0,0,91.54,67a.26.26,0,0,1,.35,0l.86.89a.26.26,0,0,1,0,.37,4.76,4.76,0,0,1-3.36,1.34,5,5,0,1,1,0-10"/><rect x="94.89" y="59.75" width="1.81" height="9.7" rx="0.26"/><path d="M99.58,60a.26.26,0,0,1,.26-.26h1.27a.27.27,0,0,1,.27.26v7.77h3.53a.27.27,0,0,1,.26.27v1.13a.27.27,0,0,1-.26.27H99.84a.27.27,0,0,1-.26-.27Z"/><path d="M43.52,72.59a.23.23,0,0,1,.25-.2H44a.27.27,0,0,1,.24.13l3,6.54h0l3-6.54a.24.24,0,0,1,.24-.13h.22a.23.23,0,0,1,.25.2L52.7,81.9a.24.24,0,0,1-.25.32H51.19a.3.3,0,0,1-.26-.21l-.82-5.25h0l-2.42,5.45a.24.24,0,0,1-.24.15h-.25a.25.25,0,0,1-.23-.15l-2.45-5.45h0L43.63,82a.26.26,0,0,1-.25.21H42.13a.25.25,0,0,1-.26-.32Z"/><path d="M59.67,78.91l-1.39-3h0l-1.35,3Zm-6,3L58,72.54a.26.26,0,0,1,.24-.15h.14a.23.23,0,0,1,.23.15l4.27,9.32a.25.25,0,0,1-.24.36h-1.2a.39.39,0,0,1-.4-.28l-.68-1.49H56.21l-.68,1.49a.42.42,0,0,1-.4.28H53.92a.24.24,0,0,1-.23-.36"/><path d="M64.48,72.79a.27.27,0,0,1,.26-.27H66a.28.28,0,0,1,.27.27v7.77h3.53a.26.26,0,0,1,.26.26V82a.26.26,0,0,1-.26.26H64.74a.26.26,0,0,1-.26-.26Z"/><path d="M72.57,74.19H70.45a.27.27,0,0,1-.27-.27V72.79a.27.27,0,0,1,.27-.27h6a.27.27,0,0,1,.26.27v1.13a.27.27,0,0,1-.26.27H74.38V82a.26.26,0,0,1-.26.26H72.83a.26.26,0,0,1-.26-.26Z"/><path d="M82.75,78.91l-1.39-3h0l-1.36,3Zm-6,3,4.31-9.32a.25.25,0,0,1,.24-.15h.13a.24.24,0,0,1,.24.15L86,81.86a.25.25,0,0,1-.24.36h-1.2a.4.4,0,0,1-.41-.28l-.67-1.49H79.28l-.68,1.49a.41.41,0,0,1-.4.28H77a.25.25,0,0,1-.24-.36"/></svg>