<?xml version="1.0" encoding="utf-8"?>
<!-- Generator: Adobe Illustrator 24.2.0, SVG Export Plug-In . SVG Version: 6.00 Build 0)  -->
<svg version="1.1" id="Layer_1" xmlns="http://www.w3.org/2000/svg" xmlns:xlink="http://www.w3.org/1999/xlink" x="0px" y="0px"
	 viewBox="0 0 438 215.5" style="enable-background:new 0 0 438 215.5;" xml:space="preserve">
<style type="text/css">
	.st0{fill-rule:evenodd;clip-rule:evenodd;}
</style>
<path d="M162.2,204.6l-4.8-27.1l0.2,27.1h-4.5v-50.7h4.5l4.8,27.6l-0.3-27.6h4.5v50.7H162.2z"/>
<path d="M172.6,204.6v-44.1h9.6v3.7h-5.7v16.2h5.7v3.7h-5.7v16.8h5.7v3.7H172.6z"/>
<path d="M204.4,204.6h-3.9l-3.4-21.8l-3.5,21.8h-3.9l-3.7-44.1h3.9l2.4,27.9l3.3-20.5h3l3.3,20.5l2.4-27.9h3.9L204.4,204.6z"/>
<path d="M229.9,182.6v22.1h-4.5v-22.1l-6.2-28.6h4.5l4,20.6l4-20.6h4.5L229.9,182.6z"/>
<path d="M245.1,204.6h-2.4c-3,0-4.7-1.6-4.7-4.4v-35.4c0-2.8,1.7-4.3,4.7-4.3h2.4c3,0,4.7,1.6,4.7,4.3v35.4
	C249.8,203.1,248.1,204.6,245.1,204.6z M245.9,164.2H242v36.7h3.9L245.9,164.2z"/>
<path d="M263.2,204.6l-3.4-20.5h-0.9v20.5H255v-44.1h7.1c3,0,4.7,1.6,4.7,4.3v14.9c0.1,2.2-1.4,4.1-3.6,4.3l3.9,20.6L263.2,204.6z
	 M262.9,164.2h-3.9v16.2h3.9V164.2z"/>
<path d="M280,204.6l-4.9-21v21h-3.9v-44.1h3.9v21l4.4-21h3.9l-4.4,21.8l4.9,22.3H280z"/>
<path class="st0" d="M120.7,0.3c0,0-8.9,0.2-9.7,0.3h-3.1c-1.1-0.1-2.2,0-3.3,0.1c-0.9,0.2-2-0.1-2.8,0.1s-2-0.1-2.8,0.1h-2.9
	c-0.8,0.2-1.9-0.1-2.8,0.1C92.6,1,91.9,1,91.1,1c-1.2-0.1-2.4,0-3.5,0.1c-0.9,0.2-2-0.1-2.8,0.1L77,1.3l-5.2,0.3h-2.3
	c-0.7,0.2-1.5-0.1-2.4,0.1c-0.8,0.1-1.6,0.1-2.3,0.1c-1.6,0.2-3.6,0-5.2,0.3c-0.5,0.1-1.5-0.1-2,0c-1.8,0.3-4.1-0.1-5.8,0.3
	c-1,0.2-2.2-0.1-3.2,0.1s-2.2-0.1-3.2,0.1l-4.8,0.1c-0.5,0.1-1,0.1-1.5,0.1c-1.6,0-3.2,0.1-4.7,0.3h-1.6c-0.6,0.1-1.2,0.1-1.8,0
	c-0.5,0-1.1,0.2-1.5,0.2H28c-1,0.2-2.2-0.1-3.2,0.1c-0.4,0-0.9,0-1.3,0c-0.7,0-1.3,0-1.9,0.1c-0.8,0-1,0-1.7,0.1
	c-0.8,0-1.8,0.1-2.4,0.1c0,0.7-0.1,1.4-0.2,2.1v1.4C17.1,8,17.2,9.1,17,9.8c-0.1,0.4,0.1,1,0,1.5c-0.3,1.3-0.1,2.8-0.4,4.1
	c0,0.6,0,1.1-0.1,1.7c-0.4,2-0.1,4.5-0.6,6.5c-0.2,2.2-0.3,4.4-0.5,6.6c-0.7,3.3-0.6,7-1.4,10.4c-0.3,1.2-0.2,2.5-0.5,3.6
	c0,0.3-0.1,0.7-0.1,1.1c-0.3,1.5-0.2,3.1-0.6,4.7c-0.2,0.9-0.2,1.9-0.4,2.9c-0.8,3.5-0.8,7.5-1.6,11c-0.3,1.3-0.2,2.7-0.5,3.9
	s-0.1,2.7-0.5,4C9.2,75,9.3,78.7,8.6,81.9c-0.3,1.2-0.2,2.5-0.5,3.6c0,0.3,0,0.7-0.1,1.1c-0.3,1.1-0.3,2.5-0.5,3.6
	c-0.1,0.5,0,1.1-0.2,1.5c0,0.1,0,0.2,0.1,0.3c9.6,0,19.2-0.1,28.7-0.1h8.2c0.8,0.1,1.7,0.1,2.5,0.1c1.4,0.1,2.7,0,4.1-0.1
	c-0.2,1.2-0.6,2.3-1.1,3.4c-0.1,0.5-0.3,0.9-0.4,1.4c-0.4,1-0.7,2-1.1,3c-2,5.9-3.9,11.6-6.2,17.1c-0.6,1.4-0.7,2.8-1.2,4.2
	c-1,2.8-1.7,5.7-2.7,8.5c0,0.2,0,0.4-0.1,0.6c-0.2,0.8-0.5,1.8-0.7,2.7c-0.4,1.4-0.6,3-1,4.4c-0.1,0.4-0.1,0.8-0.2,1.2
	s-0.4,0.7-0.5,1c-0.8,1.8-1.5,3.5-2.3,5.2c-3,6.9-5.9,13.6-8.8,20.5c-0.7,1.8-1,3.6-1.7,5.3c-0.6,1.6-1,3.3-1.7,4.9
	c-1.3,3.2-2.2,6.7-3.3,10c-0.6,1.9-0.8,4-1.3,6.1c-0.2,0.8,0,1.9-0.4,2.5c0.6,0.8,1.3,1.4,2.1,1.9c0,0.2,0,0.3,0.1,0.5v0.7l-1,0.3
	c-1.1,0.5-2.3,0.8-3.5,1.3c-4.6,1.9-9.5,4-14,5.9v4.6h9.3l17.2-0.5c0.3-0.1,0.2-0.6,0.3-0.9c0.2-0.5,0.5-1.3,0.7-1.9
	c0.1-0.4,0.1-0.7,0.2-1.1c1.1-3.1,1.9-7.3,3-10.5c0.3-0.8,0.3-1.6,0.6-2.4c1.2-3.3,1.9-7,3.1-10.4c0.4-1.1,0.6-2.2,0.9-3.2
	c0-0.3,0.1-0.5,0.1-0.8c0.2-0.4,0.5-0.8,0.8-1.2c0.6-0.9,1.1-1.8,1.7-2.7c1.8-2.9,3.7-5.7,5.4-8.6c1-1.7,2.2-3.3,3.2-4.9
	c1.5-2.3,2.8-4.6,4.3-6.9c0.6-1,1.3-2,2-3c0.2-0.3,0.2-0.6,0.4-0.9c0.3-0.4,0.5-0.8,0.7-1.2h0.2c0.1,0.8,0.2,1.7,0.5,2.5
	c0.2,0.8,0.2,1.6,0.4,2.3s0.1,1.1,0.2,1.7c0.4,1.3,0.5,3,0.9,4.4c0.1,0.5,0.1,1.1,0.2,1.6c0.4,1.7,0.6,3.6,1,5.3
	c0.2,0.9,0.1,1.8,0.4,2.7c0.3,0.7,0.7,1.4,1.1,2c0.9,1.4,1.8,2.8,2.7,4.1c2.5,3.8,4.8,7.6,7.3,11.4c1.7,2.5,3.3,5.1,5,7.7
	c0.5,0.7,1,1.5,1.5,2.3c0.3,0.4,0.6,0.8,0.8,1.2c0.8,0,1.6,0.1,2.4,0.3c1.2,0.3,2.4,0.2,3.4,0.5c-0.1,0.9-1.9,2.4-2.4,3.2
	c-1.6,2.1-3.3,4.1-5,6.1c-0.6,0.7-1.4,1.7-1.9,2.4c-0.2,0.4-0.5,0.8-0.8,1.1c0,0.8,0.2,1.6,0.5,2.4c0.1,0.7,0.3,1.5,0.5,2.2
	c0.8-0.2,1.5-0.6,2.1-1.1c1.6-0.9,3-1.9,4.4-2.9c3.7-2.5,7.2-5,10.8-7.6c1.4-1,2.7-2.3,4.1-3.3c0.6-0.6,1.2-1.1,1.9-1.5
	c0-1.1-0.8-1.7-1.2-2.4c-1.2-1.8-2.1-3.7-3.2-5.4c-0.4-0.6-0.5-1.3-0.9-1.9c-0.8-1.2-1.5-2.6-2.3-3.9c-0.9-1.4-2.1-2.7-3-4.1
	s-1.8-2.6-2.7-3.9c-1.4-1.9-2.7-3.7-4.1-5.6c-0.2-0.3-0.6-0.6-0.8-0.9s-0.2-0.6-0.5-0.9s-0.6-0.5-0.7-0.8c0-0.5-0.1-1.1-0.1-1.6
	c-0.3-1.3-0.3-2.9-0.6-4.2l-0.1-1.1c-0.5-2.1-0.7-4.5-1.2-6.6l-0.2-1.9c-0.8-2.9-1.2-5.8-2-8.8c-0.6-2-0.8-4.3-1.5-6.4
	c-0.4-0.9-0.6-1.8-0.7-2.7c0.2-0.9,0.2-2.1,0.4-3v-0.7c0.2-0.9,0.2-2,0.4-2.9v-0.9c0.7-3,0.5-6.3,1.1-9.3l0.1-1.5
	c0.3-1.2,0.1-2.8,0.4-4c0-0.6,0-1.2,0.1-1.7c0.3-1.5,0.1-3.3,0.5-4.8c0-0.6,0-1.2,0.1-1.7c0.5-2.1,0.1-4.4,0.6-6.5
	c0-0.5,0-1.1,0.1-1.6s0.1-1.6,0.3-2.4v-0.8c0.2-0.8,0.2-1.6,0.1-2.4l0.1-0.1c1,0,1.8-0.1,2.8-0.1c2.9,0,5.9,0,8.9,0h4.4
	c0.8,0,1.5,0,2.3-0.1l24.8,0.1c0.4-2.2,0.6-4.6,1.1-6.7c0-0.7,0.1-1.3,0.1-2c0.4-2,0.4-4.3,0.9-6.4c0-0.5,0.1-1.1,0.1-1.6
	c0.2-1.6,0.4-3.1,0.7-4.7c0.1-0.7,0.1-1.4,0.2-2.1c0.6-2.5,0.5-5.4,1.1-7.9c0.2-0.9,0-1.6,0.2-2.5c0.5-2.2,0.4-4.8,1-7
	c0.2-0.8,0.1-1.7,0.3-2.4v-0.9c0.2-0.8,0.2-1.8,0.4-2.6v-0.9c0.4-1.8,0.2-4.2,0.8-5.8v-1c0.2-0.8,0.2-1.8,0.4-2.6v-0.9
	c0.2-0.7,0.1-1.5,0.3-2.3c0.3-1.3,0.3-2.6,0.6-4c0.8-3.5,1-7.4,1.8-10.9c0-0.3,0-0.6,0.1-0.9c0.3-1.4,0.3-2.8,0.7-4.2
	c0.5-2.1,0.5-4.5,1.1-6.7c0.2-0.8-0.2-3.6,0-4.4L120.7,0.3L120.7,0.3z M113.2,17.8c-0.2,0.9-0.1,1.8-0.3,2.6c-0.3,1.3-0.2,2.8-0.5,4
	l-0.3,3.2c-0.7,3.1-0.7,6.5-1.5,9.6c-0.4,1.6-0.2,3.2-0.6,4.8c-0.4,1.4-0.3,3-0.7,4.6c-1,4.2-0.9,9-2,13.2c-0.2,0.9-0.1,1.6-0.3,2.5
	c-0.5,2.1-0.6,4.4-1.1,6.4l-0.3,2c-0.3,1.2-0.3,2.4-0.6,3.7c-0.2,0.9-0.4,1.8-0.5,2.7l-30.2,0.2V73c0.1-0.3,0.3-0.5,0.5-0.7
	c0.4-0.7,0.8-1.5,1.2-2.2s0.6-1.3,1-2c1.1-1.8,2.2-3.8,3.3-5.6c1-1.7,1.7-3.5,2.7-5.2s2-3.8,2.8-5.9c0.6-1.5,1.1-3.1,1.7-4.8
	c0.2-0.9,0.4-1.7,0.5-2.6c0.1-0.8,0.1-1.6-0.1-2.4c0-0.9-0.2-1.8-0.5-2.6c-0.4-1.2-1-2.3-1.9-3.2c-0.6-0.9-1.3-1.7-2-2.4
	c-0.5-0.5-1.1-0.9-1.7-1.3c-1.4-0.9-2.9-1.6-4.5-2.2c-0.8-0.2-1.5-0.4-2.3-0.6c-2-0.3-4-0.3-6-0.1c-0.3,0-0.8,0.2-1,0.2
	c-0.6,0.1-1.1,0.3-1.6,0.5c-1.2,0.5-2.4,1.1-3.5,1.8c0.1,0.5,0.4,0.9,0.9,1.1c-0.1,0.3-0.3,0.6-0.5,0.9c-0.3,0.4-0.5,0.8-0.7,1.3
	c-0.7,2-1.6,4-2.6,5.8c-1,1.4-2.2,2.7-3.7,3.7c-0.4,0.3-0.7,0.7-1.1,1l-1.1,0.8c-1.2,0.8-1.5,1.2-2.7,2c-0.7,0.5-1.8,0.9-1.8,2.1
	c0.3,0.3,0.4,0.7,0.7,0.9c1.7,1.2,3.3,2.5,4.9,3.8c-0.2,0.9-0.8,1.7-1.6,2.1c0,0.5-0.1,1.5,0.1,1.8c0.6,0.5,1.3,0.8,2,0.8
	c0.4,0.1,0.7,0.1,1.1,0.1v1.3l-2.4,2.3c0,0.3,0,0.6-0.1,0.9c0.3,0.4,0.8,0.7,1.3,0.8v2.3c-0.2,0.1-0.5,0.2-0.6,0.4
	c0,0-0.1,0.2-0.2,0.2v2.4c0.2,0.1,0.4,0.3,0.6,0.4l0.5,0.3c0.3,0.2,0.6,0.4,0.9,0.6s0.7,0.4,1.1,0.6s0.8,0.5,1.2,0.7v1.9
	c-0.1,0.3-0.2,0.4-0.3,0.7s-0.4,0.8-0.6,1.3s-0.4,0.8-0.5,1.2c-0.4,0-1,0-1.5,0H45.3l-24-0.1c0-0.5,0.1-1,0.2-1.4
	c0.3-1.1,0.2-2.3,0.5-3.3l0.1-1.1c0.4-1.8,0.4-3.9,0.9-5.7c0.3-1.2,0.1-2.3,0.4-3.5c0.7-2.9,0.6-6.1,1.3-9v-0.5
	c0.4-1.5,0.3-3.1,0.7-4.7c0.2-1,0.2-2.2,0.5-3.3c0.8-3.4,0.8-7.2,1.6-10.6c0.3-1.4,0.2-2.8,0.5-4.2c0.5-2.1,0.5-4.4,1-6.5
	c0-0.5,0.1-1,0.1-1.5c0.3-1.2,0.2-2.5,0.5-3.7c0.3-1.1,0.4-2.2,0.4-3.3l0.1-0.1c1.5,0.1,3,0,4.4-0.2c1.1-0.2,2.2,0.1,3.2-0.1
	s2.3,0.1,3.3-0.1h1.7c1.5-0.3,3.4,0.1,4.9-0.3h1.6c0.5-0.1,1.2,0.1,1.7-0.1c0.5-0.1,1-0.1,1.5-0.1c1.2-0.1,2.2-0.1,3.4-0.2
	c0.7,0,1.3-0.1,2.2-0.1h18c12.8,0,24.8-0.1,37.5-0.1C113.5,15.8,113.4,16.8,113.2,17.8z"/>
<path d="M162.5,39.5h-4.6v30.2h-5.8v-65h10.4c4.4,0,7,2.3,7,6.4V33C169.5,37.1,167,39.5,162.5,39.5z M163.7,10.1h-5.8V34h5.8V10.1z"
	/>
<path d="M184.7,69.8h-3.1c-3.9,0-6.1-2-6.1-5.7v-46c0-3.6,2.2-5.6,6.1-5.6h3.1c3.9,0,6.1,2,6.1,5.6v46
	C190.8,67.7,188.6,69.8,184.7,69.8z M185.7,17.2h-5.1v47.7h5.1V17.2z"/>
<path d="M197.5,69.8V12.4h5.1v52.5h7.4v4.8H197.5z"/>
<path d="M215.6,69.8V12.4h5.1v57.3H215.6z"/>
<path d="M235.4,69.8h-3.1c-3.9,0-6.1-2-6.1-5.7v-7.9h5.1v8.8h5.1V50.7c0-1.6-0.4-3.3-1.3-4.7l-7.4-12.3l-0.3-0.3
	c-0.9-1.4-1.3-3-1.3-4.7V18c0-3.6,2.2-5.6,6.1-5.6h3.1c3.9,0,6.1,2,6.1,5.6v5.7h-5.1v-6.6h-5.1v10.2c0,1.6,0.4,3.2,1.3,4.6l0.2,0.3
	l7.1,12l0.3,0.3c0.9,1.4,1.3,3,1.3,4.6v14.8C241.6,67.9,239.4,69.8,235.4,69.8z"/>
<path d="M257.2,69.8V43.1h-5.1v26.7h-5.1V12.4h5.1v25.8h5.1V12.4h5.1v57.3H257.2z"/>
<path d="M290.5,69.8H287c-4.4,0-7-2.3-7-6.5V11.1c0-4.1,2.5-6.4,7-6.4h3.5c4.5,0,7,2.3,7,6.4v6.5h-5.8v-7.4h-5.8v54.1h5.8v-9.9h5.8
	v9C297.4,67.4,294.9,69.8,290.5,69.8z"/>
<path d="M313.4,69.8h-3c-3.9,0-6.2-2-6.2-5.7V12.4h5.1v52.5h5.1V12.4h5.1v51.6C319.5,67.7,317.3,69.8,313.4,69.8z"/>
<path d="M326.5,69.8V12.4h5.1v52.5h7.4v4.8H326.5z"/>
<path d="M349.5,17.2v52.6h-5.1V17.2h-4.8v-4.8h14.7v4.8H349.5z"/>
<path d="M368.6,69.8h-3c-3.9,0-6.2-2-6.2-5.7V12.4h5.1v52.5h5.1V12.4h5.1v51.6C374.8,67.7,372.6,69.8,368.6,69.8z"/>
<path d="M392.4,69.8l-4.4-26.7h-1.2v26.7h-5.1V12.4h9.2c3.9,0,6.1,2,6.1,5.6v19.3c0.2,2.8-1.9,5.3-4.7,5.6l5.1,26.7L392.4,69.8z
	 M392,17.2h-5.1v21.1h5.1V17.2z"/>
<path d="M415,69.8l-1.4-13.6h-6.1l-1.5,13.6h-5.1l7.2-57.3h5.1l7.1,57.3H415z M410.5,28.9l-2.5,22.4h5.1L410.5,28.9z"/>
<path d="M425.5,69.8V12.4h5.1v52.5h7.4v4.8H425.5z"/>
<path d="M152.3,143.5v-65h5.8v65H152.3z"/>
<path d="M176,143.5l-5.4-30.7l0.3,30.7h-5.1V86.1h5.1l5.4,31.2L176,86.1h5.1v57.3H176z"/>
<path d="M195.8,143.5h-3.1c-3.9,0-6.1-2-6.1-5.7v-7.9h5.1v8.8h5.1v-14.2c0-1.7-0.4-3.3-1.3-4.7l-7.4-12.3l-0.3-0.3
	c-0.9-1.4-1.3-3-1.3-4.7V91.8c0-3.6,2.2-5.6,6.1-5.6h3.1c3.9,0,6.1,2,6.1,5.6v5.7h-5.1v-6.6h-5.1v10.2c-0.1,1.6,0.4,3.2,1.3,4.6
	l0.2,0.3l7.2,12l0.3,0.3c0.9,1.4,1.3,3,1.3,4.6v14.7C201.9,141.6,199.7,143.5,195.8,143.5z"/>
<path d="M215.4,90.9v52.6h-5.1V90.9h-4.8v-4.8h14.7v4.8L215.4,90.9z"/>
<path d="M225.5,143.5V86.1h5.1v57.3H225.5z"/>
<path d="M245.8,90.9v52.6h-5.1V90.9h-4.8v-4.8h14.7v4.8L245.8,90.9z"/>
<path d="M264.9,143.5h-3c-3.9,0-6.2-2-6.2-5.7V86.1h5.1v52.5h5.2V86.1h5.1v51.6C271.1,141.4,268.9,143.5,264.9,143.5z"/>
<path d="M286.1,90.9v52.6H281V90.9h-4.8v-4.8H291v4.8L286.1,90.9z"/>
<path d="M296.1,143.5V86.1h12.5v4.8h-7.4v21h7.4v4.9h-7.4v21.8h7.4v4.9L296.1,143.5z"/>
</svg>
