<svg id="Layer_1" data-name="Layer 1" xmlns="http://www.w3.org/2000/svg" viewBox="0 0 393.04 150.02"><defs><style>.cls-1{fill:#fff;}</style></defs><rect class="cls-1" width="393.04" height="150.02"/><path d="M101,108.57a20,20,0,1,1,40.09,0Z"/><path d="M154.71,55.45V95.78a19.63,19.63,0,0,1-16-8.14,20.33,20.33,0,0,1-.74-23.17C141.62,58.77,149.75,54.39,154.71,55.45Z"/><path d="M140.55,41.65c-.32,7.6-3.47,13.57-10,17.36-7.1,4.11-14.37,3.88-21.23-.62-5.91-3.89-8.73-9.63-9-16.74Z"/><path d="M88.35,54.91c9.55-.29,19.63,7.62,20,19.6.35,11.34-8.83,20.91-20,20.76Z"/><path d="M220.27,57.09l1.23.09.07.61h-6V57.2l1.32-.14V45.34l-.28-.07-6.1,13.09a4,4,0,0,1-.77-.79c-1.88-3.71-3.73-7.42-5.59-11.14a3.36,3.36,0,0,0-.63-.92A61.56,61.56,0,0,0,203.44,57l1.66.17.06.58H200.5l-.06-.57,1.48-.17a2.22,2.22,0,0,0,.15-.59c.13-3.85.26-7.7.35-11.56.05-1.82-.5-2.43-2.34-2.77v-.61h4.38l6.69,13.07c.67-1.43,1.22-2.62,1.78-3.8,1.36-2.89,2.71-5.78,4.12-8.65a1.4,1.4,0,0,1,1-.64c.95-.08,1.9,0,2.92,0l.12.69-1.15.17C219.12,43.58,219.39,56,220.27,57.09Z"/><path d="M256.05,67.47h-1.7V66.8c.06,0,.11-.07.16-.07,2.81,0,5.63-.15,8.43,0a4.13,4.13,0,0,1,3.95,3,4.25,4.25,0,0,1-2,4.92c-.47.27-1,.49-1.59.79a22.06,22.06,0,0,0,1.47,2.16A35.57,35.57,0,0,0,267.93,81a15.62,15.62,0,0,0,2.59,1.56l.21-.22,0,.69c-1.54,0-3,0-4.47,0a1.5,1.5,0,0,1-.9-.64c-1.64-2.13-3.26-4.29-4.88-6.44l.2-.22-2-.22c.11,2.32-.18,4.56.36,6.82h2.35l0,.7h-6.83l-.07-.67,1.77-.08C256.15,77.33,256.42,72.44,256.05,67.47Zm2.73,7.1c1.32.47,3.83.11,4.59-.7a3.52,3.52,0,0,0,.92-1.5c.77-3-2.27-5.69-5.51-4.76Z"/><path d="M172.69,50.21a7.78,7.78,0,0,0,.72,1.2c1.29,1.52,2.56,3.06,4,4.47a9.86,9.86,0,0,0,2.25,1.21,4.37,4.37,0,0,1,.59.45l-.13.28c-1.52,0-3.05,0-4.57,0-.25,0-.55-.34-.74-.58-1.66-2.16-3.3-4.34-4.94-6.51l.19-.22-1.95-.13c.07,2.3-.21,4.5.37,6.76h2.29v.68h-6.86v-.61l1.73-.11c-.1-4.93.17-9.79-.19-14.7l-1.69-.09,0-.61c.1-.05.15-.1.2-.1,2.89,0,5.79-.14,8.67,0a4,4,0,0,1,3.71,2.92,4.26,4.26,0,0,1-2,4.87C173.8,49.7,173.27,49.93,172.69,50.21Zm-4.56-.7a6.6,6.6,0,0,0,4.24-.58,3.19,3.19,0,0,0,1.2-1.47,3.41,3.41,0,0,0-.85-3.84,5.61,5.61,0,0,0-4.59-1.31Z"/><path d="M189.41,58.09c-1-.14-2.06-.21-3.07-.45a5.93,5.93,0,0,1-4.64-4.57,11.08,11.08,0,0,1,0-6c1.19-4.23,5-5.91,8.76-5.76a14.82,14.82,0,0,1,2.11.25,6.21,6.21,0,0,1,5,4.24,10.4,10.4,0,0,1-.15,7.45C196.1,56.46,193.35,58.06,189.41,58.09Zm6.2-8.16-.24-.06a8.13,8.13,0,0,0-1.77-5.66c-2.53-3.09-7.48-2.58-8.84,1a11.49,11.49,0,0,0,.3,9.09,5.1,5.1,0,0,0,5,3,4.46,4.46,0,0,0,4.47-3A35.72,35.72,0,0,0,195.61,49.93Z"/><path d="M187.92,93.4H186l-.15-.7h5.81v.67h-2.15v16l-.33.19a4.72,4.72,0,0,1-.83-.62q-5.1-6.21-10.19-12.44a2.82,2.82,0,0,0-.78-.69c-.1,4.13-.81,8.24-.11,12.43h1.9l.06.73h-5.1l-.07-.69H176c0-1.07,0-2.07,0-3.07.11-3.16.27-6.33.38-9.5,0-1.63-.51-2.24-2-2.29-.17,0-.33,0-.55,0l-.08-.65h4.49l10,12,.32-.13C188.31,100.9,189,97.15,187.92,93.4Z"/><path d="M286.21,42.16l.1-.66h4.34l10.12,12.23c.64-2.18.2-10.3-.58-11.43l-1.69-.1v-.69h5.63l0,.68-2.18.12V58.24l-.32.16a4.25,4.25,0,0,1-.85-.65q-5-6.09-10-12.19a4.29,4.29,0,0,0-.95-.88c-.13,4.1-.77,8.19-.15,12.37l1.92.14.08.59h-5.09l-.11-.59,1.89-.11c0-1,0-2,0-3,.11-3,.26-6,.36-9C288.86,42.71,288.64,42.48,286.21,42.16Z"/><path d="M256.2,58.41a4.84,4.84,0,0,1-.78-.64q-5.17-6.27-10.31-12.56a2.09,2.09,0,0,0-.67-.54c-.11,4.12-.77,8.22-.1,12.38l1.92.14,0,.6h-5.08l-.06-.59,1.81-.14c0-.39,0-.71,0-1,.15-3.74.27-7.49.45-11.23.09-1.78-.42-2.36-2.51-2.63a1.15,1.15,0,0,1-.06-.28,1.8,1.8,0,0,1,0-.37h4.35l10,12.09.35-.11c-.2-3.72.45-7.47-.62-11.2l-1.92-.1-.05-.68h5.71l.12.72h-2.27v16Z"/><path d="M267.24,93.39h-1.87l-.05-.71h5.32v.67l-1.77.07c0,1.23,0,2.42,0,3.62,0,2.4,0,4.82-.18,7.21a5,5,0,0,1-5.22,4.76,19.39,19.39,0,0,1-4.31-.31c-2.85-.56-3.94-1.93-4-4.84-.07-2.49,0-5-.07-7.47,0-1-.14-1.93-.23-3l-1.76-.1-.09-.66h6.47v.66l-1.63.08a4.42,4.42,0,0,0-.1.66c0,3,0,6,0,9-.07,4.23,2.94,5.2,5.86,5a4.15,4.15,0,0,0,4.17-4.4c.09-3-.07-5.9-.15-8.85A6.27,6.27,0,0,0,267.24,93.39Z"/><path d="M196,67.44h-1.84l-.08-.7h5.41v.66l-1.84.08c0,1.49,0,3,0,4.42a58.53,58.53,0,0,1-.19,6.63,4.91,4.91,0,0,1-5.15,4.53,22.51,22.51,0,0,1-5.18-.54A3.72,3.72,0,0,1,184,78.74c-.12-2.92-.11-5.85-.19-8.77,0-.81-.15-1.61-.23-2.47l-1.74-.1-.1-.65h6.43l0,.65-1.58.07a2.87,2.87,0,0,0-.16.69c0,3.33,0,6.67.1,10a3.52,3.52,0,0,0,2.79,3.53,9.5,9.5,0,0,0,3.79.2,3.7,3.7,0,0,0,3.26-3.7c.1-3.26-.06-6.54-.14-9.81A3.67,3.67,0,0,0,196,67.44Z"/><path d="M235.81,67.44h-1.63l-.11-.69h6.41l0,.65-1.58.08a12.26,12.26,0,0,0-.14,1.3c0,2.9.06,5.8,0,8.7,0,3.13,2,4.49,4.91,4.61,3.08.13,4.92-1.37,5.11-4.67.16-3-.12-6-.23-8.92a4.56,4.56,0,0,0-.32-1h-1.82l-.11-.71h5.43l-.07.65-1.81.09c0,2.56,0,5.06,0,7.57a22.46,22.46,0,0,1-.2,3.67A4.91,4.91,0,0,1,245.21,83a13.21,13.21,0,0,1-5.92-.47,4,4,0,0,1-3-3.92c-.11-3.06-.11-6.13-.19-9.19A19.84,19.84,0,0,0,235.81,67.44Z"/><path d="M295.67,99.7h5.6l.34-1.74h.63v5l-.7-.07c-.08-.75-.16-1.44-.24-2.19h-5.56c-.42,1.46-.16,6.69.36,7.48,1.85.34,5-.19,8.45-1.45l-1.29,2.23H291l0-.69h2.25c-.21-5,.07-9.89-.28-14.82L291,93.35l-.07-.69h12.65c-.22.71-.43,1.37-.64,2.06a12.94,12.94,0,0,0-7.27-1.22Z"/><path d="M275.23,82.28h2.33l0,.72h-5.19l-.08-.65,1.25-.11L280.59,66l1.86-.34.18.14c-1.13,1.2-.42,2.35,0,3.46,1.48,3.9,3,7.79,4.5,11.68a9.83,9.83,0,0,0,.73,1.26l1,.11.06.64H283l-.06-.64,1.85-.1L283,77.13h-6.22C276.28,78.78,275.79,80.42,275.23,82.28Zm5.08-12.66-.29,0c-.92,2.18-1.83,4.35-2.77,6.61h5.29C281.78,74,281,71.79,280.31,69.62Z"/><path d="M179.22,67.53l-.55,3.41a10,10,0,0,0-1.41-2,6.38,6.38,0,0,0-9.84,2.19,8.85,8.85,0,0,0,0,7.7c1.26,2.82,4.23,4,7.53,3.23,1.84-.45,3.29-1.32,3.62-3.44l.25,0,.89,2.32a10.17,10.17,0,0,1-1.4,1,13.1,13.1,0,0,1-9.81.75,6.41,6.41,0,0,1-4.63-6c-.62-6.86,4.87-10.62,10.81-10.2A11.25,11.25,0,0,1,179.22,67.53Z"/><path d="M228.29,57.8H223v-.66c1.11.22,1.43-.52,1.77-1.32q3.13-7.26,6.31-14.49c.06-.15.15-.29.26-.5l2-.33-.76,1.26a14.06,14.06,0,0,0,.36,1.42c1.44,3.88,2.91,7.77,4.38,11.65a11.56,11.56,0,0,0,.55,1.19c.52,1,.56,1,1.7,1.18l0,.59h-6v-.6l1.79-.12c-.64-1.79-1.24-3.47-1.83-5.14h-6.18c-.5,1.64-1,3.31-1.55,5.14l2.26.1ZM233.21,51,231,44.43h-.29L227.9,51Z"/><path d="M278.68,40.64c-1.17,1.35-.29,2.57.15,3.77,1.34,3.66,2.76,7.3,4.17,10.94a16.22,16.22,0,0,0,.91,1.7l1.1.15.05.58h-5.91l-.07-.59,1.81-.12c-.65-1.8-1.24-3.47-1.84-5.14h-6.17l-1.56,5.13,2.27.12,0,.61h-5.23l0-.51c.09-.06.14-.11.18-.11.92.1,1.28-.47,1.6-1.21,2.1-4.89,4.24-9.77,6.37-14.65.06-.15.15-.28.25-.47l1.73-.32ZM273.32,51h5.32c-.78-2.26-1.52-4.45-2.27-6.64h-.27Z"/><path d="M195.56,104.5a11.66,11.66,0,0,0,.58,1.86c1,2,4.4,2.48,6,1a2.74,2.74,0,0,0-.35-4.32,12.85,12.85,0,0,0-1.92-.88c-.78-.33-1.6-.59-2.33-1a4.31,4.31,0,0,1-2.47-4.81A4.74,4.74,0,0,1,199,92.53a6.78,6.78,0,0,1,5.53,1.11l.15,2.85-.76,0c-.07-.2-.15-.37-.2-.54A4,4,0,0,0,198,94a2.6,2.6,0,0,0,.26,4.34c1,.52,2.05.89,3.07,1.36a20.14,20.14,0,0,1,2,1,4.17,4.17,0,0,1,2,4.78,4.28,4.28,0,0,1-3.45,3.45,9.73,9.73,0,0,1-7-1V104.5Z"/><path d="M241.74,93.57c-2.39,0-4.55,0-6.37,1.56l-.17-.28.72-2.23h15L250.4,95c-1.74-1.68-3.81-1.14-6-1.47.09,5-.46,9.81.16,14.71h2.22l.05.71h-7l-.16-.68h2.17C241.62,103.31,242.22,98.47,241.74,93.57Z"/><path d="M223.06,67.54a27.84,27.84,0,0,0-3.53.32,21.77,21.77,0,0,0-3.05,1.2l.76-2.38h15l-.61,2.37c-1.72-1.74-3.81-1.1-5.9-1.5-.05,5-.26,9.83.1,14.74h2.3l0,.71h-6.92l-.13-.69h2.09C223,77.39,223.57,72.55,223.06,67.54Z"/><path d="M223.49,92.62,223,95c-1.75-1.64-3.84-1.14-6-1.43.06,5-.46,9.78.15,14.69h2.26v.72h-7l-.1-.66,2.12-.1c-.18-4.89.21-9.7-.09-14.6-2.37,0-4.55-.1-6.4,1.54l-.18-.27.7-2.23Z"/><path d="M279.37,93.56c-2.4,0-4.58-.08-6.39,1.56l-.19-.27.7-2.23h15L288,95c-1.76-1.75-3.85-1.12-5.94-1.49,0,5-.46,9.8.14,14.7h2.26v.73h-7l-.1-.66,2.12-.1C279.26,103.3,279.71,98.48,279.37,93.56Z"/><path d="M304.69,81.05l-1,2h-12.4l-.15-.69h2c-.19-5,.21-9.89-.1-14.81l-1.59-.1-.08-.66h7.06v.72H295.8c.1,5-.47,9.87.1,14.85,3.11,0,6,.29,8.62-1.51Z"/><path d="M207.17,82.31c2.84,0,5.71.24,8.26-1.48l.17.21-1,1.95H202.14l0-.69H204c-.36-5,.35-9.88-.18-14.81l-1.53-.09-.08-.66h7.1l0,.72H206.9C206.36,69.92,206.54,81.39,207.17,82.31Z"/><path d="M231.2,108.24h1.53v.69H226.5l-.13-.64,1.71-.11c-.05-4.92.1-9.81-.09-14.73l-1.73-.12v-.66h6.27v.67l-1.64.08C230.53,95.26,230.75,107.39,231.2,108.24Z"/><path d="M170.32,92.69v.65l-1.78.08c.13,4.91-.25,9.8.14,14.74l1.82.12v.66h-6.25l-.09-.66,1.55-.09c.36-1.45.16-13.93-.25-14.77l-1.4-.07-.1-.66Z"/><path d="M260.43,42.18l.08-.67h6.23l.15.68L265,42.3c.11,4.93-.18,9.81.19,14.75l1.86.14,0,.6h-6.3l-.05-.59,1.67-.14c-.06-4.93.08-9.8-.13-14.73Z"/></svg>