<svg id="Layer_1" data-name="Layer 1" xmlns="http://www.w3.org/2000/svg" viewBox="0 0 375.35 119.65"><path d="M0,24.68c3.58.61,7.33.73,10.71,1.91C24.24,31.34,32.29,41,34.42,55.16a34.74,34.74,0,0,1-26,38.77A73.89,73.89,0,0,1,0,95Z"/><path d="M115.17,95.89c-12.51-.53-22.51-5.63-29.08-16.22-7.74-12.48-7.75-25.42,0-37.89,6.57-10.6,16.57-15.69,29.08-16.22Z"/><path d="M91.73,118H22c.52-12.69,5.63-22.86,16.41-29.54,12.16-7.53,24.79-7.52,36.94,0C86.07,95.15,91.17,105.29,91.73,118Z"/><path d="M20.89,1.94H90.57C90.32,13,86.08,22.1,77.61,29.1A34.23,34.23,0,0,1,39.87,33C27.66,26.38,21.6,15.89,20.89,1.94Z"/><path d="M173.48,111.29c.16-.18.27-.25.27-.31-.06-5.4,0-10.81-.26-16.2-.16-3.06-.44-3-3.4-3.21-.18,0-.36-.07-1.06-.2.6-.5.92-1,1.25-1q4.13-.09,8.25,0c.32,0,.62.53.93.81l-.26.4h-1.54c-2,0-2,0-2,2.08l-.09,18.94c0,2.26,0,4.52,0,6.79l-.56.26a8.54,8.54,0,0,1-1.47-1.18q-8.53-10.38-17-20.8c-.53-.65-1.09-1.28-1.91-2.24a12.65,12.65,0,0,0-.27,1.62c-.19,4.64-.39,9.28-.51,13.93,0,1.51.12,3,.23,4.54.11,1.33.69,2.09,2.2,1.9.68-.09,1.77-.33,1.38,1.26-2.7,0-5.39,0-8.09,0-.24,0-.47-.41-.71-.63.27-.21.51-.54.8-.6.73-.14,1.92.09,2.13-.28a6,6,0,0,0,.3-2.61q.36-9.16.69-18.34a11.32,11.32,0,0,0-.06-1.84,2.85,2.85,0,0,0-2.89-2.76,3.17,3.17,0,0,1-1.52-.42c.31-.28.6-.78.92-.8,2.08-.07,4.17-.1,6.26,0a2.46,2.46,0,0,1,1.42,1q7.72,9.3,15.4,18.65C172.63,110.45,173.06,110.86,173.48,111.29Z"/><path d="M285.52,91.05c.36-.24.72-.68,1.08-.68q4.69-.09,9.39,0c.35,0,.7.51.94.91-3.12.54-3.12.54-3.12,3.71,0,4.51,0,9,0,13.52,0,3.23.79,6.16,4,7.54,3.55,1.51,7.18,1.71,10.57-.61a6.59,6.59,0,0,0,2.78-5.52c.09-5.44-.06-10.88-.27-16.32-.07-1.8-.55-2-2.39-2h-1.4l-.25-.41c.31-.28.62-.79.93-.8,2.56-.06,5.13-.06,7.69,0,.32,0,.64.5,1.06.85-.39.23-.43.27-.47.28-2.77.35-2.82.35-2.87,3.21-.06,4,0,8.06-.08,12.1a22.64,22.64,0,0,1-.61,5.33c-1,3.75-3.56,6.13-7.43,6.44a35.18,35.18,0,0,1-8.88-.36c-4.72-.83-6.69-3.48-6.84-8.53-.11-4-.05-8-.09-12,0-1.32-.09-2.65-.19-4-.16-2.05-.29-2.15-2.28-2.18l-1,0Z"/><path d="M351.52,91.47c-.33-1.26.51-1.14,1.23-1.14h20.59c-.36,1.22-.69,2.35-1,3.56-3.76-2.31-7.85-1.94-11.82-2.23-.28,0-.87.56-.88.87-.09,3.08-.12,6.17-.06,9.25a1.39,1.39,0,0,0,1,.94c2.65.08,5.31,0,8,.06,1.14,0,1-.77,1.2-1.52s-.12-2,1.42-1.53c0,2.6,0,5.15,0,7.69,0,.24-.38.68-.49.66a1.41,1.41,0,0,1-.78-.57,2.51,2.51,0,0,1-.14-1c-.17-2.24-.17-2.21-2.35-2.25s-4.36-.09-6.53-.19c-.9,0-1.28.23-1.26,1.2,0,3.08,0,6.17,0,9.25.05,2.73.6,3.17,3.34,3,4-.29,8-.56,11.66-2.59l.24.28c-.64,1.07-1.26,2.15-1.94,3.2a1,1,0,0,1-.76.27H351.67c-.48-1-.15-1.24.74-1.3,2.93-.19,2.95-.21,2.93-3.2-.06-6.21-.15-12.42-.2-18.63C355.1,91.84,355.12,91.84,351.52,91.47Z"/><path d="M201.81,96.86c-1,.37-1.37,0-1.63-.85-1.11-3.74-7-5.56-10.1-3.17a4.55,4.55,0,0,0,.43,7.39c1.6.91,3.38,1.49,5,2.28a38.73,38.73,0,0,1,4.51,2.38c2.89,1.89,3.49,4.8,2.84,7.9a7.3,7.3,0,0,1-5.7,5.77,17.38,17.38,0,0,1-11.14-.94,1.85,1.85,0,0,1-1.3-2c.06-1.18-.13-2.37-.07-3.55,0-.36.48-.69.75-1,.31.31.83.59.9,1a6.86,6.86,0,0,0,10.7,4.3,4.8,4.8,0,0,0-.22-7.93,26.16,26.16,0,0,0-3.61-1.63,40.2,40.2,0,0,1-4-1.78,7.34,7.34,0,0,1-4-8,8.32,8.32,0,0,1,6.42-6.67,14.13,14.13,0,0,1,7.7.48,3.21,3.21,0,0,1,2.48,3.47C201.77,95.08,201.81,95.93,201.81,96.86Z"/><path d="M274.91,118.69h-2.66c-2.85,0-5.69,0-8.54,0-.34,0-.67-.42-1-.64.31-.21.6-.57.93-.6,2.66-.3,2.64-.28,2.67-3,.05-5.88.15-11.75.19-17.63,0-1.18-.14-2.36-.2-3.55-.05-.91-.44-1.43-1.42-1.32-2,.21-4.06.33-6.06.69a8.82,8.82,0,0,0-2.35,1.19l-1.33.71-.31-.31a35.58,35.58,0,0,1,1.23-3.56c.12-.29.83-.44,1.27-.43,6,.08,12,.21,18.06.3,2.11,0,4.23,0,6.59,0-.22,1-.42,2.09-.75,3.14-.05.16-.92.29-1,.17-.87-1.3-2.2-1.33-3.53-1.43-1.51-.12-3-.24-4.53-.42-.89-.11-1.36.1-1.36,1.08,0,7.4-.06,14.79,0,22.19,0,2,.34,2.1,2.6,2.16C274.05,117.43,275.28,116.92,274.91,118.69Z"/><path d="M227.4,118.68c-3.9,0-7.68,0-11.47,0-.26,0-.52-.37-.78-.57.28-.23.55-.63.85-.66a22.18,22.18,0,0,1,2.59,0c.06-.45.14-.76.15-1.08.07-6.35.16-12.7.2-19,0-1.32-.15-2.65-.22-4-.06-1-.5-1.49-1.54-1.38-2,.22-4,.33-5.91.69a9.78,9.78,0,0,0-2.47,1.26l-1.24.64-.33-.28c.41-1.23.76-2.49,1.27-3.68.1-.24.78-.35,1.19-.34,7.16.07,14.31.18,21.46.26,1,0,2-.11,3.29-.19-.28,1.25-.49,2.38-.8,3.47,0,.16-.81.32-.88.22-1.41-2-3.68-1.38-5.59-1.78-.83-.17-1.72,0-2.55-.19-1.15-.22-1.43.32-1.43,1.31,0,1.71-.06,3.41-.06,5.12,0,5.35-.06,10.7,0,16,0,2.87.16,2.87,3,2.92C227.32,117.41,227.32,117.41,227.4,118.68Z"/><path d="M320,94.16c.38-1.15.69-2.34,1.18-3.45.13-.3.8-.51,1.22-.5,7.16.06,14.31.17,21.46.25,1,0,2-.11,3.31-.2-.28,1.28-.51,2.44-.82,3.58,0,.13-.73.25-.81.15-1.65-2.21-4.16-1.4-6.3-1.84a11,11,0,0,0-1.41-.1c-1.83-.16-1.86-.13-1.89,1.64-.08,5.87-.18,11.75-.22,17.63,0,1.42.13,2.84.23,4.25s.6,2.06,2.05,1.83a2.72,2.72,0,0,1,1.27,0,4.32,4.32,0,0,1,1.06.78l-.26.48c-3.84,0-7.67,0-11.5,0-.22,0-.45-.35-.67-.53.22-.24.42-.67.67-.69.89-.09,1.79,0,2.75,0a7.42,7.42,0,0,0,.16-1.06c.08-6.07.17-12.13.21-18.2,0-1.56-.16-3.12-.21-4.68,0-1.09-.46-1.69-1.66-1.56-1.87.21-3.78.27-5.63.64a11.43,11.43,0,0,0-2.72,1.38c-.38.2-.77.37-1.16.56Z"/><path d="M130.88,91.38c.6-.51.91-1,1.23-1q4.69-.09,9.39,0c.31,0,.62.53,1.12,1a5.14,5.14,0,0,1-.84.21c-2.61.16-2.61.16-2.61,2.85V113.9c0,.57,0,1.14,0,1.71.1,1.17.5,2,1.93,1.79a1.62,1.62,0,0,1,.85,0c.25.1.43.37.64.57-.22.22-.44.63-.68.65-1.18.07-2.37,0-3.55,0h-6.65c0-1.12,0-1.12,2.58-1.41a3,3,0,0,0,.19-.76c0-7.49,0-15-.07-22.47,0-2.35-.11-2.35-2.51-2.48C131.76,91.56,131.58,91.5,130.88,91.38Z"/><path d="M250.43,118.62H239.68c-.41-1.13.24-1.33,1-1.21,1.57.23,1.91-.49,1.89-1.93-.12-7.26-.14-14.51-.24-21.77,0-2-.18-2-2.14-2.16-.35,0-.69-.37-1-.57.34-.22.68-.61,1-.62q4.49-.08,9,0c.4,0,.79.43,1.36.77-.46.31-.54.39-.62.4-2.84.24-2.84.23-2.84,3.08q0,9.54,0,19.08c0,.62,0,1.24,0,1.85.07,1.26.54,2,2,1.87C249.84,117.33,250.84,117.16,250.43,118.62Z"/><path d="M231.05,28.87c-2.88-.37-3.25-.67-3.29-3.58-.09-6.73-.1-13.46-.09-20.19,0-2,.17-2.07,2.08-2.14a2.54,2.54,0,0,0,.45-.12V1.68c-1.74,0-3.39.05-5,0a1.77,1.77,0,0,0-1.95,1.2c-3.06,6.62-6.19,13.21-9.3,19.81-.19.41-.42.81-.76,1.47-.44-.72-.78-1.21-1.05-1.73-3.32-6.5-6.63-13-10-19.48-.25-.49-.75-1.17-1.17-1.19-2.3-.12-4.62-.06-7.4-.06.5.62.68,1.07,1,1.19,3,1.09,3.57,2,3.45,5.11q-.35,9.09-.61,18.19c-.08,2.45-.06,2.45-2.52,2.6a3.58,3.58,0,0,0-.55.28c.29.36.53.94.78.95,2.5.07,5,0,7.45,0,.35-1.05,0-1.45-.89-1.29-1.59.27-2.15-.56-2.22-2,0-.33-.1-.65-.1-1q.1-8,.24-16.08a7.6,7.6,0,0,1,.21-1.14,3.15,3.15,0,0,1,1,1.3q4.89,9.78,9.8,19.56a5.75,5.75,0,0,0,1.09,1.18,7,7,0,0,0,1-1.2c3.1-6.6,6.16-13.22,9.24-19.83.23-.48.52-.93.94-1.7a9.45,9.45,0,0,1,.21,1.21c.07,6,.1,12,.22,18.06,0,1.26-.37,1.76-1.62,1.59-.93-.12-1.2.31-.84,1.24h10.21Z"/><path d="M156.12,27.91a37.12,37.12,0,0,1-9.83-11.13l1.49-.68c3.53-1.62,5.39-4.54,5-7.94-.32-3.11-2.66-5.6-6.45-6.24a49.14,49.14,0,0,0-7.49-.31c-2.37,0-4.74.07-7.11.11-.82,0-1.26.28-.9,1.16,2.93.33,2.93.33,3.2,3.33a8,8,0,0,1,0,.85q0,9.69.05,19.36c0,2.21,0,2.25-2.14,2.3-1,0-1.16.37-.81,1.33,3.71,0,7.45,0,11.19,0,.22,0,.44-.43.67-.67-.25-.2-.48-.54-.75-.58a6.74,6.74,0,0,0-1.85,0c-1.32.16-1.82-.53-1.85-1.71-.1-3-.19-6.06-.24-9.09a1.16,1.16,0,0,1,.45-.91c.82-.43,3.14.41,3.55,1.24,2,4.09,5,7.47,7.91,10.89A2.62,2.62,0,0,0,152,30c2.13.1,4.27,0,6.4,0,1,0,1.09-.49.84-1A12.35,12.35,0,0,1,156.12,27.91ZM142.21,15.63h-1.13c-2.74.2-2.74.2-2.74-2.54,0-2.89.07-5.78,0-8.66,0-1.12.4-1.65,1.49-1.45A22.3,22.3,0,0,1,144.52,4a6.09,6.09,0,0,1,3.7,7.06C147.64,13.94,145.58,15.49,142.21,15.63Z"/><path d="M315.65,72.4c-1.31-.7-2.89-1.09-3.93-2.06a88.46,88.46,0,0,1-6.15-6.68,30.27,30.27,0,0,1-2.1-3.21c.57-.25.86-.39,1.16-.53,3.82-1.66,5.74-4.58,5.37-8.14-.33-3.19-2.9-5.92-6.93-6.24-5-.39-10-.09-15-.09l-.25.5c.34.27.67.73,1,.78,2,.25,2.06.22,2.29,2.26a16,16,0,0,1,.13,1.69q0,9.82.06,19.64c0,2,0,2-2,2.06-.82,0-1.46.14-.92,1.3,3.67,0,7.37,0,11.06,0,.25,0,.49-.4.74-.61-.25-.22-.48-.56-.77-.62a8.09,8.09,0,0,0-1.56,0c-1.83,0-2-.11-2.13-2-.14-2.93-.17-5.87-.21-8.81a1.08,1.08,0,0,1,.35-.82c.84-.5,3.21.33,3.66,1.24,2,4.08,5,7.48,7.93,10.89a2.3,2.3,0,0,0,1.42.76c2.23.08,4.46.06,6.69,0,.28,0,.56-.33.84-.51A4.69,4.69,0,0,0,315.65,72.4ZM295.52,55.14V53h.05c0-1.65,0-3.31,0-5,0-1,.35-1.49,1.41-1.42,2.5.17,4.92.58,6.76,2.48a6.11,6.11,0,0,1,1.39,6.7c-.81,2.27-2.7,3.19-5,3.42C295.52,59.7,295.52,59.69,295.52,55.14Z"/><path d="M170.8,29.81a26.08,26.08,0,0,0,5.78.46c5.73-.24,10.33-2.53,12.54-8.14a47,47,0,0,0,1.63-6.84l-.24-.09c-.12-1.18-.2-2.36-.38-3.52A11.08,11.08,0,0,0,181,1.89a22.66,22.66,0,0,0-5.92-.45c-5.58.37-10,2.73-12.41,8.05a18.13,18.13,0,0,0-.84,11.29C162.81,25.74,165.75,28.89,170.8,29.81ZM167.24,8.19c2.17-6.17,8.51-6.34,13-3.79,3.71,2.1,5.07,5.7,5.43,9.77.06.7,0,1.42,0,2.13a16.57,16.57,0,0,1-1.52,7.87,8.12,8.12,0,0,1-7.66,5c-3.67,0-6.85-1.49-8.52-4.94A20.27,20.27,0,0,1,167.24,8.19Z"/><path d="M351.36,28.74c-1.82,0-2.15-.28-2.31-2.07a37.81,37.81,0,0,1-.22-4.25c.13-4.69.33-9.38.51-14.07a15.09,15.09,0,0,1,.25-1.55c.59.66,1,1,1.32,1.46q8.93,10.91,17.87,21.79a4.61,4.61,0,0,0,1.22.8,5.42,5.42,0,0,0,.43-1.39q.15-8.54.23-17.07,0-4.07,0-8.11c0-1,.34-1.4,1.34-1.32.74,0,1.49,0,2.24,0l.28-.39c-.29-.3-.56-.85-.85-.86-3-.06-6.06,0-9.07,0-.1,1.25-.1,1.25.88,1.29,2.59.1,2.62.12,3,2.8A15.49,15.49,0,0,1,368.79,8q.06,6.77.07,13.53a8.69,8.69,0,0,1-.2,1.26c-.49-.54-.83-.86-1.12-1.21q-7.83-9.5-15.68-19a2.38,2.38,0,0,0-1.43-.9c-2-.1-4.08,0-6.12-.05-1.06,0-1,.5-.73,1.3.43,0,.81,0,1.18,0a2.71,2.71,0,0,1,2.92,2.51,9.45,9.45,0,0,1,.09,2c-.2,5.4-.44,10.8-.63,16.2-.06,1.64,0,3.29,0,5.07a22.79,22.79,0,0,0-2.54,0c-.27,0-.5.39-.74.6.23.23.46.64.69.65,2.7,0,5.39,0,8.07,0C352.75,28.75,352.75,28.75,351.36,28.74Z"/><path d="M265.73,3c2,0,2.83.68,3.18,2.68a9.94,9.94,0,0,1,.14,2.11q-.37,9.81-.79,19.61c0,.41-.07.82-.12,1.36H265.3c-.36,1-.08,1.34.85,1.33,2.32,0,4.65,0,7,0,1,0,1.25-.39.79-1.28-.28,0-.52,0-.75,0-2.57,0-2.84-.3-3-2.91a3.62,3.62,0,0,1,0-.57q.16-8.25.37-16.49a20.56,20.56,0,0,1,.29-2.07c1.13,1.34,2,2.36,2.86,3.41q8.1,9.9,16.22,19.81a6.27,6.27,0,0,0,1.3.94,6.61,6.61,0,0,0,.5-1.5c.09-1.27.08-2.56.09-3.84,0-6.35,0-12.71.09-19.07a6.67,6.67,0,0,1,.38-3.17c.29-.47,1.75-.19,2.66-.34.28,0,.5-.39.75-.6-.23-.22-.46-.63-.69-.63-3.08,0-6.15,0-9.2,0-.38,1.16.15,1.3,1,1.3,2.4,0,2.43.06,2.91,2.45a7.83,7.83,0,0,1,.19,1.26q.15,7.39.27,14.79a6.38,6.38,0,0,1-.17,1.05l-.54.39a5.49,5.49,0,0,0-.56-1.14Q281,12.17,273.07,2.58c-.31-.37-.76-.85-1.16-.86-2.41-.08-4.82,0-7.18,0C264.28,2.88,264.88,3,265.73,3Z"/><path d="M275.4,45.36c-.44,0-.87.41-1.31.64a4.52,4.52,0,0,0,1.35.55c2.14.08,2.42.05,2.54,2.14a145.52,145.52,0,0,1,.37,15.62c-.25,4.61-2.31,6.8-6,7.54a15.42,15.42,0,0,1-4.24.12c-4.33-.39-6.9-3-7-7.29-.14-5.11-.1-10.24-.07-15.35,0-2.62.08-2.62,2.59-2.8.09,0,.17-.07.64-.3-.47-.38-.8-.86-1.13-.87q-4.69-.07-9.39,0c-.32,0-.63.51-.94.78l.25.35a6,6,0,0,0,1.11.06c1.31-.17,2,.38,2.05,1.69,0,1,.14,2,.16,3,.1,4.88.12,9.77.3,14.64.13,3.62,1.94,6.18,5.53,7a35.76,35.76,0,0,0,7.43,1c6.71.12,10.51-3.7,10.61-10.41l.21-14.79c0-2,0-1.93,2-2.1.36,0,.7-.38,1-.59-.35-.21-.7-.6-1.06-.6C280.05,45.3,277.72,45.29,275.4,45.36Z"/><path d="M184.87,45.36c-.45,0-.89.4-1.33.62a4.29,4.29,0,0,0,1.34.57c2.07.08,2.41.14,2.52,2.18.28,5.06.51,10.13.44,15.19,0,2.55-.74,5.08-3.14,6.7a10.17,10.17,0,0,1-7.8,1.25c-4.2-.76-6.23-2.91-6.44-7.23-.24-5-.14-10-.17-15.07,0-2.85,0-2.85,2.73-3,.09,0,.17-.07.64-.29-.47-.38-.79-.87-1.12-.87q-4.69-.09-9.39,0c-.33,0-.64.5-1,.77l.24.35a4,4,0,0,0,1,.07c1.46-.22,2.13.43,2.18,1.86,0,.8.14,1.6.16,2.41.11,5.12.12,10.24.32,15.36a6.83,6.83,0,0,0,5.1,6.62,22,22,0,0,0,9.54,1c5.29-.64,8-3.24,8.72-8.54a75.53,75.53,0,0,0,.17-8.52c.06-3.31.16-6.61.24-10a13.94,13.94,0,0,0,2-.16,4.16,4.16,0,0,0,1-.57c-.35-.22-.69-.61-1-.62C189.52,45.3,187.19,45.29,184.87,45.36Z"/><path d="M262.37,28.79c-1.94-.1-1.94-.1-2.78-1.64A11.16,11.16,0,0,1,259,26c-2.72-7.12-5.46-14.24-8.14-21.37-.55-1.46-1-3,.46-4.5-1.39.37-3-.36-3.76,1.38-3.62,8.34-7.27,16.67-10.87,25-.6,1.39-1.16,2.67-3.1,2.15v1.37c2.85,0,5.64,0,8.43,0,.23,0,.45-.44.67-.68-.26-.2-.49-.53-.77-.57a8.7,8.7,0,0,0-1.84,0c-1,.06-1.33-.36-1-1.28.69-2.32,1.34-4.64,2.12-6.92a1.64,1.64,0,0,1,1.26-.8c2.85-.07,5.7-.08,8.54,0a1.93,1.93,0,0,1,1.41,1c.94,2.33,1.74,4.71,2.57,7.08a4.23,4.23,0,0,1,.08.91c-.77,0-1.43,0-2.08,0-1.09,0-.94.56-.78,1.25h10.3C262.43,29.52,262.4,29.14,262.37,28.79ZM242.12,18.18l4.82-11.51.52.06,3.88,11.45Z"/><path d="M321.33,28.89c-.11-.05-.19-.12-.28-.12-.61,0-1.23,0-1.85,0-1.5,0-1.7-.21-1.29-1.67.59-2.14,1.22-4.28,2-6.36a1.91,1.91,0,0,1,1.43-1c2.8-.09,5.6,0,8.39-.06a1.41,1.41,0,0,1,1.54,1.13c.76,2.24,1.59,4.46,2.37,6.69a6.65,6.65,0,0,1,.2,1.15l-2.8.14c-.3.89-.11,1.28.85,1.26,2.8,0,5.6,0,8.39,0,1,0,1.17-.39.75-1.36-2,.62-2.49-1-3-2.23-2.91-7.45-5.73-14.94-8.55-22.42-.42-1.12-.66-2.3.39-3.31.11-.11.05-.41.09-.74-1.85.22-3.25.43-4.11,2.53-3.31,8.06-6.89,16-10.35,24-.59,1.36-1.13,2.71-3,2.17-.42.91-.29,1.36.71,1.36,2.42,0,4.84,0,7.26,0C321.36,30.07,321.67,29.74,321.33,28.89Zm4.38-22.21.48,0c1.3,3.79,2.59,7.58,3.94,11.51h-9.24C322.56,14.2,324.14,10.44,325.71,6.68Z"/><path d="M347.3,72.43c-1.24.16-1.68-.71-2.12-1.55a26.92,26.92,0,0,1-1.32-2.83c-2.22-5.83-4.46-11.66-6.6-17.53-.77-2.13-2.32-4.27-.34-6.62-2.46-.26-3.25.15-4.05,2q-5.37,12.3-10.73,24.6c-.46,1.07-.86,2.13-2.38,2-.2,0-.45.43-.68.67.21.19.43.54.65.55,2.82,0,5.64,0,8.46,0l.22-.49c-.31-.26-.58-.64-.94-.75a4.73,4.73,0,0,0-1.41,0c-1.58,0-1.78-.22-1.35-1.75.58-2.1,1.21-4.18,2-6.22a1.92,1.92,0,0,1,1.4-1,45.76,45.76,0,0,1,4.83,0c1.55,0,3.48-.4,4.54.36s1.28,2.72,1.83,4.18,1,2.8,1.47,4.24c-2.92.55-2.92.55-2.89,1.51,3.16,0,6.33,0,9.49,0,.25,0,.48-.41.72-.62C347.81,72.82,347.52,72.4,347.3,72.43ZM327.65,61.94l4.84-11.56.5,0c1.31,3.82,2.61,7.64,4,11.58Z"/><path d="M156.84,65.91c-2.29,4.5-2.8,5.15-5.94,6-6.94,1.77-13-.6-14.73-8.2a16.88,16.88,0,0,1,.19-8.44,11,11,0,0,1,9.7-8.36c5.17-.44,8.22,1.27,10.65,6.23.3-2,.45-3.59.8-5.15.22-1-.07-1.35-.94-1.65A25.44,25.44,0,0,0,147.34,45c-8.78.27-17.36,6.28-16.3,17.73.48,5.1,3,8.67,7.92,10.4a22.9,22.9,0,0,0,10.81.66,16.76,16.76,0,0,0,7.65-2.84c.39-.28.85-1,.76-1.32A33.31,33.31,0,0,0,156.84,65.91Z"/><path d="M243.73,45.51c-6.21-.1-12.41-.23-18.62-.29-.52,0-1.33.21-1.5.58a27.62,27.62,0,0,0-1.27,3.69c.61-.14,1.07-.11,1.26-.32,1.82-1.92,4.24-1.92,6.59-2.1,3.7-.28,3.81-.93,3.87,3.54.08,6.3-.1,12.61-.15,18.91,0,2.65,0,2.62-2.58,2.9-.38,0-.71.51-1.06.77l.26.48c3.83,0,7.66,0,11.49,0,.23,0,.46-.34.68-.52-.22-.24-.41-.66-.67-.7a11.52,11.52,0,0,0-2.12,0,1.13,1.13,0,0,1-1.36-1.1,12,12,0,0,1-.24-1.54c0-7.26.11-14.51.16-21.76,0-.92.41-1.1,1.25-1,1.79.2,3.61.19,5.37.5a5.79,5.79,0,0,1,2.56,1.25c.73.58,1.08.51,1.31-.31.27-1,.46-2,.67-2.91C247.58,45.52,245.65,45.54,243.73,45.51Z"/><path d="M374.67,70.12c-3.34,2.23-7.15,2.32-10.95,2.39s-4.09,0-4.1-4c0-6.92.17-13.85.24-20.77,0-.86.36-1.21,1.19-1.19,1.08,0,2.16,0,3.25,0l.24-.49c-.36-.25-.72-.72-1.09-.73q-5.11-.07-10.25,0c-.36,0-.73.38-1.09.58.38.21.78.63,1.14.61,1.33-.1,1.8.59,1.86,1.75,0,.76.09,1.52.09,2.28q0,10.32-.07,20.64c0,.36-.06.72-.1,1.18a12,12,0,0,0-2.09,0c-.4.07-.74.45-1.11.69.36.19.72.55,1.09.55q9.81,0,19.64,0a1.59,1.59,0,0,0,1.18-.52c.58-.9,1-1.9,1.61-3C374.93,70.11,374.76,70.06,374.67,70.12Z"/><path d="M207.62,72.54c-1.58.18-2.16-.59-2.31-2a8.72,8.72,0,0,1-.07-1.14c0-6.36,0-12.71.08-19.07.05-3.61.11-3.61,3.66-3.79.05,0,.11,0,.14,0l.84-.52c-.28-.24-.55-.68-.82-.69-3.56,0-7.12,0-10.68,0-.31,0-.61.53-.91.82a1.59,1.59,0,0,0,.95.38c1.82.06,2.08.25,2.22,2.13.11,1.33.08,2.66.07,4,0,5.83-.06,11.66,0,17.5,0,2.11.06,2.12-2.2,2.19-.82,0-1.44.12-1,1.3H217c2.09,0,3.36-1.28,3.5-3.59a17.33,17.33,0,0,1-3.89,1.59C213.65,72.13,210.62,72.21,207.62,72.54Z"/><path d="M301.8,4.69c0,.47.06.94.06,1.42l0,20.93v1.48c-2.84.57-2.84.57-2.64,1.47H310V28.8a7.38,7.38,0,0,0-1.31-.05c-1.51.23-2.05-.52-2.08-1.92,0-1.09-.17-2.17-.16-3.26,0-6.17.08-12.34.12-18.5,0-2,0-2,2-2.13.38,0,.72-.44,1.08-.68-.35-.19-.7-.55-1.06-.56-2.89,0-5.79-.05-8.68,0-.44,0-.87.39-1.31.6.42.23.87.67,1.26.63C301.23,2.77,301.72,3.46,301.8,4.69Z"/></svg>