<svg id="Layer_1" data-name="Layer 1" xmlns="http://www.w3.org/2000/svg" viewBox="0 0 393.04 150.02"><defs><style>.cls-1{fill:#fff;}</style></defs><rect class="cls-1" width="393.04" height="150.02"/><path d="M135.9,72.94a9.45,9.45,0,0,0-4.31-1,9.34,9.34,0,0,0-7.17,3.1,11.34,11.34,0,0,0-2.87,8c0,3.29.83,5.86,2.5,7.69a8.75,8.75,0,0,0,6.84,2.76,9,9,0,0,0,3-.49,4.91,4.91,0,0,0,2-1.16v1.26h4.86V63.44l-4.86,1.17Zm0,15.24a3.05,3.05,0,0,1-1.33.85,4.64,4.64,0,0,1-1.72.41q-6.24,0-6.25-6.48a7.5,7.5,0,0,1,1.57-5.1,5.7,5.7,0,0,1,4.49-1.77,5.09,5.09,0,0,1,3.24,1.24Z"/><path d="M89,72.28H89V85.85c.2,3.53-3.92,3.37-4.12,3.39s-4.23.34-4.36-3.37V72.28H75.55V84.83c0,5.91,3.66,8.71,8.48,8.71h1c4.83,0,8.84-2.42,8.84-8.71V72.28H89Z"/><path d="M216.53,72.28h-.07V85.85c.2,3.53-3.92,3.37-4.12,3.39s-4.23.34-4.35-3.37V72.28h-4.93V84.83c0,5.91,3.66,8.71,8.49,8.71h1c4.83,0,8.84-2.42,8.84-8.71V72.28h-4.85Z"/><path d="M311.08,66.34l-4.86,1.78v4.24h-2.4v3.9h2.4V86.78a7,7,0,0,0,1.67,5,6.27,6.27,0,0,0,4.78,1.76,15.49,15.49,0,0,0,4.82-.58V88.49a6,6,0,0,1-3.27,1,2.86,2.86,0,0,1-2.44-.92,5.33,5.33,0,0,1-.7-3.15V76.26h6.41v-3.9h-6.41Z"/><path d="M109.28,72.36a7.51,7.51,0,0,0-5.38,1.84V72.36l-4.85,1.16v20h4.85v-15A5.37,5.37,0,0,1,105.8,77a5.14,5.14,0,0,1,2.28-.6,4.09,4.09,0,0,1,3.33,1.22,6,6,0,0,1,1,3.88v12h4.85V80.78a8.56,8.56,0,0,0-2.14-6.2A7.78,7.78,0,0,0,109.28,72.36Z"/><path d="M292.24,72.36a7.51,7.51,0,0,0-5.38,1.84V72.36L282,73.52v20h4.85v-15a5.37,5.37,0,0,1,1.9-1.49,5.17,5.17,0,0,1,2.28-.6,4.09,4.09,0,0,1,3.33,1.22,6,6,0,0,1,1,3.88v12h4.85V80.78a8.56,8.56,0,0,0-2.14-6.2A7.76,7.76,0,0,0,292.24,72.36Z"/><path d="M173.32,74.65V72.36l-4.86,1.16v20h4.86V81.7A5.58,5.58,0,0,1,174.63,78a3.87,3.87,0,0,1,3-1.53,5,5,0,0,1,2.85.85l2.06-4.16a7.81,7.81,0,0,0-3.8-.75A6.88,6.88,0,0,0,173.32,74.65Z"/><path d="M231.41,74.65V72.36l-4.85,1.16v20h4.85V81.7A5.58,5.58,0,0,1,232.72,78a3.9,3.9,0,0,1,3-1.53,5.1,5.1,0,0,1,2.86.85l2.06-4.16a7.83,7.83,0,0,0-3.81-.75A6.9,6.9,0,0,0,231.41,74.65Z"/><path d="M248.4,74.65V72.36l-4.85,1.16v20h4.85V81.7A5.58,5.58,0,0,1,249.71,78a3.9,3.9,0,0,1,3-1.53,5.1,5.1,0,0,1,2.86.85l2.06-4.16a7.83,7.83,0,0,0-3.81-.75A6.9,6.9,0,0,0,248.4,74.65Z"/><path d="M188.13,82.42c.16-7.49,5.91-6.84,9.11-5.41l2.67-3.77a12.52,12.52,0,0,0-6.3-1.81,9.71,9.71,0,0,0-7.55,2.69A10.92,10.92,0,0,0,182.91,82a.91.91,0,0,0,0,.17v.21h0c0,.09,0,.17,0,.26h0a10.85,10.85,0,0,0,2.89,7.82,11.07,11.07,0,0,0,7.83,3.09,12.39,12.39,0,0,0,6.85-2.08l-2.67-3.78C195.41,89.59,188.22,90.05,188.13,82.42Z"/><path d="M270.65,72.17h0c-.15,0-.3-.07-.46-.09a10.75,10.75,0,0,0-2-.16h0a9.92,9.92,0,0,0-7.3,3,4.9,4.9,0,0,0-.65.81A11,11,0,0,0,257.8,83c0,.29,0,.56,0,.84s0,.29,0,.43h.05a10,10,0,0,0,2.71,6.5,10.14,10.14,0,0,0,7.53,2.79c3.23,0,5.69-.64,7.4-1.9a8.94,8.94,0,0,0,1.42-1.21l-3.1-2.68a7.13,7.13,0,0,1-1,.82,7.78,7.78,0,0,1-4,.91,6.2,6.2,0,0,1-4.24-1.38,5.26,5.26,0,0,1-1.7-3.85h15.18c0-.23.05-2.58.05-2.76a9.26,9.26,0,0,0-2.74-6.87A9.16,9.16,0,0,0,270.65,72.17Zm-7.6,8.37q1-4.52,5.15-4.51,3.09,0,4.31,2.11a6.11,6.11,0,0,1,.71,2.4Z"/><path d="M157.29,72.17h0c-.15,0-.3-.07-.45-.09a10.82,10.82,0,0,0-2-.16h-.06a9.88,9.88,0,0,0-7.29,3,4.94,4.94,0,0,0-.66.81,11,11,0,0,0-2.35,7.2c0,.29,0,.56,0,.84l0,.43h0a10,10,0,0,0,2.72,6.5,10.1,10.1,0,0,0,7.52,2.79c3.24,0,5.7-.64,7.4-1.9a8.94,8.94,0,0,0,1.42-1.21l-3.1-2.68a7,7,0,0,1-1,.82,7.82,7.82,0,0,1-4,.91,6.19,6.19,0,0,1-4.23-1.38,5.23,5.23,0,0,1-1.71-3.85h15.19c0-.23,0-2.58,0-2.76A9.22,9.22,0,0,0,162,74.62,9.13,9.13,0,0,0,157.29,72.17Zm-7.6,8.37c.68-3,2.39-4.51,5.15-4.51,2.06,0,3.49.7,4.31,2.11a6.28,6.28,0,0,1,.7,2.4Z"/><rect x="75.55" y="56.47" width="241.93" height="4.83"/></svg>