<svg id="Layer_1" data-name="Layer 1" xmlns="http://www.w3.org/2000/svg" viewBox="0 0 241.93 37.07"><path d="M60.35,16.47a9.48,9.48,0,0,0-4.31-1,9.38,9.38,0,0,0-7.18,3.1,11.36,11.36,0,0,0-2.86,8q0,4.93,2.49,7.69a8.78,8.78,0,0,0,6.85,2.76,9.08,9.08,0,0,0,3-.5,4.91,4.91,0,0,0,2-1.15v1.26H65.2V7L60.35,8.14Zm0,15.24a3.22,3.22,0,0,1-1.33.84A4.68,4.68,0,0,1,57.3,33Q51,33,51.05,26.48a7.42,7.42,0,0,1,1.57-5.09,5.66,5.66,0,0,1,4.49-1.78,5.19,5.19,0,0,1,3.24,1.24Z"/><path d="M13.46,15.81H13.4V29.37c.19,3.53-3.93,3.37-4.13,3.39S5,33.1,4.92,29.39V15.81H0V28.36c0,5.9,3.65,8.71,8.48,8.71h1c4.83,0,8.85-2.42,8.85-8.71V15.81H13.46Z"/><path d="M141,15.81h-.07V29.37c.19,3.53-3.93,3.37-4.13,3.39s-4.23.34-4.35-3.37V15.81h-4.92V28.36c0,5.9,3.65,8.71,8.48,8.71h1c4.82,0,8.84-2.42,8.84-8.71V15.81H141Z"/><path d="M235.52,9.86l-4.85,1.79v4.23h-2.41v3.91h2.41V30.31a7,7,0,0,0,1.67,5,6.27,6.27,0,0,0,4.78,1.76,15.37,15.37,0,0,0,4.81-.59V32a6.06,6.06,0,0,1-3.26.95,2.91,2.91,0,0,1-2.45-.92,5.44,5.44,0,0,1-.7-3.16v-9.1h6.41V15.88h-6.41Z"/><path d="M33.73,15.88a7.51,7.51,0,0,0-5.38,1.85V15.88l-4.86,1.17v20h4.86V22a5.81,5.81,0,0,1,4.17-2.1,4.12,4.12,0,0,1,3.33,1.22,6,6,0,0,1,1,3.89v12h4.86V24.31a8.56,8.56,0,0,0-2.15-6.2A7.72,7.72,0,0,0,33.73,15.88Z"/><path d="M216.69,15.88a7.51,7.51,0,0,0-5.38,1.85V15.88l-4.85,1.17v20h4.85V22a5.81,5.81,0,0,1,4.18-2.1,4.1,4.1,0,0,1,3.32,1.22,6,6,0,0,1,1,3.89v12h4.86V24.31a8.56,8.56,0,0,0-2.15-6.2A7.72,7.72,0,0,0,216.69,15.88Z"/><path d="M97.77,18.17V15.88l-4.86,1.17v20h4.85V25.22a5.58,5.58,0,0,1,1.32-3.75,3.87,3.87,0,0,1,3-1.53,5.1,5.1,0,0,1,2.85.86L107,16.64a7.71,7.71,0,0,0-3.81-.76A6.89,6.89,0,0,0,97.77,18.17Z"/><path d="M155.86,18.17V15.88L151,17.05v20h4.85V25.22a5.62,5.62,0,0,1,1.31-3.75,3.87,3.87,0,0,1,3-1.53,5.05,5.05,0,0,1,2.85.86l2.06-4.16a7.69,7.69,0,0,0-3.8-.76A6.93,6.93,0,0,0,155.86,18.17Z"/><path d="M172.85,18.17V15.88L168,17.05v20h4.85V25.22a5.62,5.62,0,0,1,1.31-3.75,3.87,3.87,0,0,1,3-1.53,5.05,5.05,0,0,1,2.85.86l2.06-4.16a7.69,7.69,0,0,0-3.8-.76A6.92,6.92,0,0,0,172.85,18.17Z"/><path d="M112.58,25.94c.16-7.49,5.91-6.84,9.11-5.4l2.66-3.78a12.49,12.49,0,0,0-6.29-1.8,9.7,9.7,0,0,0-7.56,2.68,11,11,0,0,0-3.15,7.86v.16c0,.08,0,.15,0,.22h0v.25h0A10.87,10.87,0,0,0,110.23,34a11.11,11.11,0,0,0,7.83,3.1A12.28,12.28,0,0,0,124.91,35l-2.66-3.77C119.86,33.11,112.67,33.58,112.58,25.94Z"/><path d="M195.1,15.7h0l-.46-.1a10,10,0,0,0-2-.15h-.06a10,10,0,0,0-7.29,3,5.62,5.62,0,0,0-.66.82,11,11,0,0,0-2.35,7.19c0,.29,0,.57,0,.85l0,.43h0a10,10,0,0,0,2.72,6.5,10.1,10.1,0,0,0,7.52,2.79c3.24,0,5.7-.64,7.4-1.9A8.56,8.56,0,0,0,201.35,34l-3.1-2.67a6,6,0,0,1-1,.81,7.81,7.81,0,0,1-4,.92A6.19,6.19,0,0,1,189,31.63a5.25,5.25,0,0,1-1.71-3.85H202.5c0-.24,0-2.58,0-2.76a9.12,9.12,0,0,0-7.44-9.32Zm-7.6,8.36c.68-3,2.4-4.51,5.15-4.51,2.06,0,3.5.71,4.31,2.11a6.39,6.39,0,0,1,.71,2.4Z"/><path d="M81.73,15.7h0l-.46-.1a10,10,0,0,0-2-.15h-.06a10,10,0,0,0-7.29,3,5,5,0,0,0-.65.82,11,11,0,0,0-2.35,7.19c0,.29,0,.57,0,.85a3.11,3.11,0,0,0,0,.43h.05a10,10,0,0,0,2.71,6.5,10.14,10.14,0,0,0,7.53,2.79c3.23,0,5.69-.64,7.4-1.9A9,9,0,0,0,88,34l-3.1-2.67a6.46,6.46,0,0,1-1,.81,7.77,7.77,0,0,1-4,.92,6.2,6.2,0,0,1-4.24-1.38A5.28,5.28,0,0,1,74,27.78H89.13c0-.24,0-2.58,0-2.76a9.09,9.09,0,0,0-7.44-9.32Zm-7.6,8.36c.68-3,2.4-4.51,5.15-4.51,2.06,0,3.5.71,4.31,2.11a6.21,6.21,0,0,1,.71,2.4Z"/><rect width="241.93" height="4.83"/></svg>