<svg id="Layer_1" data-name="Layer 1" xmlns="http://www.w3.org/2000/svg" viewBox="0 0 393.04 150.02"><defs><style>.cls-1{fill:#fff;}</style></defs><rect class="cls-1" width="393.04" height="150.02"/><path d="M176.31,42.34a5.79,5.79,0,1,1-5.79-5.79A5.79,5.79,0,0,1,176.31,42.34Z"/><path d="M193.67,42.34a5.79,5.79,0,1,1-5.79-5.79A5.79,5.79,0,0,1,193.67,42.34Z"/><path d="M185,59.7a5.79,5.79,0,1,1-5.79-5.79A5.79,5.79,0,0,1,185,59.7Z"/><path d="M202.36,59.7a5.79,5.79,0,1,1-5.79-5.79A5.79,5.79,0,0,1,202.36,59.7Z"/><path d="M211,42.34a5.79,5.79,0,1,1-5.79-5.79A5.79,5.79,0,0,1,211,42.34Z"/><path d="M213.93,19.19A5.79,5.79,0,1,0,219.72,25,5.78,5.78,0,0,0,213.93,19.19Zm0,9.26A3.48,3.48,0,1,1,217.4,25,3.47,3.47,0,0,1,213.93,28.45Z"/><path d="M222.61,36.55a5.79,5.79,0,1,0,5.79,5.79A5.79,5.79,0,0,0,222.61,36.55Zm0,9.26a3.47,3.47,0,1,1,3.48-3.47A3.47,3.47,0,0,1,222.61,45.81Z"/><path d="M213.93,53.92a5.79,5.79,0,1,0,5.79,5.78A5.78,5.78,0,0,0,213.93,53.92Zm0,9.26a3.48,3.48,0,1,1,3.47-3.48A3.47,3.47,0,0,1,213.93,63.18Z"/><path d="M117.32,78.61a1.23,1.23,0,0,1-.08-.38,1,1,0,0,1,2-.25l2.59,7.72L124.35,78a1,1,0,0,1,1-.79h.14a1,1,0,0,1,1,.79L129,85.7,131.61,78a1,1,0,0,1,1-.71,1,1,0,0,1,1,.95,1.3,1.3,0,0,1-.09.4l-3.33,9.31a1.09,1.09,0,0,1-1,.82h-.2a1.07,1.07,0,0,1-1-.82l-2.5-7.34-2.51,7.34a1.07,1.07,0,0,1-1,.82h-.2a1.09,1.09,0,0,1-1-.82Z"/><path d="M134,86.14v0c0-1.83,1.43-2.73,3.5-2.73a7,7,0,0,1,2.28.35v-.21c0-1.2-.74-1.84-2.1-1.84a5,5,0,0,0-1.88.33,1.17,1.17,0,0,1-.3,0,.81.81,0,0,1-.82-.8.85.85,0,0,1,.53-.77A7.15,7.15,0,0,1,138,80a3.82,3.82,0,0,1,2.81,1,3.53,3.53,0,0,1,.91,2.61v4.18a.93.93,0,0,1-.95.93.88.88,0,0,1-.94-.82v-.32A3.44,3.44,0,0,1,137,88.75,2.7,2.7,0,0,1,134,86.14Zm5.81-.61V85a5.37,5.37,0,0,0-1.92-.34c-1.25,0-2,.53-2,1.42v0c0,.82.72,1.28,1.65,1.28C138.84,87.34,139.82,86.6,139.82,85.53Z"/><path d="M144.11,77.74a1,1,0,0,1,1-1,1,1,0,0,1,1,1v10a1,1,0,0,1-1.94,0Z"/><path d="M148.7,77.74a1,1,0,0,1,1-1,1,1,0,0,1,1,1v10a1,1,0,0,1-1.94,0Z"/><path d="M152.71,84.39v0a4.52,4.52,0,0,1,9,0v0a4.43,4.43,0,0,1-4.54,4.41A4.38,4.38,0,0,1,152.71,84.39Zm7.1,0v0a2.62,2.62,0,0,0-2.6-2.73,2.54,2.54,0,0,0-2.55,2.7v0a2.61,2.61,0,0,0,2.58,2.71A2.55,2.55,0,0,0,159.81,84.39Z"/><path d="M163.72,81a1,1,0,0,1,1-1,1,1,0,0,1,1,1v.41a3.07,3.07,0,0,1,2.65-1.47c1.91,0,3,1.28,3,3.24V87.7a.94.94,0,0,1-1,1,1,1,0,0,1-1-1V83.76c0-1.31-.66-2.07-1.81-2.07a1.89,1.89,0,0,0-1.91,2.11v3.9a1,1,0,0,1-1.95,0V81Z"/><path d="M173.64,77.82a1.13,1.13,0,0,1,2.22,0v.1a1.12,1.12,0,0,1-2.22,0Zm.15,3.17a1,1,0,0,1,1-1,1,1,0,0,1,1,1V87.7a1,1,0,0,1-1.94,0Z"/><path d="M182.15,88.77a4.23,4.23,0,0,1-4.35-4.4v0a4.21,4.21,0,0,1,4.14-4.41,4,4,0,0,1,4,4.17.91.91,0,0,1-.91.93h-5.32a2.37,2.37,0,0,0,2.44,2.15,3.06,3.06,0,0,0,2-.74.72.72,0,0,1,.5-.17.76.76,0,0,1,.77.78.9.9,0,0,1-.26.6A4.34,4.34,0,0,1,182.15,88.77Zm1.93-5a2.2,2.2,0,0,0-2.15-2.23,2.29,2.29,0,0,0-2.2,2.23Z"/><path d="M192.38,83.67a1,1,0,0,1,.94-1h3a1,1,0,0,1,.95,1,1,1,0,0,1-.95.94h-3A1,1,0,0,1,192.38,83.67Z"/><path d="M204.37,78.34a1,1,0,0,1,1-1h4a4.05,4.05,0,0,1,2.93,1,2.52,2.52,0,0,1,.76,1.86v0a2.69,2.69,0,0,1-1.61,2.51,2.75,2.75,0,0,1,2.23,2.73v0c0,2-1.65,3.08-4.15,3.08h-4.21a1,1,0,0,1-1-1V78.34ZM209,82.08c1.26,0,2.11-.5,2.11-1.53v0c0-.88-.7-1.43-2-1.43h-2.84v3Zm.57,4.75c1.35,0,2.17-.53,2.17-1.54v0c0-1-.75-1.51-2.31-1.51h-3.13v3.08Z"/><path d="M215.73,81a1,1,0,0,1,1-1,1,1,0,0,1,1,1v.86A2.7,2.7,0,0,1,219.81,80a.9.9,0,0,1,1,1,.92.92,0,0,1-.77.94c-1.38.24-2.33,1.3-2.33,3.3V87.7a1,1,0,0,1-1,1,1,1,0,0,1-1-1V81Z"/><path d="M229.89,87.7a1,1,0,0,1-2,0v-.44a3.06,3.06,0,0,1-2.65,1.5c-1.91,0-3-1.29-3-3.26V81a1,1,0,1,1,2,0v3.93c0,1.31.65,2,1.81,2a1.87,1.87,0,0,0,1.91-2.08V81a1,1,0,0,1,1-1,1,1,0,0,1,1,1V87.7Z"/><path d="M232.14,87.17l2.4-2.89-2.23-2.65a1.15,1.15,0,0,1-.32-.74.88.88,0,0,1,.9-.9,1.1,1.1,0,0,1,.9.48L235.7,83l1.94-2.49a1.1,1.1,0,0,1,.84-.5.87.87,0,0,1,.91.85,1,1,0,0,1-.27.66l-2.3,2.75,2.38,2.8a1.18,1.18,0,0,1,.32.74.88.88,0,0,1-.9.9,1.08,1.08,0,0,1-.9-.5l-2.05-2.64-2.06,2.64a1.1,1.1,0,0,1-.85.5.87.87,0,0,1-.9-.85A.93.93,0,0,1,232.14,87.17Z"/><path d="M245.06,88.77a4.23,4.23,0,0,1-4.35-4.4v0a4.21,4.21,0,0,1,4.14-4.41,4,4,0,0,1,4,4.17A.91.91,0,0,1,248,85h-5.31a2.37,2.37,0,0,0,2.44,2.15,3.06,3.06,0,0,0,2-.74.71.71,0,0,1,.49-.17.75.75,0,0,1,.77.78.89.89,0,0,1-.25.6A4.36,4.36,0,0,1,245.06,88.77Zm1.92-5a2.2,2.2,0,0,0-2.15-2.23,2.29,2.29,0,0,0-2.2,2.23Z"/><path d="M251,77.74a1,1,0,0,1,1-1,1,1,0,0,1,1,1v10a1,1,0,0,1-1.94,0Z"/><path d="M255.57,77.74a1,1,0,0,1,1-1,1,1,0,0,1,1,1v10a1,1,0,0,1-1.94,0Z"/><path d="M263.93,88.77a4.23,4.23,0,0,1-4.35-4.4v0a4.21,4.21,0,0,1,4.14-4.41,4,4,0,0,1,4,4.17.9.9,0,0,1-.91.93h-5.31A2.35,2.35,0,0,0,264,87.18a3,3,0,0,0,2-.74.74.74,0,0,1,.5-.17.76.76,0,0,1,.77.78.85.85,0,0,1-.26.6A4.34,4.34,0,0,1,263.93,88.77Zm1.93-5a2.2,2.2,0,0,0-2.15-2.23,2.29,2.29,0,0,0-2.2,2.23Z"/><path d="M269.42,87.73a.75.75,0,0,1-.37-.68.78.78,0,0,1,.79-.78.9.9,0,0,1,.42.11,4.45,4.45,0,0,0,2.44.82c.83,0,1.31-.35,1.31-.92v0c0-.66-.9-.88-1.89-1.19-1.25-.35-2.65-.86-2.65-2.48v0c0-1.6,1.33-2.58,3-2.58a5.85,5.85,0,0,1,2.66.69.81.81,0,0,1,.47.74.77.77,0,0,1-.8.78.83.83,0,0,1-.39-.09,4.55,4.55,0,0,0-2-.58c-.75,0-1.19.35-1.19.83v0c0,.62.92.88,1.91,1.2,1.24.39,2.64,1,2.64,2.47v0c0,1.79-1.38,2.67-3.15,2.67A5.83,5.83,0,0,1,269.42,87.73Z"/><path d="M134.38,97.5a1,1,0,0,1,2,0v9.44a1,1,0,0,1-2,0Z"/><path d="M139.13,100.25a1,1,0,0,1,1-1,1,1,0,0,1,1,1v.42a3.07,3.07,0,0,1,2.65-1.48c1.91,0,3,1.28,3,3.24V107a1,1,0,0,1-1.94,0V103c0-1.32-.66-2.08-1.82-2.08a1.89,1.89,0,0,0-1.91,2.11V107a1,1,0,0,1-1.94,0v-6.71Z"/><path d="M149.48,105.5V101h-.32a.83.83,0,0,1,0-1.66h.32V97.92a1,1,0,0,1,2,0v1.45H153a.83.83,0,1,1,0,1.66h-1.52v4.16a.92.92,0,0,0,1,1.06,4.4,4.4,0,0,0,.48,0,.81.81,0,0,1,.31,1.56,4,4,0,0,1-1.34.22A2.16,2.16,0,0,1,149.48,105.5Z"/><path d="M159.32,108a4.23,4.23,0,0,1-4.35-4.4v0a4.21,4.21,0,0,1,4.14-4.41,4,4,0,0,1,4,4.17.91.91,0,0,1-.92.93h-5.31a2.37,2.37,0,0,0,2.44,2.15,3.11,3.11,0,0,0,2-.73.68.68,0,0,1,.5-.18.77.77,0,0,1,.77.78.88.88,0,0,1-.26.6A4.34,4.34,0,0,1,159.32,108Zm1.93-5a2.2,2.2,0,0,0-2.15-2.23,2.28,2.28,0,0,0-2.2,2.23Z"/><path d="M165.13,100.25a1,1,0,0,1,1-1,1,1,0,0,1,1,1v.86a2.72,2.72,0,0,1,2.14-1.86.9.9,0,0,1,1,1,.92.92,0,0,1-.77.93c-1.38.24-2.33,1.3-2.33,3.3V107a1,1,0,0,1-1,1,1,1,0,0,1-1-1Z"/><path d="M171.76,100.25a1,1,0,0,1,1-1,1,1,0,0,1,1,1v.42a3.07,3.07,0,0,1,2.65-1.48c1.91,0,3,1.28,3,3.24V107a1,1,0,0,1-1.94,0V103c0-1.32-.66-2.08-1.82-2.08a1.89,1.89,0,0,0-1.91,2.11V107a1,1,0,0,1-1.94,0v-6.71Z"/><path d="M181.15,105.4v0c0-1.83,1.43-2.73,3.5-2.73a7,7,0,0,1,2.28.35v-.21c0-1.2-.74-1.84-2.1-1.84a5.23,5.23,0,0,0-1.88.33.87.87,0,0,1-.31,0,.81.81,0,0,1-.82-.8.86.86,0,0,1,.53-.77,7.43,7.43,0,0,1,2.73-.5,3.79,3.79,0,0,1,2.81,1,3.51,3.51,0,0,1,.92,2.62V107a.93.93,0,0,1-.95.93.88.88,0,0,1-1-.82v-.32a3.43,3.43,0,0,1-2.76,1.24A2.71,2.71,0,0,1,181.15,105.4Zm5.81-.61v-.58a5.49,5.49,0,0,0-1.93-.33c-1.25,0-2,.53-2,1.41v0c0,.82.73,1.28,1.66,1.28C186,106.6,187,105.87,187,104.79Z"/><path d="M191.45,105.5V101h-.32a.83.83,0,1,1,0-1.66h.32V97.92a1,1,0,0,1,2,0v1.45h1.52a.83.83,0,1,1,0,1.66H193.4v4.16a.92.92,0,0,0,1,1.06,4.4,4.4,0,0,0,.48,0,.81.81,0,0,1,.31,1.56,4,4,0,0,1-1.34.22A2.16,2.16,0,0,1,191.45,105.5Z"/><path d="M197.62,97.09a1.12,1.12,0,0,1,2.21,0v.09a1.11,1.11,0,0,1-2.21,0Zm.14,3.16a1,1,0,0,1,1-1,1,1,0,0,1,1,1V107a1,1,0,0,1-1.94,0Z"/><path d="M201.77,103.65v0a4.44,4.44,0,0,1,4.53-4.43,4.39,4.39,0,0,1,4.51,4.4v0a4.43,4.43,0,0,1-4.54,4.41A4.38,4.38,0,0,1,201.77,103.65Zm7.1,0v0a2.63,2.63,0,0,0-2.6-2.73,2.54,2.54,0,0,0-2.55,2.7v0a2.6,2.6,0,0,0,2.58,2.71A2.55,2.55,0,0,0,208.87,103.65Z"/><path d="M212.79,100.25a1,1,0,0,1,1-1,1,1,0,0,1,1,1v.42a3.06,3.06,0,0,1,2.65-1.48c1.91,0,3,1.28,3,3.24V107a.94.94,0,0,1-1,1,1,1,0,0,1-1-1V103c0-1.32-.66-2.08-1.81-2.08a1.89,1.89,0,0,0-1.91,2.11V107a1,1,0,0,1-1.95,0v-6.71Z"/><path d="M222.18,105.4v0c0-1.83,1.42-2.73,3.49-2.73A7,7,0,0,1,228,103v-.21c0-1.2-.73-1.84-2.1-1.84a5.23,5.23,0,0,0-1.88.33.86.86,0,0,1-.3,0,.81.81,0,0,1-.82-.8.85.85,0,0,1,.53-.77,7.35,7.35,0,0,1,2.73-.5,3.81,3.81,0,0,1,2.81,1,3.54,3.54,0,0,1,.91,2.62V107a.92.92,0,0,1-.94.93.87.87,0,0,1-.95-.82v-.32a3.45,3.45,0,0,1-2.76,1.24A2.71,2.71,0,0,1,222.18,105.4Zm5.81-.61v-.58a5.49,5.49,0,0,0-1.93-.33c-1.25,0-2,.53-2,1.41v0c0,.82.72,1.28,1.65,1.28C227,106.6,228,105.87,228,104.79Z"/><path d="M232.27,97a1,1,0,0,1,1.94,0V107a1,1,0,0,1-1.94,0Z"/><path d="M237.7,105.55a1.09,1.09,0,0,1,1.12,1.1v.16a1.13,1.13,0,0,1-2.26,0v-.16A1.09,1.09,0,0,1,237.7,105.55Z"/><path d="M241.07,97a1,1,0,0,1,1-1,1,1,0,0,1,1,1v3.77a3.38,3.38,0,0,1,2.89-1.59c2,0,3.93,1.57,3.93,4.4v0c0,2.81-1.92,4.4-3.93,4.4a3.46,3.46,0,0,1-2.89-1.5V107a1,1,0,0,1-1.94,0Zm6.79,6.61v0a2.52,2.52,0,0,0-2.43-2.72,2.57,2.57,0,0,0-2.47,2.72v0a2.56,2.56,0,0,0,2.47,2.71A2.48,2.48,0,0,0,247.86,103.62Z"/><path d="M255.72,108a4.23,4.23,0,0,1-4.35-4.4v0a4.21,4.21,0,0,1,4.14-4.41,4,4,0,0,1,4,4.17.9.9,0,0,1-.91.93h-5.31a2.35,2.35,0,0,0,2.43,2.15,3.08,3.08,0,0,0,2-.73.7.7,0,0,1,.5-.18.77.77,0,0,1,.77.78.84.84,0,0,1-.26.6A4.34,4.34,0,0,1,255.72,108Zm1.93-5a2.2,2.2,0,0,0-2.15-2.23,2.29,2.29,0,0,0-2.2,2.23Z"/><path d="M163.33,124.71l2.84-6.21a.52.52,0,0,1,.5-.35h0a.5.5,0,0,1,.49.35l2.84,6.2a.53.53,0,0,1,.05.2.38.38,0,0,1-.38.38.43.43,0,0,1-.39-.29l-.73-1.61h-3.84L164,125a.4.4,0,0,1-.38.27.36.36,0,0,1-.36-.36A.46.46,0,0,1,163.33,124.71Zm4.95-2-1.61-3.58-1.61,3.58Z"/><path d="M175.81,124.89a.38.38,0,1,1-.76,0v-.56a2,2,0,0,1-1.77,1,1.89,1.89,0,0,1-2-2.07V120.4a.38.38,0,0,1,.38-.39.39.39,0,0,1,.39.39v2.68a1.38,1.38,0,0,0,1.43,1.56,1.53,1.53,0,0,0,1.55-1.62V120.4a.38.38,0,0,1,.38-.39.38.38,0,0,1,.38.39Z"/><path d="M177.38,124.68l1.69-2.08-1.59-1.95a.41.41,0,0,1-.12-.28.35.35,0,0,1,.36-.36.42.42,0,0,1,.34.18l1.49,1.89L181,120.2a.46.46,0,0,1,.33-.19.34.34,0,0,1,.35.35.37.37,0,0,1-.1.25l-1.6,2,1.67,2.06a.45.45,0,0,1,.11.28.35.35,0,0,1-.36.36.39.39,0,0,1-.33-.18l-1.57-2-1.56,2a.42.42,0,0,1-.33.19.35.35,0,0,1-.35-.35A.33.33,0,0,1,177.38,124.68Z"/><path d="M186.37,124.83v-6.2a.4.4,0,0,1,.39-.4h4.35a.36.36,0,1,1,0,.72h-4v2.39h3.5a.36.36,0,0,1,.36.36.36.36,0,0,1-.36.36h-3.5v2.45h4a.36.36,0,0,1,0,.72h-4.4A.4.4,0,0,1,186.37,124.83Z"/><path d="M193.21,123.86v-3.12h-.42a.35.35,0,0,1-.34-.34.34.34,0,0,1,.34-.34h.42v-1.22a.38.38,0,0,1,.38-.39.4.4,0,0,1,.39.39v1.22h1.34a.35.35,0,0,1,.35.34.35.35,0,0,1-.35.34H194v3a.76.76,0,0,0,.87.86,2.18,2.18,0,0,0,.47-.07.33.33,0,0,1,.33.33.32.32,0,0,1-.22.3,1.94,1.94,0,0,1-.76.14A1.32,1.32,0,0,1,193.21,123.86Z"/><path d="M196.59,123.73v0c0-1.09.9-1.67,2.21-1.67a5.49,5.49,0,0,1,1.59.22v-.18c0-.93-.57-1.41-1.54-1.41a3.23,3.23,0,0,0-1.34.29l-.14,0a.34.34,0,0,1-.34-.33.35.35,0,0,1,.21-.32,4.08,4.08,0,0,1,1.69-.35,2.27,2.27,0,0,1,1.67.57,2,2,0,0,1,.53,1.51v2.83a.37.37,0,0,1-.37.38.35.35,0,0,1-.37-.36v-.47a2.27,2.27,0,0,1-1.87.89A1.74,1.74,0,0,1,196.59,123.73Zm3.81-.4v-.5a5.39,5.39,0,0,0-1.52-.22c-1,0-1.51.42-1.51,1.07v0c0,.65.6,1,1.3,1A1.56,1.56,0,0,0,200.4,123.33Z"/><path d="M203,123.86v-3.12h-.42a.35.35,0,0,1-.34-.34.34.34,0,0,1,.34-.34H203v-1.22a.38.38,0,0,1,.38-.39.4.4,0,0,1,.39.39v1.22h1.33a.35.35,0,0,1,.35.34.35.35,0,0,1-.35.34h-1.33v3a.76.76,0,0,0,.87.86,2.16,2.16,0,0,0,.46-.07.33.33,0,0,1,.33.33.32.32,0,0,1-.22.3,1.94,1.94,0,0,1-.76.14A1.31,1.31,0,0,1,203,123.86Z"/><path d="M206.47,124.68a.35.35,0,0,1-.14-.28.34.34,0,0,1,.34-.33.31.31,0,0,1,.19.06,2.9,2.9,0,0,0,1.64.55c.62,0,1.07-.32,1.07-.82v0c0-.52-.61-.72-1.29-.91s-1.71-.51-1.71-1.46v0a1.56,1.56,0,0,1,1.76-1.48,3.6,3.6,0,0,1,1.65.44.37.37,0,0,1,.19.32.34.34,0,0,1-.34.33.39.39,0,0,1-.17,0,2.8,2.8,0,0,0-1.35-.4c-.61,0-1,.32-1,.75v0c0,.49.64.68,1.33.89s1.66.55,1.66,1.48v0a1.63,1.63,0,0,1-1.84,1.55A3.58,3.58,0,0,1,206.47,124.68Z"/><path d="M211.47,122.22a.41.41,0,0,1,.4-.4H214a.41.41,0,0,1,0,.81h-2.08A.41.41,0,0,1,211.47,122.22Z"/><path d="M215.83,122.3v-3.72a.4.4,0,1,1,.79,0v3.67a2.06,2.06,0,0,0,2.14,2.36c1.29,0,2.11-.78,2.11-2.31v-3.72a.4.4,0,1,1,.79,0v3.66a2.92,2.92,0,1,1-5.83.06Z"/><path d="M223.4,120.4a.39.39,0,0,1,.38-.39.38.38,0,0,1,.39.39V121a2,2,0,0,1,1.77-1,1.89,1.89,0,0,1,2,2.07v2.87a.39.39,0,1,1-.77,0v-2.68a1.38,1.38,0,0,0-1.43-1.56,1.52,1.52,0,0,0-1.55,1.62v2.62a.38.38,0,0,1-.38.39.38.38,0,0,1-.39-.39V120.4Z"/><path d="M229.55,118.44a.46.46,0,0,1,.91,0v.13a.46.46,0,0,1-.91,0Zm.07,2A.39.39,0,0,1,230,120a.38.38,0,0,1,.39.39v4.49a.38.38,0,0,1-.38.39.38.38,0,0,1-.39-.39Z"/><path d="M231.9,124.68a.35.35,0,0,1-.14-.28.34.34,0,0,1,.34-.33.31.31,0,0,1,.19.06,2.9,2.9,0,0,0,1.64.55c.62,0,1.07-.32,1.07-.82v0c0-.52-.61-.72-1.29-.91s-1.71-.51-1.71-1.46v0a1.56,1.56,0,0,1,1.76-1.48,3.6,3.6,0,0,1,1.65.44.37.37,0,0,1,.19.32.34.34,0,0,1-.34.33.39.39,0,0,1-.17,0,2.8,2.8,0,0,0-1.35-.4c-.61,0-1,.32-1,.75v0c0,.49.64.68,1.33.89s1.66.55,1.66,1.48v0a1.63,1.63,0,0,1-1.84,1.55A3.58,3.58,0,0,1,231.9,124.68Z"/></svg>