<svg id="Layer_1" data-name="Layer 1" xmlns="http://www.w3.org/2000/svg" viewBox="0 0 371.98 261.99"><path d="M199.67,95A13.61,13.61,0,1,1,186,81.46,13.53,13.53,0,0,1,199.67,95Z"/><path d="M145.31,81.46a13.6,13.6,0,1,1-13.57,13.66A13.58,13.58,0,0,1,145.31,81.46Z"/><path d="M165.67,67.89a13.45,13.45,0,0,1-13.55-13.65,13.61,13.61,0,1,1,13.55,13.65Z"/><path d="M206.3,67.89a13.49,13.49,0,0,1-13.46-13.75A13.61,13.61,0,1,1,206.3,67.89Z"/><path d="M124.9,67.89A13.42,13.42,0,0,1,111.4,54.2a13.6,13.6,0,0,1,27.2.18A13.47,13.47,0,0,1,124.9,67.89Z"/><path d="M10.93,155.19c.7-2.05,1.41-4.11,2.09-6.17,1.14-3.47,2.26-7,3.41-10.42a6,6,0,0,1,.57-1.35,2.62,2.62,0,0,1,4.48.14,7.5,7.5,0,0,1,.47,1.22q2.51,7.62,5,15.23c.16.51.37,1,.66,1.76.25-.66.43-1.08.58-1.51l4.88-14.58a17.78,17.78,0,0,1,.67-1.85,2.39,2.39,0,0,1,3.13-1.3,2.23,2.23,0,0,1,1.2,3c-1.48,4.22-3,8.43-4.5,12.64l-3.19,8.94a2.9,2.9,0,0,1-2.19,2.2,2.69,2.69,0,0,1-3.28-2c-.92-2.57-1.78-5.16-2.66-7.74s-1.75-5.17-2.64-7.75c-.12-.34-.29-.67-.55-1.24-.75,2.17-1.43,4.12-2.1,6.08q-1.81,5.26-3.6,10.53a2.69,2.69,0,0,1-2.55,2.16,2.68,2.68,0,0,1-2.94-2.09c-1-2.71-2-5.44-2.93-8.16L.47,140.26c-.13-.36-.27-.71-.37-1.08a2.26,2.26,0,0,1,1.17-2.75,2.5,2.5,0,0,1,3.17.88A8.1,8.1,0,0,1,5.11,139c1.65,4.91,3.28,9.83,4.93,14.74.17.5.36,1,.55,1.5Z"/><path d="M226.78,27.19a13.41,13.41,0,0,1-13.59-13.64,13.63,13.63,0,1,1,27.25.22C240.34,21.05,234.16,27.4,226.78,27.19Zm0-5.51a8.08,8.08,0,1,0,0-16.16,8.19,8.19,0,0,0-8.06,8A8.12,8.12,0,0,0,226.79,21.68Z"/><path d="M247.18,67.89a13.59,13.59,0,0,1-.09-27.18,13.59,13.59,0,1,1,.09,27.18Zm8.07-13.49a8.09,8.09,0,1,0-8.18,8.05A8.17,8.17,0,0,0,255.25,54.4Z"/><path d="M240.38,95a13.43,13.43,0,0,1-13.6,13.61,13.6,13.6,0,1,1,.14-27.19A13.44,13.44,0,0,1,240.38,95Zm-5.46,0a8.12,8.12,0,1,0-8.16,8.1A8.12,8.12,0,0,0,234.92,95.06Z"/><path d="M221.45,149l1.49.76a5.88,5.88,0,0,1,3.43,5.53,6.36,6.36,0,0,1-3.28,6,13,13,0,0,1-6.47,1.51c-3.11.07-6.22,0-9.34,0-2.13,0-3-.88-3-3q0-10.23,0-20.48c0-2.15.83-3,3-3,3.06,0,6.12,0,9.18,0a10.74,10.74,0,0,1,4.76,1,6.39,6.39,0,0,1,1.13,10.95Zm-12.36,9.55c3,0,5.73,0,8.5,0a5.86,5.86,0,0,0,2.19-.59,3.19,3.19,0,0,0,1.78-3.8,3.32,3.32,0,0,0-2.82-2.41c-3.18-.63-6.38-.22-9.65-.32Zm0-17.94v6.8c2.41,0,4.69,0,7,0a6.5,6.5,0,0,0,2.18-.56,2.91,2.91,0,0,0,1.86-3,3.14,3.14,0,0,0-3.26-3.19C214.36,140.5,211.8,140.63,209.14,140.63Z"/><path d="M295.24,205.34a12.31,12.31,0,0,1-.3,1.2,2.3,2.3,0,0,1-2.56,1.56,2.25,2.25,0,0,1-1.91-2.14,8,8,0,0,1,0-1V183.36c0-.33,0-.66,0-1a2.18,2.18,0,0,1,2.21-2.16,2.25,2.25,0,0,1,2.38,2,13.49,13.49,0,0,1,0,1.8v6.83c.48-.43.72-.61.92-.83,3.56-3.8,9.5-2.91,12.51.55a11.83,11.83,0,0,1,.06,14.68,8.68,8.68,0,0,1-12.44.89Zm11.12-7.27h-.09a10.84,10.84,0,0,0,0-1.14,5.72,5.72,0,0,0-4.8-5.23,5.59,5.59,0,0,0-6.08,3.88,7,7,0,0,0,.05,5A5.64,5.64,0,0,0,301,204.3a5.47,5.47,0,0,0,5.11-4.3A17.24,17.24,0,0,0,306.36,198.07Z"/><path d="M198.3,198.07a10.6,10.6,0,1,1,10.57,10.33A10.23,10.23,0,0,1,198.3,198.07Zm4.6-.15a6.12,6.12,0,0,0,6,6.4,6,6,0,0,0,6-6.26,6.1,6.1,0,0,0-6.05-6.38C205.42,191.67,202.92,194.28,202.9,197.92Z"/><path d="M93.77,163.22a10.24,10.24,0,0,1-10.58-10.33,10.35,10.35,0,0,1,10.67-10.46c6,0,10.7,4.49,10.62,10.34A10.33,10.33,0,0,1,93.77,163.22Zm-5.93-10.36a6.05,6.05,0,0,0,6,6.28,5.9,5.9,0,0,0,6-6.34,6.1,6.1,0,0,0-6.13-6.3C90.27,146.53,87.82,149.21,87.84,152.86Z"/><path d="M259.31,206a9.31,9.31,0,0,1-5,2.28,8.45,8.45,0,0,1-4.79-.75,6.14,6.14,0,0,1-.06-10.91,12.76,12.76,0,0,1,7.22-.85c.92.11,1.82.34,2.72.51a3.39,3.39,0,0,0-2.48-4.24,9.8,9.8,0,0,0-5.5.15c-.47.12-.93.33-1.41.41a1.93,1.93,0,0,1-2.19-1.3,1.86,1.86,0,0,1,1-2.33,19.59,19.59,0,0,1,3.61-1,14.48,14.48,0,0,1,6.18.14A6.71,6.71,0,0,1,264,194a22.86,22.86,0,0,1,.24,3.1c0,2.78,0,5.57,0,8.35a2.37,2.37,0,0,1-1.33,2.43,2.1,2.1,0,0,1-2.32-.19A8.41,8.41,0,0,1,259.31,206Zm.3-6.63a10.82,10.82,0,0,0-4.84-.73,8.39,8.39,0,0,0-2.77.84,2.55,2.55,0,0,0-1.32,2.63,2.62,2.62,0,0,0,1.72,2.38C255.43,205.78,260.53,204.19,259.61,199.4Z"/><path d="M52.6,160.7a8.73,8.73,0,0,1-4,2.25,9.59,9.59,0,0,1-4.7-.08,6.12,6.12,0,0,1-.4-11.76,14.91,14.91,0,0,1,7.76-.23l1.27.26a3.43,3.43,0,0,0-2.68-4.31,10.2,10.2,0,0,0-5.34.26,10.1,10.1,0,0,1-1.41.37,1.91,1.91,0,0,1-1.19-3.58,6,6,0,0,1,1.36-.55,16.49,16.49,0,0,1,7.61-.57c4.06.73,6.33,3.32,6.41,7.46.07,3.38,0,6.77,0,10.16,0,1.52-.59,2.32-1.78,2.52s-2.17-.29-2.73-1.71Zm.07-6.49a9.09,9.09,0,0,0-1.18-.37,9.4,9.4,0,0,0-5.63.12,2.88,2.88,0,0,0-2,3,2.84,2.84,0,0,0,2.35,2.58,6.14,6.14,0,0,0,4-.29C52.41,158.39,53.23,156.7,52.67,154.21Z"/><path d="M163.24,205.83a9.19,9.19,0,0,1-5,2.47,8.77,8.77,0,0,1-4.65-.6,6.1,6.1,0,0,1-.11-11.18,13.17,13.17,0,0,1,6.92-.72c.92.11,1.82.33,2.73.5a3.34,3.34,0,0,0-2.33-4.19,9.63,9.63,0,0,0-5.65.12c-.37.09-.72.25-1.09.34a2,2,0,0,1-2.51-1.26,1.89,1.89,0,0,1,1.19-2.39,18.65,18.65,0,0,1,3.46-.95,14.64,14.64,0,0,1,5.86.07c3.41.78,5.54,3,5.73,6.47.21,3.81.12,7.64.09,11.46A2,2,0,0,1,166,208.1a2.22,2.22,0,0,1-2.5-1.39C163.41,206.47,163.36,206.21,163.24,205.83Zm.19-6.38a10.85,10.85,0,0,0-4.83-.79,7.68,7.68,0,0,0-2.36.56,2.82,2.82,0,0,0-1.82,3,2.86,2.86,0,0,0,2.23,2.52,7.77,7.77,0,0,0,2.26.17C162,204.73,163.71,202.7,163.43,199.45Z"/><path d="M319.42,199.6c.39,3.65,3.57,5.71,7.2,4.77a12.16,12.16,0,0,0,2.22-1c.34-.17.62-.46,1-.64a1.87,1.87,0,0,1,2.32,2.89,6,6,0,0,1-1.39,1.13,10.65,10.65,0,0,1-11.34.15c-3.69-2.14-5-5.65-4.72-9.74s2-7.15,5.84-8.78c6.18-2.66,13.07,1.16,13.33,8.73.05,1.7-.75,2.46-2.51,2.47-3.38,0-6.77,0-10.15,0Zm0-3.1h9.67a4.89,4.89,0,0,0-4.83-5.12C321.89,191.32,319.19,193.86,319.45,196.5Z"/><path d="M338.73,154.43a5.27,5.27,0,0,0,5.75,5,7.42,7.42,0,0,0,4-1.4c1.36-1,2.47-.92,3.13.07s.32,2.11-1,3.07a11.12,11.12,0,0,1-11.91.68A10.32,10.32,0,0,1,334,151.28c.64-4.11,2.68-7.2,6.79-8.4,6.57-1.93,12,2.38,12.35,9,.08,1.68-.74,2.5-2.49,2.51-3.33,0-6.66,0-10,0Zm9.66-3.14a4.87,4.87,0,0,0-5.2-5,4.79,4.79,0,0,0-4.37,5Z"/><path d="M294.43,154.43a5.3,5.3,0,0,0,5.81,5,7,7,0,0,0,3.67-1.23c.27-.19.53-.4.81-.56a1.87,1.87,0,0,1,2.5.37,2,2,0,0,1-.17,2.56,2.73,2.73,0,0,1-.35.33c-4.63,4-14.1,3.2-16.58-4.46-1.55-4.81.16-10.13,4.16-12.56a9.3,9.3,0,0,1,9.82-.22c3.19,1.76,4.54,4.76,4.72,8.3.09,1.7-.73,2.47-2.5,2.48-3.33,0-6.66,0-10,0Zm0-3.22c2.19.33,8.75.22,9.78-.16-.52-3.18-2.42-5-5.14-4.81A5,5,0,0,0,294.4,151.21Z"/><path d="M146.94,154.43a4.93,4.93,0,0,0,4,4.83,6.8,6.8,0,0,0,5-.86c.37-.23.71-.51,1.09-.73a1.89,1.89,0,0,1,2.51.25,1.93,1.93,0,0,1-.18,2.67,10.17,10.17,0,0,1-2.12,1.5c-4.65,2.46-10.85,1-13.59-3.23a11.25,11.25,0,0,1,2.12-14.42c4.35-3.51,13-2.9,15.1,5.15a10.3,10.3,0,0,1,.34,2.26c.07,1.71-.71,2.55-2.42,2.57-3.39,0-6.78,0-10.16,0Zm-.08-3.13h9.68a4.82,4.82,0,0,0-4.67-5.07C149.18,146.17,147.05,148.25,146.86,151.3Z"/><path d="M93.25,199.6a5.5,5.5,0,0,0,7.37,4.71,15.47,15.47,0,0,0,2.89-1.48,2,2,0,0,1,2.54.24,1.93,1.93,0,0,1-.14,2.66,5.59,5.59,0,0,1-.88.73,10.65,10.65,0,0,1-7.12,1.93A9.76,9.76,0,0,1,88.63,200c-.89-5.54,1.85-9.88,5.71-11.59a9.45,9.45,0,0,1,13.34,8.75c0,1.75-.72,2.46-2.5,2.47-3.44,0-6.89,0-10.33,0Zm9.83-3.09c-.43-3.36-2.31-5.14-5-5.12a5.16,5.16,0,0,0-4.78,5.12Z"/><path d="M114,145.58a11.67,11.67,0,0,1,1.14-1.44,7.39,7.39,0,0,1,10,.38,6.41,6.41,0,0,1,1.77,4.3c.08,4,.08,8,0,11.94a2.09,2.09,0,0,1-2.17,2.18,2.19,2.19,0,0,1-2.41-2.14c-.09-1.85,0-3.71,0-5.56,0-1.48,0-3,0-4.42-.12-2.59-1.67-4.12-4.12-4.13a4.16,4.16,0,0,0-4.41,4.09c-.07,1,0,2,0,2.95,0,2,0,4,0,6.05a5.77,5.77,0,0,1-.18,1.61,2.16,2.16,0,0,1-2.41,1.54,2.12,2.12,0,0,1-2-1.82,7.85,7.85,0,0,1-.09-1.46V145.9a7.85,7.85,0,0,1,.1-1.46,2.21,2.21,0,0,1,2-1.84,2.32,2.32,0,0,1,2.33,1.44C113.61,144.43,113.72,144.84,114,145.58Z"/><path d="M56.11,190.62a7.55,7.55,0,0,1,5-3c4.73-.57,7.84,2.32,8.07,6.5.11,1.91,0,3.82,0,5.73s0,3.83,0,5.74c0,1.6-.79,2.46-2.18,2.5a2.25,2.25,0,0,1-2.39-2.5c0-2.73,0-5.46,0-8.19a11.65,11.65,0,0,0-.19-2.44,3.83,3.83,0,0,0-3.5-3.18,4.15,4.15,0,0,0-4.42,2.43,7.69,7.69,0,0,0-.49,2.7c-.07,2.62,0,5.24,0,7.86A8.83,8.83,0,0,1,56,206a2.27,2.27,0,0,1-2.24,2.17,2.18,2.18,0,0,1-2.35-2,8.16,8.16,0,0,1-.08-1.31q0-6.79,0-13.6a8.7,8.7,0,0,1,0-1.14,2.31,2.31,0,0,1,4.56-.48A10.35,10.35,0,0,1,56.11,190.62Z"/><path d="M228.89,190.6a8,8,0,0,1,4.89-2.95c4.38-.63,7.86,2,8.15,6.4.16,2.34.08,4.69.09,7,0,1.53,0,3.06,0,4.59a2.23,2.23,0,0,1-2.27,2.45,2.29,2.29,0,0,1-2.34-2.55c0-2.84,0-5.68,0-8.51a9.84,9.84,0,0,0-.12-1.8,3.87,3.87,0,0,0-4.09-3.46,4.15,4.15,0,0,0-4.27,3.54,19.93,19.93,0,0,0-.19,3.1c0,2.4,0,4.8,0,7.2a2.21,2.21,0,0,1-1.74,2.43,2.24,2.24,0,0,1-2.78-1.84,9,9,0,0,1-.06-1.47q0-6.8,0-13.58a11.41,11.41,0,0,1,0-1.31,2.15,2.15,0,0,1,2-2.06,2.21,2.21,0,0,1,2.51,1.62C228.7,189.73,228.75,190,228.89,190.6Z"/><path d="M259.51,160.18l-.93.9a7.51,7.51,0,0,1-8.5,1.43,6.23,6.23,0,0,1-3.47-4.51,12.83,12.83,0,0,1-.31-2.76c0-3.17,0-6.34,0-9.5a5.44,5.44,0,0,1,.21-1.61,2.2,2.2,0,0,1,2.26-1.54,2.31,2.31,0,0,1,2.09,1.79A8,8,0,0,1,251,146c0,2.51,0,5,0,7.54a12.7,12.7,0,0,0,.07,1.63,3.87,3.87,0,0,0,3.82,3.76,4.21,4.21,0,0,0,4.5-3.26,8.44,8.44,0,0,0,.23-1.94c0-2.51,0-5,0-7.54,0-.33,0-.66,0-1,.06-1.6,1-2.64,2.31-2.63a2.44,2.44,0,0,1,2.36,2.6c-.07,3.71,0,7.42,0,11.14,0,1.42,0,2.84,0,4.26a2.21,2.21,0,0,1-2,2.34,2.25,2.25,0,0,1-2.55-1.8A7.85,7.85,0,0,1,259.51,160.18Z"/><path d="M132.6,190.58c.49-.47.83-.8,1.19-1.12a7.13,7.13,0,0,1,7.48-1.46c2.63.83,3.93,2.8,4.34,5.43a12.91,12.91,0,0,1,.21,1.95c0,3.28,0,6.56,0,9.84a4.2,4.2,0,0,1-.16,1.28,2.3,2.3,0,0,1-4.43-.16,7.22,7.22,0,0,1-.1-1.47c0-2.57,0-5.13,0-7.7a12,12,0,0,0-.11-1.8,3.85,3.85,0,0,0-3.65-3.57,4.25,4.25,0,0,0-4.56,3,8.61,8.61,0,0,0-.3,2.26c0,2.62,0,5.25,0,7.87a8.21,8.21,0,0,1-.06,1.31,2.2,2.2,0,0,1-2.29,1.91,2.25,2.25,0,0,1-2.25-2,8,8,0,0,1,0-1.3V191.08a11,11,0,0,1,0-1.15A2.21,2.21,0,0,1,130,187.8a2.26,2.26,0,0,1,2.46,1.72A8.42,8.42,0,0,1,132.6,190.58Z"/><path d="M332.64,262H40c0-.15,0-.21,0-.25a.17.17,0,0,1,.14-.07c.49,0,1-.06,1.47-.06l290.49,0C332.23,261.65,332.3,261.75,332.64,262Z"/><path d="M332.34,220.13H40.06a1.52,1.52,0,0,1,0-.22s.06-.11.09-.11l291.66-.08a2.87,2.87,0,0,1,.57.11Z"/><path d="M277.88,149.51c1.48-1.91,2.81-3.63,4.18-5.33a5.79,5.79,0,0,1,1.26-1.26,2.08,2.08,0,0,1,2.69.31,2,2,0,0,1,.19,2.55,21,21,0,0,1-1.32,1.67l-4.28,5.13c1.56,1.85,3.1,3.67,4.63,5.5a16.15,16.15,0,0,1,1.23,1.53,2.14,2.14,0,0,1-.36,2.95,2.26,2.26,0,0,1-3-.16,9.73,9.73,0,0,1-1.07-1.23c-1.32-1.67-2.62-3.35-3.94-5-.06-.08-.18-.11-.41-.23l-2.39,3c-.71.9-1.39,1.82-2.12,2.71a5.34,5.34,0,0,1-1,1,2.16,2.16,0,0,1-2.71-.26,2.05,2.05,0,0,1-.26-2.56,9.49,9.49,0,0,1,1-1.3c1.6-1.93,3.21-3.85,4.92-5.9-1.42-1.68-2.81-3.33-4.19-5a17.57,17.57,0,0,1-1.33-1.66,2.2,2.2,0,0,1,.23-2.85,2.27,2.27,0,0,1,3-.08,7.27,7.27,0,0,1,1.19,1.34C275.25,146.05,276.5,147.7,277.88,149.51Z"/><path d="M364.25,142.51A12.65,12.65,0,0,1,370,143.9a3.45,3.45,0,0,1,1.24,1,1.77,1.77,0,0,1-.1,2.13,2,2,0,0,1-2.37.54,29.28,29.28,0,0,0-3.7-1.25,4.69,4.69,0,0,0-2.54.22,1.58,1.58,0,0,0-.25,3,18.44,18.44,0,0,0,2.85,1.2c1.31.53,2.68.94,3.94,1.57A4.82,4.82,0,0,1,372,157a5.58,5.58,0,0,1-3.13,5.18,9.13,9.13,0,0,1-4.27.94,13.59,13.59,0,0,1-6.86-1.89,5.43,5.43,0,0,1-.81-.54,1.88,1.88,0,0,1,2-3.21c.84.38,1.62.9,2.48,1.25a7.38,7.38,0,0,0,4.47.55c1.12-.26,1.8-.9,1.86-1.79a1.88,1.88,0,0,0-1.44-1.95c-1.16-.45-2.37-.8-3.55-1.22a27.13,27.13,0,0,1-2.59-1c-4.34-2.05-3.61-7.58-.57-9.55A8.13,8.13,0,0,1,364.25,142.51Z"/><path d="M80.24,188c.85,0,1.55,0,2.24,0A10.27,10.27,0,0,1,84,188,2,2,0,0,1,84,192c-.86.1-1.74,0-2.62,0l-1.15.07v2.14c0,2.4,0,4.8,0,7.21,0,2,.79,2.75,2.81,2.69,1.7,0,2.45.4,2.61,1.53s-.54,2.12-2.13,2.38a13,13,0,0,1-3.41.13,4.58,4.58,0,0,1-4.46-4.9c-.07-2.9,0-5.79,0-8.68v-2.4c-1.32-.24-2.72-.43-2.72-2.19,0-1.2.52-1.64,2.72-2.26,0-.92,0-1.88,0-2.85a2.31,2.31,0,0,1,2.19-2.55,2.36,2.36,0,0,1,2.39,2.54C80.26,185.84,80.24,186.82,80.24,188Z"/><path d="M174.09,187.73c0-1,0-2,0-3a2.29,2.29,0,1,1,4.57,0c.05,1,0,2,0,3.27h2.1a12.57,12.57,0,0,1,1.63,0,1.91,1.91,0,0,1,1.84,1.93,2,2,0,0,1-1.8,2c-.75.09-1.52,0-2.29,0-.42,0-.85.05-1.47.09v2.3c0,2.35,0,4.69,0,7,0,2,.81,2.74,2.83,2.68,1.66,0,2.48.43,2.66,1.53s-.62,2.11-2.17,2.37a12.59,12.59,0,0,1-3.41.14c-2.92-.33-4.45-2.06-4.49-5s0-6.11,0-9.17v-1.75c-2.1-.45-2.71-1-2.72-2.19S171.88,188.35,174.09,187.73Z"/><path d="M324.44,148.91q0-5.24,0-10.47a10.27,10.27,0,0,1,.06-1.47,2.28,2.28,0,0,1,4.44-.28,5,5,0,0,1,.18,1.45q0,10.88,0,21.75a5,5,0,0,1-.24,1.6,2.29,2.29,0,0,1-4.36-.32,8,8,0,0,1-.08-1.46Q324.44,154.31,324.44,148.91Z"/><path d="M67.67,149c0,3.44,0,6.87,0,10.31a10.59,10.59,0,0,1-.13,1.78,2.11,2.11,0,0,1-2.18,1.81,2.23,2.23,0,0,1-2.29-1.72,4.71,4.71,0,0,1-.1-1.13V137.84a4.36,4.36,0,0,1,0-.81,2.32,2.32,0,0,1,2.25-2,2.22,2.22,0,0,1,2.3,1.91,11.79,11.79,0,0,1,.11,1.79C67.68,142.17,67.67,145.61,67.67,149Z"/><path d="M117.07,191.27c.63-.77,1.1-1.43,1.66-2a4.23,4.23,0,0,1,3.32-1.52,2.06,2.06,0,0,1,2.1,1.71,2.23,2.23,0,0,1-1.21,2.6,2.64,2.64,0,0,1-.78.25c-2.73.45-4.9,2.76-5.12,6.37-.13,2-.05,4-.07,6.06a11.41,11.41,0,0,1,0,1.31,2.33,2.33,0,0,1-2.35,2.07,2.15,2.15,0,0,1-2.23-2,8,8,0,0,1-.09-1.47V191.24a9,9,0,0,1,.09-1.47,2.15,2.15,0,0,1,2.22-2,2.25,2.25,0,0,1,2.33,1.89A13.92,13.92,0,0,1,117.07,191.27Z"/><path d="M235.8,146c.79-.88,1.4-1.65,2.11-2.31a3.83,3.83,0,0,1,2.82-1.11,2.16,2.16,0,0,1,2.15,1.87A2.25,2.25,0,0,1,241.5,147a2.68,2.68,0,0,1-.63.18c-2.86.57-4.87,2.71-5.13,6.35-.15,2.06,0,4.14-.07,6.22a5.76,5.76,0,0,1-.16,1.61,2.17,2.17,0,0,1-2.35,1.62,2.14,2.14,0,0,1-2.11-1.9,8.1,8.1,0,0,1-.07-1.3V145.81a8.11,8.11,0,0,1,.08-1.3,2.26,2.26,0,0,1,2.13-1.92,2.3,2.3,0,0,1,2.32,1.69A14.09,14.09,0,0,1,235.8,146Z"/><path d="M274.43,194.35v10.47a9.41,9.41,0,0,1,0,1.3,2.26,2.26,0,0,1-2.22,2,2.22,2.22,0,0,1-2.33-1.87,6.18,6.18,0,0,1-.06-1.14V183.19a6.18,6.18,0,0,1,.07-1.14,2.17,2.17,0,0,1,2.19-1.83,2.24,2.24,0,0,1,2.33,1.86,7.15,7.15,0,0,1,.05,1.31Z"/><path d="M78.38,149.11c0,3.76,0,7.52,0,11.29,0,1.59-.79,2.47-2.15,2.54A2.22,2.22,0,0,1,73.79,161a8,8,0,0,1-.05-1.3V138.27a7.37,7.37,0,0,1,0-1.15A2.31,2.31,0,0,1,76.1,135a2.24,2.24,0,0,1,2.26,2.3c.06,2.24,0,4.47,0,6.71Z"/><path d="M313.73,148.88V137.6c0-1.65.9-2.6,2.3-2.56a2.36,2.36,0,0,1,2.28,2.64q0,11.35,0,22.73a2.3,2.3,0,0,1-2.84,2.49,2.14,2.14,0,0,1-1.73-2.41c0-3.65,0-7.3,0-11Z"/><path d="M40.24,194.64c0-3.6.08-7.21,0-10.81a2.36,2.36,0,0,1,3.22-2.32,2.29,2.29,0,0,1,1.43,1.84,9.52,9.52,0,0,1,0,1.31v20.15c0,.33,0,.66,0,1a2.3,2.3,0,0,1-2.43,2.32,2.14,2.14,0,0,1-2.19-2.34C40.21,202.07,40.24,198.36,40.24,194.64Z"/><path d="M132.6,152.79c0-2.4,0-4.81,0-7.21,0-1.92.84-3,2.28-3s2.4,1.13,2.41,3.08q0,7.13,0,14.25a5,5,0,0,1-.23,1.6,2.3,2.3,0,0,1-4.37-.37,9,9,0,0,1-.09-1.47Z"/><path d="M188.84,197.79c0-2.51,0-5,0-7.54a2.3,2.3,0,0,1,4.56-.56,7.15,7.15,0,0,1,.06,1.31q0,7,0,13.92a8,8,0,0,1,0,1,2.3,2.3,0,0,1-4.6-.09c-.05-1.85,0-3.71,0-5.57Z"/><path d="M164.19,234v5.53h7.88c.57,0,1,.24,1,.85s-.41.87-1,.87c-2,0-3.93,0-5.89,0h-2V247h1.71c2.3,0,4.59,0,6.88,0,1.1,0,1.5.27,1.43.88-.1.81-.71.84-1.34.84-3.11,0-6.22,0-9.34,0-1.1,0-1.32-.26-1.41-1.34,0-.16,0-.32,0-.49,0-4.25,0-8.51,0-12.76,0-1.72.16-1.86,1.88-1.87,2.79,0,5.57,0,8.36,0,.16,0,.32,0,.49,0,.62,0,1.29.08,1.24.92s-.69.85-1.32.85h-8.58Z"/><path d="M124,247.87c-.18.26-.31.66-.59.81a.85.85,0,0,1-1.23-.44,18.54,18.54,0,0,1-1.17-2.52,1.79,1.79,0,0,0-2-1.39c-2.07.1-4.16.08-6.23,0a1.63,1.63,0,0,0-1.83,1.22c-.31.88-.75,1.7-1.13,2.54a.93.93,0,0,1-1.32.59c-.56-.25-.52-.78-.37-1.27a8.16,8.16,0,0,1,.44-1.06q2.89-6.31,5.8-12.64a5.78,5.78,0,0,1,.6-1.16,1.29,1.29,0,0,1,2.1,0,5.51,5.51,0,0,1,.45.87l6,13.09C123.69,246.93,123.83,247.34,124,247.87Zm-4.41-5.32c-1.25-2.78-2.4-5.31-3.68-8.14-.74,1.65-1.32,2.93-1.89,4.22s-1.1,2.52-1.71,3.92Z"/><path d="M244.94,238.12c0,1.47.06,2.94,0,4.41-.13,2.5-1.05,4.64-3.45,5.71a7.61,7.61,0,0,1-7.65-.52,6.16,6.16,0,0,1-2.58-5.24c-.13-3,0-6-.05-9,0,0,0-.1,0-.16,0-.69.32-1.19,1.07-1.16s.88.54.88,1.15c0,1.09,0,2.18,0,3.27,0,1.86-.06,3.72,0,5.57.12,3.25,2.07,5.07,5.22,5a4.45,4.45,0,0,0,4.58-4.72c.08-2.72,0-5.45,0-8.18a8.64,8.64,0,0,1,0-1.14,1,1,0,0,1,1-.95c.67,0,1,.42,1,1.06,0,1.63,0,3.27,0,4.91Z"/><path d="M195,247.17a5.94,5.94,0,0,1-5.83,1.58,3.62,3.62,0,0,1-3-4.22,3.44,3.44,0,0,1,2.48-2.95,10.49,10.49,0,0,1,5-.25c.37,0,.74.13,1.1.19a2.59,2.59,0,0,0-1.84-3.27,6.27,6.27,0,0,0-4,.23c-.6.19-1.34.61-1.66-.28s.46-1.09,1.09-1.3a8.9,8.9,0,0,1,4.82-.41,4.1,4.1,0,0,1,3.6,4.36c0,2.12,0,4.25,0,6.37,0,.63.19,1.44-.76,1.54S195,248.1,195,247.17Zm-.11-4.19a25.66,25.66,0,0,0-3.17-.4,5.46,5.46,0,0,0-2.36.49,2.17,2.17,0,0,0-.24,3.85,4.28,4.28,0,0,0,4.49-.21A3.13,3.13,0,0,0,194.85,243Z"/><path d="M251,238.14a5.18,5.18,0,0,1,3.85-1.88c2.69,0,4.56,1.47,4.74,4.15.17,2.39.06,4.8.07,7.2,0,.6-.19,1.12-.88,1.16s-1-.48-1-1.17c0-1.58,0-3.17,0-4.75,0-.44,0-.87,0-1.31-.09-2.21-1.3-3.55-3.23-3.58a3.56,3.56,0,0,0-3.64,3.62c-.06,1.69,0,3.39,0,5.08,0,.38,0,.77,0,1.14,0,.55-.28,1-.89,1a.85.85,0,0,1-.92-.92c0-.28,0-.55,0-.82v-8.84c0-.22,0-.44,0-.66,0-.55.2-1,.76-1.09s1,.31,1.07,1C250.88,237.58,250.93,237.76,251,238.14Z"/><path d="M135.31,247.22A5.17,5.17,0,0,1,131.2,249a4.2,4.2,0,0,1-4.35-4.19c-.1-2.39,0-4.8,0-7.2,0-.62.19-1.12.88-1.13s.95.47,1,1.1c0,1.52,0,3.05,0,4.58a18.32,18.32,0,0,0,0,2c.18,2,1.27,3.07,3.1,3.11a3.27,3.27,0,0,0,3.64-3c.17-1.57.08-3.16.1-4.74,0-.55,0-1.09,0-1.64.05-1,.41-1.49,1-1.39.77.12.87.7.86,1.35,0,1.75,0,3.49,0,5.24v4.42c0,.54,0,1.16-.67,1.31s-1.07-.32-1.2-1A2.9,2.9,0,0,0,135.31,247.22Z"/><path d="M146.09,243.83,143,247.75c-.24.3-.45.68-.76.83a.82.82,0,0,1-1.25-1,3,3,0,0,1,.65-.93l3.34-4.13-2.8-3.47-.73-.89c-.4-.5-.7-1,0-1.55s1.11,0,1.52.44c.28.33.53.69.81,1l2.45,3.07,2.73-3.41a5.09,5.09,0,0,1,1-1.08,1,1,0,0,1,1,0,1.13,1.13,0,0,1,.26,1,2.65,2.65,0,0,1-.63.93c-1,1.28-2,2.54-3.18,3.93,1.06,1.3,2.09,2.55,3.11,3.82a4.34,4.34,0,0,1,.86,1.18,1.3,1.3,0,0,1-.22,1.13c-.15.18-.75.14-1,0a3.64,3.64,0,0,1-.89-.94Z"/><path d="M213.77,236.1c1.19.36,2.33.68,3.45,1.07.55.19,1,.61.71,1.25s-.83.52-1.39.31a11.6,11.6,0,0,0-2.48-.75,3.36,3.36,0,0,0-1.87.35,1.34,1.34,0,0,0,0,2.47,19.7,19.7,0,0,0,2.42,1c.66.25,1.35.45,2,.76a2.9,2.9,0,0,1,1.79,2.87,3.34,3.34,0,0,1-1.92,3,5.64,5.64,0,0,1-4.15.32,13.36,13.36,0,0,1-2.82-1.24,1.17,1.17,0,0,1-.34-1.07c.19-.56.68-.57,1.22-.32a13.72,13.72,0,0,0,2.71,1.09,5.17,5.17,0,0,0,2.24-.11,1.57,1.57,0,0,0,1.22-1.56,1.53,1.53,0,0,0-1.06-1.5c-.75-.31-1.54-.53-2.31-.81a13.41,13.41,0,0,1-2-.77,3.05,3.05,0,0,1-.19-5.35A13.87,13.87,0,0,1,213.77,236.1Z"/><path d="M273.47,236.12c1.15.34,2.3.65,3.41,1,.53.19,1,.59.71,1.25s-.83.53-1.39.3a13,13,0,0,0-2.32-.74,3.66,3.66,0,0,0-1.61.12,1.55,1.55,0,0,0-1.23,1.38,1.42,1.42,0,0,0,1,1.49c.75.32,1.53.56,2.3.85.61.23,1.23.43,1.82.71a2.87,2.87,0,0,1,1.78,2.86,3.28,3.28,0,0,1-1.92,3,5.35,5.35,0,0,1-4,.34,15.62,15.62,0,0,1-3-1.27,1.19,1.19,0,0,1-.35-1.08c.19-.53.69-.54,1.23-.3a16.81,16.81,0,0,0,3,1.14,4.31,4.31,0,0,0,2.06-.21,1.51,1.51,0,0,0,1.08-1.49,1.47,1.47,0,0,0-.91-1.43,19.18,19.18,0,0,0-1.83-.7c-.76-.27-1.56-.49-2.3-.82a2.85,2.85,0,0,1-1.93-2.59,3.09,3.09,0,0,1,1.74-3.09A16.65,16.65,0,0,1,273.47,236.12Z"/><path d="M182,149c1.15,0,2.3,0,3.44,0a2.17,2.17,0,0,1,2.32,2.21,2.15,2.15,0,0,1-2.29,2.23c-2.35,0-4.69,0-7,0a2.22,2.22,0,1,1,0-4.43C179.64,149,180.84,149,182,149Z"/><path d="M180,236.51c1.12,0,2,0,2.85,0,.51,0,1,.14,1,.79s-.5.89-1.1.9c-.86,0-1.72,0-2.77,0,0,2.54-.05,4.93,0,7.31,0,1.08.75,1.6,1.88,1.64a8.85,8.85,0,0,1,1.14,0c.28,0,.72.29.73.47a1.14,1.14,0,0,1-.38.94,3.48,3.48,0,0,1-5.23-2.47c-.11-1.08,0-2.18,0-3.28v-4.21c-.55-.57-1.78-.15-1.74-1.26,0-.92,1-.68,1.67-1,0-.72.06-1.52.08-2.32,0-.59.17-1.15.85-1.18s1,.53,1,1.2Z"/><path d="M201.14,236.29V234c0-.65.13-1.29.94-1.25s.92.65.91,1.3v2.25c.49.06.9.14,1.31.17s.66,0,1,0c1.22,0,1.71.3,1.61.91-.16.89-.9.8-1.55.81s-1.2,0-1.8,0a2,2,0,0,0-.43.13c0,.37-.1.79-.11,1.21,0,1.74,0,3.49,0,5.24s.57,2.34,2.35,2.32a2.23,2.23,0,0,1,.81,0c.26.11.6.36.64.59a1,1,0,0,1-.38.79,3.44,3.44,0,0,1-5.25-2.59c-.09-1.41,0-2.83,0-4.25v-3.21a4,4,0,0,1-1.07-.3c-.29-.18-.64-.52-.65-.8s.36-.59.64-.78A4.29,4.29,0,0,1,201.14,236.29Z"/><path d="M285.25,205.31a2.7,2.7,0,1,1-2.69-2.81A2.6,2.6,0,0,1,285.25,205.31Z"/><path d="M263.61,242.41c0-1.52,0-3,0-4.58,0-1,.35-1.49.95-1.4.84.11.95.76.95,1.46v9a5.32,5.32,0,0,1,0,1c-.09.54-.38.92-1,.9a.86.86,0,0,1-.89-1c0-.76,0-1.52,0-2.29Z"/><path d="M134.84,140a2.3,2.3,0,0,1-2.56-2.34c0-1.49,1-2.38,2.7-2.35s2.53.86,2.54,2.33S136.54,140,134.84,140Z"/><path d="M191.15,185.18a2.34,2.34,0,0,1-2.63-2.44,2.31,2.31,0,0,1,2.62-2.28c1.6,0,2.58.85,2.62,2.27S192.82,185.17,191.15,185.18Z"/><path d="M224.44,242.59h-2.27c-.62,0-1.09-.25-1.13-.9a.93.93,0,0,1,1-1c1.57,0,3.14,0,4.71,0a.94.94,0,0,1,1,1c0,.66-.46.93-1.09.94Z"/><path d="M265.62,232.9a1.08,1.08,0,1,1-2.16,0,1,1,0,0,1,1.08-1.14A1.06,1.06,0,0,1,265.62,232.9Z"/></svg>