<?xml version="1.0" standalone="no"?>
<!DOCTYPE svg PUBLIC "-//W3C//DTD SVG 20010904//EN"
 "http://www.w3.org/TR/2001/REC-SVG-20010904/DTD/svg10.dtd">
<svg version="1.0" xmlns="http://www.w3.org/2000/svg"
 width="310.000000pt" height="310.000000pt" viewBox="0 0 310.000000 310.000000"
 preserveAspectRatio="xMidYMid meet">
<metadata>
Created by potrace 1.14, written by Peter Selinger 2001-2017
</metadata>
<g transform="translate(0.000000,310.000000) scale(0.100000,-0.100000)"
fill="#000000" stroke="none">
<path d="M2230 2537 c-34 -17 -55 -57 -46 -91 4 -16 29 -51 55 -80 146 -156
246 -351 297 -581 14 -60 18 -120 17 -245 0 -152 -3 -175 -32 -284 -52 -195
-144 -367 -280 -519 -46 -51 -61 -75 -61 -98 0 -43 39 -79 87 -79 34 0 45 7
101 67 123 130 223 301 285 483 119 349 93 723 -72 1055 -65 130 -159 262
-239 338 -54 49 -71 55 -112 34z"/>
<path d="M1030 2245 l-295 -295 -156 0 c-143 0 -159 -2 -183 -21 l-26 -20 0
-354 c0 -332 1 -354 19 -376 19 -23 25 -24 183 -27 l163 -3 285 -284 c157
-156 296 -288 310 -293 35 -13 76 4 89 36 8 19 11 293 9 960 l-3 933 -25 19
c-53 41 -55 39 -370 -275z"/>
<path d="M1906 2249 c-36 -42 -33 -69 17 -129 133 -164 189 -282 218 -460 31
-198 -39 -454 -168 -613 -107 -130 -113 -149 -64 -198 43 -42 72 -38 132 18
113 105 208 284 255 478 27 113 23 325 -9 447 -45 170 -135 332 -251 451 -49
49 -92 51 -130 6z"/>
<path d="M1640 1947 c-31 -16 -52 -55 -45 -85 3 -12 26 -50 50 -84 53 -71 79
-150 78 -233 -1 -71 -32 -164 -70 -212 -55 -69 -64 -87 -58 -118 7 -41 39 -65
85 -65 31 0 44 7 73 40 160 176 185 452 59 646 -43 66 -104 124 -130 124 -9 0
-28 -6 -42 -13z"/>
</g>
</svg>
